<?xml version="1.0" standalone="no"?>
<!DOCTYPE svg PUBLIC "-//W3C//DTD SVG 20010904//EN"
 "http://www.w3.org/TR/2001/REC-SVG-20010904/DTD/svg10.dtd">
<svg version="1.0" xmlns="http://www.w3.org/2000/svg"
 width="128.000000pt" height="128.000000pt" viewBox="0 0 128.000000 128.000000"
 preserveAspectRatio="xMidYMid meet">
<g transform="translate(0.000000,128.000000) scale(0.100000,-0.100000)"
fill="#000000" stroke="none">
<path d="M235 1251 c-72 -33 -146 -142 -160 -236 -4 -22 -21 -195 -39 -385
-35 -375 -35 -411 11 -488 43 -75 124 -103 193 -67 40 21 60 53 118 187 l50
117 -24 47 c-76 150 49 342 155 239 30 -27 44 -56 55 -107 6 -25 11 -28 46
-28 35 0 40 3 46 28 3 15 8 35 11 45 6 24 62 87 77 87 6 0 29 9 49 19 29 15
45 17 70 10 118 -33 126 -277 11 -325 l-32 -14 50 -117 c58 -135 78 -167 118
-188 69 -36 150 -8 194 67 44 75 45 121 10 490 -38 399 -39 409 -68 473 -45
99 -126 164 -205 165 -47 0 -116 -35 -149 -76 l-27 -34 -155 0 -155 0 -27 34
c-33 41 -102 76 -149 76 -19 0 -52 -9 -74 -19z m777 -148 c39 -35 7 -134 -39
-119 -26 8 -47 57 -38 88 16 50 44 61 77 31z m-678 -19 c3 -9 6 -35 6 -59 0
-43 0 -44 37 -47 31 -2 39 -8 47 -30 6 -18 6 -38 0 -55 -8 -23 -16 -29 -47
-31 l-37 -3 0 -53 c0 -61 -16 -82 -54 -72 -22 5 -25 12 -28 64 l-3 57 -40 5
c-39 5 -40 6 -43 48 -4 53 10 72 54 72 l34 0 0 53 c0 30 3 57 7 60 13 13 61 7
67 -9z m576 -104 c27 -15 36 -74 16 -105 -9 -14 -25 -25 -36 -25 -24 0 -50 36
-50 70 0 28 25 70 41 70 6 0 19 -5 29 -10z m192 -7 c20 -18 24 -73 8 -104 -6
-11 -21 -19 -35 -19 -29 0 -45 26 -45 71 0 32 23 69 43 69 6 0 19 -7 29 -17z
m-82 -142 c16 -31 12 -79 -10 -101 -25 -25 -32 -25 -55 0 -22 24 -25 81 -6
104 18 22 58 20 71 -3z"/>
<path d="M421 624 c-59 -75 -28 -215 49 -222 88 -9 130 139 63 219 -33 39 -83
40 -112 3z"/>
<path d="M748 621 c-69 -81 -26 -228 63 -219 52 5 82 56 77 131 -5 74 -31 111
-80 115 -29 2 -40 -2 -60 -27z"/>
</g>
</svg>
