<?xml version="1.0" standalone="no"?>
<!DOCTYPE svg PUBLIC "-//W3C//DTD SVG 20010904//EN"
 "http://www.w3.org/TR/2001/REC-SVG-20010904/DTD/svg10.dtd">
<svg version="1.0" xmlns="http://www.w3.org/2000/svg"
 width="128.000000pt" height="128.000000pt" viewBox="0 0 128.000000 128.000000"
 preserveAspectRatio="xMidYMid meet">
<g transform="translate(0.000000,128.000000) scale(0.100000,-0.100000)"
fill="#000000" stroke="none">
<path d="M383 1255 c-85 -36 -121 -190 -69 -301 28 -61 58 -84 107 -84 41 0
76 27 105 81 27 51 25 180 -3 235 -12 22 -28 46 -36 53 -28 22 -72 29 -104 16z"/>
<path d="M802 1244 c-44 -30 -67 -92 -67 -179 0 -124 46 -195 126 -195 105 0
165 191 100 318 -11 22 -31 48 -43 56 -29 20 -87 20 -116 0z"/>
<path d="M83 920 c-53 -32 -78 -91 -78 -185 0 -87 15 -127 62 -171 53 -49 125
-25 169 57 27 50 26 180 -2 234 -21 41 -75 85 -103 85 -9 0 -30 -9 -48 -20z"/>
<path d="M1100 918 c-53 -37 -75 -90 -75 -183 0 -87 15 -128 62 -171 51 -47
128 -21 166 56 31 64 31 177 -1 238 -23 42 -72 82 -103 82 -9 0 -31 -10 -49
-22z"/>
<path d="M594 770 c-121 -25 -167 -64 -285 -242 -115 -174 -131 -221 -106
-309 20 -68 73 -131 141 -167 l51 -27 225 0 225 0 60 28 c151 71 224 225 166
352 -34 74 -168 271 -207 303 -65 54 -182 81 -270 62z"/>
</g>
</svg>
