<?xml version="1.0" standalone="no"?>
<!DOCTYPE svg PUBLIC "-//W3C//DTD SVG 20010904//EN"
 "http://www.w3.org/TR/2001/REC-SVG-20010904/DTD/svg10.dtd">
<svg version="1.0" xmlns="http://www.w3.org/2000/svg"
 width="128.000000pt" height="128.000000pt" viewBox="0 0 128.000000 128.000000"
 preserveAspectRatio="xMidYMid meet">
<g transform="translate(0.000000,128.000000) scale(0.100000,-0.100000)"
fill="#000000" stroke="none">
<path d="M607 1203 c-4 -3 -7 -84 -7 -179 0 -169 0 -173 25 -202 l25 -30 -103
-103 c-106 -108 -186 -217 -218 -297 -17 -45 -18 -46 -19 -15 0 54 38 255 64
336 15 43 26 88 26 101 0 49 -70 75 -103 38 -23 -25 -61 -140 -93 -280 -20
-89 -27 -146 -28 -238 -1 -116 0 -122 27 -161 15 -21 46 -50 70 -64 l42 -24
381 -3 c341 -3 383 -1 398 13 34 34 10 78 -62 117 -27 14 -35 29 -61 114 -29
93 -31 107 -31 267 l0 170 40 43 40 44 0 175 c0 146 -2 177 -15 181 -9 4 -43
-15 -84 -45 -94 -70 -125 -70 -219 -1 -68 50 -83 56 -95 43z"/>
</g>
</svg>
