<?xml version="1.0" standalone="no"?>
<!DOCTYPE svg PUBLIC "-//W3C//DTD SVG 20010904//EN"
 "http://www.w3.org/TR/2001/REC-SVG-20010904/DTD/svg10.dtd">
<svg version="1.0" xmlns="http://www.w3.org/2000/svg"
 width="128.000000pt" height="128.000000pt" viewBox="0 0 128.000000 128.000000"
 preserveAspectRatio="xMidYMid meet">
<g transform="translate(0.000000,128.000000) scale(0.100000,-0.100000)"
fill="#000000" stroke="none">
<path d="M213 1188 c-6 -7 -38 -85 -73 -173 -82 -210 -82 -271 -4 -355 23 -25
23 -29 26 -267 l3 -243 33 -32 32 -33 410 0 410 0 32 33 33 32 3 243 c3 238 3
242 26 267 78 84 78 145 -4 355 -35 88 -67 166 -73 173 -7 9 -105 12 -427 12
-322 0 -420 -3 -427 -12z m844 -183 c78 -197 78 -197 55 -247 -50 -114 -204
-98 -245 25 -25 76 -69 76 -94 0 -8 -22 -27 -53 -44 -69 -26 -25 -38 -29 -89
-29 -51 0 -63 4 -89 29 -17 16 -36 47 -44 69 -25 76 -69 76 -94 0 -29 -86
-111 -124 -188 -87 -49 23 -81 88 -67 137 10 34 99 265 108 279 3 5 172 7 377
6 l371 -3 43 -110z m-563 -348 c75 -75 217 -75 293 1 l33 33 35 -34 c38 -36
91 -57 149 -57 l36 0 0 -208 c0 -148 -3 -211 -12 -220 -17 -17 -759 -17 -776
0 -9 9 -12 72 -12 220 l0 208 36 0 c58 0 115 22 148 56 17 18 32 33 34 33 1 1
17 -14 36 -32z"/>
</g>
</svg>
