<?xml version="1.0" standalone="no"?>
<!DOCTYPE svg PUBLIC "-//W3C//DTD SVG 20010904//EN"
 "http://www.w3.org/TR/2001/REC-SVG-20010904/DTD/svg10.dtd">
<svg version="1.0" xmlns="http://www.w3.org/2000/svg"
 width="128.000000pt" height="128.000000pt" viewBox="0 0 128.000000 128.000000"
 preserveAspectRatio="xMidYMid meet">
<g transform="translate(0.000000,128.000000) scale(0.100000,-0.100000)"
fill="#000000" stroke="none">
<path d="M307 1029 c-164 -82 -300 -156 -304 -165 -3 -9 2 -23 11 -32 15 -15
37 -6 314 132 l297 148 304 -147 c167 -80 311 -145 320 -143 9 2 17 15 19 29
3 25 -12 33 -312 177 -173 84 -323 152 -333 151 -10 0 -152 -67 -316 -150z"/>
<path d="M378 924 l-228 -114 0 -280 c0 -305 2 -320 56 -374 64 -63 77 -66
423 -66 355 0 374 3 437 65 59 59 64 91 64 389 l0 256 -23 15 c-45 29 -467
225 -484 224 -10 0 -120 -52 -245 -115z m471 -59 l212 -100 -3 -257 c-4 -369
21 -348 -421 -348 -444 0 -417 -23 -417 352 l0 257 203 100 c111 54 205 98
208 98 4 -1 102 -47 218 -102z"/>
<path d="M614 835 c-4 -9 -2 -21 4 -27 15 -15 44 -1 40 19 -4 23 -36 29 -44 8z"/>
<path d="M693 814 c-7 -19 11 -39 26 -30 16 10 13 33 -4 40 -9 3 -18 -1 -22
-10z"/>
<path d="M542 803 c2 -10 10 -18 18 -18 8 0 16 8 18 18 2 12 -3 17 -18 17 -15
0 -20 -5 -18 -17z"/>
<path d="M588 773 c-9 -10 -19 -28 -22 -40 -7 -22 -5 -23 63 -23 78 0 88 11
55 58 -19 27 -74 30 -96 5z"/>
<path d="M560 659 c-204 -82 -165 -383 53 -406 74 -8 151 27 193 89 26 37 29
50 29 118 0 66 -4 82 -27 117 -48 73 -169 113 -248 82z m141 -74 c94 -49 91
-210 -6 -251 -94 -39 -189 14 -201 113 -13 106 110 188 207 138z"/>
</g>
</svg>
