<?xml version="1.0" standalone="no"?>
<!DOCTYPE svg PUBLIC "-//W3C//DTD SVG 20010904//EN"
 "http://www.w3.org/TR/2001/REC-SVG-20010904/DTD/svg10.dtd">
<svg version="1.0" xmlns="http://www.w3.org/2000/svg"
 width="128.000000pt" height="128.000000pt" viewBox="0 0 128.000000 128.000000"
 preserveAspectRatio="xMidYMid meet">
<g transform="translate(0.000000,128.000000) scale(0.100000,-0.100000)"
fill="#000000" stroke="none">
<path d="M545 1271 c-259 -41 -461 -224 -525 -477 -53 -208 10 -436 164 -590
116 -116 198 -143 257 -85 26 26 29 36 29 89 0 50 4 66 25 90 31 37 73 48 121
32 34 -11 38 -10 67 18 48 45 109 79 175 99 l59 17 -14 35 c-19 45 -10 93 27
135 25 28 30 43 30 83 0 47 -2 50 -35 66 -41 20 -75 70 -75 112 0 42 34 92 75
112 l36 17 -3 81 -3 80 -51 27 c-93 50 -250 76 -359 59z m193 -101 c40 -25 66
-80 57 -122 -9 -41 -60 -95 -95 -103 -68 -15 -138 35 -147 104 -15 108 92 178
185 121z m-316 -140 c78 -61 55 -193 -39 -219 -41 -12 -96 2 -123 31 -76 82
-22 208 89 208 33 0 56 -6 73 -20z"/>
<path d="M1158 1260 c-26 -5 -52 -11 -57 -15 -8 -4 -11 -151 -11 -451 l0 -444
-67 0 c-79 -1 -143 -22 -208 -67 -57 -41 -85 -86 -85 -139 0 -32 6 -46 33 -71
41 -41 112 -73 160 -73 119 0 267 68 328 153 l29 40 0 539 0 538 -37 -1 c-21
-1 -59 -5 -85 -9z"/>
</g>
</svg>
