<?xml version="1.0" standalone="no"?>
<!DOCTYPE svg PUBLIC "-//W3C//DTD SVG 20010904//EN"
 "http://www.w3.org/TR/2001/REC-SVG-20010904/DTD/svg10.dtd">
<svg version="1.0" xmlns="http://www.w3.org/2000/svg"
 width="128.000000pt" height="128.000000pt" viewBox="0 0 128.000000 128.000000"
 preserveAspectRatio="xMidYMid meet">
<g transform="translate(0.000000,128.000000) scale(0.100000,-0.100000)"
fill="#000000" stroke="none">
<path d="M47 1273 c-4 -3 -7 -177 -7 -385 0 -373 0 -378 -20 -378 -20 0 -20
-5 -18 -157 l3 -158 113 -3 c106 -3 112 -2 112 17 0 19 -8 20 -92 23 l-93 3
-3 118 -3 117 601 0 601 0 -3 -117 -3 -118 -268 -3 c-248 -2 -268 -4 -265 -20
3 -16 26 -17 288 -17 l285 0 3 153 c2 147 2 154 -18 159 -19 5 -20 14 -22 387
l-3 381 -591 3 c-325 1 -594 -1 -597 -5z m1143 -398 l0 -365 -550 0 -550 0 0
365 0 365 550 0 550 0 0 -365z"/>
<path d="M130 875 l0 -275 308 2 307 3 0 270 0 270 -307 3 -308 2 0 -275z
m380 65 l0 -170 -170 0 -170 0 0 170 0 170 170 0 170 0 0 -170z m190 0 l0
-170 -75 0 -75 0 0 163 c0 90 3 167 7 170 3 4 37 7 75 7 l68 0 0 -170z m0
-255 l0 -45 -265 0 -265 0 0 38 c0 21 3 42 7 45 3 4 123 7 265 7 l258 0 0 -45z"/>
<path d="M320 1062 c0 -4 -14 -13 -31 -19 -29 -11 -30 -14 -27 -65 l3 -53 58
-3 c53 -3 57 -5 57 -27 0 -22 -4 -25 -40 -25 -29 0 -40 4 -40 15 0 8 -9 15
-20 15 -14 0 -20 -7 -20 -23 0 -28 17 -47 42 -47 10 0 18 -4 18 -10 0 -5 9
-10 20 -10 11 0 20 5 20 10 0 6 9 10 19 10 43 0 66 63 41 111 -9 15 -22 19
-65 19 -48 0 -55 2 -55 20 0 17 7 20 39 20 22 0 43 -4 46 -10 3 -5 15 -10 26
-10 31 0 20 41 -16 60 -16 8 -31 18 -33 23 -5 9 -42 9 -42 -1z"/>
<path d="M600 1025 c0 -21 5 -25 30 -25 25 0 30 4 30 25 0 21 -5 25 -30 25
-25 0 -30 -4 -30 -25z"/>
<path d="M600 940 c0 -16 7 -20 30 -20 23 0 30 4 30 20 0 16 -7 20 -30 20 -23
0 -30 -4 -30 -20z"/>
<path d="M600 850 c0 -16 7 -20 30 -20 23 0 30 4 30 20 0 16 -7 20 -30 20 -23
0 -30 -4 -30 -20z"/>
<path d="M814 1137 c-3 -8 -4 -45 -2 -83 l3 -69 165 0 165 0 3 83 3 82 -166 0
c-130 0 -167 -3 -171 -13z m296 -72 l0 -46 -127 3 -128 3 -3 43 -3 42 130 0
131 0 0 -45z"/>
<path d="M832 898 c5 -34 38 -37 38 -4 0 20 -5 26 -21 26 -15 0 -20 -5 -17
-22z"/>
<path d="M920 894 c0 -33 33 -30 38 4 3 17 -2 22 -17 22 -16 0 -21 -6 -21 -26z"/>
<path d="M1002 898 c4 -30 43 -33 43 -3 0 13 -8 21 -23 23 -20 3 -23 0 -20
-20z"/>
<path d="M1090 895 c0 -18 5 -25 20 -25 15 0 20 7 20 25 0 18 -5 25 -20 25
-15 0 -20 -7 -20 -25z"/>
<path d="M830 810 c0 -13 7 -20 20 -20 13 0 20 7 20 20 0 13 -7 20 -20 20 -13
0 -20 -7 -20 -20z"/>
<path d="M920 810 c0 -13 7 -20 20 -20 13 0 20 7 20 20 0 13 -7 20 -20 20 -13
0 -20 -7 -20 -20z"/>
<path d="M1000 810 c0 -15 7 -20 25 -20 18 0 25 5 25 20 0 15 -7 20 -25 20
-18 0 -25 -5 -25 -20z"/>
<path d="M1090 810 c0 -13 7 -20 20 -20 13 0 20 7 20 20 0 13 -7 20 -20 20
-13 0 -20 -7 -20 -20z"/>
<path d="M832 728 c5 -34 38 -37 38 -4 0 20 -5 26 -21 26 -15 0 -20 -5 -17
-22z"/>
<path d="M920 725 c0 -18 5 -25 20 -25 15 0 20 7 20 25 0 18 -5 25 -20 25 -15
0 -20 -7 -20 -25z"/>
<path d="M1004 735 c-4 -9 -2 -21 4 -27 15 -15 44 -1 40 19 -4 23 -36 29 -44
8z"/>
<path d="M1090 725 c0 -18 5 -25 20 -25 15 0 20 7 20 25 0 18 -5 25 -20 25
-15 0 -20 -7 -20 -25z"/>
<path d="M830 640 c0 -13 7 -20 20 -20 13 0 20 7 20 20 0 13 -7 20 -20 20 -13
0 -20 -7 -20 -20z"/>
<path d="M920 640 c0 -13 7 -20 20 -20 13 0 20 7 20 20 0 13 -7 20 -20 20 -13
0 -20 -7 -20 -20z"/>
<path d="M1000 640 c0 -15 7 -20 25 -20 18 0 25 5 25 20 0 15 -7 20 -25 20
-18 0 -25 -5 -25 -20z"/>
<path d="M1090 640 c0 -13 7 -20 20 -20 13 0 20 7 20 20 0 13 -7 20 -20 20
-13 0 -20 -7 -20 -20z"/>
<path d="M190 360 c0 -17 7 -20 45 -20 l45 0 0 -170 0 -170 188 2 187 3 3 168
2 167 45 0 c38 0 45 3 45 20 0 20 -7 20 -280 20 -273 0 -280 0 -280 -20z m180
-50 c17 -40 37 -50 103 -50 55 0 85 18 100 63 4 9 16 17 27 17 19 0 20 -6 20
-150 l0 -150 -150 0 -150 0 0 150 c0 140 1 150 19 150 11 0 23 -12 31 -30z
m160 22 c0 -17 -26 -32 -56 -32 -42 0 -64 9 -64 26 0 10 15 14 60 14 33 0 60
-4 60 -8z"/>
<path d="M340 110 c0 -34 4 -41 24 -46 37 -9 61 -1 61 21 0 13 -8 21 -22 23
-15 2 -23 10 -23 23 0 12 -7 19 -20 19 -17 0 -20 -7 -20 -40z"/>
<path d="M553 130 c-3 -11 -14 -20 -25 -20 -33 0 -19 -44 15 -48 38 -5 57 14
57 54 0 28 -4 34 -21 34 -12 0 -23 -8 -26 -20z"/>
<path d="M790 360 c0 -17 7 -20 40 -20 33 0 40 3 40 20 0 17 -7 20 -40 20 -33
0 -40 -3 -40 -20z"/>
<path d="M920 360 c0 -17 7 -20 40 -20 33 0 40 3 40 20 0 17 -7 20 -40 20 -33
0 -40 -3 -40 -20z"/>
</g>
</svg>
