<?xml version="1.0" standalone="no"?>
<!DOCTYPE svg PUBLIC "-//W3C//DTD SVG 20010904//EN"
 "http://www.w3.org/TR/2001/REC-SVG-20010904/DTD/svg10.dtd">
<svg version="1.0" xmlns="http://www.w3.org/2000/svg"
 width="128.000000pt" height="128.000000pt" viewBox="0 0 128.000000 128.000000"
 preserveAspectRatio="xMidYMid meet">
<g transform="translate(0.000000,128.000000) scale(0.100000,-0.100000)"
fill="#000000" stroke="none">
<path d="M222 1260 c-12 -12 -34 -62 -52 -122 -17 -57 -44 -145 -60 -195 l-28
-93 558 0 557 0 -48 163 c-27 89 -56 180 -64 203 -18 48 -51 70 -92 60 -35 -9
-51 -9 -86 0 -17 4 -38 2 -51 -6 -18 -9 -29 -9 -44 -1 -28 15 -64 14 -87 -3
-16 -11 -22 -11 -46 3 -23 13 -33 14 -63 3 -25 -9 -41 -10 -55 -3 -27 15 -64
14 -86 -3 -16 -11 -22 -11 -46 3 -23 13 -33 14 -63 3 -25 -9 -41 -10 -55 -3
-30 17 -65 13 -89 -9z"/>
<path d="M70 786 c0 -13 9 -35 21 -50 31 -40 89 -37 123 7 18 22 26 27 26 15
0 -24 39 -48 77 -48 33 0 73 28 73 53 0 6 6 3 12 -8 30 -52 93 -61 134 -20
l26 26 20 -26 c28 -35 88 -35 116 0 l20 26 26 -26 c41 -41 104 -32 134 20 6
11 12 14 12 8 0 -25 40 -53 73 -53 38 0 77 24 77 48 0 12 8 7 26 -15 34 -44
92 -47 123 -7 12 15 21 37 21 50 l0 24 -570 0 -570 0 0 -24z"/>
<path d="M190 655 l-35 -13 -3 -211 -2 -211 -25 0 c-22 0 -25 5 -25 33 0 43
-32 76 -55 57 -12 -10 -15 -39 -15 -149 0 -93 4 -141 12 -149 17 -17 1179 -17
1196 0 8 8 12 56 12 149 0 110 -3 139 -15 149 -23 19 -55 -14 -55 -57 0 -28
-3 -33 -25 -33 l-25 0 -2 211 -3 211 -39 13 c-26 9 -45 11 -57 4 -10 -5 -32
-9 -49 -9 l-31 0 4 -167 c2 -106 9 -184 17 -210 12 -37 12 -47 -2 -76 -24 -50
-68 -65 -273 -94 -212 -30 -253 -26 -283 28 -11 18 -25 29 -39 29 -25 0 -51
35 -30 42 6 3 31 3 55 0 36 -3 42 -7 42 -27 0 -54 46 -60 254 -30 227 32 262
50 236 121 -11 30 -67 94 -82 94 -4 0 -8 -10 -8 -22 0 -13 -5 -30 -10 -38 -8
-12 -10 -10 -10 10 0 41 -34 86 -70 94 -67 13 -68 12 -58 -45 16 -87 7 -102
-24 -39 -42 87 -42 88 -4 104 35 15 55 51 38 68 -7 7 -2 26 15 59 47 90 6 133
-87 89 -26 -12 -53 -19 -59 -16 -19 12 -51 -4 -66 -35 -12 -22 -23 -29 -45
-29 -33 0 -57 -27 -66 -77 -5 -28 -10 -33 -35 -33 l-29 0 0 99 0 99 -37 4
c-21 3 -45 7 -53 10 -8 3 -31 0 -50 -7z m510 -40 c0 -3 -9 -23 -20 -44 -13
-26 -30 -43 -52 -51 l-33 -12 33 -14 c17 -8 32 -18 32 -24 0 -12 -63 -24 -87
-16 -13 4 -27 -2 -41 -17 l-22 -23 45 -12 c51 -14 56 -24 20 -40 -31 -14 -70
-15 -94 -2 -14 7 -25 2 -49 -23 l-32 -33 45 -12 c51 -14 56 -24 20 -40 -33
-15 -78 -15 -93 0 -8 8 -15 8 -27 -2 -20 -17 -32 -5 -15 15 10 12 10 19 2 27
-22 22 -7 118 18 118 5 0 15 -20 22 -45 l12 -45 32 31 c28 28 31 33 21 59 -12
33 0 101 20 108 8 2 17 -14 25 -42 l12 -46 22 21 c17 16 21 28 17 58 -3 22 0
48 8 62 12 24 12 24 30 -16 11 -26 19 -35 22 -25 3 8 8 23 11 32 8 28 96 75
96 53z m-140 -331 c15 -38 13 -40 -15 -14 -29 27 -32 40 -10 40 9 0 20 -12 25
-26z m-410 -164 c0 -36 -2 -40 -25 -40 -22 0 -25 4 -25 40 0 36 3 40 25 40 23
0 25 -4 25 -40z m1030 0 c0 -36 -2 -40 -25 -40 -22 0 -25 4 -25 40 0 36 3 40
25 40 23 0 25 -4 25 -40z"/>
</g>
</svg>
