<?xml version="1.0" standalone="no"?>
<!DOCTYPE svg PUBLIC "-//W3C//DTD SVG 20010904//EN"
 "http://www.w3.org/TR/2001/REC-SVG-20010904/DTD/svg10.dtd">
<svg version="1.0" xmlns="http://www.w3.org/2000/svg"
 width="128.000000pt" height="128.000000pt" viewBox="0 0 128.000000 128.000000"
 preserveAspectRatio="xMidYMid meet">
<g transform="translate(0.000000,128.000000) scale(0.100000,-0.100000)"
fill="#000000" stroke="none">
<path d="M185 1095 l-25 -24 0 -431 0 -431 25 -24 24 -25 431 0 431 0 24 25
25 24 0 431 0 431 -25 24 -24 25 -431 0 -431 0 -24 -25z m855 -455 l0 -400
-400 0 -400 0 0 400 0 400 400 0 400 0 0 -400z"/>
<path d="M380 940 c-11 -11 -20 -29 -20 -40 0 -26 34 -60 60 -60 26 0 60 34
60 60 0 11 -9 29 -20 40 -11 11 -29 20 -40 20 -11 0 -29 -9 -40 -20z"/>
<path d="M600 940 c-11 -11 -20 -29 -20 -40 0 -26 34 -60 60 -60 11 0 29 9 40
20 11 11 20 29 20 40 0 11 -9 29 -20 40 -11 11 -29 20 -40 20 -11 0 -29 -9
-40 -20z"/>
<path d="M820 940 c-11 -11 -20 -29 -20 -40 0 -11 9 -29 20 -40 11 -11 29 -20
40 -20 11 0 29 9 40 20 11 11 20 29 20 40 0 11 -9 29 -20 40 -11 11 -29 20
-40 20 -11 0 -29 -9 -40 -20z"/>
<path d="M332 748 c-17 -17 -17 -399 0 -416 17 -17 599 -17 616 0 17 17 17
399 0 416 -17 17 -599 17 -616 0z m548 -208 l0 -140 -240 0 -240 0 0 140 0
140 240 0 240 0 0 -140z"/>
</g>
</svg>
