<?xml version="1.0" standalone="no"?>
<!DOCTYPE svg PUBLIC "-//W3C//DTD SVG 20010904//EN"
 "http://www.w3.org/TR/2001/REC-SVG-20010904/DTD/svg10.dtd">
<svg version="1.0" xmlns="http://www.w3.org/2000/svg"
 width="128.000000pt" height="128.000000pt" viewBox="0 0 128.000000 128.000000"
 preserveAspectRatio="xMidYMid meet">
<g transform="translate(0.000000,128.000000) scale(0.100000,-0.100000)"
fill="#000000" stroke="none">
<path d="M500 1169 c-116 -56 -350 -188 -379 -213 -33 -30 -51 -77 -51 -136 0
-44 5 -56 29 -81 l29 -29 512 0 512 0 29 29 c24 25 29 37 29 81 0 59 -18 106
-51 137 -30 26 -357 208 -422 234 -78 31 -140 25 -237 -22z m186 -234 c13 -21
15 -31 6 -50 -25 -55 -102 -35 -102 26 0 51 68 67 96 24z"/>
<path d="M177 634 c-9 -10 -9 -282 1 -287 4 -2 70 -1 147 2 l140 6 0 140 0
140 -141 3 c-77 1 -143 -1 -147 -4z"/>
<path d="M817 634 c-9 -10 -9 -272 1 -277 4 -3 70 -6 147 -8 l140 -4 0 145 0
145 -141 3 c-77 1 -143 -1 -147 -4z"/>
<path d="M191 265 c-93 -29 -153 -133 -103 -178 17 -15 70 -17 554 -17 505 0
536 1 551 18 46 51 -13 149 -107 177 -69 21 -828 21 -895 0z"/>
</g>
</svg>
