<?xml version="1.0" standalone="no"?>
<!DOCTYPE svg PUBLIC "-//W3C//DTD SVG 20010904//EN"
 "http://www.w3.org/TR/2001/REC-SVG-20010904/DTD/svg10.dtd">
<svg version="1.0" xmlns="http://www.w3.org/2000/svg"
 width="128.000000pt" height="128.000000pt" viewBox="0 0 128.000000 128.000000"
 preserveAspectRatio="xMidYMid meet">
<g transform="translate(0.000000,128.000000) scale(0.100000,-0.100000)"
fill="#000000" stroke="none">
<path d="M287 1246 c-71 -29 -94 -49 -102 -86 -9 -39 13 -77 80 -141 30 -29
55 -59 55 -68 0 -8 -20 -41 -45 -72 l-46 -58 53 15 c69 21 104 42 117 71 27
60 8 111 -70 184 l-60 56 46 55 c64 78 62 81 -28 44z"/>
<path d="M670 1263 c-123 -45 -164 -91 -137 -155 8 -18 40 -56 71 -85 31 -29
56 -61 56 -71 0 -11 -18 -42 -40 -70 -22 -27 -40 -53 -40 -56 0 -13 136 45
153 65 21 26 22 90 2 128 -8 16 -40 51 -71 78 l-56 49 46 54 c56 65 59 79 16
63z"/>
<path d="M972 1247 c-79 -32 -102 -57 -102 -109 0 -40 5 -47 65 -104 39 -37
65 -70 65 -82 0 -11 -18 -43 -40 -71 -22 -28 -40 -53 -40 -56 0 -12 137 46
153 66 21 26 22 90 2 128 -8 16 -37 49 -65 74 -27 25 -50 51 -50 57 0 7 18 32
40 56 37 41 50 65 33 63 -5 0 -32 -11 -61 -22z"/>
<path d="M90 365 l0 -365 45 0 45 0 0 90 0 90 455 0 455 0 0 -90 0 -90 45 0
45 0 0 365 0 365 -545 0 -545 0 0 -365z m1000 90 l0 -185 -452 2 -453 3 -3
170 c-1 93 0 175 2 182 4 10 98 13 456 13 l450 0 0 -185z"/>
<path d="M303 515 c-31 -31 -35 -40 -29 -68 16 -77 100 -107 153 -54 39 39 37
90 -5 128 -44 39 -76 37 -119 -6z"/>
<path d="M604 540 c-76 -30 -67 -158 12 -173 56 -10 114 34 114 88 0 29 -28
71 -55 83 -30 14 -42 14 -71 2z"/>
<path d="M863 531 c-61 -38 -50 -136 18 -160 37 -13 91 6 108 37 45 84 -47
172 -126 123z"/>
</g>
</svg>
