<?xml version="1.0" standalone="no"?>
<!DOCTYPE svg PUBLIC "-//W3C//DTD SVG 20010904//EN"
 "http://www.w3.org/TR/2001/REC-SVG-20010904/DTD/svg10.dtd">
<svg version="1.0" xmlns="http://www.w3.org/2000/svg"
 width="128.000000pt" height="128.000000pt" viewBox="0 0 128.000000 128.000000"
 preserveAspectRatio="xMidYMid meet">
<g transform="translate(0.000000,128.000000) scale(0.100000,-0.100000)"
fill="#000000" stroke="none">
<path d="M45 795 c-30 -29 -32 -55 -6 -86 l19 -24 549 -3 c301 -2 562 0 580 3
43 8 63 30 63 70 0 67 20 65 -613 65 l-568 0 -24 -25z"/>
<path d="M184 627 c-2 -7 -3 -69 -2 -138 l3 -124 65 0 65 0 3 138 3 137 -66 0
c-45 0 -67 -4 -71 -13z"/>
<path d="M960 500 l0 -140 65 0 65 0 0 140 0 140 -65 0 -65 0 0 -140z"/>
</g>
</svg>
