<?xml version="1.0" standalone="no"?>
<!DOCTYPE svg PUBLIC "-//W3C//DTD SVG 20010904//EN"
 "http://www.w3.org/TR/2001/REC-SVG-20010904/DTD/svg10.dtd">
<svg version="1.0" xmlns="http://www.w3.org/2000/svg"
 width="128.000000pt" height="128.000000pt" viewBox="0 0 128.000000 128.000000"
 preserveAspectRatio="xMidYMid meet">
<g transform="translate(0.000000,128.000000) scale(0.100000,-0.100000)"
fill="#000000" stroke="none">
<path d="M500 1126 c0 -34 1 -35 48 -38 40 -3 47 -6 50 -26 3 -20 8 -23 45
-20 35 2 43 7 45 26 3 19 9 22 48 22 44 0 44 0 44 35 l0 35 -140 0 -140 0 0
-34z m258 2 c-3 -9 -36 -14 -108 -16 -108 -3 -135 1 -125 18 10 16 238 13 233
-2z m-98 -53 c0 -8 -9 -15 -20 -15 -11 0 -20 7 -20 15 0 8 9 15 20 15 11 0 20
-7 20 -15z"/>
<path d="M360 1042 c-32 -12 -46 -24 -48 -39 -4 -25 29 -47 57 -38 15 4 61 71
61 89 0 10 -22 6 -70 -12z m13 -43 c-12 -12 -26 -18 -32 -15 -15 9 -4 25 23
36 30 11 33 3 9 -21z"/>
<path d="M850 1056 c0 -15 45 -78 62 -87 34 -18 80 13 62 43 -14 22 -124 61
-124 44z m75 -38 c14 -6 24 -16 22 -22 -7 -20 -25 -16 -41 9 -19 28 -17 30 19
13z"/>
<path d="M442 999 c-23 -17 -42 -39 -42 -49 0 -47 75 -52 85 -5 3 14 7 36 10
49 8 37 -8 39 -53 5z m21 -39 c-6 -24 -19 -34 -34 -25 -7 5 -4 14 7 26 22 25
33 24 27 -1z"/>
<path d="M793 979 c7 -53 27 -74 62 -65 43 11 43 36 0 73 -53 46 -69 44 -62
-8z m57 -14 c9 -11 10 -19 2 -27 -14 -14 -32 -1 -32 23 0 23 13 25 30 4z"/>
<path d="M519 964 c-17 -36 -18 -48 -8 -60 18 -21 73 -14 77 10 5 22 -27 96
-40 96 -5 0 -18 -21 -29 -46z m44 -25 c3 -12 0 -22 -9 -26 -20 -8 -27 2 -19
26 8 27 21 27 28 0z"/>
<path d="M709 967 c-19 -38 -20 -48 -9 -61 16 -20 69 -21 76 -1 7 18 -13 80
-31 95 -12 10 -18 4 -36 -33z m41 -38 c0 -10 -7 -19 -15 -19 -16 0 -19 9 -9
34 8 20 24 11 24 -15z"/>
<path d="M617 925 c-22 -47 -21 -72 3 -85 26 -14 60 3 60 29 0 24 -28 91 -38
91 -5 0 -16 -16 -25 -35z m33 -24 c0 -5 3 -16 6 -25 4 -12 0 -16 -16 -16 -16
0 -20 4 -16 16 3 9 6 20 6 25 0 5 5 9 10 9 6 0 10 -4 10 -9z"/>
<path d="M795 851 c-3 -5 20 -21 50 -35 65 -29 75 -52 14 -31 -54 19 -172 19
-208 1 -15 -8 -42 -30 -58 -49 l-30 -35 -102 12 c-55 7 -103 14 -105 17 -2 2
-8 14 -14 25 -10 18 -27 24 -97 35 -47 7 -88 10 -91 7 -3 -3 6 -29 20 -57 31
-61 31 -59 3 -63 -18 -2 -22 -9 -22 -38 0 -35 1 -35 50 -41 28 -3 42 -7 31 -7
-10 -1 -33 -17 -52 -36 -45 -45 -47 -95 -6 -136 70 -69 192 -57 240 25 26 43
44 44 72 5 21 -29 24 -30 98 -30 86 0 94 4 225 108 38 30 70 52 73 50 2 -3 -6
-23 -18 -44 -25 -48 -20 -84 19 -120 83 -77 243 -30 243 71 0 48 -50 100 -104
110 -25 5 -41 15 -48 31 -9 20 -6 29 26 66 43 50 42 77 -3 119 -41 38 -189 66
-206 40z m172 -40 c38 -24 50 -55 32 -87 -13 -25 -133 -129 -255 -221 l-71
-53 -75 0 c-55 0 -79 4 -88 15 -10 12 -10 16 1 19 38 12 77 14 86 5 6 -6 28
-9 49 -7 l39 3 3 60 c3 66 13 85 35 67 16 -14 28 -6 21 13 -7 16 26 29 40 15
16 -16 29 -12 22 7 -9 21 13 34 37 22 39 -21 38 -1 -2 30 -41 32 -66 37 -42 7
10 -12 8 -16 -9 -21 -12 -4 -27 -1 -36 6 -19 15 -31 4 -15 -15 19 -22 -25 -33
-49 -11 -10 9 -21 12 -24 7 -3 -5 1 -15 10 -22 20 -17 2 -30 -43 -30 -26 0
-33 -4 -33 -20 0 -23 -23 -34 -91 -43 -44 -6 -46 -5 -62 28 l-17 35 -79 0
c-51 0 -82 4 -88 13 -18 22 -76 137 -72 141 2 2 29 0 59 -6 39 -7 62 -17 81
-37 22 -24 35 -29 105 -35 43 -4 95 -9 114 -12 31 -5 37 -2 52 25 31 56 72 73
163 68 57 -2 92 -10 122 -25 52 -27 53 -27 53 -1 0 11 -13 34 -29 50 l-29 29
26 0 c15 0 41 -9 59 -19z m-739 -173 c3 -13 -3 -18 -22 -18 -27 0 -41 14 -31
31 10 16 49 6 53 -13z m730 -30 c2 -9 -6 -18 -19 -21 -33 -9 -43 2 -23 24 20
22 37 20 42 -3z m-536 -33 c16 -36 4 -41 -34 -12 -18 14 -42 27 -53 30 -11 2
1 5 28 6 41 1 49 -2 59 -24z m238 -25 c0 -43 -3 -50 -20 -50 -17 0 -20 7 -20
50 0 43 3 50 20 50 17 0 20 -7 20 -50z m-314 14 c19 -9 32 -20 29 -24 -2 -4
-28 -10 -57 -13 -57 -7 -82 -24 -72 -50 9 -24 40 -29 99 -18 27 5 52 7 54 5 3
-2 -6 -15 -19 -29 -59 -62 -170 -49 -200 25 -16 39 4 79 50 102 43 22 72 23
116 2z m699 2 c89 -38 80 -140 -15 -166 -71 -19 -150 25 -150 85 0 37 15 59
55 80 37 19 66 19 110 1z m-450 -25 c3 -5 0 -13 -5 -16 -23 -14 -305 -54 -314
-45 -5 5 -7 12 -5 15 4 4 263 50 306 54 6 0 14 -3 18 -8z"/>
<path d="M963 513 c-18 -7 -16 -38 2 -53 19 -15 61 -6 69 16 12 32 -30 54 -71
37z m47 -22 c0 -14 -18 -23 -30 -16 -6 4 -8 11 -5 16 8 12 35 12 35 0z"/>
</g>
</svg>
