<?xml version="1.0" standalone="no"?>
<!DOCTYPE svg PUBLIC "-//W3C//DTD SVG 20010904//EN"
 "http://www.w3.org/TR/2001/REC-SVG-20010904/DTD/svg10.dtd">
<svg version="1.0" xmlns="http://www.w3.org/2000/svg"
 width="128.000000pt" height="128.000000pt" viewBox="0 0 128.000000 128.000000"
 preserveAspectRatio="xMidYMid meet">
<g transform="translate(0.000000,128.000000) scale(0.100000,-0.100000)"
fill="#000000" stroke="none">
<path d="M208 1270 c-57 -17 -108 -58 -108 -86 0 -2 47 -4 105 -4 l105 0 27
-41 27 -41 -20 -36 c-32 -60 -37 -62 -145 -62 -56 0 -99 -4 -99 -9 0 -18 65
-60 110 -72 60 -15 119 1 169 47 l38 34 208 0 208 0 38 -34 c112 -102 290 -45
306 97 8 72 -4 114 -46 156 -76 76 -183 76 -266 0 l-42 -39 -202 0 -201 0 -27
31 c-16 17 -39 37 -53 44 -35 18 -100 25 -132 15z m876 -130 c14 -22 26 -42
26 -45 0 -4 -14 -26 -30 -51 -30 -43 -32 -44 -85 -44 -53 0 -53 0 -80 47 l-28
46 24 44 24 43 61 0 c60 0 62 -1 88 -40z"/>
<path d="M732 728 c3 -39 7 -45 46 -66 40 -22 42 -26 42 -68 l0 -44 -180 0
-180 0 0 45 0 45 38 0 c69 0 95 58 37 80 -38 15 -225 12 -255 -3 -53 -27 -26
-77 41 -77 l39 0 0 -52 c0 -31 -10 -76 -23 -108 -21 -52 -24 -55 -65 -62 -172
-29 -238 -232 -117 -354 88 -88 220 -84 302 9 39 45 57 97 50 153 l-5 44 65 0
65 0 98 90 c54 50 100 90 103 90 3 0 8 -14 12 -31 6 -25 2 -36 -18 -57 -92
-99 -79 -249 28 -324 49 -34 125 -46 180 -28 47 16 114 75 132 117 21 51 17
133 -10 184 -28 52 -92 96 -156 107 -40 7 -45 11 -64 57 -12 28 -23 83 -26
124 l-6 74 -80 48 c-44 27 -84 48 -88 49 -5 0 -7 -19 -5 -42z m-22 -275 c0 -4
-23 -31 -52 -60 l-52 -53 -71 0 c-63 0 -74 3 -94 24 -23 25 -23 53 1 84 11 13
268 18 268 5z m-360 -148 c32 -17 60 -61 60 -95 0 -38 -30 -81 -67 -96 -73
-31 -143 15 -143 95 1 88 74 135 150 96z m664 5 c30 -11 66 -65 66 -98 0 -64
-69 -120 -131 -107 -43 10 -79 58 -79 107 0 32 7 47 34 74 35 35 64 42 110 24z"/>
</g>
</svg>
