<?xml version="1.0" standalone="no"?>
<!DOCTYPE svg PUBLIC "-//W3C//DTD SVG 20010904//EN"
 "http://www.w3.org/TR/2001/REC-SVG-20010904/DTD/svg10.dtd">
<svg version="1.0" xmlns="http://www.w3.org/2000/svg"
 width="128.000000pt" height="128.000000pt" viewBox="0 0 128.000000 128.000000"
 preserveAspectRatio="xMidYMid meet">
<g transform="translate(0.000000,128.000000) scale(0.100000,-0.100000)"
fill="#000000" stroke="none">
<path d="M274 1256 c-118 -55 -167 -199 -110 -322 69 -148 246 -179 359 -63
42 43 52 49 89 49 35 0 49 6 80 37 l38 37 27 -27 27 -27 28 27 28 27 28 -27
28 -27 27 27 27 27 28 -27 28 -27 52 53 c29 29 52 56 52 61 0 4 -19 30 -42 57
l-41 49 -228 0 -228 0 -49 49 c-75 75 -156 90 -248 47z m14 -172 c29 -20 31
-79 3 -94 -28 -14 -52 -12 -73 7 -24 21 -23 58 2 83 24 24 38 25 68 4z"/>
<path d="M790 760 c0 -29 2 -30 44 -30 51 0 67 -14 35 -30 -18 -10 -21 -18
-16 -51 l5 -39 -204 0 -204 0 -11 26 c-11 32 -15 28 41 46 25 8 45 21 45 29 0
11 -22 15 -104 17 -57 1 -108 -1 -113 -6 -10 -10 28 -62 46 -62 7 0 17 -12 22
-27 9 -24 5 -39 -25 -101 l-36 -73 -53 7 c-104 13 -194 -36 -238 -130 -71
-153 38 -336 201 -336 89 0 179 67 211 158 10 28 23 52 29 52 16 0 47 -64 39
-83 -3 -9 -17 -17 -30 -17 -14 0 -24 -6 -24 -14 0 -15 32 -23 68 -18 20 3 22
8 17 33 -6 27 -5 29 25 29 44 0 90 47 90 92 0 32 7 39 114 116 151 108 175
117 119 44 -108 -142 -42 -341 127 -382 132 -32 270 85 270 228 0 85 -55 174
-132 213 -32 16 -55 20 -111 17 l-71 -3 -27 95 -27 94 24 29 c30 36 30 52 -1
82 -20 21 -34 25 -85 25 l-60 0 0 -30z m90 -226 c6 -14 10 -27 10 -29 0 -8
-261 -187 -266 -182 -10 10 9 37 27 37 13 0 19 7 19 21 0 18 -5 20 -42 17 -30
-2 -44 -8 -46 -20 -2 -9 4 -18 12 -20 9 -2 12 -8 8 -15 -4 -7 -17 -10 -28 -7
-14 4 -30 32 -57 103 -20 54 -37 101 -37 104 0 4 75 8 168 10 92 1 179 4 195
5 21 2 30 -4 37 -24z m-422 -113 c38 -95 42 -112 30 -130 -20 -32 -34 -25 -53
25 -10 25 -31 62 -48 81 l-30 34 23 50 c13 27 26 49 29 49 3 0 25 -49 49 -109z
m689 -47 c82 -62 91 -170 22 -249 -59 -67 -150 -71 -218 -9 -42 37 -68 105
-56 145 12 44 27 79 34 79 4 0 12 -15 19 -33 22 -62 97 -113 122 -83 10 13 7
20 -19 43 -29 27 -61 88 -61 117 0 34 108 27 157 -10z m-877 16 c0 -6 -16 -42
-36 -81 -45 -91 -40 -99 67 -99 91 0 97 -9 55 -71 -63 -93 -201 -91 -263 3
-51 76 -27 188 50 237 34 22 127 30 127 11z m96 -71 c22 -43 18 -49 -36 -49
-27 0 -50 2 -50 5 0 2 10 25 22 49 24 50 36 49 64 -5z m254 -94 c0 -19 -36
-55 -55 -55 -23 0 -18 16 12 45 32 29 43 31 43 10z m-80 -19 c0 -11 -19 -15
-25 -6 -3 5 1 10 9 10 9 0 16 -2 16 -4z"/>
</g>
</svg>
