<?xml version="1.0" standalone="no"?>
<!DOCTYPE svg PUBLIC "-//W3C//DTD SVG 20010904//EN"
 "http://www.w3.org/TR/2001/REC-SVG-20010904/DTD/svg10.dtd">
<svg version="1.0" xmlns="http://www.w3.org/2000/svg"
 width="128.000000pt" height="128.000000pt" viewBox="0 0 128.000000 128.000000"
 preserveAspectRatio="xMidYMid meet">
<g transform="translate(0.000000,128.000000) scale(0.100000,-0.100000)"
fill="#000000" stroke="none">
<path d="M0 821 l0 -461 90 0 90 0 0 159 0 158 158 6 c176 6 210 14 279 60 70
47 107 124 108 226 0 103 -19 162 -71 220 -73 81 -89 85 -391 89 l-263 4 0
-461z m490 254 c66 -34 75 -117 19 -171 l-30 -29 -150 -3 -149 -3 0 110 0 111
140 0 c107 0 148 -4 170 -15z"/>
<path d="M820 607 c0 -13 12 -33 26 -46 18 -15 24 -30 22 -49 l-3 -27 -137 -3
c-90 -2 -138 1 -138 8 0 5 16 10 35 10 23 0 38 6 42 16 10 26 -17 34 -107 32
-77 -3 -85 -5 -85 -23 0 -16 8 -21 38 -23 20 -2 37 -6 37 -10 0 -4 -12 -35
-27 -68 l-28 -62 -58 -4 c-88 -7 -149 -64 -163 -154 -5 -36 -1 -54 20 -99 87
-177 335 -116 336 83 l0 42 39 0 c37 0 45 6 117 85 43 47 82 84 88 82 5 -2 14
-16 19 -31 8 -24 5 -32 -21 -59 -55 -57 -67 -129 -33 -202 22 -48 44 -69 94
-90 145 -61 290 89 232 240 -24 64 -71 98 -145 103 l-58 4 -26 60 c-15 33 -26
78 -26 102 0 38 -5 46 -39 74 -48 38 -51 39 -51 9z m-50 -204 c0 -4 -21 -29
-47 -55 -41 -41 -53 -48 -87 -48 -40 0 -76 22 -76 46 0 7 5 25 12 39 11 24 14
25 105 25 51 0 93 -3 93 -7z m-257 -153 c49 -39 42 -116 -14 -145 -35 -19 -53
-19 -88 0 -56 28 -58 123 -4 154 29 17 78 13 106 -9z m552 -5 c48 -47 21 -135
-44 -150 -61 -13 -121 48 -105 109 15 63 103 88 149 41z"/>
</g>
</svg>
