<?xml version="1.0" standalone="no"?>
<!DOCTYPE svg PUBLIC "-//W3C//DTD SVG 20010904//EN"
 "http://www.w3.org/TR/2001/REC-SVG-20010904/DTD/svg10.dtd">
<svg version="1.0" xmlns="http://www.w3.org/2000/svg"
 width="128.000000pt" height="128.000000pt" viewBox="0 0 128.000000 128.000000"
 preserveAspectRatio="xMidYMid meet">
<g transform="translate(0.000000,128.000000) scale(0.100000,-0.100000)"
fill="#000000" stroke="none">
<path d="M221 1266 c-47 -17 -108 -80 -121 -124 -6 -23 -10 -222 -10 -517 0
-529 1 -515 -64 -592 l-28 -33 502 0 501 0 -24 33 c-30 39 -52 83 -61 120 l-6
27 140 0 c164 0 201 10 219 60 14 42 15 570 1 622 -6 21 -22 51 -37 68 -44 53
-77 65 -203 70 l-115 5 -5 80 c-6 95 -31 143 -88 171 -33 17 -66 19 -302 21
-193 2 -274 -1 -299 -11z m544 -100 c31 -13 55 -41 55 -64 0 -5 -55 -12 -122
-15 -143 -6 -213 -25 -265 -70 -47 -42 -62 -80 -72 -188 -9 -93 -23 -123 -66
-139 -31 -11 -74 9 -93 44 -14 26 -17 58 -17 191 0 180 10 215 68 240 46 20
464 21 512 1z m328 -317 c40 -22 47 -66 47 -304 l0 -225 -115 0 -115 0 0 268
c0 148 3 272 8 276 9 10 150 -2 175 -15z m-273 -714 l0 -45 -317 2 -318 3 -3
43 -3 42 320 0 321 0 0 -45z"/>
</g>
</svg>
