<?xml version="1.0" standalone="no"?>
<!DOCTYPE svg PUBLIC "-//W3C//DTD SVG 20010904//EN"
 "http://www.w3.org/TR/2001/REC-SVG-20010904/DTD/svg10.dtd">
<svg version="1.0" xmlns="http://www.w3.org/2000/svg"
 width="128.000000pt" height="128.000000pt" viewBox="0 0 128.000000 128.000000"
 preserveAspectRatio="xMidYMid meet">
<g transform="translate(0.000000,128.000000) scale(0.100000,-0.100000)"
fill="#000000" stroke="none">
<path d="M254 1266 c-100 -31 -158 -110 -158 -215 0 -109 61 -194 160 -221 83
-23 197 13 238 75 15 22 23 25 77 25 58 0 62 2 110 47 l50 46 44 -43 45 -44
45 44 44 43 50 -46 c28 -26 58 -47 68 -47 17 0 146 102 150 118 1 4 -27 31
-61 60 l-63 52 -265 0 -264 0 -44 45 c-31 31 -60 50 -94 60 -59 18 -78 18
-132 1z m4 -188 c19 -19 14 -56 -8 -68 -38 -21 -80 22 -60 61 12 21 50 25 68
7z"/>
<path d="M480 665 l0 -115 -235 0 c-181 0 -235 -3 -235 -12 0 -7 28 -60 63
-118 l62 -105 504 0 505 0 63 108 c35 60 63 112 63 118 0 5 -95 9 -235 9
l-235 0 0 115 0 115 -160 0 -160 0 0 -115z"/>
<path d="M240 219 c-13 -6 -38 -20 -55 -33 -16 -13 -45 -31 -62 -40 -32 -16
-33 -18 -33 -82 0 -62 1 -65 21 -59 12 4 49 25 82 46 33 22 70 39 82 39 11 0
52 -20 89 -45 38 -25 78 -45 89 -45 11 0 53 20 93 45 39 25 80 45 91 45 10 0
52 -20 93 -45 41 -24 82 -45 90 -45 9 0 49 20 90 45 41 24 84 45 95 45 11 0
51 -21 89 -45 38 -25 73 -45 78 -45 4 0 8 30 8 68 l-1 67 -71 45 c-90 56 -114
56 -197 2 -35 -23 -75 -42 -89 -42 -14 0 -53 18 -86 39 -90 59 -99 59 -186 7
-41 -25 -84 -46 -95 -46 -11 0 -54 21 -95 45 -79 48 -82 49 -120 34z"/>
</g>
</svg>
