<?xml version="1.0" standalone="no"?>
<!DOCTYPE svg PUBLIC "-//W3C//DTD SVG 20010904//EN"
 "http://www.w3.org/TR/2001/REC-SVG-20010904/DTD/svg10.dtd">
<svg version="1.0" xmlns="http://www.w3.org/2000/svg"
 width="128.000000pt" height="128.000000pt" viewBox="0 0 128.000000 128.000000"
 preserveAspectRatio="xMidYMid meet">
<g transform="translate(0.000000,128.000000) scale(0.100000,-0.100000)"
fill="#000000" stroke="none">
<path d="M496 1154 c-12 -12 -16 -37 -16 -105 l0 -89 -63 0 c-92 0 -96 -7 -99
-160 l-3 -124 -83 -18 c-103 -23 -122 -32 -122 -63 0 -25 75 -231 93 -252 17
-22 65 -15 82 11 14 22 13 29 -16 105 -18 45 -29 84 -26 87 7 7 304 74 330 74
15 0 17 -13 17 -134 0 -142 7 -166 50 -166 43 0 50 24 50 166 0 123 1 134 18
134 25 0 322 -67 329 -74 4 -3 -8 -42 -26 -87 -30 -77 -31 -83 -16 -106 13
-19 23 -23 48 -21 36 3 42 13 97 159 22 59 31 95 26 113 -7 27 -23 34 -141 60
l-60 13 -3 123 c-3 153 -7 160 -99 160 l-63 0 0 89 c0 122 2 121 -160 121
-104 0 -132 -3 -144 -16z m194 -139 l0 -55 -50 0 -50 0 0 55 0 55 50 0 50 0 0
-55z m160 -241 c0 -67 -2 -75 -17 -70 -10 3 -57 15 -105 26 l-86 20 -89 -20
c-48 -11 -96 -23 -105 -26 -16 -5 -18 3 -18 70 l0 76 210 0 210 0 0 -76z"/>
<path d="M385 244 c-97 -38 -101 -38 -154 -15 -66 28 -97 27 -116 -3 -23 -35
-5 -62 62 -93 69 -32 140 -33 203 -4 57 26 103 26 159 1 57 -26 142 -26 200 0
56 26 97 25 157 -2 68 -30 134 -28 209 8 50 24 61 34 63 57 7 57 -40 72 -113
37 -51 -25 -66 -25 -123 2 -75 34 -130 35 -218 3 l-76 -28 -56 23 c-71 30
-145 35 -197 14z"/>
</g>
</svg>
