<?xml version="1.0" standalone="no"?>
<!DOCTYPE svg PUBLIC "-//W3C//DTD SVG 20010904//EN"
 "http://www.w3.org/TR/2001/REC-SVG-20010904/DTD/svg10.dtd">
<svg version="1.0" xmlns="http://www.w3.org/2000/svg"
 width="128.000000pt" height="128.000000pt" viewBox="0 0 128.000000 128.000000"
 preserveAspectRatio="xMidYMid meet">
<g transform="translate(0.000000,128.000000) scale(0.100000,-0.100000)"
fill="#000000" stroke="none">
<path d="M277 1273 c-4 -3 -7 -26 -7 -50 0 -38 -3 -43 -23 -43 -42 0 -125 -30
-157 -56 -117 -99 -55 -225 130 -265 l50 -11 0 -113 0 -114 -30 9 c-60 17
-110 53 -127 92 -16 36 -19 38 -65 38 -38 0 -48 -3 -48 -17 0 -36 43 -104 85
-133 38 -26 63 -35 158 -55 25 -5 27 -9 27 -50 l0 -45 44 0 45 0 3 42 3 42 65
13 c124 25 190 77 206 159 15 79 -66 153 -198 183 l-73 17 0 94 0 95 29 -3
c47 -5 86 -30 103 -67 16 -33 20 -35 66 -35 l49 0 -6 31 c-14 72 -95 131 -198
145 l-48 7 0 48 0 49 -38 0 c-21 0 -42 -3 -45 -7z m-7 -252 l0 -89 -37 10
c-75 20 -103 43 -103 83 0 23 34 56 75 70 66 23 65 24 65 -74z m209 -224 c13
-7 34 -25 45 -40 19 -26 19 -30 6 -54 -8 -14 -27 -35 -41 -45 -28 -21 -105
-42 -120 -33 -9 6 -13 188 -4 197 7 7 82 -9 114 -25z"/>
<path d="M847 1207 c-59 -34 -107 -64 -107 -67 0 -8 212 -130 224 -130 4 0 6
18 4 40 -4 45 5 49 53 25 41 -22 69 -71 69 -122 l0 -43 45 0 45 0 0 53 c0 61
-25 121 -66 159 -32 30 -92 58 -124 58 -17 0 -20 6 -20 39 0 22 -4 42 -8 45
-5 3 -56 -23 -115 -57z"/>
<path d="M990 806 c-112 -31 -191 -93 -241 -191 -29 -55 -38 -65 -61 -65 -31
0 -33 -2 -42 -52 l-7 -38 36 0 35 0 0 -50 c0 -49 -1 -50 -30 -50 -19 0 -30 -5
-30 -14 0 -7 -3 -28 -6 -45 -6 -31 -6 -31 38 -31 43 0 44 0 56 -44 23 -86 120
-179 215 -208 60 -18 234 -16 272 2 27 14 29 19 26 60 -1 25 -4 46 -6 48 -2 2
-17 -4 -34 -12 -43 -23 -137 -31 -191 -16 -89 23 -180 104 -180 159 0 8 51 11
164 11 161 0 164 0 170 23 3 12 6 32 6 44 0 22 -1 23 -177 25 l-178 3 0 45 0
45 185 3 c199 3 200 3 200 60 l0 32 -189 0 -189 0 6 22 c3 13 29 46 57 75 41
40 65 55 110 68 71 21 146 16 205 -13 24 -12 46 -20 48 -18 2 3 4 26 5 53 l2
48 -50 17 c-58 20 -161 22 -225 4z"/>
<path d="M93 345 c-8 -23 5 -92 26 -133 31 -60 87 -101 158 -116 29 -7 32 -11
35 -51 l3 -44 105 62 c58 34 107 67 108 72 2 6 -45 38 -105 73 l-108 62 -3
-40 c-3 -33 -7 -40 -24 -40 -52 0 -120 97 -103 149 6 19 3 21 -40 21 -32 0
-47 -5 -52 -15z"/>
</g>
</svg>
