<?xml version="1.0" standalone="no"?>
<!DOCTYPE svg PUBLIC "-//W3C//DTD SVG 20010904//EN"
 "http://www.w3.org/TR/2001/REC-SVG-20010904/DTD/svg10.dtd">
<svg version="1.0" xmlns="http://www.w3.org/2000/svg"
 width="128.000000pt" height="128.000000pt" viewBox="0 0 128.000000 128.000000"
 preserveAspectRatio="xMidYMid meet">
<g transform="translate(0.000000,128.000000) scale(0.100000,-0.100000)"
fill="#000000" stroke="none">
<path d="M59 1247 c-59 -40 -60 -44 -57 -628 3 -516 3 -528 24 -556 47 -64 35
-63 609 -62 376 0 530 3 555 12 19 7 44 27 57 46 l23 34 0 550 0 549 -39 39
-39 39 -549 0 -550 0 -34 -23z m791 -32 c95 -22 182 -65 210 -105 17 -24 26
-67 46 -217 20 -156 24 -229 24 -444 0 -278 2 -269 -55 -269 -20 0 -23 -6 -27
-50 -6 -61 -30 -90 -73 -90 -51 0 -69 21 -75 84 l-5 57 -255 0 -255 0 -5 -50
c-7 -60 -31 -91 -75 -91 -51 0 -69 20 -75 86 l-5 58 -35 1 -35 0 -3 270 c-2
228 1 297 19 440 22 180 31 208 77 247 101 85 396 120 602 73z"/>
<path d="M427 1134 c-4 -4 -7 -16 -7 -26 0 -17 11 -18 218 -16 209 3 217 4
217 23 0 19 -8 20 -211 23 -115 1 -213 -1 -217 -4z"/>
<path d="M302 1011 c-8 -4 -23 -72 -39 -165 -20 -125 -23 -160 -13 -171 11
-13 70 -15 391 -15 428 0 405 -5 389 80 -5 25 -15 92 -24 150 -11 74 -21 109
-33 118 -20 14 -649 18 -671 3z"/>
<path d="M260 460 c-28 -28 -25 -64 7 -89 60 -48 130 32 78 89 -23 26 -60 25
-85 0z"/>
<path d="M930 460 c-27 -27 -23 -67 11 -92 31 -24 73 -11 91 27 10 22 8 30 -9
53 -26 35 -65 40 -93 12z"/>
</g>
</svg>
