<?xml version="1.0" standalone="no"?>
<!DOCTYPE svg PUBLIC "-//W3C//DTD SVG 20010904//EN"
 "http://www.w3.org/TR/2001/REC-SVG-20010904/DTD/svg10.dtd">
<svg version="1.0" xmlns="http://www.w3.org/2000/svg"
 width="128.000000pt" height="128.000000pt" viewBox="0 0 128.000000 128.000000"
 preserveAspectRatio="xMidYMid meet">
<g transform="translate(0.000000,128.000000) scale(0.100000,-0.100000)"
fill="#000000" stroke="none">
<path d="M90 899 c0 -171 4 -297 11 -324 36 -144 249 -234 484 -205 122 15
188 42 251 104 37 37 55 64 64 96 7 25 14 51 16 57 2 10 34 13 112 13 102 0
111 2 153 29 25 16 57 46 70 67 21 34 24 51 24 129 0 103 -14 137 -78 189 -38
30 -43 31 -160 36 l-122 5 -3 43 -3 42 -410 0 -409 0 0 -281z m1041 52 c24
-24 29 -38 29 -76 0 -58 -21 -99 -58 -114 -16 -7 -62 -11 -108 -9 l-79 3 -3
113 -3 112 96 0 c93 0 98 -1 126 -29z"/>
<path d="M0 260 c0 -21 31 -85 53 -109 12 -13 40 -32 62 -42 36 -17 71 -19
385 -19 339 0 347 0 390 22 52 27 97 80 106 126 l7 32 -502 0 c-338 0 -501 -3
-501 -10z"/>
</g>
</svg>
