<?xml version="1.0" standalone="no"?>
<!DOCTYPE svg PUBLIC "-//W3C//DTD SVG 20010904//EN"
 "http://www.w3.org/TR/2001/REC-SVG-20010904/DTD/svg10.dtd">
<svg version="1.0" xmlns="http://www.w3.org/2000/svg"
 width="128.000000pt" height="128.000000pt" viewBox="0 0 128.000000 128.000000"
 preserveAspectRatio="xMidYMid meet">
<g transform="translate(0.000000,128.000000) scale(0.100000,-0.100000)"
fill="#000000" stroke="none">
<path d="M246 1256 c-72 -31 -111 -66 -132 -122 -32 -83 12 -171 110 -219 108
-53 237 -41 330 30 38 29 55 35 94 35 38 0 57 6 88 30 47 35 47 36 84 9 l28
-22 31 22 31 22 29 -20 c36 -26 35 -26 71 0 l28 22 30 -22 c17 -11 33 -21 36
-21 14 0 116 83 116 94 0 7 -22 29 -49 49 l-48 37 -265 0 c-257 0 -265 1 -284
21 -38 42 -114 72 -194 76 -63 3 -85 0 -134 -21z m56 -143 c24 -22 23 -49 -4
-67 -42 -29 -118 -9 -118 31 0 47 83 72 122 36z"/>
<path d="M290 793 c-33 -12 -63 -52 -118 -155 -48 -92 -62 -110 -89 -119 -18
-6 -44 -24 -58 -40 -24 -30 -25 -35 -25 -175 l0 -144 50 0 50 0 0 -45 c0 -24
5 -55 11 -68 22 -48 106 -63 152 -27 22 17 27 30 29 78 l3 57 345 0 345 0 3
-57 c2 -48 7 -61 29 -78 46 -36 130 -21 152 27 6 13 11 44 11 68 l0 45 50 0
50 0 0 144 c0 140 -1 145 -25 175 -14 16 -40 35 -58 40 -28 10 -41 27 -90 119
-31 59 -68 119 -82 132 l-27 25 -346 2 c-191 1 -354 -1 -362 -4z m655 -69 c13
-5 105 -170 105 -189 0 -3 -184 -5 -410 -5 -226 0 -410 2 -410 5 0 16 91 184
102 188 19 8 593 8 613 1z m-681 -295 c32 -25 33 -55 4 -86 -31 -33 -100 -32
-133 2 -14 13 -25 31 -25 40 0 9 11 27 25 40 31 32 91 34 129 4z m881 -4 c14
-13 25 -31 25 -40 0 -9 -11 -27 -25 -40 -49 -49 -155 -21 -155 41 0 59 109 86
155 39z"/>
</g>
</svg>
