<?xml version="1.0" standalone="no"?>
<!DOCTYPE svg PUBLIC "-//W3C//DTD SVG 20010904//EN"
 "http://www.w3.org/TR/2001/REC-SVG-20010904/DTD/svg10.dtd">
<svg version="1.0" xmlns="http://www.w3.org/2000/svg"
 width="128.000000pt" height="128.000000pt" viewBox="0 0 128.000000 128.000000"
 preserveAspectRatio="xMidYMid meet">
<g transform="translate(0.000000,128.000000) scale(0.100000,-0.100000)"
fill="#000000" stroke="none">
<path d="M181 1256 c-33 -35 -26 -101 12 -130 26 -19 30 -19 55 -5 40 22 56
61 42 104 -19 58 -70 72 -109 31z"/>
<path d="M598 1270 c-24 -15 -41 -72 -29 -103 10 -27 47 -57 69 -57 7 0 24 11
37 25 64 63 -2 178 -77 135z"/>
<path d="M1000 1260 c-52 -52 -23 -150 45 -150 29 0 65 46 65 83 0 71 -66 111
-110 67z"/>
<path d="M107 1079 c-23 -13 -47 -62 -47 -94 l0 -25 165 0 165 0 0 25 c0 34
-25 82 -49 95 -25 13 -211 13 -234 -1z"/>
<path d="M501 1066 c-13 -13 -25 -42 -28 -65 l-6 -41 167 0 c160 0 166 1 166
20 0 33 -27 88 -48 99 -12 6 -67 11 -125 11 -96 0 -105 -2 -126 -24z"/>
<path d="M906 1059 c-17 -20 -26 -43 -26 -65 l0 -34 166 0 166 0 -7 33 c-10
45 -31 83 -50 91 -9 3 -63 6 -120 6 -103 0 -103 0 -129 -31z"/>
<path d="M264 892 c-63 -9 -62 -8 -139 -169 -41 -86 -86 -171 -100 -189 -23
-31 -25 -40 -25 -151 0 -65 4 -124 8 -131 19 -28 89 -32 639 -32 555 0 606 3
625 33 4 7 8 63 8 126 l0 113 -45 73 c-25 39 -66 119 -91 176 -26 57 -56 115
-69 127 l-22 24 -385 1 c-211 1 -393 1 -404 -1z m812 -189 l53 -113 -489 0
-489 0 16 38 c8 20 33 72 54 115 l39 77 381 -2 382 -3 53 -112z m-846 -213
c56 -56 14 -140 -70 -140 -32 0 -80 48 -80 81 0 68 101 108 150 59z m945 -5
c31 -31 32 -66 1 -102 -34 -39 -98 -39 -132 0 -49 57 -12 127 66 127 30 0 47
-6 65 -25z"/>
<path d="M80 112 c0 -55 4 -92 12 -100 16 -16 140 -16 156 0 8 8 12 45 12 100
l0 88 -90 0 -90 0 0 -88z"/>
<path d="M1020 116 c0 -105 8 -116 90 -116 91 0 90 -2 90 106 l0 94 -90 0 -90
0 0 -84z"/>
</g>
</svg>
