<?xml version="1.0" standalone="no"?>
<!DOCTYPE svg PUBLIC "-//W3C//DTD SVG 20010904//EN"
 "http://www.w3.org/TR/2001/REC-SVG-20010904/DTD/svg10.dtd">
<svg version="1.0" xmlns="http://www.w3.org/2000/svg"
 width="128.000000pt" height="128.000000pt" viewBox="0 0 128.000000 128.000000"
 preserveAspectRatio="xMidYMid meet">
<g transform="translate(0.000000,128.000000) scale(0.100000,-0.100000)"
fill="#000000" stroke="none">
<path d="M470 1239 c-41 -22 -79 -45 -84 -50 -6 -5 93 -9 254 -9 159 0 260 4
255 9 -6 5 -47 28 -92 50 -77 39 -86 41 -170 41 -84 0 -91 -2 -163 -41z"/>
<path d="M276 961 c-47 -71 -86 -131 -86 -135 0 -3 19 -6 43 -6 l42 0 70 106
c39 59 78 120 88 135 l19 29 -45 0 -45 0 -86 -129z"/>
<path d="M590 955 l0 -135 45 0 45 0 0 135 0 135 -45 0 -45 0 0 -135z"/>
<path d="M913 955 l91 -135 44 0 44 0 -17 28 c-9 15 -49 75 -88 134 l-72 107
-46 1 -47 0 91 -135z"/>
<path d="M320 595 c-37 -112 -48 -137 -66 -141 -12 -3 -33 -17 -46 -31 -22
-24 -23 -31 -23 -176 l0 -152 42 -3 c35 -3 43 -7 53 -33 16 -37 46 -59 83 -59
41 0 67 17 83 56 l14 34 180 0 c157 0 180 -2 180 -16 0 -8 13 -29 29 -45 39
-39 92 -40 126 -3 14 15 25 35 25 45 0 16 8 19 45 19 l45 0 0 154 c0 139 -2
156 -20 179 -11 14 -30 27 -43 29 -19 3 -29 23 -68 138 l-46 135 -274 3 -275
2 -44 -135z m525 -38 c14 -46 25 -86 25 -90 0 -4 -106 -7 -235 -7 -129 0 -235
1 -235 3 0 3 44 136 55 165 3 9 49 12 184 12 l180 0 26 -83z m-437 -233 c27
-18 30 -69 5 -96 -36 -40 -113 -12 -113 41 0 61 57 91 108 55z m552 -6 c40
-43 11 -108 -48 -108 -60 0 -88 56 -52 103 27 34 71 36 100 5z"/>
</g>
</svg>
