<?xml version="1.0" standalone="no"?>
<!DOCTYPE svg PUBLIC "-//W3C//DTD SVG 20010904//EN"
 "http://www.w3.org/TR/2001/REC-SVG-20010904/DTD/svg10.dtd">
<svg version="1.0" xmlns="http://www.w3.org/2000/svg"
 width="128.000000pt" height="128.000000pt" viewBox="0 0 128.000000 128.000000"
 preserveAspectRatio="xMidYMid meet">
<g transform="translate(0.000000,128.000000) scale(0.100000,-0.100000)"
fill="#000000" stroke="none">
<path d="M303 1169 c-17 -5 -44 -22 -60 -37 -45 -45 -234 -385 -240 -432 -7
-48 17 -118 50 -147 27 -24 350 -213 377 -220 17 -5 19 6 22 194 3 181 5 201
25 239 48 90 134 139 260 150 53 4 80 11 77 18 -6 14 -46 40 -207 133 -204
118 -225 125 -304 102z m160 -99 c41 -45 38 -101 -7 -146 -47 -47 -102 -48
-151 -1 -50 47 -52 108 -5 156 49 49 113 45 163 -9z m-223 -305 c66 -34 78
-115 27 -171 -27 -30 -41 -37 -73 -38 -51 -1 -91 25 -110 71 -20 47 -10 86 32
123 39 34 78 39 124 15z"/>
<path d="M645 806 c-37 -17 -80 -62 -94 -99 -7 -17 -11 -118 -11 -251 0 -214
1 -225 23 -267 16 -29 38 -52 68 -69 43 -25 47 -25 274 -25 254 0 266 3 319
65 42 50 48 94 44 325 l-3 213 -30 43 c-54 76 -68 79 -330 79 -170 -1 -238 -4
-260 -14z m508 -76 c59 -47 56 -143 -7 -181 -117 -72 -240 87 -135 175 39 33
104 36 142 6z m-383 -355 c41 -21 60 -53 60 -103 0 -35 -6 -49 -29 -72 -51
-52 -111 -52 -162 0 -23 22 -29 38 -29 70 0 52 13 76 53 100 38 24 68 25 107
5z"/>
</g>
</svg>
