<?xml version="1.0" standalone="no"?>
<!DOCTYPE svg PUBLIC "-//W3C//DTD SVG 20010904//EN"
 "http://www.w3.org/TR/2001/REC-SVG-20010904/DTD/svg10.dtd">
<svg version="1.0" xmlns="http://www.w3.org/2000/svg"
 width="128.000000pt" height="128.000000pt" viewBox="0 0 128.000000 128.000000"
 preserveAspectRatio="xMidYMid meet">
<g transform="translate(0.000000,128.000000) scale(0.100000,-0.100000)"
fill="#000000" stroke="none">
<path d="M375 1162 c-43 -27 -83 -77 -95 -120 -7 -24 -10 -163 -8 -402 l3
-365 363 -3 362 -2 0 385 c0 365 -1 388 -20 425 -11 21 -36 51 -57 67 l-36 28
-241 3 c-221 2 -243 1 -271 -16z m355 -207 l0 -45 -90 0 -90 0 0 45 0 45 90 0
90 0 0 -45z m180 -180 l0 -45 -272 2 -273 3 -3 43 -3 42 275 0 276 0 0 -45z
m-90 -180 l0 -45 -180 0 -180 0 0 45 0 45 180 0 180 0 0 -45z"/>
<path d="M134 136 c-39 -39 -44 -48 -44 -90 l0 -46 545 0 545 0 0 47 c0 42 -5
52 -42 90 l-42 43 -459 0 -460 0 -43 -44z"/>
</g>
</svg>
