<?xml version="1.0" standalone="no"?>
<!DOCTYPE svg PUBLIC "-//W3C//DTD SVG 20010904//EN"
 "http://www.w3.org/TR/2001/REC-SVG-20010904/DTD/svg10.dtd">
<svg version="1.0" xmlns="http://www.w3.org/2000/svg"
 width="128.000000pt" height="128.000000pt" viewBox="0 0 128.000000 128.000000"
 preserveAspectRatio="xMidYMid meet">
<g transform="translate(0.000000,128.000000) scale(0.100000,-0.100000)"
fill="#000000" stroke="none">
<path d="M110 1173 c-38 -15 -74 -49 -91 -87 -17 -38 -19 -76 -19 -563 l0
-523 320 0 320 0 0 360 c0 389 -1 383 51 341 24 -19 24 -22 29 -263 l5 -245
27 -35 c66 -86 205 -101 289 -31 56 48 63 76 67 306 2 114 8 207 12 207 5 0
22 12 39 26 35 30 71 130 71 200 0 44 0 44 -35 44 l-34 0 -3 107 c-3 97 -5
108 -22 111 -34 7 -46 -25 -46 -125 l0 -94 -42 3 -43 3 -5 105 c-4 94 -7 105
-24 108 -34 7 -46 -25 -46 -125 l0 -93 -31 0 -32 0 5 -69 c6 -85 40 -158 85
-186 l32 -20 1 -198 c0 -184 -1 -198 -20 -217 -31 -31 -93 -27 -119 6 -20 25
-21 39 -21 241 0 157 -4 222 -14 246 -18 45 -79 95 -131 109 l-43 12 -4 110
c-4 125 -19 171 -72 209 -29 21 -42 22 -236 24 -113 1 -212 -1 -220 -4z m397
-188 c-4 -8 -35 -59 -72 -115 -36 -55 -65 -103 -65 -105 0 -2 40 -6 90 -7 l90
-3 -58 -80 c-31 -45 -109 -154 -172 -243 -101 -142 -118 -162 -142 -162 -16 0
-28 3 -28 8 0 4 27 84 59 179 32 95 56 175 53 178 -3 3 -36 5 -74 5 -81 0 -80
-11 -12 143 24 53 44 99 44 101 0 2 11 29 25 60 l25 56 121 0 c102 0 120 -2
116 -15z"/>
</g>
</svg>
