<?xml version="1.0" standalone="no"?>
<!DOCTYPE svg PUBLIC "-//W3C//DTD SVG 20010904//EN"
 "http://www.w3.org/TR/2001/REC-SVG-20010904/DTD/svg10.dtd">
<svg version="1.0" xmlns="http://www.w3.org/2000/svg"
 width="128.000000pt" height="128.000000pt" viewBox="0 0 128.000000 128.000000"
 preserveAspectRatio="xMidYMid meet">
<g transform="translate(0.000000,128.000000) scale(0.100000,-0.100000)"
fill="#000000" stroke="none">
<path d="M29 1161 l-24 -19 -3 -542 -3 -541 30 -30 29 -29 571 0 c353 0 580 4
596 10 55 21 56 32 53 600 l-3 518 -24 26 -24 26 -588 0 c-563 0 -588 -1 -610
-19z m151 -111 c0 -35 -3 -40 -27 -46 -32 -8 -57 6 -61 35 -6 39 5 51 48 51
l40 0 0 -40z m730 -185 l0 -225 -275 0 -275 0 0 225 0 225 275 0 275 0 0 -225z
m268 183 c-3 -39 -6 -43 -31 -46 -36 -4 -57 13 -57 48 0 35 6 40 52 40 l39 0
-3 -42z m-1003 -183 l0 -40 -40 0 c-36 0 -40 2 -43 28 -6 47 4 59 45 55 37 -3
38 -4 38 -43z m1003 3 c-3 -42 -4 -43 -40 -46 -30 -3 -38 1 -43 18 -4 12 -4
32 -1 46 5 20 12 24 47 24 l40 0 -3 -42z m-1003 -183 l0 -40 -40 0 c-36 0 -40
2 -43 28 -6 47 4 59 45 55 37 -3 38 -4 38 -43z m1003 -3 l3 -43 -43 3 c-39 3
-43 6 -46 31 -5 39 15 59 52 55 29 -3 31 -6 34 -46z m-1000 -180 l3 -43 -43 3
c-46 3 -55 17 -44 64 6 22 11 25 44 22 36 -3 37 -4 40 -46z m732 -182 l0 -230
-272 2 -273 3 -3 215 c-1 118 0 220 2 227 4 10 66 13 276 13 l270 0 0 -230z
m268 182 l3 -43 -43 3 c-39 3 -43 6 -46 31 -5 39 15 59 52 55 29 -3 31 -6 34
-46z m-1000 -184 c-3 -39 -6 -43 -31 -46 -36 -4 -57 13 -57 48 0 35 6 40 52
40 l39 0 -3 -42z m1000 0 c-3 -39 -6 -43 -31 -46 -36 -4 -57 13 -57 48 0 35 6
40 52 40 l39 0 -3 -42z m-1003 -183 l0 -40 -40 0 c-36 0 -40 2 -43 28 -6 47 4
59 45 55 37 -3 38 -4 38 -43z m1003 3 c-3 -39 -6 -43 -31 -46 -36 -4 -57 13
-57 48 0 35 6 40 52 40 l39 0 -3 -42z"/>
</g>
</svg>
