<?xml version="1.0" standalone="no"?>
<!DOCTYPE svg PUBLIC "-//W3C//DTD SVG 20010904//EN"
 "http://www.w3.org/TR/2001/REC-SVG-20010904/DTD/svg10.dtd">
<svg version="1.0" xmlns="http://www.w3.org/2000/svg"
 width="128.000000pt" height="128.000000pt" viewBox="0 0 128.000000 128.000000"
 preserveAspectRatio="xMidYMid meet">
<g transform="translate(0.000000,128.000000) scale(0.100000,-0.100000)"
fill="#000000" stroke="none">
<path d="M320 1080 l0 -120 -120 0 -121 0 3 -77 3 -78 117 -3 117 -3 3 -117 3
-117 78 -3 77 -3 0 121 0 120 120 0 120 0 0 80 0 80 -120 0 -120 0 0 120 0
120 -80 0 -80 0 0 -120z"/>
<path d="M914 970 c-39 -15 -74 -68 -74 -111 0 -80 47 -129 125 -129 91 0 152
99 111 179 -30 58 -103 85 -162 61z"/>
<path d="M708 641 l-33 -29 -3 -277 c-3 -295 -2 -305 44 -305 38 0 44 34 44
251 l0 199 25 0 25 0 0 -225 0 -225 150 0 150 0 0 226 0 225 28 -3 27 -3 5
-210 c3 -116 9 -216 13 -222 13 -20 55 -15 67 6 13 26 13 494 0 543 -6 20 -22
46 -37 58 -24 19 -39 20 -249 20 l-224 0 -32 -29z"/>
</g>
</svg>
