<?xml version="1.0" standalone="no"?>
<!DOCTYPE svg PUBLIC "-//W3C//DTD SVG 20010904//EN"
 "http://www.w3.org/TR/2001/REC-SVG-20010904/DTD/svg10.dtd">
<svg version="1.0" xmlns="http://www.w3.org/2000/svg"
 width="128.000000pt" height="128.000000pt" viewBox="0 0 128.000000 128.000000"
 preserveAspectRatio="xMidYMid meet">
<g transform="translate(0.000000,128.000000) scale(0.100000,-0.100000)"
fill="#000000" stroke="none">
<path d="M520 1265 c-110 -20 -243 -91 -325 -171 -118 -118 -183 -259 -192
-419 -10 -185 54 -353 187 -485 309 -309 818 -227 1015 163 130 257 78 550
-132 748 -73 68 -196 137 -283 157 -81 19 -192 22 -270 7z m235 -189 c79 -21
146 -59 204 -117 220 -221 156 -598 -124 -730 -175 -83 -385 -46 -518 90 -238
241 -140 649 181 752 68 22 187 24 257 5z"/>
<path d="M570 960 c-18 -18 -20 -33 -20 -189 l0 -169 117 -87 c130 -96 158
-104 196 -53 28 38 15 64 -65 123 -126 96 -118 80 -118 230 0 115 -2 134 -18
148 -25 23 -68 21 -92 -3z"/>
</g>
</svg>
