<?xml version="1.0" standalone="no"?>
<!DOCTYPE svg PUBLIC "-//W3C//DTD SVG 20010904//EN"
 "http://www.w3.org/TR/2001/REC-SVG-20010904/DTD/svg10.dtd">
<svg version="1.0" xmlns="http://www.w3.org/2000/svg"
 width="128.000000pt" height="128.000000pt" viewBox="0 0 128.000000 128.000000"
 preserveAspectRatio="xMidYMid meet">
<g transform="translate(0.000000,128.000000) scale(0.100000,-0.100000)"
fill="#000000" stroke="none">
<path d="M324 1047 c-166 -78 -303 -146 -304 -151 -1 -5 32 -23 72 -41 l73
-32 3 -75 c3 -71 2 -75 -23 -88 -73 -39 -74 -174 -2 -211 12 -6 23 -13 25 -14
2 -2 -14 -45 -36 -96 -50 -119 -55 -143 -42 -185 25 -76 171 -94 228 -29 33
39 29 90 -19 202 l-41 97 26 19 c36 26 56 68 56 118 0 35 -6 47 -40 81 -34 35
-40 46 -40 84 0 24 3 44 6 44 4 0 89 -39 190 -86 l184 -87 262 123 c145 68
287 134 317 147 30 13 50 28 45 32 -16 15 -610 291 -625 291 -8 0 -150 -65
-315 -143z"/>
<path d="M819 552 l-186 -84 -99 46 -99 46 -14 -48 c-7 -26 -24 -61 -37 -79
l-25 -32 26 -61 c14 -34 29 -87 33 -117 7 -54 8 -57 47 -71 55 -19 219 -27
285 -13 106 23 190 78 235 156 22 37 24 52 26 188 0 82 -1 149 -2 151 -2 1
-88 -35 -190 -82z"/>
</g>
</svg>
