<?xml version="1.0" standalone="no"?>
<!DOCTYPE svg PUBLIC "-//W3C//DTD SVG 20010904//EN"
 "http://www.w3.org/TR/2001/REC-SVG-20010904/DTD/svg10.dtd">
<svg version="1.0" xmlns="http://www.w3.org/2000/svg"
 width="128.000000pt" height="128.000000pt" viewBox="0 0 128.000000 128.000000"
 preserveAspectRatio="xMidYMid meet">
<g transform="translate(0.000000,128.000000) scale(0.100000,-0.100000)"
fill="#000000" stroke="none">
<path d="M292 1160 c-61 -37 -79 -122 -39 -181 50 -76 141 -87 203 -25 113
113 -28 289 -164 206z"/>
<path d="M836 1159 c-83 -65 -71 -190 22 -231 123 -55 230 70 166 194 -30 58
-135 79 -188 37z"/>
<path d="M0 775 l0 -45 135 0 135 0 0 -140 0 -140 -85 -170 c-47 -93 -85 -175
-85 -180 0 -7 17 -10 42 -8 l43 3 89 179 c76 153 90 176 99 160 6 -10 48 -91
92 -179 l81 -160 92 -3 92 -3 91 183 92 183 91 -183 91 -182 42 0 c24 0 43 2
43 5 0 3 -41 86 -90 186 l-91 180 3 132 3 132 138 3 137 3 0 44 0 45 -640 0
-640 0 0 -45z m820 -182 l0 -137 -87 -178 c-49 -98 -90 -178 -93 -178 -3 0
-45 79 -93 175 l-87 175 0 140 0 140 180 0 180 0 0 -137z"/>
</g>
</svg>
