<?xml version="1.0" standalone="no"?>
<!DOCTYPE svg PUBLIC "-//W3C//DTD SVG 20010904//EN"
 "http://www.w3.org/TR/2001/REC-SVG-20010904/DTD/svg10.dtd">
<svg version="1.0" xmlns="http://www.w3.org/2000/svg"
 width="128.000000pt" height="128.000000pt" viewBox="0 0 128.000000 128.000000"
 preserveAspectRatio="xMidYMid meet">
<g transform="translate(0.000000,128.000000) scale(0.100000,-0.100000)"
fill="#000000" stroke="none">
<path d="M570 1000 l0 -110 75 37 c73 37 75 38 75 75 0 37 -2 39 -70 73 -38
19 -72 35 -75 35 -3 0 -5 -49 -5 -110z"/>
<path d="M302 1020 c-43 -26 -62 -74 -62 -154 l0 -64 -52 -18 c-36 -12 -68
-33 -104 -69 -80 -79 -84 -102 -84 -437 l0 -278 280 0 280 0 0 288 c-1 213 -4
297 -14 325 -28 78 -112 157 -188 177 l-38 11 0 74 c0 93 4 95 139 95 l101 0
0 35 0 35 -112 0 c-96 0 -118 -3 -146 -20z"/>
</g>
</svg>
