<?xml version="1.0" standalone="no"?>
<!DOCTYPE svg PUBLIC "-//W3C//DTD SVG 20010904//EN"
 "http://www.w3.org/TR/2001/REC-SVG-20010904/DTD/svg10.dtd">
<svg version="1.0" xmlns="http://www.w3.org/2000/svg"
 width="128.000000pt" height="128.000000pt" viewBox="0 0 128.000000 128.000000"
 preserveAspectRatio="xMidYMid meet">
<g transform="translate(0.000000,128.000000) scale(0.100000,-0.100000)"
fill="#000000" stroke="none">
<path d="M209 1113 c-59 -36 -59 -34 -59 -473 0 -354 2 -405 16 -430 36 -60
33 -60 474 -60 441 0 438 0 474 60 14 25 16 76 16 432 0 382 -1 405 -19 432
-37 56 -33 55 -471 55 -357 0 -408 -1 -431 -16z m478 -219 c15 -24 15 -29 2
-53 -26 -46 -109 -33 -109 18 0 58 75 83 107 35z m-253 -35 c14 -11 26 -29 26
-40 0 -25 -35 -59 -60 -59 -24 0 -60 34 -60 55 0 17 43 65 58 65 5 0 21 -9 36
-21z m474 5 c41 -28 18 -104 -31 -104 -53 0 -77 75 -35 104 12 9 27 16 33 16
6 0 21 -7 33 -16z m-223 -99 c20 -19 25 -34 25 -75 l0 -50 -76 0 -77 0 5 52
c4 40 11 57 32 75 35 30 61 29 91 -2z m-262 -26 c33 -18 37 -28 37 -109 l0
-76 43 -14 42 -15 0 -80 c0 -70 -2 -80 -19 -83 -27 -5 -36 15 -36 79 l0 57
-67 7 c-38 4 -74 12 -80 17 -9 7 -13 39 -13 95 0 76 2 86 25 108 27 28 37 30
68 14z m502 -14 c23 -22 25 -32 25 -108 0 -57 -4 -88 -13 -95 -7 -6 -43 -14
-80 -18 l-67 -7 0 -53 c0 -68 -7 -84 -36 -84 -25 0 -25 1 -22 83 l3 82 43 15
42 14 0 77 c0 72 2 79 26 98 34 27 50 26 79 -4z m-147 -137 c3 -15 -4 -18 -37
-18 l-40 0 -3 -87 -3 -88 -57 -3 -58 -3 0 91 0 90 -38 0 c-45 0 -56 8 -40 27
8 10 41 13 142 11 115 -3 131 -5 134 -20z"/>
</g>
</svg>
