<?xml version="1.0" standalone="no"?>
<!DOCTYPE svg PUBLIC "-//W3C//DTD SVG 20010904//EN"
 "http://www.w3.org/TR/2001/REC-SVG-20010904/DTD/svg10.dtd">
<svg version="1.0" xmlns="http://www.w3.org/2000/svg"
 width="128.000000pt" height="128.000000pt" viewBox="0 0 128.000000 128.000000"
 preserveAspectRatio="xMidYMid meet">
<g transform="translate(0.000000,128.000000) scale(0.100000,-0.100000)"
fill="#000000" stroke="none">
<path d="M600 1267 c-14 -7 -33 -28 -43 -48 -17 -36 -18 -36 -182 -80 l-165
-43 0 -40 c0 -37 -39 -133 -174 -429 -42 -91 -43 -104 -16 -157 39 -77 150
-120 257 -101 94 18 152 64 172 135 9 36 7 47 -39 145 -26 58 -73 161 -103
229 l-55 122 149 0 149 0 0 -455 0 -455 -183 0 -183 0 -44 -45 -44 -45 544 0
544 0 -44 45 -44 45 -183 0 -183 0 0 455 0 455 145 0 c80 0 145 -3 145 -7 0
-4 -20 -50 -44 -102 -145 -314 -158 -345 -151 -377 9 -50 46 -96 98 -123 62
-31 181 -35 237 -7 53 28 99 76 110 118 10 34 5 48 -61 195 -39 87 -86 191
-105 232 -22 48 -34 88 -34 117 0 53 9 48 -193 101 l-143 37 -16 38 c-23 52
-68 70 -118 45z m-360 -376 c0 -6 29 -74 64 -153 35 -79 66 -154 70 -166 l7
-22 -155 0 -155 0 34 80 c78 181 119 270 127 270 4 0 8 -4 8 -9z m881 -144
c37 -83 70 -162 73 -174 l7 -23 -155 0 -155 0 34 80 c71 166 119 270 124 270
3 0 36 -69 72 -153z"/>
</g>
</svg>
