<?xml version="1.0" standalone="no"?>
<!DOCTYPE svg PUBLIC "-//W3C//DTD SVG 20010904//EN"
 "http://www.w3.org/TR/2001/REC-SVG-20010904/DTD/svg10.dtd">
<svg version="1.0" xmlns="http://www.w3.org/2000/svg"
 width="128.000000pt" height="128.000000pt" viewBox="0 0 128.000000 128.000000"
 preserveAspectRatio="xMidYMid meet">
<g transform="translate(0.000000,128.000000) scale(0.100000,-0.100000)"
fill="#000000" stroke="none">
<path d="M405 1024 l-210 -106 -3 -43 c-3 -36 1 -46 24 -64 26 -21 35 -21 424
-21 387 0 398 1 424 21 21 16 26 29 26 63 l0 43 -216 106 c-119 59 -225 107
-237 106 -12 0 -116 -48 -232 -105z m253 -22 c2 -12 12 -22 25 -24 28 -4 28
-20 0 -33 -12 -5 -24 -17 -26 -27 -7 -24 -28 -23 -34 1 -3 11 -13 21 -24 24
-25 7 -25 37 1 37 13 0 20 7 20 18 0 38 33 41 38 4z"/>
<path d="M214 758 c-4 -6 2 -19 14 -29 21 -16 22 -25 22 -184 0 -159 -1 -168
-22 -184 -35 -29 -14 -41 73 -41 71 0 79 2 79 19 0 10 -7 21 -15 25 -22 8 -22
351 0 360 8 3 15 15 15 26 0 18 -6 20 -79 20 -50 0 -83 -4 -87 -12z"/>
<path d="M913 744 c-4 -10 1 -22 10 -29 15 -11 17 -36 17 -188 0 -146 -2 -176
-15 -181 -20 -7 -19 -32 1 -40 34 -13 131 -6 145 10 11 14 11 18 -4 29 -15 11
-17 33 -17 185 0 150 2 174 17 185 9 7 14 19 10 29 -9 24 -155 24 -164 0z"/>
<path d="M620 635 c0 -14 -10 -45 -21 -68 -21 -40 -22 -41 -32 -19 -10 21 -11
20 -29 -19 -27 -61 -24 -100 12 -134 16 -16 32 -26 35 -23 3 3 -1 11 -10 18
-19 15 -19 38 -1 80 9 22 15 28 19 19 5 -12 7 -12 17 1 6 8 13 27 17 43 7 35
20 34 41 -3 9 -17 23 -28 29 -25 32 11 44 -75 16 -115 -15 -23 -13 -22 15 4
44 41 56 75 43 124 -6 22 -20 51 -31 64 l-19 23 -1 -22 c0 -13 -4 -23 -10 -23
-5 0 -10 7 -10 15 0 16 -57 85 -71 85 -5 0 -9 -11 -9 -25z"/>
<path d="M202 253 c3 -17 32 -18 438 -18 406 0 435 1 438 18 3 16 -23 17 -438
17 -415 0 -441 -1 -438 -17z"/>
</g>
</svg>
