<?xml version="1.0" standalone="no"?>
<!DOCTYPE svg PUBLIC "-//W3C//DTD SVG 20010904//EN"
 "http://www.w3.org/TR/2001/REC-SVG-20010904/DTD/svg10.dtd">
<svg version="1.0" xmlns="http://www.w3.org/2000/svg"
 width="128.000000pt" height="128.000000pt" viewBox="0 0 128.000000 128.000000"
 preserveAspectRatio="xMidYMid meet">
<g transform="translate(0.000000,128.000000) scale(0.100000,-0.100000)"
fill="#000000" stroke="none">
<path d="M165 1270 c-3 -5 7 -12 22 -16 15 -3 37 -8 47 -11 11 -3 49 -33 86
-67 37 -33 92 -82 122 -108 30 -26 63 -63 72 -83 18 -36 17 -38 -8 -95 -14
-32 -29 -79 -32 -104 -9 -62 -33 -91 -108 -126 -33 -17 -76 -40 -95 -52 -41
-26 -107 -29 -143 -6 -15 10 -41 48 -59 84 l-33 67 -14 -49 c-15 -58 -11 -199
9 -235 7 -13 13 -34 14 -45 1 -21 63 -110 111 -158 38 -37 109 -49 211 -35 82
11 85 10 109 -12 39 -37 74 -117 74 -172 0 -41 3 -48 18 -45 9 2 16 9 15 14
-1 5 -5 37 -8 71 l-7 61 114 3 c113 4 115 5 152 37 43 37 58 39 126 12 l50
-20 26 53 c47 94 70 117 114 117 48 0 65 22 82 103 9 43 9 81 1 159 -10 91
-15 106 -38 125 -24 21 -24 28 0 23 10 -2 -28 44 -55 67 -10 8 -55 12 -136 13
-115 0 -125 2 -177 29 -30 16 -73 32 -95 36 -78 13 -94 73 -27 101 60 25 57
104 -4 104 -32 0 -79 -63 -62 -84 15 -18 -20 -49 -45 -39 -10 3 -57 42 -104
86 -47 44 -112 98 -145 120 -33 22 -73 51 -88 64 -29 23 -81 31 -92 13z m661
-452 c60 -24 75 -27 100 -18 50 20 176 18 207 -3 40 -26 35 -41 -12 -33 -22 3
-93 -1 -158 -10 -65 -9 -136 -17 -158 -19 -22 -1 -72 -8 -111 -16 -86 -15
-104 -10 -104 31 0 24 7 35 29 48 17 9 35 27 40 40 10 20 16 22 53 16 24 -4
75 -20 114 -36z"/>
</g>
</svg>
