<?xml version="1.0" standalone="no"?>
<!DOCTYPE svg PUBLIC "-//W3C//DTD SVG 20010904//EN"
 "http://www.w3.org/TR/2001/REC-SVG-20010904/DTD/svg10.dtd">
<svg version="1.0" xmlns="http://www.w3.org/2000/svg"
 width="128.000000pt" height="128.000000pt" viewBox="0 0 128.000000 128.000000"
 preserveAspectRatio="xMidYMid meet">
<g transform="translate(0.000000,128.000000) scale(0.100000,-0.100000)"
fill="#000000" stroke="none">
<path d="M252 1265 c-30 -22 -59 -80 -67 -135 -5 -35 3 -78 36 -200 l41 -155
8 -275 c7 -284 10 -301 53 -385 33 -65 75 -104 120 -112 54 -8 61 19 36 138
-25 121 -26 280 -1 328 30 60 62 76 155 76 141 0 177 -37 185 -188 3 -67 -1
-116 -19 -203 -27 -132 -23 -150 33 -148 49 1 82 27 116 92 51 98 63 178 61
416 -1 222 1 244 51 427 43 164 38 247 -22 311 -26 28 -31 30 -80 23 -29 -4
-88 -22 -130 -41 -133 -60 -250 -63 -354 -11 -98 49 -187 66 -222 42z"/>
</g>
</svg>
