<?xml version="1.0" standalone="no"?>
<!DOCTYPE svg PUBLIC "-//W3C//DTD SVG 20010904//EN"
 "http://www.w3.org/TR/2001/REC-SVG-20010904/DTD/svg10.dtd">
<svg version="1.0" xmlns="http://www.w3.org/2000/svg"
 width="128.000000pt" height="128.000000pt" viewBox="0 0 128.000000 128.000000"
 preserveAspectRatio="xMidYMid meet">
<g transform="translate(0.000000,128.000000) scale(0.100000,-0.100000)"
fill="#000000" stroke="none">
<path d="M785 1266 c-307 -76 -409 -459 -180 -675 30 -29 81 -64 112 -79 52
-24 70 -27 163 -27 99 0 110 2 172 33 170 84 262 279 214 457 -39 147 -144
252 -291 290 -69 18 -121 18 -190 1z m194 -196 c157 -79 157 -305 0 -384 -115
-57 -242 -15 -295 98 -44 95 -24 190 56 258 70 60 156 71 239 28z"/>
<path d="M211 508 c-93 -16 -175 -92 -201 -188 -24 -85 2 -173 70 -241 162
-162 432 -48 431 182 0 31 -7 74 -16 96 -18 44 -77 108 -118 130 -40 21 -114
30 -166 21z m99 -198 c30 -30 27 -83 -6 -109 -36 -28 -60 -26 -95 8 -34 35
-36 59 -8 95 26 33 79 36 109 6z"/>
</g>
</svg>
