<?xml version="1.0" standalone="no"?>
<!DOCTYPE svg PUBLIC "-//W3C//DTD SVG 20010904//EN"
 "http://www.w3.org/TR/2001/REC-SVG-20010904/DTD/svg10.dtd">
<svg version="1.0" xmlns="http://www.w3.org/2000/svg"
 width="128.000000pt" height="128.000000pt" viewBox="0 0 128.000000 128.000000"
 preserveAspectRatio="xMidYMid meet">
<g transform="translate(0.000000,128.000000) scale(0.100000,-0.100000)"
fill="#000000" stroke="none">
<path d="M523 1166 c-122 -40 -221 -154 -248 -286 l-12 -55 -57 -7 c-76 -10
-121 -33 -147 -75 -40 -64 -50 -135 -56 -400 l-6 -253 642 0 641 0 0 98 c-1
156 -18 444 -30 483 -26 90 -81 135 -177 145 l-61 7 -6 44 c-14 106 -111 235
-211 283 -62 29 -205 38 -272 16z m195 -180 c55 -29 102 -96 102 -147 0 -18
-9 -19 -185 -19 -102 0 -185 4 -185 9 0 18 24 78 42 104 42 59 160 87 226 53z
m12 -346 l0 -90 90 0 90 0 0 -95 0 -95 -90 0 -89 0 -3 -87 -3 -88 -87 -3 -88
-3 0 90 0 90 -92 3 -93 3 0 90 0 90 93 3 92 3 0 89 0 90 90 0 90 0 0 -90z"/>
</g>
</svg>
