<?xml version="1.0" standalone="no"?>
<!DOCTYPE svg PUBLIC "-//W3C//DTD SVG 20010904//EN"
 "http://www.w3.org/TR/2001/REC-SVG-20010904/DTD/svg10.dtd">
<svg version="1.0" xmlns="http://www.w3.org/2000/svg"
 width="128.000000pt" height="128.000000pt" viewBox="0 0 128.000000 128.000000"
 preserveAspectRatio="xMidYMid meet">
<g transform="translate(0.000000,128.000000) scale(0.100000,-0.100000)"
fill="#000000" stroke="none">
<path d="M1005 1257 c-16 -7 -66 -30 -110 -52 -85 -42 -133 -48 -251 -30 -108
16 -195 -39 -288 -178 -54 -83 -80 -144 -92 -217 -6 -37 -9 -40 -38 -40 -44 0
-95 34 -112 75 -18 45 -18 121 1 175 8 24 13 45 10 48 -8 9 -46 -31 -74 -78
-23 -39 -26 -56 -26 -130 0 -74 3 -91 27 -131 30 -51 95 -92 174 -109 45 -10
50 -14 67 -55 11 -25 40 -74 66 -109 46 -62 48 -69 54 -145 3 -44 8 -84 12
-90 4 -7 52 -11 126 -11 94 0 121 3 125 14 9 23 -26 86 -57 101 -36 19 -42 40
-29 117 15 94 13 195 -6 233 -20 43 -73 69 -127 62 -65 -9 -61 -22 8 -22 57 0
68 -3 92 -28 26 -25 28 -34 28 -105 0 -42 -4 -112 -9 -155 l-9 -79 47 -42 c74
-69 67 -77 -66 -74 l-113 3 -7 84 c-5 64 -12 91 -28 110 -60 75 -82 109 -97
152 -16 43 -20 48 -56 53 -63 10 -135 46 -166 82 -61 69 -63 207 -5 285 l25
34 -7 -30 c-15 -55 -8 -141 12 -176 28 -48 80 -81 123 -77 34 3 35 4 52 75 21
84 45 135 106 220 73 104 163 152 257 138 127 -19 167 -13 279 43 148 74 201
71 246 -15 6 -12 15 -54 21 -93 9 -67 27 -114 60 -167 13 -20 12 -27 -4 -57
-25 -46 -76 -71 -119 -57 -18 5 -49 12 -71 16 l-38 6 6 67 c4 37 14 97 23 135
9 37 13 70 10 74 -4 3 -8 0 -10 -8 -24 -86 -37 -157 -37 -203 0 -30 -5 -58
-10 -61 -12 -7 -52 22 -83 62 -17 22 -22 41 -22 90 0 68 -9 83 -18 29 -11 -67
30 -158 84 -186 18 -10 17 -14 -28 -67 -27 -31 -76 -85 -110 -120 -59 -61 -62
-68 -82 -152 -29 -123 -28 -176 3 -196 21 -14 46 -61 46 -86 0 -5 -18 -9 -41
-9 -24 0 -38 -4 -34 -10 7 -12 82 -13 89 -2 11 18 -17 87 -45 113 -34 31 -35
47 -13 155 19 93 31 119 74 159 18 17 58 62 91 101 75 92 100 103 188 81 61
-15 68 -15 101 1 24 12 42 32 59 65 l24 48 -20 27 c-36 48 -52 88 -58 143 -10
79 -23 117 -57 155 -25 29 -37 34 -72 33 -22 0 -54 -6 -71 -12z"/>
<path d="M40 115 l0 -85 605 0 605 0 -2 88 -2 87 -3 -77 -4 -78 -589 0 -590 0
0 75 c0 43 -4 75 -10 75 -6 0 -10 -35 -10 -85z"/>
</g>
</svg>
