<?xml version="1.0" standalone="no"?>
<!DOCTYPE svg PUBLIC "-//W3C//DTD SVG 20010904//EN"
 "http://www.w3.org/TR/2001/REC-SVG-20010904/DTD/svg10.dtd">
<svg version="1.0" xmlns="http://www.w3.org/2000/svg"
 width="128.000000pt" height="128.000000pt" viewBox="0 0 128.000000 128.000000"
 preserveAspectRatio="xMidYMid meet">
<g transform="translate(0.000000,128.000000) scale(0.100000,-0.100000)"
fill="#000000" stroke="none">
<path d="M131 1263 c-22 -11 -40 -31 -52 -57 -17 -37 -19 -71 -19 -323 l0
-281 -30 -30 c-49 -49 -37 -112 26 -138 l34 -14 0 -194 c0 -174 2 -195 18
-209 24 -22 65 -22 85 1 14 15 17 49 19 213 l3 194 123 3 c93 2 122 0 123 -10
1 -7 4 -103 8 -213 5 -179 8 -200 24 -203 15 -3 17 7 17 102 l0 106 130 0 130
0 0 -106 c0 -95 2 -105 18 -102 15 3 18 24 23 203 4 110 7 206 8 213 1 10 30
12 124 10 l122 -3 3 -194 c3 -213 7 -231 62 -231 55 0 60 18 60 228 l0 192 34
14 c63 26 75 89 26 138 l-30 30 0 281 c0 253 -2 286 -19 323 -34 75 -25 74
-563 74 -421 0 -477 -2 -507 -17z m992 -35 c46 -24 46 -28 47 -335 l0 -293
-105 0 -105 0 0 210 0 210 -320 0 -320 0 0 -210 0 -210 -105 0 -105 0 0 293
c1 305 1 310 45 335 29 16 937 17 968 0z m-203 -438 l0 -190 -39 0 c-38 0 -39
1 -46 39 -18 105 -108 177 -210 169 -95 -8 -162 -71 -180 -171 -7 -35 -9 -37
-46 -37 l-39 0 0 190 0 190 280 0 280 0 0 -190z m-216 -40 c70 -35 81 -60 80
-175 -1 -55 -4 -130 -8 -167 l-8 -68 -128 0 -129 0 -7 58 c-4 31 -8 107 -8
167 -1 126 9 149 79 185 50 25 78 25 129 0z m-254 -240 l0 -40 -195 0 -195 0
-12 25 c-8 19 -8 28 2 40 10 12 45 15 206 15 l194 0 0 -40z m780 25 c10 -12
10 -21 2 -40 l-12 -25 -195 0 -195 0 0 40 0 40 194 0 c161 0 196 -3 206 -15z
m-1062 -297 c-3 -164 -5 -193 -18 -193 -13 0 -15 29 -18 193 -2 188 -2 192 18
192 20 0 20 -4 18 -192z m980 0 c-3 -164 -5 -193 -18 -193 -13 0 -15 29 -18
193 -2 188 -2 192 18 192 20 0 20 -4 18 -192z m-378 42 c0 -19 -7 -20 -130
-20 -123 0 -130 1 -130 20 0 19 7 20 130 20 123 0 130 -1 130 -20z"/>
<path d="M184 1210 c-83 -33 -63 -160 25 -160 48 0 79 23 87 64 7 42 -7 71
-46 91 -33 17 -36 17 -66 5z m66 -60 c8 -14 8 -26 0 -40 -19 -35 -80 -20 -80
20 0 40 61 55 80 20z"/>
<path d="M383 1201 c-36 -23 -47 -49 -38 -91 8 -38 40 -60 86 -60 69 0 104 81
57 134 -32 35 -66 41 -105 17z m81 -53 c15 -24 -3 -52 -37 -56 -33 -4 -53 28
-37 59 14 25 58 23 74 -3z"/>
<path d="M604 1206 c-81 -35 -52 -156 36 -156 37 0 70 25 83 62 11 32 -14 79
-49 94 -39 16 -32 16 -70 0z m66 -51 c26 -32 -13 -81 -47 -59 -35 22 -23 74
17 74 10 0 23 -7 30 -15z"/>
<path d="M824 1210 c-83 -33 -63 -160 25 -160 48 0 79 23 87 64 7 42 -7 71
-46 91 -33 17 -36 17 -66 5z m66 -60 c8 -14 8 -26 0 -40 -19 -35 -80 -20 -80
20 0 40 61 55 80 20z"/>
<path d="M1023 1201 c-36 -23 -47 -49 -38 -91 8 -38 40 -60 86 -60 69 0 104
81 57 134 -32 35 -66 41 -105 17z m81 -53 c15 -24 -3 -52 -37 -56 -33 -4 -53
28 -37 59 14 25 58 23 74 -3z"/>
<path d="M155 975 c-37 -36 -34 -86 6 -119 40 -34 74 -33 110 3 32 33 36 58
14 100 -25 49 -90 57 -130 16z m89 -31 c21 -20 20 -30 -5 -55 -18 -18 -23 -19
-42 -6 -26 17 -33 43 -17 62 16 19 45 19 64 -1z"/>
<path d="M1022 993 c-17 -6 -42 -57 -42 -83 0 -30 53 -80 83 -80 41 0 87 46
87 86 0 62 -66 102 -128 77z m78 -48 c16 -19 9 -45 -17 -62 -19 -13 -24 -12
-42 6 -25 25 -26 35 -5 55 19 20 48 20 64 1z"/>
<path d="M175 778 c-77 -44 -49 -158 39 -158 26 0 40 7 60 31 34 40 33 74 -3
110 -31 30 -63 36 -96 17z m66 -49 c18 -18 19 -23 6 -42 -18 -28 -40 -32 -61
-12 -20 21 -20 39 0 59 20 21 30 20 55 -5z"/>
<path d="M1009 761 c-36 -36 -37 -70 -3 -110 20 -24 34 -31 60 -31 89 0 116
116 37 158 -35 19 -63 14 -94 -17z m85 -27 c9 -8 16 -22 16 -29 0 -17 -27 -45
-44 -45 -7 0 -21 9 -30 19 -24 26 -4 66 36 70 4 1 14 -6 22 -15z"/>
<path d="M602 718 c-38 -10 -72 -58 -72 -100 0 -21 5 -28 20 -28 14 0 20 7 20
23 0 32 20 56 55 65 31 9 46 36 23 44 -7 3 -28 1 -46 -4z"/>
</g>
</svg>
