<?xml version="1.0" standalone="no"?>
<!DOCTYPE svg PUBLIC "-//W3C//DTD SVG 20010904//EN"
 "http://www.w3.org/TR/2001/REC-SVG-20010904/DTD/svg10.dtd">
<svg version="1.0" xmlns="http://www.w3.org/2000/svg"
 width="128.000000pt" height="128.000000pt" viewBox="0 0 128.000000 128.000000"
 preserveAspectRatio="xMidYMid meet">
<g transform="translate(0.000000,128.000000) scale(0.100000,-0.100000)"
fill="#000000" stroke="none">
<path d="M153 1272 c-18 -11 -130 -231 -143 -280 -25 -95 40 -202 131 -217 48
-8 118 21 147 62 33 46 46 112 32 164 -13 49 -104 235 -128 262 -17 19 -22 20
-39 9z m58 -216 c46 -95 46 -131 2 -166 -33 -26 -66 -25 -98 3 -38 32 -35 74
10 168 22 43 41 79 42 79 2 0 22 -38 44 -84z"/>
<path d="M583 1182 c-16 -10 -288 -587 -307 -653 -33 -110 -13 -258 48 -363
103 -176 330 -212 479 -76 113 104 164 278 127 438 -14 59 -277 634 -297 650
-19 14 -33 15 -50 4z m133 -389 c118 -257 139 -320 129 -396 -31 -235 -257
-344 -401 -195 -51 52 -68 86 -83 160 -9 41 -9 73 -2 112 9 51 239 561 248
552 3 -2 52 -107 109 -233z"/>
<path d="M1065 821 c-61 -123 -69 -171 -37 -230 67 -126 243 -64 242 84 -1 40
-11 69 -53 150 -72 139 -80 139 -152 -4z m103 -86 c27 -56 27 -67 2 -90 -24
-22 -66 -13 -75 16 -7 21 30 119 45 119 3 0 16 -20 28 -45z"/>
</g>
</svg>
