<?xml version="1.0" standalone="no"?>
<!DOCTYPE svg PUBLIC "-//W3C//DTD SVG 20010904//EN"
 "http://www.w3.org/TR/2001/REC-SVG-20010904/DTD/svg10.dtd">
<svg version="1.0" xmlns="http://www.w3.org/2000/svg"
 width="128.000000pt" height="128.000000pt" viewBox="0 0 128.000000 128.000000"
 preserveAspectRatio="xMidYMid meet">
<g transform="translate(0.000000,128.000000) scale(0.100000,-0.100000)"
fill="#000000" stroke="none">
<path d="M305 1120 c-38 -15 -65 -56 -97 -150 l-33 -95 -75 -5 -75 -5 0 -35
c0 -31 3 -35 30 -40 20 -4 29 -11 26 -21 -11 -42 -30 -269 -31 -367 0 -108 1
-114 26 -139 23 -23 31 -25 86 -21 70 5 88 21 88 80 l0 38 239 0 238 0 6 49
c12 97 75 185 167 231 58 30 151 37 209 17 l44 -16 -7 52 c-3 29 -7 61 -8 72
-2 14 4 21 27 25 27 5 30 9 30 40 l0 35 -76 3 -76 3 -33 97 c-57 168 -44 162
-402 161 -156 0 -292 -4 -303 -9z m616 -126 c58 -137 58 -169 -2 -199 -25 -14
-73 -15 -324 -13 l-293 3 -26 24 c-32 30 -33 62 -5 133 42 108 8 98 340 98
l290 0 20 -46z m-574 -396 c52 -49 12 -138 -62 -138 -73 0 -112 85 -63 137 29
31 92 32 125 1z m401 -42 c2 -32 -1 -52 -10 -57 -15 -10 -228 -12 -252 -3 -12
4 -16 20 -16 53 0 26 3 51 7 55 4 3 66 5 137 4 l131 -3 3 -49z"/>
<path d="M960 589 c-35 -11 -93 -49 -118 -79 -72 -84 -68 -217 10 -304 46 -53
105 -79 179 -78 203 0 306 254 161 398 -59 59 -156 86 -232 63z m94 -143 c3
-6 12 -2 22 12 21 28 48 30 39 2 -5 -14 -2 -20 9 -20 11 0 16 -9 16 -30 0 -20
-5 -30 -15 -30 -8 0 -15 7 -15 15 0 12 -16 15 -85 15 -69 0 -85 -3 -85 -15 0
-8 -7 -15 -15 -15 -10 0 -15 10 -15 30 0 20 5 30 15 30 9 0 15 7 13 17 -4 25
29 28 37 4 8 -27 39 -28 32 -1 -10 38 29 27 47 -14z m46 -63 c0 -4 -12 -17
-27 -30 l-28 -22 53 -1 c71 0 66 -24 -6 -28 -47 -3 -51 -5 -54 -30 -4 -33 -53
-56 -68 -32 -15 24 -12 30 15 30 15 0 25 6 25 14 0 11 -15 16 -52 18 -70 4
-78 28 -10 28 31 0 54 5 61 14 10 12 7 15 -20 18 -18 2 -34 9 -37 16 -3 9 16
12 72 12 42 0 76 -3 76 -7z"/>
</g>
</svg>
