<?xml version="1.0" standalone="no"?>
<!DOCTYPE svg PUBLIC "-//W3C//DTD SVG 20010904//EN"
 "http://www.w3.org/TR/2001/REC-SVG-20010904/DTD/svg10.dtd">
<svg version="1.0" xmlns="http://www.w3.org/2000/svg"
 width="128.000000pt" height="128.000000pt" viewBox="0 0 128.000000 128.000000"
 preserveAspectRatio="xMidYMid meet">
<g transform="translate(0.000000,128.000000) scale(0.100000,-0.100000)"
fill="#000000" stroke="none">
<path d="M188 1264 c-15 -8 -32 -23 -38 -34 -6 -12 -10 -220 -10 -594 l0 -576
-65 0 c-69 0 -90 -15 -65 -45 19 -23 1241 -23 1260 0 25 30 4 45 -65 45 l-65
0 0 446 0 446 -29 29 -29 29 -160 0 -160 0 -4 106 c-3 105 -3 106 -36 135
l-32 29 -238 0 c-190 -1 -242 -4 -264 -16z m496 -60 c14 -14 16 -79 16 -564
l0 -549 -22 -15 c-19 -13 -58 -16 -231 -16 -124 0 -216 4 -228 10 -18 10 -19
27 -19 568 0 421 3 561 12 570 9 9 75 12 234 12 189 0 225 -2 238 -16z m384
-266 c9 -9 12 -119 12 -435 0 -407 -1 -423 -19 -433 -26 -13 -256 -13 -282 0
-18 10 -19 26 -19 430 0 230 3 425 6 434 5 14 28 16 148 16 97 0 146 -4 154
-12z"/>
<path d="M250 1070 l0 -40 85 0 85 0 0 40 0 40 -85 0 -85 0 0 -40z"/>
<path d="M470 1070 l0 -40 85 0 85 0 0 40 0 40 -85 0 -85 0 0 -40z"/>
<path d="M252 858 l3 -43 83 -3 82 -3 0 46 0 45 -86 0 -85 0 3 -42z"/>
<path d="M472 858 l3 -43 83 -3 82 -3 0 46 0 45 -86 0 -85 0 3 -42z"/>
<path d="M257 683 c-4 -3 -7 -24 -7 -45 l0 -38 85 0 85 0 0 45 0 45 -78 0
c-43 0 -82 -3 -85 -7z"/>
<path d="M477 683 c-4 -3 -7 -24 -7 -45 l0 -38 85 0 85 0 0 45 0 45 -78 0
c-43 0 -82 -3 -85 -7z"/>
<path d="M890 735 l0 -85 40 0 40 0 0 85 0 85 -40 0 -40 0 0 -85z"/>
<path d="M890 505 l0 -85 40 0 40 0 0 85 0 85 -40 0 -40 0 0 -85z"/>
</g>
</svg>
