<?xml version="1.0" standalone="no"?>
<!DOCTYPE svg PUBLIC "-//W3C//DTD SVG 20010904//EN"
 "http://www.w3.org/TR/2001/REC-SVG-20010904/DTD/svg10.dtd">
<svg version="1.0" xmlns="http://www.w3.org/2000/svg"
 width="128.000000pt" height="128.000000pt" viewBox="0 0 128.000000 128.000000"
 preserveAspectRatio="xMidYMid meet">
<g transform="translate(0.000000,128.000000) scale(0.100000,-0.100000)"
fill="#000000" stroke="none">
<path d="M580 1060 c-11 -11 -20 -28 -20 -39 0 -12 -45 -52 -126 -115 -102
-77 -133 -96 -160 -96 -24 0 -34 -5 -34 -15 0 -8 -7 -15 -15 -15 -13 0 -15
-36 -15 -265 0 -229 2 -265 15 -265 8 0 15 -7 15 -15 0 -13 48 -15 370 -15
231 0 370 4 370 10 0 5 -16 25 -35 45 l-36 35 -304 0 c-264 0 -305 -2 -305
-15 0 -8 -7 -15 -15 -15 -8 0 -15 -7 -15 -15 0 -8 -7 -15 -15 -15 -8 0 -15 7
-15 15 0 8 7 15 15 15 8 0 15 7 15 15 0 8 7 15 15 15 13 0 15 28 15 198 l-1
197 -29 25 c-32 26 -39 50 -15 50 8 0 15 -9 15 -20 0 -11 7 -20 15 -20 8 0 15
-7 15 -15 0 -13 41 -15 310 -15 269 0 310 2 310 15 0 8 7 15 15 15 8 0 15 7
15 15 0 9 7 18 15 21 28 11 17 34 -17 34 -48 1 -272 173 -263 201 4 11 0 31
-9 44 -20 31 -68 33 -96 5z m16 -91 c4 -7 21 -9 41 -6 31 5 45 -2 131 -65 53
-39 101 -75 107 -80 5 -4 -114 -8 -264 -8 l-273 0 114 85 c114 85 131 94 144
74z"/>
<path d="M980 761 c0 -12 -6 -21 -15 -21 -8 0 -15 -7 -15 -15 0 -8 -7 -15 -15
-15 -13 0 -15 -29 -15 -200 0 -171 2 -200 15 -200 8 0 15 -7 15 -15 0 -8 7
-15 15 -15 8 0 15 -7 15 -16 0 -9 7 -14 18 -12 16 3 17 24 17 263 0 239 -1
260 -17 263 -13 2 -18 -3 -18 -17z"/>
<path d="M442 638 c-17 -17 -15 -53 3 -68 20 -17 62 -5 70 20 14 44 -41 80
-73 48z"/>
<path d="M704 551 l-47 -72 -37 36 -37 36 -34 -55 -33 -56 -27 26 -27 26 -26
-51 c-14 -27 -26 -53 -26 -56 0 -3 99 -5 220 -5 121 0 220 2 220 5 0 7 -91
228 -95 233 -2 2 -25 -28 -51 -67z"/>
</g>
</svg>
