<?xml version="1.0" standalone="no"?>
<!DOCTYPE svg PUBLIC "-//W3C//DTD SVG 20010904//EN"
 "http://www.w3.org/TR/2001/REC-SVG-20010904/DTD/svg10.dtd">
<svg version="1.0" xmlns="http://www.w3.org/2000/svg"
 width="128.000000pt" height="128.000000pt" viewBox="0 0 128.000000 128.000000"
 preserveAspectRatio="xMidYMid meet">
<g transform="translate(0.000000,128.000000) scale(0.100000,-0.100000)"
fill="#000000" stroke="none">
<path d="M325 986 c-101 -32 -176 -91 -211 -164 -9 -20 -19 -70 -22 -109 l-5
-73 547 0 546 0 0 70 c0 119 -57 202 -179 259 -56 26 -56 26 -346 28 -215 2
-300 -1 -330 -11z"/>
<path d="M40 530 c-24 -24 -25 -34 -4 -54 14 -14 82 -16 603 -16 443 0 590 3
599 12 19 19 14 45 -10 62 -20 14 -93 16 -595 16 -560 0 -573 0 -593 -20z"/>
<path d="M90 323 c0 -53 32 -100 83 -123 39 -18 70 -20 466 -20 411 0 426 1
468 21 50 24 73 61 73 119 l0 40 -545 0 -545 0 0 -37z"/>
</g>
</svg>
