<?xml version="1.0" standalone="no"?>
<!DOCTYPE svg PUBLIC "-//W3C//DTD SVG 20010904//EN"
 "http://www.w3.org/TR/2001/REC-SVG-20010904/DTD/svg10.dtd">
<svg version="1.0" xmlns="http://www.w3.org/2000/svg"
 width="128.000000pt" height="128.000000pt" viewBox="0 0 128.000000 128.000000"
 preserveAspectRatio="xMidYMid meet">
<g transform="translate(0.000000,128.000000) scale(0.100000,-0.100000)"
fill="#000000" stroke="none">
<path d="M262 1068 c-8 -8 -12 -45 -12 -100 0 -85 -1 -88 -23 -88 -45 0 -56
-19 -59 -105 l-3 -80 -35 -5 c-22 -3 -36 -11 -38 -22 -2 -10 12 -60 31 -113
33 -90 35 -113 7 -80 -16 19 -39 19 -47 -1 -7 -20 38 -67 97 -102 35 -21 58
-27 106 -27 53 0 68 5 125 40 86 53 125 54 200 3 74 -52 132 -53 227 -3 37 19
81 37 98 41 43 8 109 -11 177 -53 47 -28 61 -32 72 -23 23 19 19 28 -29 61
l-44 31 44 106 c25 58 43 113 42 121 -2 12 -19 17 -63 21 l-60 5 -3 40 c-4 46
-10 55 -75 107 -42 32 -56 38 -98 38 l-48 0 -11 43 c-41 159 -40 157 -115 157
-61 0 -75 -22 -76 -120 l-1 -75 -21 81 c-28 103 -37 114 -96 114 -70 0 -75 -7
-81 -107 l-5 -88 -23 86 c-13 47 -28 91 -35 98 -15 15 -110 14 -125 -1z m92
-53 c4 -11 -2 -15 -24 -15 -29 0 -38 9 -23 23 12 12 41 7 47 -8z m204 -2 c2
-9 -7 -13 -27 -13 -30 0 -39 9 -24 24 11 10 46 3 51 -11z m200 0 c2 -8 -6 -13
-22 -13 -17 0 -26 5 -26 16 0 19 41 16 48 -3z m-380 -105 c3 -27 1 -28 -37
-28 -39 0 -41 1 -41 31 0 29 2 30 38 27 32 -3 37 -7 40 -30z m202 18 c0 -8 3
-21 6 -30 5 -13 -1 -16 -33 -16 -47 0 -52 3 -45 35 4 21 10 25 38 25 23 0 34
-5 34 -14z m204 -2 c13 -35 7 -44 -34 -44 -38 0 -40 2 -40 30 0 27 3 30 34 30
22 0 36 -6 40 -16z m188 -131 c42 -32 48 -42 46 -68 l-3 -30 -395 0 -395 0 -3
54 c-2 29 -1 60 2 67 4 12 68 14 352 14 l347 0 49 -37z m158 -163 c0 -5 -5
-21 -12 -35 l-11 -25 -467 0 -467 0 -10 35 -11 35 489 0 c303 0 489 -4 489
-10z m-57 -139 c-5 -18 -12 -19 -87 -15 -80 6 -82 5 -160 -35 -44 -23 -91 -41
-105 -41 -14 0 -55 18 -91 40 -90 55 -141 56 -232 1 -63 -38 -87 -46 -136 -43
-22 2 -37 25 -56 90 l-7 22 439 0 c431 0 440 0 435 -19z"/>
<path d="M86 333 c-9 -23 46 -78 112 -110 72 -35 130 -29 212 21 74 46 114 53
157 29 104 -59 120 -66 159 -65 28 0 71 14 128 42 75 38 91 42 131 37 47 -7
109 -34 157 -70 26 -20 29 -20 45 -4 16 15 16 18 -1 36 -9 10 -45 34 -79 52
-56 31 -70 34 -142 34 -74 -1 -85 -4 -146 -38 -36 -20 -79 -37 -95 -37 -16 0
-57 17 -94 40 -93 57 -165 54 -249 -11 -62 -49 -140 -41 -216 22 -52 43 -70
48 -79 22z"/>
</g>
</svg>
