<?xml version="1.0" standalone="no"?>
<!DOCTYPE svg PUBLIC "-//W3C//DTD SVG 20010904//EN"
 "http://www.w3.org/TR/2001/REC-SVG-20010904/DTD/svg10.dtd">
<svg version="1.0" xmlns="http://www.w3.org/2000/svg"
 width="128.000000pt" height="128.000000pt" viewBox="0 0 128.000000 128.000000"
 preserveAspectRatio="xMidYMid meet">
<g transform="translate(0.000000,128.000000) scale(0.100000,-0.100000)"
fill="#000000" stroke="none">
<path d="M360 1042 c-182 -94 -258 -138 -242 -140 l22 -3 0 -330 0 -329 35 0
35 0 0 330 0 330 45 0 45 0 0 -330 0 -330 35 0 35 0 0 330 0 330 35 0 35 0 0
-330 0 -330 200 0 200 0 0 330 0 330 35 0 35 0 0 -330 0 -330 35 0 35 0 0 330
0 330 45 0 45 0 0 -330 0 -330 35 0 35 0 0 330 0 330 28 0 c18 0 -60 45 -243
140 -148 77 -277 139 -285 139 -8 -1 -134 -62 -280 -137z m299 -248 c11 -14
23 -35 27 -47 6 -20 7 -20 19 2 11 22 13 21 33 -27 30 -70 28 -105 -8 -144
l-29 -33 -1 46 c0 32 -7 55 -25 79 l-25 34 -6 -33 c-5 -23 -10 -29 -17 -22 -6
6 -14 11 -18 11 -12 0 -40 -87 -33 -106 4 -13 -4 -8 -25 14 -19 20 -31 43 -31
60 1 27 38 118 39 95 1 -7 5 -13 9 -13 11 0 52 74 52 94 0 24 16 20 39 -10z"/>
<path d="M80 145 l0 -35 560 0 560 0 0 35 0 35 -560 0 -560 0 0 -35z"/>
</g>
</svg>
