<?xml version="1.0" standalone="no"?>
<!DOCTYPE svg PUBLIC "-//W3C//DTD SVG 20010904//EN"
 "http://www.w3.org/TR/2001/REC-SVG-20010904/DTD/svg10.dtd">
<svg version="1.0" xmlns="http://www.w3.org/2000/svg"
 width="128.000000pt" height="128.000000pt" viewBox="0 0 128.000000 128.000000"
 preserveAspectRatio="xMidYMid meet">
<g transform="translate(0.000000,128.000000) scale(0.100000,-0.100000)"
fill="#000000" stroke="none">
<path d="M505 1203 c-66 -18 -95 -66 -95 -158 l0 -65 -38 0 c-26 0 -45 7 -57
20 -10 11 -24 20 -32 20 -7 0 -21 -9 -30 -20 -10 -11 -27 -20 -38 -20 -35 0
-119 -46 -151 -82 -61 -70 -65 -95 -62 -383 3 -232 5 -264 22 -298 26 -52 72
-96 126 -121 43 -20 60 -21 490 -21 430 0 447 1 490 21 54 25 100 69 126 121
17 34 19 66 22 298 3 288 -1 313 -62 383 -32 36 -116 82 -151 82 -11 0 -28 9
-38 20 -9 11 -23 20 -30 20 -8 0 -22 -9 -32 -20 -12 -13 -31 -20 -57 -20 l-38
0 0 65 c0 75 -16 113 -57 141 -23 16 -49 19 -158 21 -71 1 -139 -1 -150 -4z
m259 -89 c12 -5 16 -21 16 -70 l0 -64 -140 0 -140 0 0 64 c0 42 4 66 13 69 18
8 232 8 251 1z m346 -240 c19 -11 45 -35 57 -54 22 -32 23 -40 23 -290 0 -250
-1 -258 -22 -290 -13 -18 -36 -43 -51 -54 -28 -21 -38 -21 -477 -21 -439 0
-449 0 -477 21 -15 11 -38 36 -51 54 -21 32 -22 40 -22 289 0 236 2 258 20
288 23 39 60 64 108 74 21 4 221 7 447 6 394 -2 411 -3 445 -23z"/>
<path d="M590 779 c-146 -28 -237 -180 -195 -325 29 -102 139 -184 245 -184
148 0 275 144 255 289 -14 103 -102 201 -194 217 -20 3 -43 7 -51 9 -8 1 -35
-1 -60 -6z m107 -90 c95 -35 139 -149 93 -239 -31 -61 -73 -85 -150 -85 -77 0
-119 24 -150 85 -69 136 66 292 207 239z"/>
<path d="M612 628 c-7 -7 -12 -22 -12 -35 0 -18 -6 -23 -24 -23 -56 0 -63 -68
-8 -84 24 -7 32 -14 32 -32 0 -13 9 -28 20 -34 27 -15 60 4 60 34 0 18 8 25
33 32 54 16 47 84 -9 84 -18 0 -24 5 -24 23 0 27 -17 47 -40 47 -9 0 -21 -5
-28 -12z"/>
</g>
</svg>
