<?xml version="1.0" standalone="no"?>
<!DOCTYPE svg PUBLIC "-//W3C//DTD SVG 20010904//EN"
 "http://www.w3.org/TR/2001/REC-SVG-20010904/DTD/svg10.dtd">
<svg version="1.0" xmlns="http://www.w3.org/2000/svg"
 width="128.000000pt" height="128.000000pt" viewBox="0 0 128.000000 128.000000"
 preserveAspectRatio="xMidYMid meet">
<g transform="translate(0.000000,128.000000) scale(0.100000,-0.100000)"
fill="#000000" stroke="none">
<path d="M66 988 c-24 -34 -24 -662 0 -696 l15 -22 559 0 559 0 15 22 c24 34
24 662 0 696 l-15 22 -559 0 -559 0 -15 -22z m521 -138 c3 -52 1 -56 -29 -75
-54 -34 -73 -69 -73 -135 0 -66 19 -101 73 -135 30 -19 32 -23 29 -75 l-2 -55
-212 -3 -213 -2 0 55 c0 55 0 55 30 55 81 0 154 76 154 160 0 84 -73 160 -154
160 -30 0 -30 0 -30 55 l0 55 213 -2 212 -3 2 -55z m533 5 c0 -55 0 -55 -30
-55 -81 0 -154 -76 -154 -160 0 -84 73 -160 154 -160 30 0 30 0 30 -55 l0 -55
-212 2 -213 3 -2 55 c-3 52 -1 56 29 75 54 34 73 69 73 135 0 65 -19 100 -73
135 -28 18 -31 25 -32 71 0 28 3 54 7 57 3 4 100 7 215 7 l208 0 0 -55z m-888
-190 c17 -38 -3 -75 -42 -75 -29 0 -30 1 -30 50 0 49 1 50 30 50 23 0 33 -6
42 -25z m446 13 c7 -7 12 -24 12 -38 0 -33 -17 -50 -50 -50 -14 0 -31 5 -38
12 -7 7 -12 24 -12 38 0 14 5 31 12 38 15 15 61 15 76 0z m442 -38 c0 -49 -1
-50 -30 -50 -23 0 -33 6 -42 25 -17 38 3 75 42 75 29 0 30 -1 30 -50z"/>
</g>
</svg>
