<?xml version="1.0" standalone="no"?>
<!DOCTYPE svg PUBLIC "-//W3C//DTD SVG 20010904//EN"
 "http://www.w3.org/TR/2001/REC-SVG-20010904/DTD/svg10.dtd">
<svg version="1.0" xmlns="http://www.w3.org/2000/svg"
 width="128.000000pt" height="128.000000pt" viewBox="0 0 128.000000 128.000000"
 preserveAspectRatio="xMidYMid meet">
<g transform="translate(0.000000,128.000000) scale(0.100000,-0.100000)"
fill="#000000" stroke="none">
<path d="M420 1269 c-68 -14 -130 -111 -146 -229 -12 -86 60 -124 86 -45 14
43 86 125 110 125 43 0 83 -92 96 -219 l6 -69 -38 13 c-123 44 -267 -22 -308
-140 -10 -32 -16 -82 -16 -145 0 -81 3 -100 18 -113 23 -21 61 -22 90 -1 19
13 22 24 22 90 0 41 6 89 14 108 29 70 106 97 160 55 48 -38 56 -67 56 -204 0
-69 4 -125 9 -125 5 0 14 7 21 15 16 19 50 19 78 -1 21 -14 22 -14 23 8 0 13
4 78 8 145 6 109 9 125 30 147 52 55 110 55 162 0 19 -21 24 -39 29 -121 6
-84 9 -98 29 -114 30 -25 52 -24 86 3 27 21 27 22 23 122 -3 86 -8 110 -31
158 -31 62 -93 113 -154 124 -37 7 -128 1 -155 -11 -15 -6 -18 -2 -18 28 0 47
19 135 36 169 35 68 76 76 123 23 17 -20 37 -51 45 -69 16 -39 49 -54 73 -35
12 11 14 28 11 81 -6 81 -45 167 -90 199 -40 29 -106 36 -145 16 -34 -18 -89
-77 -105 -113 -15 -33 -22 -30 -51 19 -52 87 -112 122 -187 106z"/>
<path d="M57 210 c122 -116 383 -210 583 -210 133 0 344 55 471 122 54 28 159
120 159 139 0 5 -261 9 -637 9 l-638 -1 62 -59z"/>
</g>
</svg>
