<?xml version="1.0" standalone="no"?>
<!DOCTYPE svg PUBLIC "-//W3C//DTD SVG 20010904//EN"
 "http://www.w3.org/TR/2001/REC-SVG-20010904/DTD/svg10.dtd">
<svg version="1.0" xmlns="http://www.w3.org/2000/svg"
 width="128.000000pt" height="128.000000pt" viewBox="0 0 128.000000 128.000000"
 preserveAspectRatio="xMidYMid meet">
<g transform="translate(0.000000,128.000000) scale(0.100000,-0.100000)"
fill="#000000" stroke="none">
<path d="M544 1060 c-53 -17 -126 -72 -161 -123 -56 -82 -63 -125 -63 -364 l0
-213 -50 0 c-37 0 -55 -5 -70 -20 -25 -25 -26 -62 -2 -83 17 -15 61 -17 425
-17 446 0 437 -1 437 60 0 38 -32 60 -86 60 l-42 0 -4 222 c-4 201 -7 229 -27
280 -27 71 -94 146 -156 177 -53 26 -151 36 -201 21z m171 -39 c85 -39 144
-112 171 -213 20 -78 20 -448 -1 -448 -9 0 -12 6 -9 15 4 8 -1 26 -10 40 -15
22 -23 25 -81 25 l-65 0 0 123 c0 82 -4 127 -12 135 -7 7 -43 12 -90 12 -66 0
-79 -3 -88 -19 -5 -11 -10 -72 -10 -135 l0 -116 -56 0 c-71 0 -94 -12 -94 -50
0 -17 -5 -30 -11 -30 -7 0 -9 73 -7 233 3 222 4 234 27 277 47 88 87 127 166
157 45 17 125 15 170 -6z m-25 -461 l0 -121 -67 3 -68 3 -3 118 -3 117 71 0
70 0 0 -120z m146 -154 c10 -8 15 -20 11 -30 -6 -14 -31 -16 -227 -16 -139 0
-221 4 -221 10 -5 33 -2 35 56 41 119 11 363 8 381 -5z m198 -99 c9 -15 7 -21
-9 -33 -16 -12 -81 -14 -408 -12 -351 3 -391 5 -400 20 -8 12 -7 21 2 32 12
14 57 16 409 14 369 -3 396 -4 406 -21z"/>
</g>
</svg>
