<?xml version="1.0" standalone="no"?>
<!DOCTYPE svg PUBLIC "-//W3C//DTD SVG 20010904//EN"
 "http://www.w3.org/TR/2001/REC-SVG-20010904/DTD/svg10.dtd">
<svg version="1.0" xmlns="http://www.w3.org/2000/svg"
 width="128.000000pt" height="128.000000pt" viewBox="0 0 128.000000 128.000000"
 preserveAspectRatio="xMidYMid meet">
<g transform="translate(0.000000,128.000000) scale(0.100000,-0.100000)"
fill="#000000" stroke="none">
<path d="M325 1066 c-64 -29 -118 -89 -139 -154 -15 -44 -17 -89 -14 -319 3
-304 5 -312 88 -387 78 -70 83 -71 385 -71 l270 0 57 28 c64 31 101 70 132
137 20 42 21 62 21 315 0 253 -1 273 -21 315 -30 65 -68 105 -126 134 l-52 26
-275 0 c-268 0 -277 -1 -326 -24z m623 -22 c49 -20 100 -70 123 -119 17 -36
19 -68 19 -308 0 -205 -3 -275 -14 -301 -22 -52 -72 -102 -127 -125 -48 -21
-61 -22 -317 -19 -293 3 -296 4 -360 69 -64 65 -67 80 -70 344 -3 155 0 258 8
292 15 71 57 125 121 157 l53 26 263 0 c216 0 270 -3 301 -16z"/>
<path d="M387 892 c-18 -19 -22 -59 -9 -78 27 -42 95 -35 112 11 10 27 -1 62
-24 77 -20 14 -63 8 -79 -10z"/>
<path d="M605 655 c-14 -13 -25 -30 -25 -38 0 -26 41 -67 66 -67 31 0 64 33
64 65 0 30 -32 65 -60 65 -12 0 -32 -11 -45 -25z"/>
<path d="M837 412 c-38 -42 -11 -105 43 -105 38 0 60 23 60 63 0 53 -69 80
-103 42z"/>
</g>
</svg>
