<?xml version="1.0" standalone="no"?>
<!DOCTYPE svg PUBLIC "-//W3C//DTD SVG 20010904//EN"
 "http://www.w3.org/TR/2001/REC-SVG-20010904/DTD/svg10.dtd">
<svg version="1.0" xmlns="http://www.w3.org/2000/svg"
 width="128.000000pt" height="128.000000pt" viewBox="0 0 128.000000 128.000000"
 preserveAspectRatio="xMidYMid meet">
<g transform="translate(0.000000,128.000000) scale(0.100000,-0.100000)"
fill="#000000" stroke="none">
<path d="M319 1066 c-8 -18 -7 -40 4 -92 9 -37 14 -71 11 -76 -3 -4 -75 -8
-159 -8 -182 0 -175 5 -175 -124 0 -78 2 -86 25 -104 l25 -20 0 -214 c0 -153
3 -217 12 -226 17 -17 1139 -17 1156 0 9 9 12 73 12 226 l0 214 25 20 c23 18
25 26 25 104 0 129 7 124 -175 124 -84 0 -156 4 -159 8 -3 5 2 39 11 76 30
132 -14 150 -160 66 -82 -47 -92 -50 -157 -50 -65 0 -75 3 -157 50 -100 58
-147 65 -164 26z m78 -28 c64 -28 143 -83 143 -100 0 -15 -7 -17 -47 -12 -27
3 -53 7 -59 9 -18 5 -37 -12 -31 -28 4 -10 28 -17 72 -22 87 -9 84 -26 -15
-82 -97 -56 -103 -56 -93 5 10 57 9 119 -2 190 -4 28 -5 52 -3 52 3 0 19 -6
35 -12z m518 -40 c-11 -71 -12 -133 -2 -190 10 -61 4 -61 -93 -5 -98 55 -102
74 -20 83 57 6 84 23 66 41 -7 8 -81 5 -108 -3 -37 -11 -18 31 27 59 51 33
116 66 129 67 5 0 5 -22 1 -52z m-225 -103 l0 -55 -50 0 -50 0 0 55 0 55 50 0
50 0 0 -55z m-367 -109 c-5 -59 -4 -64 16 -71 27 -8 52 0 129 43 62 34 68 35
171 35 105 1 109 0 172 -35 78 -43 103 -51 130 -43 20 7 21 12 16 71 l-5 64
145 0 144 0 -3 -77 -3 -78 -595 0 -595 0 -3 78 -3 77 144 0 145 0 -5 -64z
m857 -191 l0 -55 -388 0 c-214 0 -457 -3 -540 -7 l-152 -6 0 61 0 62 540 0
540 0 0 -55z m0 -155 l0 -50 -540 0 -540 0 0 50 0 50 540 0 540 0 0 -50z m0
-150 l0 -60 -540 0 -540 0 0 60 0 60 540 0 540 0 0 -60z"/>
</g>
</svg>
