<?xml version="1.0" standalone="no"?>
<!DOCTYPE svg PUBLIC "-//W3C//DTD SVG 20010904//EN"
 "http://www.w3.org/TR/2001/REC-SVG-20010904/DTD/svg10.dtd">
<svg version="1.0" xmlns="http://www.w3.org/2000/svg"
 width="128.000000pt" height="128.000000pt" viewBox="0 0 128.000000 128.000000"
 preserveAspectRatio="xMidYMid meet">
<g transform="translate(0.000000,128.000000) scale(0.100000,-0.100000)"
fill="#000000" stroke="none">
<path d="M620 1097 l0 -134 -180 -87 c-165 -79 -206 -106 -165 -106 9 0 33 9
55 20 22 11 44 20 50 20 6 0 10 -33 10 -85 l0 -85 -159 0 c-125 0 -161 -3
-170 -14 -7 -8 -11 -38 -9 -72 3 -57 8 -65 51 -78 16 -5 17 -21 15 -198 l-3
-193 -33 -3 c-20 -2 -32 -8 -29 -15 6 -18 1169 -17 1175 1 2 8 -7 12 -27 12
l-31 0 0 199 0 200 28 3 c26 3 27 5 30 69 2 46 -1 69 -11 77 -8 7 -72 13 -168
14 l-154 3 -3 83 c-2 45 0 82 3 82 3 0 27 -11 54 -25 45 -22 61 -23 61 -3 0 4
-81 48 -180 98 l-180 90 0 34 c0 33 1 34 100 76 55 23 100 48 100 55 0 13
-183 95 -212 95 -16 0 -18 -13 -18 -133z m124 62 c27 -11 44 -25 40 -29 -10
-10 -110 -50 -124 -50 -6 0 -10 25 -10 56 0 54 1 56 23 50 13 -3 45 -15 71
-27z m6 -274 l110 -55 0 -375 0 -375 -60 0 -60 0 0 105 c0 123 -2 125 -102
125 -92 0 -97 -6 -100 -125 l-3 -100 -57 -3 -58 -3 0 379 0 378 103 51 c56 28
105 52 110 52 4 1 57 -24 117 -54z m-360 -325 l0 -50 -155 0 -155 0 0 50 0 50
155 0 155 0 0 -50z m810 0 l0 -50 -155 0 -155 0 0 43 c0 24 3 47 7 50 3 4 73
7 155 7 l148 0 0 -50z m-810 -280 l0 -200 -120 0 -120 0 0 200 0 200 120 0
120 0 0 -200z m745 0 l0 -195 -120 0 -120 0 -3 185 c-1 101 0 190 3 197 3 11
32 13 122 11 l118 -3 0 -195z m-427 -102 l3 -98 -71 0 -70 0 0 100 0 101 68
-3 67 -3 3 -97z"/>
<path d="M580 737 c-34 -17 -70 -74 -70 -111 0 -65 63 -126 130 -126 69 0 120
53 120 125 0 95 -96 155 -180 112z m103 -28 c57 -26 67 -108 17 -151 -53 -48
-123 -33 -150 31 -34 83 50 158 133 120z"/>
<path d="M260 330 c0 -53 15 -67 26 -25 7 30 -2 75 -16 75 -6 0 -10 -22 -10
-50z"/>
<path d="M260 186 c0 -49 16 -62 26 -22 8 32 2 58 -13 64 -9 2 -13 -10 -13
-42z"/>
<path d="M1002 334 c2 -27 8 -48 13 -46 15 3 12 85 -3 90 -10 3 -12 -8 -10
-44z"/>
<path d="M1000 185 c0 -33 4 -45 15 -45 11 0 15 12 15 45 0 33 -4 45 -15 45
-11 0 -15 -12 -15 -45z"/>
</g>
</svg>
