<?xml version="1.0" standalone="no"?>
<!DOCTYPE svg PUBLIC "-//W3C//DTD SVG 20010904//EN"
 "http://www.w3.org/TR/2001/REC-SVG-20010904/DTD/svg10.dtd">
<svg version="1.0" xmlns="http://www.w3.org/2000/svg"
 width="128.000000pt" height="128.000000pt" viewBox="0 0 128.000000 128.000000"
 preserveAspectRatio="xMidYMid meet">
<g transform="translate(0.000000,128.000000) scale(0.100000,-0.100000)"
fill="#000000" stroke="none">
<path d="M555 1126 c-16 -7 -53 -36 -81 -64 -67 -67 -132 -87 -253 -79 l-85 5
25 -19 c13 -11 43 -32 66 -47 l43 -27 0 -313 0 -313 -32 3 -33 3 -3 213 -2
212 -29 0 c-17 0 -31 -6 -35 -16 -3 -9 -6 -105 -6 -215 l0 -199 -48 0 c-26 0
-53 -5 -60 -12 -16 -16 -16 -100 0 -116 16 -16 1199 -17 1229 -2 15 8 19 21
19 59 0 27 -6 53 -13 59 -7 6 -35 12 -62 14 l-50 3 -3 213 -2 213 -33 -3 -32
-3 -3 -212 -2 -213 -35 0 -35 0 0 310 0 309 53 34 c89 58 88 63 -13 59 -118
-5 -177 14 -233 75 -23 24 -59 53 -79 64 -43 22 -128 25 -173 5z m126 -286
c63 -34 86 -195 40 -277 -68 -120 -185 -50 -185 112 -1 129 67 206 145 165z"/>
</g>
</svg>
