<?xml version="1.0" standalone="no"?>
<!DOCTYPE svg PUBLIC "-//W3C//DTD SVG 20010904//EN"
 "http://www.w3.org/TR/2001/REC-SVG-20010904/DTD/svg10.dtd">
<svg version="1.0" xmlns="http://www.w3.org/2000/svg"
 width="128.000000pt" height="128.000000pt" viewBox="0 0 128.000000 128.000000"
 preserveAspectRatio="xMidYMid meet">
<g transform="translate(0.000000,128.000000) scale(0.100000,-0.100000)"
fill="#000000" stroke="none">
<path d="M520 1265 c-222 -42 -423 -221 -492 -437 -91 -289 50 -620 322 -756
321 -161 698 -37 855 282 125 250 82 525 -112 727 -146 152 -366 223 -573 184z
m210 -400 l0 -135 135 0 135 0 0 -90 0 -90 -135 0 -135 0 0 -140 0 -140 -90 0
-90 0 0 140 0 140 -140 0 -140 0 0 90 0 90 140 0 140 0 0 135 0 135 90 0 90 0
0 -135z"/>
</g>
</svg>
