<?xml version="1.0" standalone="no"?>
<!DOCTYPE svg PUBLIC "-//W3C//DTD SVG 20010904//EN"
 "http://www.w3.org/TR/2001/REC-SVG-20010904/DTD/svg10.dtd">
<svg version="1.0" xmlns="http://www.w3.org/2000/svg"
 width="128.000000pt" height="128.000000pt" viewBox="0 0 128.000000 128.000000"
 preserveAspectRatio="xMidYMid meet">
<g transform="translate(0.000000,128.000000) scale(0.100000,-0.100000)"
fill="#000000" stroke="none">
<path d="M387 1266 c-103 -28 -176 -109 -198 -216 -8 -41 -8 -67 0 -98 l12
-42 255 0 c233 0 255 1 262 18 12 30 5 146 -12 184 -52 121 -194 189 -319 154z"/>
<path d="M758 1267 l-37 -12 39 -57 c46 -68 65 -147 56 -230 l-6 -58 134 0
c153 0 146 -5 146 100 0 98 -72 207 -161 244 -51 21 -128 27 -171 13z"/>
<path d="M300 817 c0 -5 83 -206 169 -412 40 -93 92 -221 118 -283 25 -61 48
-112 52 -112 3 0 29 58 58 128 28 70 82 199 118 287 37 88 89 213 115 278 l49
117 -340 0 c-186 0 -339 -1 -339 -3z"/>
</g>
</svg>
