<?xml version="1.0" standalone="no"?>
<!DOCTYPE svg PUBLIC "-//W3C//DTD SVG 20010904//EN"
 "http://www.w3.org/TR/2001/REC-SVG-20010904/DTD/svg10.dtd">
<svg version="1.0" xmlns="http://www.w3.org/2000/svg"
 width="128.000000pt" height="128.000000pt" viewBox="0 0 128.000000 128.000000"
 preserveAspectRatio="xMidYMid meet">
<g transform="translate(0.000000,128.000000) scale(0.100000,-0.100000)"
fill="#000000" stroke="none">
<path d="M550 1270 c-170 -24 -331 -123 -426 -264 -45 -66 -91 -177 -108 -258
-60 -290 53 -551 288 -667 122 -60 194 -75 376 -75 116 0 171 4 219 17 83 22
208 88 267 140 46 41 104 112 104 129 0 4 -24 8 -54 8 -52 0 -57 -3 -104 -48
-112 -110 -270 -159 -472 -149 -193 10 -305 52 -405 152 -100 99 -141 222
-132 390 7 116 37 207 101 303 210 314 741 304 898 -16 31 -63 33 -73 33 -172
0 -101 -2 -109 -35 -174 -41 -81 -98 -142 -164 -175 -39 -19 -52 -21 -72 -12
-33 15 -32 33 25 292 27 123 53 241 57 262 l6 38 -58 -3 -58 -3 -14 -47 -13
-48 -30 35 c-147 167 -411 54 -500 -214 -31 -93 -24 -215 16 -290 55 -100 158
-154 247 -131 51 14 115 49 142 79 l20 22 10 -32 c27 -81 140 -99 259 -41 88
43 177 138 225 239 37 77 37 80 37 203 l0 125 -41 86 c-68 142 -193 243 -348
283 -75 20 -214 27 -296 16z m130 -382 c143 -73 110 -354 -55 -470 -143 -101
-281 36 -235 233 27 114 108 228 176 249 47 14 67 11 114 -12z"/>
</g>
</svg>
