<?xml version="1.0" standalone="no"?>
<!DOCTYPE svg PUBLIC "-//W3C//DTD SVG 20010904//EN"
 "http://www.w3.org/TR/2001/REC-SVG-20010904/DTD/svg10.dtd">
<svg version="1.0" xmlns="http://www.w3.org/2000/svg"
 width="128.000000pt" height="128.000000pt" viewBox="0 0 128.000000 128.000000"
 preserveAspectRatio="xMidYMid meet">
<g transform="translate(0.000000,128.000000) scale(0.100000,-0.100000)"
fill="#000000" stroke="none">
<path d="M779 1146 c-41 -13 -73 -70 -63 -110 28 -112 194 -94 194 22 0 69
-61 111 -131 88z"/>
<path d="M876 928 c-31 -16 -50 -19 -90 -14 -49 5 -53 4 -193 -80 -138 -83
-143 -87 -127 -105 28 -32 70 -23 177 37 54 30 101 53 103 51 2 -2 9 -53 14
-113 10 -105 9 -116 -29 -334 -21 -124 -38 -227 -36 -228 2 -2 23 8 47 22 l44
25 39 196 c22 107 42 195 45 195 3 0 23 -40 44 -89 20 -50 43 -94 49 -99 16
-13 238 -102 254 -102 19 0 16 54 -4 78 -10 11 -52 35 -93 52 -41 18 -80 37
-86 44 -32 33 -77 176 -89 281 -8 61 -12 111 -11 112 1 1 23 -5 48 -15 38 -13
50 -24 65 -56 10 -22 26 -48 37 -58 21 -19 71 -24 81 -8 3 5 -13 47 -37 92
l-43 82 -67 22 c-36 12 -75 25 -85 28 -10 3 -36 -4 -57 -16z"/>
<path d="M225 854 c-75 -81 37 -193 120 -121 21 17 27 32 27 62 0 78 -95 115
-147 59z"/>
<path d="M325 679 c-16 -5 -44 -7 -60 -4 -28 5 -39 -4 -125 -90 l-94 -94 28
-11 c37 -14 30 -16 101 40 l63 50 6 -188 c4 -103 9 -199 12 -215 7 -32 24 -35
49 -7 16 17 17 32 11 114 -5 81 -4 95 10 100 29 11 54 6 66 -14 12 -18 24 -20
119 -20 102 0 107 1 102 20 -7 28 -17 32 -98 44 l-70 11 -22 80 c-29 107 -28
115 2 115 19 0 29 -9 44 -39 11 -21 27 -41 36 -45 20 -7 55 -8 55 -1 0 6 -60
127 -66 134 -3 3 -125 31 -134 30 -3 0 -18 -5 -35 -10z"/>
</g>
</svg>
