<?xml version="1.0" standalone="no"?>
<!DOCTYPE svg PUBLIC "-//W3C//DTD SVG 20010904//EN"
 "http://www.w3.org/TR/2001/REC-SVG-20010904/DTD/svg10.dtd">
<svg version="1.0" xmlns="http://www.w3.org/2000/svg"
 width="128.000000pt" height="128.000000pt" viewBox="0 0 128.000000 128.000000"
 preserveAspectRatio="xMidYMid meet">
<g transform="translate(0.000000,128.000000) scale(0.100000,-0.100000)"
fill="#000000" stroke="none">
<path d="M0 1150 c0 -19 7 -20 95 -20 l95 0 0 -34 c0 -28 -12 -47 -70 -111
-38 -42 -70 -83 -70 -91 0 -12 37 -14 210 -14 177 0 210 2 210 14 0 8 -29 48
-65 89 -54 62 -65 80 -65 111 l0 36 195 0 195 0 0 -140 0 -140 259 0 c223 0
262 2 275 16 13 12 16 41 16 148 0 89 -4 136 -12 144 -9 9 -165 12 -640 12
-621 0 -628 0 -628 -20z m1238 -137 l-3 -118 -232 -3 -233 -2 0 120 0 120 235
0 236 0 -3 -117z"/>
<path d="M817 1104 c-14 -15 -6 -34 14 -34 14 0 19 5 17 17 -3 18 -20 27 -31
17z"/>
<path d="M178 653 c-3 -28 -4 -28 -83 -31 -48 -2 -82 -8 -87 -15 -13 -21 -10
-471 4 -485 19 -19 1241 -17 1257 2 8 9 11 85 9 252 l-3 239 -465 5 -465 5 -3
28 c-3 21 -9 27 -28 27 -24 0 -32 -14 -14 -25 6 -3 10 -13 10 -21 0 -10 -13
-14 -50 -14 -37 0 -50 4 -50 14 0 8 5 18 10 21 18 11 10 25 -14 25 -19 0 -25
-6 -28 -27z m272 -288 l0 -215 -205 0 -205 0 0 215 0 215 205 0 205 0 0 -215z
m440 170 l0 -45 -200 0 -200 0 0 45 0 45 200 0 200 0 0 -45z m350 -170 l0
-215 -155 0 -155 0 0 215 0 215 155 0 155 0 0 -215z m-350 -65 l0 -150 -200 0
-200 0 0 150 0 150 200 0 200 0 0 -150z"/>
<path d="M175 550 c-8 -14 3 -30 21 -30 8 0 14 9 14 20 0 21 -24 28 -35 10z"/>
<path d="M310 540 c0 -15 5 -20 18 -18 9 2 17 10 17 18 0 8 -8 16 -17 18 -13
2 -18 -3 -18 -18z"/>
<path d="M960 540 c0 -15 5 -20 18 -18 9 2 17 10 17 18 0 8 -8 16 -17 18 -13
2 -18 -3 -18 -18z"/>
</g>
</svg>
