<?xml version="1.0" standalone="no"?>
<!DOCTYPE svg PUBLIC "-//W3C//DTD SVG 20010904//EN"
 "http://www.w3.org/TR/2001/REC-SVG-20010904/DTD/svg10.dtd">
<svg version="1.0" xmlns="http://www.w3.org/2000/svg"
 width="128.000000pt" height="128.000000pt" viewBox="0 0 128.000000 128.000000"
 preserveAspectRatio="xMidYMid meet">
<g transform="translate(0.000000,128.000000) scale(0.100000,-0.100000)"
fill="#000000" stroke="none">
<path d="M500 1264 c-234 -50 -436 -254 -485 -489 -95 -454 306 -855 760 -760
238 50 440 252 490 490 95 456 -309 857 -765 759z m265 -235 c10 -31 -4 -59
-30 -59 -36 0 -50 61 -18 78 22 13 41 5 48 -19z m93 -11 c-2 -25 -8 -33 -23
-33 -20 0 -31 25 -21 51 3 8 15 14 26 14 18 0 21 -5 18 -32z m77 -8 c9 -14
-13 -50 -30 -50 -15 0 -21 40 -8 53 10 10 31 8 38 -3z m-257 -42 c16 -35 1
-68 -31 -68 -44 0 -75 46 -57 81 17 31 71 23 88 -13z m317 -8 c8 -13 -13 -40
-31 -40 -14 0 -19 31 -7 43 10 10 31 8 38 -3z m-75 -45 c53 -51 64 -146 30
-257 -42 -138 -157 -230 -214 -172 -22 22 -20 47 10 122 31 77 27 95 -26 157
-59 68 -51 119 24 166 48 31 136 22 176 -16z m-440 -176 c0 -33 -23 -48 -49
-32 -39 24 -11 94 30 73 12 -7 19 -21 19 -41z m122 -4 c10 -22 8 -30 -9 -53
-25 -33 -45 -38 -67 -17 -21 21 -20 53 1 77 24 27 61 23 75 -7z m-231 -6 c13
-25 0 -43 -27 -37 -12 2 -20 13 -22 31 -3 22 1 27 17 27 11 0 25 -9 32 -21z
m-73 -41 c18 -18 15 -38 -6 -38 -21 0 -42 18 -42 37 0 16 32 17 48 1z m188
-37 c27 -12 45 -29 53 -49 12 -28 10 -37 -13 -88 -14 -31 -26 -68 -26 -83 0
-26 6 -37 64 -119 35 -51 30 -84 -14 -102 -100 -41 -264 130 -277 289 -6 75
17 118 77 149 53 27 82 27 136 3z m-238 -23 c18 -18 14 -38 -7 -38 -23 0 -35
15 -27 35 7 18 18 19 34 3z"/>
</g>
</svg>
