<?xml version="1.0" standalone="no"?>
<!DOCTYPE svg PUBLIC "-//W3C//DTD SVG 20010904//EN"
 "http://www.w3.org/TR/2001/REC-SVG-20010904/DTD/svg10.dtd">
<svg version="1.0" xmlns="http://www.w3.org/2000/svg"
 width="128.000000pt" height="128.000000pt" viewBox="0 0 128.000000 128.000000"
 preserveAspectRatio="xMidYMid meet">
<g transform="translate(0.000000,128.000000) scale(0.100000,-0.100000)"
fill="#000000" stroke="none">
<path d="M210 1220 l0 -50 430 0 430 0 0 50 0 50 -430 0 -430 0 0 -50z"/>
<path d="M243 1058 c-7 -36 -24 -79 -40 -102 -33 -48 -102 -86 -156 -86 l-38
0 3 -47 3 -48 64 -3 c62 -3 63 -3 46 -22 -10 -11 -20 -42 -23 -68 -5 -56 14
-103 53 -128 l25 -16 0 -219 0 -219 -55 0 -55 0 0 -45 0 -45 570 0 570 0 0 45
0 45 -55 0 -55 0 0 224 c0 218 1 225 21 231 51 16 76 123 44 185 l-15 29 58 3
57 3 3 48 3 47 -36 0 c-104 0 -188 84 -202 201 l-6 49 -386 0 -386 0 -12 -62z
m722 -318 c-32 -62 -6 -169 45 -185 19 -6 20 -17 20 -231 l0 -224 -390 0 -390
0 0 219 0 219 25 16 c39 25 58 72 53 128 -3 27 -13 57 -23 68 -18 20 -17 20
329 20 l347 0 -16 -30z"/>
<path d="M610 625 c0 -25 -1 -25 -81 -25 l-80 0 3 -37 3 -38 123 -3 c108 -2
122 -5 122 -20 0 -21 -41 -94 -56 -99 -5 -2 -20 15 -33 37 -19 35 -27 40 -57
40 -32 0 -35 -2 -29 -22 4 -13 20 -44 35 -70 l29 -48 -32 -24 c-25 -18 -72
-49 -95 -61 -7 -5 22 -65 32 -65 12 0 75 40 119 77 l28 23 52 -39 c94 -70 109
-73 122 -21 5 22 -2 30 -55 64 -33 21 -60 42 -60 47 0 4 14 30 30 56 17 26 33
64 36 85 5 31 11 37 33 40 22 3 26 8 29 41 l3 37 -80 0 c-80 0 -81 0 -81 25 0
21 -5 25 -30 25 -25 0 -30 -4 -30 -25z"/>
</g>
</svg>
