<?xml version="1.0" standalone="no"?>
<!DOCTYPE svg PUBLIC "-//W3C//DTD SVG 20010904//EN"
 "http://www.w3.org/TR/2001/REC-SVG-20010904/DTD/svg10.dtd">
<svg version="1.0" xmlns="http://www.w3.org/2000/svg"
 width="128.000000pt" height="128.000000pt" viewBox="0 0 128.000000 128.000000"
 preserveAspectRatio="xMidYMid meet">
<g transform="translate(0.000000,128.000000) scale(0.100000,-0.100000)"
fill="#000000" stroke="none">
<path d="M543 1189 c-194 -32 -363 -178 -434 -375 -32 -88 -33 -254 -1 -346
47 -136 158 -264 283 -325 331 -162 718 29 794 393 62 295 -139 592 -440 649
-84 16 -123 17 -202 4z m187 -126 l0 -58 -90 0 -90 0 0 58 0 57 90 0 90 0 0
-57z m-400 -128 c22 -14 40 -28 40 -32 0 -4 -9 -16 -19 -27 -11 -12 -31 -45
-46 -74 l-26 -53 -37 22 c-57 34 -57 35 -38 76 23 50 67 113 78 113 4 0 26
-11 48 -25z m707 -23 c36 -54 53 -87 53 -100 0 -10 -89 -67 -94 -60 -1 1 -9
18 -16 37 -8 19 -29 54 -47 77 l-32 43 42 24 c23 14 47 25 52 26 6 1 24 -20
42 -47z m-273 -3 c186 -87 229 -328 84 -476 -116 -118 -303 -118 -421 0 -158
158 -84 433 131 494 60 17 149 9 206 -18z m-424 -489 c11 -15 20 -30 20 -33 0
-3 -20 -17 -45 -32 l-46 -26 -19 23 c-29 35 -76 141 -65 145 6 2 28 14 49 27
l40 24 23 -50 c13 -27 32 -62 43 -78z m754 71 c7 -10 -31 -90 -60 -128 l-25
-33 -48 26 -48 27 33 48 c18 27 37 64 44 83 l11 34 44 -25 c25 -13 47 -28 49
-32z m-366 -271 l-3 -55 -85 0 -85 0 -3 55 -3 55 91 0 91 0 -3 -55z"/>
<path d="M617 863 c-4 -3 -7 -15 -7 -25 0 -10 -8 -21 -17 -25 -40 -14 -73 -56
-73 -93 0 -43 24 -70 91 -99 62 -28 78 -47 56 -69 -16 -15 -48 -18 -111 -9
-10 1 -23 -5 -29 -15 -15 -23 6 -46 48 -54 25 -4 35 -12 37 -28 2 -13 11 -22
26 -24 18 -3 22 1 22 22 0 20 8 29 34 40 43 18 66 51 66 96 0 46 -26 74 -95
104 -60 27 -72 41 -54 62 9 11 28 15 68 12 47 -3 56 0 59 15 5 25 -16 47 -43
47 -16 0 -25 8 -29 25 -6 24 -34 34 -49 18z"/>
</g>
</svg>
