<?xml version="1.0" standalone="no"?>
<!DOCTYPE svg PUBLIC "-//W3C//DTD SVG 20010904//EN"
 "http://www.w3.org/TR/2001/REC-SVG-20010904/DTD/svg10.dtd">
<svg version="1.0" xmlns="http://www.w3.org/2000/svg"
 width="128.000000pt" height="128.000000pt" viewBox="0 0 128.000000 128.000000"
 preserveAspectRatio="xMidYMid meet">
<g transform="translate(0.000000,128.000000) scale(0.100000,-0.100000)"
fill="#000000" stroke="none">
<path d="M273 1054 c-58 -29 -64 -57 -61 -301 l3 -218 425 0 425 0 3 218 c3
246 -3 273 -63 301 -49 24 -684 23 -732 0z m687 -254 l0 -160 -320 0 -320 0 0
160 0 160 320 0 320 0 0 -160z"/>
<path d="M50 659 c0 -153 3 -198 16 -224 17 -37 66 -65 113 -65 26 0 31 -4 31
-25 0 -24 3 -25 55 -25 52 0 55 1 55 25 l0 25 320 0 320 0 0 -25 c0 -24 3 -25
55 -25 52 0 55 1 55 25 0 21 5 25 31 25 47 0 96 28 113 65 13 26 16 71 16 224
l0 191 -55 0 -55 0 0 -185 0 -185 -480 0 -480 0 0 185 0 185 -55 0 -55 0 0
-191z"/>
</g>
</svg>
