<?xml version="1.0" standalone="no"?>
<!DOCTYPE svg PUBLIC "-//W3C//DTD SVG 20010904//EN"
 "http://www.w3.org/TR/2001/REC-SVG-20010904/DTD/svg10.dtd">
<svg version="1.0" xmlns="http://www.w3.org/2000/svg"
 width="128.000000pt" height="128.000000pt" viewBox="0 0 128.000000 128.000000"
 preserveAspectRatio="xMidYMid meet">
<g transform="translate(0.000000,128.000000) scale(0.100000,-0.100000)"
fill="#000000" stroke="none">
<path d="M75 1083 c13 -31 255 -628 272 -670 3 -8 24 -13 54 -13 27 0 49 -1
49 -3 0 -3 -76 -267 -85 -296 -6 -19 -3 -21 38 -21 41 0 45 3 51 28 4 15 14
51 22 79 l15 53 229 0 229 0 15 -53 c8 -28 18 -64 22 -79 6 -25 10 -28 51 -28
41 0 44 2 38 21 -9 29 -85 293 -85 296 0 2 45 3 100 3 55 0 100 3 100 8 0 4
-14 55 -32 115 l-32 107 -311 0 -312 0 -104 245 -104 245 -118 0 -117 0 15
-37z m271 -288 l103 -240 309 -3 310 -2 6 -23 c13 -49 28 -47 -331 -45 l-338
3 -96 235 c-52 129 -103 254 -112 278 l-17 43 31 -3 c32 -3 33 -6 135 -243z
m572 -435 l10 -40 -208 0 -208 0 10 40 10 40 188 0 188 0 10 -40z"/>
</g>
</svg>
