<?xml version="1.0" standalone="no"?>
<!DOCTYPE svg PUBLIC "-//W3C//DTD SVG 20010904//EN"
 "http://www.w3.org/TR/2001/REC-SVG-20010904/DTD/svg10.dtd">
<svg version="1.0" xmlns="http://www.w3.org/2000/svg"
 width="128.000000pt" height="128.000000pt" viewBox="0 0 128.000000 128.000000"
 preserveAspectRatio="xMidYMid meet">
<g transform="translate(0.000000,128.000000) scale(0.100000,-0.100000)"
fill="#000000" stroke="none">
<path d="M578 1104 c-34 -18 -58 -62 -58 -106 0 -29 -16 -50 -142 -175 -79
-78 -163 -153 -187 -165 -72 -38 -81 -66 -81 -243 0 -168 9 -196 72 -235 32
-19 52 -20 458 -20 406 0 426 1 458 20 63 39 72 67 72 235 0 177 -9 205 -81
243 -24 12 -108 87 -186 165 -127 125 -143 146 -143 175 0 94 -98 152 -182
106z m92 -79 c26 -32 -13 -81 -47 -59 -35 22 -23 74 17 74 10 0 23 -7 30 -15z
m-39 -143 c20 -2 45 1 56 6 17 9 34 -4 129 -99 l109 -109 -290 0 -290 0 110
110 c77 77 114 108 125 104 8 -4 31 -9 51 -12z m-373 -410 c3 -30 6 -32 43
-32 37 0 39 2 39 30 0 34 26 52 41 29 15 -24 11 -155 -6 -169 -20 -17 -35 -4
-35 31 0 27 -2 29 -40 29 -38 0 -40 -2 -40 -29 0 -35 -15 -48 -35 -31 -16 13
-22 131 -9 165 11 28 39 13 42 -23z m298 20 c53 -43 54 -104 1 -148 -89 -75
-200 54 -118 137 34 34 84 39 117 11z m197 4 c7 -17 -11 -36 -35 -36 -15 0
-18 -9 -18 -64 0 -67 -10 -86 -35 -66 -10 8 -15 32 -15 71 0 52 -2 59 -19 59
-23 0 -35 15 -27 35 8 21 141 21 149 1z m152 -11 c0 -16 -8 -21 -43 -23 -50
-4 -47 -22 4 -22 27 0 34 -4 34 -19 0 -16 -8 -20 -37 -23 -50 -4 -44 -22 7
-26 36 -3 41 -6 38 -25 -3 -19 -10 -22 -56 -25 -31 -2 -60 2 -68 9 -18 15 -20
149 -2 167 8 8 34 12 68 10 47 -3 55 -6 55 -23z m73 -48 l3 -67 38 0 c41 0 59
-18 38 -39 -15 -15 -100 -14 -115 1 -13 13 -17 134 -6 163 4 9 14 15 23 13 12
-3 17 -18 19 -71z"/>
<path d="M472 448 c-17 -17 -15 -53 3 -68 20 -17 62 -5 70 20 14 44 -41 80
-73 48z"/>
</g>
</svg>
