<?xml version="1.0" standalone="no"?>
<!DOCTYPE svg PUBLIC "-//W3C//DTD SVG 20010904//EN"
 "http://www.w3.org/TR/2001/REC-SVG-20010904/DTD/svg10.dtd">
<svg version="1.0" xmlns="http://www.w3.org/2000/svg"
 width="128.000000pt" height="128.000000pt" viewBox="0 0 128.000000 128.000000"
 preserveAspectRatio="xMidYMid meet">
<g transform="translate(0.000000,128.000000) scale(0.100000,-0.100000)"
fill="#000000" stroke="none">
<path d="M167 1035 l-87 -165 0 -375 c0 -372 0 -374 22 -395 21 -20 32 -20
539 -20 l518 0 21 22 c19 21 20 33 20 395 l0 373 -87 165 -88 165 -385 0 -385
0 -88 -165z m453 0 l0 -115 -225 0 c-124 0 -225 3 -225 6 0 3 26 55 58 115
l57 109 168 0 167 0 0 -115z m433 6 c31 -60 57 -112 57 -115 0 -3 -99 -6 -220
-6 l-220 0 0 115 0 115 163 0 162 0 58 -109z m95 -543 l2 -368 -510 0 -510 0
0 363 c0 200 3 367 7 370 3 4 232 6 507 5 l501 -3 3 -367z"/>
<path d="M792 538 c-16 -16 -15 -23 4 -42 22 -23 176 -23 198 0 38 38 9 54
-99 54 -57 0 -95 -4 -103 -12z"/>
<path d="M669 394 c-9 -11 -10 -20 -2 -32 8 -14 32 -17 149 -20 154 -3 179 0
188 24 14 38 -10 44 -169 44 -127 0 -155 -3 -166 -16z"/>
</g>
</svg>
