<?xml version="1.0" standalone="no"?>
<!DOCTYPE svg PUBLIC "-//W3C//DTD SVG 20010904//EN"
 "http://www.w3.org/TR/2001/REC-SVG-20010904/DTD/svg10.dtd">
<svg version="1.0" xmlns="http://www.w3.org/2000/svg"
 width="128.000000pt" height="128.000000pt" viewBox="0 0 128.000000 128.000000"
 preserveAspectRatio="xMidYMid meet">
<g transform="translate(0.000000,128.000000) scale(0.100000,-0.100000)"
fill="#000000" stroke="none">
<path d="M270 1120 l0 -50 370 0 370 0 0 50 0 50 -370 0 -370 0 0 -50z"/>
<path d="M176 988 c-8 -13 -40 -97 -70 -188 -51 -152 -54 -167 -40 -187 l14
-23 560 0 560 0 14 23 c14 20 11 35 -40 187 -30 91 -62 175 -70 188 l-14 22
-450 0 -450 0 -14 -22z m183 -95 c0 -10 -8 -58 -17 -108 l-17 -90 -59 -3 c-91
-5 -90 -7 -50 112 l36 106 54 0 c45 0 54 -3 53 -17z m226 -93 l0 -105 -72 -3
c-52 -2 -73 1 -73 9 0 16 29 179 35 197 3 9 21 12 57 10 l53 -3 0 -105z m225
108 c0 -2 9 -49 19 -106 15 -81 16 -105 6 -108 -7 -3 -41 -4 -76 -2 l-64 3 -3
94 c-1 52 -1 100 2 108 4 9 24 13 61 13 30 0 55 -1 55 -2z m247 -103 c18 -54
33 -103 33 -107 0 -7 -140 -12 -140 -5 0 1 -9 48 -19 104 -10 56 -16 105 -13
108 4 3 29 5 56 3 l49 -3 34 -100z"/>
<path d="M160 314 c0 -95 4 -174 10 -185 10 -18 26 -19 470 -19 444 0 460 1
470 19 6 11 10 90 10 185 l0 166 -55 0 -55 0 0 -135 0 -135 -105 0 -105 0 0
119 c0 95 -3 123 -16 135 -23 23 -265 23 -288 0 -13 -12 -16 -40 -16 -135 l0
-119 -105 0 -105 0 0 135 0 135 -55 0 -55 0 0 -166z m530 -24 l0 -80 -50 0
-50 0 0 80 0 80 50 0 50 0 0 -80z"/>
</g>
</svg>
