<?xml version="1.0" standalone="no"?>
<!DOCTYPE svg PUBLIC "-//W3C//DTD SVG 20010904//EN"
 "http://www.w3.org/TR/2001/REC-SVG-20010904/DTD/svg10.dtd">
<svg version="1.0" xmlns="http://www.w3.org/2000/svg"
 width="128.000000pt" height="128.000000pt" viewBox="0 0 128.000000 128.000000"
 preserveAspectRatio="xMidYMid meet">
<g transform="translate(0.000000,128.000000) scale(0.100000,-0.100000)"
fill="#000000" stroke="none">
<path d="M177 1273 c-4 -3 -7 -17 -7 -29 0 -17 -7 -23 -27 -26 -20 -2 -28 -9
-28 -23 0 -14 8 -21 28 -23 42 -5 34 -33 -18 -61 -31 -17 -50 -36 -65 -66 -20
-40 -20 -56 -18 -541 l3 -499 595 0 595 0 3 499 c2 485 2 501 -18 541 -15 30
-34 49 -65 66 -52 28 -60 56 -17 61 38 4 38 42 0 46 -21 3 -27 9 -30 30 -2 16
-10 28 -20 30 -14 3 -18 -3 -18 -27 0 -26 -4 -31 -24 -31 -31 0 -50 -22 -34
-38 7 -7 22 -12 35 -12 39 0 28 -33 -19 -55 -80 -38 -83 -46 -86 -302 l-3
-226 -34 33 c-29 29 -32 35 -19 47 19 20 9 33 -26 33 -23 0 -30 5 -35 28 -10
46 -42 90 -85 117 -37 23 -40 29 -40 70 l0 44 43 3 42 3 0 60 0 60 -42 3 c-43
3 -43 3 -43 43 l0 39 -60 0 -60 0 0 -39 c0 -40 0 -40 -42 -43 l-43 -3 0 -60 0
-60 43 -3 42 -3 0 -44 c0 -41 -3 -47 -40 -70 -43 -27 -75 -71 -85 -117 -5 -23
-12 -28 -35 -28 -35 0 -45 -13 -26 -33 13 -12 10 -18 -19 -47 l-34 -33 -3 226
c-3 256 -6 264 -86 302 -47 22 -58 55 -19 55 13 0 28 5 35 12 16 16 -3 38 -34
38 -20 0 -24 5 -24 30 0 28 -17 40 -33 23z m485 -180 c3 -36 5 -38 43 -43 32
-4 40 -9 40 -25 0 -16 -8 -21 -40 -25 l-40 -5 -3 -62 c-3 -54 -6 -63 -22 -63
-16 0 -19 9 -22 63 l-3 62 -40 5 c-32 4 -40 9 -40 25 0 16 8 21 40 25 38 5 40
7 43 43 2 28 8 37 22 37 14 0 20 -9 22 -37z m-422 -18 c28 -15 50 -42 50 -64
0 -7 -36 -11 -100 -11 -111 0 -121 7 -72 52 44 41 75 47 122 23z m922 -21 c48
-47 39 -54 -72 -54 -103 0 -110 3 -90 40 29 54 112 61 162 14z m-862 -313 c0
-150 4 -222 11 -227 6 -4 44 27 88 70 l76 76 165 0 165 0 76 -76 c44 -43 82
-74 88 -70 7 5 11 77 11 227 l0 219 105 0 105 0 0 -460 0 -460 -190 0 -190 0
0 180 c0 160 -2 185 -20 220 -31 61 -73 85 -150 85 -77 0 -119 -24 -150 -85
-18 -35 -20 -60 -20 -220 l0 -180 -190 0 -190 0 0 460 0 460 105 0 105 0 0
-219z m427 63 c31 -24 66 -85 55 -96 -5 -5 -71 -7 -148 -6 -132 3 -139 4 -136
23 6 32 43 76 76 91 41 19 120 12 153 -12z m-19 -334 c54 -33 62 -67 62 -260
l0 -170 -130 0 -130 0 0 170 c0 193 8 227 62 260 18 11 49 20 68 20 19 0 50
-9 68 -20z"/>
<path d="M170 893 c-8 -3 -25 -15 -37 -26 -22 -19 -23 -29 -23 -144 l0 -123
85 0 85 0 0 110 c0 127 -12 162 -61 179 -18 6 -32 11 -33 10 -1 0 -8 -3 -16
-6z m58 -150 l3 -103 -41 0 -40 0 0 93 c0 101 8 120 50 115 25 -3 25 -4 28
-105z"/>
<path d="M1055 886 c-45 -19 -55 -52 -55 -176 l0 -110 85 0 85 0 0 123 c0 115
-1 125 -22 144 -32 29 -58 34 -93 19z m63 -48 c8 -8 12 -46 12 -105 l0 -93
-40 0 -40 0 0 98 c0 54 3 102 7 105 11 11 48 8 61 -5z"/>
<path d="M161 424 l-31 -26 0 -124 0 -124 151 0 151 0 -4 124 c-2 104 -6 127
-22 144 -25 29 -68 36 -103 19 -24 -13 -31 -13 -48 -1 -28 21 -60 17 -94 -12z
m94 -57 c3 -12 5 -56 3 -97 l-3 -75 -42 -3 -43 -3 0 95 c0 86 2 96 22 110 26
18 55 6 63 -27z m125 -77 l0 -100 -40 0 -40 0 0 93 c0 50 4 97 8 103 11 17 35
22 55 12 14 -7 17 -24 17 -108z"/>
<path d="M900 437 c-40 -20 -50 -53 -50 -174 l0 -113 150 0 150 0 0 124 0 124
-31 26 c-34 29 -66 33 -94 12 -17 -12 -23 -12 -47 0 -33 17 -46 17 -78 1z m72
-51 c4 -6 8 -53 8 -103 l0 -93 -40 0 -40 0 0 100 c0 83 3 101 17 108 18 11 44
5 55 -12z m136 -100 l3 -97 -43 3 -43 3 -3 87 c-2 78 0 90 18 108 19 19 24 20
43 7 20 -13 22 -25 25 -111z"/>
</g>
</svg>
