<?xml version="1.0" standalone="no"?>
<!DOCTYPE svg PUBLIC "-//W3C//DTD SVG 20010904//EN"
 "http://www.w3.org/TR/2001/REC-SVG-20010904/DTD/svg10.dtd">
<svg version="1.0" xmlns="http://www.w3.org/2000/svg"
 width="128.000000pt" height="128.000000pt" viewBox="0 0 128.000000 128.000000"
 preserveAspectRatio="xMidYMid meet">
<g transform="translate(0.000000,128.000000) scale(0.100000,-0.100000)"
fill="#000000" stroke="none">
<path d="M279 1112 c-211 -110 -166 -422 67 -472 163 -35 317 102 301 268 -12
138 -114 232 -253 232 -48 0 -73 -6 -115 -28z m232 -57 c58 -41 84 -94 84
-172 0 -52 -5 -68 -31 -105 -116 -165 -369 -88 -368 112 0 123 87 203 211 197
50 -2 71 -9 104 -32z"/>
<path d="M348 1009 c-60 -63 -49 -106 37 -144 39 -17 53 -28 49 -39 -9 -24
-33 -27 -70 -10 -61 29 -92 -11 -32 -42 17 -9 39 -26 48 -37 17 -20 17 -20 58
20 22 22 44 51 47 64 9 35 -23 72 -80 93 -32 13 -45 23 -43 35 4 19 46 27 61
12 14 -14 44 -14 52 -1 9 14 -12 48 -35 55 -11 3 -20 13 -20 21 0 26 -35 14
-72 -27z"/>
<path d="M701 1097 c-42 -16 -61 -41 -44 -58 9 -9 22 -8 53 5 121 48 262 -27
289 -155 14 -66 5 -90 -20 -50 -21 34 -36 39 -46 15 -7 -19 39 -135 58 -147 9
-5 38 3 82 22 52 24 67 36 67 52 0 18 -5 20 -27 17 -16 -3 -35 -8 -43 -12 -12
-5 -15 5 -15 56 -1 106 -59 199 -151 243 -48 23 -156 29 -203 12z"/>
<path d="M855 644 c-133 -33 -215 -130 -215 -254 1 -211 244 -326 415 -196 39
30 83 111 91 168 14 98 -49 214 -139 256 -45 21 -119 34 -152 26z m149 -83
c41 -26 81 -88 91 -142 14 -77 -41 -176 -119 -213 -118 -56 -271 31 -284 162
-16 172 165 284 312 193z"/>
<path d="M822 485 c-22 -25 -46 -45 -51 -45 -15 0 -14 -37 2 -44 10 -5 10 -7
0 -12 -20 -9 -15 -45 7 -51 10 -3 22 -13 25 -22 10 -32 52 -63 94 -68 36 -5
44 -2 76 30 23 23 33 41 29 51 -8 20 -40 21 -48 1 -3 -8 -17 -20 -30 -27 -21
-9 -30 -7 -53 8 l-28 19 45 5 c37 4 46 9 48 28 3 20 -1 22 -50 23 -29 1 -40 4
-23 6 61 7 75 13 75 32 0 21 -19 31 -57 31 -21 0 -24 2 -13 15 17 21 54 19 75
-5 24 -27 55 -26 55 0 0 37 -44 70 -93 70 -39 0 -48 -5 -85 -45z"/>
<path d="M192 570 c-48 -22 -63 -34 -60 -47 4 -19 24 -21 68 -9 25 7 25 6 22
-48 -6 -97 57 -198 153 -249 54 -28 154 -29 213 -3 42 19 54 42 28 52 -7 3
-37 -2 -66 -12 -44 -14 -59 -15 -107 -4 -101 22 -181 126 -171 223 l3 32 18
-32 c18 -34 44 -43 53 -19 3 7 -8 43 -25 80 -35 77 -39 78 -129 36z"/>
</g>
</svg>
