<?xml version="1.0" standalone="no"?>
<!DOCTYPE svg PUBLIC "-//W3C//DTD SVG 20010904//EN"
 "http://www.w3.org/TR/2001/REC-SVG-20010904/DTD/svg10.dtd">
<svg version="1.0" xmlns="http://www.w3.org/2000/svg"
 width="128.000000pt" height="128.000000pt" viewBox="0 0 128.000000 128.000000"
 preserveAspectRatio="xMidYMid meet">
<g transform="translate(0.000000,128.000000) scale(0.100000,-0.100000)"
fill="#000000" stroke="none">
<path d="M170 1218 c0 -52 -1 -53 -77 -130 l-78 -78 624 0 623 0 -77 85 c-73
81 -76 87 -73 127 l3 43 -473 3 -472 2 0 -52z"/>
<path d="M10 935 c0 -50 33 -109 75 -135 l35 -22 0 -339 0 -339 -55 0 -55 0 0
-45 0 -45 630 0 630 0 0 45 0 45 -55 0 -55 0 0 338 0 339 37 24 c44 29 73 81
73 131 l0 38 -630 0 -630 0 0 -35z m397 -138 c42 -24 114 -24 156 0 18 10 41
36 52 60 11 23 22 42 25 43 3 0 12 -18 22 -40 22 -52 68 -80 134 -80 63 0 109
28 138 85 l21 40 20 -40 c11 -22 37 -51 58 -64 l37 -24 0 -339 0 -338 -430 0
-430 0 0 340 0 339 29 15 c38 20 81 72 81 99 0 16 8 8 28 -28 15 -27 42 -58
59 -68z"/>
<path d="M545 701 c-50 -23 -99 -74 -121 -126 -14 -31 -19 -75 -21 -195 -3
-128 -6 -156 -18 -158 -11 -3 -15 -17 -15 -48 l0 -44 270 0 270 0 0 44 c0 35
-4 45 -20 49 -19 5 -20 14 -20 164 0 177 -9 211 -71 270 -67 63 -173 82 -254
44z m162 -42 c34 -13 80 -55 98 -90 10 -19 15 -73 16 -185 l1 -159 -182 0
-182 0 1 159 c1 112 6 166 16 185 17 34 63 77 95 90 34 13 102 13 137 0z"/>
<path d="M618 523 c-2 -22 -9 -29 -30 -31 -20 -2 -28 -9 -28 -23 0 -14 7 -19
30 -19 l30 0 0 -70 c0 -63 2 -70 20 -70 18 0 20 7 20 70 l0 70 30 0 c23 0 30
4 30 20 0 16 -7 20 -30 20 -27 0 -30 3 -30 30 0 23 -5 30 -19 30 -14 0 -21 -8
-23 -27z"/>
</g>
</svg>
