<?xml version="1.0" standalone="no"?>
<!DOCTYPE svg PUBLIC "-//W3C//DTD SVG 20010904//EN"
 "http://www.w3.org/TR/2001/REC-SVG-20010904/DTD/svg10.dtd">
<svg version="1.0" xmlns="http://www.w3.org/2000/svg"
 width="128.000000pt" height="128.000000pt" viewBox="0 0 128.000000 128.000000"
 preserveAspectRatio="xMidYMid meet">
<g transform="translate(0.000000,128.000000) scale(0.100000,-0.100000)"
fill="#000000" stroke="none">
<path d="M92 823 l3 -458 88 -3 87 -3 0 159 0 159 158 6 c197 6 246 20 312 87
138 137 94 403 -80 484 -41 19 -66 21 -308 24 l-262 3 2 -458z m489 251 c37
-19 63 -74 54 -115 -4 -15 -22 -42 -41 -59 l-35 -30 -134 0 c-74 0 -138 -1
-142 -2 -5 -2 -9 48 -11 110 l-3 112 141 0 c108 0 148 -4 171 -16z"/>
<path d="M918 724 c-3 -5 5 -56 18 -114 31 -138 31 -150 -9 -188 -18 -18 -36
-32 -39 -32 -4 0 -19 22 -34 50 l-27 50 -187 0 -186 0 -43 -44 c-61 -62 -53
-82 38 -88 41 -3 81 -13 100 -24 41 -24 71 -87 71 -149 l0 -48 113 5 c131 6
183 24 193 67 19 81 83 140 159 149 41 4 46 7 54 39 10 34 -2 83 -20 83 -4 0
-35 40 -68 88 -74 108 -126 169 -133 156z"/>
<path d="M394 340 c-17 -6 -46 -24 -63 -42 -98 -100 -28 -248 117 -248 119 0
194 122 136 221 -35 59 -120 90 -190 69z m127 -79 c47 -48 38 -116 -21 -146
-83 -43 -174 19 -155 104 16 73 120 97 176 42z"/>
<path d="M1054 339 c-18 -5 -48 -27 -68 -49 -32 -36 -36 -46 -36 -94 0 -44 5
-60 26 -86 36 -42 74 -60 130 -60 139 0 212 147 121 244 -18 19 -50 39 -72 45
-46 13 -58 13 -101 0z m127 -78 c60 -60 26 -148 -62 -158 -38 -4 -50 -1 -76
21 -76 64 -35 165 65 166 35 0 49 -6 73 -29z"/>
</g>
</svg>
