<?xml version="1.0" standalone="no"?>
<!DOCTYPE svg PUBLIC "-//W3C//DTD SVG 20010904//EN"
 "http://www.w3.org/TR/2001/REC-SVG-20010904/DTD/svg10.dtd">
<svg version="1.0" xmlns="http://www.w3.org/2000/svg"
 width="128.000000pt" height="128.000000pt" viewBox="0 0 128.000000 128.000000"
 preserveAspectRatio="xMidYMid meet">
<g transform="translate(0.000000,128.000000) scale(0.100000,-0.100000)"
fill="#000000" stroke="none">
<path d="M775 1224 c-253 -37 -374 -59 -384 -69 -12 -12 -20 -94 -37 -382 -13
-203 -23 -371 -23 -376 -1 -4 -15 0 -32 8 -37 20 -111 22 -161 6 -46 -15 -113
-87 -127 -137 -16 -58 -13 -94 13 -149 27 -59 46 -77 106 -104 84 -38 162 -22
231 48 59 58 64 81 80 389 7 128 15 235 19 237 4 3 135 23 291 45 156 22 297
43 313 46 l29 6 -7 -143 c-3 -78 -8 -144 -10 -146 -1 -2 -19 4 -39 12 -169 71
-345 -113 -268 -280 78 -168 314 -164 385 6 11 26 22 154 40 465 34 561 33
544 11 560 -24 18 -1 20 -430 -42z m338 -136 c-2 -40 -6 -100 -9 -133 l-5 -61
-302 -42 c-166 -23 -310 -42 -319 -42 -16 0 -17 11 -12 113 3 61 7 121 9 132
4 19 28 24 287 62 156 22 299 41 319 42 l36 1 -4 -72z m-86 -683 c35 -23 49
-82 29 -128 -34 -83 -150 -85 -190 -3 -17 36 -18 43 -5 80 24 69 101 93 166
51z m-741 -119 c70 -70 26 -175 -74 -176 -60 0 -102 41 -102 100 0 51 12 75
48 94 47 26 90 20 128 -18z"/>
</g>
</svg>
