<?xml version="1.0" standalone="no"?>
<!DOCTYPE svg PUBLIC "-//W3C//DTD SVG 20010904//EN"
 "http://www.w3.org/TR/2001/REC-SVG-20010904/DTD/svg10.dtd">
<svg version="1.0" xmlns="http://www.w3.org/2000/svg"
 width="128.000000pt" height="128.000000pt" viewBox="0 0 128.000000 128.000000"
 preserveAspectRatio="xMidYMid meet">
<g transform="translate(0.000000,128.000000) scale(0.100000,-0.100000)"
fill="#000000" stroke="none">
<path d="M335 1261 c-48 -21 -95 -101 -95 -163 0 -56 21 -111 55 -145 109
-109 258 67 186 222 -33 71 -95 108 -146 86z"/>
<path d="M1193 1047 c-13 -18 -23 -37 -23 -41 0 -5 -23 -40 -51 -78 -39 -52
-56 -67 -68 -62 -9 4 -32 8 -51 8 -31 1 -36 -3 -46 -32 -14 -43 -38 -65 -97
-86 -60 -22 -81 -59 -81 -137 1 -123 99 -232 182 -203 38 14 62 54 78 130 11
56 20 75 48 99 43 39 48 55 34 114 l-11 48 54 71 c29 40 57 72 61 72 3 0 16
14 28 30 l22 31 -24 34 c-12 19 -25 35 -28 35 -3 0 -15 -15 -27 -33z m-155
-300 c7 -34 -7 -67 -28 -67 -28 0 -46 41 -30 69 14 27 53 25 58 -2z m-125
-146 c15 -22 27 -45 27 -53 -1 -16 -70 62 -70 80 0 22 14 13 43 -27z"/>
<path d="M165 865 c-54 -19 -117 -90 -138 -155 -14 -44 -17 -98 -17 -352 l0
-299 25 -24 c30 -31 40 -31 70 0 l25 24 0 276 c0 268 0 275 20 275 20 0 20 -7
20 -300 l0 -300 195 0 195 0 0 300 c0 293 0 300 20 300 19 0 20 -7 20 -186 0
-180 5 -217 34 -236 6 -4 83 -8 171 -8 177 0 198 6 210 58 6 31 -9 82 -28 94
-7 4 -69 8 -139 8 l-128 0 0 163 c0 200 -12 252 -74 313 -24 25 -58 46 -81 53
-59 16 -350 13 -400 -4z"/>
</g>
</svg>
