<?xml version="1.0" standalone="no"?>
<!DOCTYPE svg PUBLIC "-//W3C//DTD SVG 20010904//EN"
 "http://www.w3.org/TR/2001/REC-SVG-20010904/DTD/svg10.dtd">
<svg version="1.0" xmlns="http://www.w3.org/2000/svg"
 width="128.000000pt" height="128.000000pt" viewBox="0 0 128.000000 128.000000"
 preserveAspectRatio="xMidYMid meet">
<g transform="translate(0.000000,128.000000) scale(0.100000,-0.100000)"
fill="#000000" stroke="none">
<path d="M730 1186 c-223 -45 -417 -86 -433 -89 l-27 -7 0 -385 0 -385 -39 0
c-79 0 -172 -53 -210 -119 -42 -75 -19 -139 62 -177 88 -41 180 -28 249 34 77
69 78 73 78 453 l0 336 58 12 c91 19 566 111 575 111 4 0 7 -115 7 -255 l0
-255 -53 0 c-70 0 -149 -39 -188 -93 -81 -111 11 -227 170 -215 108 8 185 80
202 190 5 36 8 249 7 493 l-3 430 -25 2 c-14 0 -207 -36 -430 -81z"/>
</g>
</svg>
