<?xml version="1.0" standalone="no"?>
<!DOCTYPE svg PUBLIC "-//W3C//DTD SVG 20010904//EN"
 "http://www.w3.org/TR/2001/REC-SVG-20010904/DTD/svg10.dtd">
<svg version="1.0" xmlns="http://www.w3.org/2000/svg"
 width="128.000000pt" height="128.000000pt" viewBox="0 0 128.000000 128.000000"
 preserveAspectRatio="xMidYMid meet">
<g transform="translate(0.000000,128.000000) scale(0.100000,-0.100000)"
fill="#000000" stroke="none">
<path d="M345 1039 c-154 -89 -286 -167 -294 -174 -20 -20 -5 -55 25 -55 14 0
147 70 296 155 l270 154 257 -146 c141 -81 267 -152 280 -159 46 -24 84 24 44
57 -32 27 -568 329 -583 329 -8 0 -141 -73 -295 -161z"/>
<path d="M830 832 l0 -92 40 0 40 0 -20 -32 c-24 -39 -25 -69 -5 -108 19 -37
43 -50 90 -50 80 0 125 100 74 164 l-20 26 30 0 c29 0 31 3 31 35 l0 35 -72 0
-72 0 -58 57 -58 57 0 -92z"/>
<path d="M284 752 c-54 -43 -58 -100 -10 -148 45 -45 95 -47 137 -5 63 63 20
171 -68 171 -21 0 -48 -8 -59 -18z"/>
<path d="M131 494 c-20 -25 -21 -39 -21 -250 0 -209 1 -224 19 -233 34 -19 40
7 43 185 3 167 3 169 26 172 l22 3 0 -185 0 -186 120 0 120 0 0 185 0 185 25
0 25 0 0 -169 c0 -141 3 -172 16 -185 12 -12 20 -13 35 -5 19 10 20 20 17 239
-3 208 -5 230 -22 249 -18 20 -29 21 -212 21 l-193 0 -20 -26z"/>
<path d="M886 498 c-14 -13 -73 -79 -131 -148 -111 -131 -124 -162 -74 -168
22 -3 38 11 100 82 41 46 80 85 87 85 9 1 12 -40 12 -174 l0 -175 95 0 95 0 0
260 0 260 -79 0 c-69 0 -83 -3 -105 -22z"/>
</g>
</svg>
