<?xml version="1.0" standalone="no"?>
<!DOCTYPE svg PUBLIC "-//W3C//DTD SVG 20010904//EN"
 "http://www.w3.org/TR/2001/REC-SVG-20010904/DTD/svg10.dtd">
<svg version="1.0" xmlns="http://www.w3.org/2000/svg"
 width="128.000000pt" height="128.000000pt" viewBox="0 0 128.000000 128.000000"
 preserveAspectRatio="xMidYMid meet">
<g transform="translate(0.000000,128.000000) scale(0.100000,-0.100000)"
fill="#000000" stroke="none">
<path d="M0 640 l0 -640 135 0 135 0 0 45 0 45 -90 0 -90 0 0 545 0 545 90 0
90 0 0 50 0 50 -135 0 -135 0 0 -640z"/>
<path d="M654 1255 c-16 -12 -66 -49 -111 -81 -277 -200 -353 -258 -346 -265
4 -4 126 -64 271 -133 l262 -126 238 153 c130 84 252 162 270 172 17 11 32 22
32 26 0 3 -30 20 -67 37 -38 17 -142 65 -233 107 -91 43 -192 90 -226 105
l-61 28 -29 -23z"/>
<path d="M1048 758 l-228 -151 0 -269 0 -269 38 23 c21 13 125 79 230 148
l191 125 1 273 c0 149 -1 272 -2 272 -2 0 -105 -68 -230 -152z"/>
<path d="M182 543 l3 -268 265 -132 c146 -72 268 -132 273 -132 4 -1 6 120 5
269 l-3 270 -268 130 c-148 71 -270 130 -273 130 -2 0 -3 -120 -2 -267z"/>
</g>
</svg>
