<?xml version="1.0" standalone="no"?>
<!DOCTYPE svg PUBLIC "-//W3C//DTD SVG 20010904//EN"
 "http://www.w3.org/TR/2001/REC-SVG-20010904/DTD/svg10.dtd">
<svg version="1.0" xmlns="http://www.w3.org/2000/svg"
 width="128.000000pt" height="128.000000pt" viewBox="0 0 128.000000 128.000000"
 preserveAspectRatio="xMidYMid meet">
<g transform="translate(0.000000,128.000000) scale(0.100000,-0.100000)"
fill="#000000" stroke="none">
<path d="M262 1139 c-26 -13 -55 -39 -70 -62 l-27 -41 -3 -423 c-3 -403 -4
-423 -21 -423 -26 0 -44 -25 -36 -50 6 -19 13 -21 93 -18 86 3 87 3 90 29 3
22 -2 29 -28 37 l-31 11 3 410 3 411 33 32 32 33 320 3 c285 2 324 1 356 -14
63 -30 64 -36 64 -483 l0 -400 -21 -3 c-27 -4 -44 -30 -36 -52 9 -24 175 -24
184 0 8 22 -9 48 -36 52 l-21 3 0 412 c0 378 -2 415 -19 452 -22 48 -44 69
-94 90 -30 12 -92 15 -364 15 -315 0 -330 -1 -371 -21z"/>
<path d="M434 936 c-3 -8 -4 -23 -2 -33 3 -16 19 -18 183 -21 215 -3 227 -1
223 36 l-3 27 -198 3 c-166 2 -198 0 -203 -12z"/>
<path d="M445 767 c-3 -7 -4 -131 -3 -277 l3 -265 24 -3 c13 -2 28 2 32 10 5
7 9 61 9 121 l0 107 128 0 c119 0 130 2 163 24 97 66 91 205 -10 273 -32 21
-44 23 -188 23 -115 0 -155 -3 -158 -13z m326 -86 c20 -20 29 -39 29 -61 0
-22 -9 -41 -29 -61 -29 -29 -31 -29 -145 -29 l-116 0 0 90 0 90 116 0 c114 0
116 0 145 -29z"/>
</g>
</svg>
