<?xml version="1.0" standalone="no"?>
<!DOCTYPE svg PUBLIC "-//W3C//DTD SVG 20010904//EN"
 "http://www.w3.org/TR/2001/REC-SVG-20010904/DTD/svg10.dtd">
<svg version="1.0" xmlns="http://www.w3.org/2000/svg"
 width="128.000000pt" height="128.000000pt" viewBox="0 0 128.000000 128.000000"
 preserveAspectRatio="xMidYMid meet">
<g transform="translate(0.000000,128.000000) scale(0.100000,-0.100000)"
fill="#000000" stroke="none">
<path d="M210 640 l0 -640 95 0 95 0 0 264 0 264 258 4 c236 3 261 5 303 25
130 59 209 191 209 350 0 154 -68 276 -195 346 -39 21 -50 22 -402 25 l-363 3
0 -641z m659 435 c121 -62 131 -247 18 -327 -31 -22 -42 -23 -259 -26 l-228
-3 0 185 0 186 220 0 c175 0 227 -3 249 -15z"/>
</g>
</svg>
