<?xml version="1.0" standalone="no"?>
<!DOCTYPE svg PUBLIC "-//W3C//DTD SVG 20010904//EN"
 "http://www.w3.org/TR/2001/REC-SVG-20010904/DTD/svg10.dtd">
<svg version="1.0" xmlns="http://www.w3.org/2000/svg"
 width="128.000000pt" height="128.000000pt" viewBox="0 0 128.000000 128.000000"
 preserveAspectRatio="xMidYMid meet">
<g transform="translate(0.000000,128.000000) scale(0.100000,-0.100000)"
fill="#000000" stroke="none">
<path d="M57 1248 c-8 -18 -24 -56 -36 -83 l-22 -50 35 -80 35 -80 50 -3 51
-3 0 -185 c0 -177 -1 -184 -20 -184 -19 0 -20 -8 -22 -228 l-3 -227 -32 -3
c-31 -3 -33 -6 -33 -43 0 -37 -2 -39 -30 -39 -23 0 -30 -4 -30 -20 0 -20 7
-20 640 -20 633 0 640 0 640 20 0 19 -7 20 -206 20 l-206 0 30 34 c109 125 32
320 -133 334 -138 11 -234 -86 -223 -224 4 -42 12 -63 36 -93 18 -22 32 -42
32 -45 0 -3 -67 -6 -150 -6 l-150 0 0 40 c0 38 -2 40 -30 40 l-30 0 0 230 c0
223 -1 230 -20 230 -19 0 -20 7 -20 185 l0 185 48 0 48 0 32 78 c18 42 32 81
32 87 0 5 -15 45 -32 87 l-33 78 -117 0 -118 0 -13 -32z m247 -71 l26 -63 -26
-62 -27 -62 -89 0 -89 0 -25 55 c-30 68 -30 70 1 139 l25 56 88 0 89 0 27 -63z
m-96 -844 c-3 -189 -5 -208 -20 -211 -17 -3 -18 12 -18 207 0 205 1 211 20
211 20 0 20 -5 18 -207z m608 21 c65 -31 103 -108 89 -180 -10 -58 -77 -120
-138 -129 -121 -18 -220 107 -176 222 33 87 139 128 225 87z m-546 -294 c0
-20 -5 -21 -82 -18 -70 3 -83 6 -86 21 -3 15 6 17 82 17 80 0 86 -1 86 -20z"/>
<path d="M130 1115 c0 -78 2 -85 20 -85 13 0 20 7 20 20 0 14 7 20 21 20 23 0
60 18 71 34 29 44 -19 96 -88 96 l-44 0 0 -85z m84 39 c33 -13 11 -44 -30 -44
-8 0 -14 10 -14 25 0 25 13 31 44 19z"/>
<path d="M674 276 c-40 -40 -44 -75 -15 -122 43 -70 146 -63 177 12 20 47 11
87 -28 119 -44 37 -91 34 -134 -9z m119 -37 c17 -24 18 -30 6 -55 -19 -40 -79
-47 -103 -12 -22 30 -20 47 6 75 28 30 64 27 91 -8z"/>
<path d="M1039 1082 c-24 -16 -50 -40 -58 -55 -8 -14 -30 -88 -51 -164 l-37
-138 -105 -5 c-137 -8 -209 -40 -295 -134 -32 -35 -68 -66 -80 -70 -21 -7 -23
-14 -23 -77 l0 -69 -40 0 -40 0 0 -80 0 -80 95 0 c88 0 95 1 95 20 0 16 -7 20
-35 20 l-35 0 0 114 0 114 63 21 c244 81 430 32 509 -134 34 -73 37 -115 8
-115 -13 0 -20 -7 -20 -20 0 -19 7 -20 145 -20 138 0 145 1 145 20 0 19 -7 20
-104 20 l-103 0 -5 44 c-3 24 -15 64 -27 88 -76 157 -234 223 -443 186 -43 -8
-78 -11 -78 -7 0 16 116 90 164 104 29 9 90 15 145 15 l96 0 34 133 c61 240
76 257 229 257 85 0 92 1 92 20 0 19 -7 20 -98 20 -90 0 -102 -2 -143 -28z
m-649 -792 c0 -33 -3 -40 -20 -40 -17 0 -20 7 -20 40 0 33 3 40 20 40 17 0 20
-7 20 -40z"/>
<path d="M1074 1002 c-19 -12 -31 -43 -63 -166 -32 -119 -32 -120 -13 -145 19
-25 23 -26 151 -29 126 -2 131 -2 131 18 0 19 -6 20 -124 20 -85 0 -126 4
-128 12 -4 10 6 52 51 216 l12 42 94 0 c88 0 95 1 95 20 0 19 -7 20 -97 20
-54 0 -103 -4 -109 -8z"/>
</g>
</svg>
