<?xml version="1.0" standalone="no"?>
<!DOCTYPE svg PUBLIC "-//W3C//DTD SVG 20010904//EN"
 "http://www.w3.org/TR/2001/REC-SVG-20010904/DTD/svg10.dtd">
<svg version="1.0" xmlns="http://www.w3.org/2000/svg"
 width="128.000000pt" height="128.000000pt" viewBox="0 0 128.000000 128.000000"
 preserveAspectRatio="xMidYMid meet">
<g transform="translate(0.000000,128.000000) scale(0.100000,-0.100000)"
fill="#000000" stroke="none">
<path d="M314 1221 c-134 -16 -208 -70 -241 -179 -16 -50 -18 -100 -18 -402 0
-401 5 -432 79 -506 69 -70 116 -79 401 -78 199 0 250 3 297 17 72 22 128 74
153 142 10 28 19 51 20 53 1 1 28 9 60 17 73 19 110 46 138 98 21 40 22 54 22
257 0 203 -1 217 -22 257 -29 52 -65 79 -138 98 -32 8 -59 16 -60 17 -1 2 -10
26 -20 53 -24 66 -81 120 -148 140 -61 19 -407 29 -523 16z m376 -110 c0 -6
-10 -17 -22 -25 -17 -12 -49 -16 -135 -16 -105 0 -114 2 -140 25 l-28 24 163
1 c95 0 162 -4 162 -9z m-295 -140 c51 -14 228 -14 278 0 36 10 98 61 129 107
14 20 19 22 38 12 12 -6 32 -33 43 -58 21 -45 22 -60 22 -392 0 -501 20 -475
-370 -475 -230 0 -253 2 -290 20 -27 13 -47 33 -60 60 -19 38 -20 60 -20 390
0 378 3 407 52 445 l26 20 56 -59 c39 -42 68 -62 96 -70z m693 -97 c35 -23 26
-34 -28 -34 -49 0 -50 1 -50 30 0 28 2 30 28 24 15 -4 37 -13 50 -20z m32
-268 c0 -183 -7 -203 -82 -220 l-28 -6 0 175 0 175 55 0 55 0 0 -124z"/>
<path d="M335 620 c-21 -24 -14 -65 16 -80 25 -14 364 -9 377 5 22 23 23 54 3
74 -20 20 -33 21 -199 21 -165 0 -180 -2 -197 -20z"/>
<path d="M335 460 c-21 -24 -14 -65 16 -80 25 -14 364 -9 377 5 22 23 23 54 3
74 -20 20 -33 21 -199 21 -165 0 -180 -2 -197 -20z"/>
<path d="M335 300 c-21 -24 -14 -65 16 -80 25 -14 364 -9 377 5 22 23 23 54 3
74 -20 20 -33 21 -199 21 -165 0 -180 -2 -197 -20z"/>
</g>
</svg>
