<?xml version="1.0" standalone="no"?>
<!DOCTYPE svg PUBLIC "-//W3C//DTD SVG 20010904//EN"
 "http://www.w3.org/TR/2001/REC-SVG-20010904/DTD/svg10.dtd">
<svg version="1.0" xmlns="http://www.w3.org/2000/svg"
 width="128.000000pt" height="128.000000pt" viewBox="0 0 128.000000 128.000000"
 preserveAspectRatio="xMidYMid meet">
<g transform="translate(0.000000,128.000000) scale(0.100000,-0.100000)"
fill="#000000" stroke="none">
<path d="M556 1209 c-197 -31 -366 -248 -366 -469 0 -58 11 -80 42 -80 23 0
38 30 38 78 0 51 30 148 63 205 33 57 107 123 165 150 65 30 179 30 244 0 147
-67 240 -241 223 -418 -5 -44 -8 -103 -8 -131 l-1 -50 -112 -47 -112 -47 -129
0 c-139 0 -153 -5 -153 -50 0 -46 14 -50 157 -50 l134 0 156 66 c85 36 158 63
161 60 3 -4 3 -8 1 -9 -9 -8 -399 -227 -422 -238 -26 -12 -35 -10 -210 43
l-68 20 3 97 3 96 154 5 c145 5 154 6 162 26 5 14 2 32 -7 50 -9 17 -14 49
-12 83 l3 56 58 3 c49 3 59 6 68 26 8 17 8 30 0 45 -10 17 -21 21 -66 21 -30
0 -55 5 -55 10 0 6 25 10 55 10 48 0 57 3 64 22 12 34 1 60 -31 72 -33 12 -34
17 -8 41 22 20 27 64 8 83 -22 22 -46 12 -92 -40 -44 -50 -47 -52 -61 -34 -64
84 -104 105 -125 67 -15 -30 -12 -47 15 -79 l25 -30 -30 -5 c-21 -5 -31 -14
-36 -33 -11 -42 6 -59 62 -62 74 -5 79 -22 7 -22 -65 0 -73 -6 -73 -56 0 -29
31 -44 91 -44 l39 0 0 -44 c0 -24 3 -51 6 -60 5 -14 -8 -16 -109 -16 -115 0
-116 0 -145 30 -27 27 -37 30 -92 30 -51 0 -65 -4 -85 -24 -33 -33 -37 -66
-33 -258 3 -160 4 -167 27 -192 21 -23 33 -26 90 -26 56 0 69 3 92 26 l26 25
127 -36 c70 -20 137 -34 149 -31 48 12 480 264 493 287 7 13 13 43 14 65 0 53
-29 91 -76 100 -33 6 -35 9 -30 33 4 14 9 65 13 112 22 323 -214 582 -491 538z
m-281 -874 l0 -150 -29 -3 c-16 -2 -32 2 -37 10 -10 16 -12 282 -2 292 4 4 21
6 38 4 l30 -3 0 -150z"/>
</g>
</svg>
