<?xml version="1.0" standalone="no"?>
<!DOCTYPE svg PUBLIC "-//W3C//DTD SVG 20010904//EN"
 "http://www.w3.org/TR/2001/REC-SVG-20010904/DTD/svg10.dtd">
<svg version="1.0" xmlns="http://www.w3.org/2000/svg"
 width="128.000000pt" height="128.000000pt" viewBox="0 0 128.000000 128.000000"
 preserveAspectRatio="xMidYMid meet">
<g transform="translate(0.000000,128.000000) scale(0.100000,-0.100000)"
fill="#000000" stroke="none">
<path d="M364 1267 c-2 -7 -3 -69 -2 -138 l3 -124 273 -3 272 -2 0 140 0 140
-270 0 c-213 0 -272 -3 -276 -13z"/>
<path d="M272 817 l-92 -92 0 -363 0 -362 455 0 455 0 0 368 0 367 -88 88 -87
87 -275 0 -275 0 -93 -93z m458 -177 l0 -90 90 0 90 0 0 -95 0 -95 -90 0 -89
0 -3 -87 -3 -88 -87 -3 -88 -3 0 90 0 90 -92 3 -93 3 0 90 0 90 93 3 92 3 0
89 0 90 90 0 90 0 0 -90z"/>
</g>
</svg>
