<?xml version="1.0" standalone="no"?>
<!DOCTYPE svg PUBLIC "-//W3C//DTD SVG 20010904//EN"
 "http://www.w3.org/TR/2001/REC-SVG-20010904/DTD/svg10.dtd">
<svg version="1.0" xmlns="http://www.w3.org/2000/svg"
 width="128.000000pt" height="128.000000pt" viewBox="0 0 128.000000 128.000000"
 preserveAspectRatio="xMidYMid meet">
<g transform="translate(0.000000,128.000000) scale(0.100000,-0.100000)"
fill="#000000" stroke="none">
<path d="M66 1178 c-12 -17 -16 -50 -16 -141 0 -135 6 -147 92 -182 l48 -20 0
-82 c0 -73 -2 -83 -18 -83 -10 0 -28 -7 -40 -16 -22 -15 -22 -17 -22 -284 0
-256 1 -270 19 -280 13 -6 193 -10 515 -10 436 0 496 2 510 16 14 13 16 53 16
279 0 261 0 264 -22 279 -12 9 -30 16 -40 16 -16 0 -18 10 -18 83 l0 82 48 20
c86 35 92 47 92 182 0 91 -4 124 -16 141 l-15 22 -559 0 -559 0 -15 -22z
m1054 -153 c0 -61 -2 -66 -26 -75 -42 -16 -84 -11 -139 16 l-52 27 -45 -27
c-57 -33 -104 -33 -168 -1 l-50 25 -50 -25 c-64 -32 -111 -32 -168 1 l-45 27
-52 -27 c-55 -27 -97 -32 -139 -16 -24 9 -26 14 -26 75 l0 65 480 0 480 0 0
-65z m-700 -176 c62 -24 136 -22 189 5 28 15 34 15 62 0 52 -26 127 -29 187
-6 50 19 54 19 92 4 l40 -17 0 -82 0 -83 -350 0 -350 0 0 83 0 82 38 17 c20 9
37 17 37 17 0 1 25 -8 55 -20z m650 -474 l0 -185 -430 0 -430 0 0 185 0 185
430 0 430 0 0 -185z"/>
</g>
</svg>
