<?xml version="1.0" standalone="no"?>
<!DOCTYPE svg PUBLIC "-//W3C//DTD SVG 20010904//EN"
 "http://www.w3.org/TR/2001/REC-SVG-20010904/DTD/svg10.dtd">
<svg version="1.0" xmlns="http://www.w3.org/2000/svg"
 width="128.000000pt" height="128.000000pt" viewBox="0 0 128.000000 128.000000"
 preserveAspectRatio="xMidYMid meet">
<g transform="translate(0.000000,128.000000) scale(0.100000,-0.100000)"
fill="#000000" stroke="none">
<path d="M535 1260 c-50 -25 -75 -65 -75 -120 0 -79 56 -134 137 -132 165 2
176 240 13 267 -25 4 -47 0 -75 -15z"/>
<path d="M106 914 c-11 -30 -6 -46 56 -157 34 -62 63 -114 64 -116 2 -2 64 17
138 42 l135 45 15 -52 c9 -29 29 -110 47 -180 l31 -128 -111 -113 c-71 -73
-112 -122 -113 -137 -3 -47 4 -73 23 -93 19 -19 35 -20 317 -23 163 -2 307 0
320 3 63 16 85 103 37 150 -23 24 -28 25 -175 25 -82 0 -150 3 -150 6 0 3 34
42 75 86 52 56 76 89 81 114 8 45 -72 442 -98 485 -28 46 -78 62 -165 54 -62
-6 -92 -16 -212 -76 -77 -38 -142 -69 -145 -69 -3 0 -28 34 -56 75 -43 64 -55
75 -79 75 -17 0 -31 -6 -35 -16z"/>
</g>
</svg>
