<?xml version="1.0" standalone="no"?>
<!DOCTYPE svg PUBLIC "-//W3C//DTD SVG 20010904//EN"
 "http://www.w3.org/TR/2001/REC-SVG-20010904/DTD/svg10.dtd">
<svg version="1.0" xmlns="http://www.w3.org/2000/svg"
 width="128.000000pt" height="128.000000pt" viewBox="0 0 128.000000 128.000000"
 preserveAspectRatio="xMidYMid meet">
<g transform="translate(0.000000,128.000000) scale(0.100000,-0.100000)"
fill="#000000" stroke="none">
<path d="M543 1088 c-38 -46 -75 -93 -81 -105 -7 -13 -12 -71 -12 -145 l0
-123 -65 -53 -65 -52 0 -201 0 -200 -52 3 -53 3 -3 117 -3 117 41 27 c49 32
55 74 16 99 -28 18 -37 15 -113 -37 l-43 -29 0 -187 c0 -133 4 -192 12 -200
17 -17 1019 -17 1036 0 8 8 12 67 12 200 l0 187 -43 29 c-76 52 -85 55 -113
37 -39 -25 -33 -67 16 -99 l41 -27 -3 -117 -3 -117 -52 -3 -53 -3 0 200 0 201
-65 52 -65 53 0 123 c0 74 -5 132 -12 145 -6 12 -43 59 -81 105 -56 66 -74 82
-97 82 -23 0 -41 -16 -97 -82z m140 -102 l37 -45 0 -135 0 -136 65 -52 65 -53
0 -177 0 -178 -24 0 c-24 0 -24 1 -28 109 -2 92 -6 114 -24 138 -73 98 -195
98 -268 0 -18 -24 -22 -46 -24 -138 -4 -108 -4 -109 -28 -109 l-24 0 0 178 0
177 65 53 65 52 0 136 0 135 37 45 c21 24 40 44 43 44 3 0 22 -20 43 -44z
m-15 -572 c20 -14 22 -23 22 -110 l0 -94 -50 0 -50 0 0 94 c0 87 2 96 22 110
12 9 25 16 28 16 3 0 16 -7 28 -16z"/>
</g>
</svg>
