<?xml version="1.0" standalone="no"?>
<!DOCTYPE svg PUBLIC "-//W3C//DTD SVG 20010904//EN"
 "http://www.w3.org/TR/2001/REC-SVG-20010904/DTD/svg10.dtd">
<svg version="1.0" xmlns="http://www.w3.org/2000/svg"
 width="128.000000pt" height="128.000000pt" viewBox="0 0 128.000000 128.000000"
 preserveAspectRatio="xMidYMid meet">
<g transform="translate(0.000000,128.000000) scale(0.100000,-0.100000)"
fill="#000000" stroke="none">
<path d="M912 1247 l-32 -33 22 -22 22 -22 -64 -65 c-43 -43 -70 -63 -80 -59
-8 3 -43 11 -77 16 -178 30 -364 -67 -447 -233 -19 -37 -37 -86 -41 -108 -6
-35 -10 -41 -31 -41 -22 0 -24 -4 -24 -45 0 -41 2 -45 25 -45 l26 0 -3 -132
-3 -133 -42 -3 -43 -3 0 -115 0 -114 -60 0 -60 0 0 -45 0 -45 640 0 640 0 0
45 0 45 -60 0 -60 0 0 114 0 115 -42 3 -43 3 -3 133 -3 132 26 0 c23 0 25 4
25 45 0 41 -2 45 -23 45 -20 0 -26 7 -36 53 -6 28 -24 75 -40 104 l-28 51 53
53 c53 52 54 52 74 34 20 -19 21 -18 53 13 l32 32 -130 130 -131 130 -32 -33z
m103 -167 c18 -20 18 -22 -30 -70 -27 -28 -52 -50 -55 -50 -3 1 -16 10 -29 21
l-24 20 48 49 c27 28 54 50 61 50 6 0 19 -9 29 -20z m-229 -135 c92 -45 168
-139 189 -232 l7 -33 -341 0 c-318 0 -341 1 -341 18 0 24 44 116 75 157 33 43
114 95 174 112 68 19 172 10 237 -22z m194 -490 l0 -135 -340 0 -340 0 0 135
0 135 340 0 340 0 0 -135z m90 -295 l0 -70 -430 0 -430 0 0 70 0 70 430 0 430
0 0 -70z"/>
<path d="M372 497 c-12 -13 -22 -31 -22 -41 0 -21 44 -66 65 -66 9 0 27 11 40
25 14 13 25 31 25 40 0 22 -45 65 -68 65 -10 0 -28 -10 -40 -23z"/>
<path d="M602 504 c-25 -17 -29 -60 -8 -89 18 -25 74 -25 92 0 31 42 3 105
-46 105 -9 0 -26 -7 -38 -16z"/>
<path d="M825 495 c-14 -13 -25 -31 -25 -40 0 -21 44 -65 65 -65 22 0 65 45
65 68 0 23 -40 62 -64 62 -9 0 -28 -11 -41 -25z"/>
</g>
</svg>
