<?xml version="1.0" standalone="no"?>
<!DOCTYPE svg PUBLIC "-//W3C//DTD SVG 20010904//EN"
 "http://www.w3.org/TR/2001/REC-SVG-20010904/DTD/svg10.dtd">
<svg version="1.0" xmlns="http://www.w3.org/2000/svg"
 width="128.000000pt" height="128.000000pt" viewBox="0 0 128.000000 128.000000"
 preserveAspectRatio="xMidYMid meet">
<g transform="translate(0.000000,128.000000) scale(0.100000,-0.100000)"
fill="#000000" stroke="none">
<path d="M408 1231 c-46 -46 -49 -52 -46 -93 l3 -43 273 -3 272 -2 0 48 c0 44
-4 52 -48 95 l-48 47 -178 0 -179 0 -49 -49z"/>
<path d="M364 948 c16 -116 119 -205 252 -216 73 -5 122 8 189 54 67 45 97 92
103 160 l4 54 -277 0 -278 0 7 -52z"/>
<path d="M305 620 c-22 -11 -50 -35 -63 -54 -47 -69 -55 -117 -60 -349 l-4
-217 74 1 73 0 70 92 c39 50 95 123 126 162 228 290 281 358 286 371 4 12 -30
14 -228 14 -214 0 -237 -2 -274 -20z"/>
<path d="M923 593 c-22 -27 -120 -151 -218 -278 -98 -126 -194 -249 -213 -272
l-34 -43 317 0 317 0 -4 248 c-3 218 -6 253 -24 297 -17 44 -68 95 -95 95 -4
0 -25 -21 -46 -47z"/>
</g>
</svg>
