<?xml version="1.0" standalone="no"?>
<!DOCTYPE svg PUBLIC "-//W3C//DTD SVG 20010904//EN"
 "http://www.w3.org/TR/2001/REC-SVG-20010904/DTD/svg10.dtd">
<svg version="1.0" xmlns="http://www.w3.org/2000/svg"
 width="128.000000pt" height="128.000000pt" viewBox="0 0 128.000000 128.000000"
 preserveAspectRatio="xMidYMid meet">
<g transform="translate(0.000000,128.000000) scale(0.100000,-0.100000)"
fill="#000000" stroke="none">
<path d="M34 1246 c-34 -34 -34 -35 -34 -126 0 -92 0 -92 35 -127 58 -58 70
-46 73 75 l3 102 529 0 529 0 3 -102 c3 -121 15 -133 73 -75 35 35 35 35 35
127 0 91 0 92 -34 126 l-34 34 -572 0 -572 0 -34 -34z"/>
<path d="M217 1063 c-4 -3 -7 -244 -7 -535 l0 -528 295 0 294 0 -33 57 c-19
32 -91 152 -160 267 -69 115 -124 212 -122 215 2 3 71 119 155 258 83 138 151
257 151 262 0 12 -562 16 -573 4z"/>
<path d="M801 802 l-161 -270 159 -263 159 -264 56 -3 56 -3 -2 533 -3 533
-51 3 -52 3 -161 -269z"/>
</g>
</svg>
