<?xml version="1.0" standalone="no"?>
<!DOCTYPE svg PUBLIC "-//W3C//DTD SVG 20010904//EN"
 "http://www.w3.org/TR/2001/REC-SVG-20010904/DTD/svg10.dtd">
<svg version="1.0" xmlns="http://www.w3.org/2000/svg"
 width="128.000000pt" height="128.000000pt" viewBox="0 0 128.000000 128.000000"
 preserveAspectRatio="xMidYMid meet">
<g transform="translate(0.000000,128.000000) scale(0.100000,-0.100000)"
fill="#000000" stroke="none">
<path d="M515 1264 c-78 -17 -381 -116 -427 -140 -28 -15 -29 -16 -26 -87 l3
-72 33 -3 32 -3 0 -290 0 -289 510 0 510 0 0 289 0 290 33 3 32 3 3 73 3 73
-53 23 c-73 32 -246 90 -343 116 -108 28 -222 34 -310 14z m495 -414 l0 -50
-370 0 -370 0 0 50 0 50 370 0 370 0 0 -50z"/>
<path d="M137 273 c-4 -3 -7 -66 -7 -140 l0 -133 510 0 511 0 -3 137 -3 138
-501 3 c-275 1 -504 -1 -507 -5z"/>
</g>
</svg>
