<?xml version="1.0" standalone="no"?>
<!DOCTYPE svg PUBLIC "-//W3C//DTD SVG 20010904//EN"
 "http://www.w3.org/TR/2001/REC-SVG-20010904/DTD/svg10.dtd">
<svg version="1.0" xmlns="http://www.w3.org/2000/svg"
 width="128.000000pt" height="128.000000pt" viewBox="0 0 128.000000 128.000000"
 preserveAspectRatio="xMidYMid meet">
<g transform="translate(0.000000,128.000000) scale(0.100000,-0.100000)"
fill="#000000" stroke="none">
<path d="M0 640 l0 -640 640 0 640 0 -2 638 -3 637 -637 3 -638 2 0 -640z
m360 -5 c0 -536 0 -545 -20 -545 -19 0 -20 8 -22 193 l-3 192 -22 -45 c-20
-40 -23 -60 -23 -192 l0 -148 -90 0 -90 0 0 545 0 545 135 0 135 0 0 -545z
m460 0 c0 -537 0 -545 -20 -545 -19 0 -20 8 -22 227 l-3 228 -137 3 -138 3 0
-231 c0 -223 -1 -230 -20 -230 -20 0 -20 7 -20 545 l0 545 180 0 180 0 0 -545z
m360 0 l0 -546 -87 3 -88 3 -5 160 c-4 117 -9 167 -20 185 -14 23 -15 10 -20
-160 -5 -183 -5 -185 -27 -188 l-23 -3 0 545 0 546 135 0 135 0 0 -545z"/>
<path d="M565 989 c-62 -36 -65 -44 -65 -170 l0 -118 36 -27 c46 -36 125 -44
175 -19 68 35 69 36 69 166 l0 118 -36 28 c-29 21 -49 28 -98 30 -34 2 -70 -2
-81 -8z"/>
</g>
</svg>
