<?xml version="1.0" standalone="no"?>
<!DOCTYPE svg PUBLIC "-//W3C//DTD SVG 20010904//EN"
 "http://www.w3.org/TR/2001/REC-SVG-20010904/DTD/svg10.dtd">
<svg version="1.0" xmlns="http://www.w3.org/2000/svg"
 width="128.000000pt" height="128.000000pt" viewBox="0 0 128.000000 128.000000"
 preserveAspectRatio="xMidYMid meet">
<g transform="translate(0.000000,128.000000) scale(0.100000,-0.100000)"
fill="#000000" stroke="none">
<path d="M110 1270 c0 -12 22 -146 50 -310 25 -144 46 -273 70 -420 22 -137
45 -276 64 -385 8 -44 17 -97 21 -117 l6 -38 319 0 319 0 6 38 c4 20 13 73 21
117 16 93 38 223 64 385 25 153 46 280 70 420 28 164 50 298 50 310 0 7 -183
10 -530 10 -347 0 -530 -3 -530 -10z m925 -112 c0 -7 -7 -55 -15 -105 l-14
-93 -366 0 -365 0 -18 101 c-9 56 -15 104 -13 107 2 4 181 6 398 5 310 -2 393
-5 393 -15z"/>
</g>
</svg>
