<?xml version="1.0" standalone="no"?>
<!DOCTYPE svg PUBLIC "-//W3C//DTD SVG 20010904//EN"
 "http://www.w3.org/TR/2001/REC-SVG-20010904/DTD/svg10.dtd">
<svg version="1.0" xmlns="http://www.w3.org/2000/svg"
 width="128.000000pt" height="128.000000pt" viewBox="0 0 128.000000 128.000000"
 preserveAspectRatio="xMidYMid meet">
<g transform="translate(0.000000,128.000000) scale(0.100000,-0.100000)"
fill="#000000" stroke="none">
<path d="M433 1145 l-173 -115 0 -45 c0 -38 3 -45 20 -45 18 0 20 -7 20 -60
l0 -60 -140 0 -140 0 0 -275 0 -275 620 0 620 0 0 275 0 275 -140 0 -140 0 0
60 c0 53 2 60 20 60 17 0 20 7 20 45 l0 45 -172 115 c-139 93 -180 115 -208
115 -28 0 -71 -24 -207 -115z m367 -10 c129 -84 141 -95 112 -95 -24 0 -63 20
-152 80 l-119 80 -122 -81 c-88 -59 -128 -79 -148 -77 -22 3 -5 17 114 95 77
51 147 93 155 93 8 0 80 -43 160 -95z m-73 -36 c43 -28 80 -52 82 -55 2 -2
-74 -4 -170 -4 l-174 0 80 54 c44 30 85 55 92 55 7 1 47 -22 90 -50z m253
-104 c0 -13 -44 -15 -340 -15 -296 0 -340 2 -340 15 0 13 44 15 340 15 296 0
340 -2 340 -15z m-600 -375 c0 -313 0 -320 -20 -320 -20 0 -20 7 -20 320 0
313 0 320 20 320 20 0 20 -7 20 -320z m480 240 l0 -80 -220 0 -220 0 0 80 0
80 220 0 220 0 0 -80z m80 -240 c0 -313 0 -320 -20 -320 -20 0 -20 7 -20 320
0 313 0 320 20 320 20 0 20 -7 20 -320z m-640 145 c0 -12 -20 -15 -120 -15
-100 0 -120 3 -120 15 0 13 20 15 120 15 100 0 120 -2 120 -15z m920 0 c0 -12
-20 -15 -120 -15 -100 0 -120 3 -120 15 0 13 20 15 120 15 100 0 120 -2 120
-15z m-360 -95 l0 -80 -220 0 -220 0 0 80 0 80 220 0 220 0 0 -80z m-560 -160
l0 -210 -120 0 -120 0 0 210 0 210 120 0 120 0 0 -210z m920 0 l0 -210 -120 0
-120 0 0 210 0 210 120 0 120 0 0 -210z m-360 -80 l0 -130 -40 0 -40 0 0 76
c0 75 -1 78 -35 110 -50 47 -108 54 -172 23 -59 -30 -73 -56 -73 -141 l0 -68
-40 0 -40 0 0 130 0 130 220 0 220 0 0 -130z m-184 60 c8 0 26 -11 39 -25 22
-21 25 -33 25 -95 l0 -70 -100 0 -100 0 0 68 c0 45 5 75 15 90 16 22 70 43 93
36 8 -2 20 -4 28 -4z"/>
<path d="M460 865 l0 -45 80 0 80 0 0 45 0 45 -80 0 -80 0 0 -45z m120 0 c0
-11 -11 -15 -40 -15 -29 0 -40 4 -40 15 0 11 11 15 40 15 29 0 40 -4 40 -15z"/>
<path d="M660 865 l0 -45 80 0 80 0 0 45 0 45 -80 0 -80 0 0 -45z m120 0 c0
-11 -11 -15 -40 -15 -29 0 -40 4 -40 15 0 11 11 15 40 15 29 0 40 -4 40 -15z"/>
<path d="M460 670 l0 -50 80 0 80 0 0 50 0 50 -80 0 -80 0 0 -50z m120 5 c0
-11 -11 -15 -40 -15 -29 0 -40 4 -40 15 0 11 11 15 40 15 29 0 40 -4 40 -15z"/>
<path d="M660 670 l0 -50 80 0 80 0 0 50 0 50 -80 0 -80 0 0 -50z m120 5 c0
-11 -11 -15 -40 -15 -29 0 -40 4 -40 15 0 11 11 15 40 15 29 0 40 -4 40 -15z"/>
<path d="M100 640 l0 -50 80 0 80 0 0 50 0 50 -80 0 -80 0 0 -50z m120 0 c0
-17 -7 -20 -40 -20 -33 0 -40 3 -40 20 0 17 7 20 40 20 33 0 40 -3 40 -20z"/>
<path d="M100 510 l0 -50 80 0 80 0 0 50 0 50 -80 0 -80 0 0 -50z m120 5 c0
-11 -11 -15 -40 -15 -29 0 -40 4 -40 15 0 11 11 15 40 15 29 0 40 -4 40 -15z"/>
<path d="M100 385 l0 -45 80 0 80 0 0 45 0 45 -80 0 -80 0 0 -45z m120 0 c0
-11 -11 -15 -40 -15 -29 0 -40 4 -40 15 0 11 11 15 40 15 29 0 40 -4 40 -15z"/>
<path d="M1020 640 l0 -50 80 0 80 0 0 50 0 50 -80 0 -80 0 0 -50z m120 0 c0
-17 -7 -20 -40 -20 -27 0 -40 4 -40 13 0 21 11 27 47 27 26 0 33 -4 33 -20z"/>
<path d="M1020 510 l0 -50 80 0 80 0 0 50 0 50 -80 0 -80 0 0 -50z m120 5 c0
-11 -11 -15 -40 -15 -29 0 -40 4 -40 15 0 11 11 15 40 15 29 0 40 -4 40 -15z"/>
<path d="M1020 385 l0 -45 80 0 80 0 0 45 0 45 -80 0 -80 0 0 -45z m120 0 c0
-11 -11 -15 -40 -15 -29 0 -40 4 -40 15 0 11 11 15 40 15 29 0 40 -4 40 -15z"/>
</g>
</svg>
