<?xml version="1.0" standalone="no"?>
<!DOCTYPE svg PUBLIC "-//W3C//DTD SVG 20010904//EN"
 "http://www.w3.org/TR/2001/REC-SVG-20010904/DTD/svg10.dtd">
<svg version="1.0" xmlns="http://www.w3.org/2000/svg"
 width="128.000000pt" height="128.000000pt" viewBox="0 0 128.000000 128.000000"
 preserveAspectRatio="xMidYMid meet">
<g transform="translate(0.000000,128.000000) scale(0.100000,-0.100000)"
fill="#000000" stroke="none">
<path d="M320 1186 l-315 -91 -3 -42 c-2 -32 1 -43 11 -43 7 0 101 25 208 56
107 31 246 70 309 87 l115 31 305 -87 c168 -48 311 -87 318 -87 9 0 12 13 10
43 l-3 42 -235 67 c-129 37 -273 78 -320 91 l-85 23 -315 -90z"/>
<path d="M285 937 c-3 -7 -4 -136 -3 -287 l3 -275 45 -6 c96 -14 162 -59 210
-143 l30 -51 0 291 0 290 -28 45 c-35 54 -103 116 -148 135 -42 17 -103 18
-109 1z"/>
<path d="M856 925 c-61 -17 -159 -65 -214 -105 l-42 -30 0 -295 c0 -162 3
-295 6 -295 3 0 25 14 49 30 73 50 185 99 267 117 l78 16 0 289 0 288 -47 -1
c-27 0 -70 -7 -97 -14z"/>
<path d="M140 550 l0 -319 216 -71 c287 -93 280 -93 567 1 l217 72 0 319 c0
175 -2 318 -5 318 -4 0 -19 -7 -35 -15 l-30 -16 0 -279 c0 -175 -4 -281 -10
-285 -5 -3 -83 -29 -172 -57 -140 -43 -174 -50 -243 -50 -74 0 -86 3 -155 40
-70 38 -225 92 -263 92 -15 0 -17 25 -19 271 l-3 271 -32 13 -33 14 0 -319z"/>
</g>
</svg>
