<?xml version="1.0" standalone="no"?>
<!DOCTYPE svg PUBLIC "-//W3C//DTD SVG 20010904//EN"
 "http://www.w3.org/TR/2001/REC-SVG-20010904/DTD/svg10.dtd">
<svg version="1.0" xmlns="http://www.w3.org/2000/svg"
 width="128.000000pt" height="128.000000pt" viewBox="0 0 128.000000 128.000000"
 preserveAspectRatio="xMidYMid meet">
<g transform="translate(0.000000,128.000000) scale(0.100000,-0.100000)"
fill="#000000" stroke="none">
<path d="M575 1241 c-35 -15 -85 -73 -91 -108 -18 -98 41 -186 131 -194 64 -5
86 2 125 37 87 79 73 206 -31 259 -30 16 -101 19 -134 6z"/>
<path d="M384 900 c-27 -11 -70 -62 -91 -109 -14 -29 -17 -71 -17 -231 l-1
-195 55 0 55 0 3 199 c2 189 8 226 33 226 5 0 10 -96 11 -212 l3 -213 203 -3
202 -2 0 215 c0 182 2 215 15 215 29 0 35 -39 35 -234 l0 -196 55 0 55 0 0
188 c0 202 -5 234 -47 294 -45 66 -54 68 -315 67 -128 0 -242 -4 -254 -9z"/>
<path d="M58 243 l-58 -26 0 -93 0 -93 63 29 c34 17 74 30 89 30 15 0 68 -20
119 -45 51 -25 104 -45 118 -45 14 0 69 20 121 45 52 25 109 45 125 45 17 0
73 -20 125 -45 52 -25 106 -45 119 -45 13 0 66 20 119 45 52 25 106 45 121 45
14 0 54 -13 88 -30 l63 -29 0 37 c0 20 3 61 6 89 l7 53 -64 30 c-35 16 -79 30
-96 30 -18 0 -70 -17 -116 -38 -126 -59 -123 -59 -241 -7 -57 25 -116 45 -131
45 -15 0 -74 -20 -132 -45 -116 -51 -105 -52 -234 6 -101 45 -133 47 -211 12z"/>
</g>
</svg>
