<?xml version="1.0" standalone="no"?>
<!DOCTYPE svg PUBLIC "-//W3C//DTD SVG 20010904//EN"
 "http://www.w3.org/TR/2001/REC-SVG-20010904/DTD/svg10.dtd">
<svg version="1.0" xmlns="http://www.w3.org/2000/svg"
 width="128.000000pt" height="128.000000pt" viewBox="0 0 128.000000 128.000000"
 preserveAspectRatio="xMidYMid meet">
<g transform="translate(0.000000,128.000000) scale(0.100000,-0.100000)"
fill="#000000" stroke="none">
<path d="M95 1266 c-37 -17 -70 -52 -84 -89 -7 -19 -11 -204 -11 -546 l0 -518
22 -33 c13 -18 36 -43 51 -54 28 -21 36 -21 567 -21 528 0 539 0 566 21 15 11
37 33 48 48 21 27 21 38 21 566 0 528 0 539 -21 566 -11 15 -33 37 -48 48 -27
21 -40 21 -554 23 -424 2 -533 0 -557 -11z m750 -136 c14 -15 31 -20 72 -20
l53 0 0 -95 0 -95 -53 0 c-41 0 -58 5 -72 20 -13 15 -31 20 -67 20 l-48 0 0
-107 0 -108 187 -120 187 -120 -52 -3 -52 -3 -2 -177 -3 -177 -132 -3 -133 -3
0 146 0 145 -90 0 -90 0 0 -145 0 -145 -135 0 -135 0 0 179 0 180 -52 3 -52 3
219 141 c121 78 226 144 233 148 7 4 24 0 37 -8 l25 -16 0 190 0 190 68 0 c56
0 72 -4 87 -20z"/>
</g>
</svg>
