<?xml version="1.0" standalone="no"?>
<!DOCTYPE svg PUBLIC "-//W3C//DTD SVG 20010904//EN"
 "http://www.w3.org/TR/2001/REC-SVG-20010904/DTD/svg10.dtd">
<svg version="1.0" xmlns="http://www.w3.org/2000/svg"
 width="128.000000pt" height="128.000000pt" viewBox="0 0 128.000000 128.000000"
 preserveAspectRatio="xMidYMid meet">
<g transform="translate(0.000000,128.000000) scale(0.100000,-0.100000)"
fill="#000000" stroke="none">
<path d="M602 1222 c2 -4 36 -66 76 -138 39 -73 72 -134 72 -137 0 -4 -20 -18
-45 -33 -25 -14 -45 -30 -45 -35 0 -5 60 -9 134 -9 l134 0 71 126 c39 70 70
128 68 130 -1 1 -24 -10 -50 -27 -26 -16 -51 -29 -55 -29 -5 0 -21 24 -37 53
-15 28 -37 64 -47 80 l-19 27 -131 0 c-71 0 -128 -3 -126 -8z"/>
<path d="M441 1193 c-22 -23 -161 -261 -161 -276 0 -6 183 -117 192 -117 6 0
59 89 126 211 l30 55 -35 66 c-48 92 -100 113 -152 61z"/>
<path d="M986 770 c-43 -26 -83 -53 -88 -58 -11 -11 0 -31 100 -206 l45 -78
74 4 c90 6 123 30 123 87 -1 42 -137 295 -161 298 -8 1 -49 -20 -93 -47z"/>
<path d="M40 745 c0 -3 22 -19 50 -36 28 -17 50 -33 50 -35 0 -3 -19 -42 -42
-86 l-41 -81 60 -115 c54 -105 83 -144 83 -112 0 17 143 270 152 270 4 0 29
-13 54 -30 26 -16 49 -28 51 -27 2 2 -29 61 -68 130 l-71 127 -139 0 c-76 0
-139 -2 -139 -5z"/>
<path d="M798 393 c-38 -67 -68 -126 -68 -132 0 -5 27 -58 60 -118 33 -59 60
-111 60 -115 0 -5 5 -8 10 -8 6 0 10 27 10 60 l0 60 84 0 c103 0 106 2 180
135 l56 100 -159 3 -160 2 -3 68 -3 67 -67 -122z"/>
<path d="M287 343 c-57 -91 -63 -138 -22 -178 24 -24 28 -25 185 -25 l160 0 0
120 0 120 -150 0 -150 0 -23 -37z"/>
</g>
</svg>
