<?xml version="1.0" standalone="no"?>
<!DOCTYPE svg PUBLIC "-//W3C//DTD SVG 20010904//EN"
 "http://www.w3.org/TR/2001/REC-SVG-20010904/DTD/svg10.dtd">
<svg version="1.0" xmlns="http://www.w3.org/2000/svg"
 width="128.000000pt" height="128.000000pt" viewBox="0 0 128.000000 128.000000"
 preserveAspectRatio="xMidYMid meet">
<g transform="translate(0.000000,128.000000) scale(0.100000,-0.100000)"
fill="#000000" stroke="none">
<path d="M190 640 l0 -450 450 0 450 0 0 450 0 450 -450 0 -450 0 0 -450z
m865 0 l0 -415 -415 0 -415 0 -3 405 c-1 223 0 411 3 418 3 10 92 12 417 10
l413 -3 0 -415z"/>
<path d="M332 738 c-16 -16 -15 -43 3 -58 13 -10 12 -17 -5 -51 -11 -21 -16
-39 -10 -39 7 0 7 -7 0 -21 -7 -11 -8 -24 -4 -27 4 -4 9 -2 11 4 2 6 10 20 18
30 15 19 15 19 30 0 8 -10 16 -24 18 -30 2 -6 7 -8 11 -4 4 3 3 16 -4 27 -7
14 -7 21 0 21 6 0 1 18 -10 39 -17 34 -18 41 -5 51 28 23 11 70 -25 70 -9 0
-21 -5 -28 -12z m48 -28 c0 -13 -7 -20 -20 -20 -13 0 -20 7 -20 20 0 13 7 20
20 20 13 0 20 -7 20 -20z"/>
</g>
</svg>
