<?xml version="1.0" standalone="no"?>
<!DOCTYPE svg PUBLIC "-//W3C//DTD SVG 20010904//EN"
 "http://www.w3.org/TR/2001/REC-SVG-20010904/DTD/svg10.dtd">
<svg version="1.0" xmlns="http://www.w3.org/2000/svg"
 width="128.000000pt" height="128.000000pt" viewBox="0 0 128.000000 128.000000"
 preserveAspectRatio="xMidYMid meet">
<g transform="translate(0.000000,128.000000) scale(0.100000,-0.100000)"
fill="#000000" stroke="none">
<path d="M333 1034 l-243 -246 0 -364 0 -364 -34 0 c-37 0 -62 -21 -52 -45 5
-13 80 -15 638 -13 610 3 633 4 636 22 5 24 -14 36 -55 36 l-33 0 0 350 0 351
-141 147 c-77 81 -154 153 -170 161 -36 18 -75 3 -89 -35 -6 -15 -10 -214 -10
-500 l0 -474 -30 0 -30 0 0 584 c0 575 0 584 -21 610 -17 22 -28 26 -72 26
l-52 1 -242 -247z m327 -394 l0 -580 -255 0 -255 0 0 354 0 354 221 226 c202
207 224 226 255 226 l34 0 0 -580z m338 239 l132 -136 0 -342 0 -341 -145 0
-145 0 0 481 c0 390 2 480 13 477 7 -2 72 -64 145 -139z"/>
<path d="M323 894 c-9 -4 -13 -33 -13 -94 0 -71 3 -89 16 -94 24 -9 267 -7
282 2 9 6 12 33 10 98 l-3 89 -140 2 c-77 1 -146 -1 -152 -3z m247 -94 l0 -40
-105 0 -105 0 0 40 0 40 105 0 105 0 0 -40z"/>
<path d="M232 598 c-7 -7 -12 -42 -12 -90 0 -66 3 -79 19 -88 23 -12 350 -14
369 -2 9 6 12 33 10 98 l-3 89 -185 3 c-136 2 -189 -1 -198 -10z m338 -88 l0
-40 -145 0 -145 0 0 40 0 40 145 0 145 0 0 -40z"/>
<path d="M224 307 c-3 -8 -4 -49 -2 -93 l3 -79 195 0 195 0 0 90 0 90 -193 3
c-155 2 -193 0 -198 -11z m344 -79 l3 -38 -145 0 -146 0 0 40 0 41 143 -3 142
-3 3 -37z"/>
<path d="M905 788 c-3 -7 -4 -157 -3 -333 3 -312 3 -320 23 -320 20 0 20 7 20
330 0 306 -1 330 -18 333 -9 2 -19 -3 -22 -10z"/>
<path d="M1027 633 c-4 -3 -7 -116 -7 -250 0 -208 2 -244 15 -249 8 -4 22 -1
30 6 13 10 15 51 15 244 0 167 -3 235 -12 244 -13 13 -31 16 -41 5z"/>
</g>
</svg>
