<?xml version="1.0" standalone="no"?>
<!DOCTYPE svg PUBLIC "-//W3C//DTD SVG 20010904//EN"
 "http://www.w3.org/TR/2001/REC-SVG-20010904/DTD/svg10.dtd">
<svg version="1.0" xmlns="http://www.w3.org/2000/svg"
 width="128.000000pt" height="128.000000pt" viewBox="0 0 128.000000 128.000000"
 preserveAspectRatio="xMidYMid meet">
<g transform="translate(0.000000,128.000000) scale(0.100000,-0.100000)"
fill="#000000" stroke="none">
<path d="M114 1266 c-18 -14 -19 -31 -22 -326 -3 -356 -7 -337 83 -395 31 -19
60 -45 66 -58 8 -17 5 -79 -10 -232 -12 -114 -21 -219 -21 -232 0 -23 1 -23
110 -23 l110 0 0 26 c0 14 -9 109 -21 211 -26 243 -26 249 31 289 25 18 60 46
78 63 l33 30 -3 316 c-3 300 -4 317 -22 331 -25 18 -31 18 -50 -2 -14 -13 -16
-53 -16 -279 0 -226 -2 -266 -16 -279 -20 -20 -48 -20 -68 0 -14 13 -16 53
-16 279 0 226 -2 266 -16 279 -19 20 -25 20 -50 2 -18 -14 -19 -31 -22 -285
-3 -253 -4 -271 -22 -281 -20 -11 -50 -4 -62 14 -4 6 -8 128 -8 272 0 240 -1
262 -18 277 -22 21 -23 21 -48 3z"/>
<path d="M865 1261 c-55 -25 -131 -109 -165 -184 -112 -240 -63 -488 119 -607
l23 -16 -21 -216 c-11 -119 -21 -221 -21 -227 0 -7 40 -11 114 -11 l115 0 -5
33 c-2 17 -13 119 -25 226 -19 187 -19 195 -2 205 46 26 116 104 146 165 29
59 32 76 35 171 6 156 -24 254 -109 366 -43 56 -99 99 -139 108 -15 4 -42 -2
-65 -13z"/>
</g>
</svg>
