<?xml version="1.0" standalone="no"?>
<!DOCTYPE svg PUBLIC "-//W3C//DTD SVG 20010904//EN"
 "http://www.w3.org/TR/2001/REC-SVG-20010904/DTD/svg10.dtd">
<svg version="1.0" xmlns="http://www.w3.org/2000/svg"
 width="128.000000pt" height="128.000000pt" viewBox="0 0 128.000000 128.000000"
 preserveAspectRatio="xMidYMid meet">
<g transform="translate(0.000000,128.000000) scale(0.100000,-0.100000)"
fill="#000000" stroke="none">
<path d="M560 1040 l0 -159 -76 -3 -75 -3 113 -152 c62 -84 115 -152 118 -153
7 0 230 294 230 303 0 4 -34 7 -75 7 l-75 0 0 160 0 160 -80 0 -80 0 0 -160z"/>
<path d="M80 440 l0 -360 560 0 560 0 0 360 0 360 -120 0 -121 0 3 -77 3 -78
38 -3 37 -3 0 -200 0 -199 -400 0 -400 0 0 199 0 200 38 3 37 3 3 78 3 77
-121 0 -120 0 0 -360z"/>
</g>
</svg>
