<?xml version="1.0" standalone="no"?>
<!DOCTYPE svg PUBLIC "-//W3C//DTD SVG 20010904//EN"
 "http://www.w3.org/TR/2001/REC-SVG-20010904/DTD/svg10.dtd">
<svg version="1.0" xmlns="http://www.w3.org/2000/svg"
 width="128.000000pt" height="128.000000pt" viewBox="0 0 128.000000 128.000000"
 preserveAspectRatio="xMidYMid meet">
<g transform="translate(0.000000,128.000000) scale(0.100000,-0.100000)"
fill="#000000" stroke="none">
<path d="M327 1113 c-4 -3 -7 -57 -7 -119 l0 -113 -117 -3 -118 -3 0 -395 0
-395 555 0 555 0 0 275 0 275 -157 3 -158 3 -2 237 -3 237 -271 3 c-149 1
-273 -1 -277 -5z m473 -513 l0 -440 -60 0 -60 0 0 80 c0 73 2 80 20 80 17 0
20 7 20 40 l0 40 -120 0 -120 0 0 -40 c0 -33 3 -40 20 -40 18 0 20 -7 20 -80
l0 -80 -60 0 -60 0 0 440 0 440 200 0 200 0 0 -440z m-480 160 l0 -40 -40 0
-40 0 0 -40 0 -40 40 0 40 0 0 -40 0 -40 -40 0 -40 0 0 -40 0 -40 40 0 40 0 0
-40 0 -40 -40 0 -40 0 0 -40 0 -40 40 0 40 0 0 -80 0 -80 -80 0 -80 0 0 320 0
320 80 0 80 0 0 -40z m800 -400 l0 -200 -120 0 -120 0 0 40 0 40 80 0 80 0 0
40 0 40 -80 0 -80 0 0 40 0 40 80 0 80 0 0 40 0 40 -80 0 -80 0 0 40 0 40 120
0 120 0 0 -200z"/>
<path d="M480 920 l0 -40 40 0 40 0 0 40 0 40 -40 0 -40 0 0 -40z"/>
<path d="M640 920 l0 -40 40 0 40 0 0 40 0 40 -40 0 -40 0 0 -40z"/>
<path d="M480 790 l0 -40 40 0 40 0 0 40 0 40 -40 0 -40 0 0 -40z"/>
<path d="M640 790 l0 -40 40 0 40 0 0 40 0 40 -40 0 -40 0 0 -40z"/>
<path d="M482 653 c3 -36 5 -38 38 -38 33 0 35 2 38 38 l3 37 -41 0 -41 0 3
-37z"/>
<path d="M642 653 c3 -36 5 -38 38 -38 33 0 35 2 38 38 l3 37 -41 0 -41 0 3
-37z"/>
<path d="M480 520 l0 -40 40 0 40 0 0 40 0 40 -40 0 -40 0 0 -40z"/>
<path d="M640 520 l0 -40 40 0 40 0 0 40 0 40 -40 0 -40 0 0 -40z"/>
</g>
</svg>
