<?xml version="1.0" standalone="no"?>
<!DOCTYPE svg PUBLIC "-//W3C//DTD SVG 20010904//EN"
 "http://www.w3.org/TR/2001/REC-SVG-20010904/DTD/svg10.dtd">
<svg version="1.0" xmlns="http://www.w3.org/2000/svg"
 width="128.000000pt" height="128.000000pt" viewBox="0 0 128.000000 128.000000"
 preserveAspectRatio="xMidYMid meet">
<g transform="translate(0.000000,128.000000) scale(0.100000,-0.100000)"
fill="#000000" stroke="none">
<path d="M308 1127 c-147 -56 -228 -161 -236 -312 -3 -65 0 -91 18 -140 21
-55 42 -80 265 -304 237 -238 243 -244 283 -244 25 0 49 8 64 19 13 11 123
120 244 244 199 203 223 231 243 285 19 49 22 74 19 140 -7 131 -66 224 -180
286 -60 32 -68 34 -163 34 -86 0 -106 -3 -145 -24 -25 -13 -53 -30 -62 -39
-16 -14 -20 -14 -35 0 -10 9 -38 26 -63 39 -56 28 -194 37 -252 16z m215 -118
l38 -20 -70 -75 c-80 -86 -98 -129 -81 -193 13 -50 41 -84 84 -105 69 -32 138
-16 206 50 l36 34 92 -93 92 -92 -140 -140 -140 -140 -215 215 c-234 234 -251
258 -249 356 3 100 83 199 181 223 50 13 118 4 166 -20z m396 20 c92 -21 168
-104 185 -202 11 -59 -17 -140 -66 -193 l-42 -45 -120 120 c-70 70 -129 121
-140 121 -11 0 -48 -27 -82 -61 -55 -52 -68 -60 -96 -57 -25 2 -35 9 -42 31
-10 26 -4 33 99 138 110 111 144 136 200 150 42 10 54 10 104 -2z"/>
</g>
</svg>
