<?xml version="1.0" standalone="no"?>
<!DOCTYPE svg PUBLIC "-//W3C//DTD SVG 20010904//EN"
 "http://www.w3.org/TR/2001/REC-SVG-20010904/DTD/svg10.dtd">
<svg version="1.0" xmlns="http://www.w3.org/2000/svg"
 width="128.000000pt" height="128.000000pt" viewBox="0 0 128.000000 128.000000"
 preserveAspectRatio="xMidYMid meet">
<g transform="translate(0.000000,128.000000) scale(0.100000,-0.100000)"
fill="#000000" stroke="none">
<path d="M363 1268 c-21 -30 -85 -169 -80 -174 15 -15 38 11 81 91 25 48 46
89 46 91 0 10 -39 3 -47 -8z"/>
<path d="M687 1190 c-43 -89 -45 -100 -21 -100 11 0 104 161 104 181 0 5 -9 9
-20 9 -16 0 -30 -21 -63 -90z"/>
<path d="M1092 1268 c-15 -19 -82 -156 -82 -168 0 -5 8 -10 18 -10 11 0 32 28
62 86 25 47 47 90 48 95 5 14 -34 11 -46 -3z"/>
<path d="M45 999 c-43 -85 -45 -90 -23 -87 16 2 33 24 65 83 23 44 43 83 43
88 0 4 -9 7 -20 7 -15 0 -31 -22 -65 -91z"/>
<path d="M412 1005 c-23 -47 -42 -87 -42 -90 0 -3 9 -5 20 -5 15 0 31 22 65
90 44 87 45 90 22 90 -18 0 -30 -15 -65 -85z"/>
<path d="M775 999 c-44 -86 -45 -90 -23 -87 17 2 33 23 65 83 23 44 42 83 43
88 0 4 -9 7 -20 7 -15 0 -31 -22 -65 -91z"/>
<path d="M1142 1005 c-23 -47 -42 -87 -42 -90 0 -3 9 -5 20 -5 15 0 31 22 65
90 44 87 45 90 22 90 -18 0 -30 -15 -65 -85z"/>
<path d="M185 829 c-51 -103 -50 -99 -27 -99 15 0 32 22 66 86 25 47 46 88 46
90 0 2 -10 4 -22 3 -18 0 -31 -17 -63 -80z"/>
<path d="M912 825 c-23 -47 -42 -87 -42 -90 0 -3 9 -5 20 -5 15 0 31 21 62 83
24 45 44 85 46 90 2 4 -7 7 -20 7 -20 0 -31 -14 -66 -85z"/>
<path d="M534 762 c-54 -32 -193 -112 -309 -178 l-210 -119 89 -3 c63 -2 101
2 128 13 l38 15 0 -229 c0 -208 2 -229 18 -244 10 -10 25 -17 33 -17 36 0 39
19 39 271 0 185 3 249 13 257 6 6 69 33 139 60 l128 49 112 -44 c62 -24 123
-48 136 -53 22 -10 22 -10 22 -259 0 -214 2 -252 16 -265 18 -19 45 -21 62 -4
9 9 12 77 12 245 0 128 2 233 5 233 3 0 22 -7 42 -15 23 -10 68 -15 127 -15
l91 0 -100 59 c-55 32 -149 86 -210 121 -60 35 -155 89 -211 121 -55 33 -103
59 -105 59 -3 0 -50 -26 -105 -58z"/>
</g>
</svg>
