<?xml version="1.0" standalone="no"?>
<!DOCTYPE svg PUBLIC "-//W3C//DTD SVG 20010904//EN"
 "http://www.w3.org/TR/2001/REC-SVG-20010904/DTD/svg10.dtd">
<svg version="1.0" xmlns="http://www.w3.org/2000/svg"
 width="128.000000pt" height="128.000000pt" viewBox="0 0 128.000000 128.000000"
 preserveAspectRatio="xMidYMid meet">
<g transform="translate(0.000000,128.000000) scale(0.100000,-0.100000)"
fill="#000000" stroke="none">
<path d="M590 1262 c-16 -13 -27 -40 -39 -97 -17 -83 -20 -86 -91 -105 -54
-14 -131 -89 -150 -144 -7 -21 -10 -39 -8 -41 5 -6 445 -85 469 -85 15 0 19 7
19 39 0 21 -5 53 -12 72 -15 46 -64 114 -94 129 -17 10 -22 19 -19 37 3 12 7
34 10 48 l5 25 301 0 300 0 -3 68 -3 67 -331 3 c-309 2 -333 1 -354 -16z"/>
<path d="M250 723 c-57 -21 -70 -96 -23 -133 64 -50 146 18 117 95 -6 15 -55
46 -71 44 -4 0 -15 -3 -23 -6z"/>
<path d="M701 639 c-55 -22 -68 -83 -26 -124 61 -62 151 6 119 90 -5 13 -55
47 -66 44 -2 0 -14 -5 -27 -10z"/>
<path d="M435 615 c-31 -30 -32 -66 -2 -101 56 -65 166 4 126 79 -28 52 -84
63 -124 22z"/>
<path d="M120 480 c-45 -45 -9 -130 54 -130 36 0 76 41 76 78 0 61 -86 96
-130 52z"/>
<path d="M392 380 c-48 -45 -12 -130 54 -130 39 0 74 36 74 76 0 63 -81 97
-128 54z"/>
<path d="M672 380 c-29 -27 -29 -83 -2 -110 30 -30 83 -27 109 6 28 35 26 69
-4 99 -30 31 -73 32 -103 5z"/>
<path d="M25 255 c-14 -13 -25 -33 -25 -44 0 -58 55 -100 105 -81 51 19 62 95
19 129 -35 28 -69 26 -99 -4z"/>
<path d="M340 140 c-28 -28 -26 -75 5 -105 30 -30 64 -32 99 -4 33 26 36 79 6
109 -27 27 -83 27 -110 0z"/>
<path d="M671 124 c-28 -35 -26 -69 4 -99 72 -73 175 30 107 108 -24 28 -86
23 -111 -9z"/>
</g>
</svg>
