<?xml version="1.0" standalone="no"?>
<!DOCTYPE svg PUBLIC "-//W3C//DTD SVG 20010904//EN"
 "http://www.w3.org/TR/2001/REC-SVG-20010904/DTD/svg10.dtd">
<svg version="1.0" xmlns="http://www.w3.org/2000/svg"
 width="128.000000pt" height="128.000000pt" viewBox="0 0 128.000000 128.000000"
 preserveAspectRatio="xMidYMid meet">
<g transform="translate(0.000000,128.000000) scale(0.100000,-0.100000)"
fill="#000000" stroke="none">
<path d="M565 1251 c-35 -24 -65 -75 -65 -111 0 -39 33 -91 71 -112 49 -28
121 -20 159 17 61 58 60 132 0 190 -40 38 -120 46 -165 16z"/>
<path d="M106 1124 c-14 -13 -16 -56 -16 -319 0 -186 4 -315 10 -332 6 -15 38
-54 71 -85 96 -93 99 -101 99 -255 l0 -133 140 0 140 0 0 149 c0 133 -2 151
-20 174 -11 13 -32 28 -47 32 -37 9 -157 89 -217 145 -83 76 -86 88 -86 371 0
177 -3 248 -12 257 -17 17 -44 15 -62 -4z"/>
<path d="M1107 1122 c-14 -15 -16 -56 -19 -279 l-3 -261 -31 -39 c-43 -53
-155 -137 -241 -178 -39 -20 -74 -42 -77 -51 -3 -9 -6 -83 -6 -165 l0 -149
134 0 134 0 4 134 c4 154 9 166 118 268 l60 57 0 329 c0 242 -3 331 -12 340
-17 17 -42 15 -61 -6z"/>
<path d="M535 896 c-67 -30 -70 -39 -73 -247 l-3 -189 180 0 181 0 0 173 c0
196 -9 229 -70 259 -43 22 -170 24 -215 4z"/>
</g>
</svg>
