<?xml version="1.0" standalone="no"?>
<!DOCTYPE svg PUBLIC "-//W3C//DTD SVG 20010904//EN"
 "http://www.w3.org/TR/2001/REC-SVG-20010904/DTD/svg10.dtd">
<svg version="1.0" xmlns="http://www.w3.org/2000/svg"
 width="128.000000pt" height="128.000000pt" viewBox="0 0 128.000000 128.000000"
 preserveAspectRatio="xMidYMid meet">
<g transform="translate(0.000000,128.000000) scale(0.100000,-0.100000)"
fill="#000000" stroke="none">
<path d="M555 1083 c-48 -25 -73 -53 -91 -99 -21 -56 -15 -135 15 -175 l22
-29 -68 -125 c-40 -74 -74 -125 -83 -125 -37 0 -93 -24 -125 -51 -98 -86 -78
-251 37 -310 52 -26 130 -29 175 -6 37 19 82 71 95 109 l10 28 98 0 98 0 10
-28 c13 -38 58 -90 95 -109 45 -23 123 -20 175 6 115 59 135 224 37 310 -30
26 -87 50 -120 51 -5 0 -42 57 -82 126 l-72 126 21 28 c41 55 34 164 -14 225
-47 60 -165 84 -233 48z m85 -357 c25 0 56 2 69 5 21 4 31 -8 88 -106 40 -69
60 -111 52 -114 -27 -9 -89 -75 -99 -107 l-12 -34 -98 0 -98 0 -12 35 c-6 19
-31 52 -56 74 l-45 39 62 111 c55 101 63 111 82 104 12 -4 42 -8 67 -7z"/>
</g>
</svg>
