<?xml version="1.0" standalone="no"?>
<!DOCTYPE svg PUBLIC "-//W3C//DTD SVG 20010904//EN"
 "http://www.w3.org/TR/2001/REC-SVG-20010904/DTD/svg10.dtd">
<svg version="1.0" xmlns="http://www.w3.org/2000/svg"
 width="128.000000pt" height="128.000000pt" viewBox="0 0 128.000000 128.000000"
 preserveAspectRatio="xMidYMid meet">
<g transform="translate(0.000000,128.000000) scale(0.100000,-0.100000)"
fill="#000000" stroke="none">
<path d="M673 1258 c-19 -20 -23 -36 -23 -89 0 -80 16 -99 109 -128 301 -94
394 -469 172 -692 -127 -127 -306 -156 -481 -79 -85 37 -106 34 -160 -28 -69
-78 -53 -118 74 -178 194 -92 419 -82 604 28 72 42 178 148 220 220 18 31 45
89 59 130 23 64 27 89 27 198 0 110 -3 134 -26 200 -37 107 -72 164 -149 245
-99 104 -230 174 -356 190 -42 6 -51 4 -70 -17z"/>
<path d="M20 728 c-16 -17 -20 -35 -20 -84 0 -85 20 -110 88 -108 55 2 106 24
122 53 14 28 12 77 -5 111 -26 51 -147 69 -185 28z"/>
<path d="M112 460 c-63 -28 -71 -59 -34 -129 48 -93 97 -103 171 -36 44 40 56
71 40 112 -28 74 -90 93 -177 53z"/>
</g>
</svg>
