<?xml version="1.0" standalone="no"?>
<!DOCTYPE svg PUBLIC "-//W3C//DTD SVG 20010904//EN"
 "http://www.w3.org/TR/2001/REC-SVG-20010904/DTD/svg10.dtd">
<svg version="1.0" xmlns="http://www.w3.org/2000/svg"
 width="128.000000pt" height="128.000000pt" viewBox="0 0 128.000000 128.000000"
 preserveAspectRatio="xMidYMid meet">
<g transform="translate(0.000000,128.000000) scale(0.100000,-0.100000)"
fill="#000000" stroke="none">
<path d="M337 921 c-293 -295 -300 -304 -281 -356 9 -23 61 -47 87 -39 12 3
129 112 260 242 l237 236 238 -236 c130 -130 247 -239 259 -242 26 -8 78 16
87 39 20 52 13 61 -281 356 -158 159 -294 289 -303 289 -9 0 -145 -130 -303
-289z"/>
<path d="M407 712 l-227 -227 0 -208 0 -207 460 0 460 0 0 208 0 207 -228 228
c-125 125 -229 227 -232 227 -3 0 -108 -102 -233 -228z m353 31 c0 -4 -9 -16
-20 -28 -11 -12 -25 -48 -31 -81 -7 -32 -13 -65 -15 -71 -5 -21 -24 -15 -24 7
0 15 -7 20 -29 20 -25 0 -67 29 -45 31 5 1 20 2 34 2 19 2 30 13 47 46 12 24
30 52 39 62 17 18 44 26 44 12z m-234 -77 c-4 -20 -2 -37 4 -41 6 -4 23 -35
39 -70 25 -55 28 -69 20 -107 -8 -37 -5 -58 21 -142 16 -54 30 -112 30 -128 0
-43 -23 -30 -32 18 -4 21 -18 72 -32 113 -29 83 -31 108 -14 146 10 21 7 32
-17 77 -15 29 -34 60 -41 69 -17 19 -18 53 -2 79 20 31 31 24 24 -14z m228
-170 c35 -32 36 -36 36 -102 -1 -77 -44 -224 -69 -232 -16 -5 -14 5 19 127 11
41 20 94 20 119 0 37 -5 48 -35 75 -19 17 -35 34 -35 39 0 18 31 6 64 -26z
m-82 -84 c2 6 10 8 16 4 8 -5 9 -13 3 -24 -5 -10 -5 -41 1 -77 11 -70 7 -141
-7 -138 -5 2 -13 44 -18 95 -6 76 -11 96 -28 110 -25 21 -17 43 11 28 13 -7
20 -6 22 2z"/>
</g>
</svg>
