<?xml version="1.0" standalone="no"?>
<!DOCTYPE svg PUBLIC "-//W3C//DTD SVG 20010904//EN"
 "http://www.w3.org/TR/2001/REC-SVG-20010904/DTD/svg10.dtd">
<svg version="1.0" xmlns="http://www.w3.org/2000/svg"
 width="128.000000pt" height="128.000000pt" viewBox="0 0 128.000000 128.000000"
 preserveAspectRatio="xMidYMid meet">
<g transform="translate(0.000000,128.000000) scale(0.100000,-0.100000)"
fill="#000000" stroke="none">
<path d="M70 1262 c-62 -31 -70 -61 -70 -278 0 -182 1 -193 23 -225 37 -55 52
-59 265 -59 219 0 249 7 276 65 13 27 16 71 16 227 0 213 -4 228 -59 265 -32
22 -43 23 -225 23 -162 0 -196 -3 -226 -18z m436 -65 c23 -27 24 -32 24 -208
l0 -181 -29 -29 -29 -29 -181 0 c-176 0 -181 1 -208 24 l-28 24 -3 179 c-4
261 -10 255 251 251 l179 -3 24 -28z"/>
<path d="M927 1270 c-84 -21 -155 -77 -195 -154 -37 -73 -37 -179 0 -251 54
-103 142 -158 253 -159 251 -3 382 287 216 477 -61 69 -185 109 -274 87z m176
-78 c164 -88 159 -325 -8 -411 -107 -56 -232 -22 -301 81 -89 132 -21 312 134
354 60 17 114 9 175 -24z"/>
<path d="M70 567 c-13 -7 -35 -28 -47 -46 -22 -32 -23 -43 -23 -225 0 -293 3
-296 288 -296 290 0 286 -4 290 276 5 308 8 304 -290 304 -134 0 -201 -4 -218
-13z m431 -66 l29 -29 0 -181 c0 -176 -1 -181 -24 -208 l-24 -28 -191 0 c-254
0 -236 -18 -236 236 l0 191 28 24 c27 23 32 24 208 24 l181 0 29 -29z"/>
<path d="M763 564 c-58 -29 -65 -59 -61 -288 4 -280 0 -276 290 -276 284 0
288 4 288 288 0 291 5 286 -279 290 -172 2 -211 0 -238 -14z m434 -58 l28 -24
0 -191 c0 -254 18 -236 -236 -236 l-191 0 -24 28 c-23 27 -24 32 -24 208 l0
181 29 29 29 29 181 0 c176 0 181 -1 208 -24z"/>
</g>
</svg>
