<?xml version="1.0" standalone="no"?>
<!DOCTYPE svg PUBLIC "-//W3C//DTD SVG 20010904//EN"
 "http://www.w3.org/TR/2001/REC-SVG-20010904/DTD/svg10.dtd">
<svg version="1.0" xmlns="http://www.w3.org/2000/svg"
 width="128.000000pt" height="128.000000pt" viewBox="0 0 128.000000 128.000000"
 preserveAspectRatio="xMidYMid meet">
<g transform="translate(0.000000,128.000000) scale(0.100000,-0.100000)"
fill="#000000" stroke="none">
<path d="M595 1080 c-121 -98 -224 -186 -230 -195 -8 -13 -4 -21 19 -40 l29
-23 -24 -12 c-20 -11 -31 -8 -94 25 l-71 39 -83 -24 c-128 -37 -123 -20 -62
-221 30 -96 58 -180 63 -186 8 -10 53 -13 164 -13 l154 0 80 -60 80 -59 -36
-25 -36 -24 51 -27 52 -26 46 26 c25 14 59 25 75 25 16 0 51 -11 79 -25 l50
-26 46 26 c25 14 60 25 78 25 26 0 46 13 104 66 73 68 92 103 71 129 -34 41
-178 22 -362 -47 l-108 -40 -115 86 -115 86 -84 0 -85 0 -31 99 c-31 101 -36
125 -22 119 4 -2 24 -12 45 -23 37 -19 37 -19 90 4 80 35 84 35 127 7 22 -14
48 -26 57 -26 35 0 428 155 430 170 8 46 -11 42 -213 -34 -110 -42 -206 -76
-214 -76 -8 0 -23 7 -33 14 -16 12 3 26 183 132 110 65 200 124 200 130 0 6
-6 17 -14 23 -18 15 -21 14 -238 -117 -90 -54 -170 -99 -178 -99 -8 0 -22 -4
-30 -7 -15 -6 -60 18 -50 27 3 2 96 77 208 166 111 90 202 165 202 168 0 10
-21 43 -28 42 -4 0 -106 -81 -227 -179z"/>
<path d="M81 1096 c-57 -32 -68 -111 -22 -157 63 -62 171 -20 171 66 0 29 -8
45 -34 71 -37 37 -73 43 -115 20z"/>
<path d="M210 211 c-54 -28 -72 -52 -50 -66 6 -3 31 5 56 19 57 32 64 32 122
1 58 -31 68 -31 126 0 58 31 66 31 124 0 26 -14 54 -25 63 -25 9 0 37 11 63
25 26 14 54 25 62 25 8 0 36 -11 62 -25 58 -31 66 -31 124 0 58 31 66 31 125
0 54 -29 79 -27 148 12 48 26 50 30 36 52 -8 13 -18 11 -59 -12 -61 -33 -65
-33 -126 -2 -61 31 -62 31 -120 0 -59 -31 -75 -31 -134 0 -58 31 -58 31 -116
0 -59 -31 -73 -31 -132 0 -58 31 -60 31 -118 0 -26 -14 -56 -25 -66 -25 -10 0
-40 11 -66 25 -26 14 -52 25 -58 25 -6 0 -36 -13 -66 -29z"/>
</g>
</svg>
