<?xml version="1.0" standalone="no"?>
<!DOCTYPE svg PUBLIC "-//W3C//DTD SVG 20010904//EN"
 "http://www.w3.org/TR/2001/REC-SVG-20010904/DTD/svg10.dtd">
<svg version="1.0" xmlns="http://www.w3.org/2000/svg"
 width="128.000000pt" height="128.000000pt" viewBox="0 0 128.000000 128.000000"
 preserveAspectRatio="xMidYMid meet">
<g transform="translate(0.000000,128.000000) scale(0.100000,-0.100000)"
fill="#000000" stroke="none">
<path d="M513 1270 c-33 -13 -50 -48 -58 -117 l-7 -63 -88 0 -89 0 -26 -87
c-14 -49 -40 -129 -56 -179 l-30 -92 -44 -12 c-50 -14 -87 -50 -104 -99 -7
-21 -11 -112 -11 -237 l0 -204 90 0 90 0 0 -45 c0 -55 21 -110 48 -124 35 -19
81 -13 107 14 22 21 25 33 25 90 l0 65 133 0 c72 0 196 3 273 7 l142 6 4 -73
c3 -64 7 -75 31 -96 38 -32 90 -32 122 1 21 21 25 33 25 89 l0 65 93 3 92 3 3
180 c5 274 -16 330 -133 356 l-54 12 -42 178 -43 179 -93 0 -93 0 0 61 c0 109
-28 129 -182 128 -57 0 -113 -4 -125 -9z m215 -132 l-3 -43 -87 -3 -88 -3 0
46 0 45 91 0 90 0 -3 -42z m208 -283 c13 -55 23 -106 24 -112 0 -10 -71 -13
-325 -13 -253 0 -325 3 -325 13 0 14 50 198 57 210 2 4 126 6 275 5 l271 -3
23 -100z m-605 -334 c57 -58 25 -152 -54 -154 -69 -2 -111 64 -82 127 29 61
90 73 136 27z m730 0 c71 -71 3 -182 -92 -149 -26 9 -59 60 -59 90 1 23 26 60
51 74 38 21 68 16 100 -15z"/>
</g>
</svg>
