<?xml version="1.0" standalone="no"?>
<!DOCTYPE svg PUBLIC "-//W3C//DTD SVG 20010904//EN"
 "http://www.w3.org/TR/2001/REC-SVG-20010904/DTD/svg10.dtd">
<svg version="1.0" xmlns="http://www.w3.org/2000/svg"
 width="128.000000pt" height="128.000000pt" viewBox="0 0 128.000000 128.000000"
 preserveAspectRatio="xMidYMid meet">
<g transform="translate(0.000000,128.000000) scale(0.100000,-0.100000)"
fill="#000000" stroke="none">
<path d="M854 1245 c-61 -30 -109 -74 -431 -397 -323 -324 -365 -370 -392
-428 -52 -109 -37 -204 43 -280 l37 -35 159 161 160 161 0 81 0 81 131 130
130 131 80 0 81 0 161 160 162 159 -35 36 c-81 84 -174 97 -286 40z"/>
<path d="M1079 965 c-85 -86 -156 -161 -158 -167 -5 -16 29 -38 58 -37 52 1
93 26 180 111 65 64 93 98 100 125 16 56 13 88 -8 107 -18 16 -25 10 -172
-139z"/>
<path d="M321 209 c-152 -156 -154 -159 -136 -179 42 -47 111 -20 223 88 85
83 112 127 112 185 0 29 -26 70 -41 66 -2 -1 -73 -73 -158 -160z"/>
</g>
</svg>
