<?xml version="1.0" standalone="no"?>
<!DOCTYPE svg PUBLIC "-//W3C//DTD SVG 20010904//EN"
 "http://www.w3.org/TR/2001/REC-SVG-20010904/DTD/svg10.dtd">
<svg version="1.0" xmlns="http://www.w3.org/2000/svg"
 width="128.000000pt" height="128.000000pt" viewBox="0 0 128.000000 128.000000"
 preserveAspectRatio="xMidYMid meet">
<g transform="translate(0.000000,128.000000) scale(0.100000,-0.100000)"
fill="#000000" stroke="none">
<path d="M0 933 c0 -367 4 -397 56 -493 57 -104 159 -161 294 -164 41 0 87 2
103 7 24 7 27 12 27 53 l0 46 -32 -8 c-18 -4 -62 -7 -97 -6 -83 1 -163 40
-203 97 -50 72 -58 132 -58 418 0 243 1 259 18 251 151 -66 299 -77 435 -30
42 14 82 26 87 26 6 0 10 -22 10 -48 0 -45 2 -49 33 -60 58 -21 57 -23 57 119
0 121 -1 131 -17 126 -10 -3 -57 -20 -104 -36 -171 -61 -314 -60 -498 4 -55
19 -103 35 -106 35 -3 0 -5 -152 -5 -337z"/>
<path d="M165 975 c-38 -37 -35 -95 6 -129 41 -35 83 -34 120 3 37 37 38 79 3
120 -34 41 -92 44 -129 6z"/>
<path d="M550 659 c0 -362 4 -400 48 -484 28 -55 97 -120 157 -147 40 -18 68
-22 145 -23 52 0 116 6 141 13 64 19 135 77 175 142 56 91 64 151 64 519 0
304 -1 323 -17 316 -159 -67 -306 -93 -432 -76 -69 9 -196 46 -263 75 -17 8
-18 -12 -18 -335z m263 59 c34 -18 46 -39 47 -81 0 -97 -128 -122 -166 -32
-32 77 47 152 119 113z m305 -24 c31 -36 29 -79 -7 -115 -38 -38 -87 -39 -125
-4 -47 44 -30 124 34 148 28 11 75 -3 98 -29z m-32 -366 c-4 -18 -19 -49 -35
-68 -86 -106 -218 -98 -292 19 -53 82 -55 81 152 81 l182 0 -7 -32z"/>
<path d="M274 666 c-17 -7 -40 -27 -51 -42 -23 -32 -45 -102 -37 -116 3 -4 70
-8 150 -8 l144 0 0 74 c0 56 -4 77 -16 87 -24 19 -151 23 -190 5z"/>
</g>
</svg>
