<?xml version="1.0" standalone="no"?>
<!DOCTYPE svg PUBLIC "-//W3C//DTD SVG 20010904//EN"
 "http://www.w3.org/TR/2001/REC-SVG-20010904/DTD/svg10.dtd">
<svg version="1.0" xmlns="http://www.w3.org/2000/svg"
 width="128.000000pt" height="128.000000pt" viewBox="0 0 128.000000 128.000000"
 preserveAspectRatio="xMidYMid meet">
<g transform="translate(0.000000,128.000000) scale(0.100000,-0.100000)"
fill="#000000" stroke="none">
<path d="M570 640 l0 -640 70 0 70 0 -2 638 -3 637 -67 3 -68 3 0 -641z"/>
<path d="M149 1157 c-91 -61 -66 -206 41 -238 53 -16 123 10 151 55 23 38 25
108 3 146 -37 62 -131 80 -195 37z"/>
<path d="M979 1165 c-40 -21 -63 -64 -63 -117 -2 -108 118 -172 210 -111 75
49 71 181 -6 227 -34 20 -106 20 -141 1z"/>
<path d="M81 794 c-45 -37 -42 -73 12 -143 46 -61 66 -92 67 -104 0 -5 -29
-39 -65 -76 -63 -66 -95 -125 -95 -177 0 -23 2 -24 80 -24 l80 0 0 -135 0
-135 70 0 70 0 0 135 0 134 78 3 77 3 -3 35 c-6 58 -28 98 -92 164 -33 34 -60
69 -60 78 0 8 25 47 55 87 30 40 55 79 55 87 0 24 -29 73 -49 84 -11 5 -71 10
-135 10 -109 0 -116 -1 -145 -26z"/>
<path d="M848 789 c-28 -27 -30 -34 -24 -75 3 -25 31 -105 62 -177 92 -218 94
-227 94 -392 l0 -145 70 0 70 0 0 148 c0 81 5 165 11 187 6 22 37 101 69 175
77 178 87 218 66 258 -9 17 -25 36 -35 42 -11 6 -91 10 -186 10 l-167 0 -30
-31z"/>
</g>
</svg>
