<?xml version="1.0" standalone="no"?>
<!DOCTYPE svg PUBLIC "-//W3C//DTD SVG 20010904//EN"
 "http://www.w3.org/TR/2001/REC-SVG-20010904/DTD/svg10.dtd">
<svg version="1.0" xmlns="http://www.w3.org/2000/svg"
 width="128.000000pt" height="128.000000pt" viewBox="0 0 128.000000 128.000000"
 preserveAspectRatio="xMidYMid meet">
<g transform="translate(0.000000,128.000000) scale(0.100000,-0.100000)"
fill="#000000" stroke="none">
<path d="M573 1237 l-63 -42 0 -127 0 -128 -168 0 -168 0 -42 -43 c-36 -37
-42 -49 -42 -85 l0 -42 550 0 550 0 0 42 c0 36 -6 48 -42 85 l-42 43 -168 0
-168 0 0 128 0 127 -62 40 c-34 22 -64 41 -67 42 -3 1 -34 -17 -68 -40z m111
-109 c34 -48 10 -101 -44 -101 -36 0 -70 31 -70 64 0 52 85 79 114 37z"/>
<path d="M170 509 l0 -170 -40 -59 c-37 -54 -40 -64 -40 -124 l0 -66 550 0
550 0 0 66 c0 60 -3 70 -40 124 l-40 59 0 170 0 171 -470 0 -470 0 0 -171z
m255 -104 l0 -190 -42 -3 -43 -3 0 196 0 196 43 -3 42 -3 0 -190z m255 0 l0
-195 -40 0 -40 0 0 195 0 195 40 0 40 0 0 -195z m260 -1 l0 -195 -42 3 -43 3
-3 180 c-1 98 0 185 2 192 3 8 22 13 46 13 l40 0 0 -196z"/>
</g>
</svg>
