<?xml version="1.0" standalone="no"?>
<!DOCTYPE svg PUBLIC "-//W3C//DTD SVG 20010904//EN"
 "http://www.w3.org/TR/2001/REC-SVG-20010904/DTD/svg10.dtd">
<svg version="1.0" xmlns="http://www.w3.org/2000/svg"
 width="128.000000pt" height="128.000000pt" viewBox="0 0 128.000000 128.000000"
 preserveAspectRatio="xMidYMid meet">
<g transform="translate(0.000000,128.000000) scale(0.100000,-0.100000)"
fill="#000000" stroke="none">
<path d="M280 1124 c-101 -44 -160 -164 -131 -270 6 -22 27 -60 48 -83 28 -33
38 -56 44 -95 3 -28 18 -76 33 -105 14 -30 26 -56 26 -57 0 -1 -20 -4 -45 -6
-55 -7 -87 -27 -125 -80 -58 -79 -33 -199 52 -255 34 -23 53 -28 104 -28 55 0
67 4 101 31 57 46 78 89 77 155 l-1 56 40 -14 c82 -28 225 -26 304 4 12 5 14
0 9 -25 -9 -37 9 -108 36 -142 34 -43 88 -70 143 -70 63 0 110 24 153 79 27
36 32 51 32 97 0 96 -62 173 -152 189 -21 4 -38 8 -38 10 0 1 11 22 24 46 14
24 29 70 34 102 6 41 15 62 30 73 29 20 69 91 77 137 18 95 -29 194 -114 240
-64 36 -148 37 -212 4 -40 -20 -57 -22 -179 -21 -118 1 -140 4 -177 22 -51 26
-140 29 -193 6z m140 -71 c0 -3 -27 -30 -59 -60 -39 -35 -69 -73 -87 -111
l-27 -57 -15 35 c-26 64 1 144 63 181 29 18 125 27 125 12z m588 -13 c66 -40
91 -125 56 -191 l-15 -31 -28 59 c-18 38 -49 77 -89 114 -33 31 -58 60 -55 63
14 14 100 5 131 -14z m-204 -55 c170 -86 221 -287 110 -432 -90 -119 -281
-157 -427 -85 -112 55 -167 141 -167 257 1 106 45 186 134 243 65 41 113 52
207 49 71 -3 96 -8 143 -32z m-454 -580 c63 -57 35 -166 -47 -181 -41 -8 -87
10 -108 42 -17 27 -20 86 -5 114 26 49 118 63 160 25z m723 -15 c87 -96 -42
-228 -141 -145 -38 32 -48 72 -28 119 29 70 116 83 169 26z"/>
<path d="M480 750 c-24 -24 -25 -43 -4 -64 18 -19 55 -21 72 -4 17 17 15 54
-4 72 -21 21 -40 20 -64 -4z"/>
<path d="M717 752 c-34 -37 -15 -82 33 -82 49 0 68 51 32 83 -24 22 -45 21
-65 -1z"/>
<path d="M574 595 c-19 -15 -19 -15 4 -35 17 -14 22 -26 17 -40 -8 -24 7 -26
26 -4 11 14 13 14 21 0 5 -9 16 -16 23 -16 17 0 20 16 5 25 -15 9 -12 25 4 25
19 0 29 30 15 46 -15 19 -90 18 -115 -1z"/>
</g>
</svg>
