<?xml version="1.0" standalone="no"?>
<!DOCTYPE svg PUBLIC "-//W3C//DTD SVG 20010904//EN"
 "http://www.w3.org/TR/2001/REC-SVG-20010904/DTD/svg10.dtd">
<svg version="1.0" xmlns="http://www.w3.org/2000/svg"
 width="128.000000pt" height="128.000000pt" viewBox="0 0 128.000000 128.000000"
 preserveAspectRatio="xMidYMid meet">
<g transform="translate(0.000000,128.000000) scale(0.100000,-0.100000)"
fill="#000000" stroke="none">
<path d="M68 1254 c-59 -31 -58 -22 -58 -625 l0 -551 34 -34 34 -34 556 0
c378 0 563 3 579 11 13 6 31 23 40 39 15 25 17 83 17 577 0 530 -1 549 -20
581 -11 18 -32 37 -46 42 -15 6 -238 10 -567 10 -460 -1 -546 -3 -569 -16z
m897 -333 c50 -22 91 -69 105 -119 5 -20 10 -112 10 -204 l0 -168 59 0 c43 0
60 -4 65 -15 5 -13 -25 -15 -234 -15 -215 0 -240 2 -240 16 0 29 -40 81 -74
98 -76 36 -155 6 -191 -72 l-19 -42 -121 0 c-134 0 -170 12 -200 69 -24 47
-21 311 4 367 19 43 63 80 109 94 15 5 176 9 357 9 300 1 334 -1 370 -18z
m-304 -460 c23 -24 29 -38 29 -74 0 -38 -5 -49 -31 -71 -52 -44 -125 -33 -154
24 -24 46 -19 78 19 116 45 45 95 47 137 5z"/>
<path d="M254 806 c-3 -7 -4 -35 -2 -62 l3 -49 159 -3 c111 -2 163 1 173 9 9
8 13 28 11 63 l-3 51 -168 3 c-136 2 -168 0 -173 -12z"/>
<path d="M764 783 c-4 -20 -3 -48 2 -62 9 -25 12 -26 99 -26 l90 0 5 45 c9 80
10 80 -96 80 l-93 0 -7 -37z"/>
<path d="M560 415 c-15 -19 -6 -61 16 -69 18 -7 64 18 64 35 0 42 -54 65 -80
34z"/>
</g>
</svg>
