<?xml version="1.0" standalone="no"?>
<!DOCTYPE svg PUBLIC "-//W3C//DTD SVG 20010904//EN"
 "http://www.w3.org/TR/2001/REC-SVG-20010904/DTD/svg10.dtd">
<svg version="1.0" xmlns="http://www.w3.org/2000/svg"
 width="128.000000pt" height="128.000000pt" viewBox="0 0 128.000000 128.000000"
 preserveAspectRatio="xMidYMid meet">
<g transform="translate(0.000000,128.000000) scale(0.100000,-0.100000)"
fill="#000000" stroke="none">
<path d="M612 1168 c-7 -7 -12 -40 -12 -80 l0 -68 -209 0 c-207 0 -210 0 -238
-24 l-28 -24 0 -276 0 -276 28 -27 c27 -27 31 -28 162 -33 l134 -5 -55 -95
c-59 -103 -65 -135 -24 -135 21 0 35 16 87 105 34 58 67 113 73 123 9 14 26
17 108 17 l98 0 71 -122 c58 -101 75 -124 96 -126 46 -6 42 27 -18 129 -30 52
-55 97 -55 101 0 3 61 8 135 10 132 3 135 4 162 31 l28 27 0 276 0 276 -28 24
c-28 24 -31 24 -238 24 l-209 0 0 68 c0 69 -10 92 -40 92 -9 0 -21 -5 -28 -12z
m468 -473 l0 -255 -440 0 -440 0 0 255 0 255 440 0 440 0 0 -255z"/>
<path d="M401 796 c-7 -8 -10 -24 -6 -36 6 -19 13 -20 239 -20 201 0 235 2
247 16 9 11 10 20 2 32 -9 15 -38 17 -240 20 -193 2 -232 0 -242 -12z"/>
<path d="M401 636 c-7 -8 -10 -24 -6 -36 6 -19 13 -20 239 -20 201 0 235 2
247 16 9 11 10 20 2 32 -9 15 -38 17 -240 20 -193 2 -232 0 -242 -12z"/>
</g>
</svg>
