<?xml version="1.0" standalone="no"?>
<!DOCTYPE svg PUBLIC "-//W3C//DTD SVG 20010904//EN"
 "http://www.w3.org/TR/2001/REC-SVG-20010904/DTD/svg10.dtd">
<svg version="1.0" xmlns="http://www.w3.org/2000/svg"
 width="128.000000pt" height="128.000000pt" viewBox="0 0 128.000000 128.000000"
 preserveAspectRatio="xMidYMid meet">
<g transform="translate(0.000000,128.000000) scale(0.100000,-0.100000)"
fill="#000000" stroke="none">
<path d="M350 1087 c-156 -109 -276 -200 -278 -210 -9 -48 -16 -47 568 -47
584 0 577 -1 568 47 -4 20 -544 402 -568 402 -8 0 -139 -86 -290 -192z"/>
<path d="M243 730 c-37 -15 -45 -68 -41 -268 3 -179 4 -184 27 -203 15 -12 39
-19 66 -19 35 0 48 5 64 26 20 25 21 40 21 226 0 198 0 199 -25 223 -25 26
-70 32 -112 15z"/>
<path d="M486 718 c-23 -33 -23 -423 0 -456 17 -25 71 -31 92 -10 9 9 12 76
12 240 0 214 -1 228 -19 238 -32 17 -69 12 -85 -12z"/>
<path d="M713 728 c-12 -6 -25 -18 -29 -27 -10 -22 -18 -322 -9 -377 9 -61 33
-84 90 -84 33 0 50 6 65 22 19 20 20 34 20 225 0 203 0 204 -25 228 -26 27
-72 32 -112 13z"/>
<path d="M946 718 c-13 -19 -16 -58 -16 -228 0 -232 5 -250 64 -250 17 0 37 5
44 12 9 9 12 76 12 240 0 214 -1 228 -19 238 -32 17 -69 12 -85 -12z"/>
<path d="M92 160 c-31 -29 -31 -111 0 -140 21 -20 32 -20 550 -20 515 0 529 1
548 20 29 29 28 112 -2 140 -21 20 -32 20 -548 20 -516 0 -527 0 -548 -20z"/>
</g>
</svg>
