<?xml version="1.0" standalone="no"?>
<!DOCTYPE svg PUBLIC "-//W3C//DTD SVG 20010904//EN"
 "http://www.w3.org/TR/2001/REC-SVG-20010904/DTD/svg10.dtd">
<svg version="1.0" xmlns="http://www.w3.org/2000/svg"
 width="128.000000pt" height="128.000000pt" viewBox="0 0 128.000000 128.000000"
 preserveAspectRatio="xMidYMid meet">
<g transform="translate(0.000000,128.000000) scale(0.100000,-0.100000)"
fill="#000000" stroke="none">
<path d="M200 1260 c-11 -11 -20 -24 -20 -30 0 -5 9 -19 20 -30 19 -19 33 -20
210 -20 177 0 191 1 210 20 26 26 25 45 -2 64 -18 13 -56 16 -210 16 -175 0
-189 -1 -208 -20z"/>
<path d="M1003 1268 c-6 -7 -36 -79 -68 -160 -32 -82 -61 -148 -64 -148 -4 0
-16 28 -27 63 l-20 62 -48 3 c-43 3 -48 1 -42 -15 4 -10 26 -71 48 -136 l41
-118 45 3 45 3 88 220 c49 121 89 223 89 228 0 12 -77 8 -87 -5z"/>
<path d="M190 1071 c-12 -24 -4 -48 21 -61 10 -6 101 -10 202 -10 166 0 187 2
208 19 21 16 22 22 11 45 l-12 26 -209 0 c-197 0 -211 -1 -221 -19z"/>
<path d="M188 885 c-9 -21 -8 -28 7 -45 17 -19 31 -20 215 -20 184 0 198 1
215 20 15 17 16 24 7 45 l-12 25 -210 0 -210 0 -12 -25z"/>
<path d="M320 595 c-37 -112 -48 -137 -66 -141 -12 -3 -33 -17 -46 -31 -22
-24 -23 -31 -23 -176 l0 -152 42 -3 c35 -3 43 -7 53 -33 16 -37 46 -59 83 -59
41 0 67 17 83 56 l14 34 180 0 c157 0 180 -2 180 -16 0 -8 13 -29 29 -45 39
-39 92 -40 126 -3 14 15 25 35 25 45 0 16 8 19 45 19 l45 0 0 154 c0 139 -2
156 -20 179 -11 14 -30 27 -43 29 -19 3 -29 23 -68 138 l-46 135 -274 3 -275
2 -44 -135z m525 -38 c14 -46 25 -86 25 -90 0 -4 -106 -7 -235 -7 -129 0 -235
1 -235 3 0 3 44 136 55 165 3 9 49 12 184 12 l180 0 26 -83z m-437 -233 c27
-18 30 -69 5 -96 -36 -40 -113 -12 -113 41 0 61 57 91 108 55z m552 -6 c40
-43 11 -108 -48 -108 -60 0 -88 56 -52 103 27 34 71 36 100 5z"/>
</g>
</svg>
