<?xml version="1.0" standalone="no"?>
<!DOCTYPE svg PUBLIC "-//W3C//DTD SVG 20010904//EN"
 "http://www.w3.org/TR/2001/REC-SVG-20010904/DTD/svg10.dtd">
<svg version="1.0" xmlns="http://www.w3.org/2000/svg"
 width="128.000000pt" height="128.000000pt" viewBox="0 0 128.000000 128.000000"
 preserveAspectRatio="xMidYMid meet">
<g transform="translate(0.000000,128.000000) scale(0.100000,-0.100000)"
fill="#000000" stroke="none">
<path d="M250 640 l0 -570 390 0 390 0 0 570 0 570 -390 0 -390 0 0 -570z
m570 100 l0 -420 -262 0 -263 0 0 420 0 420 263 0 262 0 0 -420z m160 300 l0
-80 -60 0 -60 0 0 80 0 80 60 0 60 0 0 -80z m-20 -140 c0 -17 -7 -20 -40 -20
-33 0 -40 3 -40 20 0 17 7 20 40 20 33 0 40 -3 40 -20z m0 -80 c0 -17 -7 -20
-40 -20 -33 0 -40 3 -40 20 0 17 7 20 40 20 33 0 40 -3 40 -20z m0 -440 c0
-17 -7 -20 -40 -20 -33 0 -40 3 -40 20 0 17 7 20 40 20 33 0 40 -3 40 -20z
m-140 -185 l0 -75 -262 0 -263 0 0 75 0 75 263 0 262 0 0 -75z"/>
<path d="M568 1068 c-9 -7 -18 -24 -20 -38 -2 -20 -9 -26 -35 -28 -31 -3 -33
-1 -33 27 0 29 -2 31 -40 31 -38 0 -40 -2 -40 -30 0 -23 -4 -30 -20 -30 -13 0
-20 -7 -20 -20 0 -19 7 -20 200 -20 193 0 200 1 200 20 0 18 -7 20 -80 20
l-80 0 0 40 c0 42 -6 48 -32 28z"/>
<path d="M642 893 c-7 -3 -17 -16 -22 -29 -9 -24 -12 -24 -135 -24 -118 0
-125 -1 -125 -20 0 -19 7 -20 200 -20 193 0 200 1 200 20 0 15 -7 20 -29 20
-20 0 -30 6 -34 19 -5 22 -36 40 -55 34z"/>
<path d="M520 720 l0 -40 -40 0 c-33 0 -40 3 -40 20 0 10 -9 24 -20 30 -18 10
-20 8 -20 -20 0 -23 -4 -30 -20 -30 -13 0 -20 -7 -20 -20 0 -19 7 -20 200 -20
193 0 200 1 200 20 0 16 -7 20 -30 20 -27 0 -30 3 -30 30 0 27 -3 30 -30 30
-27 0 -30 -3 -30 -30 0 -28 -2 -30 -40 -30 l-40 0 0 40 c0 33 -3 40 -20 40
-17 0 -20 -7 -20 -40z"/>
<path d="M398 579 c-10 -5 -18 -19 -18 -29 0 -10 -4 -22 -10 -25 -5 -3 -10
-15 -10 -26 0 -18 9 -19 200 -19 193 0 200 1 200 20 0 18 -7 20 -80 20 l-80 0
0 30 c0 28 -2 30 -40 30 -38 0 -40 -2 -40 -30 0 -27 -3 -30 -30 -30 -22 0 -30
5 -30 18 0 11 -8 26 -18 35 -21 20 -21 20 -44 6z"/>
<path d="M904 1066 c-10 -25 0 -61 19 -64 14 -3 17 4 17 37 0 30 -4 41 -15 41
-9 0 -18 -6 -21 -14z"/>
<path d="M340 195 l0 -35 217 2 217 3 0 30 0 30 -217 3 -217 2 0 -35z"/>
</g>
</svg>
