<?xml version="1.0" standalone="no"?>
<!DOCTYPE svg PUBLIC "-//W3C//DTD SVG 20010904//EN"
 "http://www.w3.org/TR/2001/REC-SVG-20010904/DTD/svg10.dtd">
<svg version="1.0" xmlns="http://www.w3.org/2000/svg"
 width="128.000000pt" height="128.000000pt" viewBox="0 0 128.000000 128.000000"
 preserveAspectRatio="xMidYMid meet">
<g transform="translate(0.000000,128.000000) scale(0.100000,-0.100000)"
fill="#000000" stroke="none">
<path d="M414 1259 c-38 -11 -62 -37 -80 -86 -28 -81 -8 -190 44 -237 12 -10
41 -21 66 -23 42 -5 48 -3 80 29 116 116 32 358 -110 317z"/>
<path d="M787 1259 c-40 -11 -58 -28 -80 -78 -39 -88 -16 -213 47 -254 58 -39
141 -5 172 70 30 70 8 202 -38 241 -25 20 -70 30 -101 21z"/>
<path d="M98 997 c-36 -31 -48 -58 -48 -113 0 -82 63 -174 118 -174 60 0 122
78 122 153 0 118 -115 199 -192 134z"/>
<path d="M1080 1009 c-105 -22 -123 -221 -26 -280 60 -37 115 -14 152 64 60
129 -6 242 -126 216z"/>
<path d="M575 858 c-128 -17 -251 -110 -311 -235 -38 -81 -44 -195 -16 -289
97 -315 522 -387 718 -122 57 78 79 144 79 243 0 99 -22 165 -80 244 -91 123
-230 180 -390 159z m155 -218 l0 -90 90 0 90 0 0 -95 0 -95 -90 0 -89 0 -3
-87 -3 -88 -87 -3 -88 -3 0 90 0 90 -92 3 -93 3 0 90 0 90 93 3 92 3 0 89 0
90 90 0 90 0 0 -90z"/>
</g>
</svg>
