<?xml version="1.0" standalone="no"?>
<!DOCTYPE svg PUBLIC "-//W3C//DTD SVG 20010904//EN"
 "http://www.w3.org/TR/2001/REC-SVG-20010904/DTD/svg10.dtd">
<svg version="1.0" xmlns="http://www.w3.org/2000/svg"
 width="128.000000pt" height="128.000000pt" viewBox="0 0 128.000000 128.000000"
 preserveAspectRatio="xMidYMid meet">
<g transform="translate(0.000000,128.000000) scale(0.100000,-0.100000)"
fill="#000000" stroke="none">
<path d="M364 1203 c-11 -23 -21 -67 -24 -113 l-5 -75 -107 -3 -108 -3 0 -74
0 -75 170 0 170 0 0 190 0 190 -38 0 c-34 0 -40 -4 -58 -37z"/>
<path d="M578 1194 c-5 -4 -8 -79 -8 -166 l0 -158 24 0 c13 0 35 -9 49 -21
l27 -20 2 -192 3 -192 194 -3 c107 -1 198 1 202 5 10 10 -112 516 -136 568
-29 60 -106 130 -169 154 -59 22 -176 38 -188 25z"/>
<path d="M0 350 l0 -30 640 0 640 0 0 30 0 30 -640 0 -640 0 0 -30z"/>
<path d="M514 246 c-3 -8 -4 -29 -2 -48 l3 -33 318 -3 318 -2 -3 47 -3 48
-313 3 c-262 2 -313 0 -318 -12z"/>
<path d="M510 85 l0 -45 320 0 320 0 0 45 0 45 -320 0 -320 0 0 -45z"/>
</g>
</svg>
