<?xml version="1.0" standalone="no"?>
<!DOCTYPE svg PUBLIC "-//W3C//DTD SVG 20010904//EN"
 "http://www.w3.org/TR/2001/REC-SVG-20010904/DTD/svg10.dtd">
<svg version="1.0" xmlns="http://www.w3.org/2000/svg"
 width="128.000000pt" height="128.000000pt" viewBox="0 0 128.000000 128.000000"
 preserveAspectRatio="xMidYMid meet">
<g transform="translate(0.000000,128.000000) scale(0.100000,-0.100000)"
fill="#000000" stroke="none">
<path d="M549 1185 l-76 -75 -79 0 -80 0 -73 -74 c-40 -40 -69 -75 -65 -77 5
-2 218 -3 473 -1 l463 2 -76 75 -76 75 -78 0 -78 0 -74 75 c-41 41 -81 75 -90
75 -8 0 -49 -34 -91 -75z"/>
<path d="M166 792 c-4 -8 10 -93 33 -197 5 -22 15 -67 21 -100 6 -33 15 -78
20 -100 5 -22 13 -65 19 -95 42 -216 53 -267 57 -282 5 -17 29 -18 323 -18
l317 0 23 117 c28 144 40 206 51 258 4 22 13 67 20 100 7 33 16 78 20 100 4
22 14 67 20 100 7 33 13 74 14 90 l1 30 -467 3 c-257 1 -469 -2 -472 -6z"/>
</g>
</svg>
