<?xml version="1.0" standalone="no"?>
<!DOCTYPE svg PUBLIC "-//W3C//DTD SVG 20010904//EN"
 "http://www.w3.org/TR/2001/REC-SVG-20010904/DTD/svg10.dtd">
<svg version="1.0" xmlns="http://www.w3.org/2000/svg"
 width="128.000000pt" height="128.000000pt" viewBox="0 0 128.000000 128.000000"
 preserveAspectRatio="xMidYMid meet">
<g transform="translate(0.000000,128.000000) scale(0.100000,-0.100000)"
fill="#000000" stroke="none">
<path d="M548 1138 l-3 -43 -138 -3 -138 -3 3 -42 3 -42 363 -3 362 -2 0 45 0
45 -135 0 -135 0 0 45 0 45 -89 0 -90 0 -3 -42z"/>
<path d="M275 793 c7 -40 40 -334 66 -580 l23 -213 273 0 273 0 4 22 c4 18 45
391 83 751 l6 47 -366 0 -366 0 4 -27z m275 -383 l0 -320 -45 0 -45 0 0 320 0
320 45 0 45 0 0 -320z m270 0 l0 -320 -45 0 -45 0 0 320 0 320 45 0 45 0 0
-320z"/>
</g>
</svg>
