<?xml version="1.0" standalone="no"?>
<!DOCTYPE svg PUBLIC "-//W3C//DTD SVG 20010904//EN"
 "http://www.w3.org/TR/2001/REC-SVG-20010904/DTD/svg10.dtd">
<svg version="1.0" xmlns="http://www.w3.org/2000/svg"
 width="128.000000pt" height="128.000000pt" viewBox="0 0 128.000000 128.000000"
 preserveAspectRatio="xMidYMid meet">
<g transform="translate(0.000000,128.000000) scale(0.100000,-0.100000)"
fill="#000000" stroke="none">
<path d="M557 1173 c-124 -150 -200 -284 -227 -402 -29 -123 13 -274 97 -352
46 -42 107 -74 123 -64 23 14 9 45 -29 64 -116 60 -170 218 -125 372 28 97
115 239 224 368 l20 23 20 -23 c64 -75 140 -183 170 -241 38 -73 57 -89 77
-62 10 14 7 26 -14 68 -60 118 -221 326 -253 326 -11 0 -45 -33 -83 -77z"/>
<path d="M875 774 c-177 -56 -300 -256 -255 -413 7 -24 6 -39 -1 -48 -6 -7 -9
-19 -6 -27 4 -10 32 -13 129 -12 113 1 127 3 180 29 121 59 200 175 206 302 4
88 -13 145 -50 163 -44 21 -146 24 -203 6z m181 -66 c25 -25 22 -132 -5 -194
-26 -58 -90 -128 -144 -155 -46 -24 -122 -39 -160 -32 l-28 6 27 28 c23 24 36
29 76 29 36 0 50 4 57 18 11 21 -3 42 -28 42 -10 0 -8 7 9 25 19 20 33 25 71
25 56 0 74 24 39 50 l-21 16 20 19 c24 21 26 38 7 54 -11 9 -20 6 -44 -14 -29
-24 -30 -24 -35 -4 -4 15 -12 20 -29 17 -20 -3 -23 -9 -26 -53 -2 -27 -10 -58
-19 -67 -16 -18 -39 -25 -29 -9 8 13 -21 34 -39 27 -10 -4 -15 -20 -15 -53 0
-37 -5 -53 -27 -75 -15 -15 -30 -28 -35 -28 -14 0 -9 83 8 140 20 68 115 168
184 193 57 21 163 18 186 -5z"/>
<path d="M440 705 c-27 -33 14 -153 66 -194 54 -43 71 -1 24 58 -20 25 -34 54
-37 82 -8 64 -28 84 -53 54z"/>
<path d="M187 496 c-62 -26 -74 -34 -125 -80 -127 -116 -53 -252 179 -330 224
-75 574 -75 798 0 151 51 241 130 241 214 0 39 -13 65 -53 108 -61 64 -102 27
-43 -38 46 -51 47 -86 5 -135 -142 -161 -723 -199 -1004 -65 -75 36 -125 88
-125 130 0 43 51 94 128 131 37 17 74 34 82 39 22 11 19 45 -5 47 -11 2 -46
-8 -78 -21z"/>
<path d="M250 399 c-66 -30 -90 -56 -90 -99 0 -98 175 -155 480 -155 235 0
389 33 457 97 26 24 32 85 11 106 -30 30 -74 -1 -48 -33 44 -53 -181 -115
-420 -115 -187 0 -383 40 -421 87 -11 13 -10 18 10 34 13 10 45 27 72 36 39
14 49 22 49 40 0 30 -37 31 -100 2z"/>
</g>
</svg>
