<?xml version="1.0" standalone="no"?>
<!DOCTYPE svg PUBLIC "-//W3C//DTD SVG 20010904//EN"
 "http://www.w3.org/TR/2001/REC-SVG-20010904/DTD/svg10.dtd">
<svg version="1.0" xmlns="http://www.w3.org/2000/svg"
 width="128.000000pt" height="128.000000pt" viewBox="0 0 128.000000 128.000000"
 preserveAspectRatio="xMidYMid meet">
<g transform="translate(0.000000,128.000000) scale(0.100000,-0.100000)"
fill="#000000" stroke="none">
<path d="M440 1164 c-80 -35 -159 -64 -176 -64 -48 0 -55 -16 -52 -124 l3 -97
47 33 48 33 0 60 0 61 156 54 c85 30 157 57 160 62 7 12 -15 48 -29 47 -7 0
-77 -30 -157 -65z"/>
<path d="M600 1030 c-211 -45 -373 -138 -420 -242 -18 -39 -20 -68 -20 -326 0
-319 3 -337 64 -366 47 -22 84 -14 122 25 l29 30 0 281 1 280 24 19 c37 28
175 79 261 97 72 14 79 14 115 -4 28 -13 45 -32 59 -61 l19 -43 104 0 104 0
-6 48 c-17 120 -107 226 -223 262 -79 24 -122 24 -233 0z"/>
<path d="M800 670 l0 -29 82 -3 c54 -2 83 -7 86 -15 3 -10 -18 -13 -82 -13
-79 0 -86 -2 -86 -20 0 -19 7 -20 160 -20 l160 0 0 65 0 65 -160 0 -160 0 0
-30z"/>
<path d="M887 345 c-72 -145 -79 -180 -48 -231 49 -80 185 -83 240 -5 41 58
38 78 -40 230 -40 78 -75 141 -79 141 -3 0 -36 -61 -73 -135z"/>
</g>
</svg>
