<?xml version="1.0" standalone="no"?>
<!DOCTYPE svg PUBLIC "-//W3C//DTD SVG 20010904//EN"
 "http://www.w3.org/TR/2001/REC-SVG-20010904/DTD/svg10.dtd">
<svg version="1.0" xmlns="http://www.w3.org/2000/svg"
 width="128.000000pt" height="128.000000pt" viewBox="0 0 128.000000 128.000000"
 preserveAspectRatio="xMidYMid meet">
<g transform="translate(0.000000,128.000000) scale(0.100000,-0.100000)"
fill="#000000" stroke="none">
<path d="M122 1158 c-9 -9 -12 -94 -12 -320 l0 -308 25 0 c19 0 28 -9 43 -43
56 -126 212 -151 307 -49 14 15 30 42 36 59 l11 33 84 0 c74 0 84 -2 84 -18 0
-49 81 -123 148 -136 82 -15 191 50 207 123 6 30 8 31 61 31 l54 0 0 163 0
162 -77 77 -78 77 -80 3 -80 3 -3 65 c-2 35 -8 70 -14 77 -15 18 -698 19 -716
1z m626 -276 c2 -172 1 -185 -18 -213 -21 -29 -22 -29 -118 -29 -96 0 -97 0
-117 29 -48 72 -163 98 -239 53 -20 -12 -39 -22 -42 -22 -7 0 -5 356 3 363 4
4 124 6 267 5 l261 -3 3 -183z m263 -18 c30 -26 56 -50 57 -55 2 -5 -46 -9
-107 -9 l-111 0 0 48 c0 27 3 52 7 55 3 4 27 7 53 7 40 0 53 -6 101 -46z
m-615 -247 c37 -33 37 -81 0 -114 -15 -12 -38 -23 -52 -23 -35 0 -74 42 -74
80 0 38 39 80 74 80 14 0 37 -11 52 -23z m539 -2 c50 -49 15 -135 -55 -135
-41 0 -80 39 -80 80 0 41 39 80 80 80 19 0 40 -9 55 -25z"/>
<path d="M82 165 c-12 -25 -22 -48 -22 -50 0 -3 261 -5 580 -5 319 0 580 2
580 5 0 2 -10 25 -22 50 l-22 45 -536 0 -536 0 -22 -45z"/>
</g>
</svg>
