<?xml version="1.0" standalone="no"?>
<!DOCTYPE svg PUBLIC "-//W3C//DTD SVG 20010904//EN"
 "http://www.w3.org/TR/2001/REC-SVG-20010904/DTD/svg10.dtd">
<svg version="1.0" xmlns="http://www.w3.org/2000/svg"
 width="128.000000pt" height="128.000000pt" viewBox="0 0 128.000000 128.000000"
 preserveAspectRatio="xMidYMid meet">
<g transform="translate(0.000000,128.000000) scale(0.100000,-0.100000)"
fill="#000000" stroke="none">
<path d="M0 1090 l0 -90 180 0 180 0 0 -90 0 -90 -90 0 -90 0 0 -90 0 -90 -90
0 -90 0 0 -320 0 -320 90 0 90 0 0 90 0 90 90 0 90 0 0 -90 0 -90 95 0 95 0 0
90 0 90 90 0 90 0 0 -90 0 -90 90 0 90 0 0 90 0 90 90 0 90 0 0 -90 0 -90 95
0 95 0 -2 318 -3 317 -92 3 -93 3 0 89 0 90 -90 0 -90 0 0 90 0 90 183 2 182
3 3 88 3 87 -186 0 -185 0 0 -90 0 -90 -90 0 -90 0 0 -90 0 -90 -90 0 -90 0 0
90 0 90 -95 0 -95 0 0 90 0 90 -180 0 -180 0 0 -90z m548 -542 l3 -88 -96 0
-95 0 0 83 c0 46 3 87 7 91 4 4 46 5 93 4 l85 -3 3 -87z m362 2 l0 -90 -90 0
-90 0 0 90 0 90 90 0 90 0 0 -90z"/>
</g>
</svg>
