<?xml version="1.0" standalone="no"?>
<!DOCTYPE svg PUBLIC "-//W3C//DTD SVG 20010904//EN"
 "http://www.w3.org/TR/2001/REC-SVG-20010904/DTD/svg10.dtd">
<svg version="1.0" xmlns="http://www.w3.org/2000/svg"
 width="128.000000pt" height="128.000000pt" viewBox="0 0 128.000000 128.000000"
 preserveAspectRatio="xMidYMid meet">
<g transform="translate(0.000000,128.000000) scale(0.100000,-0.100000)"
fill="#000000" stroke="none">
<path d="M555 1251 c-38 -16 -74 -35 -79 -44 -12 -19 8 -47 35 -47 14 0 19 -7
19 -29 0 -28 -2 -29 -217 -105 -120 -42 -239 -84 -266 -93 -44 -16 -47 -19
-47 -53 0 -40 14 -60 42 -60 17 0 18 -15 18 -219 l0 -219 -31 -11 c-29 -10
-30 -13 -27 -58 l3 -48 635 0 635 0 3 48 c3 45 2 48 -27 58 l-31 11 0 219 c0
204 1 219 18 219 28 0 42 20 42 60 0 33 -3 36 -47 52 -27 9 -146 51 -265 94
-216 76 -218 77 -218 105 0 22 5 29 19 29 27 0 47 28 35 47 -10 16 -138 72
-164 72 -8 0 -46 -13 -85 -28z m151 -31 c26 -11 44 -23 41 -26 -3 -3 -52 -2
-109 2 l-103 7 40 18 c53 23 74 23 131 -1z m-6 -85 c0 -24 -3 -25 -60 -25 -57
0 -60 1 -60 25 0 24 3 25 60 25 57 0 60 -1 60 -25z m221 -130 c117 -42 215
-78 218 -80 2 -3 -222 -5 -499 -5 -277 0 -501 2 -498 5 2 3 99 38 214 79 284
101 281 101 565 1z m317 -132 c-3 -17 -40 -18 -598 -18 -558 0 -595 1 -598 18
-3 16 31 17 598 17 567 0 601 -1 598 -17z m-1088 -273 c0 -213 -1 -220 -20
-220 -19 0 -20 7 -20 220 0 213 1 220 20 220 19 0 20 -7 20 -220z m210 115 l0
-106 -82 3 -83 3 -3 103 -3 102 86 0 85 0 0 -105z m90 -115 c0 -213 -1 -220
-20 -220 -19 0 -20 7 -20 220 0 213 1 220 20 220 19 0 20 -7 20 -220z m340 0
l0 -220 -150 0 -150 0 0 220 0 220 150 0 150 0 0 -220z m80 0 c0 -213 -1 -220
-20 -220 -19 0 -20 7 -20 220 0 213 1 220 20 220 19 0 20 -7 20 -220z m218
118 l-3 -103 -82 -3 -83 -3 0 106 0 105 85 0 86 0 -3 -102z m82 -118 c0 -213
-1 -220 -20 -220 -19 0 -20 7 -20 220 0 213 1 220 20 220 19 0 20 -7 20 -220z
m-910 -120 l0 -100 -35 0 -35 0 0 100 0 100 35 0 35 0 0 -100z m100 0 l0 -100
-30 0 -30 0 0 100 0 100 30 0 30 0 0 -100z m620 0 l0 -100 -30 0 -30 0 0 100
0 100 30 0 30 0 0 -100z m110 0 l0 -100 -35 0 -35 0 0 100 0 100 35 0 35 0 0
-100z m150 -165 l0 -25 -600 0 -600 0 0 25 0 25 600 0 600 0 0 -25z"/>
</g>
</svg>
