<?xml version="1.0" standalone="no"?>
<!DOCTYPE svg PUBLIC "-//W3C//DTD SVG 20010904//EN"
 "http://www.w3.org/TR/2001/REC-SVG-20010904/DTD/svg10.dtd">
<svg version="1.0" xmlns="http://www.w3.org/2000/svg"
 width="128.000000pt" height="128.000000pt" viewBox="0 0 128.000000 128.000000"
 preserveAspectRatio="xMidYMid meet">
<g transform="translate(0.000000,128.000000) scale(0.100000,-0.100000)"
fill="#000000" stroke="none">
<path d="M673 1018 c-133 -167 -212 -293 -245 -395 -19 -57 -20 -71 -10 -125
27 -145 119 -241 257 -269 213 -43 414 168 359 378 -19 73 -69 166 -147 276
-71 98 -149 196 -158 197 -3 0 -28 -28 -56 -62z m120 -100 c213 -284 244 -414
130 -547 -46 -54 -103 -82 -178 -89 -78 -6 -148 23 -203 82 -86 94 -93 192
-24 329 43 83 194 297 211 297 5 0 34 -33 64 -72z"/>
<path d="M519 589 c-17 -33 -5 -111 25 -163 50 -86 167 -127 259 -92 82 31
146 119 147 199 0 51 -18 55 -89 23 -32 -14 -70 -26 -83 -26 -13 0 -59 18
-102 40 -89 46 -139 52 -157 19z"/>
<path d="M936 1019 c-61 -72 -40 -153 39 -153 87 0 100 99 22 172 l-24 23 -37
-42z m80 -51 c23 -45 -11 -87 -57 -73 -44 14 -44 59 -1 107 18 21 35 11 58
-34z"/>
<path d="M401 869 c-40 -54 -25 -109 29 -109 30 0 60 27 60 55 0 19 -45 85
-59 85 -4 0 -18 -14 -30 -31z m49 -30 c15 -27 6 -49 -19 -49 -28 0 -36 18 -20
46 15 29 25 30 39 3z"/>
</g>
</svg>
