<?xml version="1.0" standalone="no"?>
<!DOCTYPE svg PUBLIC "-//W3C//DTD SVG 20010904//EN"
 "http://www.w3.org/TR/2001/REC-SVG-20010904/DTD/svg10.dtd">
<svg version="1.0" xmlns="http://www.w3.org/2000/svg"
 width="128.000000pt" height="128.000000pt" viewBox="0 0 128.000000 128.000000"
 preserveAspectRatio="xMidYMid meet">
<g transform="translate(0.000000,128.000000) scale(0.100000,-0.100000)"
fill="#000000" stroke="none">
<path d="M280 1180 l0 -90 120 0 120 0 0 90 0 90 -120 0 -120 0 0 -90z"/>
<path d="M754 1257 c-3 -8 -4 -47 -2 -88 l3 -74 120 0 120 0 0 85 0 85 -118 3
c-92 2 -119 0 -123 -11z"/>
<path d="M151 1018 c-5 -13 -12 -39 -16 -58 -4 -19 -36 -155 -71 -302 l-64
-268 0 -178 c0 -125 4 -182 12 -190 17 -17 399 -17 416 0 9 9 12 78 12 250 l0
238 23 0 c13 0 31 8 40 18 15 16 17 50 17 265 l0 247 -180 0 c-178 0 -181 0
-189 -22z"/>
<path d="M580 815 l0 -225 60 0 60 0 0 225 0 225 -60 0 -60 0 0 -225z"/>
<path d="M757 1034 c-4 -4 -7 -114 -7 -244 0 -257 2 -266 55 -272 l30 -3 3
-239 c1 -156 6 -244 13 -253 9 -10 56 -13 205 -13 162 0 195 3 208 16 13 13
16 44 16 181 l0 165 -54 226 c-30 125 -65 274 -78 332 l-24 105 -180 3 c-99 1
-183 -1 -187 -4z"/>
</g>
</svg>
