<?xml version="1.0" standalone="no"?>
<!DOCTYPE svg PUBLIC "-//W3C//DTD SVG 20010904//EN"
 "http://www.w3.org/TR/2001/REC-SVG-20010904/DTD/svg10.dtd">
<svg version="1.0" xmlns="http://www.w3.org/2000/svg"
 width="128.000000pt" height="128.000000pt" viewBox="0 0 128.000000 128.000000"
 preserveAspectRatio="xMidYMid meet">
<g transform="translate(0.000000,128.000000) scale(0.100000,-0.100000)"
fill="#000000" stroke="none">
<path d="M320 1026 c-194 -151 -195 -152 -198 -194 -3 -41 17 -80 33 -64 4 4
5 2 3 -5 -1 -6 6 -19 17 -28 11 -9 14 -13 6 -9 -23 12 -91 22 -96 14 -5 -9
173 -90 198 -90 10 0 16 -4 12 -9 -3 -6 3 -14 12 -20 43 -25 -2 -7 -98 38 -72
34 -114 49 -137 47 -41 -4 -50 -12 -23 -21 12 -3 19 -10 17 -14 -6 -10 82 -53
94 -46 11 7 41 -5 35 -15 -3 -4 2 -11 11 -14 8 -3 13 -2 10 2 -2 4 4 9 15 9
16 1 18 -1 10 -11 -16 -19 86 -60 108 -43 14 10 14 10 4 -4 -11 -13 -7 -18 23
-32 19 -10 39 -15 44 -12 11 7 41 -5 35 -14 -2 -4 21 -19 51 -34 54 -27 83
-36 54 -17 -8 5 -10 10 -5 10 14 0 43 -20 30 -20 -5 -1 10 -12 35 -25 25 -13
53 -21 64 -18 10 3 16 1 13 -4 -4 -6 4 -8 18 -5 18 3 25 0 25 -12 0 -17 9 -20
25 -8 14 10 19 46 6 37 -6 -3 -11 -2 -11 3 0 5 -33 24 -72 42 -40 18 -109 49
-153 70 -44 20 -95 43 -112 51 -18 8 -33 17 -33 21 0 11 -10 16 188 -77 101
-47 189 -85 197 -85 8 0 15 -5 15 -10 0 -7 6 -7 20 0 28 15 25 30 -7 31 l-28
1 30 9 c19 5 31 5 36 -3 4 -6 83 48 208 143 l201 154 0 49 c0 37 -3 46 -12 38
-73 -58 -394 -302 -399 -302 -3 0 -6 7 -6 15 0 8 6 15 12 15 20 0 66 41 59 52
-4 7 -2 8 5 4 13 -9 64 28 53 39 -4 3 -2 5 3 4 6 -2 21 3 34 10 l25 14 -35 18
c-19 10 -43 16 -54 13 -13 -4 -16 -2 -7 3 17 13 -54 45 -82 38 -14 -4 -17 -3
-8 3 11 7 10 10 -3 16 -9 3 -22 3 -27 -1 -6 -3 -8 -1 -5 4 6 10 -10 18 -92 51
-10 4 -12 1 -6 -8 5 -9 4 -11 -4 -6 -6 4 -8 12 -5 18 4 6 -2 8 -17 4 -20 -6
-21 -5 -7 4 19 12 51 0 242 -89 117 -55 128 -58 145 -38 11 15 -9 26 -216 123
-51 23 -78 41 -71 45 7 5 15 4 18 0 3 -4 71 -38 151 -75 131 -61 149 -66 168
-54 11 7 21 15 21 19 0 4 -559 267 -611 287 -5 2 -9 -3 -9 -12 0 -9 -4 -16
-10 -16 -13 0 -13 17 0 25 6 4 8 10 5 15 -3 4 140 -59 317 -141 177 -82 323
-149 325 -149 2 0 3 4 3 8 0 5 -139 73 -310 152 l-310 143 0 48 c0 27 -3 49
-7 48 -5 0 -96 -69 -203 -153z m349 -81 c14 5 14 4 1 -9 -14 -14 -21 -13 -71
12 -95 46 -116 53 -146 46 -27 -7 -28 -6 -10 13 9 11 15 22 13 24 -3 2 41 -18
96 -44 58 -28 107 -46 117 -42z m-159 -7 c112 -50 131 -65 89 -65 -17 0 -25 3
-19 7 6 4 0 11 -15 18 -32 15 -38 15 -29 0 4 -7 3 -8 -5 -4 -6 4 -9 11 -6 16
3 4 -8 13 -24 18 -22 8 -31 7 -35 -1 -2 -7 -5 -5 -5 5 -1 21 -17 26 -61 21
-33 -4 -34 -4 -16 11 11 9 22 16 25 16 3 0 49 -19 101 -42z m-100 -26 c5 -5
-11 0 -49 16 -9 3 -12 1 -7 -6 5 -8 0 -12 -13 -12 -18 0 -20 3 -9 19 11 18 14
18 42 4 17 -9 33 -18 36 -21z m300 -7 c14 -8 21 -14 15 -14 -5 0 -21 6 -35 14
-14 8 -20 14 -15 14 6 0 21 -6 35 -14z m-400 -15 c0 -12 -30 -34 -37 -27 -3 4
-1 13 5 20 7 8 9 17 5 21 -4 4 0 4 10 0 9 -3 17 -10 17 -14z m198 -19 c20 -10
44 -16 52 -14 10 3 8 -1 -4 -11 -11 -9 -25 -16 -30 -16 -6 0 -5 4 2 9 11 7 10
10 -3 15 -24 9 -27 8 -19 -6 4 -7 3 -8 -5 -4 -6 4 -8 12 -5 18 4 6 -2 8 -17 4
-13 -3 -18 -3 -10 0 11 5 11 8 0 15 -25 16 1 9 39 -10z m-138 -6 c0 -12 -19
-12 -23 0 -4 9 -1 12 9 8 7 -3 14 -7 14 -8z m-93 -51 c-7 -6 -67 10 -67 17 0
5 5 9 10 9 6 0 10 7 10 16 0 10 8 6 24 -13 13 -15 24 -29 23 -29z m143 31 c22
-12 23 -14 4 -12 -11 0 -26 7 -33 14 -15 17 -3 16 29 -2z m60 -37 c0 -6 -6 -5
-15 2 -8 7 -15 14 -15 16 0 2 7 1 15 -2 8 -4 15 -11 15 -16z m-87 -74 c14 3
16 2 7 -9 -9 -10 -6 -15 10 -20 12 -4 19 -9 16 -13 -6 -5 -56 17 -66 29 -10
12 -69 39 -85 39 -9 0 -28 9 -42 20 -20 15 -28 17 -43 7 -24 -14 -37 -3 -19
16 12 12 27 8 109 -30 52 -24 103 -42 113 -39z m-50 59 c-7 -2 -19 -2 -25 0
-7 3 -2 5 12 5 14 0 19 -2 13 -5z m197 -7 c0 -3 -4 -8 -10 -11 -5 -3 -10 -1
-10 4 0 6 5 11 10 11 6 0 10 -2 10 -4z m-104 -37 c19 -22 19 -22 -3 -10 -24
12 -39 31 -25 31 5 0 17 -10 28 -21z m149 11 c3 -5 1 -10 -4 -10 -6 0 -11 5
-11 10 0 6 2 10 4 10 3 0 8 -4 11 -10z m42 -4 c0 -8 -6 -12 -15 -9 -11 5 -11
7 0 14 7 5 13 9 14 9 0 0 1 -6 1 -14z m143 -5 c33 -18 34 -19 8 -18 -14 1 -24
4 -22 6 3 3 -6 11 -18 18 -13 7 -18 12 -13 12 6 0 26 -8 45 -18z m-70 -36 c14
-8 19 -14 10 -14 -8 0 -24 6 -34 14 -25 19 -9 19 24 0z m200 -25 c19 -11 31
-19 25 -19 -5 0 -21 6 -35 14 -29 17 -44 19 -35 5 3 -6 -1 -7 -10 -3 -13 5
-14 7 -3 14 17 11 17 11 58 -11z m-595 0 c-4 -7 2 -9 17 -7 12 2 17 2 11 0 -7
-3 -13 -10 -13 -16 0 -8 -4 -7 -12 1 -7 7 -21 12 -32 13 -18 1 -17 2 4 9 14 4
26 8 28 9 2 1 0 -4 -3 -9z m455 -10 c0 -5 -5 -10 -11 -10 -5 0 -7 5 -4 10 3 6
8 10 11 10 2 0 4 -4 4 -10z m-80 -91 c85 -39 157 -73 159 -75 15 -14 -71 13
-104 32 -50 29 -105 55 -128 59 -9 2 -24 11 -33 20 -9 8 -20 12 -25 9 -13 -8
-50 26 -43 38 4 7 9 6 13 -1 4 -5 76 -42 161 -82z m-65 80 c11 -17 2 -18 -19
-3 -17 12 -17 14 -4 14 9 0 20 -5 23 -11z m190 -1 c25 -11 34 -28 15 -28 -5 0
-10 4 -10 8 0 5 -10 14 -22 20 -31 14 -16 15 17 0z m140 -8 c-3 -5 -12 -10
-18 -10 -7 0 -6 4 3 10 19 12 23 12 15 0z m-258 -26 c-3 -3 -12 -4 -19 -1 -8
3 -5 6 6 6 11 1 17 -2 13 -5z m203 -9 c0 -12 -19 -12 -23 0 -4 9 -1 12 9 8 7
-3 14 -7 14 -8z m-396 -27 c-5 -8 -2 -9 10 -5 11 4 15 3 10 -4 -4 -7 0 -9 12
-5 11 3 26 1 34 -5 12 -8 10 -9 -7 -4 -14 4 -23 2 -23 -4 0 -8 -8 -7 -22 1
-13 7 -25 14 -27 15 -4 2 9 23 15 23 3 0 2 -5 -2 -12z m302 -19 c4 -8 1 -8
-14 0 -12 6 -24 16 -28 22 -4 8 -1 8 14 0 12 -6 24 -16 28 -22z m-421 11 c3
-6 -1 -7 -9 -4 -18 7 -21 14 -7 14 6 0 13 -4 16 -10z m291 -63 c9 3 14 0 12
-8 -2 -9 5 -14 18 -13 15 0 20 -4 17 -13 -4 -11 -13 -9 -40 7 -19 11 -42 20
-51 21 -14 0 -13 2 3 8 11 5 21 5 23 0 2 -4 10 -5 18 -2z"/>
<path d="M554 1165 c-3 -7 -4 -28 -2 -47 l3 -33 308 -142 308 -143 30 22 c16
12 28 28 27 36 -2 8 -88 53 -193 101 -104 48 -254 118 -333 154 -107 49 -144
63 -148 52z"/>
</g>
</svg>
