<?xml version="1.0" standalone="no"?>
<!DOCTYPE svg PUBLIC "-//W3C//DTD SVG 20010904//EN"
 "http://www.w3.org/TR/2001/REC-SVG-20010904/DTD/svg10.dtd">
<svg version="1.0" xmlns="http://www.w3.org/2000/svg"
 width="128.000000pt" height="128.000000pt" viewBox="0 0 128.000000 128.000000"
 preserveAspectRatio="xMidYMid meet">
<g transform="translate(0.000000,128.000000) scale(0.100000,-0.100000)"
fill="#000000" stroke="none">
<path d="M945 1265 c-52 -19 -112 -83 -120 -129 -9 -44 -2 -75 26 -109 20 -27
21 -27 154 -27 l133 0 22 36 c18 28 21 46 18 84 -11 112 -126 184 -233 145z"/>
<path d="M870 865 l0 -45 135 0 135 0 0 45 0 45 -135 0 -135 0 0 -45z"/>
<path d="M861 717 c-6 -8 -26 -48 -45 -90 -35 -76 -35 -77 -19 -119 26 -69 24
-218 -6 -299 l-23 -65 25 -70 25 -69 183 -3 184 -2 38 102 c78 213 72 299 -36
531 l-46 97 -134 0 c-100 0 -137 -3 -146 -13z"/>
<path d="M255 707 c-67 -23 -98 -43 -153 -101 -76 -80 -96 -130 -96 -246 -1
-84 2 -101 26 -150 34 -68 107 -143 173 -178 73 -38 206 -43 290 -11 81 30
163 109 201 192 24 53 28 75 28 147 0 72 -4 94 -28 146 -34 75 -112 155 -181
185 -61 28 -199 36 -260 16z m175 -102 c35 -35 33 -90 -4 -121 -55 -48 -139
-18 -152 53 -6 28 -1 38 30 69 32 32 41 36 69 30 17 -4 43 -18 57 -31z m177
-178 c12 -12 25 -37 29 -54 6 -28 2 -37 -30 -69 -31 -31 -41 -36 -69 -30 -65
12 -99 91 -61 144 32 46 89 50 131 9z m-226 -46 c20 -20 29 -39 29 -61 0 -39
-47 -90 -84 -90 -87 0 -127 91 -67 151 20 20 39 29 61 29 22 0 41 -9 61 -29z"/>
</g>
</svg>
