<?xml version="1.0" standalone="no"?>
<!DOCTYPE svg PUBLIC "-//W3C//DTD SVG 20010904//EN"
 "http://www.w3.org/TR/2001/REC-SVG-20010904/DTD/svg10.dtd">
<svg version="1.0" xmlns="http://www.w3.org/2000/svg"
 width="128.000000pt" height="128.000000pt" viewBox="0 0 128.000000 128.000000"
 preserveAspectRatio="xMidYMid meet">
<g transform="translate(0.000000,128.000000) scale(0.100000,-0.100000)"
fill="#000000" stroke="none">
<path d="M601 1136 l-143 -143 99 -96 98 -96 -99 -100 -99 -100 70 -78 c39
-43 83 -89 97 -103 l27 -24 -101 -101 -100 -100 98 -98 98 -97 42 43 42 43
-50 49 c-28 27 -50 54 -50 59 0 6 44 55 97 108 l98 98 -100 100 -100 100 103
103 103 104 -95 91 c-53 50 -96 95 -96 99 0 5 41 49 90 98 50 49 90 94 90 100
0 6 -17 28 -38 48 l-38 37 -143 -144z"/>
</g>
</svg>
