<?xml version="1.0" standalone="no"?>
<!DOCTYPE svg PUBLIC "-//W3C//DTD SVG 20010904//EN"
 "http://www.w3.org/TR/2001/REC-SVG-20010904/DTD/svg10.dtd">
<svg version="1.0" xmlns="http://www.w3.org/2000/svg"
 width="128.000000pt" height="128.000000pt" viewBox="0 0 128.000000 128.000000"
 preserveAspectRatio="xMidYMid meet">
<g transform="translate(0.000000,128.000000) scale(0.100000,-0.100000)"
fill="#000000" stroke="none">
<path d="M834 1270 c-85 -34 -62 -174 29 -174 96 0 128 134 41 170 -38 16 -41
16 -70 4z"/>
<path d="M370 1070 c-18 -34 4 -56 115 -110 l106 -52 40 28 c22 15 43 34 48
42 4 8 17 12 27 10 18 -3 19 -17 22 -280 l2 -276 -90 -92 c-49 -51 -90 -98
-90 -105 0 -19 28 -45 48 -45 10 0 63 46 120 103 l102 102 0 90 0 90 88 -88
87 -87 -44 -136 -44 -136 21 -21 c18 -17 25 -19 46 -9 21 9 32 34 71 155 25
79 45 152 45 163 0 11 -38 58 -90 109 l-90 90 0 152 c0 84 3 153 8 153 4 0 26
-40 48 -89 23 -49 51 -94 62 -100 17 -9 37 -2 119 40 125 65 141 80 125 114
-16 34 -39 32 -122 -10 -38 -19 -73 -35 -78 -35 -5 0 -24 32 -41 70 -18 39
-43 77 -54 85 -23 14 -273 95 -296 95 -7 0 -33 -17 -58 -37 l-45 -37 -74 37
c-84 42 -118 46 -134 17z"/>
<path d="M265 820 l-170 -57 -3 -152 -3 -152 -30 -11 c-31 -11 -59 -52 -59
-88 0 -76 105 -115 156 -58 16 17 20 43 24 181 l5 160 67 23 c36 12 76 25 87
29 20 6 21 3 21 -67 0 -70 -1 -74 -29 -90 -65 -37 -76 -101 -25 -149 35 -33
87 -31 122 4 l27 27 0 227 c0 143 -4 227 -10 228 -5 1 -86 -24 -180 -55z"/>
</g>
</svg>
