<?xml version="1.0" standalone="no"?>
<!DOCTYPE svg PUBLIC "-//W3C//DTD SVG 20010904//EN"
 "http://www.w3.org/TR/2001/REC-SVG-20010904/DTD/svg10.dtd">
<svg version="1.0" xmlns="http://www.w3.org/2000/svg"
 width="128.000000pt" height="128.000000pt" viewBox="0 0 128.000000 128.000000"
 preserveAspectRatio="xMidYMid meet">
<g transform="translate(0.000000,128.000000) scale(0.100000,-0.100000)"
fill="#000000" stroke="none">
<path d="M314 1205 l-24 -24 0 -274 0 -275 -54 -27 c-119 -60 -177 -136 -177
-229 0 -96 59 -175 180 -236 219 -110 583 -110 802 0 121 62 180 140 180 237
0 189 -277 326 -626 309 -71 -3 -145 -9 -162 -12 l-33 -6 0 103 1 104 132 59
c73 33 138 64 145 69 6 5 12 22 12 37 0 15 -6 32 -12 37 -14 10 -265 125 -311
142 -24 9 -31 8 -53 -14z m141 -137 c25 -12 45 -25 45 -28 0 -6 -85 -50 -95
-50 -3 0 -5 23 -5 50 0 28 2 50 5 50 2 0 25 -10 50 -22z m303 -488 c206 -26
362 -117 362 -211 0 -64 -103 -140 -245 -181 -68 -19 -103 -23 -235 -23 -132
0 -167 4 -235 23 -100 29 -166 65 -211 114 -38 42 -42 73 -19 119 15 28 88 89
107 89 4 0 8 -29 8 -64 0 -36 4 -76 9 -89 13 -33 46 -43 76 -23 24 16 25 21
25 121 l0 104 53 10 c109 22 194 25 305 11z"/>
<path d="M814 471 c-32 -14 -64 -60 -64 -93 0 -95 102 -142 172 -79 65 58 33
165 -53 176 -18 3 -44 1 -55 -4z"/>
</g>
</svg>
