<?xml version="1.0" standalone="no"?>
<!DOCTYPE svg PUBLIC "-//W3C//DTD SVG 20010904//EN"
 "http://www.w3.org/TR/2001/REC-SVG-20010904/DTD/svg10.dtd">
<svg version="1.0" xmlns="http://www.w3.org/2000/svg"
 width="128.000000pt" height="128.000000pt" viewBox="0 0 128.000000 128.000000"
 preserveAspectRatio="xMidYMid meet">
<g transform="translate(0.000000,128.000000) scale(0.100000,-0.100000)"
fill="#000000" stroke="none">
<path d="M295 1144 c-11 -2 -45 -9 -75 -15 -65 -13 -144 -53 -171 -87 -23 -30
-25 -98 -3 -150 8 -20 36 -63 61 -95 l45 -58 -16 -128 c-21 -166 -20 -199 5
-265 27 -72 108 -149 181 -171 75 -22 561 -22 636 0 73 22 154 99 181 171 25
66 26 99 5 265 l-16 128 45 58 c25 32 53 75 61 95 20 48 20 117 1 146 -22 31
-95 71 -162 89 -68 18 -200 21 -231 4 -25 -13 -375 -16 -400 -2 -21 10 -119
21 -147 15z m125 -69 c10 -13 10 -19 -2 -33 -89 -103 -133 -161 -159 -207 -17
-30 -35 -58 -41 -61 -14 -9 -75 53 -109 111 -54 94 -30 148 86 185 76 24 207
27 225 5z m661 -5 c120 -37 145 -90 90 -185 -34 -58 -95 -120 -109 -111 -6 3
-24 31 -41 61 -26 46 -70 104 -159 207 -12 14 -12 20 -2 33 19 22 142 20 221
-5z m-269 -38 c10 -20 47 -71 83 -112 36 -41 77 -99 93 -128 19 -38 36 -56 58
-64 l32 -11 16 -121 c21 -155 20 -181 -5 -236 -25 -55 -62 -95 -114 -123 -38
-21 -52 -22 -335 -22 -283 0 -297 1 -335 22 -52 28 -89 68 -114 123 -25 55
-26 81 -5 236 l16 121 32 11 c22 8 39 26 58 64 16 29 57 87 93 128 36 41 73
92 83 112 l17 38 155 0 155 0 17 -38z"/>
<path d="M398 708 c-28 -23 -29 -48 -3 -73 29 -30 65 -22 79 18 17 47 -37 85
-76 55z"/>
<path d="M815 700 c-23 -26 -11 -69 23 -81 30 -11 75 30 66 58 -16 44 -60 55
-89 23z"/>
<path d="M606 624 c-18 -17 -21 -60 -6 -69 17 -11 11 -71 -11 -99 -23 -30 -69
-56 -97 -56 -23 0 -42 -19 -35 -36 12 -33 100 -10 151 39 l32 31 33 -31 c50
-49 138 -72 150 -39 7 17 -12 36 -35 36 -28 0 -74 26 -97 56 -22 28 -28 88
-11 99 29 18 -2 85 -40 85 -10 0 -26 -7 -34 -16z"/>
</g>
</svg>
