<?xml version="1.0" standalone="no"?>
<!DOCTYPE svg PUBLIC "-//W3C//DTD SVG 20010904//EN"
 "http://www.w3.org/TR/2001/REC-SVG-20010904/DTD/svg10.dtd">
<svg version="1.0" xmlns="http://www.w3.org/2000/svg"
 width="128.000000pt" height="128.000000pt" viewBox="0 0 128.000000 128.000000"
 preserveAspectRatio="xMidYMid meet">
<g transform="translate(0.000000,128.000000) scale(0.100000,-0.100000)"
fill="#000000" stroke="none">
<path d="M753 1095 c-40 -17 -67 -57 -59 -87 9 -35 81 -105 139 -135 77 -40
30 -42 -62 -3 -71 30 -107 33 -98 7 2 -6 -2 -20 -11 -29 -14 -17 -17 -17 -53
4 -22 12 -39 25 -39 30 0 12 33 43 69 64 17 10 31 24 31 31 0 22 -35 14 -77
-16 -111 -80 -121 -172 -25 -230 l40 -25 -19 -24 c-26 -34 -24 -42 23 -80 51
-40 72 -38 76 7 2 19 15 49 29 68 18 24 23 40 19 58 -5 21 -3 25 17 25 14 0
36 9 50 20 14 11 36 20 49 20 13 0 34 7 46 16 15 10 32 13 52 9 34 -7 37 -17
14 -36 -24 -19 -41 -59 -49 -111 -9 -63 -25 -75 -55 -43 -18 19 -26 22 -37 13
-11 -9 -3 -22 43 -70 l56 -59 -18 -27 c-56 -86 -69 -93 -49 -24 8 26 15 48 15
48 0 1 -18 13 -40 28 l-40 26 -56 -16 c-87 -25 -214 2 -214 45 0 15 -6 21 -21
21 -20 0 -21 -4 -18 -77 l4 -77 -75 -42 c-83 -47 -90 -50 -90 -31 0 6 23 27
51 45 39 26 49 37 43 50 -4 9 -9 35 -12 57 -2 22 -14 50 -25 63 -27 29 -28 84
-2 112 10 11 38 26 62 32 27 6 43 16 43 26 0 21 -74 10 -110 -16 -23 -17 -29
-18 -51 -6 -28 16 -83 18 -108 4 -10 -5 -24 -30 -31 -55 -9 -32 -23 -54 -47
-72 -30 -23 -32 -28 -19 -41 20 -21 121 -29 142 -11 8 7 24 29 34 48 11 20 19
29 20 21 0 -8 10 -31 22 -50 12 -19 21 -42 20 -51 -2 -9 2 -27 7 -41 9 -23 5
-28 -33 -55 -33 -23 -46 -41 -55 -76 -7 -25 -10 -50 -6 -57 7 -12 231 101 253
128 6 9 12 31 12 49 0 32 1 33 28 26 35 -10 170 -10 202 0 16 5 31 3 43 -6 17
-12 18 -18 7 -53 -10 -35 -10 -46 4 -72 9 -18 23 -32 31 -32 14 0 105 115 105
132 0 4 6 8 14 8 10 0 13 -10 9 -37 -4 -33 0 -42 30 -71 56 -54 69 -43 85 67
7 51 11 99 8 106 -2 7 -21 25 -41 41 -32 24 -38 26 -51 12 -14 -14 -12 -18 21
-38 30 -19 35 -27 31 -49 -3 -14 -8 -46 -12 -69 -8 -56 -29 -41 -29 21 0 38
-3 42 -26 45 -15 2 -36 14 -49 27 -20 21 -20 25 -7 47 8 12 21 50 27 83 14 66
59 122 89 109 9 -3 35 -9 58 -11 40 -5 43 -4 59 30 20 42 14 63 -23 79 -15 6
-58 42 -94 80 -87 90 -129 93 -129 9 0 -36 -51 -75 -86 -67 -29 8 -31 22 -4
36 26 14 50 61 50 99 0 24 -7 34 -30 46 -35 18 -55 18 -97 0z m84 -40 c2 -7
-12 -9 -37 -7 -22 2 -37 8 -34 14 8 12 66 6 71 -7z m-17 -52 c3 -3 -3 -11 -14
-18 -14 -10 -24 -11 -42 -3 -13 6 -24 15 -24 19 0 16 63 18 80 2z m170 -18
c10 -13 9 -15 -9 -15 -12 0 -21 6 -21 15 0 8 4 15 9 15 5 0 14 -7 21 -15z m29
-56 c17 -6 36 -20 42 -31 6 -11 24 -24 40 -30 27 -9 40 -40 21 -52 -11 -6
-222 63 -222 73 0 7 76 51 86 51 1 0 15 -5 33 -11z m-264 -91 c14 -6 25 -15
25 -19 0 -21 -77 -39 -93 -22 -4 3 3 17 15 30 25 27 21 26 53 11z m-86 -79
l33 -39 -31 -35 c-17 -20 -31 -41 -31 -47 0 -9 -3 -9 -12 0 -9 9 -7 19 10 42
29 38 28 45 -8 60 -49 20 -80 49 -80 76 l0 24 43 -22 c23 -11 57 -38 76 -59z
m-380 -28 c8 -5 9 -11 3 -15 -5 -3 -21 -30 -36 -61 -21 -46 -30 -55 -52 -55
-14 0 -24 3 -22 8 17 34 38 82 47 105 11 27 34 34 60 18z"/>
</g>
</svg>
