<?xml version="1.0" standalone="no"?>
<!DOCTYPE svg PUBLIC "-//W3C//DTD SVG 20010904//EN"
 "http://www.w3.org/TR/2001/REC-SVG-20010904/DTD/svg10.dtd">
<svg version="1.0" xmlns="http://www.w3.org/2000/svg"
 width="128.000000pt" height="128.000000pt" viewBox="0 0 128.000000 128.000000"
 preserveAspectRatio="xMidYMid meet">
<g transform="translate(0.000000,128.000000) scale(0.100000,-0.100000)"
fill="#000000" stroke="none">
<path d="M584 1159 c-10 -17 -7 -86 6 -125 10 -29 9 -38 -3 -52 -8 -9 -17 -29
-21 -44 -5 -24 -9 -26 -25 -16 -28 17 -51 3 -51 -32 0 -35 -2 -36 -34 -15 -24
16 -25 15 -69 -57 -114 -186 -147 -240 -147 -242 0 -2 19 -16 42 -31 32 -21
45 -25 58 -17 15 9 17 3 16 -61 0 -40 5 -81 12 -93 10 -18 8 -23 -14 -32 -38
-18 -51 -55 -30 -87 24 -36 66 -52 164 -60 52 -5 82 -12 82 -19 0 -14 52 -66
66 -66 5 0 98 89 207 198 l197 198 -35 34 -35 34 -158 -157 -157 -157 -35 11
c-19 7 -41 13 -47 15 -25 6 -12 34 37 80 96 90 149 253 118 362 -15 50 -15 52
4 52 24 0 56 16 86 43 43 40 20 141 -41 182 -16 10 -27 29 -31 54 -3 21 -16
53 -29 72 -20 31 -28 34 -74 36 -29 2 -55 -2 -59 -8z m85 -110 c8 -38 9 -55 1
-63 -22 -22 -70 67 -70 130 0 63 52 12 69 -67z m26 67 c24 -37 36 -86 21 -86
-7 0 -19 19 -25 43 -7 23 -18 48 -23 55 -7 8 -7 12 1 12 6 0 18 -11 26 -24z
m79 -144 c27 -25 47 -78 40 -107 -13 -53 -126 -75 -177 -34 -35 26 -54 90 -39
124 11 24 12 24 41 8 24 -14 31 -15 45 -4 9 7 16 20 16 28 0 19 46 9 74 -15z
m-212 -99 c39 -42 68 -95 68 -125 0 -37 -12 -35 -50 9 -35 40 -60 91 -60 123
0 27 11 25 42 -7z m-78 -49 l38 -26 -45 -47 c-25 -25 -69 -81 -96 -124 -45
-69 -53 -76 -70 -67 -11 5 -23 15 -26 20 -6 9 144 269 155 270 3 0 23 -12 44
-26z m212 -82 c26 -55 14 -167 -26 -248 -39 -79 -116 -158 -145 -149 -11 4
-43 9 -72 12 -49 5 -53 7 -64 41 -29 89 20 252 100 330 l41 40 40 -40 c27 -28
46 -39 62 -36 20 3 23 8 22 49 0 56 16 56 42 1z m292 -224 c10 -10 -26 -51
-170 -195 -174 -174 -183 -182 -201 -166 -18 17 -11 25 165 195 101 97 185
177 189 177 3 1 10 -4 17 -11z m-468 -206 c45 -36 0 -82 -80 -82 -80 0 -125
46 -80 82 16 13 39 18 80 18 41 0 64 -5 80 -18z m99 -68 c9 -9 -15 -22 -51
-27 -42 -6 -46 -2 -21 25 15 17 56 18 72 2z"/>
<path d="M723 943 c-19 -7 -16 -53 3 -60 18 -7 45 6 51 24 4 11 -23 44 -35 42
-4 0 -13 -3 -19 -6z"/>
</g>
</svg>
