<?xml version="1.0" standalone="no"?>
<!DOCTYPE svg PUBLIC "-//W3C//DTD SVG 20010904//EN"
 "http://www.w3.org/TR/2001/REC-SVG-20010904/DTD/svg10.dtd">
<svg version="1.0" xmlns="http://www.w3.org/2000/svg"
 width="128.000000pt" height="128.000000pt" viewBox="0 0 128.000000 128.000000"
 preserveAspectRatio="xMidYMid meet">
<g transform="translate(0.000000,128.000000) scale(0.100000,-0.100000)"
fill="#000000" stroke="none">
<path d="M548 1211 c6 -76 -13 -117 -116 -254 -92 -122 -119 -174 -128 -239
-14 -101 60 -214 209 -319 82 -57 101 -57 80 2 -23 69 -13 100 95 294 34 60
69 131 78 158 21 65 15 148 -16 212 -26 51 -126 157 -177 187 l-29 17 4 -58z"/>
<path d="M857 898 c8 -78 -17 -152 -84 -250 -66 -96 -85 -150 -73 -203 5 -20
10 -38 12 -41 2 -2 38 9 79 25 l74 28 53 103 c46 89 52 109 52 162 0 70 -34
148 -86 199 l-33 32 6 -55z"/>
<path d="M112 444 c-29 -20 -28 -50 1 -69 13 -8 62 -28 108 -44 46 -16 122
-43 169 -60 47 -18 92 -34 100 -37 15 -5 -87 -46 -283 -115 -101 -35 -123 -53
-112 -89 14 -45 15 -44 461 120 l80 30 155 -56 c374 -135 355 -130 373 -115
20 16 21 54 2 70 -7 6 -62 29 -122 50 -229 83 -269 99 -254 105 8 3 89 33 180
66 225 82 210 75 210 109 0 19 -7 34 -18 40 -19 10 -29 7 -332 -104 -85 -31
-165 -59 -176 -62 -12 -3 -60 9 -105 26 -46 17 -157 58 -247 91 -90 33 -164
60 -166 60 -1 0 -12 -7 -24 -16z"/>
</g>
</svg>
