<?xml version="1.0" standalone="no"?>
<!DOCTYPE svg PUBLIC "-//W3C//DTD SVG 20010904//EN"
 "http://www.w3.org/TR/2001/REC-SVG-20010904/DTD/svg10.dtd">
<svg version="1.0" xmlns="http://www.w3.org/2000/svg"
 width="128.000000pt" height="128.000000pt" viewBox="0 0 128.000000 128.000000"
 preserveAspectRatio="xMidYMid meet">
<g transform="translate(0.000000,128.000000) scale(0.100000,-0.100000)"
fill="#000000" stroke="none">
<path d="M0 1034 c0 -142 5 -263 11 -288 15 -61 75 -134 134 -165 42 -22 63
-26 130 -26 69 0 87 4 132 29 59 32 109 96 129 163 8 27 14 91 14 152 l0 106
-90 -90 -91 -90 46 -3 c43 -3 45 -4 39 -30 -12 -49 -21 -67 -50 -96 -57 -57
-135 -71 -209 -37 -95 43 -104 76 -105 379 l0 242 -45 0 -45 0 0 -246z"/>
<path d="M405 449 c-129 -19 -262 -81 -349 -159 -31 -29 -56 -56 -56 -61 0
-19 94 -100 157 -135 146 -82 316 -111 473 -80 112 22 255 91 323 157 28 27
56 47 62 45 5 -3 64 -50 130 -105 66 -56 123 -101 128 -101 4 0 7 99 7 220 0
121 -2 220 -5 220 -3 0 -65 -49 -137 -110 l-131 -110 -58 55 c-63 60 -183 124
-280 149 -77 19 -193 26 -264 15z m-70 -114 c35 -34 34 -93 0 -125 -82 -77
-202 43 -125 125 32 34 91 35 125 0z"/>
</g>
</svg>
