<?xml version="1.0" standalone="no"?>
<!DOCTYPE svg PUBLIC "-//W3C//DTD SVG 20010904//EN"
 "http://www.w3.org/TR/2001/REC-SVG-20010904/DTD/svg10.dtd">
<svg version="1.0" xmlns="http://www.w3.org/2000/svg"
 width="128.000000pt" height="128.000000pt" viewBox="0 0 128.000000 128.000000"
 preserveAspectRatio="xMidYMid meet">
<g transform="translate(0.000000,128.000000) scale(0.100000,-0.100000)"
fill="#000000" stroke="none">
<path d="M694 1265 c-35 -24 -49 -70 -35 -114 14 -48 33 -64 73 -64 72 0 104
101 52 162 -28 34 -58 39 -90 16z"/>
<path d="M340 994 c-82 -116 -93 -146 -59 -167 27 -17 45 -2 110 92 58 84 66
91 96 91 18 0 33 -3 33 -6 0 -4 -59 -91 -132 -195 l-132 -189 -102 0 c-116 0
-134 -9 -134 -65 0 -55 25 -65 155 -64 60 1 121 4 135 8 15 4 46 35 75 74 28
36 55 71 61 77 8 8 28 -10 71 -62 l61 -73 -25 -130 c-13 -72 -24 -142 -25
-158 -1 -28 26 -67 47 -67 36 0 46 27 80 214 19 104 35 199 35 212 0 12 -27
56 -61 97 l-60 76 56 81 c31 44 60 80 64 80 3 0 24 -22 46 -50 22 -27 47 -50
55 -50 18 0 53 36 123 123 53 67 61 109 25 128 -23 13 -39 -1 -113 -95 l-31
-38 -64 79 c-35 43 -69 81 -75 85 -5 4 -60 8 -121 8 l-112 0 -82 -116z"/>
<path d="M1111 940 c-74 -60 -142 -117 -152 -127 -18 -18 -16 -28 72 -338 49
-176 92 -330 95 -342 l6 -23 -546 0 c-533 0 -546 0 -566 -20 -25 -25 -26 -52
-2 -73 17 -15 74 -17 620 -17 l601 0 15 22 c9 12 16 27 16 33 0 23 -27 47 -60
54 l-33 6 -93 330 c-52 182 -94 331 -94 331 0 1 65 55 145 120 139 112 167
145 125 151 -8 1 -75 -47 -149 -107z"/>
</g>
</svg>
