<?xml version="1.0" standalone="no"?>
<!DOCTYPE svg PUBLIC "-//W3C//DTD SVG 20010904//EN"
 "http://www.w3.org/TR/2001/REC-SVG-20010904/DTD/svg10.dtd">
<svg version="1.0" xmlns="http://www.w3.org/2000/svg"
 width="128.000000pt" height="128.000000pt" viewBox="0 0 128.000000 128.000000"
 preserveAspectRatio="xMidYMid meet">
<g transform="translate(0.000000,128.000000) scale(0.100000,-0.100000)"
fill="#000000" stroke="none">
<path d="M217 933 c-4 -3 -7 -24 -7 -45 0 -38 0 -38 -40 -38 l-39 0 -3 -82 -3
-83 -42 -3 c-43 -3 -43 -3 -43 -42 0 -39 0 -39 43 -42 l42 -3 3 -82 3 -83 39
0 c39 0 39 0 42 -42 l3 -43 62 -3 62 -3 3 128 3 128 295 0 295 0 3 -128 3
-128 62 3 62 3 3 43 c3 42 3 42 42 42 l39 0 3 83 3 82 43 3 c42 3 42 3 42 42
0 39 0 39 -42 42 l-43 3 -3 83 -3 82 -39 0 c-39 0 -39 0 -42 43 l-3 42 -62 3
-62 3 -3 -128 -3 -128 -295 0 -295 0 -3 128 -3 127 -58 0 c-32 0 -61 -3 -64
-7z"/>
</g>
</svg>
