<?xml version="1.0" standalone="no"?>
<!DOCTYPE svg PUBLIC "-//W3C//DTD SVG 20010904//EN"
 "http://www.w3.org/TR/2001/REC-SVG-20010904/DTD/svg10.dtd">
<svg version="1.0" xmlns="http://www.w3.org/2000/svg"
 width="128.000000pt" height="128.000000pt" viewBox="0 0 128.000000 128.000000"
 preserveAspectRatio="xMidYMid meet">
<g transform="translate(0.000000,128.000000) scale(0.100000,-0.100000)"
fill="#000000" stroke="none">
<path d="M613 1182 c-10 -9 -47 -70 -81 -135 -35 -64 -67 -117 -70 -117 -4 0
-38 41 -75 90 -40 53 -75 90 -86 90 -37 0 -41 -19 -41 -181 0 -146 1 -158 23
-190 31 -46 72 -58 205 -58 l112 -1 0 -180 c0 -113 -4 -180 -10 -180 -5 0 -10
4 -10 9 0 5 -18 36 -41 69 -70 105 -203 185 -324 194 l-40 3 2 -59 c4 -116 72
-259 163 -340 160 -144 440 -144 600 0 91 81 159 224 163 340 l2 59 -44 -3
c-133 -11 -278 -107 -341 -226 -14 -25 -28 -46 -32 -46 -5 0 -8 81 -8 180 l0
180 113 1 c132 0 173 12 204 58 22 32 23 44 23 190 0 162 -4 181 -42 181 -11
0 -44 -35 -85 -90 -37 -49 -71 -90 -74 -90 -4 0 -36 53 -71 117 -62 116 -88
153 -108 153 -5 0 -18 -8 -27 -18z"/>
</g>
</svg>
