<?xml version="1.0" standalone="no"?>
<!DOCTYPE svg PUBLIC "-//W3C//DTD SVG 20010904//EN"
 "http://www.w3.org/TR/2001/REC-SVG-20010904/DTD/svg10.dtd">
<svg version="1.0" xmlns="http://www.w3.org/2000/svg"
 width="128.000000pt" height="128.000000pt" viewBox="0 0 128.000000 128.000000"
 preserveAspectRatio="xMidYMid meet">
<g transform="translate(0.000000,128.000000) scale(0.100000,-0.100000)"
fill="#000000" stroke="none">
<path d="M380 705 l0 -575 -75 0 -75 0 0 56 0 56 -27 -6 c-127 -30 -196 -65
-201 -103 -4 -30 47 -69 121 -92 198 -61 572 -49 716 23 53 26 66 44 58 79
-12 45 -142 92 -289 104 l-78 6 0 291 0 292 220 94 c121 52 220 97 220 100 0
4 -460 199 -572 242 -17 7 -18 -13 -18 -567z"/>
<path d="M1130 249 c-96 -39 -94 -141 3 -178 39 -15 100 2 126 36 40 49 19
112 -45 139 -38 16 -50 16 -84 3z"/>
</g>
</svg>
