<?xml version="1.0" standalone="no"?>
<!DOCTYPE svg PUBLIC "-//W3C//DTD SVG 20010904//EN"
 "http://www.w3.org/TR/2001/REC-SVG-20010904/DTD/svg10.dtd">
<svg version="1.0" xmlns="http://www.w3.org/2000/svg"
 width="128.000000pt" height="128.000000pt" viewBox="0 0 128.000000 128.000000"
 preserveAspectRatio="xMidYMid meet">
<g transform="translate(0.000000,128.000000) scale(0.100000,-0.100000)"
fill="#000000" stroke="none">
<path d="M490 1262 c-23 -11 -42 -32 -55 -59 -19 -39 -23 -42 -61 -43 -106 -1
-203 -60 -251 -154 -22 -42 -26 -64 -26 -126 1 -87 17 -132 70 -191 54 -59
104 -81 196 -87 l79 -5 -113 -113 -113 -113 84 -85 c46 -47 89 -86 96 -86 7 0
77 67 156 150 l144 150 29 -30 29 -30 -24 -25 c-19 -20 -21 -27 -10 -40 7 -8
24 -15 39 -15 20 0 46 -20 106 -80 51 -51 87 -80 101 -80 24 0 84 62 84 87 0
8 -36 52 -80 97 -58 60 -80 89 -80 108 0 14 -7 31 -15 38 -13 11 -20 9 -40
-10 l-25 -24 -30 29 -30 29 23 24 c21 23 27 24 117 20 101 -4 141 -18 193 -67
90 -83 101 -244 23 -345 -29 -39 -106 -82 -163 -91 -40 -6 -45 -4 -77 29 -26
28 -41 36 -70 36 l-36 0 0 -80 0 -80 34 0 c35 0 86 32 86 55 0 8 19 14 58 17
146 11 246 122 246 273 0 164 -103 269 -279 282 l-76 6 50 51 c40 41 63 79
112 189 48 107 60 140 50 147 -9 5 -66 -16 -155 -57 -134 -60 -146 -68 -227
-149 l-85 -85 -70 74 c-38 41 -88 97 -110 123 -23 27 -62 60 -88 74 -42 22
-47 23 -62 9 -14 -15 -14 -21 9 -66 14 -27 44 -65 67 -84 23 -19 77 -67 121
-108 l79 -75 -22 -23 c-19 -21 -30 -23 -107 -23 -106 0 -150 19 -208 84 -92
105 -81 262 26 359 44 40 93 57 161 57 42 -1 46 -3 63 -39 18 -40 44 -62 85
-75 21 -7 22 -5 22 53 l0 61 -60 0 c-47 0 -60 3 -60 15 0 12 13 15 60 15 l60
0 0 60 c0 33 -3 60 -7 60 -5 0 -24 -8 -43 -18z m412 -382 l30 -30 -18 -46 -17
-45 -54 53 c-29 29 -53 55 -53 59 0 5 62 36 78 38 2 1 17 -13 34 -29z m-148
-58 c3 -5 -100 -113 -228 -241 -156 -156 -236 -229 -241 -221 -5 8 71 91 221
241 126 126 232 229 236 229 4 0 9 -4 12 -8z m50 -50 c3 -5 -100 -113 -228
-241 -156 -156 -236 -229 -241 -221 -5 8 71 91 221 241 126 126 232 229 236
229 4 0 9 -4 12 -8z m44 -51 c-1 -6 -104 -114 -227 -241 -160 -166 -227 -228
-235 -220 -7 7 55 76 219 240 208 208 253 249 243 221z"/>
<path d="M570 1145 l0 -135 85 0 c102 0 147 16 175 62 27 45 27 117 -1 152
-35 44 -70 56 -169 56 l-90 0 0 -135z"/>
<path d="M96 341 c-4 -5 -1 -32 5 -60 25 -117 136 -211 250 -211 22 0 39 -5
39 -10 0 -6 11 -22 25 -35 20 -21 34 -25 85 -25 l60 0 0 80 0 80 -60 0 c-51 0
-65 -4 -85 -25 -14 -13 -25 -29 -25 -36 0 -18 -89 -1 -144 29 -26 15 -59 40
-72 57 -27 36 -54 106 -54 141 0 24 -14 32 -24 15z"/>
<path d="M580 80 c0 -47 4 -80 10 -80 6 0 10 33 10 80 0 47 -4 80 -10 80 -6 0
-10 -33 -10 -80z"/>
<path d="M620 80 c0 -47 4 -80 10 -80 6 0 10 33 10 80 0 47 -4 80 -10 80 -6 0
-10 -33 -10 -80z"/>
<path d="M670 80 c0 -79 0 -80 25 -80 25 0 25 1 25 80 0 79 0 80 -25 80 -25 0
-25 -1 -25 -80z"/>
</g>
</svg>
