<?xml version="1.0" standalone="no"?>
<!DOCTYPE svg PUBLIC "-//W3C//DTD SVG 20010904//EN"
 "http://www.w3.org/TR/2001/REC-SVG-20010904/DTD/svg10.dtd">
<svg version="1.0" xmlns="http://www.w3.org/2000/svg"
 width="128.000000pt" height="128.000000pt" viewBox="0 0 128.000000 128.000000"
 preserveAspectRatio="xMidYMid meet">
<g transform="translate(0.000000,128.000000) scale(0.100000,-0.100000)"
fill="#000000" stroke="none">
<path d="M539 1251 c-17 -18 -29 -40 -29 -56 0 -32 49 -85 80 -85 29 0 76 26
84 45 13 35 6 76 -19 100 -34 35 -78 33 -116 -4z"/>
<path d="M522 1008 c-8 -8 -12 -58 -12 -170 l0 -158 -104 0 c-92 0 -107 -3
-138 -24 l-34 -23 -28 23 c-33 29 -104 32 -147 7 -62 -37 -75 -142 -29 -234
32 -62 47 -51 52 41 6 105 39 144 102 121 l26 -11 0 -126 c0 -94 -5 -146 -20
-206 -25 -97 -25 -243 0 -243 12 0 16 18 20 85 l5 85 60 79 c52 69 60 76 62
55 7 -61 47 -289 54 -300 4 -6 15 -9 24 -5 13 5 16 14 11 39 -3 17 -6 68 -7
112 -1 69 2 88 25 133 l26 52 105 0 105 0 0 -33 c0 -37 46 -296 54 -304 3 -3
12 -3 21 0 12 5 15 28 15 130 0 132 13 194 49 225 10 9 60 91 111 182 51 91
95 167 97 169 1 2 11 -3 21 -12 10 -10 30 -17 43 -17 14 0 50 -18 79 -40 56
-42 78 -48 98 -28 23 23 11 46 -81 151 -75 87 -92 112 -92 138 0 18 -5 34 -12
36 -6 2 -80 -55 -165 -126 -140 -119 -156 -131 -193 -131 l-39 0 42 -43 c41
-42 42 -44 42 -113 0 -75 -9 -94 -47 -94 -29 0 -43 27 -43 83 0 44 -1 46 -77
103 l-78 59 78 3 77 3 -2 167 -3 167 -70 3 c-46 2 -74 -1 -83 -10z"/>
</g>
</svg>
