<?xml version="1.0" standalone="no"?>
<!DOCTYPE svg PUBLIC "-//W3C//DTD SVG 20010904//EN"
 "http://www.w3.org/TR/2001/REC-SVG-20010904/DTD/svg10.dtd">
<svg version="1.0" xmlns="http://www.w3.org/2000/svg"
 width="128.000000pt" height="128.000000pt" viewBox="0 0 128.000000 128.000000"
 preserveAspectRatio="xMidYMid meet">
<g transform="translate(0.000000,128.000000) scale(0.100000,-0.100000)"
fill="#000000" stroke="none">
<path d="M902 1057 c-46 -49 -12 -127 56 -127 43 0 72 30 72 75 0 69 -81 102
-128 52z"/>
<path d="M420 935 c-6 -8 -9 -23 -5 -35 6 -19 14 -20 151 -20 79 0 144 -4 144
-8 0 -4 -23 -30 -51 -57 -62 -61 -82 -97 -74 -134 3 -16 44 -65 100 -121 l95
-95 0 -78 c0 -88 11 -117 43 -117 42 0 47 17 47 148 l0 124 -62 64 -61 64 86
89 c96 98 106 123 62 166 l-24 25 -219 0 c-180 0 -222 -3 -232 -15z"/>
<path d="M447 502 c-91 -92 -117 -123 -117 -144 0 -26 23 -48 51 -48 13 0 176
156 221 213 l31 38 -29 30 c-15 16 -30 29 -34 29 -3 0 -58 -53 -123 -118z"/>
<path d="M217 393 c-10 -10 143 -163 163 -163 18 0 40 19 40 33 0 5 -12 6 -27
2 -23 -5 -35 3 -98 65 -39 39 -74 67 -78 63z"/>
<path d="M965 263 c-7 -22 -12 -23 -121 -23 -69 0 -114 -4 -114 -10 0 -6 45
-10 114 -10 120 0 143 8 133 47 -4 16 -6 15 -12 -4z"/>
</g>
</svg>
