<?xml version="1.0" standalone="no"?>
<!DOCTYPE svg PUBLIC "-//W3C//DTD SVG 20010904//EN"
 "http://www.w3.org/TR/2001/REC-SVG-20010904/DTD/svg10.dtd">
<svg version="1.0" xmlns="http://www.w3.org/2000/svg"
 width="128.000000pt" height="128.000000pt" viewBox="0 0 128.000000 128.000000"
 preserveAspectRatio="xMidYMid meet">
<g transform="translate(0.000000,128.000000) scale(0.100000,-0.100000)"
fill="#000000" stroke="none">
<path d="M68 1254 c-59 -31 -58 -22 -58 -625 l0 -551 34 -34 34 -34 556 0
c378 0 563 3 579 11 13 6 31 23 40 39 15 25 17 83 17 577 0 530 -1 549 -20
581 -11 18 -32 37 -46 42 -15 6 -238 10 -567 10 -460 -1 -546 -3 -569 -16z
m628 -120 c37 -18 71 -65 74 -104 5 -65 -1 -83 -40 -122 l-40 -40 0 -314 c0
-209 3 -314 10 -314 20 0 80 29 114 55 37 28 103 122 92 132 -3 3 -16 11 -28
17 -44 22 -30 55 58 139 117 111 132 106 154 -48 6 -44 14 -89 17 -101 7 -32
-22 -56 -60 -49 -30 6 -33 4 -51 -41 -25 -61 -117 -153 -187 -187 -196 -96
-436 -19 -538 173 -30 56 -35 61 -60 55 -15 -3 -34 0 -45 8 -17 13 -17 17 -1
128 10 63 22 120 28 127 20 25 50 10 133 -70 90 -86 101 -112 56 -134 -36 -18
-36 -21 -8 -68 29 -49 86 -99 140 -121 70 -30 66 -49 66 299 l0 315 -30 21
c-45 32 -63 74 -58 132 10 100 112 156 204 112z"/>
<path d="M595 1045 c-29 -28 -31 -42 -9 -73 29 -42 104 -18 104 34 0 25 -10
38 -37 53 -29 15 -30 15 -58 -14z"/>
</g>
</svg>
