<?xml version="1.0" standalone="no"?>
<!DOCTYPE svg PUBLIC "-//W3C//DTD SVG 20010904//EN"
 "http://www.w3.org/TR/2001/REC-SVG-20010904/DTD/svg10.dtd">
<svg version="1.0" xmlns="http://www.w3.org/2000/svg"
 width="128.000000pt" height="128.000000pt" viewBox="0 0 128.000000 128.000000"
 preserveAspectRatio="xMidYMid meet">
<g transform="translate(0.000000,128.000000) scale(0.100000,-0.100000)"
fill="#000000" stroke="none">
<path d="M672 1160 c-26 -35 -28 -58 -5 -67 10 -4 24 3 38 19 l22 26 189 -124
c104 -68 190 -127 191 -131 2 -5 -58 -19 -132 -32 -165 -28 -202 -37 -208 -55
-3 -7 11 -78 31 -157 l35 -144 -118 -177 c-97 -146 -116 -181 -111 -202 6 -26
45 -44 66 -31 6 4 67 91 135 193 97 146 126 182 131 167 4 -10 -1 -87 -11
-171 -20 -166 -17 -184 31 -184 38 0 51 36 70 190 l18 145 -38 150 c-20 83
-39 158 -42 167 -6 19 -2 21 129 43 100 18 125 33 111 69 -5 14 -487 336 -503
336 -4 0 -17 -13 -29 -30z"/>
<path d="M744 998 c-47 -22 -56 -86 -19 -123 40 -41 105 -33 130 16 21 40 19
57 -14 90 -30 30 -60 35 -97 17z"/>
<path d="M106 841 l-38 -39 101 -88 c56 -48 101 -93 101 -100 0 -8 -45 -53
-100 -100 -55 -48 -100 -91 -100 -95 0 -11 89 -83 95 -77 3 3 21 27 40 54 41
57 41 56 15 -101 -11 -66 -20 -126 -20 -132 0 -10 33 -13 130 -13 72 0 130 2
130 5 0 3 -7 67 -16 141 -8 75 -13 138 -11 140 3 3 21 -18 42 -46 20 -27 40
-50 44 -50 11 0 81 75 80 85 0 6 -41 44 -90 85 -50 41 -95 83 -100 92 -10 19
1 32 119 130 39 33 72 66 72 72 0 17 -63 76 -80 76 -8 0 -46 -42 -83 -93 -61
-83 -72 -93 -100 -94 -29 0 -38 8 -100 93 -38 52 -74 94 -81 94 -6 0 -29 -18
-50 -39z"/>
</g>
</svg>
