<?xml version="1.0" standalone="no"?>
<!DOCTYPE svg PUBLIC "-//W3C//DTD SVG 20010904//EN"
 "http://www.w3.org/TR/2001/REC-SVG-20010904/DTD/svg10.dtd">
<svg version="1.0" xmlns="http://www.w3.org/2000/svg"
 width="128.000000pt" height="128.000000pt" viewBox="0 0 128.000000 128.000000"
 preserveAspectRatio="xMidYMid meet">
<g transform="translate(0.000000,128.000000) scale(0.100000,-0.100000)"
fill="#000000" stroke="none">
<path d="M90 640 l0 -550 550 0 550 0 0 550 0 550 -550 0 -550 0 0 -550z
m1085 0 l0 -535 -537 -3 -538 -2 0 533 c0 294 3 537 7 540 3 4 245 6 537 5
l531 -3 0 -535z"/>
<path d="M369 1105 c-15 -8 -29 -21 -32 -29 -3 -8 -21 -17 -39 -21 -55 -11
-86 -26 -101 -49 -24 -36 -28 -74 -13 -111 13 -30 13 -39 -1 -73 -13 -35 -13
-42 1 -75 17 -41 67 -77 108 -77 22 0 35 -11 63 -52 l35 -53 0 -187 0 -188 44
0 45 0 3 187 3 188 33 53 c29 45 38 52 65 52 85 0 142 93 103 168 -12 24 -12
30 0 47 8 10 14 36 14 58 0 53 -47 101 -108 111 -29 4 -51 15 -66 33 -18 21
-33 27 -77 30 -35 2 -63 -2 -80 -12z m93 -497 c-14 -21 -26 -37 -27 -36 -1 2
-11 19 -23 39 l-21 35 48 0 49 0 -26 -38z"/>
<path d="M810 751 c0 -44 45 -69 126 -72 64 -2 104 12 104 38 0 15 -2 15 -18
0 -28 -25 -67 -21 -91 10 -24 30 -38 26 -21 -6 9 -18 8 -21 -12 -21 -29 0 -68
26 -68 46 0 8 -4 14 -10 14 -5 0 -10 -4 -10 -9z"/>
<path d="M958 662 c-42 -4 -49 -16 -18 -32 19 -10 19 -11 -6 -50 l-27 -40
-116 0 c-117 0 -117 0 -146 -30 -28 -29 -28 -30 -13 -69 15 -37 15 -41 -3 -57
-16 -14 -19 -31 -19 -106 0 -70 3 -88 15 -88 11 0 15 18 17 77 2 42 8 78 13
80 6 2 24 -31 40 -73 27 -68 47 -95 61 -82 2 3 -9 42 -26 87 -41 113 -37 121
76 121 82 0 84 -1 80 -22 -9 -42 -36 -180 -36 -184 0 -2 6 -4 13 -4 9 0 20 32
33 88 l19 87 24 -87 c15 -56 29 -88 37 -88 18 0 18 -3 -12 106 l-25 94 38 96
c34 87 42 99 81 123 23 14 42 31 42 38 0 12 -78 20 -142 15z"/>
</g>
</svg>
