<?xml version="1.0" standalone="no"?>
<!DOCTYPE svg PUBLIC "-//W3C//DTD SVG 20010904//EN"
 "http://www.w3.org/TR/2001/REC-SVG-20010904/DTD/svg10.dtd">
<svg version="1.0" xmlns="http://www.w3.org/2000/svg"
 width="128.000000pt" height="128.000000pt" viewBox="0 0 128.000000 128.000000"
 preserveAspectRatio="xMidYMid meet">
<g transform="translate(0.000000,128.000000) scale(0.100000,-0.100000)"
fill="#000000" stroke="none">
<path d="M410 1179 c-113 -50 -251 -109 -307 -132 l-103 -42 0 -47 0 -48 295
0 295 0 0 -180 0 -180 -202 -2 -203 -3 -3 -42 -3 -43 205 0 206 0 0 -230 0
-230 45 0 45 0 2 228 3 227 203 3 202 2 0 45 0 45 -205 0 -205 0 2 178 3 177
295 5 295 5 0 44 0 45 -135 58 c-74 32 -182 79 -240 103 -58 24 -135 57 -172
74 -37 17 -78 31 -90 30 -13 0 -115 -41 -228 -90z"/>
<path d="M0 365 l0 -365 45 0 45 0 0 90 0 90 90 0 90 0 0 -90 0 -90 45 0 45 0
0 135 0 134 -133 3 -132 3 -3 228 -2 227 -45 0 -45 0 0 -365z"/>
<path d="M1187 723 c-4 -3 -7 -107 -7 -230 l0 -223 -135 0 -135 0 0 -135 0
-135 45 0 45 0 0 90 0 90 90 0 90 0 0 -90 0 -90 50 0 50 0 0 365 0 365 -43 0
c-24 0 -47 -3 -50 -7z"/>
</g>
</svg>
