<?xml version="1.0" standalone="no"?>
<!DOCTYPE svg PUBLIC "-//W3C//DTD SVG 20010904//EN"
 "http://www.w3.org/TR/2001/REC-SVG-20010904/DTD/svg10.dtd">
<svg version="1.0" xmlns="http://www.w3.org/2000/svg"
 width="128.000000pt" height="128.000000pt" viewBox="0 0 128.000000 128.000000"
 preserveAspectRatio="xMidYMid meet">
<g transform="translate(0.000000,128.000000) scale(0.100000,-0.100000)"
fill="#000000" stroke="none">
<path d="M745 1071 c-45 -20 -100 -77 -139 -144 l-27 -45 -25 23 c-67 62 -144
54 -214 -21 -87 -95 -124 -237 -80 -309 25 -40 88 -80 143 -90 l37 -7 0 48 c0
46 -3 52 -47 91 -40 34 -45 43 -31 48 11 4 28 -1 45 -15 l28 -22 3 49 c4 67 8
78 27 63 12 -10 15 -39 15 -136 l0 -124 28 6 c44 11 73 23 102 44 27 19 29 20
71 1 24 -10 59 -21 77 -25 l32 -5 0 63 0 64 -65 52 c-36 28 -65 56 -65 61 0
19 34 8 81 -27 l48 -35 3 103 c2 84 6 103 18 103 11 0 16 -15 20 -58 l5 -59
27 21 c14 12 33 21 42 21 29 0 16 -24 -29 -59 l-45 -33 0 -109 c0 -124 -2
-121 84 -95 74 23 122 61 152 123 26 52 27 58 16 116 -25 131 -121 279 -207
318 -50 23 -80 23 -130 0z"/>
<path d="M767 483 c-4 -3 -7 -24 -7 -45 l0 -38 -125 0 -125 0 0 30 c0 20 -5
30 -15 30 -10 0 -15 -10 -15 -30 l0 -30 -130 0 -130 0 0 -40 0 -40 425 0 425
0 0 40 0 40 -140 0 -140 0 0 45 c0 42 -7 54 -23 38z"/>
<path d="M200 291 c0 -6 19 -11 43 -13 l42 -3 -42 -30 c-41 -29 -53 -45 -34
-45 4 0 31 18 59 40 38 31 59 40 88 40 l37 0 -46 -36 c-26 -20 -44 -40 -41
-45 3 -5 31 11 63 36 43 34 66 45 92 45 l34 -1 -25 -20 c-14 -12 -33 -27 -44
-34 -10 -8 -17 -18 -15 -24 2 -6 29 9 59 34 44 35 63 44 94 45 l39 0 -47 -36
c-25 -19 -44 -39 -41 -45 4 -5 31 11 62 36 43 35 63 45 91 45 l37 0 -34 -28
c-19 -15 -41 -32 -49 -38 -9 -6 -11 -13 -5 -17 5 -3 34 14 64 38 43 35 62 44
93 45 l39 0 -47 -36 c-25 -19 -44 -39 -41 -45 4 -5 31 11 62 36 43 35 63 45
91 45 31 -1 34 -3 21 -13 -68 -53 -80 -65 -72 -70 5 -3 34 14 64 38 41 33 63
44 89 44 l35 0 -45 -39 c-59 -52 -32 -52 32 0 28 22 59 40 69 40 11 0 19 5 19
10 0 7 -155 10 -445 10 -272 0 -445 -4 -445 -9z"/>
</g>
</svg>
