<?xml version="1.0" standalone="no"?>
<!DOCTYPE svg PUBLIC "-//W3C//DTD SVG 20010904//EN"
 "http://www.w3.org/TR/2001/REC-SVG-20010904/DTD/svg10.dtd">
<svg version="1.0" xmlns="http://www.w3.org/2000/svg"
 width="128.000000pt" height="128.000000pt" viewBox="0 0 128.000000 128.000000"
 preserveAspectRatio="xMidYMid meet">
<g transform="translate(0.000000,128.000000) scale(0.100000,-0.100000)"
fill="#000000" stroke="none">
<path d="M195 1191 c-44 -19 -70 -60 -70 -112 0 -42 5 -53 33 -81 l32 -33 450
0 450 0 32 33 c28 28 33 39 33 82 0 43 -5 54 -33 82 l-32 33 -438 2 c-240 1
-446 -2 -457 -6z"/>
<path d="M456 760 l-48 -120 -159 0 c-156 0 -160 -1 -184 -25 -33 -32 -33 -78
0 -110 23 -24 30 -25 150 -25 69 0 125 -2 125 -5 0 -2 -23 -61 -50 -130 -28
-69 -50 -137 -50 -151 0 -82 102 -139 178 -100 34 18 37 24 116 221 l64 160
62 0 62 0 64 -160 c79 -197 82 -203 116 -221 77 -40 178 18 178 102 0 15 -23
83 -50 151 -28 68 -50 126 -50 128 0 3 47 5 105 5 99 0 107 2 130 25 33 32 33
78 0 110 -23 24 -29 25 -164 25 l-139 0 -48 120 -48 120 -156 0 -156 0 -48
-120z"/>
</g>
</svg>
