<?xml version="1.0" standalone="no"?>
<!DOCTYPE svg PUBLIC "-//W3C//DTD SVG 20010904//EN"
 "http://www.w3.org/TR/2001/REC-SVG-20010904/DTD/svg10.dtd">
<svg version="1.0" xmlns="http://www.w3.org/2000/svg"
 width="128.000000pt" height="128.000000pt" viewBox="0 0 128.000000 128.000000"
 preserveAspectRatio="xMidYMid meet">
<g transform="translate(0.000000,128.000000) scale(0.100000,-0.100000)"
fill="#000000" stroke="none">
<path d="M393 1185 c-35 -15 -57 -61 -48 -98 16 -64 98 -84 141 -33 29 33 31
75 4 108 -24 31 -59 39 -97 23z"/>
<path d="M510 895 c-47 -24 -103 -62 -125 -84 -39 -41 -40 -41 -111 -41 -74 0
-104 -13 -104 -45 0 -36 29 -45 144 -45 l112 0 39 40 c21 22 42 40 45 40 3 0
24 -36 45 -80 l39 -80 -82 -83 -82 -82 0 -167 c0 -149 2 -168 18 -176 19 -10
43 -5 54 12 4 6 8 74 8 151 l1 140 85 58 c48 32 87 57 89 55 1 -2 21 -40 44
-85 l41 -83 151 0 c156 0 189 7 189 40 0 41 -25 50 -145 50 l-113 0 -43 127
c-23 71 -59 158 -80 195 -22 36 -39 71 -39 77 0 5 19 13 43 16 35 5 57 0 135
-34 104 -46 136 -50 152 -21 18 33 -4 56 -77 84 -38 14 -93 34 -123 45 -40 15
-78 21 -140 20 -80 0 -90 -2 -170 -44z"/>
</g>
</svg>
