<?xml version="1.0" standalone="no"?>
<!DOCTYPE svg PUBLIC "-//W3C//DTD SVG 20010904//EN"
 "http://www.w3.org/TR/2001/REC-SVG-20010904/DTD/svg10.dtd">
<svg version="1.0" xmlns="http://www.w3.org/2000/svg"
 width="128.000000pt" height="128.000000pt" viewBox="0 0 128.000000 128.000000"
 preserveAspectRatio="xMidYMid meet">
<g transform="translate(0.000000,128.000000) scale(0.100000,-0.100000)"
fill="#000000" stroke="none">
<path d="M247 1162 c-15 -9 -37 -37 -49 -60 -18 -39 -19 -48 -8 -85 24 -80
103 -123 173 -93 101 42 121 155 41 225 -28 25 -43 31 -82 31 -27 0 -59 -8
-75 -18z"/>
<path d="M994 900 c-31 -12 -72 -66 -80 -105 -8 -45 20 -102 65 -132 87 -58
201 6 201 114 0 94 -98 159 -186 123z"/>
<path d="M242 859 c-53 -11 -100 -64 -122 -137 -11 -35 -20 -75 -20 -88 0 -28
-16 -30 -65 -10 l-35 15 0 -45 c0 -39 3 -46 28 -56 32 -13 360 -130 450 -161
34 -11 62 -26 62 -32 0 -6 -18 -80 -40 -165 -22 -85 -40 -161 -40 -167 0 -10
43 -13 181 -13 167 0 180 1 175 18 -56 183 -76 255 -73 258 4 4 121 -36 384
-132 68 -24 130 -44 138 -44 13 0 15 9 13 43 -3 40 -5 43 -46 57 -35 12 -42
18 -38 35 14 59 17 186 6 240 -41 199 -251 126 -276 -96 -4 -38 -11 -59 -20
-59 -7 0 -70 20 -141 45 -70 25 -180 64 -243 86 -160 57 -148 46 -138 126 5
37 6 95 3 128 -13 124 -58 172 -143 154z"/>
</g>
</svg>
