<?xml version="1.0" standalone="no"?>
<!DOCTYPE svg PUBLIC "-//W3C//DTD SVG 20010904//EN"
 "http://www.w3.org/TR/2001/REC-SVG-20010904/DTD/svg10.dtd">
<svg version="1.0" xmlns="http://www.w3.org/2000/svg"
 width="128.000000pt" height="128.000000pt" viewBox="0 0 128.000000 128.000000"
 preserveAspectRatio="xMidYMid meet">
<g transform="translate(0.000000,128.000000) scale(0.100000,-0.100000)"
fill="#000000" stroke="none">
<path d="M410 1181 c-5 -11 -10 -28 -10 -38 0 -10 -18 -29 -42 -43 -141 -85
-238 -259 -238 -425 0 -69 16 -109 47 -113 12 -2 81 28 155 65 147 76 214 101
227 87 11 -13 151 -410 151 -430 0 -12 -5 -14 -17 -9 -44 18 -66 15 -154 -25
-52 -23 -108 -42 -125 -43 -16 0 -74 19 -128 42 -94 41 -101 43 -140 31 -22
-7 -58 -21 -79 -31 l-37 -19 0 -80 c0 -44 4 -80 8 -80 5 0 36 11 70 25 73 29
83 28 196 -27 44 -21 91 -38 104 -38 13 0 63 18 111 41 47 23 102 41 121 42
22 1 69 -15 126 -41 50 -23 100 -42 110 -42 11 0 64 20 119 45 108 49 121 50
199 14 65 -29 66 -28 66 61 l0 81 -62 29 c-35 17 -71 30 -82 30 -10 0 -58 -18
-106 -39 -101 -45 -139 -55 -159 -42 -22 14 -206 546 -192 555 14 9 144 40
260 61 89 17 129 28 138 41 18 25 18 24 -29 94 -47 72 -142 147 -228 181 -43
18 -80 23 -174 26 -89 2 -124 7 -136 18 -23 21 -57 19 -70 -4z"/>
</g>
</svg>
