<?xml version="1.0" standalone="no"?>
<!DOCTYPE svg PUBLIC "-//W3C//DTD SVG 20010904//EN"
 "http://www.w3.org/TR/2001/REC-SVG-20010904/DTD/svg10.dtd">
<svg version="1.0" xmlns="http://www.w3.org/2000/svg"
 width="128.000000pt" height="128.000000pt" viewBox="0 0 128.000000 128.000000"
 preserveAspectRatio="xMidYMid meet">
<g transform="translate(0.000000,128.000000) scale(0.100000,-0.100000)"
fill="#000000" stroke="none">
<path d="M84 1239 c-69 -54 -88 -103 -62 -152 6 -12 31 -44 56 -72 94 -106 95
-155 1 -247 l-60 -58 36 0 c29 0 46 9 85 46 61 57 87 117 71 166 -6 18 -36 61
-66 96 -30 35 -58 75 -62 89 -9 37 22 89 75 130 l44 33 -40 0 c-29 0 -50 -8
-78 -31z"/>
<path d="M340 1220 c-42 -42 -50 -55 -50 -87 0 -32 11 -51 65 -118 37 -45 68
-93 71 -111 8 -42 -15 -85 -79 -146 l-50 -48 33 0 c64 0 160 106 160 178 0 42
-11 62 -77 140 -69 82 -72 120 -15 173 20 20 48 43 62 53 24 16 24 16 -23 16
-44 0 -52 -4 -97 -50z"/>
<path d="M873 1186 c-50 -23 -78 -91 -62 -150 15 -54 60 -86 121 -86 43 0 54
4 83 33 80 80 39 201 -72 213 -21 2 -52 -2 -70 -10z"/>
<path d="M1017 903 c-4 -3 3 -11 16 -17 12 -6 23 -21 25 -33 4 -25 -35 -106
-47 -99 -4 3 -13 23 -21 45 -7 23 -16 41 -19 41 -6 0 -91 -164 -91 -174 0 -3
10 -6 22 -8 12 -2 27 -13 33 -24 10 -20 13 -17 43 37 18 33 34 59 37 59 2 0
16 -37 31 -82 15 -46 40 -116 55 -156 16 -40 29 -75 29 -77 0 -3 -56 -5 -125
-5 -69 0 -125 -3 -125 -6 0 -3 7 -13 16 -22 11 -11 15 -27 11 -54 l-5 -38 139
0 c76 0 139 1 139 3 0 1 -9 20 -20 42 -32 63 -28 75 28 75 26 0 53 -5 60 -12
9 -9 12 -9 12 -1 0 11 -95 281 -146 416 -29 76 -72 116 -97 90z"/>
<path d="M746 609 c-122 -40 -146 -60 -120 -97 8 -12 22 -22 31 -22 8 0 69 19
134 42 98 35 116 45 99 52 -11 5 -24 21 -28 36 l-7 26 -109 -37z"/>
<path d="M80 333 c0 -16 7 -91 15 -168 8 -77 15 -146 15 -152 0 -10 30 -13
115 -13 111 0 115 1 119 23 6 25 36 299 36 322 0 13 -24 15 -150 15 l-150 0 0
-27z"/>
<path d="M685 238 c-130 -157 -140 -182 -95 -223 36 -33 60 -15 182 130 l116
140 -29 6 c-37 8 -59 27 -59 50 0 11 -3 19 -7 19 -5 -1 -53 -55 -108 -122z"/>
<path d="M960 140 l0 -30 160 0 160 0 0 30 0 30 -160 0 -160 0 0 -30z"/>
</g>
</svg>
