<?xml version="1.0" standalone="no"?>
<!DOCTYPE svg PUBLIC "-//W3C//DTD SVG 20010904//EN"
 "http://www.w3.org/TR/2001/REC-SVG-20010904/DTD/svg10.dtd">
<svg version="1.0" xmlns="http://www.w3.org/2000/svg"
 width="128.000000pt" height="128.000000pt" viewBox="0 0 128.000000 128.000000"
 preserveAspectRatio="xMidYMid meet">
<g transform="translate(0.000000,128.000000) scale(0.100000,-0.100000)"
fill="#000000" stroke="none">
<path d="M566 985 c-15 -58 -32 -105 -36 -105 -8 0 -304 81 -397 109 -41 12
-41 14 -7 -129 l26 -110 51 -14 c29 -8 133 -38 232 -66 99 -29 250 -72 335
-95 85 -24 191 -55 235 -68 l80 -23 93 84 c50 46 92 88 92 91 0 4 -62 24 -137
45 -76 20 -174 48 -219 62 l-82 26 29 96 c16 53 28 103 27 111 -2 9 -53 28
-138 52 -74 21 -140 38 -145 39 -6 0 -23 -47 -39 -105z"/>
<path d="M0 408 l0 -228 638 2 637 3 0 43 0 44 -75 23 c-41 13 -165 49 -275
80 -110 31 -270 77 -355 101 -85 24 -248 70 -362 102 l-208 59 0 -229z"/>
</g>
</svg>
