<?xml version="1.0" standalone="no"?>
<!DOCTYPE svg PUBLIC "-//W3C//DTD SVG 20010904//EN"
 "http://www.w3.org/TR/2001/REC-SVG-20010904/DTD/svg10.dtd">
<svg version="1.0" xmlns="http://www.w3.org/2000/svg"
 width="128.000000pt" height="128.000000pt" viewBox="0 0 128.000000 128.000000"
 preserveAspectRatio="xMidYMid meet">
<g transform="translate(0.000000,128.000000) scale(0.100000,-0.100000)"
fill="#000000" stroke="none">
<path d="M363 969 l-273 -220 0 -307 c0 -262 2 -311 16 -330 l15 -22 520 0
c506 0 520 1 539 20 19 19 20 33 20 329 l0 308 -275 222 c-151 121 -278 221
-282 220 -4 0 -131 -99 -280 -220z m525 -69 l231 -185 0 -277 1 -278 -475 0
-475 0 0 278 0 277 233 187 c127 103 237 186 243 185 6 -1 115 -85 242 -187z"/>
<path d="M533 864 c-58 -21 -138 -96 -171 -158 -23 -44 -27 -63 -27 -141 0
-75 4 -97 23 -133 35 -66 88 -119 150 -149 48 -24 70 -28 137 -28 67 0 89 4
137 28 65 32 121 90 152 156 31 68 30 199 -3 261 -32 62 -86 117 -146 148 -63
32 -186 40 -252 16z m77 -159 l0 -95 -28 0 c-27 0 -29 4 -40 58 -6 31 -14 67
-18 79 -5 19 -1 25 27 38 58 25 59 24 59 -80z m126 80 c31 -13 35 -19 30 -37
-4 -13 -12 -49 -18 -80 -11 -54 -13 -58 -40 -58 l-28 0 0 95 c0 59 4 95 10 95
6 0 27 -7 46 -15z m-272 -107 c13 -52 8 -68 -24 -68 -35 0 -35 -2 -14 50 18
45 29 50 38 18z m402 -24 c19 -44 19 -44 -16 -44 -32 0 -34 6 -24 59 8 36 21
31 40 -15z m-397 -151 c-1 -16 -4 -39 -8 -53 l-7 -25 -16 25 c-9 14 -20 37
-23 53 -7 25 -5 27 24 27 27 0 31 -3 30 -27z m139 -62 c4 -111 3 -114 -45 -97
-43 15 -43 15 -22 119 13 64 15 68 39 65 24 -3 25 -6 28 -87z m139 27 c7 -35
15 -72 18 -84 6 -18 0 -24 -32 -37 -21 -8 -41 -13 -45 -10 -10 5 -11 177 -1
186 3 4 16 7 28 7 18 0 23 -9 32 -62z m127 40 c-3 -13 -13 -36 -22 -53 -14
-28 -16 -28 -23 -10 -4 11 -8 35 -8 53 -1 29 2 32 30 32 27 0 30 -3 23 -22z"/>
</g>
</svg>
