<?xml version="1.0" standalone="no"?>
<!DOCTYPE svg PUBLIC "-//W3C//DTD SVG 20010904//EN"
 "http://www.w3.org/TR/2001/REC-SVG-20010904/DTD/svg10.dtd">
<svg version="1.0" xmlns="http://www.w3.org/2000/svg"
 width="128.000000pt" height="128.000000pt" viewBox="0 0 128.000000 128.000000"
 preserveAspectRatio="xMidYMid meet">
<g transform="translate(0.000000,128.000000) scale(0.100000,-0.100000)"
fill="#000000" stroke="none">
<path d="M550 1113 c-8 -3 -33 -23 -55 -44 -26 -24 -85 -58 -165 -95 -69 -31
-132 -63 -141 -71 -21 -18 -34 -110 -18 -129 6 -8 27 -14 45 -14 32 0 34 -2
34 -33 0 -42 15 -57 57 -57 31 0 33 -2 33 -33 0 -43 15 -57 65 -57 71 0 84 14
151 159 38 81 77 148 98 170 51 53 61 85 39 130 -29 59 -93 92 -143 74z m58
-85 c18 -18 15 -43 -8 -63 -19 -17 -21 -17 -40 0 -24 22 -25 33 -3 57 19 21
34 23 51 6z m-73 -148 c-7 -21 -8 -21 -46 16 -37 36 -38 40 -22 52 15 11 21 8
46 -17 22 -22 27 -34 22 -51z m-175 0 c-38 -32 -68 -44 -97 -38 -12 3 3 14 47
35 83 40 93 40 50 3z m83 -26 c10 -11 -75 -104 -95 -104 -31 0 -20 26 30 69
49 42 55 45 65 35z m22 -124 c-31 -64 -45 -75 -45 -34 0 24 59 108 69 98 3 -2
-8 -31 -24 -64z"/>
<path d="M778 895 c-98 -36 -158 -124 -158 -229 1 -141 100 -240 240 -240 140
0 239 99 240 240 0 169 -165 287 -322 229z m147 -79 c41 -18 43 -25 10 -49
-19 -14 -29 -15 -45 -7 -11 6 -20 17 -20 25 0 7 -3 20 -6 29 -8 20 15 21 61 2z
m-115 -35 c0 -34 -17 -51 -51 -51 -44 0 -46 20 -5 57 40 37 56 36 56 -6z m204
-57 c8 -22 7 -74 -1 -74 -53 1 -77 44 -40 72 27 22 33 22 41 2z m-116 -53 c4
-27 -23 -50 -50 -43 -27 7 -35 50 -12 66 24 18 58 5 62 -23z m-153 -1 c23 0
25 -42 3 -73 l-21 -29 -13 23 c-7 13 -13 39 -14 58 0 26 3 32 16 27 9 -3 21
-6 29 -6z m255 -90 c0 -10 -58 -60 -70 -60 -16 0 -18 55 -3 72 12 13 20 14 44
6 16 -5 29 -14 29 -18z m-150 -14 c0 -1 4 -16 10 -35 l9 -33 -37 7 c-56 10
-67 23 -42 50 13 14 29 21 41 18 10 -3 19 -6 19 -7z"/>
<path d="M210 532 c-46 -14 -50 -28 -50 -184 0 -135 2 -150 20 -168 19 -19 33
-20 330 -20 297 0 311 1 330 20 27 27 27 94 0 138 -26 43 -68 67 -142 81 -48
10 -76 25 -146 77 -109 80 -133 82 -173 18 -29 -47 -69 -47 -97 0 -20 33 -45
47 -72 38z m250 -96 c0 -8 -4 -18 -10 -21 -16 -10 -12 -45 6 -52 8 -3 25 4 39
17 30 28 40 22 24 -14 -10 -22 -10 -29 3 -42 14 -15 18 -14 37 5 15 15 26 19
39 13 9 -5 46 -15 81 -22 65 -13 101 -37 101 -65 0 -13 -37 -15 -270 -15
l-270 0 0 80 c0 77 1 80 19 70 26 -13 104 -13 134 1 14 6 31 22 38 35 14 27
29 32 29 10z"/>
</g>
</svg>
