<?xml version="1.0" standalone="no"?>
<!DOCTYPE svg PUBLIC "-//W3C//DTD SVG 20010904//EN"
 "http://www.w3.org/TR/2001/REC-SVG-20010904/DTD/svg10.dtd">
<svg version="1.0" xmlns="http://www.w3.org/2000/svg"
 width="128.000000pt" height="128.000000pt" viewBox="0 0 128.000000 128.000000"
 preserveAspectRatio="xMidYMid meet">
<g transform="translate(0.000000,128.000000) scale(0.100000,-0.100000)"
fill="#000000" stroke="none">
<path d="M598 1024 l-3 -168 -95 -12 c-158 -20 -244 -50 -298 -104 l-32 -32 0
-217 0 -217 32 -31 c42 -40 96 -66 183 -89 101 -27 409 -27 510 0 91 24 156
57 189 96 l26 32 0 210 c0 243 -2 249 -93 291 -69 33 -121 46 -237 61 l-95 12
0 38 0 38 118 53 c65 29 119 55 120 59 2 6 -257 127 -304 141 -17 6 -19 -4
-21 -161z m-240 -476 l72 -22 0 -123 c0 -74 -4 -123 -10 -123 -23 0 -115 41
-136 61 -22 21 -24 30 -24 132 0 83 3 107 13 103 6 -3 45 -15 85 -28z m641
-204 c-20 -21 -114 -64 -139 -64 -6 0 -10 51 -10 123 l0 123 83 24 82 25 3
-104 c2 -95 1 -106 -19 -127z m-231 46 l-3 -125 -125 0 -125 0 -3 125 -3 125
131 0 131 0 -3 -125z"/>
</g>
</svg>
