<?xml version="1.0" standalone="no"?>
<!DOCTYPE svg PUBLIC "-//W3C//DTD SVG 20010904//EN"
 "http://www.w3.org/TR/2001/REC-SVG-20010904/DTD/svg10.dtd">
<svg version="1.0" xmlns="http://www.w3.org/2000/svg"
 width="128.000000pt" height="128.000000pt" viewBox="0 0 128.000000 128.000000"
 preserveAspectRatio="xMidYMid meet">
<g transform="translate(0.000000,128.000000) scale(0.100000,-0.100000)"
fill="#000000" stroke="none">
<path d="M1005 1123 c-52 -71 -53 -85 -11 -149 40 -60 54 -69 89 -60 25 7 87
96 87 126 0 11 -16 45 -36 75 -30 45 -42 55 -65 55 -23 0 -36 -10 -64 -47z"/>
<path d="M604 1141 c-9 -10 -107 -180 -218 -377 l-201 -359 -52 -3 c-41 -2
-56 -8 -68 -25 -20 -29 -19 -43 5 -67 16 -16 33 -20 84 -20 35 0 71 3 80 6 8
3 56 79 107 168 85 153 94 165 145 196 127 77 181 77 308 0 51 -31 60 -43 145
-196 51 -89 99 -165 107 -168 9 -3 45 -6 80 -6 51 0 68 4 84 20 24 24 25 38 5
67 -12 17 -27 23 -68 25 l-52 3 -207 369 c-114 203 -213 373 -220 378 -22 13
-47 9 -64 -11z m89 -237 c27 -47 47 -88 45 -89 -2 -2 -25 1 -51 7 -32 6 -62 6
-94 0 -26 -6 -49 -9 -51 -7 -4 4 91 175 98 175 3 0 27 -39 53 -86z"/>
<path d="M152 868 c-20 -26 -42 -78 -42 -100 0 -28 34 -86 55 -94 33 -13 61 5
84 54 22 48 23 50 6 83 -10 19 -24 42 -33 52 -18 20 -55 23 -70 5z"/>
<path d="M602 502 c-36 -11 -91 -60 -111 -100 -11 -21 -25 -66 -31 -100 l-13
-62 -183 0 c-178 0 -183 -1 -198 -22 -21 -30 -20 -44 4 -68 20 -20 33 -20 570
-20 537 0 550 0 570 20 24 24 25 38 4 68 -15 21 -20 22 -198 22 l-184 0 -12
63 c-6 35 -21 81 -33 102 -42 73 -123 116 -185 97z m72 -121 c21 -23 45 -86
46 -118 0 -22 -4 -23 -80 -23 -76 0 -80 1 -80 23 1 32 25 95 46 118 22 24 46
24 68 0z"/>
</g>
</svg>
