<?xml version="1.0" standalone="no"?>
<!DOCTYPE svg PUBLIC "-//W3C//DTD SVG 20010904//EN"
 "http://www.w3.org/TR/2001/REC-SVG-20010904/DTD/svg10.dtd">
<svg version="1.0" xmlns="http://www.w3.org/2000/svg"
 width="128.000000pt" height="128.000000pt" viewBox="0 0 128.000000 128.000000"
 preserveAspectRatio="xMidYMid meet">
<g transform="translate(0.000000,128.000000) scale(0.100000,-0.100000)"
fill="#000000" stroke="none">
<path d="M435 1110 c-11 -4 -31 -20 -45 -35 l-25 -27 -3 -274 -3 -275 22 11
c15 9 24 9 32 1 6 -6 15 -11 19 -11 4 0 8 116 8 258 0 277 1 282 52 282 26 0
28 3 28 40 0 39 -1 40 -32 39 -18 0 -42 -4 -53 -9z"/>
<path d="M914 1110 c-39 -15 -74 -68 -74 -111 l0 -39 -180 0 -180 0 0 -40 0
-40 180 0 180 0 0 -40 0 -40 -180 0 -180 0 0 -40 0 -40 180 0 180 0 0 -40 0
-40 -180 0 -180 0 0 -40 0 -40 180 0 180 0 0 -30 c0 -28 2 -30 21 -19 15 8 24
8 32 0 6 -6 15 -11 19 -11 4 0 8 116 8 258 0 277 1 282 52 282 26 0 28 3 28
40 0 39 -1 40 -32 39 -18 0 -42 -4 -54 -9z"/>
<path d="M369 428 c-36 -27 -105 -34 -152 -15 -36 16 -37 16 -58 -15 -22 -30
-22 -31 -3 -42 64 -38 140 -46 202 -21 34 14 42 14 81 0 55 -19 110 -19 159 0
34 14 42 14 81 0 55 -19 112 -19 158 0 33 14 41 14 86 -1 30 -10 68 -15 96
-12 45 5 121 34 121 47 -1 3 -11 18 -23 34 -23 27 -24 27 -56 11 -42 -21 -113
-14 -152 15 l-29 22 -31 -23 c-43 -32 -135 -32 -178 0 l-31 23 -31 -23 c-43
-32 -135 -32 -178 0 -36 26 -30 26 -62 0z"/>
<path d="M369 268 c-36 -27 -105 -34 -152 -15 -36 16 -37 16 -58 -15 -22 -30
-22 -31 -3 -42 64 -38 140 -46 202 -21 34 14 42 14 81 0 24 -8 61 -15 82 -15
21 0 56 7 77 15 34 14 42 14 81 0 55 -19 112 -19 158 0 33 14 41 14 86 -1 30
-10 68 -15 96 -12 45 5 121 34 121 47 -1 3 -11 18 -23 34 -23 27 -24 27 -56
11 -42 -21 -113 -14 -152 15 l-30 22 -32 -23 c-45 -32 -133 -32 -176 0 l-31
23 -31 -23 c-43 -32 -135 -32 -178 0 -36 26 -30 26 -62 0z"/>
</g>
</svg>
