<?xml version="1.0" standalone="no"?>
<!DOCTYPE svg PUBLIC "-//W3C//DTD SVG 20010904//EN"
 "http://www.w3.org/TR/2001/REC-SVG-20010904/DTD/svg10.dtd">
<svg version="1.0" xmlns="http://www.w3.org/2000/svg"
 width="128.000000pt" height="128.000000pt" viewBox="0 0 128.000000 128.000000"
 preserveAspectRatio="xMidYMid meet">
<g transform="translate(0.000000,128.000000) scale(0.100000,-0.100000)"
fill="#000000" stroke="none">
<path d="M594 1022 c-78 -42 -149 -83 -158 -91 -23 -19 -19 -70 9 -116 14 -22
25 -47 25 -55 0 -9 -62 -53 -145 -103 -134 -81 -145 -90 -145 -118 0 -35 0
-35 42 -9 18 11 40 20 48 20 8 0 46 -21 84 -45 89 -58 111 -57 201 1 81 52 87
52 176 -6 35 -23 74 -40 90 -40 28 0 27 2 -78 168 -58 92 -114 180 -125 195
-11 15 -18 33 -15 40 3 7 49 35 102 62 91 47 125 78 125 115 0 20 -49 60 -72
59 -13 0 -87 -35 -164 -77z"/>
<path d="M885 860 c-68 -15 -105 -61 -105 -132 0 -126 153 -183 234 -87 83 98
-4 246 -129 219z"/>
<path d="M180 365 c-41 -25 -78 -45 -82 -45 -4 0 -8 -29 -8 -65 0 -79 5 -81
99 -25 37 22 76 40 87 40 10 0 53 -21 94 -45 41 -25 79 -45 85 -45 5 0 44 20
85 45 41 25 85 45 98 45 12 0 58 -20 101 -45 88 -52 85 -52 185 9 33 20 68 36
79 36 11 0 45 -15 76 -34 110 -66 101 -67 101 12 l0 69 -79 47 c-43 25 -86 46
-95 46 -9 0 -47 -18 -84 -40 -97 -59 -100 -59 -190 -6 -43 25 -85 46 -93 46
-8 0 -46 -19 -84 -41 -39 -24 -83 -42 -100 -42 -19 -1 -55 15 -96 41 -36 23
-75 42 -85 42 -10 0 -53 -21 -94 -45z"/>
</g>
</svg>
