<?xml version="1.0" standalone="no"?>
<!DOCTYPE svg PUBLIC "-//W3C//DTD SVG 20010904//EN"
 "http://www.w3.org/TR/2001/REC-SVG-20010904/DTD/svg10.dtd">
<svg version="1.0" xmlns="http://www.w3.org/2000/svg"
 width="128.000000pt" height="128.000000pt" viewBox="0 0 128.000000 128.000000"
 preserveAspectRatio="xMidYMid meet">
<g transform="translate(0.000000,128.000000) scale(0.100000,-0.100000)"
fill="#000000" stroke="none">
<path d="M602 1144 c-72 -19 -107 -39 -165 -92 -47 -45 -91 -115 -108 -174
-13 -48 11 -63 166 -98 77 -18 141 -33 142 -35 2 -1 -8 -60 -22 -131 -14 -71
-25 -131 -25 -133 0 -2 -51 -1 -112 1 -139 6 -166 17 -257 102 -39 36 -76 66
-84 66 -20 0 -37 -21 -37 -46 0 -24 124 -148 159 -159 19 -6 21 -14 21 -96 l0
-89 -84 0 c-86 0 -116 -12 -116 -44 0 -35 20 -36 566 -34 l539 3 3 23 c5 33
-15 52 -56 52 -31 0 -47 11 -127 89 -105 101 -165 131 -265 131 -71 0 -69 -6
-40 135 11 53 20 99 20 101 0 9 46 2 166 -27 70 -16 139 -29 153 -27 33 4 45
48 39 144 -10 161 -124 297 -283 339 -72 18 -123 18 -193 -1z m13 -139 c-24
-36 -50 -83 -56 -105 -7 -22 -18 -40 -25 -40 -26 0 -114 22 -114 28 0 14 38
69 71 101 35 35 120 81 151 81 14 0 9 -14 -27 -65z m169 -34 c17 -76 20 -139
8 -159 -12 -18 -162 15 -162 35 0 39 104 193 130 193 5 0 16 -31 24 -69z m128
12 c20 -21 45 -57 57 -80 22 -44 40 -153 25 -153 -5 1 -33 6 -62 13 l-52 12
-4 105 c-1 58 -6 113 -11 123 -12 28 9 19 47 -20z m-67 -610 c22 -12 60 -42
85 -67 l44 -46 -302 0 -302 0 0 71 0 70 218 -3 c200 -3 220 -5 257 -25z"/>
</g>
</svg>
