<?xml version="1.0" standalone="no"?>
<!DOCTYPE svg PUBLIC "-//W3C//DTD SVG 20010904//EN"
 "http://www.w3.org/TR/2001/REC-SVG-20010904/DTD/svg10.dtd">
<svg version="1.0" xmlns="http://www.w3.org/2000/svg"
 width="128.000000pt" height="128.000000pt" viewBox="0 0 128.000000 128.000000"
 preserveAspectRatio="xMidYMid meet">
<g transform="translate(0.000000,128.000000) scale(0.100000,-0.100000)"
fill="#000000" stroke="none">
<path d="M460 1180 c67 -38 144 -111 173 -165 17 -32 22 -57 22 -125 0 -76 -4
-92 -33 -152 -18 -37 -60 -104 -94 -150 -77 -104 -280 -312 -415 -425 -57 -47
-103 -88 -103 -90 0 -1 99 -3 220 -3 l220 0 111 107 c177 171 289 335 338 497
26 85 27 150 1 218 -40 105 -130 191 -279 265 -74 37 -107 48 -155 51 l-61 3
55 -31z"/>
<path d="M650 1172 c102 -51 158 -91 217 -156 73 -79 96 -134 101 -234 3 -69
0 -97 -22 -165 -50 -159 -141 -309 -273 -448 -46 -48 -83 -89 -83 -93 0 -3
101 -6 224 -6 l224 0 46 51 c123 137 209 387 193 560 -11 121 -97 247 -233
345 -64 46 -255 141 -337 168 -26 9 -67 16 -90 16 l-42 -1 75 -37z"/>
</g>
</svg>
