<?xml version="1.0" standalone="no"?>
<!DOCTYPE svg PUBLIC "-//W3C//DTD SVG 20010904//EN"
 "http://www.w3.org/TR/2001/REC-SVG-20010904/DTD/svg10.dtd">
<svg version="1.0" xmlns="http://www.w3.org/2000/svg"
 width="128.000000pt" height="128.000000pt" viewBox="0 0 128.000000 128.000000"
 preserveAspectRatio="xMidYMid meet">
<g transform="translate(0.000000,128.000000) scale(0.100000,-0.100000)"
fill="#000000" stroke="none">
<path d="M712 1214 c-11 -7 -23 -30 -27 -51 -13 -73 -99 -193 -137 -193 -15 0
-18 8 -18 50 0 40 -4 51 -21 60 -51 28 -95 -21 -70 -76 6 -14 11 -67 11 -119
0 -162 39 -250 145 -319 78 -52 141 -71 288 -86 140 -15 162 -11 162 31 0 29
-26 36 -131 38 -135 2 -303 69 -355 142 -23 33 -34 87 -25 124 4 14 45 66 92
115 94 100 134 172 134 244 0 49 -16 63 -48 40z"/>
<path d="M221 1071 c-36 -23 30 -143 103 -186 50 -29 71 -31 80 -8 5 12 -7 30
-43 63 -27 25 -63 66 -81 93 -33 49 -37 52 -59 38z"/>
<path d="M484 554 c-14 -56 83 -177 196 -244 36 -22 98 -51 138 -66 114 -42
88 -49 -171 -49 -227 1 -305 9 -445 47 -74 20 -121 21 -112 3 5 -12 205 -105
225 -105 8 0 15 -4 15 -10 0 -16 -71 -12 -155 10 -93 24 -105 24 -105 5 0 -26
218 -73 400 -85 237 -15 601 16 713 61 68 28 4 39 -79 14 -48 -14 -174 -21
-161 -9 7 7 75 37 185 81 34 14 62 29 62 33 0 18 -31 17 -91 -1 -34 -11 -83
-21 -108 -22 -45 -2 -46 -1 -49 31 -3 33 -40 62 -79 62 -31 0 -163 68 -212
109 -26 22 -62 66 -81 100 -26 45 -41 60 -57 61 -16 0 -25 -8 -29 -26z m11
-394 c4 -6 -11 -10 -37 -10 -31 0 -39 3 -28 10 20 13 57 13 65 0z m193 -27
c-21 -2 -57 -2 -80 0 -24 2 -7 4 37 4 44 0 63 -2 43 -4z m235 -30 c-7 -2 -21
-2 -30 0 -10 3 -4 5 12 5 17 0 24 -2 18 -5z"/>
</g>
</svg>
