<?xml version="1.0" standalone="no"?>
<!DOCTYPE svg PUBLIC "-//W3C//DTD SVG 20010904//EN"
 "http://www.w3.org/TR/2001/REC-SVG-20010904/DTD/svg10.dtd">
<svg version="1.0" xmlns="http://www.w3.org/2000/svg"
 width="128.000000pt" height="128.000000pt" viewBox="0 0 128.000000 128.000000"
 preserveAspectRatio="xMidYMid meet">
<g transform="translate(0.000000,128.000000) scale(0.100000,-0.100000)"
fill="#000000" stroke="none">
<path d="M580 1120 c-272 -145 -276 -150 -185 -295 30 -48 55 -90 55 -94 0 -3
-76 -49 -168 -101 -265 -150 -251 -140 -252 -177 0 -38 5 -39 50 -17 53 27 97
21 190 -26 48 -24 100 -43 120 -44 23 0 67 15 125 43 54 26 104 44 125 44 21
0 67 -17 117 -41 75 -38 163 -64 163 -48 0 3 -77 128 -171 277 -94 149 -170
271 -168 273 2 1 63 33 134 70 143 74 175 101 175 148 0 35 -56 98 -86 97 -11
0 -111 -49 -224 -109z"/>
<path d="M925 894 c-45 -23 -66 -45 -86 -89 -23 -49 -24 -94 -4 -142 20 -48
41 -71 87 -94 81 -41 192 -10 235 67 25 43 31 130 12 167 -17 32 -60 77 -91
93 -36 19 -116 18 -153 -2z"/>
<path d="M58 243 l-58 -26 0 -93 0 -93 63 29 c34 17 74 30 88 30 15 0 70 -21
124 -46 114 -54 124 -54 248 5 47 23 98 41 113 41 15 0 72 -21 127 -46 116
-55 126 -54 248 5 94 46 123 50 182 20 94 -46 87 -51 87 55 l0 93 -61 27 c-33
14 -74 26 -91 26 -17 0 -72 -19 -122 -42 -50 -23 -104 -42 -121 -42 -16 0 -68
17 -114 38 -123 56 -138 56 -263 2 -58 -25 -109 -46 -113 -46 -4 0 -54 20
-111 45 -118 51 -146 54 -226 18z"/>
</g>
</svg>
