<?xml version="1.0" standalone="no"?>
<!DOCTYPE svg PUBLIC "-//W3C//DTD SVG 20010904//EN"
 "http://www.w3.org/TR/2001/REC-SVG-20010904/DTD/svg10.dtd">
<svg version="1.0" xmlns="http://www.w3.org/2000/svg"
 width="128.000000pt" height="128.000000pt" viewBox="0 0 128.000000 128.000000"
 preserveAspectRatio="xMidYMid meet">
<g transform="translate(0.000000,128.000000) scale(0.100000,-0.100000)"
fill="#000000" stroke="none">
<path d="M500 1264 c-36 -7 -103 -32 -150 -55 -210 -104 -349 -331 -350 -570
0 -58 3 -70 28 -97 67 -74 184 -118 287 -109 120 11 218 61 380 191 136 110
291 166 462 166 92 1 83 11 -32 35 -83 17 -229 22 -280 9 -59 -14 -126 -55
-292 -180 -209 -158 -249 -178 -347 -172 -46 3 -86 13 -114 27 -47 24 -56 36
-16 20 15 -5 28 -8 30 -6 2 2 20 56 40 121 35 116 35 118 16 132 -22 15 -48
71 -38 81 3 4 16 -4 27 -16 18 -19 28 -22 71 -18 33 4 58 13 74 28 13 12 27
20 30 16 11 -11 -6 -56 -30 -79 -23 -22 -24 -24 -10 -73 8 -27 17 -67 21 -88
3 -21 10 -40 14 -43 5 -3 59 42 119 100 185 179 269 222 435 220 84 -1 115 -6
195 -32 52 -18 115 -43 139 -57 24 -14 46 -23 48 -21 8 8 -18 78 -56 151 -23
46 -61 96 -111 146 -155 156 -374 220 -590 173z"/>
<path d="M1210 763 c-19 -8 -66 -24 -105 -35 -101 -28 -203 -85 -340 -189
-192 -145 -293 -185 -450 -177 -123 6 -209 51 -276 142 -33 44 -36 33 -13 -45
78 -266 336 -459 614 -459 387 0 687 348 634 734 -7 50 -12 52 -64 29z"/>
</g>
</svg>
