<?xml version="1.0" standalone="no"?>
<!DOCTYPE svg PUBLIC "-//W3C//DTD SVG 20010904//EN"
 "http://www.w3.org/TR/2001/REC-SVG-20010904/DTD/svg10.dtd">
<svg version="1.0" xmlns="http://www.w3.org/2000/svg"
 width="128.000000pt" height="128.000000pt" viewBox="0 0 128.000000 128.000000"
 preserveAspectRatio="xMidYMid meet">
<g transform="translate(0.000000,128.000000) scale(0.100000,-0.100000)"
fill="#000000" stroke="none">
<path d="M605 1264 c-46 -47 -75 -163 -75 -309 l0 -101 -120 -84 c-66 -47
-182 -129 -258 -182 -75 -54 -140 -98 -144 -98 -5 0 -8 -26 -8 -58 l0 -59 253
64 c138 34 258 63 265 63 9 0 12 -32 12 -127 l0 -128 -105 -69 -105 -69 0 -54
c0 -47 2 -54 18 -49 9 2 82 21 162 40 l145 36 140 -35 c77 -20 148 -38 158
-41 15 -5 17 2 17 49 l0 54 -105 69 -104 69 -1 128 c0 101 3 127 14 127 7 0
127 -29 265 -64 l251 -63 0 58 c0 33 -3 59 -8 59 -4 0 -69 44 -144 98 -76 53
-191 135 -256 181 l-119 83 -6 132 c-5 145 -23 218 -63 266 -29 33 -54 38 -79
14z"/>
</g>
</svg>
