<?xml version="1.0" standalone="no"?>
<!DOCTYPE svg PUBLIC "-//W3C//DTD SVG 20010904//EN"
 "http://www.w3.org/TR/2001/REC-SVG-20010904/DTD/svg10.dtd">
<svg version="1.0" xmlns="http://www.w3.org/2000/svg"
 width="128.000000pt" height="128.000000pt" viewBox="0 0 128.000000 128.000000"
 preserveAspectRatio="xMidYMid meet">
<g transform="translate(0.000000,128.000000) scale(0.100000,-0.100000)"
fill="#000000" stroke="none">
<path d="M270 1172 c-19 -16 -21 -22 -11 -40 l12 -22 372 0 c277 0 376 3 385
12 18 18 14 46 -7 58 -13 6 -149 10 -374 10 -328 0 -356 -1 -377 -18z"/>
<path d="M345 1030 c-4 -6 34 -74 84 -151 50 -77 91 -142 91 -144 0 -3 -32 -5
-71 -5 -71 0 -72 0 -120 45 -46 43 -51 45 -106 45 -90 0 -92 -4 -54 -102 l32
-84 -30 -77 c-17 -43 -31 -82 -31 -87 0 -6 33 -10 76 -10 74 0 77 1 121 40 43
38 49 40 109 40 35 0 64 -3 64 -7 0 -3 -39 -66 -86 -139 -47 -74 -83 -138 -79
-144 3 -5 39 -10 78 -10 l72 0 150 150 150 150 114 0 c104 0 117 2 163 27 84
46 87 80 11 128 -45 28 -55 30 -164 33 l-116 4 -154 154 -154 154 -72 0 c-39
0 -75 -5 -78 -10z"/>
<path d="M259 148 c-10 -18 -8 -24 11 -40 21 -17 49 -18 377 -18 225 0 361 4
374 10 21 12 25 40 7 58 -9 9 -108 12 -385 12 l-372 0 -12 -22z"/>
</g>
</svg>
