<?xml version="1.0" standalone="no"?>
<!DOCTYPE svg PUBLIC "-//W3C//DTD SVG 20010904//EN"
 "http://www.w3.org/TR/2001/REC-SVG-20010904/DTD/svg10.dtd">
<svg version="1.0" xmlns="http://www.w3.org/2000/svg"
 width="128.000000pt" height="128.000000pt" viewBox="0 0 128.000000 128.000000"
 preserveAspectRatio="xMidYMid meet">
<g transform="translate(0.000000,128.000000) scale(0.100000,-0.100000)"
fill="#000000" stroke="none">
<path d="M206 1191 l-27 -29 68 -57 c37 -32 68 -62 68 -66 0 -12 -115 -149
-125 -149 -5 0 -22 11 -38 25 l-30 25 -21 -26 c-12 -15 -21 -30 -21 -34 0 -6
100 -92 172 -148 15 -12 20 -10 42 15 l24 28 -34 28 -34 29 42 50 c24 28 54
64 68 79 l25 29 72 -60 71 -60 21 29 c12 16 21 31 21 33 0 3 -29 28 -65 57
-36 29 -65 57 -65 61 0 5 12 23 27 40 l26 32 -29 24 -29 24 -31 -35 -31 -35
-70 60 -70 59 -27 -28z"/>
<path d="M920 1145 l0 -45 -90 0 -90 0 0 -40 0 -40 90 0 90 0 0 -100 0 -100
-45 0 -45 0 0 -40 0 -40 130 0 130 0 0 40 0 40 -45 0 -45 0 0 100 0 99 93 3
92 3 3 38 3 37 -95 0 -96 0 0 45 0 45 -40 0 -40 0 0 -45z"/>
<path d="M370 570 c-7 -22 -15 -40 -16 -40 -2 0 -40 14 -86 30 -45 17 -85 27
-88 23 -3 -5 -11 -20 -18 -35 -11 -26 -10 -27 46 -48 101 -37 112 -42 112 -55
0 -7 -14 -51 -31 -98 l-31 -85 -41 14 c-48 17 -56 11 -61 -48 -1 -6 51 -30
114 -53 l115 -43 12 30 c18 42 18 43 -27 58 -22 7 -40 14 -40 15 0 3 47 130
61 167 l11 27 81 -29 c44 -17 84 -30 88 -30 4 0 12 14 18 32 13 38 12 39 -74
68 -88 30 -88 29 -71 77 14 40 14 41 -10 52 -40 18 -50 13 -64 -29z"/>
<path d="M1019 524 l-76 -54 -24 35 c-27 40 -35 42 -68 16 l-24 -18 26 -38 26
-38 -42 -30 c-23 -17 -57 -41 -75 -54 l-32 -24 17 -30 c10 -16 21 -29 25 -29
4 0 40 23 79 51 39 28 75 47 79 42 4 -4 31 -42 59 -83 l52 -75 -22 -18 c-12
-10 -29 -22 -37 -26 -12 -7 -11 -13 8 -39 13 -17 28 -28 34 -25 31 18 196 135
196 139 0 3 -10 18 -21 34 l-22 29 -34 -26 c-19 -15 -37 -22 -42 -17 -10 11
-95 134 -104 151 -4 7 20 30 60 59 38 26 71 50 76 54 4 3 -3 20 -15 37 l-23
30 -76 -53z"/>
</g>
</svg>
