<?xml version="1.0" standalone="no"?>
<!DOCTYPE svg PUBLIC "-//W3C//DTD SVG 20010904//EN"
 "http://www.w3.org/TR/2001/REC-SVG-20010904/DTD/svg10.dtd">
<svg version="1.0" xmlns="http://www.w3.org/2000/svg"
 width="128.000000pt" height="128.000000pt" viewBox="0 0 128.000000 128.000000"
 preserveAspectRatio="xMidYMid meet">
<g transform="translate(0.000000,128.000000) scale(0.100000,-0.100000)"
fill="#000000" stroke="none">
<path d="M880 1205 c0 -23 3 -25 50 -25 43 0 50 -3 50 -20 0 -13 7 -20 20 -20
13 0 20 7 20 20 0 17 7 20 50 20 47 0 50 2 50 25 l0 25 -120 0 -120 0 0 -25z"/>
<path d="M920 1064 c-25 -20 -47 -38 -49 -40 -2 -2 53 -4 122 -4 70 0 127 3
127 8 -1 4 -21 22 -45 40 -59 43 -96 42 -155 -4z"/>
<path d="M162 960 c-11 -17 -5 -23 56 -58 55 -32 269 -155 294 -168 3 -2 24
27 47 66 46 81 49 79 -77 56 l-72 -13 -103 59 c-56 33 -109 63 -118 68 -10 6
-19 3 -27 -10z"/>
<path d="M820 940 l0 -40 40 0 40 0 0 40 0 40 -40 0 -40 0 0 -40z"/>
<path d="M940 940 l0 -40 60 0 60 0 0 40 0 40 -60 0 -60 0 0 -40z"/>
<path d="M1100 940 l0 -40 40 0 40 0 0 40 0 40 -40 0 -40 0 0 -40z"/>
<path d="M850 855 c0 -3 19 -30 41 -60 l41 -55 68 0 68 0 41 55 c22 30 41 57
41 60 0 3 -67 5 -150 5 -82 0 -150 -2 -150 -5z"/>
<path d="M940 660 l0 -40 60 0 60 0 0 40 0 40 -60 0 -60 0 0 -40z"/>
<path d="M940 320 l0 -260 60 0 60 0 0 260 0 260 -60 0 -60 0 0 -260z"/>
<path d="M131 405 c-22 -30 -41 -57 -41 -60 0 -3 182 -5 405 -5 l405 0 0 60 0
60 -364 0 -364 0 -41 -55z"/>
<path d="M60 180 l0 -120 40 0 40 0 0 80 0 80 80 0 80 0 0 -80 0 -80 300 0
300 0 0 120 0 120 -420 0 -420 0 0 -120z m460 -20 c0 -18 -7 -20 -60 -20 -53
0 -60 2 -60 20 0 18 7 20 60 20 53 0 60 -2 60 -20z m240 0 c0 -18 -7 -20 -60
-20 -53 0 -60 2 -60 20 0 18 7 20 60 20 53 0 60 -2 60 -20z"/>
<path d="M1100 175 l0 -115 60 0 60 0 0 83 0 82 -54 33 c-30 17 -57 32 -60 32
-3 0 -6 -52 -6 -115z"/>
<path d="M180 120 l0 -60 40 0 40 0 0 60 0 60 -40 0 -40 0 0 -60z"/>
</g>
</svg>
