<?xml version="1.0" standalone="no"?>
<!DOCTYPE svg PUBLIC "-//W3C//DTD SVG 20010904//EN"
 "http://www.w3.org/TR/2001/REC-SVG-20010904/DTD/svg10.dtd">
<svg version="1.0" xmlns="http://www.w3.org/2000/svg"
 width="128.000000pt" height="128.000000pt" viewBox="0 0 128.000000 128.000000"
 preserveAspectRatio="xMidYMid meet">
<g transform="translate(0.000000,128.000000) scale(0.100000,-0.100000)"
fill="#000000" stroke="none">
<path d="M620 1215 c0 -58 2 -65 20 -65 18 0 20 7 20 65 0 58 -2 65 -20 65
-18 0 -20 -7 -20 -65z"/>
<path d="M360 1256 c-9 -12 -6 -24 15 -60 32 -55 39 -60 54 -42 9 11 5 25 -19
65 -18 28 -33 51 -35 51 -1 0 -8 -6 -15 -14z"/>
<path d="M870 1219 c-28 -46 -30 -53 -16 -67 13 -13 18 -10 45 34 35 55 36 57
17 73 -11 9 -20 2 -46 -40z"/>
<path d="M175 1097 c-3 -7 -4 -120 -3 -252 l3 -240 188 -3 187 -2 0 -45 0 -45
-232 -2 -233 -3 -3 -48 c-3 -51 9 -77 37 -77 27 0 65 -145 71 -270 l5 -105
445 0 445 0 5 105 c6 125 44 270 71 270 28 0 40 26 37 77 l-3 48 -232 3 -233
2 0 45 0 45 188 2 187 3 0 250 0 250 -463 3 c-368 2 -464 0 -467 -11z m205
-127 l0 -101 -82 3 -83 3 -3 84 c-2 46 -1 90 2 98 4 9 28 13 86 13 l80 0 0
-100z m238 3 l-3 -98 -92 -3 -93 -3 0 101 0 100 95 0 96 0 -3 -97z m232 -3 l0
-101 -92 3 -93 3 -3 98 -3 97 96 0 95 0 0 -100z m215 0 l0 -95 -82 -3 -83 -3
0 101 0 101 83 -3 82 -3 0 -95z m-685 -235 l0 -95 -85 0 -85 0 0 95 0 95 85 0
85 0 0 -95z m240 0 l0 -95 -95 0 -95 0 0 95 0 95 95 0 95 0 0 -95z m230 0 l0
-95 -95 0 -95 0 0 95 0 95 95 0 95 0 0 -95z m220 0 l0 -95 -85 0 -85 0 0 95 0
95 85 0 85 0 0 -95z m-390 -180 l0 -45 -40 0 -40 0 0 45 0 45 40 0 40 0 0 -45z
m470 -105 c0 -20 -7 -20 -510 -20 -503 0 -510 0 -510 20 0 20 7 20 510 20 503
0 510 0 510 -20z m-56 -95 c-3 -14 -14 -51 -24 -83 l-18 -57 -412 0 -412 0
-18 57 c-10 32 -21 69 -24 83 l-6 25 460 0 460 0 -6 -25z m-46 -247 l-3 -63
-405 0 -405 0 -3 63 -3 62 411 0 411 0 -3 -62z"/>
</g>
</svg>
