<?xml version="1.0" standalone="no"?>
<!DOCTYPE svg PUBLIC "-//W3C//DTD SVG 20010904//EN"
 "http://www.w3.org/TR/2001/REC-SVG-20010904/DTD/svg10.dtd">
<svg version="1.0" xmlns="http://www.w3.org/2000/svg"
 width="128.000000pt" height="128.000000pt" viewBox="0 0 128.000000 128.000000"
 preserveAspectRatio="xMidYMid meet">
<g transform="translate(0.000000,128.000000) scale(0.100000,-0.100000)"
fill="#000000" stroke="none">
<path d="M949 1239 l-22 -32 58 -52 c58 -51 58 -52 42 -75 -29 -42 -22 -81 23
-125 l40 -39 0 -302 c0 -273 -2 -304 -18 -324 -23 -29 -49 -17 -62 28 -5 21
-10 133 -10 250 0 166 -3 219 -14 241 -23 44 -82 90 -125 97 l-39 6 -4 115
c-4 165 24 153 -358 153 -170 0 -316 -3 -325 -6 -44 -17 -45 -32 -45 -619 l0
-555 365 0 365 0 0 410 c0 280 3 410 10 410 25 0 70 -32 75 -53 2 -12 6 -125
7 -252 3 -210 5 -233 23 -265 53 -91 185 -88 229 5 14 28 16 87 16 427 -1 289
-4 399 -13 415 -15 27 -171 173 -185 173 -6 0 -21 -14 -33 -31z m-219 -374 l0
-135 -275 0 -275 0 0 135 0 135 275 0 275 0 0 -135z"/>
</g>
</svg>
