<?xml version="1.0" standalone="no"?>
<!DOCTYPE svg PUBLIC "-//W3C//DTD SVG 20010904//EN"
 "http://www.w3.org/TR/2001/REC-SVG-20010904/DTD/svg10.dtd">
<svg version="1.0" xmlns="http://www.w3.org/2000/svg"
 width="128.000000pt" height="128.000000pt" viewBox="0 0 128.000000 128.000000"
 preserveAspectRatio="xMidYMid meet">
<g transform="translate(0.000000,128.000000) scale(0.100000,-0.100000)"
fill="#000000" stroke="none">
<path d="M950 1273 c-48 -3 -80 -9 -91 -19 -9 -8 -34 -50 -55 -92 -21 -42 -48
-94 -61 -114 l-23 -38 -360 0 -360 0 0 -120 0 -120 290 0 c245 0 292 -2 296
-15 9 -22 -97 -231 -124 -244 -15 -7 -103 -11 -242 -11 l-220 0 0 -120 0 -120
165 0 c196 0 189 9 115 -137 -27 -54 -50 -104 -50 -110 0 -10 26 -13 98 -13
l97 1 58 119 c32 66 67 125 77 130 11 6 157 10 369 10 l351 0 0 120 0 120
-290 0 c-249 0 -291 2 -296 15 -7 16 99 234 119 247 7 4 114 8 240 8 l227 0 0
120 0 120 -164 0 c-92 0 -167 4 -171 9 -3 6 19 58 49 117 43 84 53 111 45 126
-5 10 -11 17 -12 16 -1 -1 -36 -4 -77 -5z"/>
</g>
</svg>
