<?xml version="1.0" standalone="no"?>
<!DOCTYPE svg PUBLIC "-//W3C//DTD SVG 20010904//EN"
 "http://www.w3.org/TR/2001/REC-SVG-20010904/DTD/svg10.dtd">
<svg version="1.0" xmlns="http://www.w3.org/2000/svg"
 width="128.000000pt" height="128.000000pt" viewBox="0 0 128.000000 128.000000"
 preserveAspectRatio="xMidYMid meet">
<g transform="translate(0.000000,128.000000) scale(0.100000,-0.100000)"
fill="#000000" stroke="none">
<path d="M298 1099 c-25 -14 -22 -45 4 -63 18 -13 56 -16 200 -16 l178 0 0
-40 c0 -29 -5 -42 -20 -50 -14 -8 -20 -21 -20 -45 l0 -35 -150 0 -150 0 -19
39 c-60 117 -236 118 -298 1 -40 -75 -26 -149 40 -207 44 -39 96 -50 156 -34
24 6 47 8 51 4 4 -4 59 -78 123 -164 111 -152 117 -158 183 -190 l68 -34 293
-3 293 -3 25 25 c23 23 25 33 25 110 0 47 -5 97 -11 113 -14 37 -274 300 -321
324 -22 11 -58 19 -88 19 l-50 0 0 35 c0 24 -6 37 -20 45 -15 8 -20 21 -20 50
l0 40 175 0 c111 0 183 4 200 12 30 14 34 53 6 68 -27 14 -829 13 -853 -1z
m-53 -250 c21 -39 19 -53 -11 -88 -20 -24 -34 -31 -63 -31 -93 0 -117 134 -28
158 43 12 84 -4 102 -39z m653 -93 c15 -8 79 -67 142 -130 l115 -116 -158 0
c-164 0 -207 9 -221 45 -12 32 -6 146 9 175 21 40 66 51 113 26z"/>
</g>
</svg>
