<?xml version="1.0" standalone="no"?>
<!DOCTYPE svg PUBLIC "-//W3C//DTD SVG 20010904//EN"
 "http://www.w3.org/TR/2001/REC-SVG-20010904/DTD/svg10.dtd">
<svg version="1.0" xmlns="http://www.w3.org/2000/svg"
 width="128.000000pt" height="128.000000pt" viewBox="0 0 128.000000 128.000000"
 preserveAspectRatio="xMidYMid meet">
<g transform="translate(0.000000,128.000000) scale(0.100000,-0.100000)"
fill="#000000" stroke="none">
<path d="M498 1224 c-311 -75 -510 -393 -443 -707 48 -228 234 -414 462 -462
375 -80 722 204 723 590 0 273 -188 512 -455 580 -72 18 -210 18 -287 -1z
m277 -79 c32 -9 84 -29 116 -46 71 -38 177 -146 213 -216 160 -317 -31 -695
-382 -755 -342 -58 -652 252 -594 594 35 204 192 377 385 424 73 17 192 17
262 -1z"/>
<path d="M367 1012 l-27 -28 0 -340 0 -340 33 -32 c25 -24 42 -32 70 -32 l37
0 0 160 0 160 160 0 160 0 0 -160 0 -160 43 0 c34 0 49 6 70 28 l27 28 0 344
0 344 -27 28 c-21 22 -36 28 -70 28 l-43 0 0 -160 0 -160 -160 0 -160 0 0 160
0 160 -43 0 c-34 0 -49 -6 -70 -28z"/>
</g>
</svg>
