<?xml version="1.0" standalone="no"?>
<!DOCTYPE svg PUBLIC "-//W3C//DTD SVG 20010904//EN"
 "http://www.w3.org/TR/2001/REC-SVG-20010904/DTD/svg10.dtd">
<svg version="1.0" xmlns="http://www.w3.org/2000/svg"
 width="128.000000pt" height="128.000000pt" viewBox="0 0 128.000000 128.000000"
 preserveAspectRatio="xMidYMid meet">
<g transform="translate(0.000000,128.000000) scale(0.100000,-0.100000)"
fill="#000000" stroke="none">
<path d="M341 1203 c-5 -10 -77 -234 -161 -498 -155 -490 -178 -583 -151 -633
11 -21 18 -21 246 -24 223 -3 234 -2 229 15 -8 26 17 350 29 364 6 9 40 13
103 13 89 0 95 -1 104 -23 11 -28 33 -330 26 -354 -5 -17 9 -18 229 -15 228 3
235 3 246 24 26 49 4 143 -151 633 -84 264 -156 488 -161 498 -8 15 -25 17
-124 17 l-114 0 -3 -42 -3 -43 -50 0 -50 0 -3 43 -3 42 -114 0 c-99 0 -116 -2
-124 -17z m363 -206 c11 -84 2 -97 -65 -97 -67 0 -81 16 -73 88 9 86 7 83 71
80 l58 -3 9 -68z m4 -180 c6 -7 12 -69 14 -142 l3 -130 -90 0 -90 0 3 129 c1
76 7 135 13 143 15 17 133 18 147 0z"/>
</g>
</svg>
