<?xml version="1.0" standalone="no"?>
<!DOCTYPE svg PUBLIC "-//W3C//DTD SVG 20010904//EN"
 "http://www.w3.org/TR/2001/REC-SVG-20010904/DTD/svg10.dtd">
<svg version="1.0" xmlns="http://www.w3.org/2000/svg"
 width="128.000000pt" height="128.000000pt" viewBox="0 0 128.000000 128.000000"
 preserveAspectRatio="xMidYMid meet">
<g transform="translate(0.000000,128.000000) scale(0.100000,-0.100000)"
fill="#000000" stroke="none">
<path d="M612 1148 c-7 -7 -12 -31 -12 -54 0 -41 -1 -42 -39 -49 -65 -11 -158
-61 -211 -115 -53 -52 -104 -146 -115 -211 -6 -37 -8 -38 -52 -41 -87 -6 -87
-70 0 -76 44 -3 46 -4 52 -41 11 -65 62 -159 115 -211 52 -53 146 -104 211
-115 37 -6 38 -8 41 -52 6 -87 70 -87 76 0 3 44 4 46 41 52 65 11 159 62 211
115 53 52 104 146 115 211 6 37 8 38 52 41 87 6 87 70 0 76 -44 3 -46 4 -52
41 -11 65 -62 159 -115 211 -53 54 -146 104 -211 115 -38 7 -39 8 -39 49 0 44
-13 66 -40 66 -9 0 -21 -5 -28 -12z m171 -208 c61 -29 127 -95 158 -157 20
-40 24 -63 24 -143 0 -85 -3 -101 -28 -148 -34 -65 -92 -122 -155 -153 -39
-20 -63 -24 -142 -24 -85 0 -101 3 -148 28 -65 34 -122 92 -153 155 -20 39
-24 63 -24 142 0 79 4 103 24 142 40 82 119 149 211 179 48 16 181 4 233 -21z"/>
</g>
</svg>
