<?xml version="1.0" standalone="no"?>
<!DOCTYPE svg PUBLIC "-//W3C//DTD SVG 20010904//EN"
 "http://www.w3.org/TR/2001/REC-SVG-20010904/DTD/svg10.dtd">
<svg version="1.0" xmlns="http://www.w3.org/2000/svg"
 width="128.000000pt" height="128.000000pt" viewBox="0 0 128.000000 128.000000"
 preserveAspectRatio="xMidYMid meet">
<g transform="translate(0.000000,128.000000) scale(0.100000,-0.100000)"
fill="#000000" stroke="none">
<path d="M137 177 l-118 -102 183 -6 c166 -5 186 -4 214 13 39 23 62 23 87 1
26 -24 108 -24 134 -1 24 22 66 23 83 3 22 -26 76 -29 120 -6 50 26 61 26 93
1 23 -18 40 -20 171 -20 80 0 146 3 146 8 0 15 -222 197 -248 203 -15 4 -189
7 -387 8 l-360 1 -118 -103z m811 30 c3 -27 2 -27 -37 -21 -31 5 -47 2 -74
-15 -43 -26 -64 -26 -102 -1 -38 25 -71 25 -113 0 -41 -25 -63 -25 -104 0 -41
25 -64 25 -111 0 -63 -34 -107 -18 -107 39 l0 31 323 -2 322 -3 3 -28z m-431
-67 c21 -11 45 -20 53 -20 8 0 32 9 53 20 20 11 45 20 55 20 10 0 35 -9 57
-20 48 -25 52 -25 100 0 48 24 73 25 97 3 28 -25 23 -28 -35 -25 -39 3 -57 0
-66 -12 -17 -21 -69 -20 -93 0 -10 10 -35 17 -57 17 -21 0 -49 -8 -62 -17 -29
-20 -69 -21 -95 -1 -25 19 -95 19 -120 0 -34 -26 -104 -13 -104 20 0 11 6 12
30 4 24 -9 37 -7 67 9 50 26 75 26 120 2z"/>
</g>
</svg>
