<?xml version="1.0" standalone="no"?>
<!DOCTYPE svg PUBLIC "-//W3C//DTD SVG 20010904//EN"
 "http://www.w3.org/TR/2001/REC-SVG-20010904/DTD/svg10.dtd">
<svg version="1.0" xmlns="http://www.w3.org/2000/svg"
 width="128.000000pt" height="128.000000pt" viewBox="0 0 128.000000 128.000000"
 preserveAspectRatio="xMidYMid meet">
<g transform="translate(0.000000,128.000000) scale(0.100000,-0.100000)"
fill="#000000" stroke="none">
<path d="M342 1267 c-18 -21 -345 -1234 -339 -1251 6 -14 71 -16 637 -16 562
0 631 2 637 16 6 17 -321 1230 -338 1251 -16 19 -581 19 -597 0z m318 -46 c0
-5 3 -23 6 -40 6 -29 5 -31 -25 -31 -33 0 -37 11 -25 58 6 21 44 33 44 13z
m10 -236 c0 -54 0 -55 -30 -55 -30 0 -30 1 -30 55 0 54 0 55 30 55 30 0 30 -1
30 -55z m14 -282 c4 -57 5 -110 2 -119 -4 -11 -17 -14 -48 -12 l-43 3 3 110
c2 60 6 114 9 118 3 4 19 7 36 5 l32 -3 9 -102z m3 -295 c13 -16 25 -308 14
-326 -5 -9 -26 -12 -67 -10 l-59 3 4 160 c2 88 8 166 13 173 6 6 27 12 48 12
21 0 42 -6 47 -12z"/>
</g>
</svg>
