<?xml version="1.0" standalone="no"?>
<!DOCTYPE svg PUBLIC "-//W3C//DTD SVG 20010904//EN"
 "http://www.w3.org/TR/2001/REC-SVG-20010904/DTD/svg10.dtd">
<svg version="1.0" xmlns="http://www.w3.org/2000/svg"
 width="128.000000pt" height="128.000000pt" viewBox="0 0 128.000000 128.000000"
 preserveAspectRatio="xMidYMid meet">
<g transform="translate(0.000000,128.000000) scale(0.100000,-0.100000)"
fill="#000000" stroke="none">
<path d="M426 891 c-39 -15 -72 -33 -74 -40 -2 -6 47 -65 108 -132 62 -66 111
-121 109 -123 -2 -2 -111 -45 -243 -94 -131 -50 -247 -99 -257 -108 -39 -35
-12 -104 40 -104 12 0 223 76 469 169 693 262 662 250 672 277 12 32 -3 72
-32 83 -27 10 -38 7 -196 -53 l-122 -47 -180 95 c-99 53 -190 98 -203 100 -12
3 -53 -8 -91 -23z"/>
<path d="M85 614 c-22 -8 -43 -18 -47 -22 -4 -4 19 -34 52 -67 l59 -59 68 24
c38 13 84 30 102 38 l35 14 -85 44 c-90 47 -120 51 -184 28z"/>
</g>
</svg>
