<?xml version="1.0" standalone="no"?>
<!DOCTYPE svg PUBLIC "-//W3C//DTD SVG 20010904//EN"
 "http://www.w3.org/TR/2001/REC-SVG-20010904/DTD/svg10.dtd">
<svg version="1.0" xmlns="http://www.w3.org/2000/svg"
 width="128.000000pt" height="128.000000pt" viewBox="0 0 128.000000 128.000000"
 preserveAspectRatio="xMidYMid meet">
<g transform="translate(0.000000,128.000000) scale(0.100000,-0.100000)"
fill="#000000" stroke="none">
<path d="M17 1262 c-15 -17 -17 -75 -17 -624 0 -573 1 -606 18 -621 17 -15 75
-17 624 -17 573 0 606 1 621 18 15 17 17 75 17 624 0 573 -1 606 -18 621 -17
15 -75 17 -624 17 -573 0 -606 -1 -621 -18z m1143 -622 l0 -520 -520 0 -520 0
0 520 0 520 520 0 520 0 0 -520z"/>
<path d="M452 1034 l-22 -15 0 -379 0 -380 26 -17 c24 -15 29 -15 53 -2 l26
15 3 152 3 152 64 0 c138 0 219 38 272 127 24 41 28 59 28 118 -1 115 -62 198
-169 230 -70 21 -254 20 -284 -1z m278 -120 c38 -23 60 -64 60 -113 0 -33 -7
-49 -34 -79 -34 -37 -35 -37 -125 -40 l-91 -4 0 126 0 126 81 0 c57 0 89 -5
109 -16z"/>
</g>
</svg>
