<?xml version="1.0" standalone="no"?>
<!DOCTYPE svg PUBLIC "-//W3C//DTD SVG 20010904//EN"
 "http://www.w3.org/TR/2001/REC-SVG-20010904/DTD/svg10.dtd">
<svg version="1.0" xmlns="http://www.w3.org/2000/svg"
 width="128.000000pt" height="128.000000pt" viewBox="0 0 128.000000 128.000000"
 preserveAspectRatio="xMidYMid meet">
<g transform="translate(0.000000,128.000000) scale(0.100000,-0.100000)"
fill="#000000" stroke="none">
<path d="M240 1253 c-31 -28 -32 -34 -135 -563 -58 -294 -105 -546 -105 -558
0 -38 31 -93 64 -113 26 -16 51 -19 153 -19 l122 0 5 43 c4 23 29 287 56 587
27 300 53 569 56 598 l6 52 -96 0 c-90 0 -97 -2 -126 -27z"/>
<path d="M586 1228 c-3 -29 -6 -81 -6 -115 l0 -63 60 0 60 0 0 69 c0 37 -3 89
-6 115 l-7 46 -47 0 -47 0 -7 -52z"/>
<path d="M820 1273 c0 -20 111 -1212 116 -1241 l5 -34 130 4 131 3 33 37 c19
20 37 49 41 65 8 31 -190 1070 -212 1115 -25 48 -50 58 -151 58 -51 0 -93 -3
-93 -7z"/>
<path d="M570 730 l0 -200 70 0 70 0 0 73 c0 39 -3 129 -7 200 l-6 127 -64 0
-63 0 0 -200z"/>
<path d="M567 413 c-4 -3 -7 -98 -7 -210 l0 -203 84 0 84 0 -5 198 c-2 108 -6
203 -8 210 -5 13 -136 18 -148 5z"/>
</g>
</svg>
