<?xml version="1.0" standalone="no"?>
<!DOCTYPE svg PUBLIC "-//W3C//DTD SVG 20010904//EN"
 "http://www.w3.org/TR/2001/REC-SVG-20010904/DTD/svg10.dtd">
<svg version="1.0" xmlns="http://www.w3.org/2000/svg"
 width="128.000000pt" height="128.000000pt" viewBox="0 0 128.000000 128.000000"
 preserveAspectRatio="xMidYMid meet">
<g transform="translate(0.000000,128.000000) scale(0.100000,-0.100000)"
fill="#000000" stroke="none">
<path d="M252 1273 c-7 -2 -16 -12 -21 -21 -5 -10 -59 -287 -121 -616 l-113
-600 22 -17 c25 -20 57 -15 72 13 10 18 229 1166 229 1200 0 33 -35 54 -68 41z"/>
<path d="M981 1264 c-11 -8 -21 -23 -21 -33 0 -10 50 -283 111 -607 74 -396
116 -595 126 -606 21 -23 46 -23 68 2 17 18 13 42 -94 612 -62 326 -114 600
-117 609 -8 27 -48 40 -73 23z"/>
<path d="M622 1222 c-9 -7 -12 -45 -10 -158 l3 -149 40 0 40 0 3 149 c3 157 0
166 -43 166 -11 0 -26 -4 -33 -8z"/>
<path d="M617 814 c-4 -4 -7 -80 -7 -169 0 -170 4 -185 46 -185 41 0 45 18 42
191 l-3 164 -35 3 c-20 2 -39 0 -43 -4z"/>
<path d="M628 359 c-16 -9 -18 -28 -18 -175 0 -162 0 -165 23 -173 12 -5 31
-5 42 -1 19 7 20 18 23 170 3 166 -2 190 -37 190 -9 0 -24 -5 -33 -11z"/>
</g>
</svg>
