<?xml version="1.0" standalone="no"?>
<!DOCTYPE svg PUBLIC "-//W3C//DTD SVG 20010904//EN"
 "http://www.w3.org/TR/2001/REC-SVG-20010904/DTD/svg10.dtd">
<svg version="1.0" xmlns="http://www.w3.org/2000/svg"
 width="128.000000pt" height="128.000000pt" viewBox="0 0 128.000000 128.000000"
 preserveAspectRatio="xMidYMid meet">
<g transform="translate(0.000000,128.000000) scale(0.100000,-0.100000)"
fill="#000000" stroke="none">
<path d="M162 1268 c-7 -7 -12 -39 -12 -75 l0 -63 -30 0 c-28 0 -33 -7 -75
-90 l-45 -90 0 -120 c0 -120 0 -121 38 -193 l37 -72 5 -280 5 -280 592 -3 593
-2 5 22 c3 13 4 145 3 293 l-3 270 -407 3 c-270 1 -408 6 -408 12 0 6 11 33
25 60 23 45 25 60 25 177 l-1 128 -42 80 -42 80 -107 3 -108 3 0 59 c0 85 -16
110 -48 78z m248 -238 c11 -21 20 -42 20 -45 0 -3 -79 -5 -175 -5 l-175 0 22
45 22 45 133 0 133 0 20 -40z m-180 -195 l0 -85 -85 0 -85 0 0 85 0 85 85 0
85 0 0 -85z m228 -2 l3 -83 -86 0 -85 0 0 85 0 86 83 -3 82 -3 3 -82z m-28
-153 c0 -6 -11 -33 -25 -60 -23 -46 -25 -60 -25 -190 l0 -140 -125 0 -125 0 0
145 c0 136 -2 149 -25 195 -14 27 -25 52 -25 55 0 3 79 5 175 5 114 0 175 -4
175 -10z m790 -190 l0 -50 -342 -2 -343 -3 -3 -188 -2 -187 -45 0 -45 0 0 240
0 240 390 0 390 0 0 -50z m-460 -270 l0 -160 -85 0 -85 0 0 160 0 160 85 0 85
0 0 -160z m230 0 l0 -160 -85 0 -85 0 0 160 0 160 85 0 85 0 0 -160z m230 0
l0 -160 -85 0 -85 0 0 160 0 160 85 0 85 0 0 -160z m-840 -75 l0 -85 -45 0
c-40 0 -45 3 -45 23 -1 57 -53 66 -58 9 -3 -31 -4 -32 -53 -32 l-49 0 0 85 0
85 125 0 125 0 0 -85z"/>
<path d="M1100 1146 l-55 -55 -89 19 c-99 20 -119 18 -114 -14 2 -17 15 -23
73 -35 39 -8 72 -16 74 -18 7 -5 -112 -123 -124 -123 -6 0 -24 13 -40 30 -22
23 -32 27 -46 19 -27 -14 -24 -23 18 -69 65 -73 65 -73 158 20 l83 83 12 -59
c16 -80 27 -104 45 -104 26 0 29 29 11 123 l-17 90 57 58 c49 49 55 60 44 73
-20 25 -31 20 -90 -38z"/>
</g>
</svg>
