<?xml version="1.0" standalone="no"?>
<!DOCTYPE svg PUBLIC "-//W3C//DTD SVG 20010904//EN"
 "http://www.w3.org/TR/2001/REC-SVG-20010904/DTD/svg10.dtd">
<svg version="1.0" xmlns="http://www.w3.org/2000/svg"
 width="128.000000pt" height="128.000000pt" viewBox="0 0 128.000000 128.000000"
 preserveAspectRatio="xMidYMid meet">
<g transform="translate(0.000000,128.000000) scale(0.100000,-0.100000)"
fill="#000000" stroke="none">
<path d="M581 1254 c-24 -19 -31 -34 -31 -60 l0 -34 90 0 90 0 0 29 c0 17 -11
42 -26 60 -33 40 -79 42 -123 5z"/>
<path d="M460 1110 c-47 -18 -131 -47 -186 -66 -122 -42 -144 -55 -128 -81 6
-10 21 -19 33 -21 20 -3 21 -9 21 -88 0 -83 0 -84 -25 -84 -29 0 -44 -25 -26
-43 6 -7 78 -30 159 -52 l147 -40 3 -40 c4 -44 14 -55 55 -55 l27 0 0 -220 0
-220 -51 -25 c-40 -21 -50 -30 -47 -48 3 -22 5 -22 198 -22 193 0 195 0 198
22 3 18 -7 27 -47 48 l-51 25 0 220 0 219 38 3 c36 3 37 4 42 48 l5 45 145 38
c80 21 151 44 159 52 20 19 6 45 -24 45 -25 0 -25 1 -25 84 0 79 1 85 21 88
12 2 27 11 33 21 15 24 -7 40 -93 68 -36 12 -113 40 -171 62 -95 36 -116 40
-215 44 -103 4 -115 2 -195 -27z m10 -255 l0 -86 -101 3 -101 3 -1 83 -2 82
103 0 102 0 0 -85z m272 4 c2 -52 -1 -83 -8 -86 -6 -2 -53 -2 -105 -1 l-94 3
-3 83 -3 82 105 0 104 0 4 -81z m270 0 c2 -44 1 -83 -1 -85 -2 -2 -49 -4 -103
-4 l-98 0 0 85 0 85 99 0 99 0 4 -81z"/>
</g>
</svg>
