<?xml version="1.0" standalone="no"?>
<!DOCTYPE svg PUBLIC "-//W3C//DTD SVG 20010904//EN"
 "http://www.w3.org/TR/2001/REC-SVG-20010904/DTD/svg10.dtd">
<svg version="1.0" xmlns="http://www.w3.org/2000/svg"
 width="128.000000pt" height="128.000000pt" viewBox="0 0 128.000000 128.000000"
 preserveAspectRatio="xMidYMid meet">
<g transform="translate(0.000000,128.000000) scale(0.100000,-0.100000)"
fill="#000000" stroke="none">
<path d="M553 1270 c-121 -22 -249 -92 -323 -178 -22 -26 -58 -82 -80 -126
l-40 -78 0 -439 0 -439 530 0 530 0 0 444 0 443 -36 72 c-66 131 -190 240
-320 281 -77 23 -191 32 -261 20z m281 -114 c95 -46 171 -121 214 -209 18 -36
32 -71 32 -79 0 -14 -106 -168 -115 -168 -2 0 -32 29 -67 63 -47 48 -78 69
-123 86 -147 56 -320 10 -414 -109 l-40 -50 -55 77 c-34 46 -56 88 -56 103 0
67 109 215 197 267 81 47 148 63 254 60 88 -2 102 -6 173 -41z m-123 -366 c72
-14 123 -49 159 -113 l30 -52 0 -267 0 -268 -260 0 -260 0 0 260 c0 256 0 261
24 309 57 112 165 158 307 131z m-419 -452 l-3 -248 -39 0 -40 0 0 307 0 307
43 -59 42 -60 -3 -247z m788 57 l0 -305 -45 0 -45 0 0 250 0 251 41 54 c23 30
43 55 45 55 2 0 4 -137 4 -305z"/>
</g>
</svg>
