<?xml version="1.0" standalone="no"?>
<!DOCTYPE svg PUBLIC "-//W3C//DTD SVG 20010904//EN"
 "http://www.w3.org/TR/2001/REC-SVG-20010904/DTD/svg10.dtd">
<svg version="1.0" xmlns="http://www.w3.org/2000/svg"
 width="128.000000pt" height="128.000000pt" viewBox="0 0 128.000000 128.000000"
 preserveAspectRatio="xMidYMid meet">
<g transform="translate(0.000000,128.000000) scale(0.100000,-0.100000)"
fill="#000000" stroke="none">
<path d="M192 1217 l-62 -63 0 -511 0 -512 42 -3 c39 -3 43 -6 51 -38 12 -50
53 -90 92 -90 38 0 77 38 95 93 l12 37 221 -2 222 -3 11 -35 c38 -119 149
-121 189 -3 12 34 17 39 52 43 l38 5 3 510 2 509 -62 63 -62 63 -391 0 -391 0
-62 -63z m706 -124 l3 -63 -256 0 -255 0 0 65 0 65 253 -2 252 -3 3 -62z m127
-388 l0 -190 -380 0 -380 0 -3 193 -2 192 382 -2 383 -3 0 -190z m-640 -380
l0 -60 -62 -3 -63 -3 0 59 c0 32 3 62 7 66 4 4 32 6 63 4 l55 -3 0 -60z m643
-2 l3 -63 -66 0 -65 0 0 58 c0 32 3 62 7 66 4 4 32 6 63 4 l55 -3 3 -62z"/>
</g>
</svg>
