<?xml version="1.0" standalone="no"?>
<!DOCTYPE svg PUBLIC "-//W3C//DTD SVG 20010904//EN"
 "http://www.w3.org/TR/2001/REC-SVG-20010904/DTD/svg10.dtd">
<svg version="1.0" xmlns="http://www.w3.org/2000/svg"
 width="128.000000pt" height="128.000000pt" viewBox="0 0 128.000000 128.000000"
 preserveAspectRatio="xMidYMid meet">
<g transform="translate(0.000000,128.000000) scale(0.100000,-0.100000)"
fill="#000000" stroke="none">
<path d="M317 1041 l-317 -136 0 -402 0 -403 70 0 70 0 0 355 0 355 500 0 500
0 0 -355 0 -355 70 0 70 0 0 403 0 402 -308 132 c-169 73 -314 134 -322 137
-8 2 -158 -58 -333 -133z"/>
<path d="M464 733 c-39 -8 -65 -48 -88 -140 -21 -80 -23 -85 -30 -56 -8 34
-25 44 -76 45 -36 1 -48 -9 -52 -42 -2 -20 2 -25 22 -28 81 -9 91 -12 80 -32
-5 -10 -10 -57 -10 -103 0 -71 3 -87 20 -102 14 -12 20 -31 20 -59 0 -47 6
-58 37 -75 52 -27 113 7 113 65 l0 34 140 0 140 0 0 -39 c0 -47 19 -66 70 -66
51 0 70 19 70 67 0 31 6 46 30 68 29 27 30 32 30 111 0 61 -4 87 -16 100 -15
16 -13 18 33 24 66 9 73 12 73 32 0 34 -17 47 -56 45 -51 -4 -72 -17 -76 -49
-2 -20 -8 -7 -22 47 -39 155 -49 161 -273 159 -87 -1 -168 -4 -179 -6z m384
-36 c17 -15 52 -121 52 -157 0 -7 -86 -10 -259 -10 l-259 0 18 70 c19 75 32
97 65 111 11 5 97 7 191 6 150 -2 175 -4 192 -20z m-338 -317 l0 -30 -65 0
-65 0 0 30 0 30 65 0 65 0 0 -30z m250 15 c0 -12 -19 -15 -110 -15 -91 0 -110
3 -110 15 0 12 19 15 110 15 91 0 110 -3 110 -15z m170 -15 l0 -30 -65 0 -65
0 0 30 0 30 65 0 65 0 0 -30z m-170 -20 c0 -6 -43 -10 -110 -10 -67 0 -110 4
-110 10 0 6 43 10 110 10 67 0 110 -4 110 -10z"/>
</g>
</svg>
