<?xml version="1.0" standalone="no"?>
<!DOCTYPE svg PUBLIC "-//W3C//DTD SVG 20010904//EN"
 "http://www.w3.org/TR/2001/REC-SVG-20010904/DTD/svg10.dtd">
<svg version="1.0" xmlns="http://www.w3.org/2000/svg"
 width="128.000000pt" height="128.000000pt" viewBox="0 0 128.000000 128.000000"
 preserveAspectRatio="xMidYMid meet">
<g transform="translate(0.000000,128.000000) scale(0.100000,-0.100000)"
fill="#000000" stroke="none">
<path d="M0 640 l0 -640 190 0 190 0 0 45 c0 25 0 48 0 53 0 4 -37 9 -82 12
l-83 5 0 525 0 525 105 5 105 5 3 53 3 52 -215 0 -216 0 0 -640z"/>
<path d="M852 1228 l3 -53 105 -5 105 -5 0 -525 0 -525 -90 -5 -90 -5 -3 -52
-3 -53 200 0 201 0 0 640 0 640 -216 0 -215 0 3 -52z"/>
<path d="M482 1017 c-84 -139 -152 -256 -152 -260 0 -3 44 -8 98 -9 l97 -3 0
-105 0 -105 -97 -3 c-54 -1 -98 -6 -98 -9 0 -11 304 -513 310 -513 6 0 310
502 310 513 0 3 -44 8 -97 9 l-98 3 0 105 0 105 98 3 c53 1 97 6 97 9 0 11
-304 513 -310 513 -3 0 -74 -114 -158 -253z"/>
</g>
</svg>
