<?xml version="1.0" standalone="no"?>
<!DOCTYPE svg PUBLIC "-//W3C//DTD SVG 20010904//EN"
 "http://www.w3.org/TR/2001/REC-SVG-20010904/DTD/svg10.dtd">
<svg version="1.0" xmlns="http://www.w3.org/2000/svg"
 width="128.000000pt" height="128.000000pt" viewBox="0 0 128.000000 128.000000"
 preserveAspectRatio="xMidYMid meet">
<g transform="translate(0.000000,128.000000) scale(0.100000,-0.100000)"
fill="#000000" stroke="none">
<path d="M94 1266 c-17 -8 -44 -31 -60 -52 l-29 -37 -3 -521 -3 -521 23 -45
c17 -33 35 -51 68 -68 l45 -23 521 3 521 3 37 29 c67 51 66 38 66 614 l0 519
-23 34 c-12 18 -38 44 -56 56 l-34 23 -521 0 c-416 -1 -527 -4 -552 -14z m708
-263 l3 -198 198 -3 197 -2 0 -160 0 -160 -200 0 -200 0 0 -200 0 -200 -160 0
-160 0 0 200 0 200 -200 0 -200 0 0 160 0 160 200 0 200 0 0 200 0 200 160 0
160 0 2 -197z"/>
<path d="M560 778 c-77 -53 -98 -130 -58 -208 76 -147 298 -95 298 70 0 122
-143 204 -240 138z"/>
</g>
</svg>
