<?xml version="1.0" standalone="no"?>
<!DOCTYPE svg PUBLIC "-//W3C//DTD SVG 20010904//EN"
 "http://www.w3.org/TR/2001/REC-SVG-20010904/DTD/svg10.dtd">
<svg version="1.0" xmlns="http://www.w3.org/2000/svg"
 width="128.000000pt" height="128.000000pt" viewBox="0 0 128.000000 128.000000"
 preserveAspectRatio="xMidYMid meet">
<g transform="translate(0.000000,128.000000) scale(0.100000,-0.100000)"
fill="#000000" stroke="none">
<path d="M477 642 c-86 -218 -157 -400 -157 -404 0 -10 640 -10 640 0 1 12
-315 801 -320 801 -3 0 -76 -178 -163 -397z m266 -70 c54 -136 98 -250 97
-254 0 -5 -90 -8 -200 -8 -110 0 -200 3 -200 8 -1 12 195 502 200 502 3 0 49
-112 103 -248z"/>
</g>
</svg>
