<?xml version="1.0" standalone="no"?>
<!DOCTYPE svg PUBLIC "-//W3C//DTD SVG 20010904//EN"
 "http://www.w3.org/TR/2001/REC-SVG-20010904/DTD/svg10.dtd">
<svg version="1.0" xmlns="http://www.w3.org/2000/svg"
 width="128.000000pt" height="128.000000pt" viewBox="0 0 128.000000 128.000000"
 preserveAspectRatio="xMidYMid meet">
<g transform="translate(0.000000,128.000000) scale(0.100000,-0.100000)"
fill="#000000" stroke="none">
<path d="M331 1186 c-8 -9 -10 -173 -9 -591 3 -538 4 -579 20 -589 26 -16 52
4 56 43 l3 31 240 0 c235 0 239 0 239 -21 0 -49 42 -77 69 -45 8 9 10 173 9
591 -3 538 -4 579 -20 589 -26 16 -52 -4 -56 -43 l-3 -31 -237 2 -237 3 -3 25
c-7 47 -46 67 -71 36z m549 -226 l0 -80 -237 2 -238 3 -3 78 -3 77 241 0 240
0 0 -80z m0 -240 l0 -80 -240 0 -240 0 0 80 0 80 240 0 240 0 0 -80z m0 -240
l0 -80 -240 0 -240 0 0 80 0 80 240 0 240 0 0 -80z m0 -240 l0 -80 -240 0
-240 0 0 80 0 80 240 0 240 0 0 -80z"/>
</g>
</svg>
