<?xml version="1.0" standalone="no"?>
<!DOCTYPE svg PUBLIC "-//W3C//DTD SVG 20010904//EN"
 "http://www.w3.org/TR/2001/REC-SVG-20010904/DTD/svg10.dtd">
<svg version="1.0" xmlns="http://www.w3.org/2000/svg"
 width="128.000000pt" height="128.000000pt" viewBox="0 0 128.000000 128.000000"
 preserveAspectRatio="xMidYMid meet">
<g transform="translate(0.000000,128.000000) scale(0.100000,-0.100000)"
fill="#000000" stroke="none">
<path d="M534 1187 c-3 -8 -4 -39 -2 -68 l3 -54 70 0 70 0 0 65 0 65 -68 3
c-51 2 -69 -1 -73 -11z"/>
<path d="M209 971 c-22 -18 -24 -26 -24 -121 0 -151 -33 -140 409 -140 l362 0
69 70 69 70 -69 70 -69 70 -362 0 c-341 0 -363 -1 -385 -19z m463 -121 l0 -65
-67 0 -67 0 0 63 c1 34 1 64 1 67 1 3 31 5 67 3 l66 -3 0 -65z"/>
<path d="M535 628 c-3 -7 -4 -132 -3 -278 l3 -265 70 0 70 0 0 275 0 275 -68
3 c-48 2 -69 -1 -72 -10z"/>
</g>
</svg>
