<?xml version="1.0" standalone="no"?>
<!DOCTYPE svg PUBLIC "-//W3C//DTD SVG 20010904//EN"
 "http://www.w3.org/TR/2001/REC-SVG-20010904/DTD/svg10.dtd">
<svg version="1.0" xmlns="http://www.w3.org/2000/svg"
 width="128.000000pt" height="128.000000pt" viewBox="0 0 128.000000 128.000000"
 preserveAspectRatio="xMidYMid meet">
<g transform="translate(0.000000,128.000000) scale(0.100000,-0.100000)"
fill="#000000" stroke="none">
<path d="M95 1155 c-64 -38 -89 -85 -93 -172 l-4 -73 184 0 184 0 44 45 44 45
186 0 186 0 44 -45 45 -45 180 2 180 3 3 42 c4 60 -14 118 -50 159 -59 67 -35
64 -590 64 l-503 0 -40 -25z"/>
<path d="M0 816 c0 -13 13 -38 29 -55 l29 -31 122 0 c121 0 122 0 151 29 17
17 29 40 29 55 l0 26 -180 0 -180 0 0 -24z"/>
<path d="M910 816 c0 -15 13 -36 35 -55 36 -31 36 -31 151 -31 l116 0 34 34
c19 19 34 43 34 55 0 21 -4 21 -185 21 l-185 0 0 -24z"/>
<path d="M85 536 c-16 -7 -41 -26 -55 -41 -21 -22 -25 -37 -25 -85 0 -48 4
-63 25 -85 36 -39 80 -55 153 -55 68 0 87 -10 87 -46 0 -33 -15 -38 -125 -44
l-100 -5 0 -40 0 -40 115 0 c96 0 120 3 143 19 78 53 76 183 -3 230 -19 11
-51 16 -97 16 -74 0 -113 17 -113 50 0 36 38 50 137 50 l93 0 0 45 0 45 -102
0 c-63 -1 -115 -6 -133 -14z"/>
<path d="M533 535 c-61 -26 -73 -62 -73 -215 0 -118 3 -139 20 -168 30 -49 78
-65 176 -60 142 7 164 38 164 230 0 141 -13 179 -71 210 -42 22 -168 24 -216
3z m179 -105 c14 -18 18 -41 18 -112 0 -81 -2 -91 -25 -113 -36 -37 -120 -31
-147 9 -4 6 -8 54 -8 107 0 99 6 115 50 132 30 12 94 -1 112 -23z"/>
<path d="M991 532 c-52 -26 -76 -65 -76 -122 0 -89 62 -140 172 -140 80 0 93
-6 93 -41 0 -40 -24 -49 -129 -49 l-91 0 0 -45 0 -45 99 0 c55 0 112 5 128 11
74 28 106 102 78 176 -24 63 -61 83 -152 83 -60 0 -77 4 -93 20 -11 11 -20 25
-20 30 0 6 9 19 20 30 17 17 33 20 115 20 l95 0 0 45 0 45 -102 0 c-78 0 -111
-4 -137 -18z"/>
</g>
</svg>
