<?xml version="1.0" standalone="no"?>
<!DOCTYPE svg PUBLIC "-//W3C//DTD SVG 20010904//EN"
 "http://www.w3.org/TR/2001/REC-SVG-20010904/DTD/svg10.dtd">
<svg version="1.0" xmlns="http://www.w3.org/2000/svg"
 width="128.000000pt" height="128.000000pt" viewBox="0 0 128.000000 128.000000"
 preserveAspectRatio="xMidYMid meet">
<g transform="translate(0.000000,128.000000) scale(0.100000,-0.100000)"
fill="#000000" stroke="none">
<path d="M722 1243 l3 -38 240 -5 240 -5 0 -438 0 -437 -135 0 c-89 0 -130 4
-120 10 12 8 16 54 21 277 3 147 6 237 7 198 4 -116 11 -147 36 -143 20 3 21
9 24 131 3 124 2 128 -22 152 -24 24 -31 25 -134 25 -103 0 -110 -1 -132 -25
-21 -22 -25 -38 -28 -120 -6 -126 2 -167 31 -163 21 3 22 9 25 106 1 57 7 102
12 102 6 0 10 -101 10 -263 0 -191 3 -266 12 -275 9 -9 -17 -12 -120 -12
l-132 0 0 -80 0 -80 -280 0 -280 0 0 -80 0 -80 640 0 640 0 0 640 0 640 -281
0 -280 0 3 -37z m188 -913 c11 -7 4 -10 -24 -10 -31 0 -37 3 -28 12 8 8 12 59
12 163 0 84 3 155 8 159 4 4 9 -65 12 -154 4 -128 8 -163 20 -170z"/>
<path d="M842 1104 c-48 -33 -17 -114 44 -114 23 0 64 42 64 65 0 23 -41 65
-64 65 -12 0 -32 -7 -44 -16z"/>
</g>
</svg>
