<?xml version="1.0" standalone="no"?>
<!DOCTYPE svg PUBLIC "-//W3C//DTD SVG 20010904//EN"
 "http://www.w3.org/TR/2001/REC-SVG-20010904/DTD/svg10.dtd">
<svg version="1.0" xmlns="http://www.w3.org/2000/svg"
 width="128.000000pt" height="128.000000pt" viewBox="0 0 128.000000 128.000000"
 preserveAspectRatio="xMidYMid meet">
<g transform="translate(0.000000,128.000000) scale(0.100000,-0.100000)"
fill="#000000" stroke="none">
<path d="M103 1221 c-64 -40 -63 -28 -63 -578 0 -464 1 -501 18 -532 10 -19
34 -43 53 -53 31 -17 68 -18 527 -18 547 0 544 0 583 64 18 30 19 56 17 548
l-3 518 -33 32 -32 33 -518 3 c-499 2 -518 2 -549 -17z m538 -93 c117 -54 173
-142 174 -273 0 -95 -24 -155 -90 -221 -61 -61 -112 -75 -292 -81 l-153 -6 0
-214 0 -214 -72 3 -73 3 -3 505 c-1 278 0 511 3 519 4 11 46 13 228 9 213 -4
224 -5 278 -30z m425 -329 l55 -74 -36 -5 -36 -5 56 -75 56 -75 -36 -5 -36 -5
56 -75 56 -75 -80 -3 -81 -3 0 -139 0 -140 -40 0 -40 0 0 140 0 140 -75 0
c-41 0 -75 3 -75 6 0 4 23 37 50 74 28 37 50 70 50 74 0 3 -13 6 -30 6 -16 0
-30 3 -30 7 0 3 25 39 55 80 l55 73 -35 0 c-19 0 -35 3 -35 7 0 11 111 155
116 150 3 -2 29 -37 60 -78z m-186 -519 l0 -40 -80 0 -80 0 0 -60 0 -60 -40 0
-40 0 0 60 0 60 -80 0 -80 0 0 40 0 40 200 0 200 0 0 -40z"/>
<path d="M280 855 l0 -155 143 0 c166 0 190 9 227 85 39 81 15 166 -60 206
-29 16 -57 19 -172 19 l-138 0 0 -155z"/>
</g>
</svg>
