<?xml version="1.0" standalone="no"?>
<!DOCTYPE svg PUBLIC "-//W3C//DTD SVG 20010904//EN"
 "http://www.w3.org/TR/2001/REC-SVG-20010904/DTD/svg10.dtd">
<svg version="1.0" xmlns="http://www.w3.org/2000/svg"
 width="128.000000pt" height="128.000000pt" viewBox="0 0 128.000000 128.000000"
 preserveAspectRatio="xMidYMid meet">
<g transform="translate(0.000000,128.000000) scale(0.100000,-0.100000)"
fill="#000000" stroke="none">
<path d="M521 1204 c-223 -48 -398 -224 -446 -449 -19 -88 -19 -142 0 -230 48
-227 223 -402 450 -450 88 -19 142 -19 230 0 227 48 402 223 450 450 18 88 19
142 0 230 -47 225 -225 402 -450 450 -85 18 -150 18 -234 -1z m433 -148 l39
-24 -55 -16 c-31 -9 -61 -16 -67 -16 -19 0 -12 -10 49 -66 102 -95 144 -213
126 -355 -9 -75 -15 -82 -54 -68 -18 6 -32 12 -32 14 0 1 4 25 10 53 11 63 -1
147 -32 210 -22 46 -98 132 -117 132 -5 0 -1 -29 9 -65 20 -70 16 -76 -30 -48
-24 14 -33 32 -56 115 -15 54 -26 100 -23 102 3 3 171 52 189 55 3 1 23 -10
44 -23z m-380 -32 c15 -38 6 -52 -40 -68 -49 -16 -96 -48 -140 -94 -37 -38
-84 -141 -84 -182 l0 -34 50 49 50 49 0 -44 c0 -42 -5 -49 -67 -112 -37 -38
-70 -68 -74 -68 -4 0 -39 33 -78 73 -62 63 -71 77 -71 110 0 20 3 37 7 37 4 0
28 -21 54 -46 l46 -46 8 48 c22 150 118 269 260 327 51 21 71 21 79 1z m221
-605 c22 -5 63 -17 91 -24 l51 -15 -26 -97 c-23 -87 -30 -100 -60 -120 -19
-13 -36 -21 -39 -18 -4 4 8 64 24 116 4 13 -7 12 -68 -9 -142 -47 -295 -15
-402 84 l-39 36 26 25 25 26 43 -36 c84 -73 224 -98 334 -61 53 19 49 25 -32
44 -29 6 -53 15 -53 19 0 10 53 40 70 41 8 0 33 -5 55 -11z"/>
</g>
</svg>
