<?xml version="1.0" standalone="no"?>
<!DOCTYPE svg PUBLIC "-//W3C//DTD SVG 20010904//EN"
 "http://www.w3.org/TR/2001/REC-SVG-20010904/DTD/svg10.dtd">
<svg version="1.0" xmlns="http://www.w3.org/2000/svg"
 width="128.000000pt" height="128.000000pt" viewBox="0 0 128.000000 128.000000"
 preserveAspectRatio="xMidYMid meet">
<g transform="translate(0.000000,128.000000) scale(0.100000,-0.100000)"
fill="#000000" stroke="none">
<path d="M117 1218 c-23 -14 -45 -38 -57 -64 -20 -40 -20 -57 -18 -527 3 -473
4 -486 24 -513 11 -15 33 -37 48 -48 27 -20 40 -21 513 -24 470 -2 487 -2 527
18 27 13 50 34 64 59 22 38 22 44 22 520 0 531 0 528 -61 572 l-34 24 -495 2
c-494 3 -495 3 -533 -19z m461 -575 l2 -303 -165 0 -165 0 0 210 c0 161 -3
210 -12 210 -10 0 -13 -43 -13 -179 0 -167 -2 -181 -21 -208 -45 -60 -144 -28
-144 46 0 16 28 87 62 157 57 116 63 134 66 203 4 76 19 111 49 111 7 0 13 11
13 24 0 13 6 27 13 30 6 2 80 4 162 3 l150 -2 3 -302z m224 170 l128 -127 40
39 c28 27 40 47 40 67 0 16 7 39 16 53 19 29 121 101 131 91 4 -3 -15 -29 -42
-56 -27 -28 -45 -50 -40 -50 5 0 31 21 57 47 26 26 48 43 48 37 0 -5 -20 -30
-45 -54 -25 -24 -45 -49 -45 -54 0 -6 25 14 55 44 30 30 55 50 55 44 0 -5 -20
-30 -45 -54 -24 -24 -42 -46 -40 -49 3 -3 28 17 55 44 44 43 50 47 50 27 0
-14 -22 -46 -58 -82 -45 -46 -65 -60 -87 -60 -20 0 -41 -11 -66 -36 l-38 -37
132 -128 132 -128 -28 -28 -28 -28 -157 164 c-131 136 -162 163 -179 159 -18
-5 -40 13 -116 91 -51 53 -97 109 -101 124 -8 33 8 67 32 67 9 0 74 -57 144
-127z m102 -205 c11 -18 1 -30 -152 -192 -68 -72 -76 -77 -98 -67 -13 6 -24
19 -24 30 0 21 238 253 254 248 5 -2 14 -10 20 -19z"/>
<path d="M317 884 c-4 -4 -7 -45 -7 -91 l0 -83 105 0 106 0 -3 88 -3 87 -95 3
c-53 1 -99 0 -103 -4z"/>
<path d="M132 525 c-45 -92 -50 -108 -40 -130 6 -13 19 -27 29 -30 22 -7 54 9
63 31 11 30 20 234 10 234 -5 0 -33 -47 -62 -105z"/>
</g>
</svg>
