<?xml version="1.0" standalone="no"?>
<!DOCTYPE svg PUBLIC "-//W3C//DTD SVG 20010904//EN"
 "http://www.w3.org/TR/2001/REC-SVG-20010904/DTD/svg10.dtd">
<svg version="1.0" xmlns="http://www.w3.org/2000/svg"
 width="128.000000pt" height="128.000000pt" viewBox="0 0 128.000000 128.000000"
 preserveAspectRatio="xMidYMid meet">
<g transform="translate(0.000000,128.000000) scale(0.100000,-0.100000)"
fill="#000000" stroke="none">
<path d="M63 1260 c-54 -33 -63 -62 -63 -218 0 -137 6 -162 36 -162 7 0 20 7
28 16 13 12 16 40 16 143 0 85 4 131 12 139 8 8 50 12 123 12 99 0 114 2 130
20 15 17 16 24 7 45 -11 25 -13 25 -134 25 -104 0 -128 -3 -155 -20z"/>
<path d="M649 1259 c-8 -16 -8 -28 0 -45 10 -24 13 -24 150 -24 101 0 142 -3
148 -12 4 -7 10 -73 13 -147 4 -115 8 -135 23 -145 15 -9 22 -6 39 14 19 23
20 35 16 155 -7 211 -22 225 -237 225 -133 0 -141 -1 -152 -21z"/>
<path d="M429 1047 c-235 -67 -354 -349 -245 -583 26 -56 72 -114 90 -114 18
0 56 43 56 63 0 23 -26 33 -44 18 -12 -10 -19 -4 -39 31 -14 24 -28 53 -31 66
-3 12 -8 31 -11 41 -5 15 0 20 17 23 33 5 35 35 3 50 -26 12 -27 15 -22 64 5
48 52 164 67 164 3 0 11 -5 17 -11 7 -7 19 -9 27 -6 18 7 22 42 6 52 -25 15
67 74 137 89 32 7 32 7 35 -36 2 -35 7 -43 23 -43 16 0 21 8 23 43 4 49 9 50
84 22 73 -28 102 -54 89 -78 -7 -14 -6 -24 3 -38 12 -16 16 -16 31 -4 15 12
19 11 34 -9 22 -29 48 -102 57 -157 6 -38 4 -42 -20 -48 -34 -8 -38 -56 -5
-56 19 0 21 -4 15 -31 -3 -17 -16 -52 -29 -77 -20 -40 -28 -47 -53 -47 -38 0
-44 -32 -11 -63 31 -29 45 -23 85 37 110 161 91 387 -44 531 -89 95 -231 139
-345 107z"/>
<path d="M565 735 c-96 -29 -125 -56 -125 -116 0 -48 35 -89 76 -89 32 0 108
73 161 153 54 82 28 94 -112 52z m17 -82 c-31 -44 -60 -66 -77 -59 -28 10 -14
49 25 68 19 10 43 18 53 18 17 0 17 -1 -1 -27z"/>
<path d="M16 515 c-22 -23 -23 -272 -1 -315 32 -62 55 -70 196 -70 119 0 129
1 139 21 9 16 8 26 -5 45 -15 23 -20 24 -129 24 -82 0 -117 4 -124 13 -7 8
-13 68 -14 141 -3 119 -5 130 -24 143 -19 12 -24 12 -38 -2z"/>
<path d="M966 504 c-3 -9 -6 -71 -6 -139 0 -102 -3 -125 -16 -136 -12 -10 -58
-16 -152 -19 -114 -4 -137 -8 -146 -22 -8 -13 -8 -23 0 -35 10 -16 31 -18 162
-21 l151 -3 31 28 c39 35 49 79 50 210 0 120 -9 153 -44 153 -13 0 -27 -7 -30
-16z"/>
</g>
</svg>
