<?xml version="1.0" standalone="no"?>
<!DOCTYPE svg PUBLIC "-//W3C//DTD SVG 20010904//EN"
 "http://www.w3.org/TR/2001/REC-SVG-20010904/DTD/svg10.dtd">
<svg version="1.0" xmlns="http://www.w3.org/2000/svg"
 width="128.000000pt" height="128.000000pt" viewBox="0 0 128.000000 128.000000"
 preserveAspectRatio="xMidYMid meet">
<g transform="translate(0.000000,128.000000) scale(0.100000,-0.100000)"
fill="#000000" stroke="none">
<path d="M320 640 l0 -530 320 0 320 0 0 530 0 530 -320 0 -320 0 0 -530z
m425 396 c87 -47 129 -168 91 -261 l-17 -39 -144 144 c-80 80 -145 148 -145
151 0 7 41 25 75 32 34 8 98 -4 140 -27z m10 -367 c-6 -9 -87 -29 -117 -29
-76 0 -157 54 -189 125 -23 49 -24 123 -4 172 l16 37 149 -149 c82 -82 147
-152 145 -156z m95 -324 l0 -135 -210 0 -210 0 0 135 0 135 210 0 210 0 0
-135z"/>
<path d="M640 350 c0 -79 0 -80 25 -80 25 0 25 1 25 80 0 79 0 80 -25 80 -25
0 -25 -1 -25 -80z"/>
<path d="M750 350 c0 -79 0 -80 25 -80 25 0 25 1 25 80 0 79 0 80 -25 80 -25
0 -25 -1 -25 -80z"/>
</g>
</svg>
