<?xml version="1.0" standalone="no"?>
<!DOCTYPE svg PUBLIC "-//W3C//DTD SVG 20010904//EN"
 "http://www.w3.org/TR/2001/REC-SVG-20010904/DTD/svg10.dtd">
<svg version="1.0" xmlns="http://www.w3.org/2000/svg"
 width="128.000000pt" height="128.000000pt" viewBox="0 0 128.000000 128.000000"
 preserveAspectRatio="xMidYMid meet">
<g transform="translate(0.000000,128.000000) scale(0.100000,-0.100000)"
fill="#000000" stroke="none">
<path d="M232 1047 l-162 -162 0 -245 0 -245 163 -163 162 -162 245 0 245 0
162 162 163 163 0 245 0 245 -163 163 -162 162 -245 0 -245 0 -163 -163z m111
-217 c19 -21 27 -41 27 -66 0 -34 -1 -35 -32 -32 -28 3 -34 8 -38 33 -4 23
-11 31 -31 33 -33 4 -51 -18 -47 -60 3 -29 9 -36 57 -59 77 -36 91 -58 91
-135 0 -56 -3 -67 -29 -96 -26 -29 -35 -33 -81 -33 -46 0 -55 4 -81 33 -39 44
-38 95 2 100 22 3 27 -2 35 -30 9 -29 14 -33 44 -33 29 0 36 5 44 28 17 47 -2
78 -66 110 -80 40 -104 97 -77 176 26 75 127 92 182 31z m265 3 c3 -32 2 -33
-32 -33 l-36 0 -2 -192 -3 -193 -30 0 -30 0 -3 193 -2 192 -40 0 c-37 0 -40 2
-40 28 0 16 3 32 7 36 4 4 52 5 107 4 l101 -3 3 -32z m192 22 c51 -26 60 -58
60 -215 0 -157 -9 -189 -60 -215 -37 -19 -63 -19 -100 0 -51 26 -60 58 -60
215 0 155 9 188 58 214 35 20 66 20 102 1z m285 -9 c34 -22 45 -54 45 -126 0
-77 -32 -118 -97 -127 l-42 -6 -3 -86 -3 -86 -30 0 -30 0 -3 229 -2 229 69 -5
c42 -3 81 -12 96 -22z"/>
<path d="M721 786 c-8 -9 -11 -58 -9 -151 3 -119 5 -139 21 -149 12 -8 22 -8
35 0 15 10 17 30 20 149 3 142 -3 165 -38 165 -10 0 -23 -6 -29 -14z"/>
<path d="M990 725 c0 -72 1 -75 23 -75 36 0 57 30 57 81 0 52 -13 69 -52 69
l-28 0 0 -75z"/>
</g>
</svg>
