<?xml version="1.0" standalone="no"?>
<!DOCTYPE svg PUBLIC "-//W3C//DTD SVG 20010904//EN"
 "http://www.w3.org/TR/2001/REC-SVG-20010904/DTD/svg10.dtd">
<svg version="1.0" xmlns="http://www.w3.org/2000/svg"
 width="128.000000pt" height="128.000000pt" viewBox="0 0 128.000000 128.000000"
 preserveAspectRatio="xMidYMid meet">
<g transform="translate(0.000000,128.000000) scale(0.100000,-0.100000)"
fill="#000000" stroke="none">
<path d="M355 1151 c-39 -17 -67 -58 -73 -107 -4 -37 -12 -53 -41 -79 -32 -30
-36 -39 -36 -84 0 -44 4 -55 33 -83 28 -28 39 -33 82 -33 43 0 54 5 82 33 29
28 33 39 33 83 0 46 -4 54 -37 85 -27 24 -38 43 -38 62 0 46 15 52 132 52
l108 0 0 -318 0 -317 -22 -10 c-18 -8 -32 -36 -61 -122 l-39 -112 -70 -3 c-55
-2 -73 -7 -82 -20 -8 -13 -8 -23 0 -35 10 -17 36 -18 314 -18 278 0 304 1 314
18 8 12 8 22 0 35 -9 13 -27 18 -82 20 l-70 3 -39 112 c-29 86 -43 114 -60
122 l-23 10 0 317 0 318 108 0 c117 0 132 -6 132 -52 0 -19 -11 -38 -37 -62
-34 -31 -38 -39 -38 -85 0 -44 4 -55 33 -83 28 -28 39 -33 82 -33 43 0 54 5
82 33 29 28 33 39 33 83 0 45 -4 54 -36 84 -29 26 -37 42 -41 80 -4 36 -14 55
-37 79 l-31 31 -278 2 c-152 1 -286 -2 -297 -6z"/>
</g>
</svg>
