<?xml version="1.0" standalone="no"?>
<!DOCTYPE svg PUBLIC "-//W3C//DTD SVG 20010904//EN"
 "http://www.w3.org/TR/2001/REC-SVG-20010904/DTD/svg10.dtd">
<svg version="1.0" xmlns="http://www.w3.org/2000/svg"
 width="128.000000pt" height="128.000000pt" viewBox="0 0 128.000000 128.000000"
 preserveAspectRatio="xMidYMid meet">
<g transform="translate(0.000000,128.000000) scale(0.100000,-0.100000)"
fill="#000000" stroke="none">
<path d="M149 1081 l-29 -29 0 -401 0 -401 -23 -9 c-29 -11 -51 -37 -42 -51 8
-14 185 -14 185 1 0 23 -22 49 -40 49 -19 0 -20 8 -20 160 l0 160 460 0 460 0
0 -160 c0 -152 -1 -160 -20 -160 -18 0 -40 -26 -40 -49 0 -15 177 -15 185 -1
9 14 -13 40 -42 51 l-23 9 0 401 0 401 -29 29 -29 29 -462 0 -462 0 -29 -29z
m611 -126 c0 -34 -1 -35 -40 -35 l-40 0 0 -125 0 -125 -40 0 -40 0 0 125 0
125 -45 0 c-43 0 -45 1 -45 28 0 16 3 32 7 35 3 4 60 7 125 7 l118 0 0 -35z
m239 14 l33 -20 -23 -25 c-15 -16 -26 -21 -33 -14 -18 18 -72 11 -92 -11 -26
-29 -26 -119 0 -148 21 -23 56 -27 87 -10 16 8 25 7 40 -7 26 -23 24 -31 -13
-55 -66 -41 -167 -8 -202 65 -67 142 77 302 203 225z m-529 -19 l0 -30 -60 0
-60 0 0 -30 c0 -29 1 -30 50 -30 49 0 50 -1 50 -30 0 -29 -1 -30 -50 -30 l-50
0 0 -35 0 -35 65 0 65 0 0 -30 0 -30 -105 0 -105 0 0 155 0 155 100 0 100 0 0
-30z"/>
<path d="M547 448 c-9 -7 -21 -25 -26 -40 -7 -18 -18 -28 -30 -28 -23 0 -36
-16 -21 -25 7 -4 10 -38 8 -88 l-3 -82 28 -3 c22 -3 27 1 27 17 0 20 5 21 110
21 105 0 110 -1 110 -21 0 -16 5 -20 28 -17 27 3 27 3 27 83 0 44 3 85 7 91
10 14 0 24 -24 24 -12 0 -23 11 -30 30 -5 17 -18 35 -28 40 -27 14 -163 12
-183 -2z m193 -47 c6 -17 9 -35 5 -40 -4 -7 -46 -11 -105 -11 -59 0 -101 4
-105 11 -4 5 -1 23 5 40 12 29 13 29 100 29 87 0 88 0 100 -29z m-180 -116
c13 -16 6 -35 -15 -35 -18 0 -28 17 -21 35 7 19 20 19 36 0z m198 -13 c3 -17
-2 -22 -18 -22 -25 0 -38 29 -19 41 20 13 34 6 37 -19z m-78 3 c0 -11 -11 -15
-40 -15 -29 0 -40 4 -40 15 0 11 11 15 40 15 29 0 40 -4 40 -15z"/>
</g>
</svg>
