<?xml version="1.0" standalone="no"?>
<!DOCTYPE svg PUBLIC "-//W3C//DTD SVG 20010904//EN"
 "http://www.w3.org/TR/2001/REC-SVG-20010904/DTD/svg10.dtd">
<svg version="1.0" xmlns="http://www.w3.org/2000/svg"
 width="128.000000pt" height="128.000000pt" viewBox="0 0 128.000000 128.000000"
 preserveAspectRatio="xMidYMid meet">
<g transform="translate(0.000000,128.000000) scale(0.100000,-0.100000)"
fill="#000000" stroke="none">
<path d="M500 1204 c-195 -51 -355 -212 -405 -409 -12 -46 -15 -124 -15 -364
0 -296 -1 -305 -21 -327 -21 -23 -19 -44 5 -44 8 0 19 7 26 15 11 13 84 15
550 15 466 0 539 -2 550 -15 7 -8 18 -15 26 -15 24 0 26 21 5 44 -20 22 -21
31 -21 327 0 240 -3 318 -15 364 -51 199 -211 359 -410 410 -74 19 -202 18
-275 -1z m275 -46 c118 -30 256 -140 314 -248 60 -113 63 -130 68 -445 l5
-290 -97 96 c-90 89 -96 98 -85 119 8 15 11 73 8 189 -3 165 -3 167 -36 233
-38 77 -92 130 -171 167 -47 22 -70 26 -141 26 -71 0 -94 -4 -141 -26 -79 -37
-133 -90 -171 -167 -33 -66 -33 -68 -36 -233 -3 -116 0 -174 8 -189 11 -21 5
-30 -85 -119 l-96 -96 4 290 c3 230 8 300 20 338 79 236 299 389 532 370 33
-2 78 -9 100 -15z m-1 -232 c62 -31 109 -80 140 -145 18 -40 21 -69 24 -212
l4 -166 -28 -22 c-27 -21 -34 -22 -286 -19 -231 3 -259 5 -275 21 -16 16 -18
38 -18 180 0 149 2 166 24 215 30 67 115 146 179 167 69 22 168 14 236 -19z
m202 -627 c13 -12 24 -26 24 -31 0 -4 -162 -8 -360 -8 -198 0 -360 3 -360 7 0
4 11 18 24 32 l25 26 312 -2 c308 -2 311 -2 335 -24z m109 -119 l39 -40 -484
0 -484 0 39 40 39 40 406 0 406 0 39 -40z"/>
<path d="M510 780 c-25 -25 -28 -88 -4 -97 19 -7 34 13 34 45 0 21 3 22 100
22 97 0 100 -1 100 -22 0 -32 15 -52 34 -45 24 9 21 72 -4 97 -18 18 -33 20
-130 20 -97 0 -112 -2 -130 -20z"/>
<path d="M385 690 c-10 -16 4 -30 31 -30 28 0 29 -5 9 -40 -8 -14 -14 -47 -15
-73 0 -43 4 -52 41 -88 23 -22 51 -44 63 -49 26 -10 80 11 89 34 9 22 75 22
84 0 9 -23 63 -44 89 -34 12 5 40 27 63 49 36 36 41 46 41 86 0 25 -7 59 -15
75 -14 27 -14 29 8 32 14 2 22 10 22 23 0 33 -64 33 -103 1 -28 -25 -36 -26
-144 -26 -104 0 -116 2 -150 25 -38 26 -101 34 -113 15z m264 -90 c76 0 132 4
136 10 18 30 55 -13 55 -65 0 -50 -18 -55 -190 -55 -87 0 -165 3 -174 6 -11 4
-16 20 -16 53 0 54 14 75 41 61 10 -6 76 -10 148 -10z"/>
<path d="M484 555 c-10 -25 9 -37 52 -33 31 2 39 7 39 23 0 16 -8 21 -43 23
-32 2 -44 -1 -48 -13z"/>
<path d="M714 555 c-10 -25 9 -37 52 -33 31 2 39 7 39 23 0 16 -8 21 -43 23
-32 2 -44 -1 -48 -13z"/>
</g>
</svg>
