<?xml version="1.0" standalone="no"?>
<!DOCTYPE svg PUBLIC "-//W3C//DTD SVG 20010904//EN"
 "http://www.w3.org/TR/2001/REC-SVG-20010904/DTD/svg10.dtd">
<svg version="1.0" xmlns="http://www.w3.org/2000/svg"
 width="128.000000pt" height="128.000000pt" viewBox="0 0 128.000000 128.000000"
 preserveAspectRatio="xMidYMid meet">
<g transform="translate(0.000000,128.000000) scale(0.100000,-0.100000)"
fill="#000000" stroke="none">
<path d="M386 1148 c-9 -12 -16 -35 -16 -50 l0 -28 -74 0 c-41 0 -77 -4 -80
-8 -10 -17 15 -83 44 -116 16 -18 47 -41 70 -51 l40 -18 0 -64 0 -63 -74 0
c-41 0 -77 -4 -80 -8 -10 -17 15 -83 44 -116 16 -18 47 -41 70 -51 l40 -18 0
-64 0 -63 -74 0 c-41 0 -77 -4 -80 -8 -10 -17 15 -83 44 -116 16 -18 47 -41
70 -51 37 -17 40 -21 40 -59 0 -23 7 -52 16 -64 15 -22 18 -22 254 -22 236 0
239 0 254 22 9 12 16 41 16 64 0 38 3 42 40 59 23 10 54 33 70 51 29 33 54 99
44 116 -3 4 -39 8 -80 8 l-74 0 0 63 0 64 40 18 c23 10 54 33 70 51 29 33 54
99 44 116 -3 4 -39 8 -80 8 l-74 0 0 63 0 64 40 18 c23 10 54 33 70 51 29 33
54 99 44 116 -3 4 -39 8 -80 8 l-74 0 0 28 c0 15 -7 38 -16 50 -15 22 -18 22
-254 22 -236 0 -239 0 -254 -22z m299 -94 c31 -14 65 -64 65 -94 0 -7 -7 -27
-16 -45 -19 -41 -73 -69 -114 -60 -37 8 -77 48 -85 85 -9 40 19 95 58 114 40
20 51 20 92 0z m0 -320 c31 -14 65 -64 65 -94 0 -7 -7 -27 -16 -45 -19 -41
-73 -69 -114 -60 -37 8 -77 48 -85 85 -9 40 19 95 58 114 40 20 51 20 92 0z
m0 -320 c31 -14 65 -64 65 -94 0 -7 -7 -27 -16 -45 -19 -41 -73 -69 -114 -60
-37 8 -77 48 -85 85 -9 40 19 95 58 114 40 20 51 20 92 0z"/>
</g>
</svg>
