<?xml version="1.0" standalone="no"?>
<!DOCTYPE svg PUBLIC "-//W3C//DTD SVG 20010904//EN"
 "http://www.w3.org/TR/2001/REC-SVG-20010904/DTD/svg10.dtd">
<svg version="1.0" xmlns="http://www.w3.org/2000/svg"
 width="128.000000pt" height="128.000000pt" viewBox="0 0 128.000000 128.000000"
 preserveAspectRatio="xMidYMid meet">
<g transform="translate(0.000000,128.000000) scale(0.100000,-0.100000)"
fill="#000000" stroke="none">
<path d="M25 1255 l-25 -24 0 -591 0 -591 25 -24 24 -25 271 0 271 0 24 25 25
24 0 296 0 295 142 0 142 0 -43 -44 -43 -44 18 -26 c11 -14 24 -26 29 -26 6 0
51 41 100 90 l90 90 -91 91 c-85 85 -93 90 -112 78 -37 -23 -35 -40 10 -86
l42 -43 -142 0 -142 0 0 255 0 256 -25 24 -24 25 -271 0 -271 0 -24 -25z m615
-575 l0 -40 -200 0 -200 0 0 40 0 40 200 0 200 0 0 -40z"/>
<path d="M745 1255 c-21 -20 -25 -34 -25 -80 l0 -55 40 0 40 0 0 40 0 40 80 0
80 0 0 40 0 40 -95 0 c-88 0 -98 -2 -120 -25z"/>
<path d="M1040 1240 l0 -40 80 0 80 0 0 -40 0 -40 40 0 40 0 0 55 c0 46 -4 60
-25 80 -22 23 -32 25 -120 25 l-95 0 0 -40z"/>
<path d="M720 960 l0 -80 40 0 40 0 0 80 0 80 -40 0 -40 0 0 -80z"/>
<path d="M1200 960 l0 -80 40 0 40 0 0 80 0 80 -40 0 -40 0 0 -80z"/>
<path d="M1200 680 l0 -120 40 0 40 0 0 120 0 120 -40 0 -40 0 0 -120z"/>
<path d="M720 360 l0 -120 40 0 40 0 0 120 0 120 -40 0 -40 0 0 -120z"/>
<path d="M1200 360 l0 -120 40 0 40 0 0 120 0 120 -40 0 -40 0 0 -120z"/>
<path d="M720 105 c0 -46 4 -60 25 -80 22 -23 32 -25 120 -25 l95 0 0 40 0 40
-80 0 -80 0 0 40 0 40 -40 0 -40 0 0 -55z"/>
<path d="M1200 120 l0 -40 -80 0 -80 0 0 -40 0 -40 95 0 c88 0 98 2 120 25 21
20 25 34 25 80 l0 55 -40 0 -40 0 0 -40z"/>
</g>
</svg>
