<?xml version="1.0" standalone="no"?>
<!DOCTYPE svg PUBLIC "-//W3C//DTD SVG 20010904//EN"
 "http://www.w3.org/TR/2001/REC-SVG-20010904/DTD/svg10.dtd">
<svg version="1.0" xmlns="http://www.w3.org/2000/svg"
 width="128.000000pt" height="128.000000pt" viewBox="0 0 128.000000 128.000000"
 preserveAspectRatio="xMidYMid meet">
<g transform="translate(0.000000,128.000000) scale(0.100000,-0.100000)"
fill="#000000" stroke="none">
<path d="M515 1182 c-198 -68 -312 -247 -285 -446 16 -110 53 -164 238 -349
l168 -168 162 165 c177 181 212 234 232 348 34 196 -92 394 -289 452 -70 21
-163 20 -226 -2z m55 -207 c0 -21 5 -25 31 -25 26 0 30 -3 27 -22 -2 -17 -11
-24 -30 -26 -43 -5 -36 -32 8 -32 31 0 35 -3 32 -22 -2 -15 -11 -24 -25 -26
-30 -4 -32 -42 -3 -42 15 0 20 -7 20 -25 0 -18 -5 -25 -20 -25 -13 0 -20 -7
-20 -20 0 -27 35 -34 141 -26 49 4 89 3 89 -1 0 -4 -3 -18 -6 -30 -6 -22 -10
-23 -123 -23 -95 0 -124 4 -154 19 l-38 19 -10 -25 -9 -25 -20 25 c-16 20 -18
30 -10 58 6 19 10 51 10 71 0 34 3 38 25 38 22 0 25 -4 25 -33 0 -18 7 -42 15
-53 13 -17 14 -14 15 39 l0 57 -50 0 c-47 0 -50 2 -50 25 0 22 4 25 35 25 27
0 35 4 35 18 0 13 -8 18 -27 17 -22 0 -29 5 -31 23 -3 19 1 22 27 22 26 0 31
4 31 25 0 21 5 25 30 25 25 0 30 -4 30 -25z m230 -70 l0 -75 -51 0 -50 0 3
-37 c3 -33 6 -38 28 -38 20 0 26 6 28 28 3 27 24 35 49 19 21 -13 -3 -81 -33
-92 -33 -13 -80 -13 -105 0 -16 9 -19 22 -19 90 l0 80 45 0 c41 0 45 2 45 25
0 23 -3 25 -50 25 -47 0 -50 2 -50 25 0 25 1 25 80 25 l80 0 0 -75z"/>
<path d="M410 295 c-130 -26 -202 -73 -179 -116 13 -26 75 -56 156 -76 96 -24
390 -24 486 0 83 21 143 50 158 78 23 44 -63 94 -205 118 -85 15 -96 8 -22
-13 126 -37 111 -91 -32 -121 -117 -25 -281 -15 -359 22 -60 28 -53 64 15 88
26 10 56 21 67 25 l20 9 -20 -1 c-11 0 -49 -6 -85 -13z"/>
</g>
</svg>
