<?xml version="1.0" standalone="no"?>
<!DOCTYPE svg PUBLIC "-//W3C//DTD SVG 20010904//EN"
 "http://www.w3.org/TR/2001/REC-SVG-20010904/DTD/svg10.dtd">
<svg version="1.0" xmlns="http://www.w3.org/2000/svg"
 width="128.000000pt" height="128.000000pt" viewBox="0 0 128.000000 128.000000"
 preserveAspectRatio="xMidYMid meet">
<g transform="translate(0.000000,128.000000) scale(0.100000,-0.100000)"
fill="#000000" stroke="none">
<path d="M286 1245 c-15 -8 -52 -15 -81 -15 -73 0 -105 -26 -105 -85 0 -35 -4
-44 -20 -48 -19 -5 -21 -12 -18 -73 3 -65 5 -69 31 -78 17 -6 37 -6 55 0 25 9
27 13 30 78 3 61 1 68 -18 73 -15 4 -20 13 -20 42 0 45 14 61 54 61 l31 0 -3
-142 c-3 -127 -6 -144 -23 -156 -10 -7 -19 -22 -19 -33 0 -12 -7 -19 -18 -19
-10 0 -28 -7 -40 -16 -21 -14 -22 -23 -22 -130 l0 -114 -28 0 c-15 0 -33 -5
-40 -12 -17 -17 -17 -279 0 -296 17 -17 1199 -17 1216 0 8 8 12 57 12 154 0
153 0 154 -56 154 -24 0 -24 0 -24 114 0 107 -1 116 -22 130 -12 9 -30 16 -40
16 -12 0 -18 8 -18 24 0 16 -7 27 -20 31 -19 6 -20 15 -20 135 0 71 -3 135 -6
144 -5 13 1 16 28 16 44 0 58 -15 58 -61 0 -29 -5 -38 -20 -42 -19 -5 -21 -12
-18 -73 3 -65 5 -69 31 -78 17 -6 37 -6 55 0 25 9 27 13 30 78 3 61 1 68 -18
73 -16 4 -20 13 -20 49 0 62 -26 84 -101 84 -31 0 -70 7 -85 15 -43 22 -665
22 -708 0z m706 -45 l33 -29 -385 0 -385 0 33 29 32 30 320 0 320 0 32 -30z
m28 -175 l0 -115 -48 0 c-51 0 -72 -12 -72 -42 0 -11 -7 -18 -20 -18 -14 0
-20 7 -20 24 0 24 -16 36 -51 36 -11 0 -35 15 -53 33 -27 27 -31 37 -23 54 14
33 0 71 -33 88 -81 42 -179 -11 -154 -83 8 -24 5 -31 -23 -59 -18 -19 -43 -33
-56 -33 -28 0 -47 -17 -47 -42 0 -11 -7 -18 -20 -18 -13 0 -20 7 -20 18 0 30
-21 42 -72 42 l-48 0 0 108 c0 60 3 112 7 115 3 4 174 7 380 7 l373 0 0 -115z
m-880 0 c0 -38 -3 -45 -20 -45 -17 0 -20 7 -20 45 0 38 3 45 20 45 17 0 20 -7
20 -45z m544 29 c19 -18 21 -45 4 -62 -28 -28 -108 -5 -108 30 0 41 74 63 104
32z m496 -29 c0 -38 -3 -45 -20 -45 -17 0 -20 7 -20 45 0 38 3 45 20 45 17 0
20 -7 20 -45z m-466 -91 c38 -15 9 -24 -74 -24 -81 0 -112 9 -77 23 18 8 133
8 151 1z m-374 -84 l0 -30 -60 0 -60 0 0 30 0 30 60 0 60 0 0 -30z m480 15 c0
-13 -27 -15 -180 -15 -153 0 -180 2 -180 15 0 13 27 15 180 15 153 0 180 -2
180 -15z m240 -15 l0 -30 -60 0 -60 0 0 30 0 30 60 0 60 0 0 -30z m-866 -54
c37 -33 33 -46 -14 -46 -38 0 -40 2 -40 29 0 16 6 32 13 34 6 3 13 6 14 6 1 1
13 -10 27 -23z m386 -76 l0 -100 -40 0 c-35 0 -40 3 -40 23 0 33 -18 47 -60
47 -42 0 -60 -14 -60 -47 0 -20 -5 -23 -40 -23 -36 0 -40 3 -40 25 0 14 -9 30
-20 37 -15 10 -20 24 -20 55 l0 43 45 0 c32 0 50 6 63 19 14 16 32 19 115 20
l97 1 0 -100z m80 35 c0 -58 -2 -65 -20 -65 -18 0 -20 7 -20 58 0 61 4 72 27
72 9 0 13 -17 13 -65z m250 45 c14 -14 33 -20 65 -20 l45 0 0 -45 c0 -34 -5
-47 -20 -55 -12 -6 -20 -21 -20 -35 0 -22 -4 -25 -40 -25 -35 0 -40 3 -40 23
0 33 -18 47 -60 47 -42 0 -60 -14 -60 -47 0 -20 -5 -23 -40 -23 l-40 0 0 93
c0 52 3 97 7 100 3 4 46 7 95 7 75 0 91 -3 108 -20z m230 -21 c0 -27 -3 -29
-40 -29 -47 0 -52 15 -13 46 34 27 53 21 53 -17z m-920 -70 c0 -16 -42 -48
-62 -49 -13 0 -18 8 -18 30 0 28 2 30 40 30 22 0 40 -5 40 -11z m920 -19 c0
-36 -23 -40 -57 -11 -34 28 -28 41 17 41 38 0 40 -2 40 -30z m-880 -110 c0
-73 -2 -80 -20 -80 -18 0 -20 7 -20 80 0 73 2 80 20 80 18 0 20 -7 20 -80z
m200 0 c0 -73 -2 -80 -20 -80 -18 0 -20 7 -20 80 0 73 2 80 20 80 18 0 20 -7
20 -80z m200 0 c0 -73 -2 -80 -20 -80 -18 0 -20 7 -20 80 0 73 2 80 20 80 18
0 20 -7 20 -80z m200 0 c0 -73 -2 -80 -20 -80 -18 0 -20 7 -20 73 0 76 4 87
27 87 10 0 13 -20 13 -80z m200 0 c0 -73 -2 -80 -20 -80 -18 0 -20 7 -20 73 0
76 4 87 27 87 10 0 13 -20 13 -80z m-880 9 c0 -24 -4 -30 -17 -27 -11 2 -19
14 -21 31 -3 22 1 27 17 27 17 0 21 -6 21 -31z m958 4 c-2 -17 -10 -29 -20
-31 -14 -3 -18 3 -18 27 0 25 4 31 21 31 16 0 20 -5 17 -27z m-758 -18 c0 -11
-11 -15 -40 -15 -29 0 -40 4 -40 15 0 11 11 15 40 15 29 0 40 -4 40 -15z m200
0 c0 -11 -11 -15 -40 -15 -29 0 -40 4 -40 15 0 11 11 15 40 15 29 0 40 -4 40
-15z m200 0 c0 -11 -11 -15 -40 -15 -29 0 -40 4 -40 15 0 11 11 15 40 15 29 0
40 -4 40 -15z m200 0 c0 -11 -11 -15 -40 -15 -29 0 -40 4 -40 15 0 11 11 15
40 15 29 0 40 -4 40 -15z m-864 -30 c9 -8 26 -15 40 -15 19 0 24 -5 24 -25 0
-26 25 -45 59 -45 12 0 21 -7 21 -15 0 -11 -11 -15 -40 -15 -29 0 -40 -4 -40
-15 0 -11 11 -15 40 -15 l40 0 0 -50 0 -50 -100 0 c-93 0 -100 1 -100 20 0 18
7 20 80 20 64 0 80 3 80 15 0 12 -16 15 -80 15 l-80 0 0 30 c0 28 2 30 40 30
29 0 40 4 40 15 0 11 -11 15 -40 15 l-40 0 0 50 c0 44 3 50 21 50 11 0 27 -7
35 -15z m1104 -50 c0 -58 -2 -65 -20 -65 -11 0 -20 -7 -20 -15 0 -8 9 -15 20
-15 17 0 20 -7 20 -50 l0 -50 -60 0 c-53 0 -60 2 -60 20 0 17 7 20 40 20 29 0
40 4 40 15 0 11 -11 15 -40 15 -38 0 -40 2 -40 30 0 23 4 30 20 30 11 0 20 7
20 15 0 8 -9 15 -20 15 -16 0 -20 7 -20 35 0 31 3 35 25 35 13 0 30 7 37 15 7
8 23 14 36 15 21 0 22 -4 22 -65z m-840 10 c0 -26 25 -45 59 -45 12 0 21 -7
21 -15 0 -11 -11 -15 -40 -15 -29 0 -40 -4 -40 -15 0 -11 11 -15 40 -15 l40 0
0 -50 0 -50 -80 0 c-73 0 -80 2 -80 20 0 18 7 20 60 20 47 0 60 3 60 15 0 12
-13 15 -60 15 l-60 0 0 30 c0 23 4 30 20 30 11 0 20 7 20 15 0 8 -9 15 -20 15
-16 0 -20 7 -20 35 0 34 1 35 40 35 36 0 40 -3 40 -25z m200 0 c0 -26 25 -45
59 -45 12 0 21 -7 21 -15 0 -11 -11 -15 -40 -15 -29 0 -40 -4 -40 -15 0 -11
11 -15 40 -15 l40 0 0 -50 0 -50 -80 0 c-73 0 -80 2 -80 20 0 18 7 20 60 20
47 0 60 3 60 15 0 12 -13 15 -60 15 l-60 0 0 30 c0 23 4 30 20 30 11 0 20 7
20 15 0 8 -9 15 -20 15 -16 0 -20 7 -20 35 0 34 1 35 40 35 36 0 40 -3 40 -25z
m200 0 c0 -26 25 -45 59 -45 12 0 21 -7 21 -15 0 -11 -11 -15 -40 -15 -29 0
-40 -4 -40 -15 0 -11 11 -15 40 -15 l40 0 0 -50 0 -50 -80 0 c-73 0 -80 2 -80
20 0 18 7 20 60 20 47 0 60 3 60 15 0 12 -13 15 -60 15 l-60 0 0 30 c0 23 4
30 20 30 11 0 20 7 20 15 0 8 -9 15 -20 15 -16 0 -20 7 -20 35 0 34 1 35 40
35 36 0 40 -3 40 -25z m200 0 c0 -26 25 -45 59 -45 12 0 21 -7 21 -15 0 -11
-11 -15 -40 -15 -29 0 -40 -4 -40 -15 0 -11 11 -15 40 -15 l40 0 0 -50 0 -50
-80 0 c-73 0 -80 2 -80 20 0 18 7 20 60 20 47 0 60 3 60 15 0 12 -13 15 -60
15 l-60 0 0 30 c0 23 4 30 20 30 11 0 20 7 20 15 0 8 -9 15 -20 15 -16 0 -20
7 -20 35 0 34 1 35 40 35 36 0 40 -3 40 -25z"/>
</g>
</svg>
