<?xml version="1.0" standalone="no"?>
<!DOCTYPE svg PUBLIC "-//W3C//DTD SVG 20010904//EN"
 "http://www.w3.org/TR/2001/REC-SVG-20010904/DTD/svg10.dtd">
<svg version="1.0" xmlns="http://www.w3.org/2000/svg"
 width="128.000000pt" height="128.000000pt" viewBox="0 0 128.000000 128.000000"
 preserveAspectRatio="xMidYMid meet">
<g transform="translate(0.000000,128.000000) scale(0.100000,-0.100000)"
fill="#000000" stroke="none">
<path d="M230 1272 c-40 -12 -50 -46 -50 -179 l0 -122 -71 -57 c-112 -89 -109
-73 -109 -497 l0 -359 29 -29 29 -29 216 0 c213 0 215 0 243 24 l28 24 3 358
3 357 -26 53 c-19 39 -42 65 -85 96 -32 24 -63 53 -69 66 -6 13 -11 78 -11
146 0 89 -4 127 -13 134 -18 15 -86 23 -117 14z"/>
<path d="M643 718 c7 -107 23 -181 50 -233 30 -58 110 -115 161 -115 54 0 56
-4 56 -115 0 -88 -3 -104 -19 -119 -30 -27 -90 -45 -153 -46 -64 0 -98 -24
-98 -67 l0 -23 321 0 321 0 -6 27 c-11 43 -41 63 -98 63 -71 0 -125 19 -154
53 -22 26 -24 37 -24 123 0 104 -7 95 81 109 19 3 50 16 69 30 75 56 111 151
125 333 l6 82 -322 0 -322 0 6 -102z"/>
</g>
</svg>
