<?xml version="1.0" standalone="no"?>
<!DOCTYPE svg PUBLIC "-//W3C//DTD SVG 20010904//EN"
 "http://www.w3.org/TR/2001/REC-SVG-20010904/DTD/svg10.dtd">
<svg version="1.0" xmlns="http://www.w3.org/2000/svg"
 width="128.000000pt" height="128.000000pt" viewBox="0 0 128.000000 128.000000"
 preserveAspectRatio="xMidYMid meet">
<g transform="translate(0.000000,128.000000) scale(0.100000,-0.100000)"
fill="#000000" stroke="none">
<path d="M500 1264 c-234 -50 -436 -254 -485 -489 -95 -454 306 -855 760 -760
287 60 505 329 505 625 0 406 -380 710 -780 624z m310 -30 c201 -59 365 -224
426 -429 25 -82 25 -248 0 -330 -62 -207 -224 -369 -431 -431 -82 -25 -248
-25 -330 0 -207 62 -369 224 -431 431 -25 82 -25 248 0 330 70 235 271 412
511 449 53 8 199 -3 255 -20z"/>
<path d="M507 1156 c-146 -42 -273 -148 -337 -281 -71 -146 -74 -299 -10 -470
24 -62 76 -125 104 -125 20 0 20 5 1 33 -13 20 -12 26 5 54 89 147 676 366
830 310 29 -10 35 -17 33 -40 -1 -15 -11 -39 -22 -54 -31 -39 -25 -51 9 -18
47 45 55 88 36 181 -38 187 -157 325 -341 394 -75 28 -235 37 -308 16z m-81
-106 c-56 -59 -103 -155 -116 -233 -10 -61 0 -158 26 -245 l15 -54 -68 -63
c-46 -45 -70 -61 -75 -52 -19 29 -48 144 -54 215 -15 177 83 363 239 452 76
43 86 37 33 -20z m425 22 c68 -30 127 -78 159 -129 47 -74 43 -83 -39 -83
-139 0 -337 -54 -477 -130 -46 -26 -75 -36 -84 -30 -18 11 -25 123 -11 175 38
141 172 230 332 221 46 -2 94 -12 120 -24z m79 -287 c0 -14 -6 -27 -12 -29 -7
-2 -47 -12 -88 -21 -41 -10 -81 -20 -87 -22 -7 -3 -17 6 -22 18 -11 30 0 37
94 60 101 25 115 24 115 -6z"/>
<path d="M668 1053 c-35 -9 -17 -18 40 -19 76 -1 159 -27 210 -64 50 -36 53
-33 11 14 -50 58 -177 91 -261 69z"/>
<path d="M780 536 c-201 -43 -416 -159 -460 -251 -21 -44 -22 -47 -5 -65 26
-28 33 -25 45 20 12 43 42 71 131 120 l54 29 10 -137 10 -137 68 -3 c77 -3
168 17 242 53 86 43 90 48 76 95 -14 47 -7 48 -142 -6 -97 -38 -109 -40 -109
-19 0 17 89 64 168 90 29 10 52 21 52 26 0 6 -12 32 -26 60 -24 49 -26 79 -4
79 6 0 25 -30 43 -66 l32 -66 65 7 c36 4 68 9 71 11 3 2 14 24 24 49 16 44 16
47 -1 67 -36 39 -75 51 -179 54 -59 2 -127 -2 -165 -10z"/>
<path d="M997 313 c-10 -9 -9 -41 1 -47 5 -3 22 8 37 24 l29 30 -30 0 c-17 0
-34 -3 -37 -7z"/>
</g>
</svg>
