<?xml version="1.0" standalone="no"?>
<!DOCTYPE svg PUBLIC "-//W3C//DTD SVG 20010904//EN"
 "http://www.w3.org/TR/2001/REC-SVG-20010904/DTD/svg10.dtd">
<svg version="1.0" xmlns="http://www.w3.org/2000/svg"
 width="128.000000pt" height="128.000000pt" viewBox="0 0 128.000000 128.000000"
 preserveAspectRatio="xMidYMid meet">
<g transform="translate(0.000000,128.000000) scale(0.100000,-0.100000)"
fill="#000000" stroke="none">
<path d="M532 1226 c-55 -25 -102 -67 -146 -130 -60 -85 -345 -587 -368 -650
-51 -132 20 -310 153 -383 48 -25 190 -25 238 1 91 49 123 95 327 462 228 413
230 418 174 523 -66 123 -154 184 -275 188 -46 2 -81 -2 -103 -11z m154 -194
c31 -24 44 -55 44 -101 0 -85 -103 -134 -178 -85 -13 9 -30 32 -39 52 -19 46
-5 101 34 131 33 27 109 28 139 3z"/>
<path d="M963 833 c-17 -38 -90 -176 -162 -307 -72 -132 -131 -245 -131 -252
0 -22 81 -133 123 -169 78 -67 209 -85 304 -41 130 61 211 216 173 332 -10 28
-257 480 -275 502 -1 1 -16 -28 -32 -65z"/>
</g>
</svg>
