<?xml version="1.0" standalone="no"?>
<!DOCTYPE svg PUBLIC "-//W3C//DTD SVG 20010904//EN"
 "http://www.w3.org/TR/2001/REC-SVG-20010904/DTD/svg10.dtd">
<svg version="1.0" xmlns="http://www.w3.org/2000/svg"
 width="128.000000pt" height="128.000000pt" viewBox="0 0 128.000000 128.000000"
 preserveAspectRatio="xMidYMid meet">
<g transform="translate(0.000000,128.000000) scale(0.100000,-0.100000)"
fill="#000000" stroke="none">
<path d="M350 1102 c-53 -26 -80 -74 -80 -142 l0 -57 -37 -6 c-52 -9 -82 -32
-104 -81 -16 -36 -19 -68 -19 -276 0 -129 5 -251 10 -271 13 -45 54 -84 105
-98 54 -15 776 -15 830 0 51 14 92 53 105 98 5 20 10 142 10 271 0 208 -3 240
-19 276 -22 49 -52 72 -103 81 l-38 6 0 57 c0 68 -27 116 -80 142 -31 16 -67
18 -290 18 -223 0 -259 -2 -290 -18z m548 -104 c7 -7 12 -29 12 -50 l0 -38
-270 0 -270 0 0 38 c0 21 5 43 12 50 17 17 499 17 516 0z"/>
</g>
</svg>
