<?xml version="1.0" standalone="no"?>
<!DOCTYPE svg PUBLIC "-//W3C//DTD SVG 20010904//EN"
 "http://www.w3.org/TR/2001/REC-SVG-20010904/DTD/svg10.dtd">
<svg version="1.0" xmlns="http://www.w3.org/2000/svg"
 width="128.000000pt" height="128.000000pt" viewBox="0 0 128.000000 128.000000"
 preserveAspectRatio="xMidYMid meet">
<g transform="translate(0.000000,128.000000) scale(0.100000,-0.100000)"
fill="#000000" stroke="none">
<path d="M183 1261 c-74 -25 -117 -63 -150 -128 l-28 -58 0 -435 0 -435 29
-58 c33 -67 84 -110 159 -132 74 -22 820 -22 894 0 75 22 126 65 159 132 l29
58 0 435 0 435 -29 58 c-18 38 -43 69 -69 88 -78 56 -102 59 -541 59 -358 -1
-406 -3 -453 -19z m911 -13 c55 -16 138 -99 154 -154 17 -58 17 -850 0 -908
-16 -55 -99 -138 -154 -154 -58 -17 -850 -17 -908 0 -55 16 -138 99 -154 154
-17 58 -17 850 0 908 15 51 99 137 148 153 52 16 859 17 914 1z"/>
<path d="M692 1068 c-17 -17 -17 -839 0 -856 17 -17 359 -17 376 0 17 17 17
839 0 856 -17 17 -359 17 -376 0z m346 -240 l2 -208 -160 0 -160 0 0 210 0
211 158 -3 157 -3 3 -207z m-3 -418 l0 -165 -157 -3 -158 -3 0 164 c0 90 3
167 7 171 4 3 75 5 157 4 l151 -3 0 -165z"/>
<path d="M767 733 c-4 -3 -7 -19 -7 -35 0 -21 5 -28 20 -28 16 0 20 7 20 35 0
33 -16 46 -33 28z"/>
<path d="M767 524 c-14 -14 -7 -65 9 -71 21 -8 33 13 25 45 -7 26 -22 38 -34
26z"/>
<path d="M233 953 c-18 -7 -16 -26 9 -78 22 -45 22 -45 73 -45 48 0 51 2 75
40 21 33 30 40 57 40 37 0 50 14 33 35 -10 12 -38 15 -124 14 -61 0 -117 -3
-123 -6z m117 -63 c-12 -22 -40 -26 -58 -8 -21 21 -13 28 28 28 38 0 40 -2 30
-20z"/>
<path d="M218 779 c-16 -9 -18 -34 -18 -282 0 -199 3 -276 12 -285 9 -9 69
-12 209 -12 193 0 198 1 213 22 14 19 16 63 16 275 0 240 -1 254 -20 273 -19
19 -33 20 -207 20 -109 0 -195 -5 -205 -11z m382 -289 l0 -250 -180 0 -180 0
0 250 0 250 180 0 180 0 0 -250z"/>
<path d="M302 671 c-20 -12 -10 -46 13 -46 14 0 20 7 20 24 0 27 -13 35 -33
22z"/>
<path d="M400 664 c-11 -12 -10 -18 3 -32 16 -15 18 -15 34 0 13 14 14 20 3
32 -7 9 -16 16 -20 16 -4 0 -13 -7 -20 -16z"/>
<path d="M511 670 c-19 -11 -9 -45 14 -45 13 0 21 8 23 21 3 23 -17 37 -37 24z"/>
<path d="M292 518 c-16 -16 -16 -170 0 -186 18 -18 242 -16 257 2 8 9 11 46 9
103 l-3 88 -125 3 c-89 2 -129 -1 -138 -10z m253 -31 c4 -13 5 -50 3 -82 l-3
-60 -122 -3 -123 -3 0 86 0 85 120 0 c116 0 120 -1 125 -23z"/>
</g>
</svg>
