<?xml version="1.0" standalone="no"?>
<!DOCTYPE svg PUBLIC "-//W3C//DTD SVG 20010904//EN"
 "http://www.w3.org/TR/2001/REC-SVG-20010904/DTD/svg10.dtd">
<svg version="1.0" xmlns="http://www.w3.org/2000/svg"
 width="128.000000pt" height="128.000000pt" viewBox="0 0 128.000000 128.000000"
 preserveAspectRatio="xMidYMid meet">
<g transform="translate(0.000000,128.000000) scale(0.100000,-0.100000)"
fill="#000000" stroke="none">
<path d="M520 1265 c-222 -42 -423 -221 -492 -437 -91 -289 50 -620 322 -756
127 -64 277 -89 339 -58 52 27 68 112 30 159 -28 37 -35 87 -15 125 23 44 43
52 133 52 163 0 254 30 333 110 208 207 95 585 -223 742 -134 66 -288 89 -427
63z m-25 -115 c25 0 74 -51 84 -86 13 -46 -3 -97 -39 -128 -43 -36 -81 -41
-133 -18 -81 36 -98 140 -33 201 25 24 73 42 94 35 8 -2 20 -4 27 -4z m370 -4
c90 -38 100 -177 15 -221 -62 -32 -146 -11 -175 45 -33 63 -5 148 58 175 41
18 60 18 102 1z m-528 -320 c76 -82 18 -206 -96 -206 -57 0 -110 48 -118 106
-16 123 130 191 214 100z m780 0 c76 -83 19 -206 -95 -206 -84 0 -142 93 -108
173 35 84 141 101 203 33z"/>
</g>
</svg>
