<?xml version="1.0" standalone="no"?>
<!DOCTYPE svg PUBLIC "-//W3C//DTD SVG 20010904//EN"
 "http://www.w3.org/TR/2001/REC-SVG-20010904/DTD/svg10.dtd">
<svg version="1.0" xmlns="http://www.w3.org/2000/svg"
 width="128.000000pt" height="128.000000pt" viewBox="0 0 128.000000 128.000000"
 preserveAspectRatio="xMidYMid meet">
<g transform="translate(0.000000,128.000000) scale(0.100000,-0.100000)"
fill="#000000" stroke="none">
<path d="M480 960 l0 -50 93 0 93 0 54 -55 54 -55 -92 0 c-91 0 -94 -1 -192
-50 -55 -27 -106 -50 -113 -50 -7 0 -35 23 -62 50 l-49 50 -133 0 -133 0 0
-55 0 -55 83 0 82 0 -40 -19 c-140 -65 -167 -247 -52 -348 46 -40 97 -56 163
-51 85 7 163 71 180 148 12 55 13 55 68 1 l53 -52 78 3 79 3 84 145 c45 80 87
152 92 160 7 13 12 11 33 -8 l25 -23 -33 -49 c-70 -104 -47 -229 55 -296 77
-51 186 -43 257 19 143 126 54 367 -135 367 -33 0 -45 7 -92 55 l-54 55 72 0
72 0 0 80 0 80 -101 -51 -102 -51 -76 76 -76 76 -118 0 -117 0 0 -50z m-225
-384 c35 -15 65 -59 65 -96 0 -67 -72 -121 -136 -100 -94 31 -101 156 -10 196
39 17 40 17 81 0z m849 0 c93 -39 87 -164 -8 -196 -64 -21 -136 33 -136 100 0
36 30 81 63 95 40 18 41 18 81 1z"/>
</g>
</svg>
