<?xml version="1.0" standalone="no"?>
<!DOCTYPE svg PUBLIC "-//W3C//DTD SVG 20010904//EN"
 "http://www.w3.org/TR/2001/REC-SVG-20010904/DTD/svg10.dtd">
<svg version="1.0" xmlns="http://www.w3.org/2000/svg"
 width="128.000000pt" height="128.000000pt" viewBox="0 0 128.000000 128.000000"
 preserveAspectRatio="xMidYMid meet">
<g transform="translate(0.000000,128.000000) scale(0.100000,-0.100000)"
fill="#000000" stroke="none">
<path d="M605 1208 c-33 -18 -45 -40 -45 -85 l0 -43 -80 0 c-89 0 -132 -14
-169 -53 -30 -33 -39 -104 -18 -146 14 -28 14 -31 -4 -36 -46 -15 -50 -45 -47
-376 l3 -311 28 -24 29 -25 350 3 350 3 19 24 c18 22 19 43 19 333 0 330 -4
358 -50 373 -16 5 -19 11 -13 28 4 12 8 45 8 74 0 91 -61 133 -195 133 l-80 0
0 39 c0 53 -8 69 -41 86 -33 18 -38 18 -64 3z m65 -96 c0 -27 5 -53 12 -60 8
-8 47 -12 111 -12 96 0 99 -1 128 -29 37 -37 40 -93 7 -128 -21 -23 -22 -23
-294 -23 l-273 0 -20 26 c-30 38 -27 77 8 116 29 32 31 33 128 36 112 4 123
11 123 78 0 48 21 69 52 53 13 -7 18 -22 18 -57z m314 -314 c14 -19 16 -66 16
-316 0 -183 -4 -301 -10 -313 -10 -18 -25 -19 -342 -19 -294 0 -333 2 -350 17
-17 15 -18 38 -18 315 0 285 1 299 20 318 19 19 33 20 344 20 324 0 325 0 340
-22z"/>
<path d="M340 665 c0 -12 18 -15 100 -15 82 0 100 3 100 15 0 12 -18 15 -100
15 -82 0 -100 -3 -100 -15z"/>
<path d="M340 550 c0 -19 6 -20 161 -20 147 0 160 1 157 18 -3 15 -20 17 -161
20 -152 2 -157 2 -157 -18z"/>
<path d="M340 435 c0 -12 18 -15 100 -15 82 0 100 3 100 15 0 12 -18 15 -100
15 -82 0 -100 -3 -100 -15z"/>
</g>
</svg>
