<?xml version="1.0" standalone="no"?>
<!DOCTYPE svg PUBLIC "-//W3C//DTD SVG 20010904//EN"
 "http://www.w3.org/TR/2001/REC-SVG-20010904/DTD/svg10.dtd">
<svg version="1.0" xmlns="http://www.w3.org/2000/svg"
 width="128.000000pt" height="128.000000pt" viewBox="0 0 128.000000 128.000000"
 preserveAspectRatio="xMidYMid meet">
<g transform="translate(0.000000,128.000000) scale(0.100000,-0.100000)"
fill="#000000" stroke="none">
<path d="M475 1165 c-42 -21 -93 -82 -105 -124 -5 -20 -10 -57 -10 -83 0 -47
-1 -48 -30 -48 l-30 0 0 -410 0 -410 340 0 340 0 0 410 0 410 -35 0 -35 0 0
68 c0 58 -4 75 -29 115 -48 74 -84 87 -243 87 -98 0 -141 -4 -163 -15z m291
-127 c20 -19 28 -39 32 -77 l5 -51 -162 0 -161 0 0 43 c1 93 39 118 167 115
85 -3 95 -5 119 -30z"/>
<path d="M80 892 c-22 -12 -44 -35 -57 -62 -22 -43 -23 -54 -23 -321 0 -280 5
-323 39 -363 21 -24 59 -43 104 -51 l37 -7 0 411 0 411 -33 0 c-18 0 -48 -8
-67 -18z"/>
<path d="M1090 506 c0 -253 4 -407 10 -411 19 -12 94 17 126 49 18 18 37 50
43 71 14 51 14 514 0 575 -16 72 -76 120 -149 120 l-30 0 0 -404z"/>
</g>
</svg>
