<?xml version="1.0" standalone="no"?>
<!DOCTYPE svg PUBLIC "-//W3C//DTD SVG 20010904//EN"
 "http://www.w3.org/TR/2001/REC-SVG-20010904/DTD/svg10.dtd">
<svg version="1.0" xmlns="http://www.w3.org/2000/svg"
 width="128.000000pt" height="128.000000pt" viewBox="0 0 128.000000 128.000000"
 preserveAspectRatio="xMidYMid meet">
<g transform="translate(0.000000,128.000000) scale(0.100000,-0.100000)"
fill="#000000" stroke="none">
<path d="M354 908 c19 -51 48 -128 65 -171 17 -43 31 -82 31 -88 0 -6 -26 -9
-67 -7 l-66 3 -56 147 c-31 81 -61 148 -67 148 -28 0 -128 -144 -165 -239 -19
-47 -23 -81 -27 -212 -4 -155 -4 -156 21 -185 l25 -29 574 -3 c521 -3 576 -2
605 14 43 22 53 57 53 183 0 192 -37 297 -140 401 -50 51 -140 107 -199 125
-22 7 -23 5 -17 -21 4 -16 32 -92 62 -169 30 -76 54 -145 54 -152 0 -9 -18
-13 -64 -13 l-63 0 -45 118 c-25 64 -56 145 -68 180 l-23 62 -80 0 c-71 0 -79
-2 -74 -17 3 -10 33 -90 66 -178 34 -88 61 -161 61 -162 0 -2 -31 -3 -69 -3
l-68 0 -27 74 c-14 41 -45 122 -67 180 l-41 106 -79 0 -78 0 33 -92z"/>
</g>
</svg>
