<?xml version="1.0" standalone="no"?>
<!DOCTYPE svg PUBLIC "-//W3C//DTD SVG 20010904//EN"
 "http://www.w3.org/TR/2001/REC-SVG-20010904/DTD/svg10.dtd">
<svg version="1.0" xmlns="http://www.w3.org/2000/svg"
 width="128.000000pt" height="128.000000pt" viewBox="0 0 128.000000 128.000000"
 preserveAspectRatio="xMidYMid meet">
<g transform="translate(0.000000,128.000000) scale(0.100000,-0.100000)"
fill="#000000" stroke="none">
<path d="M94 1229 c3 -17 6 -44 6 -60 0 -24 4 -29 25 -29 28 0 31 4 40 73 l6
47 -42 0 c-41 0 -41 0 -35 -31z"/>
<path d="M420 640 l0 -620 210 0 210 0 0 620 0 620 -210 0 -210 0 0 -620z
m400 70 c0 -347 -3 -530 -10 -530 -7 0 -10 167 -10 480 l0 480 -24 0 c-20 0
-53 -13 -95 -37 -2 -2 2 -10 9 -18 12 -14 15 -14 35 5 12 11 29 20 38 20 16 0
17 -36 17 -465 l0 -465 -170 0 -170 0 0 530 0 530 190 0 190 0 0 -530z"/>
<path d="M620 1085 c-11 -13 -9 -20 8 -38 18 -19 19 -26 9 -37 -10 -10 -9 -11
3 -4 8 5 21 9 29 9 8 0 19 8 25 17 8 14 5 22 -14 43 -27 29 -42 31 -60 10z"/>
<path d="M600 1039 c0 -5 5 -7 10 -4 6 3 10 8 10 11 0 2 -4 4 -10 4 -5 0 -10
-5 -10 -11z"/>
<path d="M464 716 c-3 -7 -4 -42 -2 -77 3 -58 5 -64 26 -67 38 -6 52 15 52 77
0 31 -5 62 -12 69 -16 16 -57 15 -64 -2z m51 -66 c0 -44 -3 -55 -17 -58 -16
-3 -18 5 -18 58 0 53 2 61 18 58 14 -3 17 -14 17 -58z"/>
<path d="M940 1120 c-18 -18 -20 -33 -20 -175 0 -201 -5 -195 155 -195 160 0
155 -6 155 195 0 201 5 195 -155 195 -102 0 -117 -2 -135 -20z m258 -12 c17
-17 17 -309 0 -326 -8 -8 -50 -12 -125 -12 -101 0 -113 2 -123 19 -5 11 -10
81 -10 156 0 75 5 145 10 156 10 17 22 19 123 19 75 0 117 -4 125 -12z"/>
<path d="M10 1090 l0 -30 170 0 170 0 0 30 0 30 -170 0 -170 0 0 -30z"/>
<path d="M70 990 c0 -6 40 -10 100 -10 60 0 100 4 100 10 0 6 -40 10 -100 10
-60 0 -100 -4 -100 -10z"/>
<path d="M90 910 l0 -40 80 0 80 0 0 40 0 40 -80 0 -80 0 0 -40z m120 -10 c0
-5 -18 -10 -40 -10 -22 0 -40 5 -40 10 0 6 18 10 40 10 22 0 40 -4 40 -10z"/>
<path d="M10 820 l0 -30 170 0 170 0 0 30 0 30 -170 0 -170 0 0 -30z"/>
<path d="M1060 645 c-7 -16 -15 -43 -19 -60 -6 -26 -12 -30 -44 -33 -28 -2
-37 1 -37 12 0 8 5 18 10 21 18 11 10 25 -15 25 -22 0 -24 -3 -18 -30 5 -28 4
-30 -25 -30 -17 0 -34 -4 -37 -10 -3 -5 3 -10 14 -10 13 0 23 -10 30 -33 30
-90 134 -130 226 -88 48 22 73 49 84 87 5 19 15 30 29 32 40 6 23 22 -23 22
-38 0 -45 3 -45 20 0 11 5 20 10 20 6 0 10 5 10 10 0 6 -13 10 -30 10 -16 0
-30 -4 -30 -10 0 -5 5 -10 10 -10 6 0 10 -9 10 -20 0 -16 -7 -20 -30 -20 -21
0 -30 5 -30 16 0 9 -6 30 -14 47 -8 18 -16 39 -19 47 -3 10 -9 5 -17 -15z"/>
<path d="M131 604 c-25 -18 -51 -71 -51 -105 0 -11 7 -36 16 -55 l16 -34 74 0
c72 0 74 0 90 32 39 75 -11 178 -86 178 -19 0 -46 -7 -59 -16z"/>
<path d="M30 583 c0 -37 37 -173 47 -173 9 0 8 9 -4 37 -14 36 -14 86 2 126 6
13 2 17 -19 17 -14 0 -26 -3 -26 -7z"/>
<path d="M295 573 c17 -41 17 -100 1 -131 -13 -26 -14 -32 -3 -32 9 0 19 27
30 78 22 100 22 102 -9 102 -21 0 -25 -3 -19 -17z"/>
<path d="M0 380 c0 -5 6 -13 13 -17 6 -4 20 -21 29 -38 56 -101 237 -96 293 8
11 20 26 37 33 37 6 0 12 5 12 10 0 6 -70 10 -190 10 -113 0 -190 -4 -190 -10z"/>
<path d="M1007 228 c-9 -79 -17 -149 -17 -155 0 -10 24 -13 85 -13 74 0 85 2
85 18 0 9 -7 79 -17 155 l-16 137 -52 0 -51 0 -17 -142z"/>
<path d="M116 215 c-3 -11 -8 -50 -12 -88 l-7 -67 87 0 87 0 -6 54 c-16 122
-12 117 -82 119 -55 2 -63 0 -67 -18z"/>
</g>
</svg>
