<?xml version="1.0" standalone="no"?>
<!DOCTYPE svg PUBLIC "-//W3C//DTD SVG 20010904//EN"
 "http://www.w3.org/TR/2001/REC-SVG-20010904/DTD/svg10.dtd">
<svg version="1.0" xmlns="http://www.w3.org/2000/svg"
 width="128.000000pt" height="128.000000pt" viewBox="0 0 128.000000 128.000000"
 preserveAspectRatio="xMidYMid meet">
<g transform="translate(0.000000,128.000000) scale(0.100000,-0.100000)"
fill="#000000" stroke="none">
<path d="M348 1165 c-61 -22 -118 -67 -214 -168 -84 -87 -134 -161 -134 -198
0 -10 28 -22 93 -38 80 -20 98 -22 135 -12 50 14 102 58 172 145 100 126 202
147 399 80 100 -34 345 -147 421 -194 22 -14 4 8 -51 63 -150 149 -320 261
-472 312 -65 21 -93 25 -194 24 -73 0 -132 -6 -155 -14z"/>
<path d="M922 628 l-182 -80 -143 0 c-128 0 -282 17 -387 42 -90 21 -90 21
-90 4 0 -9 -25 -79 -56 -156 -30 -77 -53 -142 -50 -145 3 -3 53 32 111 77 59
45 108 80 110 78 1 -1 10 -79 19 -172 9 -94 18 -171 20 -173 2 -2 43 59 91
136 88 142 106 158 137 128 7 -7 39 -70 72 -140 32 -70 62 -124 66 -122 4 2
27 63 51 135 l44 131 39 10 c21 6 44 8 52 5 7 -3 48 -48 91 -100 l78 -95 6 72
c4 40 7 116 8 170 0 53 4 97 9 97 4 0 61 -36 127 -79 66 -44 121 -78 123 -77
1 2 -34 67 -79 145 -63 110 -80 147 -75 166 4 14 3 25 -1 24 -5 0 -90 -37
-191 -81z"/>
</g>
</svg>
