<?xml version="1.0" standalone="no"?>
<!DOCTYPE svg PUBLIC "-//W3C//DTD SVG 20010904//EN"
 "http://www.w3.org/TR/2001/REC-SVG-20010904/DTD/svg10.dtd">
<svg version="1.0" xmlns="http://www.w3.org/2000/svg"
 width="128.000000pt" height="128.000000pt" viewBox="0 0 128.000000 128.000000"
 preserveAspectRatio="xMidYMid meet">
<g transform="translate(0.000000,128.000000) scale(0.100000,-0.100000)"
fill="#000000" stroke="none">
<path d="M235 1271 c-37 -16 -45 -36 -53 -137 -8 -85 -17 -120 -67 -249 -124
-321 -115 -275 -115 -568 l0 -259 29 -29 29 -29 216 0 c213 0 215 0 243 24
l28 24 3 254 c3 291 11 251 -108 563 -65 171 -73 199 -79 282 -4 64 -11 97
-22 108 -19 19 -77 28 -104 16z"/>
<path d="M981 1143 c-5 -21 -24 -94 -41 -163 -17 -69 -33 -133 -36 -143 -5
-16 0 -18 48 -15 l53 3 26 105 c14 58 28 117 32 132 7 27 8 27 110 30 l102 3
3 43 3 42 -145 0 -145 0 -10 -37z"/>
<path d="M644 693 c3 -21 24 -168 46 -328 22 -160 43 -298 46 -307 3 -10 17
-27 31 -38 23 -18 40 -20 145 -20 122 0 150 6 168 39 9 18 100 627 100 671 0
19 -8 20 -271 20 l-272 0 7 -37z"/>
</g>
</svg>
