<?xml version="1.0" standalone="no"?>
<!DOCTYPE svg PUBLIC "-//W3C//DTD SVG 20010904//EN"
 "http://www.w3.org/TR/2001/REC-SVG-20010904/DTD/svg10.dtd">
<svg version="1.0" xmlns="http://www.w3.org/2000/svg"
 width="128.000000pt" height="128.000000pt" viewBox="0 0 128.000000 128.000000"
 preserveAspectRatio="xMidYMid meet">
<g transform="translate(0.000000,128.000000) scale(0.100000,-0.100000)"
fill="#000000" stroke="none">
<path d="M730 1101 c0 -38 3 -42 55 -76 55 -35 55 -35 55 -85 l0 -50 -190 0
-190 0 0 35 c0 34 1 35 39 35 64 0 93 44 49 74 -17 12 -50 16 -138 16 -88 0
-121 -4 -138 -16 -44 -30 -15 -74 49 -74 l39 0 0 -42 c0 -54 -71 -188 -99
-188 -55 0 -126 -34 -176 -83 -138 -139 -103 -348 73 -434 153 -75 327 6 378
177 13 43 15 65 7 103 -5 26 -7 49 -5 52 3 3 20 5 38 5 40 0 65 20 174 144 46
53 87 96 90 96 3 0 16 -20 28 -45 12 -25 17 -45 12 -45 -19 0 -91 -73 -118
-119 -37 -63 -39 -174 -4 -241 52 -100 140 -154 247 -154 169 1 299 157 265
320 -23 109 -123 204 -229 219 -48 6 -48 7 -89 84 -39 72 -42 85 -42 153 l0
75 -47 26 c-27 15 -67 38 -90 52 l-43 26 0 -40z m-20 -309 c0 -4 -30 -40 -66
-80 l-66 -72 -54 0 c-48 0 -61 5 -94 33 -22 17 -40 35 -40 40 0 4 11 25 25 47
l25 40 135 0 c74 0 135 -4 135 -8z m-375 -171 c84 -38 135 -129 114 -204 -13
-49 -64 -105 -114 -128 -53 -25 -72 -24 -134 7 -119 59 -143 192 -53 282 59
59 121 73 187 43z m723 3 c76 -31 122 -95 122 -169 0 -25 -6 -58 -14 -73 -36
-68 -123 -119 -184 -107 -82 15 -162 105 -162 181 1 70 66 153 137 174 42 12
60 12 101 -6z"/>
</g>
</svg>
