<?xml version="1.0" standalone="no"?>
<!DOCTYPE svg PUBLIC "-//W3C//DTD SVG 20010904//EN"
 "http://www.w3.org/TR/2001/REC-SVG-20010904/DTD/svg10.dtd">
<svg version="1.0" xmlns="http://www.w3.org/2000/svg"
 width="128.000000pt" height="128.000000pt" viewBox="0 0 128.000000 128.000000"
 preserveAspectRatio="xMidYMid meet">
<g transform="translate(0.000000,128.000000) scale(0.100000,-0.100000)"
fill="#000000" stroke="none">
<path d="M0 1140 c0 -130 1 -140 19 -140 31 0 71 -48 71 -87 0 -37 -44 -93
-74 -93 -14 0 -16 -19 -16 -135 l0 -135 90 0 90 0 0 45 0 45 -45 0 -45 0 0 59
c0 52 3 61 25 75 34 23 65 87 65 137 0 50 -21 97 -60 134 -26 25 -30 36 -30
82 l0 53 545 0 545 0 0 -60 c0 -48 -4 -61 -19 -69 -20 -11 -71 -104 -71 -130
0 -39 24 -96 56 -130 30 -34 34 -45 34 -94 l0 -56 -42 -3 c-43 -3 -43 -3 -46
-45 l-3 -43 95 0 96 0 0 134 0 134 -30 5 c-36 8 -62 45 -62 92 0 42 15 63 60
82 l33 14 -3 132 -3 132 -637 3 -638 2 0 -140z"/>
<path d="M565 983 c-48 -25 -72 -51 -95 -105 -44 -102 -25 -224 47 -296 53
-53 47 -77 -7 -28 -131 118 -310 15 -310 -180 0 -140 83 -244 195 -244 44 0
69 12 113 54 44 41 63 79 71 140 3 29 12 51 20 54 12 4 13 -9 8 -74 -6 -69
-26 -199 -42 -274 l-5 -25 80 0 c65 0 79 3 75 14 -9 22 -44 251 -47 305 -4 70
15 67 29 -4 13 -71 42 -120 91 -158 30 -23 45 -27 98 -27 54 0 67 4 101 31
110 88 123 284 23 384 -72 72 -174 74 -242 4 -18 -19 -36 -34 -40 -34 -18 0
-6 29 17 44 70 46 105 191 71 292 -20 58 -39 83 -91 118 -44 30 -113 34 -160
9z"/>
</g>
</svg>
