<?xml version="1.0" standalone="no"?>
<!DOCTYPE svg PUBLIC "-//W3C//DTD SVG 20010904//EN"
 "http://www.w3.org/TR/2001/REC-SVG-20010904/DTD/svg10.dtd">
<svg version="1.0" xmlns="http://www.w3.org/2000/svg"
 width="128.000000pt" height="128.000000pt" viewBox="0 0 128.000000 128.000000"
 preserveAspectRatio="xMidYMid meet">
<g transform="translate(0.000000,128.000000) scale(0.100000,-0.100000)"
fill="#000000" stroke="none">
<path d="M117 1268 c-159 -42 -153 -307 9 -347 28 -7 204 -11 506 -11 l462 0
-44 45 -44 45 -413 0 c-456 0 -469 1 -492 59 -16 36 -8 74 19 101 19 19 35 20
448 20 l428 0 49 50 49 50 -469 -1 c-279 -1 -485 -5 -508 -11z"/>
<path d="M187 1113 c-4 -3 -7 -15 -7 -25 0 -17 19 -18 410 -18 l410 0 0 25 0
25 -403 0 c-222 0 -407 -3 -410 -7z"/>
<path d="M270 798 c-84 -43 -111 -164 -59 -259 45 -81 28 -79 579 -79 l484 0
-44 45 -44 45 -427 0 c-412 0 -427 1 -452 20 -50 40 -39 128 19 150 15 6 201
10 443 10 l417 0 44 45 44 45 -480 0 c-478 0 -480 0 -524 -22z"/>
<path d="M364 645 c-3 -8 -3 -19 1 -25 4 -7 139 -10 411 -10 l404 0 0 25 0 25
-405 0 c-345 0 -406 -2 -411 -15z"/>
<path d="M80 338 c-60 -41 -75 -71 -75 -151 0 -89 27 -140 89 -168 38 -17 75
-19 521 -19 l479 0 -44 45 -44 45 -421 0 c-454 0 -458 1 -484 54 -17 35 -1
100 29 116 12 6 174 10 442 10 l424 0 44 45 44 45 -485 0 -486 0 -33 -22z"/>
<path d="M184 195 c-3 -8 -3 -19 1 -25 4 -7 139 -10 411 -10 l404 0 0 25 0 25
-405 0 c-345 0 -406 -2 -411 -15z"/>
</g>
</svg>
