<?xml version="1.0" standalone="no"?>
<!DOCTYPE svg PUBLIC "-//W3C//DTD SVG 20010904//EN"
 "http://www.w3.org/TR/2001/REC-SVG-20010904/DTD/svg10.dtd">
<svg version="1.0" xmlns="http://www.w3.org/2000/svg"
 width="128.000000pt" height="128.000000pt" viewBox="0 0 128.000000 128.000000"
 preserveAspectRatio="xMidYMid meet">
<g transform="translate(0.000000,128.000000) scale(0.100000,-0.100000)"
fill="#000000" stroke="none">
<path d="M170 1235 l0 -35 465 0 465 0 0 35 0 35 -465 0 -465 0 0 -35z"/>
<path d="M94 1105 l-79 -74 625 0 625 0 -79 74 -79 75 -467 0 -467 0 -79 -75z"/>
<path d="M10 947 c0 -58 36 -126 82 -156 l38 -24 0 -334 0 -333 -60 0 -60 0 0
-45 0 -45 630 0 630 0 0 45 0 45 -60 0 -60 0 0 338 0 337 31 14 c45 20 82 82
87 147 l4 54 -631 0 -631 0 0 -43z m379 -140 c18 -15 37 -27 42 -27 5 0 9
-139 9 -340 l0 -340 -115 0 -115 0 0 339 c0 327 1 340 19 346 27 8 79 69 87
101 6 25 7 25 24 -13 9 -21 32 -51 49 -66z m269 61 c29 -65 63 -91 124 -96 68
-5 113 23 147 92 l25 49 11 -32 c13 -38 69 -101 90 -101 13 0 15 -47 15 -340
l0 -340 -140 0 -140 0 0 60 0 60 43 1 c56 0 111 20 115 41 2 9 -29 73 -68 142
l-71 126 16 52 c21 71 19 87 -10 98 -14 5 -25 16 -25 25 0 8 -9 15 -20 15 -13
0 -20 -7 -20 -19 0 -11 -9 -21 -21 -24 -23 -6 -23 -20 -3 -124 5 -26 -5 -51
-65 -157 -39 -69 -71 -128 -71 -130 0 -16 58 -39 108 -45 l57 -6 3 -58 3 -57
-141 0 -140 0 0 334 0 334 35 6 c43 8 104 66 112 107 3 16 7 29 9 29 2 0 12
-19 22 -42z"/>
</g>
</svg>
