<?xml version="1.0" standalone="no"?>
<!DOCTYPE svg PUBLIC "-//W3C//DTD SVG 20010904//EN"
 "http://www.w3.org/TR/2001/REC-SVG-20010904/DTD/svg10.dtd">
<svg version="1.0" xmlns="http://www.w3.org/2000/svg"
 width="128.000000pt" height="128.000000pt" viewBox="0 0 128.000000 128.000000"
 preserveAspectRatio="xMidYMid meet">
<g transform="translate(0.000000,128.000000) scale(0.100000,-0.100000)"
fill="#000000" stroke="none">
<path d="M442 1249 c-151 -27 -193 -229 -67 -325 49 -37 141 -45 196 -17 25
14 44 17 65 11 16 -4 43 -4 59 0 23 7 37 3 65 -15 28 -19 46 -24 90 -22 39 2
64 -3 82 -15 67 -44 177 -21 218 46 27 45 27 131 0 176 -20 33 -86 71 -123 72
-10 0 -30 14 -45 31 -50 60 -147 77 -210 39 -29 -18 -38 -19 -72 -9 -28 9 -46
9 -70 1 -25 -9 -36 -8 -56 4 -34 23 -83 31 -132 23z m103 -119 c33 -35 51 -37
85 -10 33 26 43 25 79 -6 34 -28 48 -25 90 20 46 49 95 33 145 -47 15 -24 21
-27 52 -21 24 4 42 1 60 -10 21 -15 25 -23 22 -59 -2 -35 -8 -44 -32 -56 -35
-16 -71 -3 -88 34 -13 28 -35 32 -64 10 -10 -8 -33 -15 -51 -15 -25 0 -38 8
-60 35 -32 40 -41 42 -85 15 -32 -19 -32 -19 -69 2 l-38 21 -36 -31 c-48 -43
-95 -43 -136 -3 -59 60 -24 151 59 151 29 0 45 -7 67 -30z"/>
<path d="M903 776 c-24 -21 -29 -34 -33 -88 l-5 -63 -248 -5 -249 -5 -24 -28
c-15 -18 -24 -41 -24 -62 l0 -34 -81 -3 c-114 -4 -117 -8 -132 -211 -11 -154
-12 -157 -34 -157 -22 0 -63 -31 -63 -48 0 -5 6 -17 14 -28 14 -18 34 -19 588
-22 315 -2 588 0 605 3 60 11 65 77 8 91 -14 3 -25 11 -25 18 -1 65 -61 609
-69 625 -18 32 -44 41 -125 41 -65 0 -79 -3 -103 -24z m174 -306 c11 -124 24
-253 27 -288 l7 -62 -462 0 -462 0 7 113 c11 179 2 164 107 169 105 4 119 14
119 85 l0 43 239 0 c235 0 240 0 266 23 22 18 27 34 32 85 l6 63 46 -3 46 -3
22 -225z"/>
</g>
</svg>
