<?xml version="1.0" standalone="no"?>
<!DOCTYPE svg PUBLIC "-//W3C//DTD SVG 20010904//EN"
 "http://www.w3.org/TR/2001/REC-SVG-20010904/DTD/svg10.dtd">
<svg version="1.0" xmlns="http://www.w3.org/2000/svg"
 width="128.000000pt" height="128.000000pt" viewBox="0 0 128.000000 128.000000"
 preserveAspectRatio="xMidYMid meet">
<g transform="translate(0.000000,128.000000) scale(0.100000,-0.100000)"
fill="#000000" stroke="none">
<path d="M594 1233 c-14 -16 -112 -80 -217 -144 -107 -64 -192 -122 -192 -130
0 -11 -19 -15 -80 -19 -62 -4 -80 -8 -80 -20 0 -13 75 -15 615 -15 540 0 615
2 615 15 0 12 -18 16 -80 20 -61 4 -80 8 -80 19 0 8 -85 66 -192 130 -105 64
-203 128 -217 144 -14 15 -34 27 -46 27 -12 0 -32 -12 -46 -27z m62 -24 c10
-17 -13 -36 -27 -22 -12 12 -4 33 11 33 5 0 12 -5 16 -11z m13 -58 c28 17 29
16 182 -75 85 -51 170 -102 189 -114 l35 -22 -435 0 -435 0 189 114 c189 113
189 113 218 97 26 -15 30 -15 57 0z"/>
<path d="M66 851 c-6 -8 70 -754 79 -778 6 -19 984 -19 990 0 9 24 85 770 79
778 -7 12 -1141 12 -1148 0z m1111 -63 c-3 -18 -20 -170 -37 -338 -17 -168
-33 -315 -36 -327 l-4 -23 -460 0 -460 0 -4 23 c-3 12 -19 157 -36 322 -16
165 -33 317 -36 338 l-6 37 542 0 542 0 -5 -32z"/>
<path d="M305 768 c-2 -7 -9 -67 -15 -133 l-11 -120 31 -25 30 -25 -8 -135
c-5 -74 -6 -145 -1 -157 9 -25 40 -37 70 -28 32 11 37 41 27 185 l-9 135 31
25 31 25 -12 125 c-11 125 -19 154 -39 134 -7 -7 -7 -46 0 -125 l11 -114 -28
-22 c-34 -28 -32 -28 -66 0 l-28 22 11 113 c6 62 8 117 5 123 -9 13 -25 11
-30 -3z m88 -460 c6 -109 -1 -144 -22 -123 -11 11 -2 235 9 235 4 0 10 -51 13
-112z"/>
<path d="M365 768 c-3 -8 -4 -66 -3 -129 2 -93 6 -114 18 -114 13 0 15 20 15
124 0 91 -3 125 -12 128 -7 3 -15 -2 -18 -9z"/>
<path d="M598 760 c-17 -13 -32 -43 -47 -97 -25 -88 -21 -116 26 -165 l25 -26
-10 -143 c-7 -89 -7 -149 -1 -160 19 -35 79 -35 98 0 6 11 6 71 -1 160 l-10
143 25 26 c47 49 51 77 26 165 -22 79 -51 117 -89 117 -10 0 -28 -9 -42 -20z"/>
<path d="M837 762 c-15 -16 -17 -52 -17 -300 0 -269 1 -283 20 -302 31 -31 75
-24 89 14 5 11 4 76 -1 144 l-9 122 41 39 c50 47 51 65 4 178 -47 117 -87 149
-127 105z"/>
</g>
</svg>
