<?xml version="1.0" standalone="no"?>
<!DOCTYPE svg PUBLIC "-//W3C//DTD SVG 20010904//EN"
 "http://www.w3.org/TR/2001/REC-SVG-20010904/DTD/svg10.dtd">
<svg version="1.0" xmlns="http://www.w3.org/2000/svg"
 width="128.000000pt" height="128.000000pt" viewBox="0 0 128.000000 128.000000"
 preserveAspectRatio="xMidYMid meet">
<g transform="translate(0.000000,128.000000) scale(0.100000,-0.100000)"
fill="#000000" stroke="none">
<path d="M482 1061 c-53 -14 -106 -56 -132 -104 -20 -37 -31 -47 -59 -52 -78
-15 -138 -61 -166 -127 -22 -54 -22 -382 0 -436 20 -47 50 -78 100 -105 39
-21 50 -22 415 -22 365 0 376 1 415 22 50 27 80 58 100 105 22 54 22 382 0
436 -28 66 -88 112 -165 127 -29 5 -40 15 -62 55 -19 34 -42 58 -75 77 -46 27
-54 28 -193 30 -80 1 -160 -2 -178 -6z m318 -118 c33 -23 38 -29 56 -90 l15
-53 55 0 c122 0 144 -37 144 -240 0 -159 -10 -199 -59 -224 -45 -24 -697 -24
-742 0 -49 25 -59 65 -59 224 0 203 22 240 144 240 l55 0 15 53 c30 100 44
107 216 107 111 0 140 -3 160 -17z"/>
<path d="M566 785 c-109 -39 -166 -173 -121 -283 71 -168 319 -168 390 0 71
171 -94 346 -269 283z m137 -115 c38 -30 52 -80 33 -123 -15 -37 -59 -67 -96
-67 -62 0 -116 67 -104 130 14 69 110 104 167 60z"/>
<path d="M932 734 c-39 -27 -19 -94 28 -94 47 0 67 67 28 94 -12 9 -25 16 -28
16 -3 0 -16 -7 -28 -16z"/>
</g>
</svg>
