<?xml version="1.0" standalone="no"?>
<!DOCTYPE svg PUBLIC "-//W3C//DTD SVG 20010904//EN"
 "http://www.w3.org/TR/2001/REC-SVG-20010904/DTD/svg10.dtd">
<svg version="1.0" xmlns="http://www.w3.org/2000/svg"
 width="128.000000pt" height="128.000000pt" viewBox="0 0 128.000000 128.000000"
 preserveAspectRatio="xMidYMid meet">
<g transform="translate(0.000000,128.000000) scale(0.100000,-0.100000)"
fill="#000000" stroke="none">
<path d="M426 951 c-23 -25 -45 -89 -39 -112 3 -10 11 -23 18 -29 9 -8 15 -2
25 22 28 76 28 76 35 21 5 -38 11 -50 21 -46 27 10 27 50 0 90 -14 20 -26 46
-26 55 0 23 -13 23 -34 -1z"/>
<path d="M866 953 c-4 -11 -20 -35 -37 -52 -30 -32 -36 -70 -13 -78 6 -2 26 9
44 24 l33 27 -5 -32 c-5 -36 6 -42 22 -13 16 31 12 63 -14 105 -21 35 -24 37
-30 19z"/>
<path d="M200 884 c-31 -49 -38 -91 -20 -125 15 -26 28 -24 36 6 8 31 11 31
36 0 16 -20 23 -23 34 -14 21 18 17 40 -21 113 l-35 67 -30 -47z"/>
<path d="M624 870 c-36 -54 -43 -117 -15 -150 l20 -25 1 35 c1 19 5 44 9 55 7
17 9 14 15 -15 11 -57 21 -68 45 -46 12 11 21 29 21 40 0 22 -55 146 -64 146
-3 0 -18 -18 -32 -40z"/>
<path d="M1047 868 c-38 -49 -50 -89 -38 -121 15 -38 28 -33 36 13 8 45 19 45
28 0 8 -35 34 -40 42 -7 3 12 -5 51 -18 86 l-24 64 -26 -35z"/>
<path d="M402 772 c-9 -7 -12 -73 -10 -298 l3 -289 58 -3 57 -3 0 294 c0 325
4 307 -63 307 -18 0 -38 -4 -45 -8z"/>
<path d="M803 755 c-25 -18 -40 -72 -24 -88 7 -7 11 -89 11 -249 l0 -238 65 0
65 0 0 289 0 289 -31 6 c-47 9 -62 8 -86 -9z"/>
<path d="M225 705 c-5 -2 -22 -6 -37 -9 -20 -5 -28 -13 -28 -29 -1 -12 -7 -33
-15 -47 -19 -33 -19 -79 0 -86 13 -5 15 -35 15 -180 l0 -174 75 0 75 0 0 34
c0 23 7 38 22 48 l22 15 -22 37 c-20 34 -22 50 -22 206 0 93 -3 171 -7 173
-13 7 -67 16 -78 12z"/>
<path d="M1023 678 c-23 -11 -23 -12 -23 -255 l0 -243 60 0 c52 0 60 3 60 18
0 11 7 34 16 52 15 30 15 37 0 91 -11 41 -16 99 -16 193 0 124 -2 136 -19 146
-24 12 -49 12 -78 -2z"/>
<path d="M623 670 c-22 -9 -23 -13 -23 -163 0 -88 -5 -168 -11 -186 -9 -24 -9
-35 0 -44 6 -6 11 -31 11 -55 l0 -43 53 3 52 3 3 238 2 237 -25 10 c-31 12
-33 12 -62 0z"/>
<path d="M50 134 c0 -4 9 -22 21 -40 l21 -34 548 0 548 0 21 34 c12 18 21 36
21 40 0 3 -265 6 -590 6 -324 0 -590 -3 -590 -6z"/>
</g>
</svg>
