<?xml version="1.0" standalone="no"?>
<!DOCTYPE svg PUBLIC "-//W3C//DTD SVG 20010904//EN"
 "http://www.w3.org/TR/2001/REC-SVG-20010904/DTD/svg10.dtd">
<svg version="1.0" xmlns="http://www.w3.org/2000/svg"
 width="128.000000pt" height="128.000000pt" viewBox="0 0 128.000000 128.000000"
 preserveAspectRatio="xMidYMid meet">
<g transform="translate(0.000000,128.000000) scale(0.100000,-0.100000)"
fill="#000000" stroke="none">
<path d="M608 1153 c-63 -75 -128 -267 -128 -380 0 -29 -2 -53 -5 -53 -3 0
-26 16 -52 37 -77 58 -189 107 -248 108 -45 0 -50 -2 -53 -24 -10 -69 95 -288
172 -360 33 -31 33 -37 -1 -46 -66 -16 -183 -113 -183 -150 0 -46 167 -125
264 -125 51 0 139 25 182 51 17 10 34 19 38 19 3 0 6 -20 6 -44 0 -59 8 -76
34 -76 34 0 46 20 46 78 l0 53 31 -22 c41 -29 140 -59 194 -59 98 0 265 79
265 125 0 37 -117 134 -182 150 -35 9 -35 15 -2 46 77 72 182 291 172 360 -3
22 -8 24 -53 24 -59 -1 -171 -50 -248 -108 -26 -21 -49 -37 -52 -37 -3 0 -5
24 -5 53 -1 145 -102 397 -160 397 -9 0 -24 -8 -32 -17z"/>
</g>
</svg>
