<?xml version="1.0" standalone="no"?>
<!DOCTYPE svg PUBLIC "-//W3C//DTD SVG 20010904//EN"
 "http://www.w3.org/TR/2001/REC-SVG-20010904/DTD/svg10.dtd">
<svg version="1.0" xmlns="http://www.w3.org/2000/svg"
 width="128.000000pt" height="128.000000pt" viewBox="0 0 128.000000 128.000000"
 preserveAspectRatio="xMidYMid meet">
<g transform="translate(0.000000,128.000000) scale(0.100000,-0.100000)"
fill="#000000" stroke="none">
<path d="M208 1270 c-57 -17 -108 -58 -108 -86 0 -2 47 -4 105 -4 l105 0 27
-41 27 -41 -20 -36 c-32 -60 -37 -62 -145 -62 -56 0 -99 -4 -99 -9 0 -18 65
-60 110 -72 60 -15 119 1 169 47 l38 34 208 0 208 0 38 -34 c112 -102 290 -45
306 97 8 72 -4 114 -46 156 -76 76 -183 76 -266 0 l-42 -39 -202 0 -201 0 -27
31 c-16 17 -39 37 -53 44 -35 18 -100 25 -132 15z m876 -130 c14 -22 26 -42
26 -45 0 -4 -14 -26 -30 -51 -30 -43 -32 -44 -85 -44 -53 0 -53 0 -80 47 l-28
46 24 44 24 43 61 0 c60 0 62 -1 88 -40z"/>
<path d="M320 595 c-37 -112 -48 -137 -66 -141 -12 -3 -33 -17 -46 -31 -22
-24 -23 -31 -23 -176 l0 -152 42 -3 c35 -3 43 -7 53 -33 16 -37 46 -59 83 -59
41 0 67 17 83 56 l14 34 180 0 c157 0 180 -2 180 -16 0 -8 13 -29 29 -45 39
-39 92 -40 126 -3 14 15 25 35 25 45 0 16 8 19 45 19 l45 0 0 154 c0 139 -2
156 -20 179 -11 14 -30 27 -43 29 -19 3 -29 23 -68 138 l-46 135 -274 3 -275
2 -44 -135z m525 -38 c14 -46 25 -86 25 -90 0 -4 -106 -7 -235 -7 -129 0 -235
1 -235 3 0 3 44 136 55 165 3 9 49 12 184 12 l180 0 26 -83z m-437 -233 c27
-18 30 -69 5 -96 -36 -40 -113 -12 -113 41 0 61 57 91 108 55z m552 -6 c40
-43 11 -108 -48 -108 -60 0 -88 56 -52 103 27 34 71 36 100 5z"/>
</g>
</svg>
