<?xml version="1.0" standalone="no"?>
<!DOCTYPE svg PUBLIC "-//W3C//DTD SVG 20010904//EN"
 "http://www.w3.org/TR/2001/REC-SVG-20010904/DTD/svg10.dtd">
<svg version="1.0" xmlns="http://www.w3.org/2000/svg"
 width="128.000000pt" height="128.000000pt" viewBox="0 0 128.000000 128.000000"
 preserveAspectRatio="xMidYMid meet">
<g transform="translate(0.000000,128.000000) scale(0.100000,-0.100000)"
fill="#000000" stroke="none">
<path d="M180 1090 l0 -90 -90 0 -90 0 0 -455 0 -455 640 0 640 0 0 455 0 454
-92 3 -93 3 -3 88 -3 87 -134 0 -135 0 0 -90 0 -90 -180 0 -180 0 0 90 0 90
-140 0 -140 0 0 -90z m280 -360 l0 -89 88 -3 87 -3 0 -70 0 -70 -87 -3 -87 -3
-3 -87 -3 -87 -71 -3 -72 -3 2 93 1 93 -92 3 -93 3 0 69 0 70 90 0 90 0 0 74
c0 106 0 106 81 106 l69 0 0 -90z m720 -165 l0 -75 -180 0 -180 0 0 75 0 75
180 0 180 0 0 -75z"/>
</g>
</svg>
