<?xml version="1.0" standalone="no"?>
<!DOCTYPE svg PUBLIC "-//W3C//DTD SVG 20010904//EN"
 "http://www.w3.org/TR/2001/REC-SVG-20010904/DTD/svg10.dtd">
<svg version="1.0" xmlns="http://www.w3.org/2000/svg"
 width="128.000000pt" height="128.000000pt" viewBox="0 0 128.000000 128.000000"
 preserveAspectRatio="xMidYMid meet">
<g transform="translate(0.000000,128.000000) scale(0.100000,-0.100000)"
fill="#000000" stroke="none">
<path d="M75 1151 c-11 -5 -31 -21 -45 -36 l-25 -27 0 -389 0 -389 32 -31 c24
-25 42 -33 80 -36 44 -5 51 -9 68 -41 56 -102 215 -101 270 1 l20 37 165 0
165 0 20 -37 c55 -102 214 -103 270 -1 17 32 24 36 68 41 38 3 56 11 80 36
l32 31 3 149 3 149 -67 117 c-59 101 -66 119 -53 129 78 57 24 215 -96 279
-39 21 -51 22 -364 22 -297 0 -325 -1 -335 -17 -8 -13 -8 -23 0 -35 10 -16 41
-18 332 -23 304 -5 322 -6 348 -26 38 -28 63 -63 70 -101 l6 -32 -206 -3 -206
-3 -32 -33 -33 -32 -3 -265 -3 -265 -82 0 -82 0 -20 37 c-26 49 -76 77 -135
77 -59 0 -109 -28 -135 -77 -16 -30 -26 -37 -51 -37 -16 0 -35 5 -42 12 -18
18 -17 721 1 736 7 6 48 12 91 14 62 2 81 7 90 21 8 12 8 22 0 35 -9 14 -27
17 -95 19 -46 1 -93 -2 -104 -6z m725 -439 c0 -86 4 -132 12 -140 8 -8 67 -12
200 -12 l188 0 0 -108 c0 -119 -6 -132 -54 -132 -25 0 -35 7 -51 37 -56 103
-214 103 -270 0 -18 -34 -24 -37 -62 -37 l-43 0 0 248 c0 267 1 272 52 272
l28 0 0 -128z m282 86 c14 -24 39 -69 57 -100 l32 -58 -145 0 -146 0 0 100 0
100 89 0 89 0 24 -42z m-707 -463 c16 -15 25 -36 25 -55 0 -19 -9 -40 -25 -55
-49 -50 -135 -15 -135 55 0 19 9 40 25 55 15 16 36 25 55 25 19 0 40 -9 55
-25z m640 0 c50 -49 15 -135 -55 -135 -41 0 -80 39 -80 80 0 41 39 80 80 80
19 0 40 -9 55 -25z"/>
</g>
</svg>
