<?xml version="1.0" standalone="no"?>
<!DOCTYPE svg PUBLIC "-//W3C//DTD SVG 20010904//EN"
 "http://www.w3.org/TR/2001/REC-SVG-20010904/DTD/svg10.dtd">
<svg version="1.0" xmlns="http://www.w3.org/2000/svg"
 width="128.000000pt" height="128.000000pt" viewBox="0 0 128.000000 128.000000"
 preserveAspectRatio="xMidYMid meet">
<g transform="translate(0.000000,128.000000) scale(0.100000,-0.100000)"
fill="#000000" stroke="none">
<path d="M1036 1265 c-50 -18 -92 -59 -111 -109 -14 -36 -15 -108 -13 -537 l3
-495 27 -41 c47 -71 144 -101 221 -69 43 17 93 76 106 123 15 53 15 955 0
1008 -20 69 -108 136 -179 135 -8 -1 -32 -7 -54 -15z m119 -1020 c48 -47 25
-135 -40 -151 -60 -15 -120 45 -108 109 12 63 102 89 148 42z"/>
<path d="M0 1045 l0 -45 46 0 45 0 -3 -52 -3 -53 -42 -3 -43 -3 0 -45 0 -44
45 0 45 0 0 -55 0 -55 -45 0 -45 0 0 -45 0 -45 45 0 45 0 0 -55 0 -55 -45 0
-45 0 0 -45 0 -45 45 0 45 0 0 -55 0 -55 -45 0 -45 0 0 -45 0 -45 45 0 45 0 0
-55 0 -55 -45 0 -45 0 0 -45 0 -45 410 0 410 0 0 545 0 545 -410 0 -410 0 0
-45z m455 -88 l91 45 92 -46 92 -46 0 -45 0 -45 -92 46 -92 46 -92 -47 -92
-48 -91 49 c-88 48 -91 50 -91 85 0 20 3 38 6 42 4 3 45 -13 93 -37 l86 -44
90 45z m183 -242 l92 -45 0 -45 c0 -25 -3 -45 -7 -45 -3 0 -44 20 -90 45 l-83
45 -93 -46 -93 -46 -92 46 -92 46 0 40 c0 22 4 40 10 40 5 0 47 -19 93 -41
l83 -41 89 45 c50 25 90 46 90 46 1 1 42 -19 93 -44z m-361 -245 l88 -41 93
42 93 42 90 -43 89 -44 0 -43 c0 -24 -2 -43 -5 -43 -3 0 -43 19 -90 42 l-85
42 -85 -42 c-47 -23 -93 -42 -103 -42 -9 1 -53 20 -97 43 -79 42 -80 42 -83
85 -2 23 -1 42 2 42 3 0 45 -18 93 -40z m3 -244 l85 -44 90 45 90 45 90 -43
90 -44 3 -42 c2 -25 -1 -43 -7 -43 -6 0 -48 19 -94 41 l-83 41 -89 -45 -90
-45 -80 40 c-43 21 -85 44 -92 50 -14 11 -18 88 -5 87 4 0 45 -19 92 -43z"/>
</g>
</svg>
