<?xml version="1.0" standalone="no"?>
<!DOCTYPE svg PUBLIC "-//W3C//DTD SVG 20010904//EN"
 "http://www.w3.org/TR/2001/REC-SVG-20010904/DTD/svg10.dtd">
<svg version="1.0" xmlns="http://www.w3.org/2000/svg"
 width="128.000000pt" height="128.000000pt" viewBox="0 0 128.000000 128.000000"
 preserveAspectRatio="xMidYMid meet">
<g transform="translate(0.000000,128.000000) scale(0.100000,-0.100000)"
fill="#000000" stroke="none">
<path d="M384 1266 c-17 -13 -19 -30 -22 -185 l-3 -171 -135 0 -134 0 0 -436
c0 -281 4 -442 10 -455 10 -18 27 -19 530 -19 285 0 525 3 534 6 14 5 16 55
16 455 l0 449 -129 0 -128 0 -7 53 c-3 28 -6 107 -6 175 0 122 0 123 -26 132
-14 6 -128 10 -253 10 -180 0 -231 -3 -247 -14z m436 -221 l0 -135 -180 0
-180 0 0 135 0 135 180 0 180 0 0 -135z m-260 -294 c14 -10 37 -41 52 -70 l27
-52 15 29 c20 40 90 100 123 108 16 3 34 8 42 10 28 9 90 -17 119 -50 41 -47
55 -95 50 -176 -5 -97 -37 -144 -173 -253 -61 -48 -126 -104 -147 -124 -35
-34 -36 -35 -47 -14 -6 11 -65 63 -131 116 -132 104 -173 152 -195 228 -20 66
-19 103 4 152 49 107 181 155 261 96z"/>
</g>
</svg>
