<?xml version="1.0" standalone="no"?>
<!DOCTYPE svg PUBLIC "-//W3C//DTD SVG 20010904//EN"
 "http://www.w3.org/TR/2001/REC-SVG-20010904/DTD/svg10.dtd">
<svg version="1.0" xmlns="http://www.w3.org/2000/svg"
 width="128.000000pt" height="128.000000pt" viewBox="0 0 128.000000 128.000000"
 preserveAspectRatio="xMidYMid meet">
<g transform="translate(0.000000,128.000000) scale(0.100000,-0.100000)"
fill="#000000" stroke="none">
<path d="M472 1033 l-382 -166 2 -391 3 -391 545 0 545 0 3 415 c2 283 -1 428
-8 455 -29 104 -137 205 -247 231 -32 8 -62 14 -68 14 -5 0 -182 -75 -393
-167z m504 93 c89 -42 156 -125 170 -215 l7 -41 -468 0 c-258 0 -466 2 -464 4
2 2 143 65 314 140 341 149 355 152 441 112z m174 -651 l0 -355 -510 0 -510 0
0 355 0 355 510 0 510 0 0 -355z"/>
<path d="M320 740 c-11 -11 -20 -33 -20 -50 0 -67 88 -96 129 -44 26 34 26 54
0 88 -26 33 -79 36 -109 6z m75 -50 c0 -33 -40 -41 -50 -11 -9 28 2 43 28 39
16 -2 22 -10 22 -28z"/>
<path d="M764 726 c-29 -29 -34 -41 -34 -81 0 -79 50 -135 122 -135 95 1 159
109 112 190 -24 39 -65 60 -119 60 -40 0 -52 -5 -81 -34z m137 -19 c21 -16 39
-51 39 -77 0 -30 -53 -80 -83 -80 -41 0 -87 46 -87 86 0 65 81 109 131 71z"/>
<path d="M444 406 c-29 -29 -34 -41 -34 -81 0 -79 50 -135 122 -135 95 1 159
109 112 190 -24 39 -65 60 -119 60 -40 0 -52 -5 -81 -34z m137 -19 c21 -16 39
-51 39 -77 0 -30 -53 -80 -83 -80 -41 0 -87 46 -87 86 0 65 81 109 131 71z"/>
<path d="M856 424 c-46 -46 -19 -116 47 -122 67 -6 104 71 57 118 -24 24 -82
27 -104 4z m78 -39 c8 -23 -4 -45 -25 -45 -22 0 -34 22 -25 45 3 8 14 15 25
15 10 0 21 -7 25 -15z"/>
</g>
</svg>
