<?xml version="1.0" standalone="no"?>
<!DOCTYPE svg PUBLIC "-//W3C//DTD SVG 20010904//EN"
 "http://www.w3.org/TR/2001/REC-SVG-20010904/DTD/svg10.dtd">
<svg version="1.0" xmlns="http://www.w3.org/2000/svg"
 width="128.000000pt" height="128.000000pt" viewBox="0 0 128.000000 128.000000"
 preserveAspectRatio="xMidYMid meet">
<g transform="translate(0.000000,128.000000) scale(0.100000,-0.100000)"
fill="#000000" stroke="none">
<path d="M395 1270 c-8 -13 -56 -262 -51 -267 2 -2 28 -9 58 -15 43 -9 68 -9
112 1 31 7 56 16 56 20 0 9 -38 219 -45 249 -5 20 -11 22 -65 22 -32 0 -62 -5
-65 -10z"/>
<path d="M864 1265 c-14 -37 2 -45 91 -45 l85 0 0 30 0 30 -85 0 c-67 0 -87
-3 -91 -15z"/>
<path d="M1098 1274 c-10 -9 -9 -1210 1 -1244 6 -22 13 -25 57 -28 33 -2 55 2
62 10 7 10 11 197 13 622 2 540 0 609 -14 623 -17 17 -107 30 -119 17z"/>
<path d="M862 1158 c3 -22 8 -23 91 -26 l87 -3 0 26 c0 25 0 25 -91 25 -88 0
-90 -1 -87 -22z"/>
<path d="M860 1065 c0 -25 1 -25 90 -25 89 0 90 0 90 25 0 25 -1 25 -90 25
-89 0 -90 0 -90 -25z"/>
<path d="M860 975 c0 -25 1 -25 90 -25 89 0 90 0 90 25 0 25 -1 25 -90 25 -89
0 -90 0 -90 -25z"/>
<path d="M270 890 c0 -10 -9 -162 -20 -336 -12 -175 -19 -323 -16 -329 7 -19
139 -47 219 -47 69 0 197 23 226 41 12 8 11 58 -13 347 -15 186 -29 340 -31
342 -2 2 -44 -1 -93 -8 -66 -8 -110 -9 -167 -1 -101 14 -105 14 -105 -9z"/>
<path d="M862 885 c2 -14 6 -25 11 -25 4 0 43 0 87 0 79 0 80 0 80 25 0 25 -1
25 -91 25 l-90 0 3 -25z"/>
<path d="M206 82 c-2 -4 -7 -24 -11 -45 l-7 -37 272 0 c254 0 271 1 266 18 -3
9 -8 29 -12 45 l-6 27 -248 0 c-137 0 -251 -3 -254 -8z"/>
</g>
</svg>
