<?xml version="1.0" standalone="no"?>
<!DOCTYPE svg PUBLIC "-//W3C//DTD SVG 20010904//EN"
 "http://www.w3.org/TR/2001/REC-SVG-20010904/DTD/svg10.dtd">
<svg version="1.0" xmlns="http://www.w3.org/2000/svg"
 width="128.000000pt" height="128.000000pt" viewBox="0 0 128.000000 128.000000"
 preserveAspectRatio="xMidYMid meet">
<g transform="translate(0.000000,128.000000) scale(0.100000,-0.100000)"
fill="#000000" stroke="none">
<path d="M242 1148 c-17 -17 -17 -999 0 -1016 19 -19 781 -17 797 2 8 9 10
129 9 422 l-3 408 -90 12 c-105 14 -129 33 -141 111 -3 27 -11 54 -16 61 -14
17 -538 18 -556 0z m358 -188 l0 -120 -145 0 -145 0 0 120 0 120 145 0 145 0
0 -120z m149 77 c20 -83 90 -136 179 -137 40 0 42 -1 42 -30 l0 -30 -145 0
-145 0 0 120 0 120 29 0 c25 0 30 -5 40 -43z m-149 -397 l0 -120 -145 0 -145
0 0 120 0 120 145 0 145 0 0 -120z m370 0 l0 -120 -145 0 -145 0 0 120 0 120
145 0 145 0 0 -120z m-370 -320 l0 -120 -145 0 -145 0 0 120 0 120 145 0 145
0 0 -120z m370 0 l0 -120 -145 0 -145 0 0 120 0 120 145 0 145 0 0 -120z"/>
</g>
</svg>
