<?xml version="1.0" standalone="no"?>
<!DOCTYPE svg PUBLIC "-//W3C//DTD SVG 20010904//EN"
 "http://www.w3.org/TR/2001/REC-SVG-20010904/DTD/svg10.dtd">
<svg version="1.0" xmlns="http://www.w3.org/2000/svg"
 width="128.000000pt" height="128.000000pt" viewBox="0 0 128.000000 128.000000"
 preserveAspectRatio="xMidYMid meet">
<g transform="translate(0.000000,128.000000) scale(0.100000,-0.100000)"
fill="#000000" stroke="none">
<path d="M903 1265 c-78 -22 -244 -100 -365 -172 -163 -98 -339 -264 -452
-426 -59 -83 -75 -130 -83 -238 -5 -78 -3 -91 19 -140 14 -30 51 -82 84 -116
77 -80 132 -98 274 -90 192 11 352 82 538 240 218 185 391 544 352 734 -20 93
-78 153 -134 139 -16 -4 -78 -55 -144 -119 -65 -62 -132 -119 -149 -126 -26
-11 -49 -40 -110 -139 -97 -156 -186 -248 -349 -360 -82 -57 -132 -98 -154
-130 -31 -44 -33 -45 -47 -26 -19 25 -9 105 20 159 17 30 42 52 106 90 89 52
90 54 226 252 86 126 181 222 293 296 96 64 231 127 271 127 61 0 -23 46 -99
54 -25 3 -68 -1 -97 -9z"/>
</g>
</svg>
