<?xml version="1.0" standalone="no"?>
<!DOCTYPE svg PUBLIC "-//W3C//DTD SVG 20010904//EN"
 "http://www.w3.org/TR/2001/REC-SVG-20010904/DTD/svg10.dtd">
<svg version="1.0" xmlns="http://www.w3.org/2000/svg"
 width="128.000000pt" height="128.000000pt" viewBox="0 0 128.000000 128.000000"
 preserveAspectRatio="xMidYMid meet">
<g transform="translate(0.000000,128.000000) scale(0.100000,-0.100000)"
fill="#000000" stroke="none">
<path d="M245 1191 c-70 -17 -105 -54 -105 -112 0 -30 18 -60 104 -180 l104
-144 -101 -3 c-76 -2 -106 -7 -119 -19 -17 -15 -18 -41 -18 -313 0 -240 3
-300 14 -316 14 -18 32 -19 492 -22 417 -2 480 -1 500 13 l24 15 0 308 0 307
34 55 c19 31 40 77 47 104 29 115 -17 249 -101 293 -43 23 -45 23 -444 22
-221 -1 -414 -4 -431 -8z m752 -290 c57 -74 103 -138 103 -143 0 -5 -163 -7
-362 -6 l-362 3 -98 135 c-54 74 -98 138 -98 143 0 4 161 6 357 5 l356 -3 104
-134z m-127 -481 l0 -310 -358 0 c-265 0 -361 3 -370 12 -9 9 -12 89 -12 300
0 263 1 288 18 297 10 7 149 11 370 11 l352 0 0 -310z m248 3 l-3 -308 -112
-3 -113 -3 0 304 c0 167 3 307 7 310 3 4 55 7 115 7 l108 0 -2 -307z"/>
<path d="M447 552 l-47 -48 45 -44 45 -44 0 -113 c0 -103 10 -143 23 -93 4 16
14 20 51 20 25 0 46 5 46 10 0 6 -22 10 -50 10 -49 0 -50 1 -50 30 0 29 2 30
44 30 61 0 68 18 9 22 -46 3 -48 4 -51 36 -3 28 4 41 42 82 25 27 46 53 46 57
0 12 -83 93 -95 93 -6 0 -32 -22 -58 -48z m91 -15 l32 -33 -35 -34 -35 -34
-35 34 -35 34 32 33 c18 18 35 33 38 33 3 0 20 -15 38 -33z"/>
</g>
</svg>
