<?xml version="1.0" standalone="no"?>
<!DOCTYPE svg PUBLIC "-//W3C//DTD SVG 20010904//EN"
 "http://www.w3.org/TR/2001/REC-SVG-20010904/DTD/svg10.dtd">
<svg version="1.0" xmlns="http://www.w3.org/2000/svg"
 width="128.000000pt" height="128.000000pt" viewBox="0 0 128.000000 128.000000"
 preserveAspectRatio="xMidYMid meet">
<g transform="translate(0.000000,128.000000) scale(0.100000,-0.100000)"
fill="#000000" stroke="none">
<path d="M587 1270 c-76 -23 -127 -93 -127 -174 0 -89 49 -154 132 -177 142
-38 271 108 214 244 -17 43 -76 93 -123 106 -44 12 -57 13 -96 1z"/>
<path d="M268 895 c-81 -30 -177 -115 -212 -190 -28 -57 -23 -65 39 -65 30 0
55 4 55 9 0 22 58 76 105 97 82 39 128 33 218 -26 158 -102 172 -103 308 -10
50 34 106 64 124 67 57 9 133 -24 193 -84 49 -48 57 -53 98 -53 42 0 45 1 38
23 -40 129 -188 247 -309 247 -48 0 -59 -5 -126 -55 -133 -98 -168 -104 -257
-44 -26 18 -69 48 -96 66 -54 37 -111 43 -178 18z"/>
<path d="M375 506 c-39 -25 -82 -46 -96 -46 -14 0 -55 18 -92 40 -66 40 -87
48 -87 32 0 -5 40 -107 88 -228 87 -217 88 -219 135 -251 67 -45 146 -56 357
-51 290 8 292 10 412 311 49 122 87 225 86 229 -2 5 -32 -12 -68 -37 -85 -60
-112 -59 -205 1 -81 52 -91 52 -173 -7 -72 -51 -101 -51 -178 0 -88 59 -98 59
-179 7z"/>
</g>
</svg>
