<?xml version="1.0" standalone="no"?>
<!DOCTYPE svg PUBLIC "-//W3C//DTD SVG 20010904//EN"
 "http://www.w3.org/TR/2001/REC-SVG-20010904/DTD/svg10.dtd">
<svg version="1.0" xmlns="http://www.w3.org/2000/svg"
 width="128.000000pt" height="128.000000pt" viewBox="0 0 128.000000 128.000000"
 preserveAspectRatio="xMidYMid meet">
<g transform="translate(0.000000,128.000000) scale(0.100000,-0.100000)"
fill="#000000" stroke="none">
<path d="M717 1088 c-14 -18 -59 -86 -102 -150 l-77 -118 -270 0 c-252 0 -269
-1 -264 -17 13 -43 71 -243 117 -407 27 -99 55 -188 60 -198 9 -17 30 -18 416
-16 l407 3 82 289 c46 158 86 301 89 317 l7 29 -266 2 -266 3 82 123 c74 111
80 125 70 147 -17 36 -55 33 -85 -7z m-447 -403 l0 -45 -64 0 c-63 0 -64 1
-75 31 -20 57 -18 59 64 59 l75 0 0 -45z m188 -2 l3 -43 -70 0 -71 0 0 45 0
46 68 -3 67 -3 3 -42z m222 2 l0 -45 -90 0 -90 0 0 45 0 45 90 0 90 0 0 -45z
m185 0 l0 -40 -67 -3 -68 -3 0 46 0 46 68 -3 67 -3 0 -40z m200 28 c-3 -10 -9
-30 -12 -45 -5 -27 -7 -28 -74 -28 l-69 0 0 45 0 45 81 0 c73 0 80 -2 74 -17z
m-795 -188 l0 -65 -38 0 c-37 0 -38 2 -51 48 -7 26 -15 55 -18 65 -5 15 2 17
51 17 l56 0 0 -65z m190 0 l0 -65 -70 0 -70 0 0 65 0 65 70 0 70 0 0 -65z
m220 0 l0 -65 -90 0 -90 0 0 65 0 65 90 0 90 0 0 -65z m190 0 l0 -65 -70 0
-70 0 0 65 0 65 70 0 70 0 0 -65z m160 63 c0 -2 -9 -30 -19 -63 -19 -60 -19
-60 -60 -63 l-41 -3 0 65 0 66 60 0 c33 0 60 -1 60 -2z m-760 -248 c0 -38 -4
-70 -9 -70 -5 0 -17 25 -25 55 -9 30 -19 61 -22 70 -5 11 1 15 25 15 l31 0 0
-70z m185 0 l0 -65 -67 -3 -68 -3 0 71 0 71 68 -3 67 -3 0 -65z m225 0 l0 -71
-87 3 -88 3 -3 68 -3 67 91 0 90 0 0 -70z m185 0 l0 -65 -67 -3 -68 -3 0 71 0
71 68 -3 67 -3 0 -65z m105 63 c-1 -24 -38 -128 -46 -128 -5 0 -10 30 -12 68
l-3 67 31 0 c16 0 30 -3 30 -7z"/>
</g>
</svg>
