<?xml version="1.0" standalone="no"?>
<!DOCTYPE svg PUBLIC "-//W3C//DTD SVG 20010904//EN"
 "http://www.w3.org/TR/2001/REC-SVG-20010904/DTD/svg10.dtd">
<svg version="1.0" xmlns="http://www.w3.org/2000/svg"
 width="128.000000pt" height="128.000000pt" viewBox="0 0 128.000000 128.000000"
 preserveAspectRatio="xMidYMid meet">
<g transform="translate(0.000000,128.000000) scale(0.100000,-0.100000)"
fill="#000000" stroke="none">
<path d="M92 823 l3 -458 133 -3 132 -3 0 51 0 50 -90 0 -90 0 0 360 0 360
275 0 274 0 3 -87 3 -88 43 -3 42 -3 0 140 0 141 -365 0 -365 0 2 -457z"/>
<path d="M270 1070 c0 -19 7 -20 185 -20 178 0 185 1 185 20 0 19 -7 20 -185
20 -178 0 -185 -1 -185 -20z"/>
<path d="M270 980 c0 -17 7 -20 45 -20 38 0 45 3 45 20 0 17 -7 20 -45 20 -38
0 -45 -3 -45 -20z"/>
<path d="M270 890 c0 -17 7 -20 45 -20 38 0 45 3 45 20 0 17 -7 20 -45 20 -38
0 -45 -3 -45 -20z"/>
<path d="M460 455 l0 -455 360 0 360 0 0 308 0 307 -148 148 -147 147 -213 0
-212 0 0 -455z m360 230 l0 -135 135 0 135 0 0 -230 0 -230 -270 0 -270 0 0
365 0 365 135 0 135 0 0 -135z m200 -37 c0 -5 -25 -8 -55 -8 l-55 0 0 56 0 55
55 -48 c30 -26 55 -51 55 -55z"/>
<path d="M640 704 c0 -23 3 -25 43 -22 35 2 43 7 45 26 3 20 -1 22 -42 22 -43
0 -46 -2 -46 -26z"/>
<path d="M640 615 c0 -23 4 -25 45 -25 41 0 45 2 45 25 0 23 -4 25 -45 25 -41
0 -45 -2 -45 -25z"/>
<path d="M640 525 c0 -23 4 -25 45 -25 41 0 45 2 45 25 0 23 -4 25 -45 25 -41
0 -45 -2 -45 -25z"/>
<path d="M640 435 l0 -25 180 0 180 0 0 25 0 25 -180 0 -180 0 0 -25z"/>
<path d="M640 340 c0 -19 7 -20 180 -20 173 0 180 1 180 20 0 19 -7 20 -180
20 -173 0 -180 -1 -180 -20z"/>
<path d="M640 250 c0 -19 7 -20 180 -20 173 0 180 1 180 20 0 19 -7 20 -180
20 -173 0 -180 -1 -180 -20z"/>
<path d="M270 800 c0 -17 7 -20 45 -20 38 0 45 3 45 20 0 17 -7 20 -45 20 -38
0 -45 -3 -45 -20z"/>
<path d="M272 708 c2 -19 10 -24 46 -26 39 -3 42 -1 42 22 0 24 -3 26 -46 26
-41 0 -45 -2 -42 -22z"/>
<path d="M274 625 c-10 -24 5 -35 47 -35 35 0 39 3 39 25 0 23 -4 25 -40 25
-26 0 -43 -5 -46 -15z"/>
</g>
</svg>
