<?xml version="1.0" standalone="no"?>
<!DOCTYPE svg PUBLIC "-//W3C//DTD SVG 20010904//EN"
 "http://www.w3.org/TR/2001/REC-SVG-20010904/DTD/svg10.dtd">
<svg version="1.0" xmlns="http://www.w3.org/2000/svg"
 width="128.000000pt" height="128.000000pt" viewBox="0 0 128.000000 128.000000"
 preserveAspectRatio="xMidYMid meet">
<g transform="translate(0.000000,128.000000) scale(0.100000,-0.100000)"
fill="#000000" stroke="none">
<path d="M329 1067 c-108 -45 -174 -119 -206 -226 -20 -69 -13 -169 15 -233
31 -70 102 -141 175 -174 86 -39 196 -40 278 -2 79 36 133 89 171 166 29 59
33 76 33 147 -1 103 -35 183 -107 251 -68 63 -125 87 -223 91 -67 3 -89 0
-136 -20z m186 -88 c107 -30 175 -121 175 -233 -1 -139 -98 -236 -238 -236
-185 0 -299 197 -206 357 55 95 165 141 269 112z"/>
<path d="M990 736 l0 -105 43 -6 c24 -4 58 -3 77 2 l35 9 0 100 0 99 -77 3
-78 3 0 -105z"/>
<path d="M964 565 c-3 -6 -3 -92 -2 -190 l3 -180 100 0 100 0 3 190 2 190
-101 0 c-61 0 -103 -4 -105 -10z"/>
</g>
</svg>
