<?xml version="1.0" standalone="no"?>
<!DOCTYPE svg PUBLIC "-//W3C//DTD SVG 20010904//EN"
 "http://www.w3.org/TR/2001/REC-SVG-20010904/DTD/svg10.dtd">
<svg version="1.0" xmlns="http://www.w3.org/2000/svg"
 width="128.000000pt" height="128.000000pt" viewBox="0 0 128.000000 128.000000"
 preserveAspectRatio="xMidYMid meet">
<g transform="translate(0.000000,128.000000) scale(0.100000,-0.100000)"
fill="#000000" stroke="none">
<path d="M192 1153 c-18 -9 -43 -30 -55 -47 -20 -28 -22 -43 -22 -146 0 -103
2 -118 22 -146 22 -30 22 -40 25 -338 l3 -308 33 -29 32 -29 411 0 411 0 34
34 34 34 0 302 c0 297 0 302 23 333 20 29 22 44 22 147 0 103 -2 118 -22 146
-46 64 -47 64 -505 64 -360 0 -417 -3 -446 -17z m233 -180 c0 -62 -4 -96 -13
-105 -8 -9 -41 -13 -93 -13 -100 0 -109 9 -109 105 0 100 13 110 135 107 l80
-2 0 -92z m320 0 c0 -62 -4 -96 -13 -105 -8 -9 -41 -13 -93 -13 -102 0 -109 7
-109 120 0 45 3 85 7 89 4 4 52 5 107 4 l101 -3 0 -92z m307 79 c18 -18 18
-166 0 -184 -9 -9 -41 -13 -93 -13 -102 0 -109 7 -109 120 0 45 3 85 8 89 12
13 180 2 194 -12z m-536 -287 c41 -21 204 -20 250 1 31 15 37 15 68 0 21 -10
60 -16 105 -16 l71 0 0 -265 0 -265 -160 0 -160 0 0 150 0 150 -28 31 c-27 30
-34 32 -109 37 -62 3 -88 1 -116 -13 -56 -26 -67 -61 -67 -219 l0 -136 -50 0
-50 0 0 265 0 265 73 0 c42 0 82 6 97 14 33 19 43 19 76 1z m74 -415 l0 -130
-55 0 -55 0 0 130 0 130 55 0 55 0 0 -130z"/>
<path d="M822 574 c-20 -14 -22 -23 -22 -118 0 -121 9 -136 82 -136 69 0 78
16 78 138 0 93 -2 102 -22 116 -12 9 -38 16 -58 16 -20 0 -46 -7 -58 -16z"/>
</g>
</svg>
