<?xml version="1.0" standalone="no"?>
<!DOCTYPE svg PUBLIC "-//W3C//DTD SVG 20010904//EN"
 "http://www.w3.org/TR/2001/REC-SVG-20010904/DTD/svg10.dtd">
<svg version="1.0" xmlns="http://www.w3.org/2000/svg"
 width="128.000000pt" height="128.000000pt" viewBox="0 0 128.000000 128.000000"
 preserveAspectRatio="xMidYMid meet">
<g transform="translate(0.000000,128.000000) scale(0.100000,-0.100000)"
fill="#000000" stroke="none">
<path d="M30 1250 c0 -36 82 -231 154 -365 47 -88 57 -100 82 -103 28 -3 84
36 84 57 0 5 -21 37 -47 72 -26 35 -80 116 -122 179 -87 134 -129 190 -142
190 -5 0 -9 -13 -9 -30z"/>
<path d="M900 993 c-82 -22 -210 -85 -315 -154 l-93 -62 25 -38 c14 -22 33
-39 42 -39 29 0 79 -38 111 -85 32 -46 33 -47 74 -41 22 4 84 20 137 36 53 17
99 30 103 30 12 0 -30 -50 -112 -133 -120 -122 -232 -166 -344 -133 -71 21
-121 64 -148 128 -12 29 -36 64 -53 78 l-30 24 -49 -54 c-195 -218 -243 -424
-120 -518 31 -24 45 -27 106 -27 59 0 83 6 142 33 l71 33 39 -23 c73 -43 213
-22 359 55 81 43 220 182 274 274 164 278 175 556 25 619 -43 18 -172 17 -244
-3z m238 -126 c5 -26 -26 -57 -58 -57 -37 0 -44 22 -18 55 24 31 71 32 76 2z
m12 -172 c27 -33 -24 -89 -77 -83 -49 5 -41 67 12 88 31 13 51 11 65 -5z m-90
-231 c31 -37 -41 -114 -94 -100 -30 7 -39 29 -24 62 21 46 93 70 118 38z
m-712 -150 c17 -11 22 -25 22 -56 0 -35 -6 -47 -44 -84 -35 -35 -50 -44 -78
-44 -43 0 -62 21 -61 66 1 42 44 101 87 120 40 17 47 17 74 -2z m483 -34 c45
-25 1 -102 -65 -114 -89 -17 -112 56 -33 104 36 22 69 25 98 10z"/>
<path d="M327 765 c-15 -14 -27 -34 -27 -44 0 -30 68 -111 93 -111 27 0 87 52
87 76 0 23 -83 104 -106 104 -11 0 -32 -11 -47 -25z"/>
<path d="M466 607 c-41 -37 -47 -47 -41 -68 24 -78 106 -126 195 -116 54 7
136 46 169 81 l20 22 -68 -4 c-66 -4 -68 -3 -92 27 -55 73 -76 91 -104 96 -25
4 -38 -2 -79 -38z"/>
</g>
</svg>
