<?xml version="1.0" standalone="no"?>
<!DOCTYPE svg PUBLIC "-//W3C//DTD SVG 20010904//EN"
 "http://www.w3.org/TR/2001/REC-SVG-20010904/DTD/svg10.dtd">
<svg version="1.0" xmlns="http://www.w3.org/2000/svg"
 width="128.000000pt" height="128.000000pt" viewBox="0 0 128.000000 128.000000"
 preserveAspectRatio="xMidYMid meet">
<g transform="translate(0.000000,128.000000) scale(0.100000,-0.100000)"
fill="#000000" stroke="none">
<path d="M57 1223 c-4 -3 -7 -28 -7 -55 l0 -48 591 0 590 0 -3 53 -3 52 -581
3 c-319 1 -584 -1 -587 -5z"/>
<path d="M110 590 l0 -480 105 0 c103 0 105 0 105 23 0 41 -28 120 -65 181
l-35 58 70 65 c83 77 150 175 202 295 37 85 82 239 90 303 l3 30 -237 3 -238
2 0 -480z"/>
<path d="M698 1064 c-8 -7 25 -154 52 -233 56 -168 134 -296 240 -394 l70 -65
-35 -58 c-37 -61 -65 -140 -65 -181 0 -23 2 -23 105 -23 l105 0 0 480 0 480
-233 0 c-129 0 -236 -3 -239 -6z"/>
</g>
</svg>
