<?xml version="1.0" standalone="no"?>
<!DOCTYPE svg PUBLIC "-//W3C//DTD SVG 20010904//EN"
 "http://www.w3.org/TR/2001/REC-SVG-20010904/DTD/svg10.dtd">
<svg version="1.0" xmlns="http://www.w3.org/2000/svg"
 width="128.000000pt" height="128.000000pt" viewBox="0 0 128.000000 128.000000"
 preserveAspectRatio="xMidYMid meet">
<g transform="translate(0.000000,128.000000) scale(0.100000,-0.100000)"
fill="#000000" stroke="none">
<path d="M102 1268 c-8 -8 -12 -50 -12 -124 0 -111 0 -111 -45 -208 l-45 -96
2 -418 3 -417 638 -3 637 -2 0 260 0 260 -297 2 -298 3 -5 170 c-5 169 -5 170
-40 240 -33 66 -35 77 -40 198 -4 99 -8 130 -20 137 -23 15 -463 13 -478 -2z
m433 -138 l0 -85 -192 -3 -193 -2 0 83 c0 46 3 87 7 91 4 3 90 5 192 4 l186
-3 0 -85z m5 -124 c0 -2 -17 -39 -37 -82 -38 -79 -38 -79 -43 -239 l-5 -160
-70 -1 -70 -1 -3 -232 -2 -231 -125 0 -125 0 0 379 0 379 30 71 c17 40 35 83
40 96 l10 25 200 0 c110 0 200 -2 200 -4z m53 -114 c26 -63 27 -76 27 -220 l0
-153 -62 3 -63 3 -3 150 -3 150 32 68 c18 37 35 67 38 67 3 0 18 -30 34 -68z
m-52 -471 c46 -46 37 -106 -21 -136 -37 -19 -74 -11 -100 22 -31 39 -26 86 11
117 40 34 74 33 110 -3z m594 -33 c104 -82 28 -242 -98 -207 -96 26 -117 155
-33 209 41 26 96 26 131 -2z m-351 -129 c33 -15 60 -72 51 -107 -29 -117 -195
-97 -195 23 0 71 76 115 144 84z"/>
</g>
</svg>
