<?xml version="1.0" standalone="no"?>
<!DOCTYPE svg PUBLIC "-//W3C//DTD SVG 20010904//EN"
 "http://www.w3.org/TR/2001/REC-SVG-20010904/DTD/svg10.dtd">
<svg version="1.0" xmlns="http://www.w3.org/2000/svg"
 width="128.000000pt" height="128.000000pt" viewBox="0 0 128.000000 128.000000"
 preserveAspectRatio="xMidYMid meet">
<g transform="translate(0.000000,128.000000) scale(0.100000,-0.100000)"
fill="#000000" stroke="none">
<path d="M370 1270 c-77 -12 -102 -42 -98 -119 l3 -56 363 -3 362 -2 0 59 c0
75 -5 88 -44 108 -26 14 -71 17 -281 19 -137 2 -275 -1 -305 -6z"/>
<path d="M360 971 c0 -39 -30 -73 -96 -111 -85 -48 -86 -52 -82 -369 3 -255 4
-268 27 -319 14 -32 44 -71 77 -101 74 -68 105 -74 384 -69 192 3 230 6 257
21 59 32 106 81 135 142 l28 60 0 280 c0 320 4 303 -88 362 -66 42 -78 56 -87
101 l-6 32 -274 0 -275 0 0 -29z m550 -471 l0 -140 -272 2 -273 3 -3 124 c-1
69 0 131 2 138 4 10 63 13 276 13 l270 0 0 -140z"/>
</g>
</svg>
