<?xml version="1.0" standalone="no"?>
<!DOCTYPE svg PUBLIC "-//W3C//DTD SVG 20010904//EN"
 "http://www.w3.org/TR/2001/REC-SVG-20010904/DTD/svg10.dtd">
<svg version="1.0" xmlns="http://www.w3.org/2000/svg"
 width="128.000000pt" height="128.000000pt" viewBox="0 0 128.000000 128.000000"
 preserveAspectRatio="xMidYMid meet">
<g transform="translate(0.000000,128.000000) scale(0.100000,-0.100000)"
fill="#000000" stroke="none">
<path d="M285 1180 c-3 -11 -3 -29 0 -40 6 -18 15 -20 116 -20 l109 0 0 40 0
40 -109 0 c-101 0 -110 -2 -116 -20z"/>
<path d="M200 1026 l0 -75 -37 -3 -38 -3 -3 -401 c-2 -391 -3 -402 -22 -407
-14 -3 -20 -14 -20 -31 l0 -26 560 0 560 0 0 26 c0 17 -6 28 -20 31 -18 5 -20
15 -22 142 l-3 136 -235 5 -235 5 -5 260 -5 260 -37 3 -37 3 -3 72 -3 72 -197
3 -198 2 0 -74z m390 -256 l0 -30 -190 0 -190 0 0 30 0 30 190 0 190 0 0 -30z
m-12 -69 c8 -4 12 -19 10 -32 l-3 -24 -187 -3 -188 -2 0 29 c0 16 6 32 13 34
21 9 341 7 355 -2z m7 -126 l0 -30 -185 0 c-170 0 -185 1 -188 18 -9 46 -4 48
190 45 l183 -3 0 -30z m0 -100 l0 -30 -185 0 -185 0 -3 33 -3 32 188 -2 188
-3 0 -30z m5 -95 l0 -30 -190 0 -190 0 0 30 0 30 190 0 190 0 0 -30z m440
-180 l0 -60 -105 0 -105 0 0 53 c0 30 3 57 7 60 3 4 51 7 105 7 l98 0 0 -60z"/>
<path d="M712 528 l3 -83 223 -3 223 -2 -3 42 -3 42 -140 43 c-116 35 -154 43
-223 43 l-83 0 3 -82z"/>
</g>
</svg>
