<?xml version="1.0" standalone="no"?>
<!DOCTYPE svg PUBLIC "-//W3C//DTD SVG 20010904//EN"
 "http://www.w3.org/TR/2001/REC-SVG-20010904/DTD/svg10.dtd">
<svg version="1.0" xmlns="http://www.w3.org/2000/svg"
 width="128.000000pt" height="128.000000pt" viewBox="0 0 128.000000 128.000000"
 preserveAspectRatio="xMidYMid meet">
<g transform="translate(0.000000,128.000000) scale(0.100000,-0.100000)"
fill="#000000" stroke="none">
<path d="M323 1266 c-17 -8 -36 -24 -43 -35 -9 -18 -20 -21 -75 -21 l-64 0
-60 -81 -59 -81 56 -79 57 -78 67 -1 67 0 3 -409 c3 -398 4 -410 24 -438 28
-37 64 -50 101 -34 58 24 58 19 61 469 l3 412 90 0 90 0 -3 158 -3 157 -85 3
c-79 3 -86 5 -110 32 -30 35 -74 44 -117 26z"/>
<path d="M774 1238 c-43 -52 -64 -107 -64 -173 0 -77 24 -128 83 -183 l47 -42
0 -358 c0 -205 4 -372 10 -393 28 -102 159 -119 204 -25 14 30 16 82 16 404
l0 370 35 27 c84 63 119 170 91 269 -16 53 -75 136 -97 136 -5 0 -9 -31 -9
-68 l0 -68 -65 -64 -65 -64 -70 69 -70 69 0 63 c0 35 -4 63 -9 63 -5 0 -22
-15 -37 -32z m214 -1070 c21 -21 14 -57 -13 -70 -22 -10 -29 -9 -47 10 -19 18
-20 25 -10 47 13 27 49 34 70 13z"/>
</g>
</svg>
