<?xml version="1.0" standalone="no"?>
<!DOCTYPE svg PUBLIC "-//W3C//DTD SVG 20010904//EN"
 "http://www.w3.org/TR/2001/REC-SVG-20010904/DTD/svg10.dtd">
<svg version="1.0" xmlns="http://www.w3.org/2000/svg"
 width="128.000000pt" height="128.000000pt" viewBox="0 0 128.000000 128.000000"
 preserveAspectRatio="xMidYMid meet">
<g transform="translate(0.000000,128.000000) scale(0.100000,-0.100000)"
fill="#000000" stroke="none">
<path d="M246 1114 c-14 -14 -16 -73 -16 -500 l0 -484 385 0 385 0 0 488 c0
366 -3 491 -12 500 -9 9 -105 12 -369 12 -312 0 -360 -2 -373 -16z m712 -486
c1 -304 -1 -458 -8 -458 -7 0 -10 150 -10 438 0 327 -3 441 -12 450 -9 9 -90
12 -304 12 -161 0 -299 -3 -308 -6 -14 -5 -16 -54 -16 -450 0 -289 -3 -444
-10 -444 -7 0 -10 160 -10 460 l0 460 338 -2 337 -3 3 -457z m-60 -30 l-3
-423 -277 -3 -278 -2 0 425 0 425 280 0 280 0 -2 -422z"/>
<path d="M780 625 c-14 -17 -5 -51 16 -59 20 -8 54 11 54 29 0 43 -43 62 -70
30z"/>
</g>
</svg>
