<?xml version="1.0" standalone="no"?>
<!DOCTYPE svg PUBLIC "-//W3C//DTD SVG 20010904//EN"
 "http://www.w3.org/TR/2001/REC-SVG-20010904/DTD/svg10.dtd">
<svg version="1.0" xmlns="http://www.w3.org/2000/svg"
 width="128.000000pt" height="128.000000pt" viewBox="0 0 128.000000 128.000000"
 preserveAspectRatio="xMidYMid meet">
<g transform="translate(0.000000,128.000000) scale(0.100000,-0.100000)"
fill="#000000" stroke="none">
<path d="M355 1071 c-16 -10 -76 -66 -132 -123 -130 -133 -130 -132 -25 -240
42 -44 89 -86 105 -94 l27 -15 0 -178 c0 -233 -9 -223 186 -219 l139 3 0 25 0
25 -130 5 -130 5 -5 233 -5 233 -30 -31 -29 -30 -68 67 c-37 37 -68 72 -68 78
0 6 44 54 98 108 95 95 99 97 143 97 26 0 66 -7 90 -16 59 -21 183 -22 233 -1
21 10 64 17 96 17 l58 0 91 -96 c50 -53 91 -102 91 -109 0 -7 -33 -42 -72 -78
l-73 -66 -26 25 c-14 13 -28 24 -32 24 -10 0 -8 -142 2 -158 14 -23 56 -10 59
18 2 17 13 30 31 38 15 7 62 48 104 91 85 87 92 107 54 158 -50 68 -178 195
-211 208 -50 21 -135 19 -187 -5 -57 -25 -134 -25 -206 0 -72 25 -139 26 -178
1z"/>
<path d="M725 531 c-12 -24 -22 -31 -45 -31 -19 0 -42 -11 -62 -29 -31 -28
-33 -33 -33 -97 0 -59 3 -69 19 -72 24 -5 36 14 36 61 0 55 13 73 60 81 53 8
82 38 78 79 -4 44 -32 48 -53 8z"/>
<path d="M885 486 c-3 -9 -7 -22 -9 -30 -3 -8 -24 -18 -51 -21 -82 -13 -115
-60 -115 -166 0 -49 18 -76 45 -65 11 4 15 21 15 66 0 51 4 65 25 85 15 16 35
25 55 25 68 0 125 109 62 118 -13 2 -24 -3 -27 -12z"/>
<path d="M1023 433 c-7 -3 -13 -13 -13 -22 0 -25 -28 -47 -78 -61 -62 -16 -82
-53 -82 -152 0 -77 0 -78 25 -78 24 0 25 3 25 54 0 79 15 113 53 122 55 11 88
34 103 69 19 47 3 80 -33 68z"/>
</g>
</svg>
