<?xml version="1.0" standalone="no"?>
<!DOCTYPE svg PUBLIC "-//W3C//DTD SVG 20010904//EN"
 "http://www.w3.org/TR/2001/REC-SVG-20010904/DTD/svg10.dtd">
<svg version="1.0" xmlns="http://www.w3.org/2000/svg"
 width="128.000000pt" height="128.000000pt" viewBox="0 0 128.000000 128.000000"
 preserveAspectRatio="xMidYMid meet">
<g transform="translate(0.000000,128.000000) scale(0.100000,-0.100000)"
fill="#000000" stroke="none">
<path d="M565 1273 c-267 -42 -473 -223 -541 -473 -23 -86 -23 -234 0 -320 47
-172 166 -320 325 -404 94 -49 179 -69 291 -69 112 0 197 20 290 69 161 84
280 232 326 404 23 87 23 235 0 320 -73 269 -307 459 -588 474 -40 2 -86 2
-103 -1z m295 -307 c0 -46 33 -120 100 -225 31 -47 35 -62 34 -115 0 -34 -6
-74 -14 -91 l-13 -30 -7 26 c-12 40 -29 68 -98 158 -35 47 -68 96 -73 109 -14
38 -10 100 9 140 45 91 62 99 62 28z m-366 -96 l101 -100 -92 -92 -93 -93
-100 100 c-55 55 -100 106 -100 115 0 19 150 170 169 170 8 0 60 -45 115 -100z
m319 -318 c86 -87 157 -165 157 -172 0 -20 -151 -170 -170 -170 -8 0 -87 72
-175 160 l-160 160 90 90 c49 49 92 90 95 90 3 0 77 -71 163 -158z"/>
</g>
</svg>
