<?xml version="1.0" standalone="no"?>
<!DOCTYPE svg PUBLIC "-//W3C//DTD SVG 20010904//EN"
 "http://www.w3.org/TR/2001/REC-SVG-20010904/DTD/svg10.dtd">
<svg version="1.0" xmlns="http://www.w3.org/2000/svg"
 width="128.000000pt" height="128.000000pt" viewBox="0 0 128.000000 128.000000"
 preserveAspectRatio="xMidYMid meet">
<g transform="translate(0.000000,128.000000) scale(0.100000,-0.100000)"
fill="#000000" stroke="none">
<path d="M688 1133 l-137 -137 -99 97 c-57 56 -107 97 -119 97 -26 0 -49 -20
-58 -48 -6 -20 8 -38 89 -121 53 -53 96 -100 96 -103 0 -4 -76 -8 -169 -10
l-169 -3 -38 -31 c-83 -67 -79 -47 -82 -404 -3 -300 -2 -322 17 -357 22 -44
53 -74 98 -97 28 -14 90 -16 521 -16 488 0 489 0 531 23 24 12 57 42 75 66
l31 43 0 323 0 323 -30 44 c-17 23 -49 53 -70 65 -38 22 -50 23 -287 23 -137
0 -248 3 -248 8 0 4 61 68 135 142 74 74 135 142 135 150 0 29 -30 60 -58 60
-21 0 -56 -29 -164 -137z m127 -434 c77 -38 90 -73 90 -244 0 -150 -7 -176
-57 -221 -37 -34 -84 -44 -228 -50 -157 -7 -308 7 -353 33 -19 11 -42 38 -57
68 -22 44 -24 62 -24 170 0 108 2 126 24 170 47 93 93 105 371 101 174 -2 189
-4 234 -27z m338 -11 c26 -31 22 -82 -9 -107 -54 -43 -124 -10 -124 58 0 73
85 105 133 49z m-3 -268 c21 -21 26 -69 10 -100 -23 -43 -116 -40 -134 5 -23
60 10 115 69 115 22 0 43 -8 55 -20z"/>
</g>
</svg>
