<?xml version="1.0" standalone="no"?>
<!DOCTYPE svg PUBLIC "-//W3C//DTD SVG 20010904//EN"
 "http://www.w3.org/TR/2001/REC-SVG-20010904/DTD/svg10.dtd">
<svg version="1.0" xmlns="http://www.w3.org/2000/svg"
 width="128.000000pt" height="128.000000pt" viewBox="0 0 128.000000 128.000000"
 preserveAspectRatio="xMidYMid meet">
<g transform="translate(0.000000,128.000000) scale(0.100000,-0.100000)"
fill="#000000" stroke="none">
<path d="M595 1273 c-93 -10 -159 -29 -235 -65 -157 -75 -289 -236 -336 -408
-28 -103 -24 -255 10 -355 144 -422 640 -578 992 -312 104 79 175 180 220 312
34 100 38 252 10 355 -45 166 -179 332 -326 403 -107 52 -244 81 -335 70z
m-270 -253 c0 -20 -6 -26 -27 -28 -25 -3 -28 0 -28 28 0 28 3 31 28 28 21 -2
27 -8 27 -28z m225 -1 c0 -27 -3 -30 -27 -27 -21 2 -27 8 -26 26 1 32 1 32 28
32 21 0 25 -5 25 -31z m230 1 c0 -27 -3 -30 -30 -30 -27 0 -30 3 -30 30 0 27
3 30 30 30 27 0 30 -3 30 -30z m228 -2 c3 -25 0 -28 -27 -28 -28 0 -31 3 -31
31 0 27 3 30 28 27 21 -2 28 -9 30 -30z m-680 -120 c3 -46 5 -48 33 -48 l29 0
0 -140 0 -140 -30 0 -30 0 0 -180 0 -180 -30 0 -30 0 0 180 0 180 -35 0 -35 0
0 140 0 140 35 0 35 0 0 51 c0 49 1 50 28 47 25 -3 27 -7 30 -50z m222 -78 l0
-130 35 0 36 0 -3 -142 -3 -143 -32 -3 -33 -3 0 -95 0 -95 -26 3 -27 3 2 92 2
92 -33 3 -33 3 -3 142 -3 142 33 3 33 3 2 120 c1 66 2 123 3 128 0 4 11 7 25
7 l25 0 0 -130z m230 -50 l0 -180 30 0 30 0 0 -140 0 -140 -90 0 -90 0 0 140
0 140 30 0 30 0 0 180 0 180 30 0 30 0 0 -180z m230 115 l0 -65 30 0 30 0 0
-145 0 -145 -30 0 -30 0 0 -160 0 -160 -30 0 -30 0 0 159 0 160 -32 3 -33 3 0
140 0 140 33 3 32 3 0 65 0 64 30 0 30 0 0 -65z"/>
</g>
</svg>
