<?xml version="1.0" standalone="no"?>
<!DOCTYPE svg PUBLIC "-//W3C//DTD SVG 20010904//EN"
 "http://www.w3.org/TR/2001/REC-SVG-20010904/DTD/svg10.dtd">
<svg version="1.0" xmlns="http://www.w3.org/2000/svg"
 width="128.000000pt" height="128.000000pt" viewBox="0 0 128.000000 128.000000"
 preserveAspectRatio="xMidYMid meet">
<g transform="translate(0.000000,128.000000) scale(0.100000,-0.100000)"
fill="#000000" stroke="none">
<path d="M697 1258 c-14 -13 -126 -158 -251 -324 -246 -326 -251 -337 -200
-385 24 -22 34 -24 155 -28 126 -3 129 -3 124 -25 -15 -64 -65 -389 -65 -419
0 -63 72 -99 118 -59 12 9 125 166 251 347 155 222 231 339 231 356 0 15 -9
38 -21 53 -20 26 -22 26 -149 26 -71 0 -131 3 -133 8 -3 4 10 86 29 182 42
216 43 242 8 269 -34 27 -67 27 -97 -1z m4 -288 c-23 -116 -41 -220 -41 -231
0 -18 9 -19 159 -19 l159 0 -216 -314 c-119 -172 -218 -312 -220 -311 -2 2 15
108 37 237 23 129 41 242 41 251 0 15 -19 17 -160 19 l-161 3 218 291 c120
161 219 291 221 289 2 -1 -15 -98 -37 -215z"/>
</g>
</svg>
