<?xml version="1.0" standalone="no"?>
<!DOCTYPE svg PUBLIC "-//W3C//DTD SVG 20010904//EN"
 "http://www.w3.org/TR/2001/REC-SVG-20010904/DTD/svg10.dtd">
<svg version="1.0" xmlns="http://www.w3.org/2000/svg"
 width="128.000000pt" height="128.000000pt" viewBox="0 0 128.000000 128.000000"
 preserveAspectRatio="xMidYMid meet">
<g transform="translate(0.000000,128.000000) scale(0.100000,-0.100000)"
fill="#000000" stroke="none">
<path d="M476 955 c-69 -85 -126 -159 -126 -165 0 -7 31 -46 69 -88 l70 -76
-74 -80 -73 -81 131 -149 132 -149 3 62 3 61 -73 81 c-40 44 -74 84 -76 89 -2
4 23 37 55 72 96 104 95 87 14 175 -39 43 -71 81 -71 84 0 3 34 48 75 98 l75
93 0 64 c0 35 -2 64 -4 64 -1 0 -60 -70 -130 -155z"/>
<path d="M800 950 l-132 -160 71 -79 c39 -43 71 -83 71 -88 0 -5 -14 -22 -31
-39 -17 -16 -48 -50 -70 -75 l-39 -47 130 -146 c72 -80 133 -146 135 -146 3 0
5 26 5 58 0 58 0 58 -75 142 -41 46 -75 89 -75 96 0 6 10 19 21 30 12 10 43
44 70 75 l48 56 -69 78 c-39 43 -70 82 -70 87 0 5 34 50 75 101 l75 91 0 63
c0 35 -2 63 -4 63 -3 0 -64 -72 -136 -160z"/>
</g>
</svg>
