<?xml version="1.0" standalone="no"?>
<!DOCTYPE svg PUBLIC "-//W3C//DTD SVG 20010904//EN"
 "http://www.w3.org/TR/2001/REC-SVG-20010904/DTD/svg10.dtd">
<svg version="1.0" xmlns="http://www.w3.org/2000/svg"
 width="128.000000pt" height="128.000000pt" viewBox="0 0 128.000000 128.000000"
 preserveAspectRatio="xMidYMid meet">
<g transform="translate(0.000000,128.000000) scale(0.100000,-0.100000)"
fill="#000000" stroke="none">
<path d="M184 1266 c-3 -8 -4 -29 -2 -48 3 -31 5 -33 46 -36 l42 -3 0 50 0 51
-40 0 c-26 0 -43 -5 -46 -14z"/>
<path d="M460 1096 l0 -186 45 0 45 0 -2 183 -3 182 -42 3 -43 3 0 -185z"/>
<path d="M732 1233 l3 -48 43 -3 42 -3 0 50 0 51 -46 0 -45 0 3 -47z"/>
<path d="M1004 1267 c-2 -7 -3 -89 -2 -182 l3 -170 43 -3 42 -3 0 185 0 186
-40 0 c-24 0 -43 -5 -46 -13z"/>
<path d="M0 1045 l0 -45 180 0 180 0 0 45 0 45 -180 0 -180 0 0 -45z"/>
<path d="M640 1045 l0 -45 135 0 135 0 0 45 0 45 -135 0 -135 0 0 -45z"/>
<path d="M1182 1048 l3 -43 45 0 45 0 3 43 3 42 -51 0 -51 0 3 -42z"/>
<path d="M180 730 l0 -180 45 0 45 0 0 180 0 180 -45 0 -45 0 0 -180z"/>
<path d="M730 730 l0 -180 45 0 45 0 0 180 0 180 -45 0 -45 0 0 -180z"/>
<path d="M0 775 l0 -45 45 0 45 0 0 45 0 45 -45 0 -45 0 0 -45z"/>
<path d="M362 778 l3 -43 138 -3 137 -3 0 46 0 45 -141 0 -140 0 3 -42z"/>
<path d="M910 775 l0 -45 185 0 185 0 0 45 0 45 -185 0 -185 0 0 -45z"/>
<path d="M460 596 l0 -46 46 0 45 0 -3 43 c-3 42 -3 42 -45 45 l-43 3 0 -45z"/>
<path d="M1007 633 c-4 -3 -7 -24 -7 -45 l0 -38 45 0 45 0 0 45 0 45 -38 0
c-21 0 -42 -3 -45 -7z"/>
<path d="M93 449 c-35 -10 -80 -58 -89 -94 -3 -13 -4 -80 -2 -149 l3 -126 38
-37 37 -38 573 -3 c314 -1 582 0 594 3 27 6 38 37 23 65 -11 20 -17 20 -579
20 -537 0 -569 1 -584 18 -13 15 -17 39 -17 116 0 53 5 106 10 117 10 18 26
19 443 19 324 0 436 -3 445 -12 18 -18 14 -56 -7 -68 -13 -6 -160 -10 -411
-10 l-391 0 3 -42 3 -43 394 -3 c379 -2 396 -1 436 18 111 54 95 217 -24 250
-45 13 -854 12 -898 -1z"/>
</g>
</svg>
