<?xml version="1.0" standalone="no"?>
<!DOCTYPE svg PUBLIC "-//W3C//DTD SVG 20010904//EN"
 "http://www.w3.org/TR/2001/REC-SVG-20010904/DTD/svg10.dtd">
<svg version="1.0" xmlns="http://www.w3.org/2000/svg"
 width="128.000000pt" height="128.000000pt" viewBox="0 0 128.000000 128.000000"
 preserveAspectRatio="xMidYMid meet">
<g transform="translate(0.000000,128.000000) scale(0.100000,-0.100000)"
fill="#000000" stroke="none">
<path d="M216 968 c19 -88 19 -591 0 -670 l-13 -58 233 0 233 0 3 266 3 266
46 42 c43 37 47 46 52 96 3 30 9 70 13 88 l7 32 -296 0 -295 0 14 -62z m84
-58 c0 -5 -9 -10 -20 -10 -11 0 -20 5 -20 10 0 6 9 10 20 10 11 0 20 -4 20
-10z m160 0 c0 -5 -18 -10 -40 -10 -22 0 -40 5 -40 10 0 6 18 10 40 10 22 0
40 -4 40 -10z m160 0 c0 -5 -18 -10 -40 -10 -22 0 -40 5 -40 10 0 6 18 10 40
10 22 0 40 -4 40 -10z m110 0 c0 -5 -7 -10 -15 -10 -8 0 -15 5 -15 10 0 6 7
10 15 10 8 0 15 -4 15 -10z m-163 -150 c67 -40 88 -112 54 -182 -62 -129 -250
-95 -267 48 -14 110 117 193 213 134z m-269 -408 c2 -7 -6 -12 -17 -12 -21 0
-27 11 -14 24 9 9 26 2 31 -12z m160 1 c2 -9 -9 -13 -37 -13 -39 0 -50 8 -34
24 11 11 66 2 71 -11z m160 0 c2 -9 -9 -13 -37 -13 -30 0 -41 4 -41 16 0 11 9
14 37 12 20 -2 38 -9 41 -15z"/>
<path d="M480 695 c0 -33 -2 -35 -36 -35 -23 0 -33 -4 -28 -11 3 -6 15 -9 25
-6 27 7 23 -12 -8 -47 l-28 -30 38 22 37 21 0 -30 c0 -44 24 -31 31 17 3 21 7
34 8 28 2 -21 41 -53 57 -47 13 5 9 13 -22 39 l-39 33 35 2 35 1 -30 7 -30 6
25 18 c21 15 23 19 10 27 -11 7 -19 2 -32 -23 l-17 -32 -1 38 c0 26 -4 37 -15
37 -10 0 -15 -11 -15 -35z"/>
<path d="M430 703 c1 -18 19 -35 29 -28 9 5 9 10 0 21 -12 15 -29 19 -29 7z"/>
<path d="M850 913 c0 -43 -4 -50 -33 -70 -17 -13 -49 -38 -69 -57 l-38 -35 0
-236 c0 -144 4 -244 10 -256 10 -18 23 -19 180 -19 157 0 170 1 180 19 6 12
10 111 10 253 l0 233 -62 57 c-33 32 -65 58 -70 58 -4 0 -8 23 -8 50 l0 50
-50 0 -50 0 0 -47z m122 -90 l49 -38 -60 -3 c-34 -2 -88 -2 -121 0 l-61 3 48
37 c26 21 59 38 72 38 13 0 46 -17 73 -37z"/>
</g>
</svg>
