<?xml version="1.0" standalone="no"?>
<!DOCTYPE svg PUBLIC "-//W3C//DTD SVG 20010904//EN"
 "http://www.w3.org/TR/2001/REC-SVG-20010904/DTD/svg10.dtd">
<svg version="1.0" xmlns="http://www.w3.org/2000/svg"
 width="128.000000pt" height="128.000000pt" viewBox="0 0 128.000000 128.000000"
 preserveAspectRatio="xMidYMid meet">
<g transform="translate(0.000000,128.000000) scale(0.100000,-0.100000)"
fill="#000000" stroke="none">
<path d="M170 1218 c0 -52 -1 -53 -77 -130 l-78 -78 624 0 623 0 -77 85 c-73
81 -76 87 -73 127 l3 43 -473 3 -472 2 0 -52z"/>
<path d="M10 935 c0 -50 33 -109 75 -135 l35 -22 0 -339 0 -339 -55 0 -55 0 0
-45 0 -45 630 0 630 0 0 45 0 45 -55 0 -55 0 0 338 0 339 37 24 c44 29 73 81
73 131 l0 38 -630 0 -630 0 0 -35z m397 -138 c42 -24 114 -24 156 0 18 10 41
36 52 60 11 23 22 42 25 43 3 0 12 -18 22 -40 22 -52 68 -80 134 -80 63 0 109
28 138 85 l21 40 20 -40 c11 -22 37 -51 58 -64 l37 -24 0 -339 0 -338 -169 0
c-141 0 -170 2 -175 15 -3 8 -18 15 -33 15 -28 0 -28 0 -27 62 l2 63 70 3 70
3 -7 27 c-5 15 -30 69 -56 121 -41 83 -46 99 -40 137 6 45 25 70 25 35 0 -16
6 -21 26 -21 24 0 25 2 19 33 -12 58 -38 92 -73 95 -24 2 -32 8 -32 23 0 14
-7 19 -25 19 -18 0 -25 -5 -25 -20 0 -15 -7 -20 -28 -20 -35 0 -57 -23 -71
-75 -15 -54 -15 -55 14 -55 16 0 25 6 25 15 0 34 19 12 25 -29 6 -39 3 -51
-39 -123 -25 -43 -52 -98 -60 -121 l-15 -41 76 -3 75 -3 2 -63 c1 -62 1 -62
-27 -62 -15 0 -30 -7 -33 -15 -5 -13 -35 -15 -180 -15 l-174 0 0 340 0 339 29
15 c38 20 81 72 81 99 0 16 8 8 28 -28 15 -27 42 -58 59 -68z"/>
</g>
</svg>
