<?xml version="1.0" standalone="no"?>
<!DOCTYPE svg PUBLIC "-//W3C//DTD SVG 20010904//EN"
 "http://www.w3.org/TR/2001/REC-SVG-20010904/DTD/svg10.dtd">
<svg version="1.0" xmlns="http://www.w3.org/2000/svg"
 width="128.000000pt" height="128.000000pt" viewBox="0 0 128.000000 128.000000"
 preserveAspectRatio="xMidYMid meet">
<g transform="translate(0.000000,128.000000) scale(0.100000,-0.100000)"
fill="#000000" stroke="none">
<path d="M205 1158 c-2 -7 -21 -69 -41 -138 -30 -103 -42 -131 -70 -159 -108
-109 -106 -302 3 -418 24 -26 37 -58 62 -150 17 -65 35 -131 39 -148 l8 -30
106 -3 c76 -2 108 1 115 10 6 7 26 73 46 146 40 147 73 205 114 197 30 -7 56
21 43 45 -6 10 -14 21 -19 24 -5 4 -7 15 -4 26 4 14 14 20 32 20 38 0 51 17
51 66 0 43 -10 54 -50 54 -22 0 -37 37 -21 53 6 6 11 21 11 34 0 18 -7 25 -29
29 -59 12 -88 59 -131 210 -22 76 -40 140 -40 141 0 2 -50 3 -110 3 -80 0
-112 -4 -115 -12z m210 -8 c9 -14 65 -212 65 -228 0 -9 -8 -8 -32 4 -49 26
-175 31 -239 10 -28 -10 -52 -16 -54 -14 -4 4 59 211 68 226 10 15 183 17 192
2z m33 -244 c116 -59 184 -204 152 -323 -16 -58 -33 -86 -79 -136 -60 -64
-103 -82 -201 -82 -74 0 -91 3 -130 27 -98 58 -152 144 -158 251 -8 139 76
252 213 288 52 14 150 2 203 -25z m172 -122 c0 -17 -22 -14 -28 4 -2 7 3 12
12 12 9 0 16 -7 16 -16z m56 -119 c4 -8 3 -26 0 -40 -5 -18 -13 -25 -31 -25
-22 0 -25 4 -25 40 0 36 2 40 25 40 14 0 28 -7 31 -15z m-58 -168 c2 -12 -3
-17 -17 -17 -23 0 -24 1 -15 25 8 19 28 15 32 -8z m-443 -116 c8 -14 107 -41
147 -41 19 0 61 9 94 20 32 11 62 20 65 20 6 0 -12 -72 -50 -200 l-16 -55 -91
-3 c-65 -2 -94 1 -101 10 -6 7 -23 60 -38 118 -15 58 -30 113 -32 123 -6 18
11 24 22 8z"/>
<path d="M234 876 c-61 -19 -102 -54 -131 -113 -22 -46 -25 -63 -21 -121 6
-76 23 -115 70 -162 126 -127 339 -74 393 96 60 191 -117 361 -311 300z m177
-27 c70 -35 129 -127 129 -201 0 -86 -72 -183 -155 -212 -65 -21 -91 -20 -150
8 -91 42 -139 117 -139 218 0 59 4 73 29 109 39 55 72 79 132 95 55 14 102 9
154 -17z"/>
<path d="M240 804 c0 -3 16 -35 36 -70 31 -56 34 -67 23 -81 -12 -15 -12 -16
3 -10 10 3 20 2 23 -3 10 -16 25 -11 19 5 -9 23 6 18 28 -10 26 -34 90 -35
112 -3 33 46 14 101 -40 114 -30 8 -71 -18 -84 -52 -5 -13 -14 -24 -20 -24 -5
0 -27 31 -47 70 -33 60 -53 85 -53 64z m220 -83 c0 -11 -69 -35 -77 -27 -3 3
0 12 7 21 13 16 70 21 70 6z m23 -33 c15 -42 -40 -81 -82 -58 -31 16 -25 35
17 53 47 19 59 20 65 5z"/>
<path d="M430 661 c0 -6 5 -13 10 -16 6 -3 10 1 10 9 0 9 -4 16 -10 16 -5 0
-10 -4 -10 -9z"/>
<path d="M172 740 c-12 -5 -27 -21 -32 -36 -19 -50 11 -94 64 -94 42 0 64 18
72 57 5 26 1 37 -19 57 -27 27 -47 31 -85 16z m78 -29 c22 -41 -2 -91 -43 -91
-48 0 -74 61 -41 94 22 23 71 20 84 -3z"/>
<path d="M175 680 c-3 -5 1 -10 9 -10 8 0 18 5 21 10 3 6 -1 10 -9 10 -8 0
-18 -4 -21 -10z"/>
<path d="M295 610 c-34 -13 -46 -36 -43 -76 4 -48 41 -74 85 -59 61 22 69 101
13 130 -16 8 -30 15 -32 14 -2 0 -12 -4 -23 -9z m57 -27 c20 -18 24 -63 6 -81
-29 -29 -98 -1 -98 40 0 23 34 58 57 58 9 0 25 -7 35 -17z"/>
<path d="M300 524 c0 -8 5 -12 10 -9 6 3 10 10 10 16 0 5 -4 9 -10 9 -5 0 -10
-7 -10 -16z"/>
<path d="M760 860 l0 -240 195 0 195 0 0 45 0 45 45 0 c35 0 48 5 59 23 18 27
11 64 -15 72 -10 3 -21 15 -24 26 -4 12 -20 25 -36 31 -28 10 -29 12 -29 73
l0 63 -57 51 -58 51 -137 0 -138 0 0 -240z m260 170 l0 -60 60 0 60 0 0 -48
c0 -42 -4 -51 -30 -70 -16 -12 -34 -22 -39 -22 -14 0 -51 -50 -51 -68 0 -31
31 -52 77 -52 l44 0 -3 -37 -3 -38 -177 -3 -178 -2 0 230 0 230 120 0 120 0 0
-60z m65 0 l39 -40 -47 0 -47 0 0 40 c0 22 4 40 8 40 4 0 26 -18 47 -40z m107
-196 c7 -8 23 -25 36 -36 49 -47 16 -78 -83 -78 -65 0 -105 14 -105 36 0 20
28 54 44 54 7 0 19 9 29 20 20 24 61 26 79 4z"/>
<path d="M895 990 l-70 -6 73 -2 c42 -1 72 2 72 8 0 6 -1 9 -2 8 -2 -1 -34 -4
-73 -8z"/>
<path d="M830 890 c0 -6 43 -10 110 -10 67 0 110 4 110 10 0 6 -43 10 -110 10
-67 0 -110 -4 -110 -10z"/>
<path d="M857 793 c18 -2 50 -2 70 0 21 2 7 4 -32 4 -38 0 -55 -2 -38 -4z"/>
<path d="M830 710 c0 -6 32 -10 75 -10 43 0 75 4 75 10 0 6 -32 10 -75 10 -43
0 -75 -4 -75 -10z"/>
<path d="M1003 520 c0 -30 2 -43 4 -27 2 15 2 39 0 55 -2 15 -4 2 -4 -28z"/>
<path d="M979 401 c-37 -37 -49 -55 -49 -79 0 -38 9 -64 21 -56 5 3 5 13 -1
24 -16 31 -2 66 46 110 51 47 84 51 120 14 32 -31 26 -65 -19 -111 -17 -18
-28 -35 -25 -38 3 -3 22 13 42 35 44 49 48 89 11 125 -17 18 -35 25 -61 25
-31 0 -45 -8 -85 -49z"/>
<path d="M841 265 c-58 -67 -28 -155 53 -155 29 0 45 9 80 44 48 47 62 80 52
121 -10 40 -25 29 -19 -15 5 -38 3 -43 -44 -90 -57 -56 -87 -63 -121 -27 -32
34 -28 70 14 117 20 22 32 40 26 40 -5 0 -24 -16 -41 -35z"/>
<path d="M578 153 c34 -2 90 -2 125 0 34 2 6 3 -63 3 -69 0 -97 -1 -62 -3z"/>
</g>
</svg>
