<?xml version="1.0" standalone="no"?>
<!DOCTYPE svg PUBLIC "-//W3C//DTD SVG 20010904//EN"
 "http://www.w3.org/TR/2001/REC-SVG-20010904/DTD/svg10.dtd">
<svg version="1.0" xmlns="http://www.w3.org/2000/svg"
 width="128.000000pt" height="128.000000pt" viewBox="0 0 128.000000 128.000000"
 preserveAspectRatio="xMidYMid meet">
<g transform="translate(0.000000,128.000000) scale(0.100000,-0.100000)"
fill="#000000" stroke="none">
<path d="M110 1040 l0 -80 530 0 530 0 0 80 0 80 -530 0 -530 0 0 -80z"/>
<path d="M217 903 c-4 -3 -7 -147 -7 -320 l0 -313 80 0 80 0 2 213 3 212 80
24 c62 18 104 23 185 23 81 0 123 -5 185 -23 l80 -24 3 -213 2 -212 80 0 80 0
-2 318 -3 317 -421 3 c-231 1 -424 -1 -427 -5z"/>
<path d="M639 666 c-58 -40 -92 -134 -71 -195 7 -21 8 -33 1 -37 -19 -11 -33
15 -39 69 l-6 52 -23 -49 c-54 -114 19 -236 141 -236 97 0 158 55 158 141 0
50 -18 81 -72 128 -40 35 -59 82 -51 125 6 32 6 32 -38 2z m79 -272 c-2 -15
-15 -36 -30 -47 -23 -17 -32 -19 -53 -9 l-25 11 25 25 c22 22 24 30 18 77 l-6
53 37 -42 c28 -30 37 -48 34 -68z"/>
<path d="M110 160 l0 -50 530 0 530 0 0 50 0 50 -530 0 -530 0 0 -50z"/>
</g>
</svg>
