<?xml version="1.0" standalone="no"?>
<!DOCTYPE svg PUBLIC "-//W3C//DTD SVG 20010904//EN"
 "http://www.w3.org/TR/2001/REC-SVG-20010904/DTD/svg10.dtd">
<svg version="1.0" xmlns="http://www.w3.org/2000/svg"
 width="128.000000pt" height="128.000000pt" viewBox="0 0 128.000000 128.000000"
 preserveAspectRatio="xMidYMid meet">
<g transform="translate(0.000000,128.000000) scale(0.100000,-0.100000)"
fill="#000000" stroke="none">
<path d="M204 1108 c-39 -18 -44 -49 -44 -271 l0 -211 40 39 40 39 0 -54 0
-55 148 148 147 147 78 -78 77 -77 -225 -225 -225 -225 0 150 0 149 -40 -39
-40 -39 0 -132 c0 -73 4 -135 9 -138 4 -3 19 6 31 19 28 30 40 32 40 5 0 -16
7 -20 32 -20 l32 0 -39 -40 -39 -40 150 0 150 0 39 40 39 40 -149 0 -150 0 85
85 85 85 72 -72 c41 -40 71 -78 68 -85 -3 -9 9 -13 45 -13 28 0 50 -3 50 -7 0
-4 -14 -22 -32 -40 l-32 -33 202 0 c214 0 242 5 261 47 7 15 11 99 11 225 l0
202 -33 -32 c-18 -18 -36 -32 -40 -32 -4 0 -7 24 -7 52 l0 53 -178 -178 -179
-178 -71 70 c-40 39 -72 74 -72 78 0 5 113 121 250 258 l250 250 0 -150 0
-149 40 39 40 39 0 150 0 150 -40 -39 -40 -39 0 32 c0 25 -4 32 -20 32 -27 0
-25 9 12 47 l32 33 -145 0 -145 0 -39 -40 -39 -40 149 0 150 0 -120 -120 c-66
-66 -124 -120 -130 -120 -13 0 -145 132 -145 145 0 5 19 29 42 52 l42 43 -54
0 -54 0 39 40 39 40 -214 -1 c-126 0 -224 -5 -236 -11z m366 -71 c0 -1 -74
-76 -165 -167 l-165 -165 0 168 0 167 165 0 c91 0 165 -1 165 -3z m470 -637
l0 -160 -162 0 -163 0 160 160 c88 88 161 160 162 160 2 0 3 -72 3 -160z"/>
</g>
</svg>
