<?xml version="1.0" standalone="no"?>
<!DOCTYPE svg PUBLIC "-//W3C//DTD SVG 20010904//EN"
 "http://www.w3.org/TR/2001/REC-SVG-20010904/DTD/svg10.dtd">
<svg version="1.0" xmlns="http://www.w3.org/2000/svg"
 width="128.000000pt" height="128.000000pt" viewBox="0 0 128.000000 128.000000"
 preserveAspectRatio="xMidYMid meet">
<g transform="translate(0.000000,128.000000) scale(0.100000,-0.100000)"
fill="#000000" stroke="none">
<path d="M284 1243 c3 -16 11 -84 16 -153 18 -213 27 -267 51 -317 29 -58 83
-97 159 -116 l55 -14 2 -234 c2 -212 0 -230 -12 -196 -20 54 -95 157 -149 204
-58 51 -147 98 -221 118 -89 23 -92 20 -36 -40 57 -60 85 -116 121 -240 28
-99 53 -151 93 -193 47 -49 105 -62 276 -62 263 0 293 23 375 280 37 117 88
208 133 237 64 42 -21 37 -130 -8 -120 -49 -225 -149 -283 -267 l-23 -47 -1
226 0 227 43 6 c23 4 65 20 94 36 40 23 57 40 77 82 28 58 45 159 46 278 0 41
7 107 14 145 8 39 13 72 11 73 -21 23 -105 -78 -165 -197 l-31 -63 -29 61
c-37 78 -116 201 -130 201 -16 0 -75 -88 -121 -179 l-43 -84 -17 41 c-57 133
-196 288 -175 195z"/>
</g>
</svg>
