<?xml version="1.0" standalone="no"?>
<!DOCTYPE svg PUBLIC "-//W3C//DTD SVG 20010904//EN"
 "http://www.w3.org/TR/2001/REC-SVG-20010904/DTD/svg10.dtd">
<svg version="1.0" xmlns="http://www.w3.org/2000/svg"
 width="128.000000pt" height="128.000000pt" viewBox="0 0 128.000000 128.000000"
 preserveAspectRatio="xMidYMid meet">
<g transform="translate(0.000000,128.000000) scale(0.100000,-0.100000)"
fill="#000000" stroke="none">
<path d="M130 1096 c0 -30 5 -58 10 -61 14 -8 14 -782 0 -790 -5 -3 -10 -31
-10 -61 l0 -54 510 0 510 0 0 54 c0 30 -5 58 -10 61 -14 8 -14 782 0 790 6 3
10 31 10 61 l0 54 -510 0 -510 0 0 -54z m998 -3 l3 -33 -490 0 -491 0 0 28 c0
16 3 32 7 35 3 4 223 6 487 5 l481 -3 3 -32z m-28 -453 l0 -390 -25 0 -24 0
-3 118 -3 117 -135 0 -135 0 -3 -117 -3 -118 -49 0 -48 0 15 31 c8 16 13 39
10 50 -3 10 -1 22 4 25 11 7 12 61 0 68 -4 3 -6 16 -4 28 3 14 -6 38 -21 61
-14 20 -22 37 -17 37 14 0 43 70 38 91 -3 10 -1 22 4 25 12 7 12 61 0 68 -5 3
-7 14 -4 25 6 24 -21 77 -46 91 -11 6 -91 10 -184 10 l-165 0 -26 -31 c-15
-18 -26 -43 -26 -60 0 -16 -5 -38 -12 -48 -9 -15 -9 -25 0 -46 7 -14 12 -37
12 -51 0 -14 10 -39 21 -56 13 -18 18 -33 12 -37 -17 -11 -33 -49 -33 -80 0
-16 -5 -33 -11 -37 -6 -3 -8 -18 -4 -33 3 -14 10 -42 14 -61 5 -19 12 -43 16
-52 6 -16 1 -18 -39 -18 l-46 0 0 390 0 390 460 0 460 0 0 -390z m-456 179
c15 -12 26 -30 26 -45 l0 -24 -197 2 -198 3 3 25 c5 52 30 60 192 60 134 0
150 -2 174 -21z m43 -115 c3 -9 0 -20 -8 -25 -8 -5 -104 -8 -214 -6 -199 2
-200 2 -203 25 l-3 22 211 0 c184 0 211 -2 217 -16z m-17 -79 c0 -14 -9 -34
-20 -45 -18 -18 -33 -20 -178 -20 -139 0 -161 2 -174 18 -19 22 -30 51 -22 63
3 5 93 9 200 9 l194 0 0 -25z m-26 -116 c15 -12 26 -30 26 -45 l0 -24 -197 2
-198 3 3 25 c5 52 30 60 192 60 134 0 150 -2 174 -21z m376 -154 l0 -105 -115
0 -115 0 0 105 0 105 115 0 115 0 0 -105z m-335 35 c0 -13 -31 -15 -212 -18
-209 -2 -213 -2 -213 18 0 20 4 20 213 18 181 -3 212 -5 212 -18z m-15 -75 c0
-14 -9 -34 -20 -45 -18 -18 -33 -20 -171 -20 -87 0 -159 4 -170 11 -22 11 -43
55 -33 70 3 5 93 9 200 9 l194 0 0 -25z m458 -127 l-3 -33 -485 0 -485 0 -3
33 -3 32 491 0 491 0 -3 -32z"/>
<path d="M895 780 c-43 -44 -76 -83 -72 -87 8 -7 167 145 167 159 0 19 -20 3
-95 -72z"/>
<path d="M941 726 c-33 -33 -51 -59 -46 -66 5 -8 27 7 66 46 33 32 59 62 59
66 0 21 -31 3 -79 -46z"/>
<path d="M830 380 c0 -6 32 -10 75 -10 43 0 75 4 75 10 0 6 -32 10 -75 10 -43
0 -75 -4 -75 -10z"/>
<path d="M830 310 c0 -6 32 -10 75 -10 43 0 75 4 75 10 0 6 -32 10 -75 10 -43
0 -75 -4 -75 -10z"/>
</g>
</svg>
