<?xml version="1.0" standalone="no"?>
<!DOCTYPE svg PUBLIC "-//W3C//DTD SVG 20010904//EN"
 "http://www.w3.org/TR/2001/REC-SVG-20010904/DTD/svg10.dtd">
<svg version="1.0" xmlns="http://www.w3.org/2000/svg"
 width="128.000000pt" height="128.000000pt" viewBox="0 0 128.000000 128.000000"
 preserveAspectRatio="xMidYMid meet">
<g transform="translate(0.000000,128.000000) scale(0.100000,-0.100000)"
fill="#000000" stroke="none">
<path d="M90 1260 c0 -13 7 -20 20 -20 17 0 20 -7 20 -45 l0 -45 -45 0 -45 0
0 -510 0 -510 45 0 45 0 0 -45 c0 -38 -3 -45 -20 -45 -13 0 -20 -7 -20 -20 0
-18 7 -20 85 -20 77 0 85 2 85 19 0 13 -8 21 -22 23 -19 2 -24 10 -26 45 l-3
43 45 0 46 0 0 65 0 65 340 0 340 0 0 -65 0 -65 46 0 45 0 -3 -42 c-2 -36 -7
-44 -25 -46 -15 -2 -23 -10 -23 -23 0 -17 8 -19 85 -19 78 0 85 2 85 20 0 13
-7 20 -20 20 -17 0 -20 7 -20 45 l0 45 45 0 45 0 0 510 0 510 -45 0 -45 0 0
45 c0 38 3 45 20 45 13 0 20 7 20 20 0 18 -7 20 -85 20 -77 0 -85 -2 -85 -19
0 -13 8 -21 23 -23 18 -2 23 -10 25 -45 l3 -43 -45 0 -46 0 0 -65 0 -65 -340
0 -340 0 0 65 0 65 -46 0 -45 0 3 43 c2 35 7 43 26 45 14 2 22 10 22 23 0 17
-8 19 -85 19 -78 0 -85 -2 -85 -20z m120 -620 l0 -430 -40 0 -40 0 0 430 0
430 40 0 40 0 0 -430z m940 0 l0 -430 -40 0 -40 0 0 430 0 430 40 0 40 0 0
-430z m-170 153 l0 -147 -39 38 c-22 21 -46 36 -53 33 -7 -3 -76 -51 -152
-106 l-139 -100 -78 40 c-43 21 -84 39 -90 39 -7 0 -33 -17 -58 -37 -25 -20
-52 -41 -58 -46 -10 -7 -13 36 -13 212 l0 221 340 0 340 0 0 -147z m-42 -196
l42 -43 0 -107 0 -107 -340 0 -340 0 0 38 c0 35 5 43 66 92 l67 53 85 -42 84
-42 137 100 c75 55 141 100 146 100 6 1 30 -18 53 -42z"/>
<path d="M447 832 c-37 -41 -11 -102 43 -102 16 0 36 7 44 16 20 20 20 68 0
88 -21 22 -67 20 -87 -2z"/>
</g>
</svg>
