<?xml version="1.0" standalone="no"?>
<!DOCTYPE svg PUBLIC "-//W3C//DTD SVG 20010904//EN"
 "http://www.w3.org/TR/2001/REC-SVG-20010904/DTD/svg10.dtd">
<svg version="1.0" xmlns="http://www.w3.org/2000/svg"
 width="128.000000pt" height="128.000000pt" viewBox="0 0 128.000000 128.000000"
 preserveAspectRatio="xMidYMid meet">
<g transform="translate(0.000000,128.000000) scale(0.100000,-0.100000)"
fill="#000000" stroke="none">
<path d="M505 1175 c-16 -15 -25 -36 -25 -55 0 -36 38 -80 69 -80 17 0 19 -5
14 -33 -12 -76 88 -121 136 -61 12 15 21 37 21 49 0 33 -37 75 -66 75 -23 0
-24 3 -19 33 5 27 1 40 -20 65 -34 40 -75 43 -110 7z m85 -35 c22 -40 -26 -80
-58 -48 -25 25 -6 68 30 68 9 0 22 -9 28 -20z m85 -129 c9 -30 -5 -51 -35 -51
-30 0 -44 21 -35 51 4 13 16 19 35 19 19 0 31 -6 35 -19z"/>
<path d="M864 1042 c-64 -52 -166 -157 -198 -206 l-26 -38 -10 26 c-5 15 -23
35 -40 44 -16 9 -30 23 -30 30 0 25 -48 62 -80 62 -70 0 -105 -86 -55 -135
l24 -25 -89 0 c-67 0 -92 -4 -104 -16 -20 -19 -20 -15 4 -173 l20 -131 -20
-171 c-24 -205 -24 -194 -4 -213 13 -14 62 -16 384 -16 322 0 371 2 384 16 20
19 20 14 -4 214 l-20 165 21 143 c19 136 19 145 3 163 -11 12 -30 19 -54 19
l-37 0 7 40 c4 22 15 49 25 60 13 14 15 27 10 47 -4 15 -8 51 -9 78 -1 46 -3
50 -27 53 -18 2 -41 -9 -75 -36z m71 -97 c4 -14 0 -27 -14 -39 -12 -11 -21
-32 -21 -48 0 -20 -5 -28 -17 -28 -10 0 -31 -7 -47 -15 -30 -16 -75 -18 -116
-6 -24 8 -20 13 84 117 l109 109 8 -35 c4 -19 10 -44 14 -55z m-421 -47 c16
-26 -26 -68 -52 -52 -22 14 -27 41 -11 60 15 19 49 14 63 -8z m76 -78 c10 -18
8 -20 -30 -20 -41 0 -49 7 -28 28 18 18 46 14 58 -8z m410 -70 c0 -6 -127 -10
-360 -10 -233 0 -360 4 -360 10 0 6 127 10 360 10 233 0 360 -4 360 -10z m-10
-60 c0 -6 -7 -54 -16 -107 -14 -87 -14 -109 0 -231 9 -74 16 -143 16 -153 0
-18 -15 -19 -350 -19 -335 0 -350 1 -350 19 0 10 7 79 16 153 14 122 14 144 0
231 -9 53 -16 101 -16 107 0 7 121 10 350 10 229 0 350 -3 350 -10z m10 -560
c0 -6 -127 -10 -360 -10 -233 0 -360 4 -360 10 0 6 127 10 360 10 233 0 360
-4 360 -10z"/>
<path d="M880 963 c-23 -65 -42 -83 -130 -123 -20 -9 -18 -24 4 -28 68 -14
180 97 161 159 -9 27 -24 24 -35 -8z"/>
<path d="M620 629 c0 -7 -8 -18 -17 -24 -17 -13 -17 -14 0 -32 9 -11 17 -35
17 -53 0 -32 0 -33 -20 -15 -11 10 -20 30 -20 45 0 25 -4 28 -37 33 -21 2 -41
2 -44 -2 -4 -3 -4 -23 -2 -43 5 -34 8 -38 33 -38 15 0 35 -9 45 -20 18 -20 17
-20 -15 -20 -18 0 -41 7 -50 15 -15 14 -18 14 -30 0 -7 -8 -19 -15 -26 -15 -8
0 -14 -9 -14 -20 0 -11 6 -20 14 -20 7 0 19 -7 26 -15 12 -14 15 -14 30 0 9 8
32 15 50 15 32 0 33 0 15 -20 -10 -11 -30 -20 -45 -20 -25 0 -28 -4 -33 -37
-2 -21 -2 -41 2 -44 3 -4 23 -4 44 -2 33 5 37 8 37 33 0 15 9 35 20 45 20 18
20 17 20 -15 0 -18 -8 -42 -17 -53 -17 -18 -17 -19 0 -28 9 -6 17 -17 17 -24
0 -8 9 -15 20 -15 11 0 20 5 20 11 0 7 8 18 17 24 17 13 17 14 0 32 -9 11 -17
35 -17 54 l0 33 21 -21 c12 -12 22 -32 23 -44 1 -18 9 -25 36 -30 43 -9 49 -4
43 44 -5 32 -9 37 -32 37 -26 0 -51 16 -51 32 0 15 53 8 73 -9 18 -17 19 -17
32 0 6 9 17 17 24 17 6 0 11 9 11 20 0 11 -5 20 -11 20 -7 0 -18 8 -24 17 -13
17 -14 17 -32 0 -11 -9 -35 -17 -54 -17 l-34 1 28 24 c15 14 36 25 46 25 13 0
20 10 24 33 6 41 0 47 -42 39 -26 -6 -35 -13 -36 -30 -1 -13 -11 -33 -23 -45
l-22 -21 0 33 c0 19 8 43 17 54 17 18 17 19 0 32 -9 6 -17 17 -17 24 0 6 -9
11 -20 11 -11 0 -20 -5 -20 -11z"/>
</g>
</svg>
