<?xml version="1.0" standalone="no"?>
<!DOCTYPE svg PUBLIC "-//W3C//DTD SVG 20010904//EN"
 "http://www.w3.org/TR/2001/REC-SVG-20010904/DTD/svg10.dtd">
<svg version="1.0" xmlns="http://www.w3.org/2000/svg"
 width="128.000000pt" height="128.000000pt" viewBox="0 0 128.000000 128.000000"
 preserveAspectRatio="xMidYMid meet">
<g transform="translate(0.000000,128.000000) scale(0.100000,-0.100000)"
fill="#000000" stroke="none">
<path d="M510 1264 c-212 -45 -385 -215 -435 -425 -62 -266 87 -534 357 -639
76 -30 111 -59 165 -137 20 -29 40 -53 44 -53 5 0 13 9 19 20 6 11 32 46 59
78 41 50 61 63 124 89 194 79 318 218 362 406 69 293 -133 598 -440 662 -86
18 -169 18 -255 -1z m175 -84 c12 -13 16 -28 12 -49 -6 -27 5 -38 149 -172
168 -156 200 -179 254 -179 l35 -1 -24 -19 c-27 -23 -99 -27 -134 -8 -12 6
-91 75 -176 152 -84 78 -157 141 -161 141 -4 0 -77 -63 -161 -141 -85 -77
-164 -146 -176 -152 -31 -17 -100 -15 -128 4 -34 22 -31 31 8 26 43 -5 83 23
261 186 135 125 145 136 139 163 -7 37 19 69 57 69 15 0 35 -9 45 -20z m115
-336 c87 -80 161 -153 164 -161 3 -8 6 -68 6 -133 l0 -117 29 -6 c32 -7 47
-33 30 -53 -18 -22 -761 -20 -779 1 -18 22 -5 45 30 51 l30 7 0 127 0 128 162
150 c90 83 164 151 166 151 2 1 75 -65 162 -145z"/>
<path d="M508 784 l-128 -115 0 -120 0 -119 45 0 45 0 0 90 0 90 170 0 170 0
0 -90 0 -90 45 0 45 0 0 123 0 122 -125 110 c-68 60 -127 111 -132 112 -4 1
-65 -49 -135 -113z m188 -30 c35 -53 -20 -111 -83 -88 -38 13 -52 54 -29 88
13 21 25 26 56 26 31 0 43 -5 56 -26z"/>
</g>
</svg>
