<?xml version="1.0" standalone="no"?>
<!DOCTYPE svg PUBLIC "-//W3C//DTD SVG 20010904//EN"
 "http://www.w3.org/TR/2001/REC-SVG-20010904/DTD/svg10.dtd">
<svg version="1.0" xmlns="http://www.w3.org/2000/svg"
 width="128.000000pt" height="128.000000pt" viewBox="0 0 128.000000 128.000000"
 preserveAspectRatio="xMidYMid meet">
<g transform="translate(0.000000,128.000000) scale(0.100000,-0.100000)"
fill="#000000" stroke="none">
<path d="M205 1076 c-39 -18 -80 -62 -99 -108 -22 -51 -20 -58 10 -58 116 0
244 -128 244 -244 l0 -26 274 0 274 0 7 43 c10 60 28 98 66 142 39 44 119 85
168 85 33 0 34 1 28 36 -8 47 -49 99 -97 124 -37 19 -59 20 -442 20 -314 -1
-410 -4 -433 -14z"/>
<path d="M44 809 c-25 -13 -44 -49 -44 -85 0 -28 49 -84 74 -84 12 0 15 -25
18 -160 4 -185 9 -198 92 -207 29 -4 46 -11 46 -19 0 -7 11 -25 24 -41 34 -39
98 -39 132 0 13 16 24 35 24 43 0 12 36 14 230 14 216 0 230 -1 230 -18 0 -10
12 -29 26 -43 48 -45 133 -25 148 35 4 19 15 25 48 29 29 4 50 14 65 32 22 25
23 35 23 175 l0 150 33 13 c46 20 62 43 61 90 -3 100 -131 118 -207 28 -26
-31 -51 -101 -62 -173 l-6 -38 -363 0 -363 0 -6 56 c-7 70 -49 157 -89 185
-34 25 -103 34 -134 18z"/>
</g>
</svg>
