<?xml version="1.0" standalone="no"?>
<!DOCTYPE svg PUBLIC "-//W3C//DTD SVG 20010904//EN"
 "http://www.w3.org/TR/2001/REC-SVG-20010904/DTD/svg10.dtd">
<svg version="1.0" xmlns="http://www.w3.org/2000/svg"
 width="128.000000pt" height="128.000000pt" viewBox="0 0 128.000000 128.000000"
 preserveAspectRatio="xMidYMid meet">
<g transform="translate(0.000000,128.000000) scale(0.100000,-0.100000)"
fill="#000000" stroke="none">
<path d="M185 1151 c-11 -5 -29 -19 -40 -31 -19 -21 -20 -36 -20 -481 l0 -459
28 -27 27 -28 460 0 460 0 27 28 28 27 0 460 0 460 -28 27 -27 28 -448 2
c-246 1 -456 -2 -467 -6z m890 -511 l0 -435 -435 0 -435 0 -3 425 c-1 234 0
431 3 438 3 10 96 12 437 10 l433 -3 0 -435z"/>
<path d="M309 1005 c-49 -27 -53 -56 -29 -236 12 -90 26 -171 31 -180 25 -47
37 -49 334 -49 355 0 322 -21 355 229 24 182 21 210 -31 236 -41 22 -621 21
-660 0z m631 -82 c0 -41 -32 -270 -40 -290 -10 -23 -10 -23 -260 -23 -250 0
-250 0 -260 23 -8 20 -40 249 -40 290 0 16 24 17 300 17 276 0 300 -1 300 -17z"/>
<path d="M301 454 c-60 -50 -48 -147 23 -180 74 -36 156 16 156 98 0 32 -7 47
-34 74 -44 44 -99 47 -145 8z m94 -84 c0 -18 -6 -26 -23 -28 -13 -2 -25 3 -28
12 -10 26 4 48 28 44 17 -2 23 -10 23 -28z"/>
<path d="M564 446 c-46 -46 -48 -101 -5 -148 26 -29 35 -33 81 -33 46 0 55 4
81 33 43 47 41 102 -5 148 -28 28 -42 34 -76 34 -34 0 -48 -6 -76 -34z m101
-76 c0 -18 -6 -26 -23 -28 -13 -2 -25 3 -28 12 -10 26 4 48 28 44 17 -2 23
-10 23 -28z"/>
<path d="M834 446 c-27 -27 -34 -42 -34 -74 0 -82 82 -134 156 -98 104 49 67
206 -48 206 -32 0 -47 -7 -74 -34z m101 -76 c0 -18 -6 -26 -23 -28 -13 -2 -25
3 -28 12 -10 26 4 48 28 44 17 -2 23 -10 23 -28z"/>
</g>
</svg>
