<?xml version="1.0" standalone="no"?>
<!DOCTYPE svg PUBLIC "-//W3C//DTD SVG 20010904//EN"
 "http://www.w3.org/TR/2001/REC-SVG-20010904/DTD/svg10.dtd">
<svg version="1.0" xmlns="http://www.w3.org/2000/svg"
 width="128.000000pt" height="128.000000pt" viewBox="0 0 128.000000 128.000000"
 preserveAspectRatio="xMidYMid meet">
<g transform="translate(0.000000,128.000000) scale(0.100000,-0.100000)"
fill="#000000" stroke="none">
<path d="M382 1243 c-73 -93 -98 -186 -68 -257 20 -48 20 -52 0 -35 -9 7 -29
38 -44 70 -29 56 -70 99 -96 99 -8 0 -3 -10 12 -25 13 -13 39 -57 58 -97 35
-79 82 -128 122 -128 23 0 24 -2 24 -77 l0 -78 -25 28 c-43 45 -83 60 -163 60
-100 0 -109 -9 -88 -92 40 -155 116 -218 242 -198 l34 6 0 -160 0 -159 -170 0
c-168 0 -171 0 -195 -25 -36 -35 -36 -115 0 -150 l24 -25 589 0 c680 0 631 -7
640 93 4 50 2 58 -21 81 -26 26 -27 26 -197 26 l-170 0 0 140 0 140 73 0 c131
0 190 52 219 191 17 83 12 89 -76 89 -111 0 -150 -19 -186 -89 l-29 -56 -1 51
c0 40 5 55 21 70 32 28 69 113 69 160 0 53 -20 111 -62 174 -42 64 -64 65
-107 5 -91 -126 -93 -230 -8 -331 25 -29 27 -39 27 -123 l0 -92 -35 35 c-42
42 -99 60 -178 54 -77 -6 -83 -13 -67 -85 15 -71 49 -140 85 -173 23 -22 37
-25 111 -29 l84 -3 0 -64 0 -64 -190 0 -190 0 2 332 3 332 29 7 c44 12 76 47
111 124 18 39 44 82 58 98 16 16 21 27 13 27 -26 0 -67 -43 -96 -99 -15 -32
-35 -63 -44 -70 -15 -12 -15 -10 -1 22 23 55 19 124 -11 187 -31 67 -70 120
-89 120 -7 0 -27 -17 -43 -37z m73 -103 c14 -27 25 -64 25 -81 0 -34 -44 -119
-61 -119 -6 0 -22 25 -36 56 -29 64 -27 98 12 156 14 21 27 38 30 38 3 0 16
-22 30 -50z m442 -160 c28 -53 29 -89 4 -139 -35 -67 -45 -69 -75 -9 -14 28
-26 63 -26 76 0 31 50 124 64 119 5 -2 20 -23 33 -47z m-599 -266 c23 -15 44
-54 58 -109 l7 -28 -53 7 c-30 4 -62 12 -72 17 -29 16 -75 119 -60 134 11 11
93 -4 120 -21z m822 -41 c0 -10 -9 -37 -20 -61 -22 -48 -64 -72 -125 -72 -41
0 -44 14 -16 76 25 55 55 74 113 74 39 0 48 -3 48 -17z m-375 -154 c13 -13 30
-44 38 -69 l15 -45 -44 -3 c-24 -2 -56 3 -71 10 -27 13 -56 61 -69 112 l-7 29
57 -5 c43 -4 63 -11 81 -29z m473 -416 l-3 -28 -577 -3 -578 -2 0 23 c0 13 3
27 7 30 3 4 265 7 580 7 l574 0 -3 -27z"/>
</g>
</svg>
