<?xml version="1.0" standalone="no"?>
<!DOCTYPE svg PUBLIC "-//W3C//DTD SVG 20010904//EN"
 "http://www.w3.org/TR/2001/REC-SVG-20010904/DTD/svg10.dtd">
<svg version="1.0" xmlns="http://www.w3.org/2000/svg"
 width="128.000000pt" height="128.000000pt" viewBox="0 0 128.000000 128.000000"
 preserveAspectRatio="xMidYMid meet">
<g transform="translate(0.000000,128.000000) scale(0.100000,-0.100000)"
fill="#000000" stroke="none">
<path d="M500 1264 c-234 -50 -436 -254 -485 -489 -95 -454 306 -855 760 -760
238 50 440 252 490 490 95 456 -309 857 -765 759z m187 -218 l39 -54 34 19
c43 23 66 24 74 3 16 -41 -3 -204 -31 -258 -23 -47 -72 -94 -105 -101 l-28 -7
0 -203 c0 -170 -2 -205 -15 -215 -10 -8 -19 -10 -25 -4 -5 5 -11 101 -12 213
l-3 204 -30 10 c-39 12 -82 53 -106 100 -24 46 -45 188 -35 240 8 41 17 44 69
22 l35 -15 42 50 c23 28 46 50 50 50 5 0 26 -24 47 -54z m245 -434 c17 -17
-18 -86 -65 -129 -36 -32 -44 -35 -85 -30 -59 7 -86 36 -78 86 11 70 78 104
174 90 24 -3 48 -11 54 -17z m-418 4 c44 -18 66 -51 66 -98 0 -31 -5 -40 -30
-53 -38 -20 -85 -19 -121 2 -34 20 -75 76 -84 115 -6 24 -3 28 27 37 49 14
104 13 142 -3z"/>
<path d="M600 989 c-33 -41 -44 -44 -94 -24 -18 8 -19 5 -12 -64 10 -116 46
-179 112 -201 67 -22 141 27 164 108 5 20 13 66 16 101 l7 63 -31 -16 c-46
-24 -58 -20 -92 29 -17 25 -32 45 -34 45 -1 0 -17 -18 -36 -41z"/>
<path d="M802 583 c-12 -2 -30 -15 -38 -29 -41 -61 34 -77 86 -18 41 47 27 61
-48 47z"/>
<path d="M410 566 c0 -7 11 -25 25 -40 20 -22 33 -27 62 -24 46 4 52 20 19 53
-19 18 -36 25 -66 25 -27 0 -40 -4 -40 -14z"/>
</g>
</svg>
