<?xml version="1.0" standalone="no"?>
<!DOCTYPE svg PUBLIC "-//W3C//DTD SVG 20010904//EN"
 "http://www.w3.org/TR/2001/REC-SVG-20010904/DTD/svg10.dtd">
<svg version="1.0" xmlns="http://www.w3.org/2000/svg"
 width="128.000000pt" height="128.000000pt" viewBox="0 0 128.000000 128.000000"
 preserveAspectRatio="xMidYMid meet">
<g transform="translate(0.000000,128.000000) scale(0.100000,-0.100000)"
fill="#000000" stroke="none">
<path d="M590 1228 c-73 -81 -75 -78 45 -78 58 0 105 3 105 8 0 4 -24 32 -53
63 l-52 57 -45 -50z m120 -55 c0 -10 -20 -13 -75 -13 -41 0 -75 3 -75 6 0 3
17 25 38 49 l37 44 38 -37 c20 -20 37 -42 37 -49z"/>
<path d="M310 734 c-107 -207 -206 -399 -220 -426 l-25 -49 65 -125 65 -124
442 0 441 0 66 123 66 124 -220 424 -219 424 -133 3 -133 2 -195 -376z m443
359 c2 -5 0 -27 -5 -50 l-9 -43 -99 0 c-54 0 -101 3 -103 8 -3 4 -8 26 -12 50
l-7 42 116 0 c63 0 117 -3 119 -7z m-232 -79 c2 -21 -50 -129 -175 -371 -169
-326 -179 -342 -212 -353 -20 -7 -37 -10 -39 -8 -2 2 335 660 394 767 11 20
15 22 22 9 5 -8 9 -28 10 -44z m457 -335 c112 -215 200 -394 197 -397 -3 -3
-20 1 -38 10 -28 14 -53 57 -209 358 -163 316 -177 346 -172 382 4 21 9 38 13
38 3 0 97 -176 209 -391z m-237 299 c6 -7 89 -164 184 -348 l174 -335 -49 -90
-48 -90 -364 -3 -363 -2 -47 94 -47 95 173 335 c96 184 177 340 181 345 9 16
191 14 206 -1z m-519 -790 l46 -86 -32 -31 c-18 -17 -35 -31 -39 -31 -4 0 -31
49 -61 108 l-54 108 41 16 c23 9 45 13 48 9 3 -3 26 -45 51 -93z m966 67 c4
-4 -83 -175 -102 -200 -15 -20 -15 -20 -46 11 l-32 31 37 74 c62 122 60 120
103 102 20 -8 38 -16 40 -18z m-166 -182 c38 -44 51 -43 -388 -43 l-418 0 29
30 29 30 366 0 c337 0 368 -1 382 -17z"/>
<path d="M631 831 c-11 -21 -29 -41 -41 -44 -12 -3 -20 -13 -20 -26 0 -16 -6
-21 -28 -21 -18 0 -38 -10 -53 -26 -24 -25 -24 -28 -24 -229 0 -201 0 -204 24
-229 14 -14 31 -26 38 -26 7 0 18 -11 23 -25 10 -25 11 -26 102 -23 86 3 93 5
96 24 2 12 14 26 28 33 13 6 29 22 34 37 6 14 10 108 10 210 0 206 -8 239 -58
250 -48 10 -52 13 -52 34 0 13 -7 20 -18 20 -25 0 -50 46 -34 62 9 9 12 8 12
-5 0 -20 11 -22 28 -5 9 9 14 6 21 -13 9 -21 10 -22 10 -3 1 28 -18 44 -51 44
-22 0 -32 -8 -47 -39z m69 -76 c0 -21 5 -25 29 -25 47 0 73 -29 79 -88 l5 -52
-76 0 c-52 0 -78 -4 -86 -14 -8 -9 -11 -48 -9 -112 l3 -99 83 -3 82 -3 0 -33
c0 -19 -9 -45 -21 -60 -20 -26 -22 -26 -145 -26 -174 0 -164 -15 -164 242 0
193 1 203 22 225 18 20 31 23 90 23 39 0 68 -4 68 -10 0 -5 -25 -10 -56 -10
-34 0 -53 -4 -49 -10 10 -16 101 -12 115 5 19 22 -5 45 -46 45 -24 0 -34 5
-34 15 0 12 13 15 55 15 52 0 55 -1 55 -25z m110 -195 c0 -6 -28 -10 -65 -10
-63 0 -65 -1 -65 -25 0 -24 2 -25 65 -25 l66 0 -3 -62 -3 -63 -75 0 -75 0 -3
98 -3 97 81 0 c47 0 80 -4 80 -10z m-22 -37 c2 -9 -11 -13 -47 -13 -48 0 -61
7 -44 24 12 11 86 2 91 -11z m-50 -315 c-3 -9 -30 -13 -88 -13 -58 0 -85 4
-87 13 -4 9 18 12 87 12 69 0 91 -3 88 -12z"/>
<path d="M503 470 c0 -41 2 -58 4 -37 2 20 2 54 0 75 -2 20 -4 3 -4 -38z"/>
<path d="M502 300 c0 -19 2 -27 5 -17 2 9 2 25 0 35 -3 9 -5 1 -5 -18z"/>
<path d="M23 130 l-20 -79 73 -25 c41 -13 74 -20 74 -15 0 14 -94 199 -101
199 -4 0 -16 -36 -26 -80z m101 -99 c-5 -6 -94 21 -100 30 -4 8 8 69 22 109 4
9 20 -13 44 -60 21 -41 36 -77 34 -79z"/>
<path d="M1223 198 c-18 -23 -94 -180 -90 -185 3 -2 36 5 75 16 l69 21 -18 76
c-20 86 -22 89 -36 72z m26 -74 c7 -31 9 -59 4 -63 -7 -7 -83 -31 -97 -31 -3
0 11 34 31 75 21 41 40 75 44 75 3 0 11 -25 18 -56z"/>
</g>
</svg>
