<?xml version="1.0" standalone="no"?>
<!DOCTYPE svg PUBLIC "-//W3C//DTD SVG 20010904//EN"
 "http://www.w3.org/TR/2001/REC-SVG-20010904/DTD/svg10.dtd">
<svg version="1.0" xmlns="http://www.w3.org/2000/svg"
 width="128.000000pt" height="128.000000pt" viewBox="0 0 128.000000 128.000000"
 preserveAspectRatio="xMidYMid meet">
<g transform="translate(0.000000,128.000000) scale(0.100000,-0.100000)"
fill="#000000" stroke="none">
<path d="M116 1148 c-8 -18 -37 -111 -66 -206 -49 -159 -52 -175 -41 -212 40
-133 202 -174 309 -77 20 19 23 19 35 5 25 -33 81 -58 129 -58 58 0 95 13 131
48 l27 26 28 -26 c35 -35 72 -48 130 -48 48 0 104 25 129 58 12 14 15 14 35
-5 107 -97 269 -56 309 77 11 37 8 53 -41 212 -29 95 -58 188 -66 206 l-13 32
-511 0 -511 0 -13 -32z m1052 -209 l54 -176 -17 -37 c-21 -44 -59 -66 -116
-66 -33 0 -47 6 -75 34 -20 20 -34 44 -34 58 0 13 -6 33 -14 44 -21 27 -49 7
-57 -42 -9 -53 -56 -94 -110 -94 -73 0 -112 34 -128 111 -5 27 -12 34 -31 34
-20 0 -26 -6 -30 -35 -13 -74 -55 -110 -129 -110 -54 0 -101 41 -110 94 -8 49
-36 69 -57 42 -8 -11 -14 -31 -14 -44 0 -14 -14 -38 -34 -58 -28 -28 -42 -34
-76 -34 -53 0 -95 25 -116 68 -16 34 -15 38 36 206 29 94 54 174 57 179 2 4
216 6 476 5 l471 -3 54 -176z"/>
<path d="M157 554 c-12 -12 -8 -373 4 -397 30 -58 16 -57 480 -57 l426 0 26
24 c14 13 29 35 32 48 3 12 4 104 3 203 l-3 180 -25 0 -25 0 -3 -184 c-1 -115
-7 -189 -13 -198 -17 -19 -821 -19 -838 0 -6 9 -12 83 -13 198 -3 177 -4 184
-23 187 -12 2 -24 0 -28 -4z"/>
</g>
</svg>
