<?xml version="1.0" standalone="no"?>
<!DOCTYPE svg PUBLIC "-//W3C//DTD SVG 20010904//EN"
 "http://www.w3.org/TR/2001/REC-SVG-20010904/DTD/svg10.dtd">
<svg version="1.0" xmlns="http://www.w3.org/2000/svg"
 width="128.000000pt" height="128.000000pt" viewBox="0 0 128.000000 128.000000"
 preserveAspectRatio="xMidYMid meet">
<g transform="translate(0.000000,128.000000) scale(0.100000,-0.100000)"
fill="#000000" stroke="none">
<path d="M320 1207 c-61 -32 -83 -76 -77 -153 2 -33 12 -72 21 -86 32 -50 51
-53 341 -56 149 -2 290 0 314 3 126 19 163 194 59 278 -94 75 -257 26 -320
-96 l-20 -41 -20 39 c-29 58 -57 85 -113 111 -65 31 -128 31 -185 1z m176 -88
c26 -24 63 -92 64 -116 0 -10 -26 -13 -95 -13 -88 0 -98 2 -120 25 -31 30 -32
73 -3 110 19 25 26 27 75 23 38 -3 61 -11 79 -29z m424 21 c10 -5 24 -25 30
-44 9 -28 8 -40 -4 -64 -19 -36 -38 -42 -143 -42 -96 0 -99 4 -60 80 33 67
120 101 177 70z"/>
<path d="M290 798 c-26 -14 -57 -41 -75 -66 -27 -40 -30 -51 -33 -148 l-4
-104 196 0 196 0 0 170 0 170 -118 0 c-102 0 -124 -3 -162 -22z"/>
<path d="M710 651 l0 -171 190 0 190 0 0 103 c0 94 -2 107 -26 143 -14 22 -42
51 -62 64 -32 23 -47 25 -164 28 l-128 4 0 -171z"/>
<path d="M180 253 c0 -71 5 -98 24 -138 44 -95 89 -115 251 -115 l115 0 0 170
0 170 -195 0 -195 0 0 -87z"/>
<path d="M710 170 l0 -170 115 0 c130 0 163 9 212 61 45 47 53 77 53 185 l0
94 -190 0 -190 0 0 -170z"/>
</g>
</svg>
