<?xml version="1.0" standalone="no"?>
<!DOCTYPE svg PUBLIC "-//W3C//DTD SVG 20010904//EN"
 "http://www.w3.org/TR/2001/REC-SVG-20010904/DTD/svg10.dtd">
<svg version="1.0" xmlns="http://www.w3.org/2000/svg"
 width="128.000000pt" height="128.000000pt" viewBox="0 0 128.000000 128.000000"
 preserveAspectRatio="xMidYMid meet">
<g transform="translate(0.000000,128.000000) scale(0.100000,-0.100000)"
fill="#000000" stroke="none">
<path d="M0 640 l0 -640 525 0 525 0 0 60 0 60 115 0 115 0 0 520 0 520 -115
0 -115 0 0 60 0 60 -525 0 -525 0 0 -640z m990 550 c0 -27 3 -30 30 -30 25 0
30 -4 30 -25 0 -25 1 -25 85 -25 l85 0 0 -470 0 -470 -85 0 c-84 0 -85 0 -85
-25 0 -21 -5 -25 -30 -25 -27 0 -30 -3 -30 -30 l0 -30 -465 0 -465 0 0 580 0
580 465 0 465 0 0 -30z"/>
<path d="M497 832 c-248 -248 -257 -259 -239 -275 10 -9 23 -17 28 -17 5 0
124 115 264 255 219 219 253 257 244 273 -6 9 -17 18 -25 20 -8 1 -130 -114
-272 -256z"/>
<path d="M497 482 l-258 -258 21 -19 c21 -19 22 -18 282 242 227 227 260 264
249 277 -8 9 -19 16 -25 16 -6 0 -127 -116 -269 -258z"/>
</g>
</svg>
