<?xml version="1.0" standalone="no"?>
<!DOCTYPE svg PUBLIC "-//W3C//DTD SVG 20010904//EN"
 "http://www.w3.org/TR/2001/REC-SVG-20010904/DTD/svg10.dtd">
<svg version="1.0" xmlns="http://www.w3.org/2000/svg"
 width="128.000000pt" height="128.000000pt" viewBox="0 0 128.000000 128.000000"
 preserveAspectRatio="xMidYMid meet">
<g transform="translate(0.000000,128.000000) scale(0.100000,-0.100000)"
fill="#000000" stroke="none">
<path d="M626 1154 c-19 -28 -23 -41 -14 -51 16 -20 34 -16 55 11 l18 25 190
-125 c105 -69 191 -129 193 -132 1 -4 -72 -20 -163 -36 -95 -17 -170 -35 -176
-42 -9 -11 -3 -49 25 -161 l37 -146 -116 -174 c-114 -171 -130 -208 -101 -233
37 -30 58 -10 186 183 146 221 152 223 126 30 -19 -142 -20 -185 -4 -201 16
-16 53 -15 68 2 6 8 21 82 32 165 l21 150 -42 167 c-23 92 -40 169 -37 171 2
3 48 13 101 24 134 25 135 26 135 58 0 24 -24 43 -237 183 -131 86 -245 160
-255 163 -11 5 -24 -4 -42 -31z"/>
<path d="M112 638 l3 -533 33 -3 32 -3 0 379 c0 292 3 382 13 389 6 6 82 38
167 73 85 34 159 65 163 69 4 5 -69 36 -163 71 -95 35 -174 69 -177 76 -3 8
-20 14 -39 14 l-34 0 2 -532z"/>
<path d="M685 985 c-53 -52 -18 -135 56 -135 47 0 79 34 79 82 0 70 -86 103
-135 53z"/>
</g>
</svg>
