<?xml version="1.0" standalone="no"?>
<!DOCTYPE svg PUBLIC "-//W3C//DTD SVG 20010904//EN"
 "http://www.w3.org/TR/2001/REC-SVG-20010904/DTD/svg10.dtd">
<svg version="1.0" xmlns="http://www.w3.org/2000/svg"
 width="128.000000pt" height="128.000000pt" viewBox="0 0 128.000000 128.000000"
 preserveAspectRatio="xMidYMid meet">
<g transform="translate(0.000000,128.000000) scale(0.100000,-0.100000)"
fill="#000000" stroke="none">
<path d="M662 1195 c-46 -61 -69 -126 -77 -221 l-7 -81 29 -21 c29 -20 29 -20
60 -1 29 18 31 23 35 97 5 79 22 127 61 170 l21 22 -39 40 c-22 22 -42 40 -45
40 -3 0 -20 -20 -38 -45z"/>
<path d="M116 1199 c-32 -5 -61 -11 -64 -14 -11 -11 35 -92 74 -131 60 -61
137 -87 239 -81 44 2 92 10 107 17 l28 13 -27 50 c-65 118 -195 171 -357 146z"/>
<path d="M244 841 c-127 -58 -184 -259 -125 -440 30 -91 122 -235 182 -283
100 -81 158 -89 270 -37 l70 33 57 -29 c80 -39 116 -46 168 -30 120 36 254
206 300 380 31 116 10 260 -51 339 -86 113 -270 111 -451 -4 -20 -12 -29 -10
-90 22 -131 69 -248 86 -330 49z"/>
</g>
</svg>
