<?xml version="1.0" standalone="no"?>
<!DOCTYPE svg PUBLIC "-//W3C//DTD SVG 20010904//EN"
 "http://www.w3.org/TR/2001/REC-SVG-20010904/DTD/svg10.dtd">
<svg version="1.0" xmlns="http://www.w3.org/2000/svg"
 width="128.000000pt" height="128.000000pt" viewBox="0 0 128.000000 128.000000"
 preserveAspectRatio="xMidYMid meet">
<g transform="translate(0.000000,128.000000) scale(0.100000,-0.100000)"
fill="#000000" stroke="none">
<path d="M613 1253 c-9 -3 -13 -33 -13 -99 l0 -94 34 0 c42 0 46 10 46 104 0
87 -17 110 -67 89z"/>
<path d="M610 1016 c0 -14 5 -28 10 -31 6 -3 10 -17 10 -30 0 -21 -5 -24 -47
-27 l-48 -3 -3 -71 c-2 -39 2 -83 7 -97 10 -26 12 -27 100 -27 55 0 92 4 97
11 10 17 17 134 10 163 -6 23 -11 26 -51 26 -41 0 -45 2 -45 24 0 14 5 28 10
31 6 3 10 17 10 31 0 20 -5 24 -30 24 -25 0 -30 -4 -30 -24z"/>
<path d="M130 839 c17 -25 34 -64 37 -87 l6 -42 -72 0 -71 0 0 -58 c0 -78 19
-97 100 -97 35 0 64 6 74 14 11 9 35 14 59 13 23 -2 54 4 68 11 22 12 30 12
50 1 13 -7 42 -13 64 -14 23 0 58 -9 80 -20 22 -11 55 -20 75 -20 36 0 100 32
100 50 0 7 6 8 19 0 27 -14 91 -12 122 4 22 11 30 11 50 0 30 -16 93 -18 121
-3 17 9 23 8 30 -5 22 -40 95 -56 157 -35 41 14 51 35 51 103 l0 56 -71 0 -72
0 6 42 c3 23 20 62 37 87 l31 46 -49 -51 -48 -51 -47 51 -47 51 30 -51 c17
-27 33 -67 37 -87 l6 -37 -82 0 -81 0 0 28 c0 15 7 38 16 50 9 13 14 26 11 28
-3 3 -15 -8 -26 -25 l-22 -30 -30 32 -30 32 21 -35 c11 -19 20 -45 20 -57 l0
-23 -221 0 -222 0 6 36 c3 20 14 45 23 55 9 11 12 19 7 19 -6 0 -20 -14 -31
-31 l-19 -31 -23 32 c-12 17 -24 29 -27 26 -3 -2 2 -15 11 -28 9 -12 16 -35
16 -50 l0 -28 -81 0 -82 0 6 37 c4 20 20 60 37 87 l30 51 -47 -51 -47 -51 -48
51 -49 51 31 -46z"/>
<path d="M335 570 c-11 -5 -40 -9 -65 -10 -25 0 -56 -7 -70 -15 -32 -19 -107
-19 -143 -1 l-27 15 0 -140 0 -139 610 0 610 0 0 134 0 135 -37 -16 c-46 -19
-121 -13 -160 13 -49 32 -316 32 -366 -1 -44 -28 -117 -31 -169 -7 -24 11 -63
22 -88 24 -25 3 -52 7 -60 11 -8 3 -24 2 -35 -3z m554 -49 c20 -13 5 -41 -22
-41 -39 0 -63 34 -29 43 28 8 36 7 51 -2z m-389 -25 c27 -29 21 -52 -15 -66
-41 -15 -60 -12 -89 15 -15 14 -31 25 -37 25 -21 0 -7 22 24 35 50 22 90 19
117 -9z m-292 2 c31 -31 -10 -58 -47 -31 -27 18 -27 31 2 36 12 2 24 5 28 6 3
0 10 -4 17 -11z m914 -25 c22 -20 23 -46 2 -64 -22 -18 -84 -17 -98 2 -6 9
-21 21 -34 28 -12 7 -20 17 -16 22 18 30 117 39 146 12z m-332 -48 l24 -25
-22 -22 c-29 -29 -81 -29 -110 0 -12 12 -26 22 -32 22 -22 0 -8 29 18 38 51
19 97 14 122 -13z m-471 -28 c26 -29 20 -51 -18 -67 -29 -12 -81 -5 -81 11 0
5 -11 15 -25 21 -33 15 -32 34 3 46 50 19 97 14 121 -11z m641 -12 c15 -19 5
-35 -24 -35 -38 0 -61 35 -28 43 31 8 39 7 52 -8z m-429 -31 c10 -13 10 -17
-2 -25 -22 -14 -44 -11 -63 10 -13 15 -14 20 -4 24 26 11 56 7 69 -9z"/>
</g>
</svg>
