<?xml version="1.0" standalone="no"?>
<!DOCTYPE svg PUBLIC "-//W3C//DTD SVG 20010904//EN"
 "http://www.w3.org/TR/2001/REC-SVG-20010904/DTD/svg10.dtd">
<svg version="1.0" xmlns="http://www.w3.org/2000/svg"
 width="128.000000pt" height="128.000000pt" viewBox="0 0 128.000000 128.000000"
 preserveAspectRatio="xMidYMid meet">
<g transform="translate(0.000000,128.000000) scale(0.100000,-0.100000)"
fill="#000000" stroke="none">
<path d="M367 1274 c-4 -4 -7 -200 -7 -435 l0 -428 -32 18 c-105 61 -245 13
-303 -102 -75 -151 38 -327 209 -327 78 0 171 66 206 145 l17 40 20 -45 c64
-146 243 -185 359 -78 114 105 96 277 -40 362 -60 37 -140 41 -203 10 l-43
-21 -2 431 -3 431 -85 3 c-47 1 -89 0 -93 -4z m-67 -930 c76 -46 81 -178 8
-226 -113 -74 -254 35 -206 160 27 72 129 106 198 66z m461 -7 c94 -63 68
-205 -43 -239 -82 -24 -168 43 -168 133 0 42 34 98 70 116 40 20 103 16 141
-10z"/>
<path d="M730 1185 l0 -95 180 0 180 0 0 -45 0 -45 -180 0 -180 0 0 -45 0 -45
180 0 180 0 0 -45 0 -45 -180 0 -180 0 0 -45 0 -45 180 0 180 0 0 -45 0 -45
-180 0 -180 0 0 -45 0 -45 180 0 180 0 0 -275 0 -275 95 0 95 0 0 548 c0 351
-4 561 -11 585 -13 49 -63 105 -114 128 -34 16 -68 19 -232 19 l-193 0 0 -95z"/>
</g>
</svg>
