<?xml version="1.0" standalone="no"?>
<!DOCTYPE svg PUBLIC "-//W3C//DTD SVG 20010904//EN"
 "http://www.w3.org/TR/2001/REC-SVG-20010904/DTD/svg10.dtd">
<svg version="1.0" xmlns="http://www.w3.org/2000/svg"
 width="128.000000pt" height="128.000000pt" viewBox="0 0 128.000000 128.000000"
 preserveAspectRatio="xMidYMid meet">
<g transform="translate(0.000000,128.000000) scale(0.100000,-0.100000)"
fill="#000000" stroke="none">
<path d="M175 1151 c-71 -45 -95 -80 -95 -142 0 -42 12 -64 131 -250 71 -112
143 -216 159 -231 42 -39 91 -45 135 -19 20 12 38 21 41 21 2 0 -15 -29 -38
-65 -35 -54 -47 -64 -63 -59 -11 4 -45 9 -75 11 -61 5 -104 -16 -144 -70 -30
-40 -30 -144 0 -184 75 -102 211 -99 281 6 13 19 23 43 23 54 0 18 99 176 110
176 11 0 110 -158 110 -176 0 -11 10 -35 23 -54 70 -105 206 -108 281 -6 30
40 30 144 0 184 -40 54 -83 75 -144 70 -30 -2 -64 -7 -75 -11 -16 -5 -28 5
-63 59 -23 36 -40 65 -38 65 3 0 21 -9 41 -21 44 -26 93 -20 135 19 16 15 88
119 159 231 118 184 131 209 131 249 0 27 -8 57 -20 77 -22 35 -129 105 -161
105 -23 0 -53 -41 -239 -318 -74 -111 -137 -202 -140 -202 -3 0 -66 91 -140
202 -194 289 -216 318 -242 317 -13 0 -50 -17 -83 -38z m189 -171 c403 -594
420 -620 404 -636 -13 -13 -44 29 -276 370 -144 211 -262 392 -262 401 0 42
42 -1 134 -135z m686 134 c0 -8 -79 -132 -176 -275 -156 -229 -178 -257 -189
-242 -7 10 -11 22 -7 28 15 27 317 472 330 488 19 21 42 22 42 1z m-697 -268
c92 -135 167 -251 167 -259 0 -8 -16 -22 -35 -31 -59 -28 -74 -13 -221 214
-144 222 -155 251 -112 297 12 13 24 23 28 23 3 0 81 -110 173 -244z m774 222
c46 -43 34 -73 -111 -298 -147 -227 -162 -242 -221 -214 -19 9 -35 23 -35 30
0 14 329 504 339 504 2 0 15 -10 28 -22z m-528 -602 c9 -11 3 -27 -31 -75 -37
-54 -44 -59 -57 -47 -12 13 -9 22 25 75 21 34 42 61 45 61 4 0 12 -6 18 -14z
m-179 -111 c102 -53 60 -215 -55 -215 -38 0 -83 26 -100 60 -53 103 52 208
155 155z m549 0 c28 -14 61 -68 61 -99 0 -60 -57 -116 -118 -116 -42 0 -95 39
-106 78 -29 101 71 185 163 137z"/>
</g>
</svg>
