<?xml version="1.0" standalone="no"?>
<!DOCTYPE svg PUBLIC "-//W3C//DTD SVG 20010904//EN"
 "http://www.w3.org/TR/2001/REC-SVG-20010904/DTD/svg10.dtd">
<svg version="1.0" xmlns="http://www.w3.org/2000/svg"
 width="128.000000pt" height="128.000000pt" viewBox="0 0 128.000000 128.000000"
 preserveAspectRatio="xMidYMid meet">
<g transform="translate(0.000000,128.000000) scale(0.100000,-0.100000)"
fill="#000000" stroke="none">
<path d="M496 1184 c-9 -8 -16 -23 -16 -33 0 -36 20 -41 166 -41 120 0 143 2
148 16 10 25 7 42 -10 58 -23 23 -265 23 -288 0z"/>
<path d="M178 1144 c-58 -31 -58 -32 -58 -516 0 -402 2 -446 18 -478 32 -65
29 -65 509 -65 423 0 432 0 460 21 53 40 53 36 53 512 0 496 -1 501 -64 527
-41 18 -142 20 -152 4 -11 -18 17 -29 77 -29 45 0 60 -4 77 -23 22 -23 22 -25
22 -474 0 -429 -1 -452 -19 -474 l-19 -24 -424 -3 -424 -3 -35 24 -34 23 -3
454 c-2 452 -2 454 19 476 18 19 34 24 88 26 53 2 66 6 69 21 3 15 -5 17 -65
17 -40 -1 -79 -7 -95 -16z"/>
<path d="M723 895 c-39 -16 -65 -54 -67 -97 -2 -46 26 -44 35 2 8 35 40 70 65
70 15 0 19 25 6 34 -4 2 -21 -2 -39 -9z"/>
<path d="M484 880 c-77 -31 17 -147 100 -123 61 17 42 88 -31 119 -37 16 -40
16 -69 4z m86 -50 c27 -27 25 -40 -8 -40 -32 0 -72 25 -72 46 0 21 56 18 80
-6z"/>
<path d="M454 722 c-36 -23 -62 -72 -70 -135 -13 -96 49 -212 140 -260 58 -30
174 -31 232 0 145 77 188 272 83 376 l-39 39 -63 -7 c-77 -8 -115 -8 -192 0
-49 5 -65 3 -91 -13z m140 -28 c43 -15 51 -15 89 0 53 20 80 20 116 1 80 -41
82 -205 3 -288 -84 -89 -212 -97 -302 -19 -53 44 -79 101 -80 168 0 70 17 112
54 135 38 23 59 24 120 3z"/>
</g>
</svg>
