<?xml version="1.0" standalone="no"?>
<!DOCTYPE svg PUBLIC "-//W3C//DTD SVG 20010904//EN"
 "http://www.w3.org/TR/2001/REC-SVG-20010904/DTD/svg10.dtd">
<svg version="1.0" xmlns="http://www.w3.org/2000/svg"
 width="128.000000pt" height="128.000000pt" viewBox="0 0 128.000000 128.000000"
 preserveAspectRatio="xMidYMid meet">
<g transform="translate(0.000000,128.000000) scale(0.100000,-0.100000)"
fill="#000000" stroke="none">
<path d="M1089 1242 c-148 -95 -235 -286 -210 -459 23 -154 92 -264 216 -347
22 -14 43 -26 47 -26 5 0 8 24 8 53 0 50 -2 53 -55 100 -76 67 -117 152 -123
258 -3 48 0 97 8 125 18 63 81 155 130 189 38 27 40 30 40 81 0 30 -4 54 -8
54 -4 0 -28 -13 -53 -28z"/>
<path d="M328 1208 c-12 -35 -23 -47 -62 -67 -79 -41 -142 -104 -162 -163 -22
-68 -15 -165 18 -238 27 -60 107 -165 117 -155 3 4 12 23 18 43 10 31 12 32 7
7 -18 -109 -18 -110 16 -148 58 -67 149 -73 215 -16 144 127 -49 345 -196 222
l-32 -27 -24 29 c-77 96 -102 208 -64 283 24 47 46 66 101 91 l45 19 219 -39
c121 -21 221 -37 223 -35 6 6 84 209 81 211 -4 4 -396 25 -455 25 l-51 0 -14
-42z"/>
<path d="M1190 1083 c-89 -59 -131 -127 -138 -226 -6 -84 15 -143 72 -205 34
-38 83 -72 101 -72 3 0 5 22 5 48 0 40 -5 53 -26 73 -36 33 -54 79 -54 139 0
60 18 106 54 139 21 20 26 33 26 73 0 53 -4 56 -40 31z"/>
<path d="M355 1007 c-17 -8 -55 -42 -84 -76 -52 -60 -53 -62 -41 -94 22 -55
28 -55 79 1 46 50 50 52 100 52 65 0 109 -18 143 -58 43 -51 53 -95 53 -237 0
-110 -3 -136 -20 -170 -21 -41 -32 -47 -118 -60 -31 -5 -41 -13 -57 -45 -24
-47 -58 -74 -76 -59 -7 5 -29 53 -49 105 -39 100 -56 120 -120 134 -32 7 -37
5 -56 -21 l-21 -30 46 -43 c52 -48 57 -74 31 -181 -24 -97 -20 -132 17 -169
39 -39 91 -51 150 -36 59 16 100 62 133 149 l28 74 71 33 c91 41 120 69 156
147 101 216 34 446 -164 562 -56 33 -153 44 -201 22z"/>
</g>
</svg>
