<?xml version="1.0" standalone="no"?>
<!DOCTYPE svg PUBLIC "-//W3C//DTD SVG 20010904//EN"
 "http://www.w3.org/TR/2001/REC-SVG-20010904/DTD/svg10.dtd">
<svg version="1.0" xmlns="http://www.w3.org/2000/svg"
 width="128.000000pt" height="128.000000pt" viewBox="0 0 128.000000 128.000000"
 preserveAspectRatio="xMidYMid meet">
<g transform="translate(0.000000,128.000000) scale(0.100000,-0.100000)"
fill="#000000" stroke="none">
<path d="M269 1181 c-35 -27 -180 -328 -186 -385 -7 -55 16 -122 52 -156 l25
-23 0 -244 0 -244 25 -24 24 -25 431 0 431 0 25 25 c21 22 25 33 22 78 -3 48
-5 52 -28 52 -22 0 -26 -5 -30 -45 l-5 -45 -415 0 -415 0 -3 218 -2 217 40 -6
c54 -9 121 11 167 51 l38 32 39 -33 c82 -71 189 -71 272 0 l39 33 38 -32 c45
-39 112 -60 166 -51 l40 6 3 -57 c3 -54 5 -58 28 -58 24 0 25 3 28 74 3 65 6
78 31 107 38 42 55 96 48 151 -6 56 -152 358 -186 384 -22 18 -46 19 -371 19
-325 0 -349 -1 -371 -19z m782 -206 c84 -161 95 -205 64 -265 -21 -40 -74 -70
-125 -70 -44 0 -103 29 -113 55 -3 7 -17 21 -32 31 -21 14 -30 14 -55 4 -16
-7 -32 -20 -35 -31 -9 -29 -68 -59 -114 -59 -52 0 -76 12 -122 61 -20 22 -44
39 -53 39 -10 0 -32 -15 -49 -32 -52 -54 -79 -68 -127 -68 -79 0 -140 60 -140
138 0 44 22 94 117 270 l45 82 330 -2 330 -3 79 -150z"/>
<path d="M617 1074 c-4 -4 -7 -33 -7 -65 l0 -58 -62 -3 c-60 -3 -63 -4 -63
-28 0 -24 3 -25 62 -28 l62 -3 3 -62 c3 -59 4 -62 28 -62 24 0 25 3 28 62 l3
62 62 3 c59 3 62 4 62 28 0 24 -3 25 -62 28 l-62 3 -3 62 c-3 54 -6 62 -23 65
-12 2 -24 0 -28 -4z"/>
<path d="M600 435 l-95 -95 90 -90 c49 -49 95 -90 102 -90 27 0 11 28 -52 90
l-66 65 308 5 c265 4 308 7 308 20 0 13 -43 16 -308 20 l-308 5 66 65 c57 56
82 100 57 100 -4 0 -50 -43 -102 -95z"/>
</g>
</svg>
