<?xml version="1.0" standalone="no"?>
<!DOCTYPE svg PUBLIC "-//W3C//DTD SVG 20010904//EN"
 "http://www.w3.org/TR/2001/REC-SVG-20010904/DTD/svg10.dtd">
<svg version="1.0" xmlns="http://www.w3.org/2000/svg"
 width="128.000000pt" height="128.000000pt" viewBox="0 0 128.000000 128.000000"
 preserveAspectRatio="xMidYMid meet">
<g transform="translate(0.000000,128.000000) scale(0.100000,-0.100000)"
fill="#000000" stroke="none">
<path d="M187 1273 c-4 -3 -7 -291 -7 -640 l0 -633 455 0 455 0 0 640 0 640
-448 0 c-247 0 -452 -3 -455 -7z m508 -94 c53 -15 110 -73 125 -128 42 -158
-137 -288 -273 -197 -126 85 -104 270 40 321 47 17 58 18 108 4z m90 -488
c110 -54 169 -153 169 -281 -1 -95 -28 -160 -92 -223 -66 -65 -129 -90 -222
-91 -129 0 -233 66 -289 184 -34 72 -36 190 -4 260 42 90 120 156 217 181 61
16 153 3 221 -30z"/>
<path d="M557 510 c-19 -16 -40 -43 -47 -60 -33 -79 40 -180 130 -180 91 0
161 101 127 182 -37 89 -142 118 -210 58z"/>
</g>
</svg>
