<?xml version="1.0" standalone="no"?>
<!DOCTYPE svg PUBLIC "-//W3C//DTD SVG 20010904//EN"
 "http://www.w3.org/TR/2001/REC-SVG-20010904/DTD/svg10.dtd">
<svg version="1.0" xmlns="http://www.w3.org/2000/svg"
 width="128.000000pt" height="128.000000pt" viewBox="0 0 128.000000 128.000000"
 preserveAspectRatio="xMidYMid meet">
<g transform="translate(0.000000,128.000000) scale(0.100000,-0.100000)"
fill="#000000" stroke="none">
<path d="M163 1200 c-91 -19 -153 -73 -160 -142 -17 -158 274 -229 405 -98
l40 40 231 0 231 0 0 45 0 45 -232 0 -233 0 -29 36 c-49 62 -158 94 -253 74z"/>
<path d="M1000 585 l0 -585 45 0 45 0 0 135 0 135 72 0 71 0 -6 148 c-13 329
-72 566 -177 710 -16 23 -35 42 -40 42 -7 0 -10 -204 -10 -585z"/>
<path d="M319 715 c-14 -8 -32 -28 -39 -45 l-12 -30 -134 0 -134 0 0 -45 0
-45 455 0 455 0 0 45 0 45 -134 0 -134 0 -12 30 c-20 49 -54 60 -177 60 -74
-1 -116 -5 -134 -15z"/>
<path d="M92 317 c3 -191 3 -194 30 -234 16 -24 44 -49 70 -62 41 -19 61 -21
261 -21 270 0 305 11 348 105 16 34 19 67 19 223 l0 182 -366 0 -366 0 4 -193z"/>
</g>
</svg>
