<?xml version="1.0" standalone="no"?>
<!DOCTYPE svg PUBLIC "-//W3C//DTD SVG 20010904//EN"
 "http://www.w3.org/TR/2001/REC-SVG-20010904/DTD/svg10.dtd">
<svg version="1.0" xmlns="http://www.w3.org/2000/svg"
 width="128.000000pt" height="128.000000pt" viewBox="0 0 128.000000 128.000000"
 preserveAspectRatio="xMidYMid meet">
<g transform="translate(0.000000,128.000000) scale(0.100000,-0.100000)"
fill="#000000" stroke="none">
<path d="M246 1259 c-55 -43 -61 -67 -66 -289 l-5 -205 -40 -3 c-57 -5 -65
-15 -65 -88 0 -61 -1 -64 -24 -64 -43 0 -47 -15 -44 -216 l3 -189 83 -3 82 -3
0 -84 c0 -118 -3 -115 95 -115 98 0 95 -3 95 116 l0 84 268 -2 267 -3 3 -97 3
-98 83 0 c99 0 96 -3 96 115 l0 84 98 3 97 3 3 189 c3 201 -1 216 -44 216 -22
0 -24 4 -24 49 0 84 -11 99 -72 103 l-53 3 -5 205 c-5 222 -11 246 -66 289
-26 20 -37 21 -384 21 -347 0 -358 -1 -384 -21z m728 -39 c55 -21 61 -46 61
-260 l0 -195 -32 -3 -33 -3 0 93 c0 131 2 129 -145 126 l-120 -3 -5 -105 -5
-105 -47 -3 -48 -3 0 99 c0 73 -4 103 -14 111 -9 8 -54 11 -132 9 l-119 -3 -5
-105 -5 -105 -50 0 -50 0 -3 185 c-2 203 6 241 58 267 31 16 654 18 694 3z
m-424 -375 l0 -86 -87 3 -88 3 -3 83 -3 82 91 0 90 0 0 -85z m370 0 l0 -86
-87 3 -88 3 -3 83 -3 82 91 0 90 0 0 -85z m240 -185 l0 -50 -525 0 -525 0 0
50 0 50 525 0 525 0 0 -50z m80 -260 l0 -150 -600 0 -600 0 0 150 0 150 600 0
600 0 0 -150z m-930 -275 l0 -75 -45 0 -45 0 0 75 0 75 45 0 45 0 0 -75z m722
0 l0 -70 -46 -3 -46 -3 0 76 0 76 46 -3 46 -3 0 -70z"/>
</g>
</svg>
