<?xml version="1.0" standalone="no"?>
<!DOCTYPE svg PUBLIC "-//W3C//DTD SVG 20010904//EN"
 "http://www.w3.org/TR/2001/REC-SVG-20010904/DTD/svg10.dtd">
<svg version="1.0" xmlns="http://www.w3.org/2000/svg"
 width="128.000000pt" height="128.000000pt" viewBox="0 0 128.000000 128.000000"
 preserveAspectRatio="xMidYMid meet">
<g transform="translate(0.000000,128.000000) scale(0.100000,-0.100000)"
fill="#000000" stroke="none">
<path d="M270 1217 l0 -53 351 -88 c193 -48 358 -90 365 -93 11 -4 14 7 14 50
0 31 -4 58 -9 61 -13 9 -684 176 -703 176 -15 0 -18 -9 -18 -53z"/>
<path d="M365 1042 c-3 -3 -5 -95 -5 -204 l0 -198 275 0 276 0 -3 137 -3 137
-267 66 c-147 37 -270 65 -273 62z"/>
<path d="M277 543 c-4 -3 -7 -24 -7 -45 l0 -38 45 0 c36 0 45 -3 45 -17 0 -10
-20 -114 -43 -230 l-43 -213 67 0 c56 0 69 3 73 18 3 9 21 103 41 207 20 105
40 200 45 213 10 22 13 23 142 20 l133 -3 41 -200 c22 -110 44 -212 47 -227 7
-27 9 -28 77 -28 52 0 68 3 64 13 -11 31 -91 437 -86 442 3 3 23 5 44 5 l38 0
0 45 0 45 -358 0 c-197 0 -362 -3 -365 -7z"/>
</g>
</svg>
