<?xml version="1.0" standalone="no"?>
<!DOCTYPE svg PUBLIC "-//W3C//DTD SVG 20010904//EN"
 "http://www.w3.org/TR/2001/REC-SVG-20010904/DTD/svg10.dtd">
<svg version="1.0" xmlns="http://www.w3.org/2000/svg"
 width="128.000000pt" height="128.000000pt" viewBox="0 0 128.000000 128.000000"
 preserveAspectRatio="xMidYMid meet">
<g transform="translate(0.000000,128.000000) scale(0.100000,-0.100000)"
fill="#000000" stroke="none">
<path d="M110 1238 c-11 -41 -96 -345 -106 -380 -5 -17 6 -18 125 -18 l131 0
0 -370 0 -370 -60 0 -60 0 0 -50 0 -50 176 0 175 0 -3 48 -3 47 -63 3 -62 3 2
367 3 367 128 3 c70 1 127 5 127 7 0 4 -94 353 -109 405 l-7 25 -192 3 -191 2
-11 -42z"/>
<path d="M973 1210 c-17 -10 -37 -28 -43 -39 -6 -13 -21 -21 -36 -21 -84 0
-131 -91 -85 -166 18 -29 18 -31 0 -53 -47 -58 -4 -155 74 -168 24 -4 50 -18
72 -40 l35 -35 0 -99 0 -99 -106 0 c-105 0 -106 0 -101 -22 3 -13 25 -123 48
-245 l43 -223 153 0 c150 0 153 0 158 22 18 80 85 427 85 446 0 21 -3 22 -105
22 l-105 0 0 99 0 99 41 41 c26 25 51 41 66 41 83 0 140 105 90 167 -6 9 -4
26 7 54 14 33 15 48 6 75 -15 45 -54 74 -100 74 -30 0 -39 5 -48 25 -13 29
-67 65 -97 65 -11 0 -34 -9 -52 -20z m112 -195 c16 -15 25 -36 25 -55 0 -19
-9 -40 -25 -55 -15 -16 -36 -25 -55 -25 -36 0 -80 38 -80 69 0 77 84 118 135
66z"/>
</g>
</svg>
