<?xml version="1.0" standalone="no"?>
<!DOCTYPE svg PUBLIC "-//W3C//DTD SVG 20010904//EN"
 "http://www.w3.org/TR/2001/REC-SVG-20010904/DTD/svg10.dtd">
<svg version="1.0" xmlns="http://www.w3.org/2000/svg"
 width="128.000000pt" height="128.000000pt" viewBox="0 0 128.000000 128.000000"
 preserveAspectRatio="xMidYMid meet">
<g transform="translate(0.000000,128.000000) scale(0.100000,-0.100000)"
fill="#000000" stroke="none">
<path d="M444 1203 c-33 -42 -63 -83 -67 -90 -6 -11 44 -13 262 -13 l271 0
-68 90 -67 90 -136 0 -137 0 -58 -77z"/>
<path d="M370 1006 c0 -9 264 -246 271 -244 15 6 259 232 259 240 0 4 -119 8
-265 8 -146 0 -265 -2 -265 -4z"/>
<path d="M314 773 c-136 -145 -167 -349 -81 -519 74 -146 245 -254 402 -254
268 0 491 265 445 528 -14 84 -57 172 -113 236 l-42 48 -53 -47 -53 -47 46
-49 c126 -134 121 -308 -11 -428 -79 -72 -134 -96 -219 -95 -83 1 -142 25
-213 89 -136 123 -139 308 -7 440 l43 44 -54 46 -54 47 -36 -39z"/>
</g>
</svg>
