<?xml version="1.0" standalone="no"?>
<!DOCTYPE svg PUBLIC "-//W3C//DTD SVG 20010904//EN"
 "http://www.w3.org/TR/2001/REC-SVG-20010904/DTD/svg10.dtd">
<svg version="1.0" xmlns="http://www.w3.org/2000/svg"
 width="128.000000pt" height="128.000000pt" viewBox="0 0 128.000000 128.000000"
 preserveAspectRatio="xMidYMid meet">
<g transform="translate(0.000000,128.000000) scale(0.100000,-0.100000)"
fill="#000000" stroke="none">
<path d="M916 1160 c-15 -5 -42 -19 -60 -31 -24 -17 -469 -534 -511 -594 -6
-10 -4 -20 8 -33 17 -19 13 -25 -118 -180 l-135 -161 32 -5 c51 -9 304 -36
330 -36 18 0 42 21 90 79 63 77 66 79 87 64 12 -8 24 -13 25 -12 75 84 492
591 503 613 28 51 23 142 -10 198 -46 79 -158 125 -241 98z m130 -134 c37 -37
44 -78 22 -119 -12 -22 -416 -507 -423 -507 -7 0 -150 122 -153 131 -4 10 310
389 394 476 43 46 55 53 88 53 30 0 45 -7 72 -34z m-550 -643 c18 -16 34 -32
34 -38 -1 -5 -22 -34 -49 -64 l-48 -53 -56 12 c-65 13 -67 4 18 108 28 33 54
61 58 61 4 1 24 -11 43 -26z"/>
<path d="M896 939 c-44 -38 -52 -63 -32 -94 23 -34 56 -31 94 8 38 39 42 79
10 101 -30 21 -32 21 -72 -15z"/>
</g>
</svg>
