<?xml version="1.0" standalone="no"?>
<!DOCTYPE svg PUBLIC "-//W3C//DTD SVG 20010904//EN"
 "http://www.w3.org/TR/2001/REC-SVG-20010904/DTD/svg10.dtd">
<svg version="1.0" xmlns="http://www.w3.org/2000/svg"
 width="128.000000pt" height="128.000000pt" viewBox="0 0 128.000000 128.000000"
 preserveAspectRatio="xMidYMid meet">
<g transform="translate(0.000000,128.000000) scale(0.100000,-0.100000)"
fill="#000000" stroke="none">
<path d="M90 1140 c-91 -139 -93 -142 -86 -188 3 -26 14 -58 24 -72 57 -79
207 -79 263 0 10 14 23 52 28 85 5 33 30 110 56 170 26 61 49 118 52 128 5 16
-5 17 -119 17 l-125 0 -93 -140z"/>
<path d="M541 1248 c-27 -85 -61 -241 -61 -278 0 -52 24 -103 57 -125 33 -22
121 -30 166 -16 50 17 84 60 92 119 5 40 -1 77 -31 191 l-37 141 -88 0 -87 0
-11 -32z"/>
<path d="M850 1270 c0 -5 23 -65 52 -133 28 -67 55 -146 59 -176 4 -30 16 -66
27 -80 55 -76 184 -81 249 -10 12 13 27 46 33 72 12 56 14 52 -97 217 l-78
115 -122 3 c-80 2 -123 -1 -123 -8z"/>
<path d="M90 365 l0 -365 545 0 545 0 0 365 0 365 -545 0 -545 0 0 -365z m886
152 c22 -26 24 -36 24 -138 l0 -109 -363 2 -362 3 0 108 0 109 33 29 33 30
305 -3 306 -3 24 -28z"/>
</g>
</svg>
