<?xml version="1.0" standalone="no"?>
<!DOCTYPE svg PUBLIC "-//W3C//DTD SVG 20010904//EN"
 "http://www.w3.org/TR/2001/REC-SVG-20010904/DTD/svg10.dtd">
<svg version="1.0" xmlns="http://www.w3.org/2000/svg"
 width="128.000000pt" height="128.000000pt" viewBox="0 0 128.000000 128.000000"
 preserveAspectRatio="xMidYMid meet">
<g transform="translate(0.000000,128.000000) scale(0.100000,-0.100000)"
fill="#000000" stroke="none">
<path d="M587 1254 c-4 -4 -7 -61 -7 -126 0 -66 -5 -128 -10 -139 -9 -16 -22
-19 -78 -19 -37 0 -73 -4 -80 -9 -9 -5 -12 -25 -10 -57 l3 -49 235 0 235 0 3
49 c2 32 -1 52 -10 57 -7 5 -43 9 -80 9 -42 0 -70 5 -75 13 -4 6 -10 71 -13
142 l-5 130 -50 3 c-28 2 -54 0 -58 -4z"/>
<path d="M22 634 c-22 -15 -22 -17 -22 -298 0 -261 1 -284 18 -299 15 -14 42
-17 160 -17 l142 0 0 315 0 315 -138 0 c-108 0 -142 -3 -160 -16z"/>
<path d="M380 335 l0 -315 265 0 265 0 0 315 0 315 -265 0 -265 0 0 -315z
m136 204 c3 -6 -1 -18 -10 -27 -15 -15 -17 -15 -32 0 -19 19 -11 38 16 38 10
0 22 -5 26 -11z m100 0 c3 -6 -1 -18 -10 -27 -15 -15 -17 -15 -32 0 -19 19
-11 38 16 38 10 0 22 -5 26 -11z m100 0 c3 -6 -1 -18 -10 -27 -15 -15 -17 -15
-32 0 -19 19 -11 38 16 38 10 0 22 -5 26 -11z m100 0 c3 -6 -1 -18 -10 -27
-15 -15 -17 -15 -32 0 -19 19 -11 38 16 38 10 0 22 -5 26 -11z m18 -125 c12
-31 7 -309 -6 -322 -17 -17 -359 -17 -376 0 -13 13 -18 291 -6 322 5 14 32 16
194 16 162 0 189 -2 194 -16z"/>
<path d="M500 260 l0 -120 140 0 140 0 0 120 0 120 -140 0 -140 0 0 -120z"/>
<path d="M965 637 c-3 -7 -4 -147 -3 -312 l3 -300 139 -3 c119 -2 141 0 157
14 18 16 19 37 19 300 0 344 17 314 -178 314 -97 0 -134 -3 -137 -13z"/>
</g>
</svg>
