<?xml version="1.0" standalone="no"?>
<!DOCTYPE svg PUBLIC "-//W3C//DTD SVG 20010904//EN"
 "http://www.w3.org/TR/2001/REC-SVG-20010904/DTD/svg10.dtd">
<svg version="1.0" xmlns="http://www.w3.org/2000/svg"
 width="128.000000pt" height="128.000000pt" viewBox="0 0 128.000000 128.000000"
 preserveAspectRatio="xMidYMid meet">
<g transform="translate(0.000000,128.000000) scale(0.100000,-0.100000)"
fill="#000000" stroke="none">
<path d="M90 640 l0 -640 545 0 545 0 0 640 0 640 -545 0 -545 0 0 -640z m638
453 l-3 -88 -225 0 -225 0 -3 88 -3 87 231 0 231 0 -3 -87z m362 -3 l0 -91
-87 3 -88 3 -3 88 -3 87 91 0 90 0 0 -90z m-319 -299 c148 -70 218 -240 164
-401 -25 -75 -109 -160 -185 -186 -159 -54 -329 15 -401 164 -18 37 -23 65
-23 133 -1 76 2 92 29 144 36 70 105 131 177 157 69 24 174 20 239 -11z"/>
<path d="M415 463 c27 -151 190 -232 325 -163 66 34 120 112 120 175 l0 25
-226 0 -226 0 7 -37z"/>
</g>
</svg>
