<?xml version="1.0" standalone="no"?>
<!DOCTYPE svg PUBLIC "-//W3C//DTD SVG 20010904//EN"
 "http://www.w3.org/TR/2001/REC-SVG-20010904/DTD/svg10.dtd">
<svg version="1.0" xmlns="http://www.w3.org/2000/svg"
 width="128.000000pt" height="128.000000pt" viewBox="0 0 128.000000 128.000000"
 preserveAspectRatio="xMidYMid meet">
<g transform="translate(0.000000,128.000000) scale(0.100000,-0.100000)"
fill="#000000" stroke="none">
<path d="M487 1274 c-4 -4 -7 -45 -7 -91 0 -76 -2 -86 -25 -109 -19 -19 -30
-23 -52 -18 -37 10 -136 50 -196 80 -26 14 -52 22 -56 19 -10 -6 -137 -204
-146 -227 -5 -13 8 -24 57 -49 131 -66 178 -125 178 -222 0 -50 2 -57 20 -57
18 0 20 7 20 61 0 105 -57 182 -182 249 l-45 24 55 85 c30 47 56 87 57 89 2 2
30 -10 62 -27 90 -45 181 -73 214 -66 16 4 40 20 54 37 22 26 25 39 25 109 l0
79 120 0 120 0 0 -79 c0 -70 3 -83 25 -109 35 -42 70 -47 146 -22 74 25 88 35
71 52 -8 8 -27 6 -78 -11 -61 -20 -68 -20 -90 -6 -28 18 -33 36 -36 135 l-3
75 -151 3 c-82 1 -153 -1 -157 -4z"/>
<path d="M1075 1137 c-28 -15 -40 -27 -37 -39 4 -22 5 -22 43 -2 17 8 32 14
34 12 1 -2 27 -42 57 -89 l55 -85 -45 -24 c-76 -41 -126 -85 -155 -138 -25
-46 -27 -58 -27 -171 0 -150 21 -216 57 -180 8 8 7 18 -3 37 -9 18 -14 63 -14
140 0 92 4 120 20 151 23 46 73 87 158 130 34 17 62 35 62 39 0 14 -144 235
-155 238 -5 2 -28 -7 -50 -19z"/>
<path d="M800 835 c0 -31 43 -56 62 -37 19 19 -6 62 -37 62 -20 0 -25 -5 -25
-25z"/>
<path d="M762 789 c2 -7 10 -15 17 -17 8 -3 12 1 9 9 -2 7 -10 15 -17 17 -8 3
-12 -1 -9 -9z"/>
<path d="M240 525 c0 -74 -63 -159 -171 -231 -52 -34 -69 -51 -64 -62 12 -32
139 -224 151 -229 6 -2 53 17 104 42 147 75 231 72 339 -15 l39 -31 66 45
c108 74 176 74 320 0 48 -25 94 -43 100 -41 12 5 139 197 151 229 9 22 -94 90
-112 75 -20 -15 -16 -24 25 -48 20 -12 38 -23 40 -25 2 -1 -100 -166 -113
-182 -1 -1 -41 16 -88 39 -141 67 -231 66 -337 -6 l-50 -34 -50 34 c-106 72
-196 73 -337 6 -47 -23 -87 -40 -88 -39 -1 2 -27 42 -58 89 l-55 87 71 54 c96
72 149 148 155 223 4 51 3 55 -17 55 -17 0 -21 -6 -21 -35z"/>
<path d="M1083 383 c-19 -7 -16 -27 6 -47 16 -15 19 -15 31 -1 11 14 10 19 -6
34 -10 10 -25 17 -31 14z"/>
</g>
</svg>
