<?xml version="1.0" standalone="no"?>
<!DOCTYPE svg PUBLIC "-//W3C//DTD SVG 20010904//EN"
 "http://www.w3.org/TR/2001/REC-SVG-20010904/DTD/svg10.dtd">
<svg version="1.0" xmlns="http://www.w3.org/2000/svg"
 width="128.000000pt" height="128.000000pt" viewBox="0 0 128.000000 128.000000"
 preserveAspectRatio="xMidYMid meet">
<g transform="translate(0.000000,128.000000) scale(0.100000,-0.100000)"
fill="#000000" stroke="none">
<path d="M210 1191 l-25 -7 -3 -361 -2 -361 22 -6 c13 -3 33 -6 45 -6 40 0
132 -41 181 -79 32 -26 60 -61 85 -107 l36 -69 1 376 0 375 -31 50 c-85 135
-219 220 -309 195z"/>
<path d="M920 1164 c-93 -25 -247 -104 -307 -158 l-23 -19 0 -379 c0 -208 2
-378 6 -378 3 0 32 18 65 41 110 74 262 136 402 164 l27 5 0 370 0 370 -57 -1
c-32 0 -83 -7 -113 -15z"/>
<path d="M0 683 l0 -409 278 -93 c374 -124 353 -124 716 -2 146 49 270 92 275
96 8 4 11 138 11 411 l0 405 -22 -7 c-13 -3 -35 -13 -50 -20 l-28 -14 -2 -362
-3 -362 -210 -68 c-116 -38 -219 -68 -230 -67 -11 0 -60 2 -110 2 -85 2 -94 4
-160 42 -89 51 -221 100 -307 116 l-68 12 0 348 0 347 -28 10 c-15 5 -35 13
-44 17 -17 7 -18 -16 -18 -402z"/>
</g>
</svg>
