<?xml version="1.0" standalone="no"?>
<!DOCTYPE svg PUBLIC "-//W3C//DTD SVG 20010904//EN"
 "http://www.w3.org/TR/2001/REC-SVG-20010904/DTD/svg10.dtd">
<svg version="1.0" xmlns="http://www.w3.org/2000/svg"
 width="128.000000pt" height="128.000000pt" viewBox="0 0 128.000000 128.000000"
 preserveAspectRatio="xMidYMid meet">
<g transform="translate(0.000000,128.000000) scale(0.100000,-0.100000)"
fill="#000000" stroke="none">
<path d="M97 1063 c-13 -12 -7 -51 9 -57 24 -9 1057 -7 1072 3 8 4 12 19 10
32 l-3 24 -541 3 c-297 1 -544 -1 -547 -5z"/>
<path d="M215 931 c-7 -12 10 -90 29 -136 32 -75 133 -161 234 -197 78 -29
234 -31 312 -4 157 53 262 172 272 306 l3 35 -422 3 c-257 1 -424 -1 -428 -7z
m114 -84 c25 -51 26 -63 7 -70 -23 -9 -66 51 -66 92 0 39 36 25 59 -22z"/>
<path d="M182 547 c-89 -90 -101 -119 -57 -139 24 -11 31 -7 110 72 47 47 85
92 85 102 0 19 -26 48 -43 48 -7 0 -49 -37 -95 -83z"/>
<path d="M966 614 c-27 -27 -18 -45 62 -126 58 -58 85 -78 105 -78 23 0 47 23
47 46 0 15 -165 174 -181 174 -10 0 -25 -7 -33 -16z"/>
<path d="M407 499 c-27 -37 -90 -198 -84 -213 11 -28 43 -37 66 -18 23 19 91
173 91 206 0 46 -48 62 -73 25z"/>
<path d="M796 504 c-22 -22 -20 -37 23 -144 43 -105 66 -127 101 -95 11 10 20
23 20 30 0 21 -80 209 -93 217 -19 12 -34 10 -51 -8z"/>
<path d="M600 454 c-6 -14 -10 -63 -10 -109 0 -108 10 -135 50 -135 40 0 50
27 50 135 0 108 -10 135 -50 135 -24 0 -33 -6 -40 -26z"/>
</g>
</svg>
