<?xml version="1.0" standalone="no"?>
<!DOCTYPE svg PUBLIC "-//W3C//DTD SVG 20010904//EN"
 "http://www.w3.org/TR/2001/REC-SVG-20010904/DTD/svg10.dtd">
<svg version="1.0" xmlns="http://www.w3.org/2000/svg"
 width="128.000000pt" height="128.000000pt" viewBox="0 0 128.000000 128.000000"
 preserveAspectRatio="xMidYMid meet">
<g transform="translate(0.000000,128.000000) scale(0.100000,-0.100000)"
fill="#000000" stroke="none">
<path d="M405 1271 c-104 -26 -211 -110 -251 -196 -21 -45 -24 -64 -24 -187
l0 -138 -43 0 c-23 0 -53 -7 -65 -16 l-22 -15 0 -353 c0 -313 2 -355 16 -360
20 -8 1228 -8 1248 0 14 5 16 47 16 360 l0 353 -30 16 c-16 8 -45 15 -65 15
l-35 0 0 138 c0 128 -2 142 -25 189 -34 67 -100 127 -183 166 l-67 32 -220 2
c-121 1 -233 -2 -250 -6z m491 -223 l34 -38 0 -130 0 -130 -290 0 -290 0 0
119 c0 136 9 172 53 201 30 19 44 20 245 18 l214 -3 34 -37z m-179 -455 c76
-36 95 -133 38 -193 l-27 -28 27 -114 c14 -62 28 -121 31 -130 5 -17 -7 -18
-149 -18 l-155 0 33 129 32 130 -23 22 c-68 64 -44 172 46 208 39 15 108 13
147 -6z"/>
</g>
</svg>
