<?xml version="1.0" standalone="no"?>
<!DOCTYPE svg PUBLIC "-//W3C//DTD SVG 20010904//EN"
 "http://www.w3.org/TR/2001/REC-SVG-20010904/DTD/svg10.dtd">
<svg version="1.0" xmlns="http://www.w3.org/2000/svg"
 width="128.000000pt" height="128.000000pt" viewBox="0 0 128.000000 128.000000"
 preserveAspectRatio="xMidYMid meet">
<g transform="translate(0.000000,128.000000) scale(0.100000,-0.100000)"
fill="#000000" stroke="none">
<path d="M503 1180 c-86 -23 -131 -45 -206 -102 -98 -75 -165 -177 -198 -305
-24 -97 -24 -170 1 -267 28 -109 63 -169 150 -257 223 -225 556 -225 781 0
225 225 225 558 0 781 -88 87 -148 122 -257 150 -95 25 -177 25 -271 0z m340
-92 c262 -125 362 -422 230 -683 -14 -27 -53 -77 -87 -111 -97 -97 -210 -144
-345 -144 -197 0 -363 106 -449 287 -34 72 -37 86 -40 183 -3 87 0 116 17 168
52 152 166 268 317 322 49 17 78 20 169 18 103 -3 115 -5 188 -40z"/>
<path d="M443 904 c-52 -26 -63 -64 -63 -214 0 -147 10 -184 59 -213 37 -22
75 -22 112 0 49 29 59 66 59 213 0 152 -11 189 -65 214 -41 20 -61 20 -102 0z
m85 -66 c17 -17 17 -279 0 -296 -7 -7 -21 -12 -33 -12 -40 0 -45 17 -45 160 0
143 5 160 45 160 12 0 26 -5 33 -12z"/>
<path d="M734 906 c-51 -23 -64 -65 -64 -215 0 -155 11 -192 63 -217 46 -22
95 -12 133 27 25 26 29 37 29 93 0 35 -6 74 -14 88 -18 36 -70 62 -109 56 -32
-5 -32 -5 -32 42 0 50 13 70 45 70 30 0 45 -19 45 -55 0 -55 41 -75 62 -30 15
32 -3 93 -35 123 -30 29 -83 36 -123 18z m94 -300 c4 -53 -9 -76 -42 -76 -34
0 -46 19 -46 71 0 38 5 51 22 63 35 25 62 1 66 -58z"/>
<path d="M394 385 c-4 -8 -1 -22 6 -30 18 -22 462 -22 480 0 7 8 10 22 6 30
-8 23 -484 23 -492 0z"/>
</g>
</svg>
