<?xml version="1.0" standalone="no"?>
<!DOCTYPE svg PUBLIC "-//W3C//DTD SVG 20010904//EN"
 "http://www.w3.org/TR/2001/REC-SVG-20010904/DTD/svg10.dtd">
<svg version="1.0" xmlns="http://www.w3.org/2000/svg"
 width="128.000000pt" height="128.000000pt" viewBox="0 0 128.000000 128.000000"
 preserveAspectRatio="xMidYMid meet">
<g transform="translate(0.000000,128.000000) scale(0.100000,-0.100000)"
fill="#000000" stroke="none">
<path d="M258 1115 c-15 -9 -32 -24 -38 -35 -6 -12 -10 -173 -10 -444 l0 -426
-30 0 c-27 0 -30 -3 -30 -30 l0 -30 490 0 490 0 0 30 c0 27 -3 30 -30 30 l-30
0 0 201 0 201 -30 30 -30 30 -110 -4 -110 -3 0 202 c0 199 0 202 -24 230 l-24
28 -229 2 c-188 2 -233 0 -255 -12z m470 -470 c2 -377 1 -411 -15 -422 -12
-10 -72 -13 -214 -13 -166 0 -200 2 -213 16 -14 13 -16 65 -16 409 0 216 3
401 6 409 6 14 32 16 228 14 l221 -3 3 -410z m266 -51 c13 -13 16 -44 16 -184
0 -201 1 -200 -96 -200 -108 0 -104 -8 -104 200 0 208 -4 199 102 200 47 0 71
-4 82 -16z"/>
<path d="M358 825 c-22 -48 43 -100 80 -63 18 18 15 75 -4 82 -35 13 -64 6
-76 -19z"/>
<path d="M562 838 c-20 -20 -15 -66 9 -78 47 -26 100 25 72 69 -13 20 -64 26
-81 9z"/>
<path d="M360 629 c-9 -16 -9 -28 -1 -46 9 -20 17 -24 49 -21 36 3 37 4 37 43
0 39 -1 40 -37 43 -29 3 -39 -1 -48 -19z"/>
<path d="M554 623 c-10 -37 7 -58 46 -58 39 0 56 21 46 58 -6 24 -11 27 -46
27 -35 0 -40 -3 -46 -27z"/>
<path d="M872 448 c-16 -16 -15 -63 2 -77 8 -7 27 -11 43 -9 33 4 54 48 37 76
-13 21 -65 27 -82 10z"/>
</g>
</svg>
