<?xml version="1.0" standalone="no"?>
<!DOCTYPE svg PUBLIC "-//W3C//DTD SVG 20010904//EN"
 "http://www.w3.org/TR/2001/REC-SVG-20010904/DTD/svg10.dtd">
<svg version="1.0" xmlns="http://www.w3.org/2000/svg"
 width="128.000000pt" height="128.000000pt" viewBox="0 0 128.000000 128.000000"
 preserveAspectRatio="xMidYMid meet">
<g transform="translate(0.000000,128.000000) scale(0.100000,-0.100000)"
fill="#000000" stroke="none">
<path d="M433 1160 c-98 -59 -75 -208 38 -241 113 -34 214 103 147 201 -13 19
-35 40 -48 47 -37 19 -101 16 -137 -7z"/>
<path d="M384 862 c-40 -6 -65 -49 -124 -221 -33 -95 -60 -174 -60 -177 0 -2
42 -4 93 -4 l94 0 33 98 c18 53 37 108 42 121 9 24 9 24 61 -27 50 -49 59 -54
159 -79 89 -23 108 -25 122 -14 20 17 21 45 2 64 -8 7 -52 24 -98 37 -80 22
-86 25 -173 110 -89 86 -109 99 -151 92z"/>
<path d="M994 536 c-122 -55 -99 -236 34 -262 41 -8 112 26 135 65 20 33 22
106 4 138 -33 58 -114 86 -173 59z"/>
<path d="M30 340 c-46 -46 -36 -114 20 -142 31 -16 73 -18 412 -18 l378 0 100
-45 c98 -44 102 -45 204 -45 97 0 106 2 120 22 20 28 20 33 0 52 -12 12 -37
16 -108 16 -100 0 -97 -1 -409 144 l-78 36 -310 0 c-294 0 -310 -1 -329 -20z"/>
</g>
</svg>
