<?xml version="1.0" standalone="no"?>
<!DOCTYPE svg PUBLIC "-//W3C//DTD SVG 20010904//EN"
 "http://www.w3.org/TR/2001/REC-SVG-20010904/DTD/svg10.dtd">
<svg version="1.0" xmlns="http://www.w3.org/2000/svg"
 width="128.000000pt" height="128.000000pt" viewBox="0 0 128.000000 128.000000"
 preserveAspectRatio="xMidYMid meet">
<g transform="translate(0.000000,128.000000) scale(0.100000,-0.100000)"
fill="#000000" stroke="none">
<path d="M1100 1266 l-145 -11 -25 -200 -25 -200 -242 -3 -243 -2 0 -65 0 -65
102 0 101 0 -39 -29 c-48 -34 -88 -81 -115 -133 l-20 -39 -130 3 -130 3 -30
-95 c-27 -87 -34 -97 -66 -115 -102 -56 -118 -186 -32 -267 107 -102 279 -29
279 120 0 60 -17 101 -56 131 -46 36 -26 51 65 51 l79 0 7 -40 c11 -67 62
-155 118 -206 68 -62 139 -94 224 -101 205 -17 376 116 414 320 20 110 -19
242 -96 319 l-37 38 29 227 c26 210 30 228 48 230 136 13 135 13 135 41 0 41
-12 102 -19 100 -3 0 -71 -6 -151 -12z m-172 -680 c82 -43 127 -128 120 -230
-5 -80 -39 -135 -113 -181 -42 -26 -58 -30 -120 -30 -62 0 -78 4 -120 30 -73
45 -108 101 -113 179 -2 36 1 81 8 101 15 44 71 110 113 131 64 34 160 33 225
0z"/>
</g>
</svg>
