<?xml version="1.0" standalone="no"?>
<!DOCTYPE svg PUBLIC "-//W3C//DTD SVG 20010904//EN"
 "http://www.w3.org/TR/2001/REC-SVG-20010904/DTD/svg10.dtd">
<svg version="1.0" xmlns="http://www.w3.org/2000/svg"
 width="128.000000pt" height="128.000000pt" viewBox="0 0 128.000000 128.000000"
 preserveAspectRatio="xMidYMid meet">
<g transform="translate(0.000000,128.000000) scale(0.100000,-0.100000)"
fill="#000000" stroke="none">
<path d="M486 1189 c-100 -15 -184 -80 -230 -178 -18 -39 -21 -65 -21 -168 0
-107 2 -125 21 -149 37 -50 70 -67 134 -72 53 -4 59 -6 48 -20 -7 -9 11 1 40
21 109 74 225 72 347 -8 16 -11 26 -14 22 -7 -6 9 5 12 46 12 60 0 104 23 141
73 19 25 21 42 21 150 0 104 -3 129 -21 168 -28 59 -87 125 -135 150 -70 35
-269 49 -413 28z m109 -99 c16 -16 37 -30 48 -30 11 0 35 14 54 30 40 36 96
40 158 11 88 -41 125 -109 125 -233 0 -92 -11 -118 -60 -143 -31 -16 -126 -20
-148 -6 -8 4 -30 41 -50 82 -37 74 -37 74 -77 74 -39 0 -41 -1 -77 -70 -20
-38 -41 -76 -47 -82 -16 -17 -104 -16 -145 1 -55 23 -66 48 -66 151 0 83 3 95
29 137 46 72 103 106 182 107 38 1 50 -4 74 -29z"/>
<path d="M555 591 c-152 -69 -181 -261 -57 -373 91 -82 214 -77 304 13 87 87
92 211 10 301 -67 75 -171 99 -257 59z m161 -67 c76 -36 106 -137 64 -212 -62
-110 -222 -107 -275 4 -22 47 -16 120 13 161 42 59 129 80 198 47z"/>
<path d="M603 509 c-75 -21 -107 -113 -67 -191 40 -78 179 -76 219 2 55 106
-37 220 -152 189z"/>
<path d="M376 540 c-20 -22 -36 -46 -36 -54 0 -8 -15 -23 -34 -34 l-33 -20
-26 29 c-14 16 -29 29 -34 29 -5 0 -30 -13 -56 -30 -34 -21 -47 -36 -47 -52 0
-27 160 -308 184 -323 12 -7 28 -4 62 15 55 29 72 57 53 91 -7 13 -13 29 -14
34 0 6 -9 28 -19 50 -36 78 -20 221 31 277 9 10 14 20 11 23 -3 3 -22 -13 -42
-35z"/>
<path d="M886 545 c49 -70 61 -187 27 -266 -39 -90 -47 -127 -33 -144 21 -26
89 -57 110 -50 21 7 190 294 190 324 0 13 -14 30 -37 44 -64 39 -72 40 -102 8
-28 -30 -28 -30 -56 -11 -15 10 -34 32 -43 49 -8 18 -29 42 -46 54 l-31 22 21
-30z"/>
</g>
</svg>
