<?xml version="1.0" standalone="no"?>
<!DOCTYPE svg PUBLIC "-//W3C//DTD SVG 20010904//EN"
 "http://www.w3.org/TR/2001/REC-SVG-20010904/DTD/svg10.dtd">
<svg version="1.0" xmlns="http://www.w3.org/2000/svg"
 width="128.000000pt" height="128.000000pt" viewBox="0 0 128.000000 128.000000"
 preserveAspectRatio="xMidYMid meet">
<g transform="translate(0.000000,128.000000) scale(0.100000,-0.100000)"
fill="#000000" stroke="none">
<path d="M515 1270 c-36 -14 -50 -41 -55 -108 l-5 -65 -46 -13 c-56 -17 -116
-74 -130 -126 -6 -24 -9 -184 -7 -436 l3 -398 28 -43 c49 -74 76 -81 336 -81
208 0 228 2 268 21 29 14 52 35 68 63 l25 43 0 419 c0 416 0 419 -23 459 -13
22 -40 49 -62 62 -35 20 -54 23 -157 23 l-118 0 0 55 c0 70 -20 109 -61 124
-37 13 -37 13 -64 1z m395 -680 l0 -320 -272 2 -273 3 -3 318 -2 317 275 0
275 0 0 -320z m-180 -455 l0 -45 -90 0 -90 0 0 45 0 45 90 0 90 0 0 -45z"/>
</g>
</svg>
