<?xml version="1.0" standalone="no"?>
<!DOCTYPE svg PUBLIC "-//W3C//DTD SVG 20010904//EN"
 "http://www.w3.org/TR/2001/REC-SVG-20010904/DTD/svg10.dtd">
<svg version="1.0" xmlns="http://www.w3.org/2000/svg"
 width="128.000000pt" height="128.000000pt" viewBox="0 0 128.000000 128.000000"
 preserveAspectRatio="xMidYMid meet">
<g transform="translate(0.000000,128.000000) scale(0.100000,-0.100000)"
fill="#000000" stroke="none">
<path d="M610 1264 c-19 -8 -145 -54 -280 -102 -243 -88 -245 -89 -245 -118 0
-27 11 -34 245 -156 135 -70 255 -128 266 -128 17 0 317 133 572 253 18 8 22
17 20 41 -3 31 -4 31 -268 128 -146 54 -267 97 -270 97 -3 -1 -21 -7 -40 -15z"/>
<path d="M16 934 c-14 -13 -16 -55 -16 -303 0 -286 0 -288 22 -308 24 -20 472
-311 493 -319 7 -3 20 2 29 11 14 15 16 54 16 334 0 239 -3 321 -12 333 -11
13 -496 268 -511 268 -3 0 -13 -7 -21 -16z"/>
<path d="M946 821 c-153 -70 -285 -136 -292 -146 -11 -15 -14 -83 -14 -326 0
-282 1 -309 18 -329 16 -20 21 -21 43 -10 79 42 565 335 571 344 4 6 8 137 8
292 0 287 -2 305 -39 303 -9 0 -142 -58 -295 -128z"/>
</g>
</svg>
