<?xml version="1.0" standalone="no"?>
<!DOCTYPE svg PUBLIC "-//W3C//DTD SVG 20010904//EN"
 "http://www.w3.org/TR/2001/REC-SVG-20010904/DTD/svg10.dtd">
<svg version="1.0" xmlns="http://www.w3.org/2000/svg"
 width="128.000000pt" height="128.000000pt" viewBox="0 0 128.000000 128.000000"
 preserveAspectRatio="xMidYMid meet">
<g transform="translate(0.000000,128.000000) scale(0.100000,-0.100000)"
fill="#000000" stroke="none">
<path d="M454 1266 c-110 -27 -159 -77 -158 -162 0 -44 6 -62 32 -99 l31 -45
-57 -39 c-242 -164 -331 -462 -206 -691 52 -96 159 -167 309 -206 100 -26 350
-26 458 -1 102 24 205 77 261 134 156 157 150 438 -11 637 -43 54 -152 147
-183 158 -8 2 -2 20 19 53 24 38 31 60 31 99 0 91 -55 142 -179 166 -73 14
-284 11 -347 -4z m371 -111 c50 -25 55 -50 21 -108 -46 -77 -33 -112 79 -212
219 -197 266 -430 119 -594 -85 -95 -211 -136 -414 -135 -187 1 -327 47 -402
133 -87 99 -110 248 -55 365 42 90 109 178 181 236 73 59 112 123 100 162 -3
13 -16 36 -27 51 -21 31 -26 72 -9 89 42 42 330 51 407 13z"/>
<path d="M487 783 c-14 -13 -6 -26 41 -69 l47 -44 -42 0 c-54 0 -73 -8 -73
-30 0 -24 19 -30 91 -30 l59 0 0 -35 0 -34 -72 -3 c-67 -3 -73 -5 -76 -25 -3
-22 0 -23 72 -23 l76 0 0 -69 c0 -50 4 -72 15 -81 25 -20 34 -1 37 75 l3 70
75 5 c67 4 75 7 75 25 0 18 -8 20 -77 23 l-78 3 0 34 0 35 64 0 c77 0 96 6 96
30 0 22 -19 30 -73 30 l-41 0 42 43 c23 23 42 50 42 60 0 32 -34 17 -92 -40
l-58 -57 -58 57 c-54 53 -79 67 -95 50z"/>
</g>
</svg>
