<?xml version="1.0" standalone="no"?>
<!DOCTYPE svg PUBLIC "-//W3C//DTD SVG 20010904//EN"
 "http://www.w3.org/TR/2001/REC-SVG-20010904/DTD/svg10.dtd">
<svg version="1.0" xmlns="http://www.w3.org/2000/svg"
 width="128.000000pt" height="128.000000pt" viewBox="0 0 128.000000 128.000000"
 preserveAspectRatio="xMidYMid meet">
<g transform="translate(0.000000,128.000000) scale(0.100000,-0.100000)"
fill="#000000" stroke="none">
<path d="M820 1063 c0 -16 14 -93 30 -173 16 -80 30 -156 30 -168 0 -30 -54
-106 -85 -120 -22 -10 -25 -7 -45 41 -12 29 -31 64 -42 80 l-19 27 -234 0
-233 0 -56 -66 c-81 -95 -77 -118 29 -129 89 -9 141 -32 187 -82 42 -47 64
-129 54 -201 l-6 -45 137 6 c202 9 255 30 268 106 9 56 63 140 111 174 24 16
60 31 90 35 44 6 51 11 68 45 22 46 16 94 -18 128 -12 13 -58 80 -101 149 -84
135 -144 220 -157 220 -4 0 -8 -12 -8 -27z"/>
<path d="M122 509 c-108 -54 -151 -181 -98 -295 84 -180 329 -153 386 43 50
169 -133 329 -288 252z m174 -92 c41 -37 54 -83 42 -142 -16 -71 -72 -111
-145 -102 -82 9 -136 92 -113 175 20 71 59 101 133 102 40 0 53 -5 83 -33z"/>
<path d="M985 511 c-110 -50 -157 -189 -101 -299 30 -60 60 -87 115 -107 82
-29 146 -12 212 54 38 38 49 56 58 103 21 101 -17 189 -103 238 -61 35 -121
39 -181 11z m159 -82 c37 -29 56 -70 56 -121 0 -81 -58 -138 -139 -138 -66 0
-131 70 -131 140 0 46 29 99 64 121 43 26 115 25 150 -2z"/>
</g>
</svg>
