<?xml version="1.0" standalone="no"?>
<!DOCTYPE svg PUBLIC "-//W3C//DTD SVG 20010904//EN"
 "http://www.w3.org/TR/2001/REC-SVG-20010904/DTD/svg10.dtd">
<svg version="1.0" xmlns="http://www.w3.org/2000/svg"
 width="128.000000pt" height="128.000000pt" viewBox="0 0 128.000000 128.000000"
 preserveAspectRatio="xMidYMid meet">
<g transform="translate(0.000000,128.000000) scale(0.100000,-0.100000)"
fill="#000000" stroke="none">
<path d="M349 1026 c-127 -48 -171 -96 -177 -190 -4 -82 11 -109 63 -116 47
-6 47 2 -6 -143 -43 -119 -47 -145 -24 -153 27 -11 41 13 85 139 24 67 45 124
46 126 7 8 75 -47 100 -80 38 -51 58 -132 50 -202 -4 -37 -2 -65 5 -73 11 -14
89 -11 262 8 l97 10 0 33 c0 18 -5 35 -12 37 -9 3 -9 18 0 59 l11 54 -39 40
c-45 48 -70 93 -85 160 -7 28 -17 49 -22 48 -6 -1 -24 15 -41 36 -42 52 -86
71 -167 71 l-67 0 8 48 c14 88 12 97 -21 99 -16 1 -46 -4 -66 -11z m243 -224
l31 -29 -64 -20 c-35 -12 -77 -26 -94 -33 -27 -11 -34 -10 -67 11 -42 27 -42
27 -23 52 19 25 80 46 137 47 39 0 54 -5 80 -28z"/>
<path d="M895 979 c-112 -99 -106 -279 12 -363 l44 -31 -1 -105 c-2 -149 -3
-148 25 -175 17 -18 35 -25 62 -25 81 0 103 44 103 207 0 102 0 103 28 117 87
45 131 163 101 271 -12 44 -99 140 -121 133 -9 -3 -14 -32 -15 -99 -4 -146 -1
-140 -86 -137 l-72 3 -5 115 c-6 133 -14 142 -75 89z m169 -575 c36 -35 0 -87
-44 -64 -25 13 -26 55 -2 69 23 14 28 14 46 -5z"/>
<path d="M154 655 c-60 -18 -101 -52 -129 -109 -55 -110 -14 -230 99 -288 59
-30 159 -23 215 16 92 64 119 203 56 298 l-29 43 -14 -35 c-16 -39 -17 -56 -7
-115 16 -102 -102 -180 -192 -125 -18 10 -40 31 -49 45 -34 52 -11 153 41 177
22 10 65 92 54 102 -2 2 -22 -2 -45 -9z"/>
</g>
</svg>
