<?xml version="1.0" standalone="no"?>
<!DOCTYPE svg PUBLIC "-//W3C//DTD SVG 20010904//EN"
 "http://www.w3.org/TR/2001/REC-SVG-20010904/DTD/svg10.dtd">
<svg version="1.0" xmlns="http://www.w3.org/2000/svg"
 width="128.000000pt" height="128.000000pt" viewBox="0 0 128.000000 128.000000"
 preserveAspectRatio="xMidYMid meet">
<g transform="translate(0.000000,128.000000) scale(0.100000,-0.100000)"
fill="#000000" stroke="none">
<path d="M437 1260 c-50 -9 -61 -14 -63 -31 -1 -5 -2 -204 -3 -443 l-1 -434
-87 -4 c-66 -3 -99 -10 -133 -28 -136 -69 -186 -166 -124 -240 99 -118 322
-98 469 41 l55 52 0 548 0 549 -32 -1 c-18 -1 -55 -5 -81 -9z"/>
<path d="M640 1226 l0 -43 63 -6 c217 -20 411 -194 463 -413 22 -94 14 -226
-19 -315 -47 -130 -165 -258 -287 -311 -59 -26 -162 -48 -226 -48 -44 0 -54
-4 -84 -35 -18 -19 -31 -37 -28 -41 3 -3 39 -8 80 -11 190 -14 409 81 530 231
22 28 58 88 80 132 121 250 65 546 -140 735 -109 101 -265 169 -384 169 l-48
0 0 -44z"/>
<path d="M184 1078 c-148 -156 -210 -358 -170 -555 9 -45 23 -97 31 -117 l15
-36 39 20 39 19 -20 63 c-56 180 -20 364 101 515 41 51 50 69 52 109 2 27 -1
49 -7 51 -6 2 -42 -29 -80 -69z"/>
<path d="M640 775 c0 -39 3 -45 25 -51 84 -21 84 -149 0 -170 -22 -5 -25 -12
-25 -50 0 -50 13 -55 73 -30 135 56 138 260 5 325 -68 32 -78 29 -78 -24z"/>
</g>
</svg>
