<?xml version="1.0" standalone="no"?>
<!DOCTYPE svg PUBLIC "-//W3C//DTD SVG 20010904//EN"
 "http://www.w3.org/TR/2001/REC-SVG-20010904/DTD/svg10.dtd">
<svg version="1.0" xmlns="http://www.w3.org/2000/svg"
 width="128.000000pt" height="128.000000pt" viewBox="0 0 128.000000 128.000000"
 preserveAspectRatio="xMidYMid meet">
<g transform="translate(0.000000,128.000000) scale(0.100000,-0.100000)"
fill="#000000" stroke="none">
<path d="M0 771 l0 -410 38 6 c89 14 138 54 233 195 43 64 91 126 105 137 28
22 80 36 111 28 15 -3 15 -5 -7 -14 -32 -13 -77 -59 -98 -98 -21 -39 -29 -223
-12 -285 15 -57 80 -124 135 -139 52 -14 487 -15 538 0 43 12 101 59 123 100
10 20 14 65 14 165 0 122 -2 140 -22 175 -21 39 -49 62 -98 86 -22 10 -15 12
50 10 69 -2 75 -4 78 -24 4 -26 47 -63 73 -63 18 0 19 10 19 135 0 125 -1 135
-19 135 -27 0 -68 -35 -75 -65 l-7 -26 -132 3 -132 3 -3 88 -3 87 -44 0 -45 0
0 -90 0 -90 -45 0 -45 0 0 90 0 90 -45 0 -45 0 0 -90 0 -90 -109 0 c-138 0
-150 7 -257 164 -45 66 -92 128 -105 138 -38 31 -101 58 -136 58 l-33 0 0
-409z m820 -131 l0 -90 45 0 45 0 0 85 c0 61 3 85 13 85 6 0 39 -15 71 -33 79
-44 96 -76 96 -184 0 -72 -3 -85 -24 -110 l-24 -28 -233 -3 c-262 -4 -291 -1
-325 33 -22 22 -24 32 -24 112 1 93 9 119 50 151 30 23 105 62 120 62 6 0 10
-33 10 -85 l0 -85 45 0 45 0 0 90 0 90 45 0 45 0 0 -90z"/>
</g>
</svg>
