<?xml version="1.0" standalone="no"?>
<!DOCTYPE svg PUBLIC "-//W3C//DTD SVG 20010904//EN"
 "http://www.w3.org/TR/2001/REC-SVG-20010904/DTD/svg10.dtd">
<svg version="1.0" xmlns="http://www.w3.org/2000/svg"
 width="128.000000pt" height="128.000000pt" viewBox="0 0 128.000000 128.000000"
 preserveAspectRatio="xMidYMid meet">
<g transform="translate(0.000000,128.000000) scale(0.100000,-0.100000)"
fill="#000000" stroke="none">
<path d="M598 1181 c-302 -6 -308 -6 -330 -28 -18 -18 -23 -37 -26 -93 -3 -43
1 -82 8 -101 24 -57 36 -59 405 -59 365 0 379 2 403 55 17 37 15 140 -3 175
-29 57 -43 58 -457 51z m380 -83 c16 -16 16 -100 0 -116 -17 -17 -629 -17
-646 0 -7 7 -12 33 -12 58 0 25 5 51 12 58 17 17 629 17 646 0z"/>
<path d="M291 856 c-49 -27 -50 -38 -51 -389 l0 -329 28 -28 c39 -39 83 -43
434 -39 263 4 297 6 321 22 16 10 32 29 37 43 6 14 10 166 10 346 l0 320 -34
34 -34 34 -344 0 c-265 -1 -348 -4 -367 -14z m680 -66 c18 -10 19 -24 19 -313
0 -222 -3 -306 -12 -315 -17 -17 -629 -17 -646 0 -9 9 -12 93 -12 315 0 277 1
303 18 312 23 14 607 15 633 1z"/>
<path d="M420 638 c0 -2 22 -64 49 -138 42 -120 51 -135 72 -138 22 -3 27 4
46 55 11 32 35 95 52 141 l30 82 -33 0 c-33 0 -34 -2 -63 -82 l-30 -82 -27 82
c-27 81 -28 82 -62 82 -19 0 -34 -1 -34 -2z"/>
<path d="M718 624 c-37 -19 -58 -63 -58 -119 0 -95 42 -145 122 -145 54 0 92
27 102 73 6 25 4 27 -28 27 -25 0 -35 -5 -39 -20 -4 -14 -14 -20 -35 -20 -38
0 -62 31 -62 80 0 49 24 80 61 80 17 0 32 -6 35 -15 4 -9 19 -15 35 -15 37 0
39 31 4 65 -28 29 -93 33 -137 9z"/>
</g>
</svg>
