<?xml version="1.0" standalone="no"?>
<!DOCTYPE svg PUBLIC "-//W3C//DTD SVG 20010904//EN"
 "http://www.w3.org/TR/2001/REC-SVG-20010904/DTD/svg10.dtd">
<svg version="1.0" xmlns="http://www.w3.org/2000/svg"
 width="128.000000pt" height="128.000000pt" viewBox="0 0 128.000000 128.000000"
 preserveAspectRatio="xMidYMid meet">
<g transform="translate(0.000000,128.000000) scale(0.100000,-0.100000)"
fill="#000000" stroke="none">
<path d="M551 1064 c-67 -34 -133 -119 -161 -211 -11 -36 -20 -73 -20 -82 0
-13 -7 -16 -34 -13 -51 6 -66 -23 -66 -123 0 -183 87 -338 228 -407 57 -28 77
-33 142 -33 65 0 85 5 142 33 141 69 228 224 228 407 0 100 -15 129 -66 123
-27 -3 -34 0 -34 13 0 9 -9 46 -20 82 -28 92 -94 177 -161 211 -67 33 -111 33
-178 0z m175 -39 c62 -36 119 -126 140 -222 11 -51 14 -81 7 -92 -19 -30 -32
-22 -38 24 -4 25 -12 48 -17 51 -20 13 -26 -13 -16 -73 8 -49 8 -66 -2 -78
-16 -19 -30 -4 -30 32 0 12 -5 34 -10 49 -8 20 -14 24 -22 16 -8 -8 -8 -29 0
-78 8 -49 8 -72 0 -81 -18 -22 -25 -15 -33 35 -9 59 -23 88 -37 74 -7 -7 -6
-33 2 -81 6 -38 9 -75 5 -81 -3 -5 -20 -10 -37 -10 -26 0 -48 17 -134 102 -57
56 -104 108 -104 115 0 53 36 160 72 213 71 107 164 138 254 85z"/>
</g>
</svg>
