<?xml version="1.0" standalone="no"?>
<!DOCTYPE svg PUBLIC "-//W3C//DTD SVG 20010904//EN"
 "http://www.w3.org/TR/2001/REC-SVG-20010904/DTD/svg10.dtd">
<svg version="1.0" xmlns="http://www.w3.org/2000/svg"
 width="128.000000pt" height="128.000000pt" viewBox="0 0 128.000000 128.000000"
 preserveAspectRatio="xMidYMid meet">
<g transform="translate(0.000000,128.000000) scale(0.100000,-0.100000)"
fill="#000000" stroke="none">
<path d="M235 870 l-230 -137 -3 -49 c-4 -66 15 -236 35 -306 8 -32 26 -69 39
-83 23 -25 23 -25 208 -25 l184 0 25 30 c32 37 45 77 66 198 16 95 16 96 49
106 19 5 44 5 64 0 31 -9 32 -12 44 -89 16 -112 39 -187 68 -218 l25 -27 184
0 c178 0 184 1 205 23 41 43 63 144 77 343 l6 91 -236 142 c-130 77 -241 141
-246 141 -17 0 -29 -48 -19 -75 10 -26 45 -50 215 -148 l90 -52 -223 -3 c-122
-1 -322 -1 -445 0 l-222 3 75 44 c188 110 220 133 226 156 7 29 -2 61 -19 68
-7 3 -116 -57 -242 -133z m215 -274 c0 -13 -21 -123 -35 -184 -5 -22 -8 -23
-132 -20 l-127 3 -17 90 c-10 50 -18 98 -18 108 -1 15 13 17 164 17 137 0 165
-2 165 -14z m710 11 c0 -1 -9 -49 -20 -107 -11 -58 -20 -106 -20 -108 0 -1
-57 -1 -127 0 l-128 3 -16 75 c-8 41 -18 90 -22 108 l-6 32 169 0 c94 0 170
-1 170 -3z"/>
</g>
</svg>
