<?xml version="1.0" standalone="no"?>
<!DOCTYPE svg PUBLIC "-//W3C//DTD SVG 20010904//EN"
 "http://www.w3.org/TR/2001/REC-SVG-20010904/DTD/svg10.dtd">
<svg version="1.0" xmlns="http://www.w3.org/2000/svg"
 width="128.000000pt" height="128.000000pt" viewBox="0 0 128.000000 128.000000"
 preserveAspectRatio="xMidYMid meet">
<g transform="translate(0.000000,128.000000) scale(0.100000,-0.100000)"
fill="#000000" stroke="none">
<path d="M445 1170 c-55 -22 -89 -93 -75 -155 30 -133 222 -136 261 -5 16 53
-10 123 -55 151 -32 20 -95 24 -131 9z"/>
<path d="M821 1049 c-47 -22 -86 -41 -88 -43 -5 -5 265 -546 272 -546 6 0 168
80 175 87 5 5 -262 543 -270 542 -3 0 -43 -18 -89 -40z"/>
<path d="M632 863 c-71 -39 -83 -49 -79 -67 3 -11 9 -42 12 -67 l7 -46 -102
-66 c-57 -37 -106 -67 -109 -67 -4 0 -61 18 -126 40 -65 22 -125 40 -133 40
-9 0 -12 -12 -10 -42 l3 -43 130 -87 c72 -48 134 -88 139 -88 5 0 60 34 122
75 62 41 115 75 117 75 2 0 10 -32 17 -70 7 -39 17 -73 22 -76 9 -6 268 77
268 86 -1 18 -179 445 -186 446 -5 1 -46 -18 -92 -43z"/>
<path d="M97 453 c-4 -3 -7 -107 -7 -230 l0 -223 45 0 45 0 0 230 0 230 -38 0
c-21 0 -42 -3 -45 -7z"/>
<path d="M763 316 c-68 -23 -124 -44 -127 -47 -4 -4 -157 -235 -170 -256 -5
-10 12 -13 76 -13 l83 0 64 85 c35 47 67 85 71 85 4 0 20 -38 34 -85 l27 -85
89 0 c50 0 90 3 90 8 0 4 -20 83 -43 177 -30 116 -48 171 -58 172 -8 1 -69
-17 -136 -41z"/>
</g>
</svg>
