<?xml version="1.0" standalone="no"?>
<!DOCTYPE svg PUBLIC "-//W3C//DTD SVG 20010904//EN"
 "http://www.w3.org/TR/2001/REC-SVG-20010904/DTD/svg10.dtd">
<svg version="1.0" xmlns="http://www.w3.org/2000/svg"
 width="128.000000pt" height="128.000000pt" viewBox="0 0 128.000000 128.000000"
 preserveAspectRatio="xMidYMid meet">
<g transform="translate(0.000000,128.000000) scale(0.100000,-0.100000)"
fill="#000000" stroke="none">
<path d="M575 1168 c-88 -31 -133 -100 -140 -209 l-4 -74 -49 -6 c-28 -4 -64
-15 -82 -25 -61 -36 -69 -64 -96 -307 -36 -338 -33 -366 43 -424 l36 -28 336
-3 c219 -2 349 1 373 8 44 12 93 66 107 116 16 58 -35 526 -63 579 -25 47 -91
85 -148 85 l-38 0 0 51 c0 85 -19 138 -66 185 -58 59 -135 78 -209 52z m143
-68 c52 -32 72 -74 72 -152 l0 -68 -150 0 -150 0 0 63 c0 75 21 122 69 154 44
29 113 31 159 3z m211 -283 c65 -23 70 -38 99 -325 l27 -261 -21 -28 c-45 -62
-57 -64 -406 -61 -438 4 -413 -19 -373 356 14 140 32 264 38 275 7 11 30 28
52 38 36 17 67 19 295 18 171 0 266 -4 289 -12z"/>
<path d="M604 681 c-87 -39 -154 -160 -140 -252 21 -139 142 -187 290 -115 62
30 75 48 56 71 -10 12 -20 10 -70 -15 -71 -36 -126 -45 -159 -28 -41 22 -34
32 37 56 129 44 202 121 186 195 -10 46 -31 73 -69 91 -43 21 -80 20 -131 -3z
m126 -61 c26 -26 25 -60 -1 -93 -21 -28 -123 -80 -176 -92 -33 -6 -33 -6 -33
30 0 50 24 97 71 140 47 42 106 48 139 15z"/>
</g>
</svg>
