<?xml version="1.0" standalone="no"?>
<!DOCTYPE svg PUBLIC "-//W3C//DTD SVG 20010904//EN"
 "http://www.w3.org/TR/2001/REC-SVG-20010904/DTD/svg10.dtd">
<svg version="1.0" xmlns="http://www.w3.org/2000/svg"
 width="128.000000pt" height="128.000000pt" viewBox="0 0 128.000000 128.000000"
 preserveAspectRatio="xMidYMid meet">
<g transform="translate(0.000000,128.000000) scale(0.100000,-0.100000)"
fill="#000000" stroke="none">
<path d="M48 1265 c-42 -23 -48 -44 -48 -174 0 -112 2 -122 24 -148 l24 -28
496 0 495 0 22 22 c13 13 25 40 28 65 6 42 7 43 49 46 l42 3 0 -115 0 -116
-315 0 -315 0 0 -90 0 -90 -45 0 -45 0 0 -320 0 -320 135 0 135 0 0 320 0 320
-45 0 -45 0 0 45 0 45 320 0 320 0 0 205 0 205 -95 0 -95 0 0 39 c0 28 -7 49
-24 68 l-24 28 -484 2 c-413 2 -487 0 -510 -12z"/>
</g>
</svg>
