<?xml version="1.0" standalone="no"?>
<!DOCTYPE svg PUBLIC "-//W3C//DTD SVG 20010904//EN"
 "http://www.w3.org/TR/2001/REC-SVG-20010904/DTD/svg10.dtd">
<svg version="1.0" xmlns="http://www.w3.org/2000/svg"
 width="128.000000pt" height="128.000000pt" viewBox="0 0 128.000000 128.000000"
 preserveAspectRatio="xMidYMid meet">
<g transform="translate(0.000000,128.000000) scale(0.100000,-0.100000)"
fill="#000000" stroke="none">
<path d="M750 1177 c0 -50 2 -55 25 -61 58 -15 84 -76 47 -109 -17 -16 -23
-14 -102 38 -81 53 -185 95 -236 95 -33 0 -85 -23 -105 -46 -25 -30 -269 -770
-269 -816 0 -87 63 -157 149 -166 41 -4 102 14 434 122 421 138 428 142 443
222 9 51 -20 151 -68 230 -32 53 -37 68 -27 75 26 17 112 39 151 39 l38 0 0
50 c0 36 -4 52 -15 56 -24 10 -142 -15 -203 -42 l-56 -25 -32 38 -31 37 26 40
c38 57 37 138 -2 189 -30 39 -81 70 -134 82 l-33 7 0 -55z m-154 -182 c38 -19
80 -44 94 -54 l24 -19 -37 -7 -37 -7 0 -55 0 -55 38 7 c20 3 57 16 82 26 l45
20 41 -47 c40 -46 41 -49 28 -79 -7 -17 -16 -55 -20 -83 -8 -60 0 -67 61 -54
34 7 41 13 46 37 5 30 5 30 32 -23 15 -28 30 -72 34 -97 l6 -45 -39 0 c-83 0
-226 92 -353 225 -118 124 -202 273 -185 327 9 29 63 22 140 -17z m-125 -274
c71 -96 215 -235 297 -285 34 -22 61 -41 59 -43 -2 -1 -36 -14 -76 -28 l-72
-24 -53 20 c-114 42 -206 131 -262 253 l-26 56 28 82 c23 70 29 80 38 64 6
-10 36 -53 67 -95z m-142 -260 c32 -51 103 -119 153 -149 16 -9 28 -19 28 -22
0 -4 -52 -23 -115 -43 -94 -30 -119 -35 -139 -26 -48 22 -49 49 -9 174 20 63
40 115 43 115 4 0 21 -22 39 -49z"/>
</g>
</svg>
