<?xml version="1.0" standalone="no"?>
<!DOCTYPE svg PUBLIC "-//W3C//DTD SVG 20010904//EN"
 "http://www.w3.org/TR/2001/REC-SVG-20010904/DTD/svg10.dtd">
<svg version="1.0" xmlns="http://www.w3.org/2000/svg"
 width="128.000000pt" height="128.000000pt" viewBox="0 0 128.000000 128.000000"
 preserveAspectRatio="xMidYMid meet">
<g transform="translate(0.000000,128.000000) scale(0.100000,-0.100000)"
fill="#000000" stroke="none">
<path d="M147 1262 c-22 -24 -21 -54 1 -81 l17 -22 473 3 c456 3 474 4 488 22
18 26 18 61 -2 80 -14 14 -72 16 -488 16 -445 0 -474 -1 -489 -18z"/>
<path d="M55 935 c-55 -159 -57 -167 -45 -209 42 -152 225 -166 294 -23 14 29
25 44 26 34 0 -10 9 -35 19 -56 33 -65 99 -93 165 -71 39 13 92 68 102 105 8
32 20 32 28 0 9 -37 63 -92 102 -105 78 -26 175 27 200 110 l11 35 7 -34 c12
-51 75 -108 129 -116 78 -12 155 42 177 124 9 35 5 55 -46 205 l-56 166 -528
0 -528 0 -57 -165z"/>
<path d="M301 576 c-29 -46 -99 -80 -152 -73 l-39 5 0 -218 0 -218 26 -31 26
-31 476 0 c376 1 481 3 494 14 32 24 38 65 38 281 l0 213 -38 -5 c-50 -7 -103
16 -138 60 l-28 36 -23 -34 c-24 -36 -95 -75 -134 -75 -40 1 -105 36 -134 73
l-28 35 -21 -32 c-30 -45 -100 -78 -154 -73 -48 5 -98 36 -129 79 l-21 29 -21
-35z"/>
</g>
</svg>
