<?xml version="1.0" standalone="no"?>
<!DOCTYPE svg PUBLIC "-//W3C//DTD SVG 20010904//EN"
 "http://www.w3.org/TR/2001/REC-SVG-20010904/DTD/svg10.dtd">
<svg version="1.0" xmlns="http://www.w3.org/2000/svg"
 width="128.000000pt" height="128.000000pt" viewBox="0 0 128.000000 128.000000"
 preserveAspectRatio="xMidYMid meet">
<g transform="translate(0.000000,128.000000) scale(0.100000,-0.100000)"
fill="#000000" stroke="none">
<path d="M160 1096 c0 -21 5 -26 25 -26 21 0 25 -5 25 -30 0 -25 -4 -30 -25
-30 -20 0 -25 -5 -25 -25 0 -20 5 -25 25 -25 20 0 25 -5 25 -25 0 -20 -5 -25
-25 -25 -21 0 -25 -5 -25 -30 0 -25 4 -30 25 -30 l25 0 0 -225 c0 -207 -2
-227 -20 -257 -11 -18 -20 -36 -20 -40 0 -5 203 -8 451 -8 l452 0 -7 52 c-21
155 -142 268 -287 268 -89 0 -203 -64 -249 -139 -19 -32 -30 -40 -45 -36 -11
3 -41 8 -67 12 l-48 6 0 182 0 183 74 4 c83 4 108 19 133 76 l13 32 265 0 265
0 0 25 0 25 -265 0 -265 0 -13 33 c-30 69 -39 72 -238 75 l-179 3 0 -25z m160
-56 c0 -25 -4 -30 -25 -30 -21 0 -25 5 -25 30 0 25 4 30 25 30 21 0 25 -5 25
-30z m160 0 c0 -29 -1 -30 -50 -30 -52 0 -69 13 -56 45 4 11 20 15 56 15 49 0
50 -1 50 -30z m-160 -105 c0 -20 -5 -25 -25 -25 -20 0 -25 5 -25 25 0 20 5 25
25 25 20 0 25 -5 25 -25z m160 0 c0 -24 -3 -25 -55 -25 -52 0 -55 1 -55 25 0
24 3 25 55 25 52 0 55 -1 55 -25z m-160 -275 c0 -177 -1 -190 -19 -200 -11 -5
-22 -10 -25 -10 -3 0 -6 90 -6 200 l0 200 25 0 25 0 0 -190z"/>
<path d="M160 215 l54 -55 426 0 426 0 54 55 54 55 -534 0 -534 0 54 -55z"/>
</g>
</svg>
