<?xml version="1.0" standalone="no"?>
<!DOCTYPE svg PUBLIC "-//W3C//DTD SVG 20010904//EN"
 "http://www.w3.org/TR/2001/REC-SVG-20010904/DTD/svg10.dtd">
<svg version="1.0" xmlns="http://www.w3.org/2000/svg"
 width="128.000000pt" height="128.000000pt" viewBox="0 0 128.000000 128.000000"
 preserveAspectRatio="xMidYMid meet">
<g transform="translate(0.000000,128.000000) scale(0.100000,-0.100000)"
fill="#000000" stroke="none">
<path d="M92 1233 l3 -48 40 0 40 0 3 48 3 47 -46 0 -46 0 3 -47z"/>
<path d="M274 1266 c-3 -8 -4 -29 -2 -48 3 -31 5 -33 46 -36 l42 -3 0 50 0 51
-40 0 c-26 0 -43 -5 -46 -14z"/>
<path d="M945 1217 c-52 -25 -115 -87 -115 -112 0 -11 12 -15 40 -15 l40 0 0
-45 0 -45 -40 0 c-45 0 -47 -4 -22 -42 80 -121 284 -133 381 -22 109 123 16
290 -167 301 -56 3 -76 0 -117 -20z"/>
<path d="M556 1164 c-3 -9 -6 -99 -6 -201 l0 -185 88 4 87 3 3 108 3 107 44 0
45 0 0 45 0 45 -45 0 c-44 0 -45 1 -45 33 0 48 -15 57 -96 57 -56 0 -73 -3
-78 -16z"/>
<path d="M0 1045 l0 -45 45 0 45 0 0 45 0 45 -45 0 -45 0 0 -45z"/>
<path d="M182 1048 c3 -43 3 -43 46 -46 l42 -3 0 45 0 46 -46 0 -45 0 3 -42z"/>
<path d="M362 1048 l3 -43 45 0 45 0 3 43 3 42 -51 0 -51 0 3 -42z"/>
<path d="M90 865 l0 -45 45 0 45 0 0 45 0 45 -45 0 -45 0 0 -45z"/>
<path d="M270 865 l0 -45 45 0 45 0 0 45 0 45 -45 0 -45 0 0 -45z"/>
<path d="M391 717 c-60 -19 -147 -110 -191 -201 -50 -101 -76 -215 -61 -268
20 -65 180 -205 270 -236 21 -8 108 -12 235 -12 173 0 207 3 241 19 58 26 163
113 207 172 33 44 38 58 38 104 0 29 -10 84 -21 121 -43 139 -106 234 -187
281 l-47 28 -225 2 c-144 1 -237 -2 -259 -10z"/>
</g>
</svg>
