<?xml version="1.0" standalone="no"?>
<!DOCTYPE svg PUBLIC "-//W3C//DTD SVG 20010904//EN"
 "http://www.w3.org/TR/2001/REC-SVG-20010904/DTD/svg10.dtd">
<svg version="1.0" xmlns="http://www.w3.org/2000/svg"
 width="128.000000pt" height="128.000000pt" viewBox="0 0 128.000000 128.000000"
 preserveAspectRatio="xMidYMid meet">
<g transform="translate(0.000000,128.000000) scale(0.100000,-0.100000)"
fill="#000000" stroke="none">
<path d="M412 1028 c-8 -8 -12 -46 -12 -103 0 -81 -2 -94 -21 -111 -12 -10
-30 -37 -40 -59 -16 -35 -19 -68 -19 -266 0 -162 3 -228 12 -237 17 -17 599
-17 616 0 9 9 12 76 12 238 0 224 0 227 -26 279 -15 29 -33 55 -40 58 -11 4
-14 28 -14 97 0 58 -4 96 -12 104 -17 17 -439 17 -456 0z m388 -108 l0 -40
-160 0 -160 0 0 40 0 40 160 0 160 0 0 -40z m20 -135 c54 -28 60 -54 60 -270
l0 -195 -240 0 -240 0 0 195 c0 284 0 284 238 285 118 0 160 -3 182 -15z"/>
<path d="M600 713 c-8 -3 -22 -11 -30 -19 -8 -7 -37 -14 -64 -16 -33 -2 -52
-9 -60 -20 -16 -26 4 -52 43 -56 29 -3 31 -6 31 -42 0 -36 -2 -39 -31 -42 -39
-4 -59 -30 -43 -55 8 -12 27 -19 60 -21 28 -2 57 -11 67 -20 12 -11 36 -17 67
-17 31 0 55 6 67 17 10 9 39 18 67 20 33 2 52 9 60 21 16 25 -4 51 -43 55 -29
3 -31 6 -31 42 0 36 2 39 31 42 39 4 59 30 43 56 -8 11 -27 18 -60 20 -27 2
-56 10 -66 18 -18 17 -84 27 -108 17z m69 -87 c19 -22 10 -126 -11 -140 -33
-20 -53 4 -56 68 -3 61 8 86 38 86 10 0 23 -6 29 -14z"/>
</g>
</svg>
