<?xml version="1.0" standalone="no"?>
<!DOCTYPE svg PUBLIC "-//W3C//DTD SVG 20010904//EN"
 "http://www.w3.org/TR/2001/REC-SVG-20010904/DTD/svg10.dtd">
<svg version="1.0" xmlns="http://www.w3.org/2000/svg"
 width="128.000000pt" height="128.000000pt" viewBox="0 0 128.000000 128.000000"
 preserveAspectRatio="xMidYMid meet">
<g transform="translate(0.000000,128.000000) scale(0.100000,-0.100000)"
fill="#000000" stroke="none">
<path d="M826 1270 c-108 -33 -182 -217 -142 -353 56 -193 250 -154 313 62 47
162 -51 328 -171 291z"/>
<path d="M329 1243 c-44 -37 -69 -96 -69 -164 0 -110 53 -221 126 -266 109
-65 205 17 205 177 0 88 -21 155 -68 210 -63 73 -138 90 -194 43z"/>
<path d="M1069 862 c-55 -35 -98 -96 -116 -164 -19 -74 -16 -117 10 -168 45
-92 135 -99 222 -19 102 94 122 264 40 346 -43 43 -92 45 -156 5z"/>
<path d="M93 850 c-42 -10 -63 -27 -80 -67 -49 -118 38 -302 160 -338 46 -14
53 -14 86 3 52 25 75 71 73 148 -2 158 -119 282 -239 254z"/>
<path d="M550 594 c-60 -19 -132 -73 -174 -132 -50 -68 -113 -198 -127 -263
-16 -76 -6 -118 37 -160 31 -30 41 -34 87 -33 32 1 92 15 157 38 130 46 182
45 310 -8 88 -37 130 -43 174 -26 37 14 66 66 66 120 -1 128 -185 394 -315
456 -58 28 -144 31 -215 8z"/>
</g>
</svg>
