<?xml version="1.0" standalone="no"?>
<!DOCTYPE svg PUBLIC "-//W3C//DTD SVG 20010904//EN"
 "http://www.w3.org/TR/2001/REC-SVG-20010904/DTD/svg10.dtd">
<svg version="1.0" xmlns="http://www.w3.org/2000/svg"
 width="128.000000pt" height="128.000000pt" viewBox="0 0 128.000000 128.000000"
 preserveAspectRatio="xMidYMid meet">
<g transform="translate(0.000000,128.000000) scale(0.100000,-0.100000)"
fill="#000000" stroke="none">
<path d="M707 1014 c-15 -15 -5 -42 63 -166 l70 -128 -54 -84 c-50 -78 -92
-116 -126 -116 -28 0 -82 -35 -95 -61 -52 -100 37 -211 143 -176 62 20 107
118 71 154 -19 19 -39 3 -39 -31 0 -90 -109 -113 -140 -30 -14 35 12 82 48 89
71 15 116 49 169 128 l52 79 30 -61 c43 -84 85 -128 134 -143 58 -16 87 -44
87 -84 0 -35 -37 -74 -70 -74 -33 0 -69 38 -72 78 -2 29 -7 37 -23 37 -16 0
-21 -8 -23 -41 -8 -105 133 -158 208 -79 15 16 24 41 28 73 4 44 1 52 -27 84
-20 23 -46 39 -74 46 -23 6 -54 24 -68 39 -25 27 -99 155 -99 172 0 4 34 62
76 129 41 68 74 130 72 140 -7 38 -35 12 -103 -95 -38 -62 -74 -112 -78 -110
-4 1 -36 54 -70 116 -59 110 -75 130 -90 115z"/>
<path d="M168 969 c-24 -24 -25 -29 -32 -254 -6 -182 -5 -230 6 -236 7 -5 17
-4 21 0 5 5 11 108 14 230 4 159 10 224 19 231 8 7 57 8 144 4 l131 -7 -3 -31
-3 -31 -86 4 c-127 5 -124 10 -132 -225 -8 -232 -12 -226 121 -234 86 -5 87
-5 90 -32 2 -18 -2 -28 -10 -29 -45 -3 -263 3 -274 8 -7 3 -16 13 -19 24 -7
21 -30 25 -41 8 -10 -17 16 -57 45 -68 14 -5 88 -12 163 -16 129 -6 138 -5
157 14 26 26 29 92 5 112 -9 8 -58 19 -108 24 -51 6 -90 14 -88 20 1 6 44 10
102 10 130 0 132 18 3 25 -93 5 -98 6 -101 28 -4 23 -3 23 99 20 75 -2 103 0
106 10 4 9 -18 12 -85 12 -104 0 -122 5 -122 32 0 19 6 20 102 16 74 -2 102 0
105 10 4 9 -16 12 -79 12 -104 0 -128 6 -128 33 0 19 4 19 105 13 92 -6 105
-5 105 8 0 13 -13 16 -74 16 -103 0 -136 8 -136 32 0 19 6 20 105 17 137 -5
141 14 5 22 -103 7 -117 10 -106 28 4 7 36 8 86 4 106 -8 130 6 130 76 0 28
-6 53 -13 59 -7 6 -79 14 -159 18 -146 7 -146 7 -170 -17z"/>
</g>
</svg>
