<?xml version="1.0" standalone="no"?>
<!DOCTYPE svg PUBLIC "-//W3C//DTD SVG 20010904//EN"
 "http://www.w3.org/TR/2001/REC-SVG-20010904/DTD/svg10.dtd">
<svg version="1.0" xmlns="http://www.w3.org/2000/svg"
 width="128.000000pt" height="128.000000pt" viewBox="0 0 128.000000 128.000000"
 preserveAspectRatio="xMidYMid meet">
<g transform="translate(0.000000,128.000000) scale(0.100000,-0.100000)"
fill="#000000" stroke="none">
<path d="M855 1273 c-11 -3 -23 -10 -27 -17 -4 -6 -8 -77 -8 -158 l0 -148 230
0 230 0 0 148 c0 81 -5 154 -10 162 -8 12 -43 15 -202 17 -106 1 -202 -1 -213
-4z m333 -180 l-3 -88 -130 0 -130 0 -3 88 -3 87 136 0 136 0 -3 -87z"/>
<path d="M120 1068 c-14 -15 -20 -35 -20 -68 l0 -46 133 4 c72 2 133 5 134 6
1 0 -2 20 -7 44 -13 72 -29 82 -131 82 -78 0 -91 -3 -109 -22z"/>
<path d="M42 898 c-40 -20 -43 -61 -40 -471 l3 -389 24 -19 c22 -18 47 -19
602 -19 411 0 585 3 603 11 14 7 30 25 36 42 14 42 14 763 -1 806 -6 17 -19
36 -29 41 -27 14 -1168 12 -1198 -2z m838 -114 c70 -31 150 -110 182 -181 18
-39 22 -67 23 -148 0 -90 -3 -106 -28 -157 -36 -73 -128 -160 -194 -182 -224
-77 -450 50 -492 276 -26 141 41 290 169 374 89 59 232 67 340 18z"/>
<path d="M655 668 c-107 -37 -175 -166 -146 -274 13 -50 83 -132 128 -150 38
-16 140 -18 177 -4 14 5 46 28 71 51 151 140 46 392 -161 388 -22 0 -52 -5
-69 -11z"/>
</g>
</svg>
