<?xml version="1.0" standalone="no"?>
<!DOCTYPE svg PUBLIC "-//W3C//DTD SVG 20010904//EN"
 "http://www.w3.org/TR/2001/REC-SVG-20010904/DTD/svg10.dtd">
<svg version="1.0" xmlns="http://www.w3.org/2000/svg"
 width="128.000000pt" height="128.000000pt" viewBox="0 0 128.000000 128.000000"
 preserveAspectRatio="xMidYMid meet">
<g transform="translate(0.000000,128.000000) scale(0.100000,-0.100000)"
fill="#000000" stroke="none">
<path d="M530 1199 c-83 -38 -104 -72 -80 -133 l10 -26 180 0 180 0 10 26 c24
61 3 95 -80 133 -30 14 -66 21 -110 21 -44 0 -80 -7 -110 -21z"/>
<path d="M497 973 c5 -16 8 -61 8 -100 l0 -73 135 0 135 0 0 73 c0 39 3 84 8
100 l7 27 -150 0 -150 0 7 -27z"/>
<path d="M389 701 c-54 -55 -87 -106 -103 -158 l-7 -23 361 0 361 0 -6 23
c-13 44 -71 130 -117 173 l-47 44 -193 0 -192 0 -57 -59z"/>
<path d="M286 453 c18 -73 51 -116 193 -245 l52 -48 109 0 109 0 52 47 c142
130 175 173 193 246 l6 27 -360 0 -360 0 6 -27z"/>
<path d="M455 106 c-22 -7 -40 -19 -40 -27 0 -12 38 -14 225 -14 185 0 225 2
225 14 0 8 -20 20 -45 27 -57 17 -309 17 -365 0z"/>
</g>
</svg>
