<?xml version="1.0" standalone="no"?>
<!DOCTYPE svg PUBLIC "-//W3C//DTD SVG 20010904//EN"
 "http://www.w3.org/TR/2001/REC-SVG-20010904/DTD/svg10.dtd">
<svg version="1.0" xmlns="http://www.w3.org/2000/svg"
 width="128.000000pt" height="128.000000pt" viewBox="0 0 128.000000 128.000000"
 preserveAspectRatio="xMidYMid meet">
<g transform="translate(0.000000,128.000000) scale(0.100000,-0.100000)"
fill="#000000" stroke="none">
<path d="M310 1130 c-19 -19 -20 -33 -20 -200 l0 -180 -60 0 c-103 0 -100 8
-100 -310 0 -257 1 -271 20 -290 19 -19 33 -20 490 -20 457 0 471 1 490 20 19
19 20 33 20 290 0 318 3 310 -100 310 l-60 0 0 102 0 102 -98 98 -98 98 -232
0 c-219 0 -233 -1 -252 -20z m380 -152 c0 -124 4 -128 127 -128 l93 0 0 -130
0 -130 -270 0 -270 0 0 233 c0 129 3 237 7 240 3 4 75 7 160 7 l153 0 0 -92z
m147 20 c29 -29 53 -56 53 -61 0 -4 -26 -7 -57 -5 l-58 3 -3 58 c-2 31 0 57 5
57 4 0 31 -23 60 -52z m-547 -386 c0 -36 6 -66 16 -80 15 -22 16 -22 334 -22
318 0 319 0 334 22 10 14 16 44 16 81 l0 58 38 -3 37 -3 0 -225 0 -225 -37 -3
-38 -3 0 61 c0 108 28 100 -350 100 -378 0 -350 8 -350 -100 l0 -61 -37 3 -38
3 -3 215 c-1 118 0 220 2 227 3 7 21 13 41 13 l35 0 0 -58z m618 -359 l-3 -38
-265 0 -265 0 -3 38 -3 37 271 0 271 0 -3 -37z"/>
<path d="M460 910 c-18 -34 12 -60 70 -60 56 0 83 17 78 51 -3 22 -8 24 -70
27 -60 3 -68 1 -78 -18z"/>
<path d="M460 749 c-9 -16 -8 -25 6 -40 15 -17 32 -19 174 -19 142 0 159 2
174 19 14 15 15 24 6 40 -10 20 -19 21 -180 21 -161 0 -170 -1 -180 -21z"/>
</g>
</svg>
