<?xml version="1.0" standalone="no"?>
<!DOCTYPE svg PUBLIC "-//W3C//DTD SVG 20010904//EN"
 "http://www.w3.org/TR/2001/REC-SVG-20010904/DTD/svg10.dtd">
<svg version="1.0" xmlns="http://www.w3.org/2000/svg"
 width="128.000000pt" height="128.000000pt" viewBox="0 0 128.000000 128.000000"
 preserveAspectRatio="xMidYMid meet">
<g transform="translate(0.000000,128.000000) scale(0.100000,-0.100000)"
fill="#000000" stroke="none">
<path d="M612 1088 c-7 -7 -12 -21 -12 -32 0 -42 34 -266 40 -266 4 0 15 63
25 140 14 112 15 143 5 155 -15 18 -42 19 -58 3z"/>
<path d="M453 963 c-27 -10 -10 -50 58 -140 40 -51 73 -93 75 -93 4 0 -19 61
-62 162 -31 73 -41 84 -71 71z"/>
<path d="M793 962 c-12 -7 -105 -223 -100 -229 2 -1 36 40 75 92 72 94 86 128
56 139 -19 7 -16 7 -31 -2z"/>
<path d="M251 876 c-7 -8 -11 -25 -9 -37 2 -18 26 -32 133 -76 72 -29 133 -52
137 -50 11 3 -211 172 -231 175 -10 2 -23 -4 -30 -12z"/>
<path d="M873 803 c-62 -48 -111 -88 -109 -90 5 -6 223 83 252 102 37 24 26
75 -15 75 -9 0 -67 -39 -128 -87z"/>
<path d="M274 655 c-11 -27 4 -45 37 -45 49 0 209 23 209 30 0 6 -174 30 -218
30 -12 0 -25 -7 -28 -15z"/>
<path d="M833 657 c-40 -5 -73 -13 -73 -17 0 -9 216 -34 235 -26 10 3 15 15
13 28 -3 20 -9 23 -53 24 -27 1 -83 -3 -122 -9z"/>
<path d="M396 525 c-127 -52 -156 -69 -156 -93 0 -22 19 -42 40 -42 12 0 190
130 235 171 17 17 -9 9 -119 -36z"/>
<path d="M812 527 c112 -90 177 -137 191 -137 21 0 39 26 35 51 -2 18 -26 32
-133 76 -71 29 -134 53 -138 53 -5 0 15 -19 45 -43z"/>
<path d="M512 455 c-40 -51 -72 -103 -72 -113 0 -22 22 -34 44 -26 12 5 109
224 102 231 -1 1 -35 -40 -74 -92z"/>
<path d="M709 503 c74 -188 82 -200 116 -187 29 12 14 48 -56 141 -40 51 -73
93 -75 93 -2 0 5 -21 15 -47z"/>
<path d="M615 350 c-14 -115 -15 -143 -5 -155 16 -19 49 -16 63 6 11 18 -20
289 -33 289 -4 0 -15 -63 -25 -140z"/>
</g>
</svg>
