<?xml version="1.0" standalone="no"?>
<!DOCTYPE svg PUBLIC "-//W3C//DTD SVG 20010904//EN"
 "http://www.w3.org/TR/2001/REC-SVG-20010904/DTD/svg10.dtd">
<svg version="1.0" xmlns="http://www.w3.org/2000/svg"
 width="128.000000pt" height="128.000000pt" viewBox="0 0 128.000000 128.000000"
 preserveAspectRatio="xMidYMid meet">
<g transform="translate(0.000000,128.000000) scale(0.100000,-0.100000)"
fill="#000000" stroke="none">
<path d="M527 1003 c-149 -153 -324 -332 -389 -398 -64 -66 -122 -133 -127
-148 -6 -16 -11 -90 -11 -166 0 -127 2 -141 23 -172 26 -39 60 -59 102 -59 23
0 34 -7 47 -30 10 -17 25 -30 37 -30 23 0 51 25 51 46 0 12 57 14 379 14 l379
0 6 -24 c11 -45 69 -45 86 0 7 19 17 24 42 24 45 0 96 34 114 75 19 47 20 282
0 330 -30 72 -14 69 -560 75 l-489 5 322 329 c268 274 321 334 321 357 0 27
-22 49 -50 49 -7 0 -134 -125 -283 -277z m648 -703 l0 -135 -535 0 -535 0 -3
124 c-1 69 0 131 2 138 4 11 105 13 538 11 l533 -3 0 -135z"/>
<path d="M682 274 c-24 -17 -29 -53 -10 -72 7 -7 27 -12 44 -12 60 0 80 70 27
91 -32 12 -35 12 -61 -7z"/>
<path d="M833 280 c-27 -11 -38 -43 -23 -70 12 -23 77 -29 98 -8 19 19 14 55
-10 72 -25 18 -33 19 -65 6z"/>
<path d="M969 271 c-20 -16 -22 -23 -14 -47 10 -28 14 -29 77 -32 59 -3 68 0
78 18 6 11 8 30 5 41 -13 40 -106 53 -146 20z"/>
<path d="M440 640 c-24 -24 -25 -43 -4 -64 13 -14 58 -16 334 -16 318 0 319 0
334 22 20 29 20 34 -4 58 -19 19 -33 20 -330 20 -297 0 -311 -1 -330 -20z"/>
</g>
</svg>
