<?xml version="1.0" standalone="no"?>
<!DOCTYPE svg PUBLIC "-//W3C//DTD SVG 20010904//EN"
 "http://www.w3.org/TR/2001/REC-SVG-20010904/DTD/svg10.dtd">
<svg version="1.0" xmlns="http://www.w3.org/2000/svg"
 width="128.000000pt" height="128.000000pt" viewBox="0 0 128.000000 128.000000"
 preserveAspectRatio="xMidYMid meet">
<g transform="translate(0.000000,128.000000) scale(0.100000,-0.100000)"
fill="#000000" stroke="none">
<path d="M290 1175 l0 -54 -67 -3 -68 -3 -3 -47 -3 -48 69 0 69 0 7 -177 c4
-98 9 -180 11 -182 2 -2 25 0 50 3 l45 7 0 180 0 179 70 0 70 0 0 45 0 45 -70
0 -70 0 0 55 0 55 -55 0 -55 0 0 -55z"/>
<path d="M818 1180 c-82 -44 -135 -148 -125 -250 15 -170 181 -279 349 -228
41 12 120 75 139 111 l11 20 -28 -20 c-100 -70 -247 -54 -325 35 -44 50 -59
91 -59 162 0 68 14 110 54 158 15 17 26 32 24 32 -1 -1 -19 -10 -40 -20z"/>
<path d="M1050 1116 c0 -30 -5 -38 -27 -48 l-28 -11 33 -9 c27 -7 32 -13 32
-38 0 -37 13 -39 29 -4 10 22 15 25 42 19 l31 -7 -18 27 c-15 22 -15 30 -5 47
16 26 10 31 -22 19 -22 -9 -29 -7 -47 16 l-20 26 0 -37z"/>
<path d="M941 607 c-6 -8 -30 -19 -53 -27 -24 -7 -52 -18 -63 -26 -11 -8 -32
-14 -47 -14 -22 0 -28 -5 -28 -22 0 -27 -47 -148 -66 -168 -12 -12 -11 -17 4
-35 20 -23 59 -117 64 -155 2 -20 10 -26 38 -31 19 -3 49 -13 67 -22 18 -9 38
-17 44 -17 7 0 23 -10 36 -22 22 -21 23 -21 43 -3 25 23 127 65 158 65 16 0
22 6 22 23 0 12 11 44 25 71 14 27 25 55 25 61 0 7 9 20 20 30 20 18 20 19 1
39 -10 12 -24 39 -31 61 -7 22 -19 49 -26 60 -8 11 -14 29 -14 41 0 16 -8 23
-27 27 -36 6 -141 51 -156 66 -14 14 -22 14 -36 -2z m34 -57 c3 -5 14 -10 23
-10 10 0 34 -9 55 -20 20 -11 44 -20 52 -20 8 0 15 -6 15 -13 0 -7 9 -30 20
-52 11 -22 20 -46 20 -55 0 -9 5 -21 12 -28 12 -12 11 -16 -30 -102 -12 -25
-22 -51 -22 -57 0 -7 -4 -13 -10 -13 -5 0 -41 -15 -80 -34 -69 -33 -72 -33
-104 -17 -18 9 -52 25 -77 35 -36 16 -49 29 -67 67 -12 27 -22 55 -22 62 0 8
-6 20 -14 26 -12 10 -12 17 -2 39 47 98 56 118 56 130 0 6 6 12 13 12 7 0 30
9 52 20 22 11 47 20 57 20 9 0 20 5 23 10 3 6 10 10 15 10 5 0 12 -4 15 -10z"/>
<path d="M881 499 l-44 -20 38 -39 c31 -32 42 -37 57 -29 14 7 18 21 18 59 0
57 -4 59 -69 29z"/>
<path d="M970 470 c0 -38 4 -52 18 -59 15 -8 26 -3 57 29 l38 39 -44 20 c-65
30 -69 28 -69 -29z"/>
<path d="M794 415 c-24 -58 -20 -65 35 -65 65 0 74 21 29 67 -17 18 -36 33
-40 33 -5 0 -16 -16 -24 -35z"/>
<path d="M1056 421 c-42 -44 -32 -65 32 -69 59 -3 63 4 35 63 -20 43 -31 44
-67 6z"/>
<path d="M926 374 c-20 -19 -21 -58 -2 -73 25 -21 69 -9 80 21 17 50 -42 89
-78 52z"/>
<path d="M780 305 c0 -11 9 -35 21 -54 l20 -34 35 34 c47 46 41 63 -24 69 -47
5 -52 4 -52 -15z"/>
<path d="M1030 302 c0 -10 15 -33 34 -51 l34 -33 15 23 c9 13 19 36 22 52 l7
27 -56 0 c-47 0 -56 -3 -56 -18z"/>
<path d="M871 236 l-34 -35 34 -20 c19 -12 44 -21 57 -21 20 0 22 5 22 49 0
35 -4 51 -16 55 -25 10 -28 8 -63 -28z"/>
<path d="M983 263 c-8 -3 -13 -24 -13 -54 0 -43 3 -49 20 -49 24 0 80 27 80
38 0 9 -63 72 -70 71 -3 0 -11 -3 -17 -6z"/>
<path d="M465 580 c-18 -20 -18 -21 3 -43 l22 -21 20 20 20 20 -23 22 -24 22
-18 -20z"/>
<path d="M349 521 c69 -96 180 -156 241 -131 62 26 88 90 54 138 -19 28 -44
29 -44 2 0 -55 -63 -97 -127 -85 -54 10 -70 21 -98 65 -14 22 -30 40 -36 40
-6 0 -1 -13 10 -29z"/>
<path d="M62 470 c-22 -9 -22 -11 -6 -35 18 -28 28 -29 93 -14 102 23 138 -24
59 -81 -22 -16 -52 -30 -65 -30 -30 0 -26 -17 9 -43 24 -18 30 -18 76 -6 42
10 54 10 66 0 21 -18 20 -74 -2 -101 -25 -31 -104 -30 -180 4 l-57 26 35 -30
c52 -45 118 -74 181 -78 51 -4 58 -2 77 23 12 15 22 38 22 51 0 41 104 104
173 104 45 0 76 -22 59 -43 -7 -8 -25 -18 -40 -22 -59 -15 -68 -50 -25 -93
l27 -26 9 27 c6 20 19 29 48 37 53 15 53 45 -2 105 -55 60 -115 83 -176 67
-24 -7 -61 -23 -81 -37 l-36 -25 -23 22 c-20 19 -21 23 -8 42 8 11 15 31 15
43 0 27 -52 88 -91 109 -31 16 -121 18 -157 4z"/>
</g>
</svg>
