<?xml version="1.0" standalone="no"?>
<!DOCTYPE svg PUBLIC "-//W3C//DTD SVG 20010904//EN"
 "http://www.w3.org/TR/2001/REC-SVG-20010904/DTD/svg10.dtd">
<svg version="1.0" xmlns="http://www.w3.org/2000/svg"
 width="128.000000pt" height="128.000000pt" viewBox="0 0 128.000000 128.000000"
 preserveAspectRatio="xMidYMid meet">
<g transform="translate(0.000000,128.000000) scale(0.100000,-0.100000)"
fill="#000000" stroke="none">
<path d="M445 1269 c-163 -24 -368 -104 -408 -160 -22 -31 -36 -230 -37 -519
0 -291 4 -303 175 -477 81 -83 107 -103 138 -109 53 -9 74 9 139 118 31 51 70
112 87 136 l31 42 69 0 c66 0 71 -2 96 -32 15 -17 54 -78 87 -135 63 -108 87
-133 126 -133 41 0 77 27 179 134 145 152 147 156 151 401 2 110 -1 278 -6
374 -8 146 -13 177 -29 200 -43 59 -225 131 -391 156 -105 16 -311 18 -407 4z
m350 -59 c49 -6 126 -20 170 -31 86 -22 232 -86 252 -111 17 -20 34 -470 24
-624 l-7 -111 -51 -64 c-71 -88 -172 -186 -207 -199 -16 -6 -37 -8 -47 -5 -10
4 -47 54 -81 112 -35 58 -79 124 -98 146 -36 40 -36 40 -108 40 -66 0 -76 -3
-101 -27 -16 -15 -60 -80 -97 -143 -38 -64 -79 -120 -90 -125 -36 -17 -88 17
-184 120 -140 149 -134 122 -128 515 3 239 8 339 17 355 26 49 255 133 411
151 108 12 221 12 325 1z"/>
<path d="M395 1145 c-158 -30 -291 -83 -306 -122 -12 -33 -31 -448 -24 -538
11 -135 8 -129 121 -246 58 -59 117 -110 131 -114 38 -9 66 15 120 107 26 45
69 104 94 130 45 47 46 48 108 48 62 0 64 -1 103 -43 21 -23 68 -86 104 -140
36 -54 76 -102 87 -106 38 -14 75 9 157 98 109 117 119 140 126 287 7 149 -10
493 -26 524 -15 28 -99 65 -220 97 -83 22 -121 26 -295 29 -147 2 -221 0 -280
-11z m568 -48 c116 -31 201 -68 215 -94 14 -25 27 -436 18 -544 -8 -96 -16
-108 -147 -246 -90 -95 -106 -91 -203 55 -27 40 -69 95 -93 122 l-45 50 -71 0
-71 0 -47 -51 c-26 -28 -69 -89 -95 -136 -50 -90 -71 -106 -116 -91 -27 10
-173 156 -207 208 -14 21 -16 58 -15 265 1 133 4 271 8 309 7 61 11 69 38 86
44 27 179 69 273 85 56 10 138 13 270 11 165 -3 203 -7 288 -29z"/>
</g>
</svg>
