<?xml version="1.0" standalone="no"?>
<!DOCTYPE svg PUBLIC "-//W3C//DTD SVG 20010904//EN"
 "http://www.w3.org/TR/2001/REC-SVG-20010904/DTD/svg10.dtd">
<svg version="1.0" xmlns="http://www.w3.org/2000/svg"
 width="128.000000pt" height="128.000000pt" viewBox="0 0 128.000000 128.000000"
 preserveAspectRatio="xMidYMid meet">
<g transform="translate(0.000000,128.000000) scale(0.100000,-0.100000)"
fill="#000000" stroke="none">
<path d="M615 999 c-4 -5 1 -20 12 -31 46 -52 145 -62 274 -27 87 24 109 21
109 -15 0 -46 -24 -51 -310 -57 -296 -6 -322 -11 -386 -80 -57 -62 -67 -124
-33 -214 27 -73 87 -132 191 -185 46 -24 111 -63 146 -87 71 -48 74 -49 96
-27 21 20 20 30 -5 66 -24 33 -21 38 24 54 21 7 33 18 35 33 6 38 -13 48 -109
54 -96 6 -130 23 -142 68 -6 24 -3 24 33 -2 19 -14 35 -19 47 -14 17 7 17 8
-1 18 -11 7 -30 23 -43 36 -35 36 -13 47 32 17 39 -27 69 -33 80 -16 3 5 -13
17 -36 27 -36 14 -39 18 -23 24 10 4 33 8 50 8 99 3 215 66 264 146 13 20 31
35 49 38 48 10 85 49 85 90 0 47 -27 77 -71 77 -18 0 -70 -9 -115 -21 -94 -25
-156 -21 -199 10 -32 23 -45 26 -54 10z m265 -179 c0 -5 -14 -25 -31 -44 -38
-44 -120 -76 -213 -83 -60 -5 -71 -4 -82 12 -14 19 -19 106 -7 118 10 11 333
8 333 -3z m-370 -51 c0 -28 5 -59 11 -70 8 -16 7 -25 -7 -40 -23 -25 -36 -24
-74 7 -35 30 -60 73 -60 104 0 25 48 49 98 50 32 0 32 0 32 -51z m-79 -136
c30 -20 39 -32 39 -55 0 -33 -27 -48 -86 -48 -32 0 -37 4 -56 46 -23 52 -22
140 2 169 12 14 16 10 38 -35 16 -33 38 -60 63 -77z m84 -150 c35 -38 46 -73
23 -73 -18 0 -131 64 -135 76 -2 6 14 15 34 21 21 6 39 11 40 12 2 0 18 -16
38 -36z m170 -53 c-3 -5 -12 -10 -19 -10 -29 0 -38 -27 -21 -60 15 -30 15 -31
-2 -21 -48 27 -73 56 -67 79 6 19 13 22 61 22 33 0 52 -4 48 -10z"/>
<path d="M703 794 c-7 -18 17 -38 31 -24 11 11 1 40 -14 40 -6 0 -13 -7 -17
-16z"/>
</g>
</svg>
