<?xml version="1.0" standalone="no"?>
<!DOCTYPE svg PUBLIC "-//W3C//DTD SVG 20010904//EN"
 "http://www.w3.org/TR/2001/REC-SVG-20010904/DTD/svg10.dtd">
<svg version="1.0" xmlns="http://www.w3.org/2000/svg"
 width="128.000000pt" height="128.000000pt" viewBox="0 0 128.000000 128.000000"
 preserveAspectRatio="xMidYMid meet">
<g transform="translate(0.000000,128.000000) scale(0.100000,-0.100000)"
fill="#000000" stroke="none">
<path d="M173 1225 c-31 -21 -107 -263 -100 -315 9 -72 72 -130 139 -130 41 0
91 35 115 79 l22 42 14 -34 c52 -123 214 -106 258 28 l13 40 9 -38 c12 -49 66
-104 111 -113 64 -11 131 27 166 95 l12 24 22 -38 c23 -42 76 -75 119 -75 61
0 123 57 134 123 7 46 -71 292 -100 312 -32 22 -902 22 -934 0z"/>
<path d="M335 730 c-45 -47 -96 -58 -159 -34 -14 6 -16 -24 -16 -300 l0 -307
25 -24 24 -25 428 0 c372 0 431 2 451 16 22 15 22 16 22 325 l0 311 -30 -7
c-41 -9 -91 9 -125 45 -16 17 -33 30 -37 30 -5 0 -24 -16 -43 -35 -60 -59
-131 -57 -191 6 -35 37 -57 37 -83 0 -45 -62 -125 -65 -190 -5 -21 19 -40 34
-43 34 -2 0 -17 -13 -33 -30z m539 -185 c123 -138 128 -135 -244 -135 -299 0
-320 2 -320 36 0 7 7 20 16 28 13 14 51 16 255 16 l240 0 -35 44 c-38 46 -43
65 -24 84 22 22 36 13 112 -73z m66 -245 c8 -14 8 -26 0 -40 -10 -19 -23 -20
-257 -22 l-247 -3 38 -42 c44 -49 47 -86 6 -91 -20 -2 -37 11 -90 74 -81 94
-83 99 -70 124 10 19 20 20 310 20 289 0 300 -1 310 -20z"/>
</g>
</svg>
