<?xml version="1.0" standalone="no"?>
<!DOCTYPE svg PUBLIC "-//W3C//DTD SVG 20010904//EN"
 "http://www.w3.org/TR/2001/REC-SVG-20010904/DTD/svg10.dtd">
<svg version="1.0" xmlns="http://www.w3.org/2000/svg"
 width="128.000000pt" height="128.000000pt" viewBox="0 0 128.000000 128.000000"
 preserveAspectRatio="xMidYMid meet">
<g transform="translate(0.000000,128.000000) scale(0.100000,-0.100000)"
fill="#000000" stroke="none">
<path d="M223 1142 c-11 -7 -173 -530 -173 -558 0 -12 101 -14 590 -14 469 0
590 3 590 13 0 23 -151 542 -162 554 -8 10 -103 13 -422 13 -226 0 -416 -4
-423 -8z m517 -110 l75 -17 12 -105 c14 -125 6 -146 -72 -197 -85 -56 -142
-54 -237 6 -71 45 -78 66 -65 191 l12 105 80 17 c98 20 102 20 195 0z"/>
<path d="M560 1006 l-65 -11 -3 -62 -3 -63 76 0 75 0 0 -85 c0 -95 1 -96 67
-65 66 29 93 62 93 110 l0 40 -80 0 -80 0 0 75 c0 41 -3 74 -7 74 -5 -1 -37
-7 -73 -13z"/>
<path d="M47 503 c-11 -10 -8 -319 3 -347 l10 -26 580 0 580 0 10 26 c6 15 9
97 8 188 l-3 161 -591 3 c-325 1 -594 -1 -597 -5z m773 -178 l0 -65 -70 0 -70
0 0 65 0 65 70 0 70 0 0 -65z m230 0 l0 -65 -65 0 -65 0 0 65 0 65 65 0 65 0
0 -65z"/>
</g>
</svg>
