<?xml version="1.0" standalone="no"?>
<!DOCTYPE svg PUBLIC "-//W3C//DTD SVG 20010904//EN"
 "http://www.w3.org/TR/2001/REC-SVG-20010904/DTD/svg10.dtd">
<svg version="1.0" xmlns="http://www.w3.org/2000/svg"
 width="128.000000pt" height="128.000000pt" viewBox="0 0 128.000000 128.000000"
 preserveAspectRatio="xMidYMid meet">
<g transform="translate(0.000000,128.000000) scale(0.100000,-0.100000)"
fill="#000000" stroke="none">
<path d="M61 977 c-24 -63 -61 -309 -61 -409 l0 -48 265 0 266 0 48 -45 48
-45 324 2 324 3 -3 40 c-4 56 -47 139 -90 175 -63 52 -139 71 -305 77 l-148 6
-26 41 c-51 82 -211 226 -252 226 -10 0 -28 -14 -40 -31 -27 -37 -92 -69 -141
-69 -45 0 -131 40 -157 74 -26 32 -41 33 -52 3z m481 -92 c9 -21 8 -28 -7 -45
-31 -34 -75 -20 -75 25 0 48 62 63 82 20z m82 -81 c9 -8 16 -22 16 -29 0 -7
-7 -21 -16 -29 -30 -30 -74 -13 -74 29 0 42 44 59 74 29z"/>
<path d="M0 365 l0 -95 240 0 241 0 -3 93 -3 92 -237 3 -238 2 0 -95z"/>
<path d="M712 315 l47 -45 258 2 258 3 3 43 3 42 -308 0 -308 0 47 -45z"/>
</g>
</svg>
