<?xml version="1.0" standalone="no"?>
<!DOCTYPE svg PUBLIC "-//W3C//DTD SVG 20010904//EN"
 "http://www.w3.org/TR/2001/REC-SVG-20010904/DTD/svg10.dtd">
<svg version="1.0" xmlns="http://www.w3.org/2000/svg"
 width="128.000000pt" height="128.000000pt" viewBox="0 0 128.000000 128.000000"
 preserveAspectRatio="xMidYMid meet">
<g transform="translate(0.000000,128.000000) scale(0.100000,-0.100000)"
fill="#000000" stroke="none">
<path d="M884 1109 c-4 -7 -9 -26 -11 -42 -6 -59 -77 -138 -163 -183 -21 -11
-57 -18 -91 -18 -46 -1 -63 4 -97 28 -50 34 -31 43 -222 -105 -72 -56 -143
-120 -159 -143 -59 -86 -75 -185 -45 -285 21 -73 95 -195 119 -199 11 -1 187
93 403 217 l382 220 0 -179 0 -180 -171 -2 c-151 -3 -173 -5 -183 -20 -8 -13
-8 -23 0 -35 10 -16 33 -18 209 -21 137 -2 202 1 211 9 11 9 14 58 14 243 l0
231 40 23 c27 15 40 30 40 44 0 20 -186 354 -218 391 -17 19 -47 23 -58 6z
m89 -210 l26 -47 -86 -50 c-92 -53 -94 -53 -143 -11 -17 15 -21 23 -12 26 23
9 110 82 139 118 31 39 34 38 76 -36z m-464 -93 c23 -13 20 -15 -95 -95 -107
-73 -120 -80 -134 -65 -13 14 -13 17 10 34 14 10 59 45 100 78 41 34 80 61 85
61 6 0 21 -6 34 -13z m206 -71 c29 -25 29 -26 11 -40 -29 -22 -38 -19 -77 21
-33 34 -33 36 -15 49 21 16 32 11 81 -30z m347 -6 c-14 -13 -814 -469 -822
-469 -10 0 -34 39 -28 44 2 2 187 110 413 240 l410 236 17 -22 c9 -13 14 -26
10 -29z m-480 -61 c38 -29 39 -32 22 -45 -27 -20 -48 -16 -79 17 -28 29 -28
30 -9 45 25 19 20 20 66 -17z m-108 -87 c18 -20 18 -20 -15 -40 -19 -12 -37
-21 -40 -21 -3 0 -18 13 -33 29 l-27 28 32 21 c35 22 51 19 83 -17z m-195 -45
l63 -63 -82 -47 c-45 -26 -85 -45 -88 -41 -4 4 -7 37 -7 73 0 64 23 142 42
142 5 0 37 -29 72 -64z"/>
<path d="M480 200 l0 -40 40 0 40 0 0 40 0 40 -40 0 -40 0 0 -40z"/>
</g>
</svg>
