<?xml version="1.0" standalone="no"?>
<!DOCTYPE svg PUBLIC "-//W3C//DTD SVG 20010904//EN"
 "http://www.w3.org/TR/2001/REC-SVG-20010904/DTD/svg10.dtd">
<svg version="1.0" xmlns="http://www.w3.org/2000/svg"
 width="128.000000pt" height="128.000000pt" viewBox="0 0 128.000000 128.000000"
 preserveAspectRatio="xMidYMid meet">
<g transform="translate(0.000000,128.000000) scale(0.100000,-0.100000)"
fill="#000000" stroke="none">
<path d="M863 1215 c-33 -14 -63 -59 -63 -95 0 -62 67 -116 130 -104 43 9 80
56 80 103 0 46 -23 79 -66 97 -40 17 -41 17 -81 -1z"/>
<path d="M597 1045 c-133 -72 -192 -112 -210 -143 -33 -55 -19 -84 99 -209
l105 -113 -43 -115 c-23 -63 -47 -115 -52 -115 -4 0 -85 27 -178 61 -93 33
-176 58 -183 56 -13 -6 -30 -56 -21 -64 2 -3 177 -68 388 -146 l383 -141 105
0 c79 0 115 4 144 18 l39 18 -30 30 c-29 29 -32 30 -68 18 -42 -14 -164 -9
-206 8 l-27 11 56 171 c32 101 51 175 46 180 -5 5 -22 10 -38 12 l-30 3 -52
-164 c-29 -90 -55 -165 -57 -167 -8 -8 -157 50 -157 62 0 6 25 76 55 154 l55
143 -44 51 c-24 28 -60 70 -80 92 -27 31 -33 44 -23 51 22 17 105 63 114 63 5
0 17 -17 28 -37 11 -20 40 -57 65 -81 47 -47 157 -106 186 -100 20 3 79 167
66 180 -4 4 -22 10 -39 14 -30 6 -32 4 -44 -35 -7 -23 -14 -41 -16 -41 -2 0
-21 12 -42 26 -50 33 -86 84 -111 161 -37 107 -96 135 -183 88z"/>
</g>
</svg>
