<?xml version="1.0" standalone="no"?>
<!DOCTYPE svg PUBLIC "-//W3C//DTD SVG 20010904//EN"
 "http://www.w3.org/TR/2001/REC-SVG-20010904/DTD/svg10.dtd">
<svg version="1.0" xmlns="http://www.w3.org/2000/svg"
 width="128.000000pt" height="128.000000pt" viewBox="0 0 128.000000 128.000000"
 preserveAspectRatio="xMidYMid meet">
<g transform="translate(0.000000,128.000000) scale(0.100000,-0.100000)"
fill="#000000" stroke="none">
<path d="M525 1093 c-8 -10 -34 -49 -58 -88 -43 -69 -47 -72 -198 -162 -85
-51 -160 -102 -168 -113 -8 -12 -14 -35 -13 -53 1 -35 42 -79 130 -137 l45
-30 164 0 164 0 94 -85 94 -85 221 0 222 0 29 29 c52 53 37 95 -63 171 -38 28
-68 54 -68 58 0 4 34 27 75 52 42 25 78 52 80 61 7 22 -3 46 -22 53 -8 4 -125
-14 -259 -39 -134 -25 -259 -45 -277 -45 -25 0 -42 10 -75 43 l-42 43 0 156
c0 129 -3 159 -16 172 -20 21 -41 20 -59 -1z"/>
<path d="M12 498 c-33 -33 -10 -59 98 -114 75 -38 76 -38 216 -42 155 -5 184
2 184 43 0 37 -28 45 -167 45 l-129 0 -83 40 c-90 43 -101 46 -119 28z"/>
</g>
</svg>
