<?xml version="1.0" standalone="no"?>
<!DOCTYPE svg PUBLIC "-//W3C//DTD SVG 20010904//EN"
 "http://www.w3.org/TR/2001/REC-SVG-20010904/DTD/svg10.dtd">
<svg version="1.0" xmlns="http://www.w3.org/2000/svg"
 width="128.000000pt" height="128.000000pt" viewBox="0 0 128.000000 128.000000"
 preserveAspectRatio="xMidYMid meet">
<g transform="translate(0.000000,128.000000) scale(0.100000,-0.100000)"
fill="#000000" stroke="none">
<path d="M500 1264 c-234 -50 -436 -254 -485 -489 -95 -454 306 -855 760 -760
232 49 425 236 485 471 87 338 -124 687 -466 774 -90 23 -199 25 -294 4z m329
-77 c172 -60 306 -196 362 -369 19 -58 24 -94 24 -178 0 -84 -5 -120 -24 -178
-110 -337 -485 -494 -810 -340 -91 43 -216 168 -259 259 -163 342 19 732 384
824 89 22 231 14 323 -18z"/>
<path d="M725 975 c-16 -8 -44 -31 -61 -50 l-31 -35 -29 31 c-41 43 -76 59
-129 59 -43 0 -50 -4 -112 -64 -58 -57 -66 -69 -70 -110 -7 -59 10 -98 60
-141 l40 -34 -32 -27 c-42 -35 -61 -74 -61 -124 0 -38 25 -100 40 -100 3 0 27
-20 52 -45 42 -40 52 -45 93 -45 57 0 94 19 133 66 l31 37 27 -32 c36 -43 74
-61 130 -61 45 0 50 3 115 69 66 65 69 71 69 115 0 56 -17 93 -63 133 l-35 30
38 36 c63 62 74 150 25 199 -99 98 -102 101 -152 105 -31 3 -58 -1 -78 -12z
m126 -72 c22 -21 48 -46 59 -55 43 -39 16 -110 -60 -157 -27 -17 -50 -38 -50
-46 0 -8 17 -23 38 -34 50 -26 90 -70 98 -108 5 -27 1 -37 -32 -72 -22 -22
-47 -50 -56 -61 -35 -39 -110 -14 -149 51 -48 79 -64 83 -92 21 -21 -45 -35
-63 -67 -85 -39 -27 -70 -21 -112 20 -20 21 -46 46 -57 56 -42 35 -17 107 51
148 79 48 82 65 20 92 -50 22 -90 65 -98 104 -5 28 -1 38 32 73 22 22 47 49
56 60 39 44 118 12 158 -64 32 -60 59 -62 84 -7 21 50 79 101 112 101 16 0 41
-14 65 -37z"/>
<path d="M737 772 c-65 -65 -67 -69 -49 -85 17 -16 22 -13 87 53 58 59 67 71
55 84 -7 9 -15 16 -19 16 -4 0 -37 -31 -74 -68z"/>
<path d="M443 814 c-4 -11 15 -37 60 -82 l66 -66 22 20 21 19 -68 62 c-72 65
-90 74 -101 47z"/>
<path d="M610 665 c-26 -32 13 -81 48 -59 34 22 22 74 -18 74 -10 0 -23 -7
-30 -15z"/>
<path d="M505 540 c-64 -64 -68 -71 -53 -86 21 -21 37 -11 108 60 54 56 54 56
34 76 -20 20 -20 20 -89 -50z"/>
<path d="M688 590 c-16 -18 -14 -22 50 -80 67 -61 102 -75 102 -42 0 15 -118
143 -130 141 -3 0 -13 -9 -22 -19z"/>
</g>
</svg>
