<?xml version="1.0" standalone="no"?>
<!DOCTYPE svg PUBLIC "-//W3C//DTD SVG 20010904//EN"
 "http://www.w3.org/TR/2001/REC-SVG-20010904/DTD/svg10.dtd">
<svg version="1.0" xmlns="http://www.w3.org/2000/svg"
 width="128.000000pt" height="128.000000pt" viewBox="0 0 128.000000 128.000000"
 preserveAspectRatio="xMidYMid meet">
<g transform="translate(0.000000,128.000000) scale(0.100000,-0.100000)"
fill="#000000" stroke="none">
<path d="M310 1240 c-16 -17 -31 -44 -35 -60 -8 -34 17 -93 49 -115 24 -17 98
-20 127 -5 45 24 62 106 34 160 -20 38 -43 50 -100 50 -39 0 -52 -5 -75 -30z"/>
<path d="M406 953 c-29 -32 -66 -73 -83 -92 l-29 -34 -64 72 c-69 78 -98 89
-125 47 -22 -33 -13 -48 88 -158 52 -57 87 -88 101 -88 13 0 40 21 73 57 28
32 53 56 55 53 34 -40 128 -169 128 -174 0 -4 -28 -39 -62 -77 -35 -39 -66
-78 -70 -89 -7 -20 65 -408 82 -440 14 -25 56 -36 76 -19 35 29 35 45 4 205
-20 103 -27 161 -21 172 5 10 38 45 73 79 l63 62 44 -72 c72 -119 89 -137 121
-137 15 0 87 14 159 31 108 25 135 35 151 56 26 33 25 55 -3 81 -29 28 -30 28
-157 -8 -58 -17 -108 -30 -112 -30 -4 0 -39 51 -78 113 -39 61 -98 154 -130
206 -33 51 -60 95 -60 98 0 5 33 1 101 -13 20 -4 36 -23 69 -80 40 -70 45 -75
74 -72 23 2 33 10 40 29 8 22 1 39 -43 112 -45 76 -57 88 -89 96 -75 20 -300
71 -311 71 -6 0 -35 -26 -65 -57z"/>
</g>
</svg>
