<?xml version="1.0" standalone="no"?>
<!DOCTYPE svg PUBLIC "-//W3C//DTD SVG 20010904//EN"
 "http://www.w3.org/TR/2001/REC-SVG-20010904/DTD/svg10.dtd">
<svg version="1.0" xmlns="http://www.w3.org/2000/svg"
 width="128.000000pt" height="128.000000pt" viewBox="0 0 128.000000 128.000000"
 preserveAspectRatio="xMidYMid meet">
<g transform="translate(0.000000,128.000000) scale(0.100000,-0.100000)"
fill="#000000" stroke="none">
<path d="M80 1267 c-19 -7 -44 -27 -57 -46 l-23 -34 0 -469 0 -468 68 -121
c96 -172 107 -172 206 7 l56 101 0 482 c0 470 -1 484 -20 512 -33 46 -148 64
-230 36z m150 -157 l0 -60 -65 0 -65 0 0 60 0 60 65 0 65 0 0 -60z m0 -455 l0
-296 -62 3 -63 3 -3 280 c-1 154 0 285 3 292 3 9 25 13 65 13 l60 0 0 -295z
m-29 -445 c-14 -27 -28 -50 -31 -50 -3 0 -18 23 -33 50 l-28 50 59 0 60 0 -27
-50z"/>
<path d="M406 1259 l-26 -20 0 -598 0 -598 23 -21 c23 -22 26 -22 426 -22
l402 0 26 26 c18 18 24 33 21 52 -5 33 -758 1164 -790 1186 -30 21 -50 20 -82
-5z m744 -1154 c0 -3 -151 -5 -335 -5 l-335 0 0 28 c0 23 6 30 33 37 25 8 33
16 35 38 4 35 -13 57 -44 57 -23 0 -24 2 -24 88 l0 88 33 9 c25 8 33 16 35 38
4 35 -13 57 -44 57 -23 0 -24 2 -24 90 0 88 1 90 24 90 31 0 48 22 44 57 -2
22 -10 30 -35 38 l-33 9 0 146 0 145 335 -502 c184 -277 335 -505 335 -508z"/>
<path d="M614 637 c-2 -7 -3 -109 -2 -227 l3 -215 155 0 c137 0 155 2 158 17
4 22 -274 438 -293 438 -9 0 -18 -6 -21 -13z m125 -301 c27 -43 26 -46 -4 -46
-22 0 -25 4 -25 40 0 22 2 40 4 40 2 0 14 -15 25 -34z"/>
</g>
</svg>
