<?xml version="1.0" standalone="no"?>
<!DOCTYPE svg PUBLIC "-//W3C//DTD SVG 20010904//EN"
 "http://www.w3.org/TR/2001/REC-SVG-20010904/DTD/svg10.dtd">
<svg version="1.0" xmlns="http://www.w3.org/2000/svg"
 width="128.000000pt" height="128.000000pt" viewBox="0 0 128.000000 128.000000"
 preserveAspectRatio="xMidYMid meet">
<g transform="translate(0.000000,128.000000) scale(0.100000,-0.100000)"
fill="#000000" stroke="none">
<path d="M324 1085 c-273 -170 -299 -188 -299 -213 0 -22 6 -29 32 -37 l33 -9
0 -266 c0 -194 3 -269 12 -278 20 -20 76 -15 88 7 6 12 10 132 10 318 l1 298
211 130 c116 72 219 130 228 130 9 0 112 -58 228 -130 l211 -130 1 -298 c0
-186 4 -306 10 -318 12 -22 68 -27 88 -7 9 9 12 85 12 280 0 261 0 268 20 268
11 0 29 9 41 21 18 18 19 23 7 40 -16 24 -596 379 -618 379 -9 0 -151 -83
-316 -185z"/>
<path d="M527 812 c-13 -15 -17 -39 -17 -113 0 -61 4 -99 12 -107 15 -15 221
-16 249 -2 17 10 19 22 19 110 0 127 -3 130 -146 130 -85 0 -103 -3 -117 -18z
m153 -113 c0 -39 -1 -40 -32 -37 -30 3 -33 6 -36 41 -3 36 -3 37 32 37 35 0
36 -1 36 -41z"/>
<path d="M343 510 c-29 -12 -36 -42 -31 -140 2 -58 7 -84 18 -90 23 -14 233
-13 248 2 8 8 12 48 12 115 0 102 0 104 -26 113 -31 12 -191 12 -221 0z m147
-120 c0 -39 -1 -40 -35 -40 -34 0 -35 1 -35 40 0 39 1 40 35 40 34 0 35 -1 35
-40z"/>
<path d="M720 500 c-17 -17 -20 -33 -20 -109 0 -121 1 -121 144 -121 74 0 116
4 124 12 8 8 12 48 12 115 0 102 0 104 -26 113 -14 6 -68 10 -120 10 -81 0
-97 -3 -114 -20z m160 -110 c0 -39 -1 -40 -35 -40 -34 0 -35 1 -35 40 0 39 1
40 35 40 34 0 35 -1 35 -40z"/>
</g>
</svg>
