<?xml version="1.0" standalone="no"?>
<!DOCTYPE svg PUBLIC "-//W3C//DTD SVG 20010904//EN"
 "http://www.w3.org/TR/2001/REC-SVG-20010904/DTD/svg10.dtd">
<svg version="1.0" xmlns="http://www.w3.org/2000/svg"
 width="128.000000pt" height="128.000000pt" viewBox="0 0 128.000000 128.000000"
 preserveAspectRatio="xMidYMid meet">
<g transform="translate(0.000000,128.000000) scale(0.100000,-0.100000)"
fill="#000000" stroke="none">
<path d="M1139 1143 l-67 -25 -12 -59 -13 -59 -524 0 -525 0 6 -27 c3 -16 24
-136 46 -267 23 -132 43 -243 46 -248 3 -4 20 -8 37 -8 37 0 721 -68 755 -76
19 -4 22 -11 22 -54 l0 -50 -400 0 -400 0 -12 -25 c-18 -40 12 -65 79 -65 47
0 53 -2 53 -21 0 -55 63 -97 118 -78 34 12 62 47 62 79 0 19 6 20 185 20 l185
0 0 -28 c0 -40 41 -76 85 -76 41 0 81 33 90 75 5 20 13 29 26 29 17 0 19 8 19
83 0 56 11 138 35 252 38 183 103 479 111 507 3 9 27 24 55 33 29 10 56 27 66
41 14 22 14 26 -1 49 -20 31 -42 31 -127 -2z m-819 -278 l0 -45 -99 0 -98 0
-7 31 c-12 61 -15 59 99 59 l105 0 0 -45z m180 0 l0 -45 -70 0 -70 0 0 45 0
45 70 0 70 0 0 -45z m180 0 l0 -45 -65 0 -65 0 0 45 0 45 65 0 65 0 0 -45z
m185 0 l0 -40 -67 -3 -68 -3 0 46 0 46 68 -3 67 -3 0 -40z m162 28 c-3 -10 -8
-30 -11 -45 -6 -26 -10 -28 -56 -28 l-50 0 0 45 0 45 61 0 c53 0 60 -2 56 -17z
m-709 -185 l3 -68 -84 0 -84 0 -10 63 c-6 34 -9 66 -6 70 3 4 44 6 91 5 l87
-3 3 -67z m180 0 l3 -68 -71 0 -70 0 0 63 c0 35 3 67 7 71 4 4 34 6 68 4 l60
-3 3 -67z m182 2 l0 -70 -65 0 -65 0 0 70 0 70 65 0 65 0 0 -70z m185 0 l0
-65 -67 -3 -68 -3 0 64 c0 35 3 67 7 71 4 4 34 6 68 4 l60 -3 0 -65z m129 62
c3 -5 1 -24 -3 -43 -5 -19 -12 -46 -15 -61 -5 -23 -12 -28 -36 -28 l-30 0 0
63 c0 35 3 67 7 70 9 10 71 9 77 -1z m-674 -212 c0 -28 -2 -30 -37 -30 -78 0
-111 11 -116 36 -4 24 -3 24 74 24 l79 0 0 -30z m180 -10 l0 -40 -44 0 c-69 0
-96 14 -96 50 l0 30 70 0 70 0 0 -40z m180 -10 c0 -56 1 -55 -84 -44 l-46 7 0
43 0 44 65 0 65 0 0 -50z m190 -4 c0 -30 -4 -57 -8 -60 -4 -2 -36 -2 -70 1
l-62 6 0 53 0 54 70 0 70 0 0 -54z m87 40 c-3 -7 -9 -34 -12 -60 -5 -29 -12
-46 -21 -46 -10 0 -14 16 -14 60 0 58 1 60 26 60 18 0 25 -4 21 -14z"/>
</g>
</svg>
