<?xml version="1.0" standalone="no"?>
<!DOCTYPE svg PUBLIC "-//W3C//DTD SVG 20010904//EN"
 "http://www.w3.org/TR/2001/REC-SVG-20010904/DTD/svg10.dtd">
<svg version="1.0" xmlns="http://www.w3.org/2000/svg"
 width="128.000000pt" height="128.000000pt" viewBox="0 0 128.000000 128.000000"
 preserveAspectRatio="xMidYMid meet">
<g transform="translate(0.000000,128.000000) scale(0.100000,-0.100000)"
fill="#000000" stroke="none">
<path d="M841 1174 c-56 -46 -50 -138 10 -169 98 -51 194 38 148 138 -26 57
-108 74 -158 31z"/>
<path d="M364 1008 c-49 -34 -91 -63 -93 -64 -2 -2 8 -22 23 -45 31 -46 32
-46 116 11 59 40 92 47 149 31 21 -6 17 -11 -47 -54 -49 -32 -74 -55 -78 -73
-6 -25 -1 -97 12 -178 7 -36 5 -39 -12 -32 -102 40 -208 46 -248 15 -65 -51 1
-161 175 -292 96 -72 134 -76 223 -22 l58 35 31 -24 c40 -29 89 -46 135 -46
35 0 122 35 122 49 0 4 -18 20 -40 37 l-40 29 0 105 -1 105 -94 73 c-52 40
-95 77 -95 81 0 5 24 24 53 43 l53 35 52 -58 c59 -65 146 -114 225 -125 l47
-6 0 55 0 54 -41 7 c-87 14 -150 65 -208 169 -18 32 -44 65 -58 74 -20 14
-102 32 -294 67 -32 6 -44 0 -125 -56z m292 -403 c86 -69 94 -79 94 -110 0
-19 -2 -35 -5 -35 -3 0 -43 21 -90 46 l-84 45 -6 47 c-4 26 -9 55 -12 65 -2 9
-1 17 3 17 4 0 49 -34 100 -75z"/>
<path d="M271 188 c-24 -11 -71 -23 -103 -25 l-58 -6 0 -55 0 -55 66 7 c36 4
83 14 104 22 36 15 43 15 87 -2 61 -24 165 -24 226 0 45 17 49 17 94 0 61 -24
165 -24 226 0 44 17 51 17 87 2 21 -8 68 -18 104 -22 l66 -7 0 55 0 55 -59 6
c-32 2 -79 14 -105 25 l-46 21 -47 -21 c-65 -29 -161 -29 -226 0 l-47 21 -48
-21 c-65 -30 -160 -29 -226 0 -27 12 -49 22 -50 21 0 0 -21 -10 -45 -21z"/>
</g>
</svg>
