<?xml version="1.0" standalone="no"?>
<!DOCTYPE svg PUBLIC "-//W3C//DTD SVG 20010904//EN"
 "http://www.w3.org/TR/2001/REC-SVG-20010904/DTD/svg10.dtd">
<svg version="1.0" xmlns="http://www.w3.org/2000/svg"
 width="128.000000pt" height="128.000000pt" viewBox="0 0 128.000000 128.000000"
 preserveAspectRatio="xMidYMid meet">
<g transform="translate(0.000000,128.000000) scale(0.100000,-0.100000)"
fill="#000000" stroke="none">
<path d="M642 1070 c-46 -28 -63 -76 -60 -163 3 -69 4 -72 28 -72 24 0 25 2
28 75 2 60 7 79 24 97 21 22 27 23 225 23 190 0 204 -1 223 -20 19 -19 20 -33
20 -370 0 -337 -1 -351 -20 -370 -19 -19 -33 -20 -225 -20 -261 0 -245 -12
-245 186 0 114 -3 144 -15 154 -12 10 -18 10 -30 0 -12 -10 -15 -40 -15 -152
0 -158 10 -196 62 -228 30 -18 50 -20 243 -20 231 0 244 3 282 59 23 34 23 36
23 391 0 479 20 450 -305 450 -193 0 -213 -2 -243 -20z"/>
<path d="M149 905 c-55 -30 -64 -129 -15 -171 15 -13 46 -25 78 -29 42 -5 61
-14 89 -42 l37 -35 -38 -34 c-31 -28 -45 -34 -84 -34 -84 0 -126 -39 -126
-116 0 -51 45 -94 97 -94 69 0 102 38 112 129 6 51 8 55 51 79 l46 25 76 -56
c42 -31 79 -57 82 -57 4 0 6 24 6 54 0 52 -2 56 -36 76 l-35 22 28 17 c15 10
97 55 181 102 l153 84 -26 23 c-29 25 -56 27 -106 10 -38 -13 -174 -91 -262
-150 l-58 -39 -49 31 c-48 31 -50 33 -44 70 17 104 -72 181 -157 135z m99 -47
c6 -6 12 -32 12 -59 l0 -49 -40 0 c-74 0 -107 67 -53 109 26 21 53 21 81 -1z
m5 -352 c11 -27 -5 -87 -27 -101 -28 -20 -52 -19 -76 5 -28 28 -25 64 6 89 31
24 89 28 97 7z"/>
</g>
</svg>
