<?xml version="1.0" standalone="no"?>
<!DOCTYPE svg PUBLIC "-//W3C//DTD SVG 20010904//EN"
 "http://www.w3.org/TR/2001/REC-SVG-20010904/DTD/svg10.dtd">
<svg version="1.0" xmlns="http://www.w3.org/2000/svg"
 width="128.000000pt" height="128.000000pt" viewBox="0 0 128.000000 128.000000"
 preserveAspectRatio="xMidYMid meet">
<g transform="translate(0.000000,128.000000) scale(0.100000,-0.100000)"
fill="#000000" stroke="none">
<path d="M1116 1264 c-19 -18 -21 -45 -4 -62 10 -10 7 -17 -10 -34 l-22 -22
-23 22 c-13 12 -28 22 -33 22 -20 0 -84 -76 -84 -101 0 -18 -34 -59 -135 -159
-81 -81 -135 -143 -135 -154 0 -11 -10 -30 -21 -43 -19 -19 -20 -25 -9 -38 11
-14 7 -23 -33 -63 -26 -26 -47 -53 -47 -60 0 -23 25 -11 72 35 40 40 49 44 63
33 13 -11 19 -10 38 9 13 11 32 21 42 21 10 0 78 59 155 135 102 101 142 135
161 135 24 0 99 64 99 85 0 5 -10 19 -22 32 l-22 23 21 22 c18 18 25 19 37 9
24 -20 65 -5 72 25 6 22 -2 35 -52 85 -61 61 -82 70 -108 43z m84 -69 c24 -24
41 -48 37 -52 -8 -7 -97 75 -97 89 0 17 18 6 60 -37z m-59 -68 c-11 -12 -24
-18 -27 -14 -10 10 27 48 38 41 6 -4 1 -16 -11 -27z m-51 -42 l54 -55 -24 -25
c-13 -14 -34 -25 -46 -25 -12 0 -36 -11 -52 -25 -21 -17 -32 -21 -40 -13 -6 6
-18 8 -28 4 -16 -6 -16 -8 0 -25 14 -15 15 -21 4 -27 -7 -5 -22 -7 -32 -5 -15
2 -18 -2 -13 -18 6 -26 -9 -37 -29 -20 -19 16 -39 -2 -30 -28 10 -25 9 -28
-17 -28 -16 0 -22 -6 -22 -22 0 -29 -12 -38 -30 -23 -21 17 -46 -3 -27 -22 7
-7 12 -16 12 -22 0 -5 -16 5 -35 24 l-35 34 140 141 c100 102 140 148 140 165
0 21 34 70 50 70 3 0 30 -25 60 -55z m-380 -380 c7 -9 10 -18 7 -22 -8 -7 -37
15 -37 28 0 14 16 11 30 -6z"/>
<path d="M168 733 c-93 -93 -168 -173 -168 -179 0 -6 19 -21 43 -34 33 -19 57
-24 113 -24 l71 0 -1 -71 c-1 -132 65 -198 198 -198 l71 0 0 -71 c0 -57 5 -80
24 -113 14 -24 30 -43 35 -43 6 0 87 76 180 169 123 123 167 174 163 185 -11
29 -86 56 -157 56 l-65 0 0 73 c0 49 -5 80 -14 91 -8 9 -17 14 -20 11 -3 -4
-6 -46 -6 -95 0 -48 -2 -90 -5 -93 -3 -2 -15 -8 -28 -12 -21 -6 -22 -4 -16 22
10 36 10 120 1 129 -13 14 -62 -20 -147 -100 l-85 -81 83 85 c45 47 82 92 82
101 0 8 5 20 12 27 21 21 -33 36 -96 25 -55 -10 -56 -9 -50 11 4 12 9 23 11
26 3 3 45 5 94 5 73 0 89 2 87 14 -4 21 -64 34 -123 28 l-51 -5 4 66 c3 55 -1
75 -20 112 -13 25 -30 46 -38 48 -8 1 -90 -73 -182 -165z m193 90 c16 -41 4
-167 -26 -256 -16 -51 -25 -100 -25 -143 0 -57 3 -68 26 -91 25 -25 29 -25
107 -20 46 3 117 17 160 31 83 28 175 34 223 16 46 -18 12 -34 -74 -35 -55 -1
-101 -9 -162 -29 -59 -20 -108 -29 -160 -30 -83 -1 -115 12 -147 61 -26 39
-23 160 6 238 29 80 32 96 35 195 4 96 3 90 16 90 6 0 15 -12 21 -27z m-151
-118 c-47 -47 -89 -85 -95 -85 -5 0 28 38 75 85 47 47 89 85 95 85 5 0 -28
-38 -75 -85z m80 12 c0 -1 -24 -25 -52 -52 l-53 -50 50 53 c46 48 55 57 55 49z
m-40 -142 c-1 -35 -56 -52 -132 -41 -57 9 -75 20 -61 38 14 16 193 19 193 3z
m175 -85 c-38 -38 -71 -67 -74 -64 -6 6 120 134 133 134 6 0 -21 -31 -59 -70z
m-15 57 c0 -2 -11 -14 -25 -27 -25 -23 -25 -23 -25 -2 0 11 8 23 18 25 24 7
32 7 32 4z m150 -63 c0 -11 -123 -134 -134 -134 -6 0 21 32 59 70 70 71 75 75
75 64z m-17 -102 c-3 -14 -13 -22 -26 -22 -20 0 -20 1 3 25 27 29 32 28 23 -3z
m132 -142 c-27 -27 -51 -47 -54 -44 -6 6 83 94 96 94 4 0 -15 -22 -42 -50z
m114 38 c-3 -2 -43 -39 -89 -83 l-85 -80 84 87 c47 48 87 85 90 83 2 -3 2 -6
0 -7z m-209 -80 c-4 -29 -4 -67 0 -85 6 -24 4 -36 -10 -48 -17 -15 -19 -14
-30 20 -15 46 -8 144 11 156 30 19 36 10 29 -43z"/>
<path d="M1130 593 c-8 -3 -25 -15 -37 -26 -78 -70 -26 -193 81 -191 32 1 46
8 73 38 37 40 42 79 18 126 -24 47 -86 71 -135 53z m87 -55 c31 -29 30 -72 -3
-105 -20 -20 -31 -24 -57 -19 -40 8 -55 23 -63 63 -13 66 73 108 123 61z"/>
<path d="M1157 543 c-13 -13 -7 -31 13 -36 11 -3 20 -13 20 -22 0 -10 6 -15
17 -13 27 5 26 26 -1 53 -26 26 -38 30 -49 18z"/>
<path d="M86 234 c-57 -57 -18 -154 61 -154 47 0 76 19 93 60 37 88 -85 162
-154 94z m104 -24 c11 -11 20 -29 20 -40 0 -22 -33 -60 -53 -60 -52 0 -77 75
-35 104 30 21 44 20 68 -4z"/>
<path d="M137 204 c-8 -8 31 -54 45 -54 5 0 8 12 6 28 -3 27 -34 42 -51 26z"/>
<path d="M1006 209 c-59 -70 -3 -169 87 -152 70 14 98 113 44 159 -42 36 -98
33 -131 -7z m115 -31 c6 -11 8 -31 5 -44 -16 -64 -110 -46 -104 19 5 53 75 71
99 25z"/>
<path d="M1060 177 c0 -8 9 -22 20 -32 27 -24 47 -8 31 24 -13 23 -51 29 -51
8z"/>
</g>
</svg>
