<?xml version="1.0" standalone="no"?>
<!DOCTYPE svg PUBLIC "-//W3C//DTD SVG 20010904//EN"
 "http://www.w3.org/TR/2001/REC-SVG-20010904/DTD/svg10.dtd">
<svg version="1.0" xmlns="http://www.w3.org/2000/svg"
 width="128.000000pt" height="128.000000pt" viewBox="0 0 128.000000 128.000000"
 preserveAspectRatio="xMidYMid meet">
<g transform="translate(0.000000,128.000000) scale(0.100000,-0.100000)"
fill="#000000" stroke="none">
<path d="M554 1081 c-54 -33 -53 -86 1 -129 l25 -20 -43 -6 c-64 -10 -143 -53
-198 -107 -48 -49 -50 -50 -86 -40 -117 33 -208 -11 -238 -113 -48 -160 18
-263 185 -289 l68 -11 29 -60 c15 -33 42 -75 59 -93 l31 -33 235 0 234 0 31
32 c17 18 46 64 65 102 27 58 38 71 64 78 43 11 129 105 164 180 30 64 72 215
85 301 l7 47 -70 0 -70 0 -22 -72 c-25 -84 -62 -153 -90 -168 -17 -9 -23 -4
-49 48 -49 97 -161 181 -263 198 l-37 6 29 28 c86 81 -40 185 -146 121z m-316
-380 c11 -7 11 -19 1 -69 -9 -45 -10 -78 -3 -122 l10 -60 -32 0 c-85 0 -119
46 -111 147 7 87 25 113 80 113 23 0 48 -4 55 -9z"/>
</g>
</svg>
