<?xml version="1.0" standalone="no"?>
<!DOCTYPE svg PUBLIC "-//W3C//DTD SVG 20010904//EN"
 "http://www.w3.org/TR/2001/REC-SVG-20010904/DTD/svg10.dtd">
<svg version="1.0" xmlns="http://www.w3.org/2000/svg"
 width="128.000000pt" height="128.000000pt" viewBox="0 0 128.000000 128.000000"
 preserveAspectRatio="xMidYMid meet">
<g transform="translate(0.000000,128.000000) scale(0.100000,-0.100000)"
fill="#000000" stroke="none">
<path d="M47 1151 c-6 -2 -20 -10 -29 -19 -17 -14 -18 -47 -18 -419 0 -390 1
-404 20 -423 19 -19 33 -20 205 -20 l185 0 0 -55 0 -55 -51 0 c-40 0 -50 -3
-47 -15 3 -14 44 -16 328 -16 284 0 325 2 328 16 3 12 -7 15 -47 15 l-51 0 0
55 0 55 185 0 c172 0 186 1 205 20 19 19 20 33 20 423 0 380 -1 405 -18 421
-17 15 -74 17 -610 19 -326 1 -598 0 -605 -2z m1177 -37 c14 -5 16 -44 16
-335 l0 -329 -600 0 -600 0 0 329 c0 254 3 330 13 334 18 8 1152 8 1171 1z
m14 -751 l-3 -48 -595 0 -595 0 -3 48 -3 47 601 0 601 0 -3 -47z m-410 -145
l-3 -53 -185 0 -185 0 -3 53 -3 52 191 0 191 0 -3 -52z"/>
<path d="M158 1028 l-58 -20 0 -79 c0 -43 4 -79 9 -79 5 0 28 7 51 15 23 8 44
15 46 15 2 0 4 -81 4 -180 l0 -180 140 0 140 0 0 180 c0 99 4 180 9 180 5 0
28 -7 51 -15 23 -8 44 -15 47 -15 2 0 3 37 1 82 l-3 81 -50 18 c-70 25 -115
25 -115 0 0 -27 -46 -61 -82 -61 -31 0 -78 38 -78 65 0 21 -41 18 -112 -7z"/>
<path d="M700 1030 c0 -20 5 -20 247 -18 227 3 248 4 251 21 3 16 -14 17 -247
17 -245 0 -251 0 -251 -20z"/>
<path d="M700 930 c0 -19 7 -20 250 -20 243 0 250 1 250 20 0 19 -7 20 -250
20 -243 0 -250 -1 -250 -20z"/>
<path d="M707 843 c-4 -3 -7 -12 -7 -20 0 -10 41 -13 205 -13 198 0 205 1 205
20 0 19 -7 20 -198 20 -109 0 -202 -3 -205 -7z"/>
<path d="M1160 831 c0 -15 6 -21 21 -21 25 0 22 33 -4 38 -12 2 -17 -3 -17
-17z"/>
<path d="M636 718 c-32 -45 -16 -99 34 -116 23 -8 30 -17 30 -36 0 -19 -5 -26
-20 -26 -13 0 -20 7 -20 20 0 13 -7 20 -20 20 -26 0 -27 -40 -2 -63 46 -42
106 -6 100 60 -3 33 -8 40 -41 57 -29 14 -37 23 -35 39 4 29 38 36 38 8 0 -14
6 -21 20 -21 14 0 20 7 20 23 0 53 -75 77 -104 35z"/>
<path d="M806 724 c-13 -12 -16 -38 -16 -120 0 -92 2 -104 18 -104 14 0 17 9
17 47 0 42 3 48 23 51 20 3 22 0 22 -47 0 -44 3 -51 20 -51 19 0 20 7 20 98 0
72 -4 103 -16 120 -18 26 -65 30 -88 6z m62 -57 c3 -21 -1 -27 -17 -27 -25 0
-34 14 -26 41 10 29 39 20 43 -14z"/>
<path d="M950 620 l0 -120 50 0 c43 0 50 3 50 20 0 16 -7 20 -30 20 l-30 0 0
100 c0 93 -1 100 -20 100 -19 0 -20 -7 -20 -120z"/>
<path d="M1098 620 l-3 -120 53 0 c46 0 53 3 50 18 -2 11 -14 18 -36 20 -29 3
-33 6 -30 30 2 19 10 28 26 30 32 5 30 42 -3 42 -21 0 -25 5 -25 29 0 26 4 30
32 33 22 2 34 9 36 21 3 14 -4 17 -47 17 l-50 0 -3 -120z"/>
</g>
</svg>
