<?xml version="1.0" standalone="no"?>
<!DOCTYPE svg PUBLIC "-//W3C//DTD SVG 20010904//EN"
 "http://www.w3.org/TR/2001/REC-SVG-20010904/DTD/svg10.dtd">
<svg version="1.0" xmlns="http://www.w3.org/2000/svg"
 width="128.000000pt" height="128.000000pt" viewBox="0 0 128.000000 128.000000"
 preserveAspectRatio="xMidYMid meet">
<g transform="translate(0.000000,128.000000) scale(0.100000,-0.100000)"
fill="#000000" stroke="none">
<path d="M143 1159 c-48 -31 -63 -81 -63 -215 0 -162 28 -216 121 -232 l44 -8
5 -283 5 -283 28 -24 28 -24 330 0 331 0 29 29 29 29 0 137 c0 112 -3 137 -15
141 -36 14 -45 -14 -45 -135 0 -78 -4 -121 -12 -129 -17 -17 -619 -17 -636 0
-9 9 -12 110 -12 395 l0 383 330 0 330 0 0 -139 c0 -105 3 -141 14 -150 20
-17 44 -3 48 27 3 23 9 28 47 34 93 16 121 70 121 232 0 136 -15 185 -65 216
-31 19 -48 20 -496 20 -449 0 -465 -1 -496 -21z m967 -59 c18 -18 20 -33 20
-155 0 -122 -2 -137 -20 -155 -11 -11 -33 -20 -50 -20 l-29 0 -3 113 -3 112
-385 0 -385 0 -3 -112 -3 -113 -29 0 c-17 0 -39 9 -50 20 -18 18 -20 33 -20
155 0 122 2 137 20 155 19 19 33 20 470 20 437 0 451 -1 470 -20z"/>
<path d="M511 726 c-16 -19 -5 -39 44 -86 l36 -35 -53 -5 c-49 -5 -53 -7 -53
-30 0 -24 4 -25 65 -30 64 -5 65 -5 65 -35 0 -30 -1 -30 -65 -35 -61 -5 -65
-6 -65 -30 0 -24 3 -25 67 -28 l67 -3 3 -52 c2 -41 7 -53 22 -55 25 -5 36 14
36 66 l0 42 54 0 c57 0 81 15 70 44 -5 12 -20 16 -65 16 l-59 0 0 35 0 35 59
0 c45 0 60 4 65 16 10 26 -13 44 -55 44 -22 0 -39 3 -39 6 0 4 16 24 36 46 38
43 41 71 7 76 -15 2 -32 -10 -59 -42 -21 -25 -42 -46 -46 -46 -4 0 -28 23 -54
50 -49 53 -64 59 -83 36z"/>
<path d="M987 608 c-22 -12 -24 -100 -2 -118 30 -24 45 -4 45 59 0 62 -11 77
-43 59z"/>
</g>
</svg>
