<?xml version="1.0" standalone="no"?>
<!DOCTYPE svg PUBLIC "-//W3C//DTD SVG 20010904//EN"
 "http://www.w3.org/TR/2001/REC-SVG-20010904/DTD/svg10.dtd">
<svg version="1.0" xmlns="http://www.w3.org/2000/svg"
 width="128.000000pt" height="128.000000pt" viewBox="0 0 128.000000 128.000000"
 preserveAspectRatio="xMidYMid meet">
<g transform="translate(0.000000,128.000000) scale(0.100000,-0.100000)"
fill="#000000" stroke="none">
<path d="M185 1095 l-25 -24 0 -431 0 -431 25 -24 24 -25 431 0 431 0 24 24
c22 22 24 31 22 107 -2 67 -5 84 -17 84 -12 0 -15 -15 -16 -73 -1 -40 -7 -79
-14 -87 -10 -12 -48 -15 -211 -15 l-199 0 0 210 0 210 210 0 209 0 3 -107 c2
-88 6 -108 18 -108 13 0 15 45 18 333 l2 333 -24 24 -25 25 -431 0 -431 0 -24
-25z m435 -225 l0 -210 -210 0 -210 0 0 198 c0 141 3 201 12 210 9 9 69 12
210 12 l198 0 0 -210z m448 198 c9 -9 12 -69 12 -210 l0 -198 -210 0 -210 0 0
210 0 210 198 0 c141 0 201 -3 210 -12z m-448 -658 l0 -210 -198 0 c-141 0
-201 3 -210 12 -9 9 -12 69 -12 210 l0 198 210 0 210 0 0 -210z"/>
<path d="M285 995 c-23 -22 -25 -32 -25 -115 0 -83 2 -93 25 -115 22 -23 32
-25 115 -25 83 0 93 2 115 25 23 22 25 32 25 115 0 83 -2 93 -25 115 -22 23
-32 25 -115 25 -83 0 -93 -2 -115 -25z m210 -115 l0 -95 -95 0 -95 0 -3 84
c-2 46 0 90 2 98 4 11 27 13 98 11 l93 -3 0 -95z"/>
<path d="M765 995 c-23 -22 -25 -32 -25 -115 0 -83 2 -93 25 -115 22 -23 32
-25 115 -25 83 0 93 2 115 25 23 22 25 32 25 115 0 83 -2 93 -25 115 -22 23
-32 25 -115 25 -83 0 -93 -2 -115 -25z m210 -115 l0 -95 -95 0 -95 0 -3 84
c-2 46 0 90 2 98 4 11 27 13 98 11 l93 -3 0 -95z"/>
<path d="M285 515 c-23 -22 -25 -32 -25 -115 0 -83 2 -93 25 -115 22 -23 32
-25 115 -25 83 0 93 2 115 25 23 22 25 32 25 115 0 83 -2 93 -25 115 -22 23
-32 25 -115 25 -83 0 -93 -2 -115 -25z m210 -115 l0 -95 -95 0 -95 0 -3 84
c-2 46 0 90 2 98 4 11 27 13 98 11 l93 -3 0 -95z"/>
<path d="M765 515 c-23 -22 -25 -32 -25 -115 0 -83 2 -93 25 -115 22 -23 32
-25 115 -25 127 0 140 13 140 140 0 83 -2 93 -25 115 -22 23 -32 25 -115 25
-83 0 -93 -2 -115 -25z m210 -115 l0 -95 -95 0 -95 0 -3 84 c-2 46 0 90 2 98
4 11 27 13 98 11 l93 -3 0 -95z"/>
</g>
</svg>
