<?xml version="1.0" standalone="no"?>
<!DOCTYPE svg PUBLIC "-//W3C//DTD SVG 20010904//EN"
 "http://www.w3.org/TR/2001/REC-SVG-20010904/DTD/svg10.dtd">
<svg version="1.0" xmlns="http://www.w3.org/2000/svg"
 width="128.000000pt" height="128.000000pt" viewBox="0 0 128.000000 128.000000"
 preserveAspectRatio="xMidYMid meet">
<g transform="translate(0.000000,128.000000) scale(0.100000,-0.100000)"
fill="#000000" stroke="none">
<path d="M229 1221 c-152 -63 -183 -83 -208 -135 -44 -89 -17 -174 81 -264
166 -151 171 -158 165 -201 -5 -42 -30 -81 -116 -182 -29 -35 -49 -65 -44 -66
16 -6 240 77 275 101 51 34 72 80 72 156 0 114 -50 187 -228 335 -45 37 -47
42 -37 68 6 15 40 58 75 96 71 75 113 142 89 141 -5 -1 -60 -22 -124 -49z"/>
<path d="M0 135 l0 -135 45 0 45 0 0 135 0 135 -45 0 -45 0 0 -135z"/>
<path d="M180 135 l0 -135 45 0 45 0 0 135 0 135 -45 0 -45 0 0 -135z"/>
<path d="M360 135 l0 -135 460 0 460 0 0 135 0 135 -460 0 -460 0 0 -135z"/>
</g>
</svg>
