<?xml version="1.0" standalone="no"?>
<!DOCTYPE svg PUBLIC "-//W3C//DTD SVG 20010904//EN"
 "http://www.w3.org/TR/2001/REC-SVG-20010904/DTD/svg10.dtd">
<svg version="1.0" xmlns="http://www.w3.org/2000/svg"
 width="128.000000pt" height="128.000000pt" viewBox="0 0 128.000000 128.000000"
 preserveAspectRatio="xMidYMid meet">
<g transform="translate(0.000000,128.000000) scale(0.100000,-0.100000)"
fill="#000000" stroke="none">
<path d="M709 946 c-63 -43 -87 -127 -53 -191 14 -28 14 -30 -8 -47 -23 -18
-23 -17 -100 61 -53 53 -78 86 -78 102 0 17 -12 32 -43 51 l-42 27 -23 -23
-24 -23 27 -42 c18 -27 35 -41 49 -41 13 0 51 -29 100 -79 l78 -78 -114 -98
c-62 -54 -117 -106 -122 -117 -12 -25 22 -72 55 -76 20 -2 43 19 127 113 83
93 106 114 117 105 11 -9 11 -16 3 -30 -10 -15 0 -30 68 -104 43 -47 84 -86
90 -86 6 0 30 20 53 45 l42 46 -77 84 c-75 82 -98 97 -120 75 -8 -8 -15 -6
-24 5 -11 13 -10 19 4 34 14 15 27 18 84 13 63 -4 70 -2 100 23 18 15 39 40
47 56 15 29 20 100 8 113 -4 3 -28 -14 -53 -39 l-46 -45 -42 43 -42 43 45 44
c25 24 45 48 45 52 0 4 -21 8 -48 8 -34 0 -58 -7 -83 -24z m-286 -510 c8 -20
-20 -43 -35 -28 -14 14 -3 42 16 42 7 0 16 -6 19 -14z"/>
</g>
</svg>
