<?xml version="1.0" standalone="no"?>
<!DOCTYPE svg PUBLIC "-//W3C//DTD SVG 20010904//EN"
 "http://www.w3.org/TR/2001/REC-SVG-20010904/DTD/svg10.dtd">
<svg version="1.0" xmlns="http://www.w3.org/2000/svg"
 width="128.000000pt" height="128.000000pt" viewBox="0 0 128.000000 128.000000"
 preserveAspectRatio="xMidYMid meet">
<g transform="translate(0.000000,128.000000) scale(0.100000,-0.100000)"
fill="#000000" stroke="none">
<path d="M815 756 c111 -52 185 -131 266 -286 50 -98 95 -124 139 -80 26 26
26 100 0 158 -25 54 -110 139 -176 174 -66 36 -154 58 -224 57 l-55 0 50 -23z"/>
<path d="M565 733 l-50 -16 79 -13 c114 -18 208 -67 284 -148 56 -61 92 -129
92 -178 0 -16 9 -18 77 -18 72 0 75 1 61 18 -8 9 -37 58 -63 109 -61 117 -117
181 -197 223 -55 30 -74 34 -148 37 -59 2 -100 -2 -135 -14z"/>
<path d="M484 681 c3 -5 17 -12 32 -15 76 -20 186 -130 254 -255 72 -134 105
-157 155 -106 32 31 33 83 1 150 -60 129 -241 235 -402 235 -25 0 -43 -4 -40
-9z"/>
<path d="M321 649 c-64 -11 -143 -52 -177 -92 -51 -61 -103 -200 -104 -279 0
-17 25 -18 397 -18 376 0 395 1 381 18 -8 9 -37 59 -63 110 -83 163 -174 240
-306 262 -35 5 -66 9 -69 9 -3 -1 -29 -5 -59 -10z m147 -138 c18 -11 12 -41
-11 -55 -25 -15 -51 18 -36 45 10 20 26 24 47 10z m117 -71 c0 -18 -6 -26 -23
-28 -13 -2 -25 3 -28 12 -10 26 4 48 28 44 17 -2 23 -10 23 -28z m-61 -76 c8
-21 -11 -44 -36 -44 -21 0 -33 22 -24 45 7 20 52 19 60 -1z"/>
</g>
</svg>
