<?xml version="1.0" standalone="no"?>
<!DOCTYPE svg PUBLIC "-//W3C//DTD SVG 20010904//EN"
 "http://www.w3.org/TR/2001/REC-SVG-20010904/DTD/svg10.dtd">
<svg version="1.0" xmlns="http://www.w3.org/2000/svg"
 width="128.000000pt" height="128.000000pt" viewBox="0 0 128.000000 128.000000"
 preserveAspectRatio="xMidYMid meet">
<g transform="translate(0.000000,128.000000) scale(0.100000,-0.100000)"
fill="#000000" stroke="none">
<path d="M270 1181 l0 -88 -57 -38 c-32 -21 -88 -63 -125 -93 -74 -59 -75 -61
-68 -182 3 -55 15 -59 78 -22 112 65 200 104 221 97 31 -9 41 -58 41 -192 0
-105 -3 -129 -18 -151 -10 -15 -38 -61 -60 -103 -59 -108 -59 -108 -126 -49
-63 55 -77 59 -106 30 -33 -33 -25 -63 27 -111 119 -111 222 -174 358 -220 62
-21 88 -24 225 -24 148 0 158 1 225 29 102 42 165 86 266 183 79 76 90 90 87
117 -2 23 -10 33 -30 40 -23 8 -32 4 -79 -38 -28 -26 -57 -45 -63 -43 -24 7
-72 119 -112 257 l-42 145 30 6 c36 8 90 -3 126 -27 15 -9 63 -55 107 -101 44
-46 86 -83 93 -83 15 0 17 202 2 231 -21 37 -65 50 -173 50 -56 -1 -120 -5
-142 -10 -38 -10 -42 -8 -75 24 -51 50 -96 65 -192 65 l-83 0 -18 48 c-23 67
-48 96 -117 135 -46 26 -74 52 -125 120 -36 48 -68 87 -70 87 -3 0 -5 -40 -5
-89z m236 -658 c58 -25 203 -24 273 2 l53 20 37 -43 c21 -23 59 -88 87 -143
l49 -101 -25 -20 c-169 -137 -507 -142 -668 -11 l-24 18 40 65 c21 36 59 102
83 147 24 46 47 83 50 83 4 0 24 -8 45 -17z"/>
</g>
</svg>
