<?xml version="1.0" standalone="no"?>
<!DOCTYPE svg PUBLIC "-//W3C//DTD SVG 20010904//EN"
 "http://www.w3.org/TR/2001/REC-SVG-20010904/DTD/svg10.dtd">
<svg version="1.0" xmlns="http://www.w3.org/2000/svg"
 width="128.000000pt" height="128.000000pt" viewBox="0 0 128.000000 128.000000"
 preserveAspectRatio="xMidYMid meet">
<g transform="translate(0.000000,128.000000) scale(0.100000,-0.100000)"
fill="#000000" stroke="none">
<path d="M275 1267 c-3 -7 -4 -89 -3 -182 l3 -170 318 -3 317 -2 0 185 0 185
-135 0 -134 0 -3 -92 -3 -93 -42 -3 -42 -3 -3 93 -3 93 -133 3 c-102 2 -134 0
-137 -11z"/>
<path d="M0 590 l0 -230 228 2 227 3 3 228 2 227 -95 0 -95 0 0 -90 0 -90 -45
0 -45 0 0 90 0 90 -90 0 -90 0 0 -230z"/>
<path d="M550 590 l0 -230 363 2 362 3 3 228 2 227 -365 0 -365 0 0 -230z"/>
<path d="M0 135 l0 -135 90 0 90 0 0 90 0 90 185 0 185 0 0 -90 0 -90 90 0 90
0 0 90 0 90 180 0 180 0 0 -90 0 -90 95 0 95 0 0 135 0 135 -640 0 -640 0 0
-135z"/>
</g>
</svg>
