<?xml version="1.0" standalone="no"?>
<!DOCTYPE svg PUBLIC "-//W3C//DTD SVG 20010904//EN"
 "http://www.w3.org/TR/2001/REC-SVG-20010904/DTD/svg10.dtd">
<svg version="1.0" xmlns="http://www.w3.org/2000/svg"
 width="128.000000pt" height="128.000000pt" viewBox="0 0 128.000000 128.000000"
 preserveAspectRatio="xMidYMid meet">
<g transform="translate(0.000000,128.000000) scale(0.100000,-0.100000)"
fill="#000000" stroke="none">
<path d="M52 1184 c-50 -35 -52 -47 -52 -424 0 -292 3 -356 15 -380 19 -37 52
-60 86 -60 23 0 29 6 34 32 11 49 49 119 82 150 35 34 92 58 135 58 43 -1 112
-32 144 -67 32 -34 74 -119 74 -150 l0 -23 334 0 335 0 20 26 c27 34 27 74 0
108 -19 24 -26 26 -95 26 l-74 0 0 310 c0 333 -4 360 -51 394 -21 14 -75 16
-494 16 -410 0 -473 -2 -493 -16z m126 -156 c8 -8 12 -64 12 -184 l0 -173 -28
-21 -27 -22 -3 192 c-2 134 1 197 9 206 14 17 22 17 37 2z m200 -151 l3 -157
-31 0 -30 0 0 148 c0 151 6 176 40 170 12 -3 15 -29 18 -161z m192 144 c10
-20 15 -391 5 -391 -3 0 -19 10 -35 22 l-30 22 0 171 c0 171 4 195 37 195 7 0
17 -9 23 -19z m189 5 c8 -9 11 -89 9 -271 -3 -236 -5 -259 -21 -269 -15 -9
-21 -7 -33 8 -11 16 -14 67 -14 264 0 148 4 251 10 263 12 22 33 25 49 5z
m189 2 c9 -9 12 -82 12 -269 0 -215 -2 -259 -15 -269 -8 -7 -22 -10 -30 -6
-13 5 -15 43 -15 274 0 148 3 272 7 275 10 11 28 8 41 -5z"/>
<path d="M290 462 c-145 -73 -119 -349 36 -378 45 -8 76 0 115 33 105 89 87
287 -33 349 -36 19 -76 18 -118 -4z m90 -112 c60 -32 34 -150 -34 -150 -50 0
-75 96 -36 138 23 24 41 27 70 12z"/>
</g>
</svg>
