<?xml version="1.0" standalone="no"?>
<!DOCTYPE svg PUBLIC "-//W3C//DTD SVG 20010904//EN"
 "http://www.w3.org/TR/2001/REC-SVG-20010904/DTD/svg10.dtd">
<svg version="1.0" xmlns="http://www.w3.org/2000/svg"
 width="128.000000pt" height="128.000000pt" viewBox="0 0 128.000000 128.000000"
 preserveAspectRatio="xMidYMid meet">
<g transform="translate(0.000000,128.000000) scale(0.100000,-0.100000)"
fill="#000000" stroke="none">
<path d="M503 1261 c-213 -58 -361 -214 -409 -430 -59 -265 99 -543 364 -640
56 -20 66 -28 119 -101 32 -43 61 -79 64 -79 4 -1 19 18 34 40 51 78 104 127
155 144 60 20 154 80 205 130 214 215 214 575 0 790 -136 135 -352 194 -532
146z m40 -153 c12 -6 58 -48 102 -94 74 -76 84 -83 137 -94 64 -13 146 -2 232
31 72 27 77 12 22 -66 -118 -165 -207 -245 -271 -245 -15 0 -53 17 -87 40 -77
51 -127 54 -204 10 l-53 -30 -15 53 c-52 184 -86 322 -82 333 8 20 127 74 163
74 19 0 44 -5 56 -12z m-201 -304 c32 -115 74 -272 93 -349 20 -77 38 -148 41
-158 5 -16 0 -18 -47 -15 l-53 3 -88 350 c-48 193 -88 353 -88 356 0 8 61 28
75 25 6 -2 36 -97 67 -212z"/>
</g>
</svg>
