<?xml version="1.0" standalone="no"?>
<!DOCTYPE svg PUBLIC "-//W3C//DTD SVG 20010904//EN"
 "http://www.w3.org/TR/2001/REC-SVG-20010904/DTD/svg10.dtd">
<svg version="1.0" xmlns="http://www.w3.org/2000/svg"
 width="128.000000pt" height="128.000000pt" viewBox="0 0 128.000000 128.000000"
 preserveAspectRatio="xMidYMid meet">
<g transform="translate(0.000000,128.000000) scale(0.100000,-0.100000)"
fill="#000000" stroke="none">
<path d="M260 770 l0 -460 385 0 385 0 0 460 0 460 -385 0 -385 0 0 -460z"/>
<path d="M272 268 c-16 -16 -16 -190 0 -206 15 -15 70 -16 85 -1 8 8 17 8 31
0 29 -16 68 -14 86 5 20 19 23 183 4 202 -15 15 -80 16 -95 1 -8 -8 -13 -8
-17 0 -10 15 -79 14 -94 -1z"/>
<path d="M800 254 c-16 -41 -12 -156 6 -182 17 -25 71 -31 92 -10 9 9 15 9 24
0 18 -18 73 -14 91 6 20 22 24 160 7 193 -12 22 -78 27 -98 7 -9 -9 -15 -9
-24 0 -7 7 -29 12 -50 12 -32 0 -40 -4 -48 -26z"/>
</g>
</svg>
