<?xml version="1.0" standalone="no"?>
<!DOCTYPE svg PUBLIC "-//W3C//DTD SVG 20010904//EN"
 "http://www.w3.org/TR/2001/REC-SVG-20010904/DTD/svg10.dtd">
<svg version="1.0" xmlns="http://www.w3.org/2000/svg"
 width="128.000000pt" height="128.000000pt" viewBox="0 0 128.000000 128.000000"
 preserveAspectRatio="xMidYMid meet">
<g transform="translate(0.000000,128.000000) scale(0.100000,-0.100000)"
fill="#000000" stroke="none">
<path d="M460 1264 c-105 -28 -205 -124 -270 -258 -60 -124 -74 -196 -74 -371
1 -121 5 -165 22 -228 47 -170 155 -322 268 -378 41 -20 68 -24 159 -27 l110
-3 -40 19 c-170 81 -285 408 -255 726 12 121 58 281 106 362 37 63 107 132
157 154 l42 19 -85 0 c-47 0 -110 -7 -140 -15z"/>
<path d="M692 1244 c-102 -51 -191 -187 -234 -359 -32 -127 -32 -381 0 -500
62 -230 200 -385 342 -385 141 0 280 157 341 386 18 64 22 110 23 239 1 194
-15 277 -81 414 -97 202 -244 279 -391 205z m191 -262 c41 -28 74 -77 99 -151
19 -56 23 -87 23 -196 0 -113 -3 -139 -25 -198 -27 -77 -74 -138 -119 -157
-141 -58 -261 233 -206 495 38 177 136 267 228 207z"/>
<path d="M778 933 c-28 -33 -29 -42 -6 -105 18 -53 22 -84 22 -193 0 -111 -3
-139 -23 -193 l-23 -64 28 -29 c35 -37 68 -37 104 -1 102 102 101 470 -2 579
-26 28 -78 31 -100 6z"/>
</g>
</svg>
