<?xml version="1.0" standalone="no"?>
<!DOCTYPE svg PUBLIC "-//W3C//DTD SVG 20010904//EN"
 "http://www.w3.org/TR/2001/REC-SVG-20010904/DTD/svg10.dtd">
<svg version="1.0" xmlns="http://www.w3.org/2000/svg"
 width="128.000000pt" height="128.000000pt" viewBox="0 0 128.000000 128.000000"
 preserveAspectRatio="xMidYMid meet">
<g transform="translate(0.000000,128.000000) scale(0.100000,-0.100000)"
fill="#000000" stroke="none">
<path d="M123 1168 c-5 -7 -36 -99 -68 -205 -55 -180 -58 -195 -46 -233 14
-49 60 -103 101 -120 18 -7 55 -11 90 -8 48 3 67 10 97 35 l38 30 37 -30 c29
-23 51 -31 93 -35 70 -6 97 2 140 39 l35 31 35 -31 c43 -37 70 -45 140 -39 42
4 64 12 93 35 l37 30 38 -30 c30 -25 49 -32 97 -35 35 -3 72 1 90 8 41 17 87
71 101 120 13 44 18 25 -88 368 l-25 82 -513 0 c-398 0 -515 -3 -522 -12z
m1044 -227 c33 -108 51 -182 47 -197 -3 -13 -22 -37 -40 -54 -71 -62 -178 -26
-193 64 -7 46 -32 66 -55 47 -9 -8 -16 -26 -16 -42 0 -61 -83 -113 -153 -95
-37 9 -75 54 -84 99 -7 36 -12 42 -33 42 -21 0 -26 -6 -33 -42 -9 -45 -47 -90
-84 -99 -70 -18 -153 34 -153 95 0 16 -7 34 -16 42 -23 19 -48 -1 -55 -47 -14
-87 -121 -125 -189 -67 -56 46 -56 58 0 242 28 91 52 172 55 179 3 10 104 12
476 10 l472 -3 54 -174z"/>
<path d="M1111 174 c0 -11 3 -14 6 -6 3 7 2 16 -1 19 -3 4 -6 -2 -5 -13z"/>
<path d="M448 143 c105 -2 279 -2 385 0 105 1 19 2 -193 2 -212 0 -298 -1
-192 -2z"/>
<path d="M1089 133 c-13 -16 -12 -17 4 -4 16 13 21 21 13 21 -2 0 -10 -8 -17
-17z"/>
<path d="M438 103 c111 -2 293 -2 405 0 111 1 20 2 -203 2 -223 0 -314 -1
-202 -2z"/>
</g>
</svg>
