<?xml version="1.0" standalone="no"?>
<!DOCTYPE svg PUBLIC "-//W3C//DTD SVG 20010904//EN"
 "http://www.w3.org/TR/2001/REC-SVG-20010904/DTD/svg10.dtd">
<svg version="1.0" xmlns="http://www.w3.org/2000/svg"
 width="128.000000pt" height="128.000000pt" viewBox="0 0 128.000000 128.000000"
 preserveAspectRatio="xMidYMid meet">
<g transform="translate(0.000000,128.000000) scale(0.100000,-0.100000)"
fill="#000000" stroke="none">
<path d="M799 1266 c-56 -20 -96 -53 -126 -104 -26 -44 -28 -56 -31 -178 l-4
-130 -58 57 c-94 92 -245 151 -339 134 -55 -10 -117 -51 -150 -98 -51 -74 -61
-130 -61 -336 0 -136 -4 -199 -15 -235 -34 -110 -9 -203 74 -287 81 -81 114
-89 353 -89 201 0 237 7 286 53 47 44 47 39 52 544 l5 483 25 24 c39 38 89 38
125 1 l25 -24 0 -456 0 -455 -59 0 c-50 0 -62 -4 -85 -26 -20 -21 -26 -37 -26
-70 0 -71 10 -74 247 -74 190 0 204 1 223 20 28 28 26 82 -4 117 -21 24 -34
29 -88 33 l-63 5 -5 475 c-6 531 -2 506 -80 572 -64 55 -145 71 -221 44z m138
-57 c40 -15 73 -48 94 -94 17 -37 19 -71 19 -402 0 -311 -2 -363 -15 -363 -12
0 -15 55 -17 373 -3 340 -5 375 -21 400 -31 48 -75 69 -135 64 -46 -3 -59 -9
-90 -41 l-37 -36 -5 -203 c-4 -168 -7 -198 -17 -180 -9 15 -13 75 -13 195 0
164 1 175 24 212 44 73 135 105 213 75z m-617 -304 c0 -98 14 -136 60 -160 73
-38 156 2 169 81 l7 39 37 -50 c47 -63 90 -152 112 -230 25 -89 33 -396 12
-447 -24 -58 -66 -78 -165 -78 l-83 0 35 36 c20 20 45 62 57 93 67 178 -54
371 -243 388 l-58 6 0 203 0 204 30 0 30 0 0 -85z m-120 -140 c0 -165 -3 -205
-13 -205 -8 0 -33 -14 -55 -30 l-42 -30 0 151 c0 87 5 168 12 191 10 33 80
128 94 128 2 0 4 -92 4 -205z m241 179 c27 -15 51 -36 55 -46 8 -28 -4 -84
-21 -98 -22 -18 -67 -15 -82 6 -13 18 -19 164 -7 164 4 0 28 -12 55 -26z m-34
-454 c133 -76 153 -261 42 -367 -146 -138 -388 -36 -389 165 -1 180 191 291
347 202z m641 -257 c-4 -81 -28 -85 -28 -4 0 48 3 61 15 61 13 0 15 -11 13
-57z m153 -123 c10 -6 19 -20 19 -30 0 -19 -8 -20 -190 -20 -198 0 -209 3
-173 42 14 16 34 18 170 18 87 0 163 -5 174 -10z"/>
<path d="M244 396 c-45 -20 -64 -53 -64 -107 0 -40 5 -53 31 -78 26 -26 38
-31 78 -31 59 0 96 26 112 79 27 92 -69 176 -157 137z m86 -66 c11 -11 20 -29
20 -40 0 -26 -34 -60 -60 -60 -26 0 -60 34 -60 60 0 11 9 29 20 40 11 11 29
20 40 20 11 0 29 -9 40 -20z"/>
</g>
</svg>
