<?xml version="1.0" standalone="no"?>
<!DOCTYPE svg PUBLIC "-//W3C//DTD SVG 20010904//EN"
 "http://www.w3.org/TR/2001/REC-SVG-20010904/DTD/svg10.dtd">
<svg version="1.0" xmlns="http://www.w3.org/2000/svg"
 width="128.000000pt" height="128.000000pt" viewBox="0 0 128.000000 128.000000"
 preserveAspectRatio="xMidYMid meet">
<g transform="translate(0.000000,128.000000) scale(0.100000,-0.100000)"
fill="#000000" stroke="none">
<path d="M160 1260 c-25 -25 -26 -52 -2 -73 17 -15 65 -17 490 -17 414 0 472
2 486 16 22 21 20 50 -4 74 -19 19 -33 20 -485 20 -452 0 -466 -1 -485 -20z"/>
<path d="M56 903 l-57 -167 16 -43 c18 -46 71 -99 111 -109 36 -9 94 2 124 24
24 18 52 63 65 107 6 17 9 14 20 -18 27 -77 91 -122 163 -114 59 6 92 32 123
96 l26 53 6 -30 c9 -43 62 -100 107 -113 58 -18 109 -4 151 41 20 21 39 53 43
71 l8 34 15 -42 c40 -116 189 -150 259 -58 44 58 42 96 -11 246 -26 74 -52
146 -57 162 l-10 27 -523 0 -523 0 -56 -167z"/>
<path d="M930 430 c0 -33 -2 -60 -5 -60 -3 0 -16 7 -29 15 -51 34 -116 -23
-116 -103 0 -42 19 -91 40 -102 26 -14 73 -12 89 2 11 10 14 10 18 1 3 -7 16
-13 29 -13 l24 0 0 160 0 160 -25 0 c-24 0 -25 -3 -25 -60z m-26 -83 c9 -7 19
-31 22 -52 8 -67 -34 -116 -71 -85 -21 17 -20 114 1 134 19 19 25 20 48 3z"/>
<path d="M335 455 c-34 -33 -32 -55 4 -55 20 0 30 6 34 20 6 24 39 27 57 5 21
-25 3 -62 -65 -134 -46 -48 -65 -76 -65 -95 l0 -26 100 0 c93 0 100 1 100 20
0 18 -7 20 -72 20 l-72 0 50 53 c69 71 84 95 84 138 0 29 -6 43 -26 58 -38 30
-98 28 -129 -4z"/>
<path d="M120 259 l0 -201 29 -29 29 -29 467 0 467 0 29 29 29 29 0 201 0 201
-45 0 -45 0 0 -185 0 -185 -435 0 -435 0 0 185 0 185 -45 0 -45 0 0 -201z"/>
<path d="M628 385 c-16 -7 -28 -10 -28 -4 0 5 -12 9 -27 9 l-28 0 0 -110 0
-110 28 0 27 0 0 79 c0 59 4 84 16 95 18 18 23 19 44 6 11 -7 16 -33 19 -95 3
-82 4 -85 27 -85 24 0 24 2 24 93 0 77 -3 97 -17 109 -28 25 -56 29 -85 13z"/>
</g>
</svg>
