<?xml version="1.0" standalone="no"?>
<!DOCTYPE svg PUBLIC "-//W3C//DTD SVG 20010904//EN"
 "http://www.w3.org/TR/2001/REC-SVG-20010904/DTD/svg10.dtd">
<svg version="1.0" xmlns="http://www.w3.org/2000/svg"
 width="128.000000pt" height="128.000000pt" viewBox="0 0 128.000000 128.000000"
 preserveAspectRatio="xMidYMid meet">
<g transform="translate(0.000000,128.000000) scale(0.100000,-0.100000)"
fill="#000000" stroke="none">
<path d="M1105 1251 c-129 -38 -239 -110 -320 -211 -162 -200 -189 -462 -73
-698 50 -101 169 -218 278 -271 83 -40 192 -70 258 -71 31 0 32 1 32 44 l0 44
-57 7 c-244 30 -429 200 -480 439 -35 166 21 356 141 480 92 94 205 150 328
164 l63 7 3 43 3 42 -58 -1 c-32 0 -85 -8 -118 -18z"/>
<path d="M0 590 l0 -590 395 0 395 0 0 45 0 45 -260 0 -260 0 2 228 3 227 138
3 138 3 -3 42 -3 42 -137 3 -138 3 0 224 0 225 228 2 227 3 3 43 3 42 -365 0
-366 0 0 -590z m180 454 l0 -45 -42 3 c-43 3 -43 3 -46 46 l-3 42 45 0 46 0 0
-46z m0 -179 l0 -45 -45 0 -45 0 0 45 0 45 45 0 45 0 0 -45z m0 -180 l0 -45
-45 0 -45 0 0 45 0 45 45 0 45 0 0 -45z m0 -180 l0 -45 -45 0 -45 0 0 45 0 45
45 0 45 0 0 -45z m0 -191 l0 -45 -42 3 c-43 3 -43 3 -46 46 l-3 42 45 0 46 0
0 -46z m0 -179 l0 -45 -45 0 -45 0 0 45 0 45 45 0 45 0 0 -45z"/>
<path d="M1201 802 c-59 -30 -94 -83 -99 -152 -4 -51 -1 -66 22 -105 29 -48
85 -85 131 -85 23 0 25 4 25 43 0 39 -3 44 -32 52 -17 6 -40 22 -51 37 -17 23
-19 34 -11 65 7 31 17 42 51 58 40 19 42 23 43 63 0 37 -3 42 -22 42 -13 0
-38 -8 -57 -18z"/>
</g>
</svg>
