<?xml version="1.0" standalone="no"?>
<!DOCTYPE svg PUBLIC "-//W3C//DTD SVG 20010904//EN"
 "http://www.w3.org/TR/2001/REC-SVG-20010904/DTD/svg10.dtd">
<svg version="1.0" xmlns="http://www.w3.org/2000/svg"
 width="128.000000pt" height="128.000000pt" viewBox="0 0 128.000000 128.000000"
 preserveAspectRatio="xMidYMid meet">
<g transform="translate(0.000000,128.000000) scale(0.100000,-0.100000)"
fill="#000000" stroke="none">
<path d="M120 1270 c0 -80 167 -209 292 -226 83 -11 131 2 199 57 46 36 70 49
94 49 84 0 85 -26 1 -133 -66 -86 -96 -136 -96 -162 0 -21 -3 -20 -83 27 -61
37 -80 43 -139 46 -102 6 -134 -3 -189 -55 -112 -104 -201 -405 -187 -628 11
-174 115 -269 258 -235 58 14 125 69 196 161 l45 59 138 0 138 0 30 -42 c43
-59 130 -146 164 -164 83 -43 178 -26 238 43 56 63 64 101 58 268 -6 165 -29
269 -87 392 -76 162 -128 202 -261 203 -77 0 -115 -13 -191 -64 -45 -30 -33
-4 42 90 39 49 75 104 80 123 24 89 -46 171 -145 171 -47 0 -99 -22 -152 -66
-24 -19 -56 -39 -72 -44 -36 -10 -108 3 -160 30 -42 21 -111 84 -111 100 0 6
-22 10 -50 10 -28 0 -50 -5 -50 -10z m288 -546 c18 -12 22 -25 22 -70 l0 -54
49 0 c64 0 81 -7 81 -34 0 -34 -20 -46 -77 -46 l-53 0 0 -50 c0 -37 -5 -55
-20 -70 -38 -38 -63 -18 -70 57 l-5 58 -54 5 c-37 3 -57 11 -65 23 -19 30 4
51 65 57 l54 5 5 58 c3 36 11 62 20 67 20 13 22 13 48 -6z m562 -14 c11 -11
20 -28 20 -38 0 -27 -37 -62 -65 -62 -28 0 -65 35 -65 62 0 26 36 58 65 58 14
0 34 -9 45 -20z m104 -91 c31 -25 35 -68 7 -93 -27 -24 -70 -17 -94 16 -17 23
-19 31 -9 53 10 22 39 42 63 44 4 1 18 -8 33 -20z m-216 -5 c46 -32 18 -114
-39 -114 -28 0 -69 39 -69 65 0 23 41 65 64 65 12 0 32 -7 44 -16z m122 -114
c11 -11 20 -31 20 -45 0 -29 -32 -65 -58 -65 -27 0 -59 27 -66 56 -16 61 58
100 104 54z"/>
</g>
</svg>
