<?xml version="1.0" standalone="no"?>
<!DOCTYPE svg PUBLIC "-//W3C//DTD SVG 20010904//EN"
 "http://www.w3.org/TR/2001/REC-SVG-20010904/DTD/svg10.dtd">
<svg version="1.0" xmlns="http://www.w3.org/2000/svg"
 width="128.000000pt" height="128.000000pt" viewBox="0 0 128.000000 128.000000"
 preserveAspectRatio="xMidYMid meet">
<g transform="translate(0.000000,128.000000) scale(0.100000,-0.100000)"
fill="#000000" stroke="none">
<path d="M323 1185 c-29 -20 -31 -30 -103 -440 -39 -220 -60 -366 -57 -393 7
-66 53 -131 116 -164 l53 -28 410 0 409 0 24 25 c24 23 25 28 25 178 l0 154
-51 139 c-51 140 -80 184 -119 184 -10 0 -95 -28 -189 -62 -94 -33 -173 -59
-176 -57 -2 3 9 83 26 178 17 96 28 185 25 197 -10 38 -43 51 -196 78 -170 30
-169 30 -197 11z m180 -89 c70 -13 130 -25 132 -28 2 -2 -25 -170 -61 -373
-45 -260 -70 -377 -82 -395 -23 -32 -78 -60 -117 -60 -60 0 -135 71 -135 128
0 23 117 714 125 740 3 6 6 12 7 12 2 0 61 -11 131 -24z m564 -454 c24 -64 44
-123 45 -130 2 -9 -83 -44 -256 -108 -143 -52 -261 -92 -263 -90 -5 5 47 299
54 306 4 4 360 137 373 139 3 1 24 -52 47 -117z m53 -317 l0 -85 -232 1 c-128
0 -228 3 -223 5 26 13 432 162 443 163 9 1 12 -22 12 -84z"/>
<path d="M340 420 c-11 -11 -20 -29 -20 -40 0 -11 9 -29 20 -40 11 -11 29 -20
40 -20 26 0 60 34 60 60 0 11 -9 29 -20 40 -11 11 -29 20 -40 20 -11 0 -29 -9
-40 -20z"/>
</g>
</svg>
