<?xml version="1.0" standalone="no"?>
<!DOCTYPE svg PUBLIC "-//W3C//DTD SVG 20010904//EN"
 "http://www.w3.org/TR/2001/REC-SVG-20010904/DTD/svg10.dtd">
<svg version="1.0" xmlns="http://www.w3.org/2000/svg"
 width="128.000000pt" height="128.000000pt" viewBox="0 0 128.000000 128.000000"
 preserveAspectRatio="xMidYMid meet">
<g transform="translate(0.000000,128.000000) scale(0.100000,-0.100000)"
fill="#000000" stroke="none">
<path d="M533 1153 c-18 -7 -16 -48 2 -63 22 -18 19 -28 -15 -57 -17 -14 -43
-46 -57 -71 -28 -48 -30 -63 -25 -232 2 -58 2 -135 1 -185 -1 -32 -1 -79 0
-135 0 -19 -2 -86 -5 -148 l-5 -112 38 -18 c52 -23 312 -24 358 -2 l30 15 -1
115 c-1 63 -2 127 -2 143 -1 103 -1 135 0 157 1 26 -1 102 -2 148 -1 15 1 59
5 97 10 97 -4 142 -66 209 -49 54 -50 56 -34 80 13 19 14 29 5 45 -10 19 -19
21 -113 20 -56 0 -108 -3 -114 -6z m207 -33 c0 -6 -38 -10 -95 -10 -57 0 -95
4 -95 10 0 6 38 10 95 10 57 0 95 -4 95 -10z m-20 -59 c0 -11 12 -29 26 -40
33 -26 68 -71 61 -78 -19 -18 -103 -21 -179 -7 -45 9 -97 13 -115 9 -18 -3
-33 -2 -33 2 0 5 20 29 45 53 25 24 45 52 45 62 0 16 10 18 75 18 67 0 75 -2
75 -19z m-35 -157 c35 -3 78 -1 100 5 21 6 41 8 44 5 10 -10 4 -139 -8 -175
-9 -29 -8 -41 6 -69 15 -31 15 -37 1 -78 -14 -38 -14 -47 -1 -81 13 -33 13
-42 -1 -74 -13 -33 -13 -41 0 -72 19 -46 19 -188 0 -204 -32 -27 -314 -32
-356 -6 -14 8 -13 208 1 222 7 7 23 8 47 2 62 -14 132 -11 132 6 0 12 -14 15
-67 15 -38 0 -79 6 -93 13 -22 11 -25 19 -25 62 l0 50 93 -4 c73 -3 92 0 92
10 0 10 -19 15 -72 16 -98 3 -120 19 -116 81 l3 47 93 -4 c110 -4 126 13 21
23 -87 8 -105 17 -113 57 -8 44 -8 154 2 163 7 8 94 4 217 -10z"/>
</g>
</svg>
