<?xml version="1.0" standalone="no"?>
<!DOCTYPE svg PUBLIC "-//W3C//DTD SVG 20010904//EN"
 "http://www.w3.org/TR/2001/REC-SVG-20010904/DTD/svg10.dtd">
<svg version="1.0" xmlns="http://www.w3.org/2000/svg"
 width="128.000000pt" height="128.000000pt" viewBox="0 0 128.000000 128.000000"
 preserveAspectRatio="xMidYMid meet">
<g transform="translate(0.000000,128.000000) scale(0.100000,-0.100000)"
fill="#000000" stroke="none">
<path d="M22 1194 l-22 -15 0 -425 0 -424 640 0 640 0 0 424 0 425 -22 15
c-34 24 -1202 24 -1236 0z m98 -34 c0 -11 -4 -20 -10 -20 -5 0 -10 9 -10 20 0
11 5 20 10 20 6 0 10 -9 10 -20z m60 0 c0 -11 -4 -20 -10 -20 -5 0 -10 9 -10
20 0 11 5 20 10 20 6 0 10 -9 10 -20z m1044 14 c9 -3 16 -12 16 -20 0 -12 -81
-14 -510 -14 -503 0 -510 0 -510 20 0 20 7 20 494 20 272 0 501 -3 510 -6z
m-1164 -19 c0 -8 -4 -15 -10 -15 -5 0 -10 7 -10 15 0 8 5 15 10 15 6 0 10 -7
10 -15z m1180 -420 l0 -375 -600 0 -600 0 0 375 0 375 600 0 600 0 0 -375z"/>
<path d="M87 1073 c-4 -3 -7 -125 -7 -270 l0 -263 380 0 380 0 -2 268 -3 267
-371 3 c-204 1 -373 -1 -377 -5z m713 -238 l0 -215 -340 0 -340 0 0 215 0 215
340 0 340 0 0 -215z m-437 -262 c-35 -2 -91 -2 -125 0 -35 2 -7 3 62 3 69 0
97 -1 63 -3z m325 0 c-32 -2 -84 -2 -116 0 -31 2 -5 3 58 3 63 0 89 -1 58 -3z"/>
<path d="M204 961 c-27 -42 -25 -61 7 -61 34 0 32 -25 -11 -110 -39 -78 -40
-83 -25 -106 15 -23 21 -25 88 -22 64 3 72 5 70 22 -1 11 9 41 22 66 l24 47
55 -5 c63 -5 106 14 106 48 0 19 7 20 100 20 90 0 100 2 100 18 0 10 5 23 11
29 6 6 9 28 7 49 l-3 39 -262 3 -262 2 -27 -39z m516 -6 c0 -13 -33 -15 -240
-15 -219 0 -253 3 -233 23 3 4 111 7 240 7 200 0 233 -2 233 -15z m-240 -64
c-47 -3 -91 -10 -99 -15 -7 -5 -31 -46 -52 -92 -39 -84 -39 -84 -77 -84 -21 0
-41 3 -45 6 -3 4 12 42 34 86 22 44 38 86 35 94 -4 12 20 14 142 12 127 -1
136 -2 62 -7z m198 2 c-16 -2 -40 -2 -55 0 -16 2 -3 4 27 4 30 0 43 -2 28 -4z
m-189 -42 c16 -10 6 -31 -15 -31 -8 0 -14 9 -14 20 0 22 7 25 29 11z m-69 -22
c0 -6 -4 -7 -10 -4 -5 3 -10 11 -10 16 0 6 5 7 10 4 6 -3 10 -11 10 -16z"/>
<path d="M887 1074 c-4 -4 -7 -29 -7 -56 l0 -48 81 0 80 0 -3 53 -3 52 -70 3
c-39 1 -74 0 -78 -4z m113 -49 c0 -22 -4 -25 -40 -25 -36 0 -40 3 -40 25 0 23
4 25 40 25 36 0 40 -2 40 -25z"/>
<path d="M1063 1048 c2 -9 25 -13 67 -13 42 0 65 4 68 13 3 9 -15 12 -68 12
-53 0 -71 -3 -67 -12z"/>
<path d="M1071 1011 c-20 -13 -4 -31 29 -31 16 0 32 5 36 11 7 12 -13 29 -36
29 -8 0 -21 -4 -29 -9z"/>
<path d="M892 931 c-9 -5 -12 -25 -10 -57 l3 -49 75 0 75 0 3 49 c4 59 -4 66
-78 66 -30 0 -61 -4 -68 -9z m108 -51 c0 -17 -7 -20 -40 -20 -33 0 -40 3 -40
20 0 17 7 20 40 20 33 0 40 -3 40 -20z"/>
<path d="M1067 914 c-18 -18 -2 -24 64 -24 52 0 70 3 67 13 -5 13 -119 23
-131 11z"/>
<path d="M1065 860 c-3 -6 0 -13 9 -16 22 -8 59 -1 64 14 5 15 -64 17 -73 2z"/>
<path d="M882 738 l3 -53 75 0 75 0 3 53 3 52 -81 0 -81 0 3 -52z m118 -3 c0
-22 -4 -25 -40 -25 -36 0 -40 3 -40 25 0 23 4 25 40 25 36 0 40 -2 40 -25z"/>
<path d="M1071 771 c-26 -17 1 -31 59 -31 58 0 85 14 59 31 -8 5 -34 9 -59 9
-25 0 -51 -4 -59 -9z"/>
<path d="M1067 724 c-16 -16 -5 -24 34 -24 28 0 39 4 37 13 -5 13 -60 22 -71
11z"/>
<path d="M887 644 c-4 -4 -7 -29 -7 -56 l0 -48 81 0 80 0 -3 53 -3 52 -70 3
c-39 1 -74 0 -78 -4z m113 -49 c0 -22 -4 -25 -40 -25 -32 0 -40 4 -40 18 0 26
9 32 47 32 29 0 33 -3 33 -25z"/>
<path d="M1063 618 c2 -9 25 -13 67 -13 42 0 65 4 68 13 3 9 -15 12 -68 12
-53 0 -71 -3 -67 -12z"/>
<path d="M1063 568 c2 -7 19 -13 37 -13 18 0 35 6 38 13 2 8 -9 12 -38 12 -29
0 -40 -4 -37 -12z"/>
<path d="M882 448 l3 -53 75 0 75 0 3 53 3 52 -81 0 -81 0 3 -52z m118 -3 c0
-22 -4 -25 -40 -25 -36 0 -40 3 -40 25 0 23 4 25 40 25 36 0 40 -2 40 -25z"/>
<path d="M87 484 c-4 -4 -7 -11 -7 -16 0 -4 117 -8 261 -8 204 0 260 3 257 13
-4 9 -65 13 -254 15 -138 1 -253 -1 -257 -4z"/>
<path d="M687 484 c-13 -13 -7 -24 14 -24 11 0 19 5 17 12 -5 14 -22 21 -31
12z"/>
<path d="M747 484 c-13 -13 -7 -24 14 -24 11 0 19 5 17 12 -5 14 -22 21 -31
12z"/>
<path d="M807 484 c-13 -13 -7 -24 14 -24 11 0 19 5 17 12 -5 14 -22 21 -31
12z"/>
<path d="M1067 484 c-18 -18 -2 -24 64 -24 52 0 70 3 67 13 -5 13 -119 23
-131 11z"/>
<path d="M87 434 c-19 -20 4 -24 124 -24 100 0 130 3 127 13 -5 13 -238 24
-251 11z"/>
<path d="M1067 434 c-16 -16 -5 -24 34 -24 28 0 39 4 37 13 -5 13 -60 22 -71
11z"/>
</g>
</svg>
