<?xml version="1.0" standalone="no"?>
<!DOCTYPE svg PUBLIC "-//W3C//DTD SVG 20010904//EN"
 "http://www.w3.org/TR/2001/REC-SVG-20010904/DTD/svg10.dtd">
<svg version="1.0" xmlns="http://www.w3.org/2000/svg"
 width="128.000000pt" height="128.000000pt" viewBox="0 0 128.000000 128.000000"
 preserveAspectRatio="xMidYMid meet">
<g transform="translate(0.000000,128.000000) scale(0.100000,-0.100000)"
fill="#000000" stroke="none">
<path d="M87 1182 c-15 -17 -17 -64 -17 -469 0 -529 -11 -483 121 -483 l84 0
0 -41 c0 -34 6 -46 38 -75 25 -23 46 -34 67 -34 67 0 120 53 120 120 l0 30
194 0 193 0 -4 -24 c-7 -33 22 -89 56 -109 77 -45 171 11 171 103 0 27 3 30
33 30 58 0 88 58 49 93 -16 15 -70 17 -513 19 l-494 3 -3 409 c-2 364 -4 412
-19 428 -21 23 -55 23 -76 0z"/>
<path d="M260 1180 c-18 -18 -20 -33 -20 -165 0 -132 2 -147 20 -165 19 -19
33 -20 453 -20 408 0 435 1 450 18 14 16 17 43 17 169 0 133 -2 152 -18 166
-17 15 -63 17 -450 17 -419 0 -433 -1 -452 -20z m205 -95 c0 -15 -9 -21 -37
-26 -43 -7 -68 -25 -68 -49 0 -23 -26 -44 -45 -36 -28 11 -18 65 20 103 31 31
39 34 82 31 40 -2 48 -6 48 -23z"/>
<path d="M256 748 c-13 -18 -16 -52 -16 -165 0 -130 2 -145 20 -163 19 -19 33
-20 453 -20 408 0 435 1 450 18 24 27 25 312 1 336 -14 14 -69 16 -454 16
l-439 0 -15 -22z m210 -83 c9 -24 -15 -45 -51 -45 -36 0 -49 -12 -59 -53 -5
-22 -12 -28 -29 -25 -45 6 -27 86 27 119 38 23 104 25 112 4z"/>
</g>
</svg>
