<?xml version="1.0" standalone="no"?>
<!DOCTYPE svg PUBLIC "-//W3C//DTD SVG 20010904//EN"
 "http://www.w3.org/TR/2001/REC-SVG-20010904/DTD/svg10.dtd">
<svg version="1.0" xmlns="http://www.w3.org/2000/svg"
 width="128.000000pt" height="128.000000pt" viewBox="0 0 128.000000 128.000000"
 preserveAspectRatio="xMidYMid meet">
<g transform="translate(0.000000,128.000000) scale(0.100000,-0.100000)"
fill="#000000" stroke="none">
<path d="M413 1265 c-79 -34 -94 -133 -29 -192 30 -28 43 -33 86 -33 89 0 140
42 140 116 0 94 -102 150 -197 109z"/>
<path d="M395 996 c-16 -7 -81 -59 -142 -115 l-113 -102 0 -109 c0 -97 2 -112
20 -130 25 -25 62 -26 83 -2 13 15 17 39 17 114 l0 96 35 26 35 27 0 -159 0
-158 -68 -105 c-51 -77 -93 -127 -165 -192 -107 -97 -116 -119 -72 -162 40
-41 75 -34 152 34 136 119 153 138 228 254 l76 118 66 -58 c49 -43 91 -95 161
-203 52 -79 102 -150 111 -157 39 -30 119 -1 122 45 3 34 -3 45 -106 200 -85
129 -117 168 -179 221 l-76 65 0 123 c0 68 4 123 8 123 5 0 21 -14 38 -31 29
-31 171 -109 198 -109 8 0 106 -142 218 -315 111 -173 208 -315 215 -315 6 0
15 5 18 10 4 6 -84 151 -195 322 -139 214 -200 317 -196 331 8 32 -3 45 -82
88 -45 24 -116 77 -169 126 -120 110 -168 130 -238 99z"/>
</g>
</svg>
