<?xml version="1.0" standalone="no"?>
<!DOCTYPE svg PUBLIC "-//W3C//DTD SVG 20010904//EN"
 "http://www.w3.org/TR/2001/REC-SVG-20010904/DTD/svg10.dtd">
<svg version="1.0" xmlns="http://www.w3.org/2000/svg"
 width="128.000000pt" height="128.000000pt" viewBox="0 0 128.000000 128.000000"
 preserveAspectRatio="xMidYMid meet">
<g transform="translate(0.000000,128.000000) scale(0.100000,-0.100000)"
fill="#000000" stroke="none">
<path d="M271 1221 c-14 -14 -21 -41 -26 -96 -25 -262 87 -514 267 -605 34
-16 67 -30 75 -30 18 0 19 -300 1 -318 -7 -7 -39 -12 -74 -12 -73 0 -114 -24
-114 -69 0 -50 7 -51 251 -51 125 0 234 3 243 6 10 4 16 18 16 39 0 50 -37 75
-109 75 -32 0 -62 5 -69 12 -8 8 -12 59 -12 163 l0 151 58 24 c193 80 317 349
287 624 -12 113 16 106 -410 106 -346 0 -366 -1 -384 -19z m679 -178 c0 -43
-3 -88 -6 -100 l-6 -23 -283 0 -282 0 -7 31 c-3 17 -6 62 -6 100 l0 69 295 0
295 0 0 -77z"/>
</g>
</svg>
