<?xml version="1.0" standalone="no"?>
<!DOCTYPE svg PUBLIC "-//W3C//DTD SVG 20010904//EN"
 "http://www.w3.org/TR/2001/REC-SVG-20010904/DTD/svg10.dtd">
<svg version="1.0" xmlns="http://www.w3.org/2000/svg"
 width="128.000000pt" height="128.000000pt" viewBox="0 0 128.000000 128.000000"
 preserveAspectRatio="xMidYMid meet">
<g transform="translate(0.000000,128.000000) scale(0.100000,-0.100000)"
fill="#000000" stroke="none">
<path d="M807 1192 c-9 -10 -20 -33 -23 -50 -6 -27 -4 -32 14 -32 22 0 47 33
58 74 5 21 3 26 -13 26 -11 0 -27 -8 -36 -18z"/>
<path d="M685 1005 c-28 -41 -53 -75 -56 -75 -3 0 -25 14 -48 30 -44 32 -101
50 -101 32 0 -6 27 -32 60 -58 51 -40 58 -49 49 -66 -12 -21 -8 -23 -132 74
-27 21 -54 35 -62 31 -19 -7 -19 -7 9 -51 13 -20 49 -55 79 -77 31 -22 57 -43
57 -46 0 -4 -7 -12 -15 -19 -12 -10 -18 -10 -30 0 -21 18 -18 2 13 -57 21 -40
45 -64 105 -108 43 -30 82 -53 88 -50 5 4 9 2 9 -3 0 -16 -45 -50 -70 -54 -14
-2 -25 -10 -25 -18 0 -23 89 -17 225 14 117 26 151 46 129 72 -8 10 -18 10
-51 -2 -59 -21 -159 -46 -164 -41 -8 8 38 57 54 57 31 0 47 17 34 33 -10 11
-9 17 3 27 13 11 20 9 39 -9 17 -16 31 -21 45 -16 29 9 26 39 -5 64 l-27 21
24 30 c13 16 50 61 82 99 53 64 57 72 43 86 -13 14 -22 7 -82 -65 l-67 -80
-50 55 c-27 30 -70 67 -95 82 -26 15 -48 28 -50 29 -2 1 13 24 32 52 20 27 36
54 36 60 0 8 -22 22 -33 22 -1 0 -25 -34 -52 -75z m111 -150 c85 -68 93 -77
82 -95 -10 -16 -15 -17 -28 -6 -8 7 -51 41 -95 76 -44 35 -80 67 -79 71 3 25
5 29 15 29 7 0 54 -34 105 -75z m-59 -81 c84 -70 92 -81 72 -101 -8 -8 -36 10
-105 69 -75 65 -92 84 -82 95 15 19 21 16 115 -63z m-66 -83 c74 -69 82 -80
70 -95 -12 -14 -19 -10 -73 40 -33 30 -73 65 -89 76 -23 17 -26 25 -18 40 5
10 13 18 18 18 4 0 46 -35 92 -79z"/>
<path d="M1124 1048 c-21 -10 -54 -57 -54 -77 0 -22 39 -10 64 20 39 45 33 77
-10 57z"/>
<path d="M304 950 c-8 -8 12 -56 67 -163 95 -186 159 -334 229 -532 57 -161
64 -175 80 -159 21 21 -72 300 -177 529 -65 142 -166 328 -180 332 -5 2 -14
-2 -19 -7z"/>
<path d="M224 896 c-3 -7 15 -47 40 -87 78 -129 154 -297 235 -519 54 -150 83
-216 95 -218 23 -5 21 12 -24 138 -70 196 -140 360 -227 533 -80 158 -105 190
-119 153z"/>
<path d="M157 836 c-3 -7 1 -22 8 -33 24 -34 172 -335 211 -428 20 -49 54
-139 75 -200 31 -87 43 -111 59 -113 11 -2 20 0 20 4 0 4 -32 95 -71 203 -77
213 -153 382 -226 504 -46 75 -65 91 -76 63z"/>
<path d="M95 727 c-15 -32 -25 -60 -24 -61 2 -2 25 6 52 18 l47 21 -24 40 -25
40 -26 -58z"/>
<path d="M113 632 c-35 -15 -65 -33 -68 -41 -11 -28 12 -32 66 -10 30 11 64
25 77 30 19 7 21 12 12 29 -13 24 -11 25 -87 -8z"/>
<path d="M577 570 c3 -11 14 -20 24 -20 25 0 24 4 -5 23 -23 15 -24 15 -19 -3z"/>
<path d="M181 561 l-44 -18 39 -6 c75 -13 87 -8 62 25 -12 15 -17 15 -57 -1z"/>
<path d="M46 495 c-10 -28 13 -36 127 -42 72 -4 117 -2 117 3 0 22 -27 34 -80
35 -30 0 -78 4 -107 8 -36 5 -54 4 -57 -4z"/>
<path d="M925 479 c-16 -5 -86 -21 -155 -35 -69 -14 -126 -27 -128 -29 -2 -2
-1 -9 3 -16 10 -15 100 -6 225 24 82 19 95 25 98 45 4 24 1 25 -43 11z"/>
<path d="M62 403 c4 -20 63 -30 195 -32 58 -1 71 2 67 13 -4 10 -36 15 -117
20 -62 4 -120 10 -130 13 -14 4 -18 0 -15 -14z"/>
<path d="M868 377 c-27 -6 -48 -13 -48 -17 0 -3 29 -16 64 -29 117 -41 134
-70 61 -101 -31 -13 -45 -25 -45 -38 0 -31 73 -90 132 -106 105 -29 203 -27
172 4 -5 5 -52 16 -104 25 -144 24 -174 54 -100 100 59 37 51 76 -24 123 -23
15 -41 33 -38 40 4 14 -3 13 -70 -1z"/>
<path d="M688 343 c-21 -5 -21 -8 -8 -32 12 -23 151 -84 181 -79 18 2 24 9 24
26 0 21 -12 28 -90 58 -49 19 -90 33 -90 33 0 -1 -8 -3 -17 -6z"/>
<path d="M100 327 c0 -7 9 -23 20 -37 l20 -25 0 31 c0 23 -5 33 -20 37 -12 3
-20 0 -20 -6z"/>
<path d="M180 269 c0 -65 12 -99 35 -99 12 0 15 16 15 80 0 79 0 80 -25 80
-24 0 -25 -3 -25 -61z"/>
<path d="M282 218 c3 -89 5 -103 21 -106 15 -3 17 7 17 102 0 100 -1 106 -20
106 -20 0 -21 -5 -18 -102z"/>
<path d="M371 179 l-1 -87 28 -5 c15 -3 29 -4 31 -2 1 2 -11 43 -27 92 l-30
88 -1 -86z"/>
<path d="M703 226 c3 -8 11 -33 17 -56 l11 -41 39 28 c21 15 36 31 32 34 -4 4
-29 16 -56 28 -36 16 -47 17 -43 7z"/>
</g>
</svg>
