<?xml version="1.0" standalone="no"?>
<!DOCTYPE svg PUBLIC "-//W3C//DTD SVG 20010904//EN"
 "http://www.w3.org/TR/2001/REC-SVG-20010904/DTD/svg10.dtd">
<svg version="1.0" xmlns="http://www.w3.org/2000/svg"
 width="128.000000pt" height="128.000000pt" viewBox="0 0 128.000000 128.000000"
 preserveAspectRatio="xMidYMid meet">
<g transform="translate(0.000000,128.000000) scale(0.100000,-0.100000)"
fill="#000000" stroke="none">
<path d="M397 1220 c-97 -42 -118 -56 -186 -124 -59 -59 -88 -99 -128 -174
l-51 -97 -7 -227 -7 -228 115 0 116 0 24 -82 c14 -46 27 -101 31 -122 6 -46
46 -92 86 -101 57 -13 130 44 130 100 0 29 32 11 44 -24 25 -76 119 -101 175
-47 17 16 33 43 36 60 4 17 20 73 37 124 l30 92 194 0 194 0 0 224 0 224 -44
94 c-39 84 -53 102 -133 178 -83 78 -100 89 -205 133 l-114 47 -114 -1 c-115
-1 -115 -1 -223 -49z m333 -4 l0 -45 -100 0 -100 0 0 45 0 44 100 0 100 0 0
-44z m-216 18 c3 -9 6 -28 6 -44 0 -22 -6 -29 -27 -35 -16 -3 -54 -19 -85 -35
l-57 -29 -21 36 c-11 19 -19 37 -17 39 5 5 180 83 188 83 4 1 10 -6 13 -15z
m435 -69 c2 -2 -6 -20 -18 -39 l-22 -35 -46 25 c-26 13 -64 29 -85 36 -32 9
-38 15 -38 39 0 60 4 61 108 17 53 -22 99 -42 101 -43z m-677 -141 c-37 -35
-68 -64 -70 -64 -1 0 -16 10 -33 22 l-29 22 77 78 78 78 21 -36 22 -37 -66
-63z m777 52 l73 -73 -28 -22 c-15 -12 -30 -20 -34 -19 -4 2 -37 30 -73 64
l-66 60 21 32 c11 18 23 32 27 32 3 0 39 -33 80 -74z m-872 -115 l21 -15 -29
-56 c-16 -31 -32 -73 -36 -93 l-8 -35 -42 25 -42 25 45 89 c31 63 48 87 57 82
7 -4 22 -14 34 -22z m1001 -61 l41 -89 -33 -21 c-43 -26 -56 -25 -56 3 0 13
-14 52 -32 87 l-31 63 29 24 c16 12 32 23 35 23 3 0 24 -40 47 -90z m-1087
-132 l39 -22 0 -88 0 -88 -45 0 -45 0 0 110 c0 61 3 110 6 110 4 0 24 -10 45
-22z m1129 -88 l0 -110 -45 0 -45 0 0 85 0 85 38 24 c20 14 40 25 45 25 4 1 7
-48 7 -109z m-1090 -211 l0 -90 -47 3 c-27 2 -47 6 -45 11 1 4 2 43 2 87 l0
80 45 0 45 0 0 -91z m1090 0 l0 -90 -42 3 -43 3 -3 74 c-2 41 -1 80 2 88 3 8
21 13 46 13 l40 0 0 -91z"/>
</g>
</svg>
