<?xml version="1.0" standalone="no"?>
<!DOCTYPE svg PUBLIC "-//W3C//DTD SVG 20010904//EN"
 "http://www.w3.org/TR/2001/REC-SVG-20010904/DTD/svg10.dtd">
<svg version="1.0" xmlns="http://www.w3.org/2000/svg"
 width="128.000000pt" height="128.000000pt" viewBox="0 0 128.000000 128.000000"
 preserveAspectRatio="xMidYMid meet">
<g transform="translate(0.000000,128.000000) scale(0.100000,-0.100000)"
fill="#000000" stroke="none">
<path d="M324 1068 c-41 -20 -44 -44 -44 -403 0 -326 -1 -345 -18 -345 -10 0
-23 -5 -30 -12 -16 -16 -16 -80 0 -96 17 -17 799 -17 816 0 16 16 16 80 0 96
-7 7 -20 12 -30 12 -17 0 -18 19 -18 345 0 364 -2 384 -47 404 -32 15 -599 14
-629 -1z m584 -80 c17 -17 17 -519 0 -536 -17 -17 -519 -17 -536 0 -17 17 -17
519 0 536 17 17 519 17 536 0z"/>
<path d="M472 788 c-11 -29 -32 -83 -46 -120 l-25 -68 25 0 c19 0 29 8 37 30
11 28 15 30 62 30 47 0 51 -2 62 -30 8 -23 18 -30 37 -30 l25 0 -30 83 c-17
45 -37 98 -43 117 -11 30 -18 35 -49 38 -34 3 -36 2 -55 -50z m67 -20 c25 -68
25 -68 -13 -68 -20 0 -36 2 -36 5 0 9 32 85 36 85 3 0 8 -10 13 -22z"/>
<path d="M680 720 l0 -120 55 0 c76 0 119 20 134 60 23 68 6 142 -40 165 -15
8 -55 15 -89 15 l-60 0 0 -120z m107 74 c30 -8 49 -68 34 -107 -12 -30 -51
-53 -75 -44 -13 5 -16 23 -16 82 0 81 2 83 57 69z"/>
</g>
</svg>
