<?xml version="1.0" standalone="no"?>
<!DOCTYPE svg PUBLIC "-//W3C//DTD SVG 20010904//EN"
 "http://www.w3.org/TR/2001/REC-SVG-20010904/DTD/svg10.dtd">
<svg version="1.0" xmlns="http://www.w3.org/2000/svg"
 width="128.000000pt" height="128.000000pt" viewBox="0 0 128.000000 128.000000"
 preserveAspectRatio="xMidYMid meet">
<g transform="translate(0.000000,128.000000) scale(0.100000,-0.100000)"
fill="#000000" stroke="none">
<path d="M36 1258 c-56 -86 -38 -387 23 -396 35 -5 54 17 46 52 -24 115 -24
211 1 311 6 24 -17 55 -41 55 -8 0 -21 -10 -29 -22z"/>
<path d="M1181 1257 c-9 -11 -9 -26 0 -63 14 -63 15 -198 0 -250 -12 -46 -8
-69 16 -78 53 -21 78 48 77 209 -1 134 -17 189 -55 193 -14 2 -31 -3 -38 -11z"/>
<path d="M213 1232 c-33 -21 -51 -152 -33 -246 13 -71 27 -89 62 -84 22 3 23
4 23 158 1 173 -8 200 -52 172z"/>
<path d="M1019 1226 c-2 -3 -4 -72 -3 -155 0 -165 6 -183 48 -163 20 9 26 23
37 82 13 77 2 197 -21 225 -12 14 -51 21 -61 11z"/>
<path d="M378 1190 c-9 -6 -22 -34 -28 -66 -19 -90 6 -184 50 -184 30 0 34 17
35 133 0 92 -2 110 -17 118 -20 11 -19 11 -40 -1z"/>
<path d="M561 1165 c-52 -45 -60 -97 -25 -170 13 -28 9 -51 -74 -380 l-88
-349 -44 -13 c-58 -17 -76 -35 -121 -125 -44 -88 -45 -91 -23 -112 14 -14 69
-16 454 -16 531 0 500 -9 431 128 -45 90 -63 108 -121 125 l-44 13 -88 349
c-83 329 -87 352 -74 380 25 51 28 74 16 110 -18 54 -62 85 -120 85 -37 0 -55
-6 -79 -25z m107 -67 c34 -34 -6 -90 -48 -68 -35 19 -20 80 20 80 9 0 21 -5
28 -12z m4 -234 c25 -97 25 -94 -32 -94 -30 0 -50 4 -50 11 0 11 27 122 35
147 10 29 30 2 47 -64z m59 -239 l12 -55 -48 -42 c-27 -24 -52 -43 -55 -43 -3
0 -28 19 -55 43 l-48 42 12 55 12 55 79 0 79 0 12 -55z m-181 -180 l24 -26
-44 -38 c-25 -22 -46 -38 -47 -37 -5 4 30 126 36 126 4 0 18 -11 31 -25z m233
-37 c9 -34 15 -63 14 -64 -1 -1 -22 15 -47 37 l-44 38 24 26 c13 14 27 25 31
25 3 0 14 -28 22 -62z m-79 -98 l57 -50 -118 0 -118 1 53 49 c29 28 57 50 61
50 4 0 34 -22 65 -50z m266 -173 c11 -17 20 -38 20 -44 0 -10 -77 -13 -350
-13 -273 0 -350 3 -350 13 0 6 9 27 20 45 l20 32 310 0 310 0 20 -33z"/>
<path d="M854 1178 c-14 -22 -10 -210 4 -225 51 -51 98 72 70 182 -11 43 -17
50 -40 53 -14 2 -30 -3 -34 -10z"/>
</g>
</svg>
