<?xml version="1.0" standalone="no"?>
<!DOCTYPE svg PUBLIC "-//W3C//DTD SVG 20010904//EN"
 "http://www.w3.org/TR/2001/REC-SVG-20010904/DTD/svg10.dtd">
<svg version="1.0" xmlns="http://www.w3.org/2000/svg"
 width="128.000000pt" height="128.000000pt" viewBox="0 0 128.000000 128.000000"
 preserveAspectRatio="xMidYMid meet">
<g transform="translate(0.000000,128.000000) scale(0.100000,-0.100000)"
fill="#000000" stroke="none">
<path d="M451 1066 c-9 -10 -9 -20 -2 -33 12 -24 107 -113 120 -113 11 0 41
28 41 39 0 14 -116 121 -132 121 -8 0 -21 -6 -27 -14z"/>
<path d="M747 973 c-18 -17 -1 -45 62 -106 74 -72 71 -70 95 -61 32 12 17 49
-47 112 -57 57 -92 74 -110 55z"/>
<path d="M273 955 c-18 -8 -42 -29 -53 -47 -19 -31 -20 -50 -20 -345 0 -304 1
-313 20 -323 33 -18 577 -9 613 9 61 31 88 136 50 191 -35 51 -467 502 -494
516 -35 18 -74 17 -116 -1z m292 -405 l59 60 24 -23 c14 -12 60 -61 103 -109
82 -91 92 -117 62 -150 -15 -17 -37 -18 -280 -18 l-263 0 0 129 0 130 42 25
42 25 76 -64 77 -64 58 59z"/>
<path d="M632 878 c-7 -7 -12 -17 -12 -23 0 -5 57 -68 128 -138 136 -135 165
-153 235 -141 49 8 104 61 113 110 17 90 -61 194 -99 133 -8 -13 -5 -23 11
-44 29 -37 28 -80 -3 -110 -49 -50 -84 -33 -230 114 -60 61 -114 111 -120 111
-6 0 -16 -5 -23 -12z"/>
<path d="M990 470 c-9 -17 -6 -25 15 -46 28 -28 52 -28 69 -2 8 13 5 22 -14
43 -28 30 -55 32 -70 5z"/>
</g>
</svg>
