<?xml version="1.0" standalone="no"?>
<!DOCTYPE svg PUBLIC "-//W3C//DTD SVG 20010904//EN"
 "http://www.w3.org/TR/2001/REC-SVG-20010904/DTD/svg10.dtd">
<svg version="1.0" xmlns="http://www.w3.org/2000/svg"
 width="128.000000pt" height="128.000000pt" viewBox="0 0 128.000000 128.000000"
 preserveAspectRatio="xMidYMid meet">
<g transform="translate(0.000000,128.000000) scale(0.100000,-0.100000)"
fill="#000000" stroke="none">
<path d="M139 1198 c-117 -147 -163 -347 -124 -533 18 -86 81 -215 134 -275
l40 -45 36 36 37 37 -40 53 c-79 107 -112 203 -112 329 0 126 33 222 112 328
l40 54 -33 34 c-18 19 -36 34 -41 34 -4 0 -26 -24 -49 -52z"/>
<path d="M1051 1216 l-33 -34 40 -54 c79 -106 112 -202 112 -328 0 -125 -33
-222 -111 -327 l-38 -51 35 -39 36 -38 39 45 c53 60 116 189 134 275 29 140
12 282 -48 410 -33 68 -109 175 -125 175 -5 0 -23 -15 -41 -34z"/>
<path d="M306 1065 c-71 -92 -105 -223 -87 -327 12 -67 55 -167 93 -212 l24
-29 38 36 39 35 -30 43 c-46 68 -58 108 -58 189 0 81 12 121 57 187 l29 43
-32 35 c-18 19 -35 35 -39 35 -4 0 -20 -16 -34 -35z"/>
<path d="M901 1063 l-30 -36 28 -41 c45 -67 56 -105 55 -191 0 -81 -14 -124
-65 -195 -17 -26 -17 -26 17 -65 l34 -40 26 30 c39 45 83 144 95 213 13 75 1
159 -35 238 -26 57 -73 124 -86 124 -5 0 -22 -16 -39 -37z"/>
<path d="M545 991 c-75 -35 -115 -102 -115 -193 1 -93 45 -161 126 -190 l34
-12 0 -273 0 -273 50 0 50 0 0 273 0 273 34 12 c19 7 46 22 61 34 84 66 86
240 4 315 -58 53 -169 69 -244 34z m162 -106 c35 -23 49 -82 29 -128 -34 -83
-150 -85 -190 -3 -17 36 -18 43 -5 80 24 69 101 93 166 51z"/>
</g>
</svg>
