<?xml version="1.0" standalone="no"?>
<!DOCTYPE svg PUBLIC "-//W3C//DTD SVG 20010904//EN"
 "http://www.w3.org/TR/2001/REC-SVG-20010904/DTD/svg10.dtd">
<svg version="1.0" xmlns="http://www.w3.org/2000/svg"
 width="128.000000pt" height="128.000000pt" viewBox="0 0 128.000000 128.000000"
 preserveAspectRatio="xMidYMid meet">
<g transform="translate(0.000000,128.000000) scale(0.100000,-0.100000)"
fill="#000000" stroke="none">
<path d="M408 1221 c-79 -25 -128 -84 -136 -161 -2 -27 0 -62 6 -79 10 -28 9
-32 -16 -45 -83 -43 -123 -140 -91 -223 7 -20 7 -29 -1 -31 -22 -8 -81 -65
-94 -91 -37 -72 -26 -149 28 -209 33 -35 33 -36 19 -71 -21 -50 -13 -131 18
-175 13 -19 42 -45 64 -58 40 -23 41 -23 435 -23 394 0 395 0 435 23 22 13 51
39 64 58 31 44 39 125 18 175 -14 35 -14 36 19 71 54 60 65 137 28 209 -13 26
-72 83 -94 91 -8 2 -8 11 -1 31 32 83 -8 180 -91 223 -25 13 -26 17 -16 45 16
45 5 123 -23 163 -13 19 -42 45 -64 58 -38 22 -51 23 -260 25 -121 1 -232 -2
-247 -6z m468 -124 c20 -17 27 -33 27 -57 0 -24 -7 -40 -27 -57 -27 -23 -31
-23 -236 -23 -205 0 -209 0 -236 23 -20 17 -27 33 -27 57 0 24 7 40 27 57 27
23 31 23 236 23 205 0 209 0 236 -23z m111 -269 c39 -36 30 -99 -18 -123 -41
-22 -617 -22 -658 0 -47 24 -56 83 -19 122 l21 23 326 0 c320 0 325 0 348 -22z
m109 -271 c31 -36 31 -71 -1 -102 -23 -24 -29 -25 -163 -25 l-138 0 -23 31
c-69 93 -193 93 -262 0 l-23 -31 -138 0 c-134 0 -140 1 -163 25 -14 13 -25 35
-25 47 0 30 26 67 54 78 11 5 209 8 439 7 l419 -2 24 -28z m-616 -317 l0 -80
-104 0 c-96 0 -107 2 -132 23 -37 33 -37 81 0 114 25 21 36 23 132 23 l104 0
0 -80z m556 57 c37 -33 37 -81 0 -114 -25 -21 -36 -23 -132 -23 l-104 0 0 80
0 80 104 0 c96 0 107 -2 132 -23z"/>
</g>
</svg>
