<?xml version="1.0" standalone="no"?>
<!DOCTYPE svg PUBLIC "-//W3C//DTD SVG 20010904//EN"
 "http://www.w3.org/TR/2001/REC-SVG-20010904/DTD/svg10.dtd">
<svg version="1.0" xmlns="http://www.w3.org/2000/svg"
 width="128.000000pt" height="128.000000pt" viewBox="0 0 128.000000 128.000000"
 preserveAspectRatio="xMidYMid meet">
<g transform="translate(0.000000,128.000000) scale(0.100000,-0.100000)"
fill="#000000" stroke="none">
<path d="M275 1188 c-2 -7 -5 -26 -7 -43 -3 -29 -4 -30 -68 -35 l-65 -5 0 -40
0 -40 68 -3 67 -3 0 -116 0 -116 110 -193 111 -193 47 -3 c46 -3 47 -4 50 -40
3 -35 2 -36 -40 -43 -106 -17 -161 -65 -137 -118 24 -52 141 -84 268 -72 117
10 181 44 181 96 0 33 -45 74 -90 83 -16 3 -43 9 -60 12 -27 5 -30 9 -30 45
l0 39 68 0 67 0 98 195 97 195 0 115 0 114 68 3 67 3 0 40 0 40 -65 5 -65 5
-5 40 -5 40 -363 3 c-285 2 -363 0 -367 -10z m623 -74 c22 -6 22 -9 22 -155
l0 -149 -79 -159 c-44 -87 -86 -161 -93 -163 -28 -11 -201 1 -210 14 -4 7 -46
79 -93 160 l-85 147 0 150 c0 134 2 150 18 154 26 7 494 8 520 1z m-183 -894
c-8 -13 -162 -13 -170 0 -4 6 27 10 85 10 58 0 89 -4 85 -10z"/>
<path d="M484 976 c-3 -8 -4 -27 -2 -43 l3 -28 148 -3 148 -3 -3 43 -3 43
-143 3 c-117 2 -143 0 -148 -12z"/>
<path d="M270 355 c-22 -23 -22 -25 -6 -50 26 -40 61 -52 86 -30 27 25 25 46
-8 78 -35 33 -42 33 -72 2z"/>
<path d="M932 364 c-40 -28 -47 -53 -21 -80 29 -30 37 -30 71 3 33 31 35 53
10 76 -23 21 -32 21 -60 1z"/>
<path d="M281 154 c-37 -31 -38 -35 -7 -71 l24 -27 36 24 c39 27 44 44 20 78
-20 29 -36 28 -73 -4z"/>
<path d="M926 158 c-24 -34 -19 -51 20 -78 l36 -24 24 27 c31 36 30 40 -7 71
-37 32 -53 33 -73 4z"/>
</g>
</svg>
