<?xml version="1.0" standalone="no"?>
<!DOCTYPE svg PUBLIC "-//W3C//DTD SVG 20010904//EN"
 "http://www.w3.org/TR/2001/REC-SVG-20010904/DTD/svg10.dtd">
<svg version="1.0" xmlns="http://www.w3.org/2000/svg"
 width="128.000000pt" height="128.000000pt" viewBox="0 0 128.000000 128.000000"
 preserveAspectRatio="xMidYMid meet">
<g transform="translate(0.000000,128.000000) scale(0.100000,-0.100000)"
fill="#000000" stroke="none">
<path d="M530 1247 c0 -28 -5 -36 -34 -50 -19 -9 -37 -25 -41 -36 -3 -12 -12
-21 -20 -21 -14 0 -38 -57 -29 -71 3 -5 18 -9 35 -9 33 0 38 -19 11 -43 -16
-15 -48 -17 -235 -17 -138 0 -217 -4 -217 -10 0 -6 80 -10 220 -10 213 0 220
-1 220 -20 0 -19 -7 -20 -220 -20 -140 0 -220 -4 -220 -10 0 -6 80 -10 220
-10 l220 0 0 -50 0 -50 -53 0 c-58 0 -77 -12 -77 -47 0 -17 -6 -23 -22 -23
-28 -1 -49 -16 -73 -54 -11 -16 -35 -35 -55 -44 -87 -36 -134 -100 -128 -174
4 -55 33 -75 128 -89 65 -10 84 -9 140 6 95 26 140 29 200 11 62 -19 128 -20
185 -4 22 6 101 11 175 12 129 1 138 2 201 32 138 65 183 137 183 289 0 81
-14 126 -48 154 -27 23 -18 31 34 31 28 0 50 5 50 10 0 6 -29 10 -67 10 -52 0
-74 5 -93 20 l-25 20 93 0 c143 0 108 17 -50 25 -176 8 -231 7 -381 0 -104 -6
-121 -5 -138 11 -30 27 -24 44 17 44 35 0 36 1 30 31 -6 31 -84 119 -106 119
-5 0 -10 16 -10 35 0 19 -4 35 -10 35 -5 0 -10 -15 -10 -33z m55 -77 c10 -11
16 -23 13 -26 -3 -3 -34 -4 -69 -2 l-64 3 23 23 c28 28 73 29 97 2z m58 -70
c5 -19 0 -20 -104 -20 -84 0 -109 3 -109 13 0 24 12 27 111 27 88 0 97 -2 102
-20z m-63 -55 c0 -11 -12 -15 -45 -15 -33 0 -45 4 -45 15 0 11 12 15 45 15 33
0 45 -4 45 -15z m28 -132 l3 -93 -76 0 -75 0 0 88 c0 49 3 92 7 96 4 4 37 6
73 4 l65 -3 3 -92z m315 52 c27 -56 22 -99 -13 -129 -17 -14 -47 -28 -68 -31
-20 -3 -47 -8 -58 -10 -12 -3 -27 2 -34 10 -7 8 -19 15 -26 15 -20 0 14 65 59
111 32 33 90 68 113 69 6 0 18 -16 27 -35z m110 18 c8 -5 -10 -33 -22 -33 -3
1 -19 12 -36 26 l-30 26 40 -7 c22 -4 43 -9 48 -12z m-248 -23 c-15 -16 -31
-20 -87 -20 -61 0 -68 2 -68 20 0 18 7 20 87 20 85 0 86 0 68 -20z m253 -123
c-3 -39 -6 -44 -48 -64 -36 -19 -61 -23 -138 -23 -70 0 -93 3 -90 13 3 6 27
15 54 18 106 13 150 58 141 142 l-6 52 45 -48 c41 -43 45 -51 42 -90z m57 113
c3 -6 -1 -18 -11 -27 -11 -11 -13 -18 -5 -21 6 -2 18 3 27 12 11 12 20 13 34
6 30 -16 31 -26 5 -38 -14 -7 -25 -19 -25 -28 0 -16 2 -16 19 0 43 39 78 -1
88 -99 5 -52 4 -55 -21 -67 -22 -9 -32 -9 -48 1 -27 17 -38 3 -13 -15 12 -10
31 -13 49 -10 27 6 28 5 22 -26 -8 -41 -7 -40 -45 -27 -22 8 -36 8 -43 1 -6
-6 2 -12 26 -16 20 -4 36 -12 36 -18 0 -16 -61 -78 -75 -78 -17 0 -47 36 -43
52 1 7 -2 15 -7 17 -20 9 -17 -32 5 -61 l21 -29 -48 -21 c-26 -12 -72 -24
-101 -26 -51 -4 -54 -3 -86 34 -19 22 -37 36 -42 31 -4 -4 2 -16 14 -27 31
-29 27 -37 -13 -32 -20 2 -56 -1 -82 -7 -51 -13 -63 -6 -63 38 0 21 3 23 35
18 19 -3 35 -2 35 3 0 14 -39 22 -67 15 -24 -6 -25 -9 -19 -51 6 -45 5 -45
-21 -42 -20 2 -29 10 -35 34 -8 32 -44 72 -54 61 -4 -3 3 -18 15 -33 11 -15
21 -36 21 -46 0 -18 -4 -19 -37 -13 -52 9 -54 12 -47 51 4 20 2 34 -4 34 -5 0
-12 -13 -15 -30 -6 -28 -9 -30 -52 -30 -33 0 -45 4 -45 15 0 19 36 55 55 55 8
0 15 5 15 11 0 6 -9 8 -22 4 -13 -4 -25 -8 -28 -8 -3 -1 -18 7 -33 17 -23 15
-32 17 -52 8 -14 -7 -25 -19 -25 -27 0 -14 3 -13 26 1 22 15 27 15 40 2 25
-25 9 -84 -27 -97 -34 -12 -39 1 -12 31 9 10 13 21 9 26 -9 9 -46 -35 -46 -54
0 -8 -2 -14 -4 -14 -2 0 -11 -3 -20 -6 -12 -5 -16 0 -16 20 0 61 -60 116 -108
99 -28 -10 -62 -45 -62 -65 0 -12 -4 -16 -11 -12 -17 10 -5 88 20 123 19 26
26 29 42 21 10 -6 19 -17 19 -25 0 -8 5 -15 10 -15 15 0 12 27 -5 44 -21 21
-20 24 25 42 24 10 48 29 61 50 23 38 62 53 90 35 10 -6 26 -11 34 -11 8 0 15
-9 15 -21 0 -11 -4 -18 -9 -14 -17 10 -61 -18 -68 -43 -4 -18 -1 -29 12 -39
24 -17 28 -17 59 8 21 17 26 29 26 65 0 37 3 44 20 44 15 0 20 -7 20 -25 0
-27 25 -45 64 -45 41 0 40 18 -1 22 -31 2 -39 7 -41 26 -3 20 0 22 45 22 44 0
49 -3 63 -33 11 -23 22 -32 40 -32 18 0 29 9 40 32 12 27 21 33 48 33 21 0 32
-5 32 -14 0 -19 37 -63 46 -54 4 5 0 16 -9 26 -35 38 -17 62 47 62 29 0 35 -5
49 -40 8 -22 20 -40 26 -40 14 0 14 2 -3 36 -8 15 -13 31 -10 36 8 12 58 10
72 -4 15 -15 15 -61 0 -76 -6 -6 -8 -15 -4 -19 11 -11 36 27 36 55 0 13 -4 31
-9 41 -8 14 -2 19 35 33 l45 16 10 -25 c13 -34 24 -22 13 14 -4 15 -6 47 -5
69 2 24 -4 55 -14 74 -13 24 -14 35 -4 46 13 16 45 19 54 4z m-383 -80 c-22
-41 -32 -50 -54 -50 -27 0 -28 2 -28 50 l0 50 55 0 55 0 -28 -50z m28 -105 l0
-35 -202 2 c-186 3 -203 4 -206 21 -9 46 -4 47 208 47 l200 0 0 -35z m-112
-71 c-5 -27 -37 -42 -48 -24 -18 27 -11 40 21 40 23 0 30 -4 27 -16z m-261
-51 c4 -12 -23 -43 -38 -43 -20 0 -22 33 -4 47 21 14 37 13 42 -4z m-172 -158
c25 -24 33 -69 15 -80 -6 -4 -35 -1 -65 5 -46 10 -55 15 -55 33 0 27 9 40 35
55 30 17 43 15 70 -13z"/>
<path d="M1133 779 c15 -11 27 -27 27 -35 0 -8 5 -14 10 -14 17 0 11 36 -8 53
-10 10 -27 17 -38 17 -16 -1 -15 -4 9 -21z"/>
<path d="M1060 665 c0 -19 5 -35 10 -35 6 0 10 16 10 35 0 19 -4 35 -10 35 -5
0 -10 -16 -10 -35z"/>
<path d="M788 611 c-26 -13 -33 -22 -33 -46 0 -27 3 -30 35 -33 27 -2 41 3 59
22 45 48 1 89 -61 57z m62 -21 c0 -17 -32 -40 -56 -40 -19 0 -25 5 -22 17 6
31 78 52 78 23z"/>
<path d="M414 585 c0 -20 4 -34 11 -32 5 2 10 16 10 32 0 16 -5 30 -10 32 -7
2 -11 -12 -11 -32z"/>
<path d="M205 595 c11 -8 30 -24 43 -37 17 -17 22 -19 22 -7 0 21 -42 59 -66
59 -18 -1 -18 -1 1 -15z"/>
<path d="M500 590 c-18 -18 -27 -40 -15 -40 11 0 53 50 45 55 -5 3 -18 -3 -30
-15z"/>
<path d="M587 582 c-25 -27 -21 -35 8 -16 17 11 36 14 55 10 31 -6 42 7 14 18
-29 11 -61 6 -77 -12z"/>
<path d="M902 528 c-30 -30 -1 -68 51 -68 21 0 57 27 57 43 0 31 -83 50 -108
25z m76 -25 c-4 -20 -45 -30 -60 -15 -16 16 1 32 33 32 24 0 30 -4 27 -17z"/>
<path d="M0 880 c0 -6 40 -10 100 -10 60 0 100 4 100 10 0 6 -40 10 -100 10
-60 0 -100 -4 -100 -10z"/>
<path d="M245 880 c-4 -6 13 -10 44 -10 28 0 51 5 51 10 0 6 -20 10 -44 10
-25 0 -48 -4 -51 -10z"/>
<path d="M45 820 c3 -6 48 -10 101 -10 56 0 94 4 94 10 0 6 -40 10 -101 10
-64 0 -98 -4 -94 -10z"/>
<path d="M1196 471 c-16 -17 -26 -34 -22 -38 9 -9 59 42 55 56 -3 7 -17 -1
-33 -18z"/>
<path d="M1075 388 c-40 -15 -70 -18 -147 -15 -102 4 -132 -7 -52 -19 92 -13
264 17 264 47 0 11 -4 11 -65 -13z"/>
<path d="M1145 355 c-16 -14 -45 -30 -62 -36 -37 -12 -46 -34 -10 -24 33 10
110 58 115 73 6 19 -10 14 -43 -13z"/>
<path d="M330 350 c-66 -23 -96 -24 -178 -6 -68 14 -97 3 -35 -13 91 -24 138
-24 218 0 75 22 79 22 154 7 97 -21 117 -10 26 14 -85 22 -114 21 -185 -2z"/>
<path d="M673 357 c-33 -11 -45 -27 -19 -27 23 0 76 22 76 31 0 11 -14 10 -57
-4z"/>
<path d="M680 293 c-30 -8 -59 -19 -64 -24 -14 -13 7 -11 78 7 48 13 87 15
183 10 136 -7 178 8 50 17 -119 10 -185 7 -247 -10z"/>
</g>
</svg>
