<?xml version="1.0" standalone="no"?>
<!DOCTYPE svg PUBLIC "-//W3C//DTD SVG 20010904//EN"
 "http://www.w3.org/TR/2001/REC-SVG-20010904/DTD/svg10.dtd">
<svg version="1.0" xmlns="http://www.w3.org/2000/svg"
 width="128.000000pt" height="128.000000pt" viewBox="0 0 128.000000 128.000000"
 preserveAspectRatio="xMidYMid meet">
<g transform="translate(0.000000,128.000000) scale(0.100000,-0.100000)"
fill="#000000" stroke="none">
<path d="M95 1228 c-5 -45 -45 -559 -45 -580 0 -5 149 -8 330 -8 l330 0 -5 23
c-8 38 -105 597 -105 607 0 6 -95 10 -249 10 l-250 0 -6 -52z m504 -245 c23
-137 45 -258 48 -270 l5 -23 -277 0 -277 0 6 28 c3 15 13 136 22 270 l18 242
205 0 206 0 44 -247z"/>
<path d="M650 1270 c0 -11 97 -571 105 -607 5 -23 6 -23 216 -23 l210 0 -7 48
c-4 26 -26 169 -49 317 l-41 270 -217 3 c-144 1 -217 -1 -217 -8z m394 -67 c9
-44 76 -484 76 -499 0 -11 -31 -14 -159 -14 l-159 0 -6 28 c-15 70 -86 483
-86 497 0 13 23 15 164 15 l164 0 6 -27z"/>
<path d="M46 578 c-3 -7 -12 -114 -20 -238 -9 -124 -19 -251 -23 -282 l-6 -58
412 0 c226 0 411 3 411 8 0 4 -23 133 -50 287 -27 154 -50 283 -50 288 0 4
-151 7 -335 7 -260 0 -336 -3 -339 -12z m634 -48 c0 -6 18 -112 40 -235 22
-123 40 -229 40 -235 0 -7 -117 -10 -354 -10 l-354 0 4 43 c8 79 34 419 34
433 0 12 48 14 295 14 196 0 295 -3 295 -10z"/>
<path d="M770 585 c0 -3 23 -133 50 -289 28 -156 50 -287 50 -290 0 -3 92 -6
205 -6 l206 0 -6 33 c-7 40 -85 548 -85 553 0 2 -94 4 -210 4 -116 0 -210 -2
-210 -5z m380 -56 c0 -6 16 -112 35 -236 19 -124 35 -230 35 -234 0 -5 -70 -9
-155 -9 -100 0 -155 4 -155 10 0 6 -18 112 -40 235 -22 123 -40 229 -40 235 0
6 57 10 160 10 108 0 160 -4 160 -11z"/>
</g>
</svg>
