<?xml version="1.0" standalone="no"?>
<!DOCTYPE svg PUBLIC "-//W3C//DTD SVG 20010904//EN"
 "http://www.w3.org/TR/2001/REC-SVG-20010904/DTD/svg10.dtd">
<svg version="1.0" xmlns="http://www.w3.org/2000/svg"
 width="128.000000pt" height="128.000000pt" viewBox="0 0 128.000000 128.000000"
 preserveAspectRatio="xMidYMid meet">
<g transform="translate(0.000000,128.000000) scale(0.100000,-0.100000)"
fill="#000000" stroke="none">
<path d="M574 1235 c-142 -31 -193 -96 -113 -144 l30 -18 -36 -22 c-21 -12
-42 -35 -51 -56 -12 -29 -19 -35 -44 -35 -43 0 -134 -37 -164 -67 -47 -47 -29
-107 46 -153 68 -42 66 -67 -9 -111 -138 -82 -139 -198 -3 -281 l64 -38 192 0
c285 0 506 35 611 96 76 44 83 88 22 144 l-42 38 31 16 c35 18 72 62 72 85 0
42 -80 90 -200 121 -53 13 -68 22 -83 47 l-18 31 46 27 c54 31 72 62 56 94
-13 24 -100 71 -131 71 -17 0 -20 6 -20 46 0 60 -13 82 -63 105 -49 22 -107
23 -193 4z m199 -43 c24 -21 23 -78 -2 -92 -11 -5 -67 -10 -126 -10 -143 0
-209 27 -170 70 46 51 250 73 298 32z m125 -162 c56 -25 63 -46 27 -77 -31
-28 -47 -28 -285 -4 -188 19 -190 19 -190 40 0 37 28 46 164 52 237 10 239 10
284 -11z m-424 -119 c44 -12 125 -22 211 -26 131 -6 175 -15 175 -34 0 -4 -95
-11 -210 -14 -224 -7 -237 -10 -327 -68 -30 -19 -34 -19 -62 -4 -48 25 -65 72
-38 109 15 21 109 55 151 56 17 0 62 -9 100 -19z m139 12 c-13 -2 -33 -2 -45
0 -13 2 -3 4 22 4 25 0 35 -2 23 -4z m192 -122 l40 -7 -70 -23 c-56 -18 -102
-24 -227 -28 -86 -3 -164 -3 -174 1 -16 6 -14 10 14 28 18 11 56 24 85 28 69
10 282 11 332 1z m231 -41 c58 -20 104 -54 104 -76 0 -21 -58 -63 -97 -70 -22
-4 -64 -1 -107 9 -129 30 -209 39 -405 46 -130 4 -196 10 -198 17 -6 17 31 24
127 24 47 0 136 5 198 10 95 8 124 14 175 39 71 35 108 35 203 1z m-208 -146
c63 -10 99 -21 94 -26 -14 -14 -293 -31 -386 -24 -80 6 -151 31 -178 63 -12
15 4 15 177 10 109 -3 234 -12 293 -23z m-499 -8 c13 -13 46 -35 74 -48 49
-22 62 -23 242 -21 105 1 230 8 280 16 78 12 95 12 125 0 47 -19 70 -42 70
-69 0 -63 -207 -123 -500 -146 -241 -18 -385 10 -431 86 -38 63 -16 129 59
177 25 16 49 29 52 29 4 0 17 -11 29 -24z"/>
</g>
</svg>
