<?xml version="1.0" standalone="no"?>
<!DOCTYPE svg PUBLIC "-//W3C//DTD SVG 20010904//EN"
 "http://www.w3.org/TR/2001/REC-SVG-20010904/DTD/svg10.dtd">
<svg version="1.0" xmlns="http://www.w3.org/2000/svg"
 width="128.000000pt" height="128.000000pt" viewBox="0 0 128.000000 128.000000"
 preserveAspectRatio="xMidYMid meet">
<g transform="translate(0.000000,128.000000) scale(0.100000,-0.100000)"
fill="#000000" stroke="none">
<path d="M593 1061 c-66 -17 -119 -75 -138 -153 l-7 -28 56 0 c44 0 56 3 56
15 0 27 47 65 80 65 70 0 105 -86 55 -135 -13 -14 -35 -25 -49 -25 -40 0 -56
-25 -56 -88 l0 -57 -227 -170 c-124 -93 -232 -176 -240 -183 -20 -21 -16 -59
9 -76 20 -14 85 -16 508 -16 423 0 488 2 508 16 25 17 29 55 9 76 -8 7 -116
90 -240 183 -249 186 -259 199 -191 231 44 21 79 66 93 122 35 130 -92 256
-226 223z m204 -618 l156 -118 -156 -3 c-86 -1 -228 -1 -314 0 l-156 3 154
117 c85 64 155 117 157 117 1 1 73 -52 159 -116z"/>
</g>
</svg>
