<?xml version="1.0" standalone="no"?>
<!DOCTYPE svg PUBLIC "-//W3C//DTD SVG 20010904//EN"
 "http://www.w3.org/TR/2001/REC-SVG-20010904/DTD/svg10.dtd">
<svg version="1.0" xmlns="http://www.w3.org/2000/svg"
 width="128.000000pt" height="128.000000pt" viewBox="0 0 128.000000 128.000000"
 preserveAspectRatio="xMidYMid meet">
<g transform="translate(0.000000,128.000000) scale(0.100000,-0.100000)"
fill="#000000" stroke="none">
<path d="M584 1107 c-12 -7 -115 -97 -228 -201 -157 -144 -206 -195 -206 -213
0 -31 27 -40 61 -21 l28 16 3 -193 c3 -215 6 -223 78 -272 32 -23 39 -23 320
-23 281 0 288 0 320 23 72 49 75 57 78 273 l3 194 22 -15 c12 -8 29 -15 39
-15 22 0 39 31 28 51 -11 20 -406 381 -433 396 -12 7 -38 12 -57 12 -19 0 -45
-5 -56 -12z m229 -199 l145 -133 1 -222 c1 -122 -2 -229 -5 -238 -16 -40 -52
-45 -314 -45 -262 0 -298 5 -314 45 -3 9 -6 115 -6 235 l0 219 147 135 c113
105 153 136 173 136 21 0 61 -31 173 -132z"/>
<path d="M475 769 c-6 -17 5 -33 49 -78 31 -31 56 -60 56 -64 0 -4 -20 -7 -44
-7 -36 0 -46 -4 -51 -20 -11 -33 12 -50 66 -50 37 0 49 -4 49 -15 0 -11 -13
-15 -54 -15 -46 0 -56 -3 -61 -20 -10 -33 12 -50 66 -50 l48 0 3 -36 c6 -72
70 -72 76 0 l3 36 49 0 c40 0 51 4 60 21 18 32 -4 49 -61 49 -37 0 -49 4 -49
15 0 11 12 15 50 15 40 0 51 4 60 21 16 30 -4 49 -51 49 -22 0 -39 3 -39 7 0
4 25 33 56 64 44 45 55 61 49 78 -12 38 -54 27 -112 -31 l-53 -52 -53 52 c-58
58 -100 69 -112 31z"/>
</g>
</svg>
