<?xml version="1.0" standalone="no"?>
<!DOCTYPE svg PUBLIC "-//W3C//DTD SVG 20010904//EN"
 "http://www.w3.org/TR/2001/REC-SVG-20010904/DTD/svg10.dtd">
<svg version="1.0" xmlns="http://www.w3.org/2000/svg"
 width="128.000000pt" height="128.000000pt" viewBox="0 0 128.000000 128.000000"
 preserveAspectRatio="xMidYMid meet">
<g transform="translate(0.000000,128.000000) scale(0.100000,-0.100000)"
fill="#000000" stroke="none">
<path d="M177 1102 c-15 -17 -17 -61 -17 -425 l0 -407 -25 0 c-24 0 -25 -3
-25 -55 l0 -55 345 0 345 0 0 55 c0 52 -1 55 -25 55 l-25 0 0 130 0 130 49 0
49 0 3 -127 c5 -147 18 -182 85 -221 73 -42 159 -19 212 58 21 32 22 39 22
309 l0 276 -138 138 -138 137 -37 -38 -37 -38 45 -44 45 -44 0 -108 c0 -99 2
-108 22 -122 14 -10 44 -16 80 -16 l58 0 0 -188 c0 -202 -7 -232 -53 -232 -48
0 -52 10 -57 164 -5 143 -6 146 -33 173 -24 24 -36 28 -102 31 l-75 4 0 217
c0 180 -3 220 -16 239 -15 22 -18 22 -278 22 -242 0 -264 -1 -279 -18z m463
-252 l0 -160 -80 0 -80 0 0 107 0 108 -96 -145 c-53 -80 -100 -149 -105 -155
-5 -5 -9 79 -9 198 l0 207 185 0 185 0 0 -160z m0 -375 l0 -205 -185 0 -185 0
0 160 0 161 78 -3 77 -3 5 -99 5 -99 98 146 c53 81 99 147 102 147 3 0 5 -92
5 -205z"/>
</g>
</svg>
