<?xml version="1.0" standalone="no"?>
<!DOCTYPE svg PUBLIC "-//W3C//DTD SVG 20010904//EN"
 "http://www.w3.org/TR/2001/REC-SVG-20010904/DTD/svg10.dtd">
<svg version="1.0" xmlns="http://www.w3.org/2000/svg"
 width="128.000000pt" height="128.000000pt" viewBox="0 0 128.000000 128.000000"
 preserveAspectRatio="xMidYMid meet">
<g transform="translate(0.000000,128.000000) scale(0.100000,-0.100000)"
fill="#000000" stroke="none">
<path d="M185 1090 c-4 -6 5 -10 19 -10 25 0 26 -2 26 -70 0 -70 0 -71 35 -91
l35 -21 0 -154 c0 -134 -2 -154 -16 -154 -9 0 -21 -13 -27 -30 -7 -18 -19 -30
-29 -30 -21 0 -31 -32 -26 -81 2 -26 8 -35 26 -37 13 -2 22 -10 22 -21 0 -10
6 -23 13 -29 23 -19 356 -27 617 -15 l165 8 3 28 c3 21 9 27 28 27 24 0 25 2
22 58 -3 50 -6 57 -25 60 -14 2 -23 10 -23 21 0 24 -20 41 -47 41 l-23 0 0
154 0 154 35 22 c35 21 35 23 35 91 0 67 1 69 26 69 14 0 23 4 19 10 -8 13
-415 14 -415 1 0 -5 10 -11 23 -13 20 -3 22 -9 25 -71 3 -66 4 -69 37 -89 l35
-20 0 -155 0 -156 -47 8 c-58 9 -128 9 -210 0 l-63 -7 0 155 0 155 35 20 c33
20 34 23 37 89 3 62 5 68 26 71 12 2 22 8 22 13 0 13 -407 12 -415 -1z m343
-76 c3 -60 3 -60 -35 -85 -31 -20 -39 -31 -41 -62 l-3 -37 -60 0 -59 0 0 40
c0 34 -4 42 -32 56 -18 9 -36 22 -40 28 -10 14 -10 110 -1 120 4 3 66 5 137 4
l131 -3 3 -61z m500 17 c5 -65 -3 -85 -43 -104 -31 -15 -35 -21 -35 -57 l0
-40 -59 0 -60 0 -3 37 c-2 31 -10 42 -40 62 -37 23 -38 27 -38 81 0 31 3 60 7
64 4 3 66 5 137 4 l131 -3 3 -44z m-578 -251 l0 -30 -60 0 -60 0 0 30 0 30 60
0 60 0 0 -30z m500 0 l0 -30 -60 0 -60 0 0 30 0 30 60 0 60 0 0 -30z m-500
-80 l0 -30 -60 0 -60 0 0 30 0 30 60 0 60 0 0 -30z m500 0 l0 -30 -60 0 -60 0
0 30 0 30 60 0 60 0 0 -30z m-500 -80 l0 -30 -60 0 -60 0 0 30 0 30 60 0 60 0
0 -30z m500 0 l0 -30 -60 0 -60 0 0 30 0 30 60 0 60 0 0 -30z m-223 -49 c130
-59 76 -221 -74 -221 -122 0 -192 110 -120 188 48 53 122 65 194 33z m-207 -7
c0 -3 -9 -17 -20 -31 -26 -33 -26 -89 0 -130 l20 -33 -120 0 -120 0 0 100 0
100 120 0 c66 0 120 -3 120 -6z m505 -94 l0 -95 -123 -3 -123 -3 23 31 c14 20
23 45 23 70 0 25 -9 50 -23 70 l-23 31 123 -3 123 -3 0 -95z m-775 0 c0 -22
-4 -40 -10 -40 -5 0 -10 18 -10 40 0 22 5 40 10 40 6 0 10 -18 10 -40z m828
-3 c2 -28 -1 -37 -12 -37 -12 0 -16 11 -16 41 0 52 24 48 28 -4z"/>
<path d="M590 564 c-46 -20 -70 -51 -70 -94 0 -65 53 -110 130 -110 147 0 190
159 57 209 -38 15 -75 13 -117 -5z m120 -19 c60 -31 68 -98 18 -140 -28 -24
-38 -27 -87 -23 -44 4 -59 10 -78 32 -29 34 -29 65 -2 100 37 47 96 59 149 31z"/>
<path d="M640 510 c0 -11 -4 -20 -10 -20 -18 0 -11 -42 9 -47 10 -2 24 -16 31
-29 17 -30 35 -32 25 -1 -4 12 -6 32 -6 43 0 12 -6 27 -14 34 -8 7 -15 19 -15
26 0 8 -4 14 -10 14 -5 0 -10 -9 -10 -20z m20 -40 c0 -5 -4 -10 -10 -10 -5 0
-10 5 -10 10 0 6 5 10 10 10 6 0 10 -4 10 -10z"/>
</g>
</svg>
