<?xml version="1.0" standalone="no"?>
<!DOCTYPE svg PUBLIC "-//W3C//DTD SVG 20010904//EN"
 "http://www.w3.org/TR/2001/REC-SVG-20010904/DTD/svg10.dtd">
<svg version="1.0" xmlns="http://www.w3.org/2000/svg"
 width="128.000000pt" height="128.000000pt" viewBox="0 0 128.000000 128.000000"
 preserveAspectRatio="xMidYMid meet">
<g transform="translate(0.000000,128.000000) scale(0.100000,-0.100000)"
fill="#000000" stroke="none">
<path d="M491 1269 c-46 -14 -129 -100 -174 -181 -20 -36 -37 -68 -37 -71 0
-3 32 11 71 31 70 36 74 37 188 37 111 0 121 -2 239 -43 102 -36 130 -42 165
-37 60 10 90 29 130 77 31 38 97 157 97 174 0 3 -16 -8 -35 -25 -40 -35 -51
-38 -155 -44 -101 -7 -165 5 -257 47 -86 38 -176 52 -232 35z"/>
<path d="M180 498 l0 -412 -42 -43 -42 -43 179 0 179 0 -47 48 -47 48 0 407 0
407 -90 0 -90 0 0 -412z"/>
</g>
</svg>
