<?xml version="1.0" standalone="no"?>
<!DOCTYPE svg PUBLIC "-//W3C//DTD SVG 20010904//EN"
 "http://www.w3.org/TR/2001/REC-SVG-20010904/DTD/svg10.dtd">
<svg version="1.0" xmlns="http://www.w3.org/2000/svg"
 width="128.000000pt" height="128.000000pt" viewBox="0 0 128.000000 128.000000"
 preserveAspectRatio="xMidYMid meet">
<g transform="translate(0.000000,128.000000) scale(0.100000,-0.100000)"
fill="#000000" stroke="none">
<path d="M475 1164 c-209 -30 -380 -106 -446 -197 -29 -40 -29 -41 -29 -189 0
-128 3 -154 19 -187 40 -77 142 -141 296 -186 356 -103 847 -6 946 186 16 33
19 59 19 184 0 146 0 147 -30 189 -50 74 -189 148 -340 181 -73 16 -367 29
-435 19z m362 -49 c179 -29 329 -103 377 -185 l21 -35 -52 38 c-257 188 -823
189 -1084 2 -58 -41 -62 -34 -14 22 42 50 96 82 194 117 150 54 376 70 558 41z
m-7 -80 c182 -27 317 -87 381 -169 18 -23 19 -31 9 -55 -49 -119 -302 -211
-580 -211 -183 0 -410 50 -410 90 0 26 38 36 54 14 18 -24 46 -11 46 20 0 33
38 56 52 32 5 -9 18 -16 28 -16 15 0 20 7 20 28 0 21 7 32 25 40 33 15 35 15
35 -2 0 -19 25 -27 39 -13 6 6 11 20 11 30 0 15 4 17 18 11 31 -14 122 -16
153 -4 32 14 45 45 35 84 -9 38 -81 59 -152 44 -37 -8 -48 -16 -59 -40 -11
-27 -35 -41 -180 -108 -93 -43 -174 -85 -181 -95 -12 -16 -18 -12 -68 38 -31
31 -56 64 -56 75 0 11 23 40 50 66 134 126 442 185 730 141z"/>
</g>
</svg>
