<?xml version="1.0" standalone="no"?>
<!DOCTYPE svg PUBLIC "-//W3C//DTD SVG 20010904//EN"
 "http://www.w3.org/TR/2001/REC-SVG-20010904/DTD/svg10.dtd">
<svg version="1.0" xmlns="http://www.w3.org/2000/svg"
 width="128.000000pt" height="128.000000pt" viewBox="0 0 128.000000 128.000000"
 preserveAspectRatio="xMidYMid meet">
<g transform="translate(0.000000,128.000000) scale(0.100000,-0.100000)"
fill="#000000" stroke="none">
<path d="M70 1220 c0 -5 11 -45 25 -89 22 -69 29 -80 47 -78 18 2 25 -10 49
-83 16 -47 31 -91 34 -98 3 -10 10 -10 24 -2 18 9 23 0 62 -120 39 -118 45
-129 64 -124 20 5 27 -9 79 -148 32 -84 61 -156 65 -160 3 -3 73 47 155 113
142 114 150 119 167 103 16 -14 19 -32 19 -116 l0 -98 65 0 65 0 0 100 0 100
-62 0 -63 1 43 37 c38 34 41 39 27 53 -14 14 -1 26 120 123 74 59 135 111 135
115 0 4 -90 29 -200 56 -194 46 -200 48 -184 66 10 11 15 21 13 23 -2 2 -75
19 -162 37 -146 30 -156 34 -142 49 14 16 11 18 -47 30 -164 32 -199 42 -188
55 9 10 -10 18 -87 35 -54 12 -104 23 -110 25 -7 3 -13 0 -13 -5z"/>
</g>
</svg>
