<?xml version="1.0" standalone="no"?>
<!DOCTYPE svg PUBLIC "-//W3C//DTD SVG 20010904//EN"
 "http://www.w3.org/TR/2001/REC-SVG-20010904/DTD/svg10.dtd">
<svg version="1.0" xmlns="http://www.w3.org/2000/svg"
 width="128.000000pt" height="128.000000pt" viewBox="0 0 128.000000 128.000000"
 preserveAspectRatio="xMidYMid meet">
<g transform="translate(0.000000,128.000000) scale(0.100000,-0.100000)"
fill="#000000" stroke="none">
<path d="M550 1131 c0 -146 -1 -150 -24 -168 -43 -34 -66 -83 -66 -141 0 -60
15 -94 59 -136 l31 -30 0 -235 0 -235 45 44 45 44 45 -44 45 -44 0 238 0 238
26 21 c33 26 64 91 64 137 0 46 -31 111 -64 137 l-26 21 0 151 0 151 -90 0
-90 0 0 -149z"/>
<path d="M189 1223 c-182 -138 -240 -388 -138 -592 38 -75 105 -151 169 -190
l50 -31 0 55 c0 52 -1 55 -55 106 -80 75 -108 140 -113 259 -5 131 17 191 105
278 60 61 63 66 63 113 0 27 -4 49 -9 49 -6 0 -38 -21 -72 -47z"/>
<path d="M1000 1219 c0 -48 2 -52 55 -100 65 -60 92 -102 111 -172 20 -74 17
-144 -7 -223 -18 -59 -30 -77 -90 -137 -67 -67 -69 -71 -69 -118 0 -61 9 -62
82 -9 138 99 217 290 189 456 -22 128 -87 236 -184 310 -77 58 -87 57 -87 -7z"/>
<path d="M298 1067 c-106 -81 -142 -213 -92 -333 18 -43 87 -120 126 -140 l28
-15 0 54 c0 42 -5 58 -21 73 -31 27 -59 93 -59 139 0 46 28 112 59 139 16 15
21 31 21 68 0 26 -4 48 -9 48 -5 0 -29 -15 -53 -33z"/>
<path d="M910 1059 c0 -33 7 -49 39 -85 73 -83 73 -169 0 -249 -33 -36 -39
-49 -39 -88 0 -40 2 -45 20 -40 32 8 109 82 133 127 17 32 22 58 22 121 0 70
-4 87 -30 135 -20 37 -45 65 -79 88 -26 17 -52 32 -57 32 -5 0 -9 -18 -9 -41z"/>
<path d="M450 85 l-85 -85 93 0 92 0 0 85 c0 47 -3 85 -8 85 -4 0 -45 -38 -92
-85z"/>
<path d="M730 85 l0 -85 92 0 93 0 -85 85 c-47 47 -88 85 -92 85 -5 0 -8 -38
-8 -85z"/>
</g>
</svg>
