<?xml version="1.0" standalone="no"?>
<!DOCTYPE svg PUBLIC "-//W3C//DTD SVG 20010904//EN"
 "http://www.w3.org/TR/2001/REC-SVG-20010904/DTD/svg10.dtd">
<svg version="1.0" xmlns="http://www.w3.org/2000/svg"
 width="128.000000pt" height="128.000000pt" viewBox="0 0 128.000000 128.000000"
 preserveAspectRatio="xMidYMid meet">
<g transform="translate(0.000000,128.000000) scale(0.100000,-0.100000)"
fill="#000000" stroke="none">
<path d="M516 1204 c-13 -12 -16 -38 -16 -119 l0 -103 -138 -4 c-131 -3 -139
-5 -192 -34 -41 -23 -63 -45 -87 -83 -39 -64 -48 -131 -41 -310 4 -101 9 -134
25 -166 36 -70 101 -121 176 -139 30 -7 38 -40 12 -50 -19 -7 -21 -106 -3
-124 17 -17 239 -17 256 0 17 17 15 103 -3 122 -8 8 -15 22 -15 30 0 14 21 16
155 16 145 0 155 -1 155 -19 0 -10 -7 -24 -15 -31 -20 -17 -20 -94 1 -114 23
-23 235 -23 258 0 24 23 21 96 -4 119 -28 25 -25 43 8 51 80 19 163 94 182
163 14 51 13 345 -2 393 -15 51 -82 126 -133 149 -33 15 -66 19 -192 19 l-153
0 0 55 0 55 34 0 c26 0 36 -5 41 -20 3 -10 20 -31 36 -45 72 -60 189 -4 189
90 0 94 -117 150 -189 90 -16 -14 -33 -35 -36 -45 -5 -15 -15 -20 -41 -20 -31
0 -34 3 -34 28 0 50 -25 62 -128 62 -69 0 -94 -4 -106 -16z m189 -134 l0 -95
-77 -3 -78 -3 0 101 0 101 78 -3 77 -3 0 -95z m284 74 c27 -35 26 -59 -4 -89
-46 -47 -115 -19 -115 47 0 67 78 94 119 42z m-549 -461 l0 -248 -65 0 -65 0
0 248 0 247 65 0 65 0 0 -247z m360 -73 l0 -320 -160 0 -160 0 0 313 c0 173 3
317 7 320 3 4 75 7 160 7 l153 0 0 -320z m170 73 l0 -248 -65 0 -65 0 0 241
c0 132 3 244 7 247 3 4 33 7 65 7 l58 0 0 -247z m139 208 c16 -12 40 -38 53
-59 21 -34 23 -50 26 -202 4 -185 -3 -222 -51 -277 -29 -33 -80 -63 -107 -63
-7 0 -10 106 -10 319 l0 320 30 -9 c16 -5 43 -18 59 -29z m-839 -286 c0 -210
-3 -315 -10 -315 -21 0 -85 31 -109 53 -51 47 -61 89 -61 263 0 150 1 163 25
210 26 53 91 104 132 104 l23 0 0 -315z m150 -225 c12 -12 20 -33 20 -55 l0
-35 -65 0 -65 0 0 30 c0 36 39 80 70 80 11 0 29 -9 40 -20z m528 4 c20 -13 22
-24 22 -95 l0 -79 -62 0 -63 0 3 80 c3 68 7 82 25 95 27 19 47 19 75 -1z
m-508 -159 c0 -12 -14 -15 -65 -15 -51 0 -65 3 -65 15 0 12 14 15 65 15 51 0
65 -3 65 -15z m30 -90 c0 -25 0 -25 -95 -25 -95 0 -95 0 -95 25 0 25 0 25 95
25 95 0 95 0 95 -25z m530 0 c0 -25 0 -25 -95 -25 -95 0 -95 0 -95 25 0 25 0
25 95 25 95 0 95 0 95 -25z"/>
<path d="M512 803 c3 -16 17 -18 128 -18 111 0 125 2 128 18 3 15 -8 17 -128
17 -120 0 -131 -2 -128 -17z"/>
<path d="M513 725 c-11 -30 12 -36 133 -33 111 3 119 4 119 23 0 19 -8 20
-123 23 -105 2 -123 0 -129 -13z"/>
</g>
</svg>
