<?xml version="1.0" standalone="no"?>
<!DOCTYPE svg PUBLIC "-//W3C//DTD SVG 20010904//EN"
 "http://www.w3.org/TR/2001/REC-SVG-20010904/DTD/svg10.dtd">
<svg version="1.0" xmlns="http://www.w3.org/2000/svg"
 width="128.000000pt" height="128.000000pt" viewBox="0 0 128.000000 128.000000"
 preserveAspectRatio="xMidYMid meet">
<g transform="translate(0.000000,128.000000) scale(0.100000,-0.100000)"
fill="#000000" stroke="none">
<path d="M561 1042 c-41 -125 -78 -231 -82 -236 -5 -5 -113 -44 -241 -87 -201
-67 -230 -79 -208 -87 14 -5 117 -40 230 -77 113 -37 210 -72 216 -79 6 -6 44
-113 85 -238 41 -125 76 -228 79 -228 3 0 38 103 79 228 41 125 79 232 85 238
6 6 113 44 238 85 125 41 228 76 228 79 0 3 -102 39 -226 80 -125 41 -232 80
-239 85 -6 6 -45 112 -86 237 -41 126 -76 228 -79 228 -3 0 -38 -102 -79 -228z
m179 -287 c0 -9 -80 -55 -95 -55 -3 0 -5 80 -4 178 l1 177 49 -145 c27 -79 49
-149 49 -155z m-182 -60 c12 -25 22 -48 22 -50 0 -3 -80 -5 -177 -4 l-178 1
140 48 c77 27 147 49 156 49 8 1 24 -18 37 -44z m352 -106 c-79 -27 -149 -49
-155 -49 -9 0 -55 80 -55 95 0 3 80 5 178 4 l177 -1 -145 -49z m-271 -186 l-1
-178 -49 145 c-27 79 -49 149 -49 155 0 10 73 53 93 54 4 1 7 -79 6 -176z"/>
<path d="M270 1006 c0 -4 81 -179 85 -184 2 -2 21 1 42 7 35 10 41 16 52 52 7
22 11 42 9 44 -5 4 -180 85 -184 85 -2 0 -4 -2 -4 -4z"/>
<path d="M915 969 c-44 -21 -84 -40 -88 -41 -5 -2 -6 -21 -2 -42 6 -31 14 -41
41 -52 18 -8 39 -14 47 -14 10 0 61 97 95 182 6 13 -9 8 -93 -33z"/>
<path d="M312 368 c-23 -50 -40 -93 -39 -95 3 -3 175 74 185 82 2 2 0 20 -4
40 -5 30 -13 40 -40 51 -18 8 -39 14 -46 14 -7 0 -32 -41 -56 -92z"/>
<path d="M872 453 c-23 -4 -52 -53 -52 -86 0 -11 180 -101 187 -93 2 1 -16 44
-39 94 -28 60 -48 92 -58 91 -8 -1 -26 -4 -38 -6z"/>
</g>
</svg>
