<?xml version="1.0" standalone="no"?>
<!DOCTYPE svg PUBLIC "-//W3C//DTD SVG 20010904//EN"
 "http://www.w3.org/TR/2001/REC-SVG-20010904/DTD/svg10.dtd">
<svg version="1.0" xmlns="http://www.w3.org/2000/svg"
 width="128.000000pt" height="128.000000pt" viewBox="0 0 128.000000 128.000000"
 preserveAspectRatio="xMidYMid meet">
<g transform="translate(0.000000,128.000000) scale(0.100000,-0.100000)"
fill="#000000" stroke="none">
<path d="M145 1135 l-25 -24 0 -471 0 -471 25 -24 24 -25 471 0 471 0 24 25
25 24 0 471 0 471 -25 24 -24 25 -471 0 -471 0 -24 -25z m935 -495 l0 -440
-440 0 -440 0 0 440 0 440 440 0 440 0 0 -440z"/>
<path d="M617 938 c-13 -11 -17 -34 -19 -120 l-3 -107 -90 50 c-91 51 -120 57
-138 28 -17 -28 -2 -43 92 -94 50 -27 91 -52 91 -55 0 -3 -41 -28 -91 -55 -94
-51 -109 -66 -92 -94 18 -29 47 -23 138 28 l90 50 3 -109 c2 -97 5 -111 22
-120 14 -8 26 -8 40 0 17 9 20 23 22 120 l3 109 90 -50 c91 -51 120 -57 138
-28 17 28 3 43 -92 94 -50 28 -91 52 -91 55 0 3 41 27 91 55 95 51 109 66 92
94 -18 29 -47 23 -138 -28 l-90 -50 -3 107 c-2 86 -6 109 -19 120 -9 6 -20 12
-23 12 -3 0 -14 -6 -23 -12z"/>
</g>
</svg>
