<?xml version="1.0" standalone="no"?>
<!DOCTYPE svg PUBLIC "-//W3C//DTD SVG 20010904//EN"
 "http://www.w3.org/TR/2001/REC-SVG-20010904/DTD/svg10.dtd">
<svg version="1.0" xmlns="http://www.w3.org/2000/svg"
 width="128.000000pt" height="128.000000pt" viewBox="0 0 128.000000 128.000000"
 preserveAspectRatio="xMidYMid meet">
<g transform="translate(0.000000,128.000000) scale(0.100000,-0.100000)"
fill="#000000" stroke="none">
<path d="M257 1140 c-14 -11 -40 -20 -59 -20 -38 0 -72 -26 -83 -62 -4 -13
-19 -35 -32 -50 -26 -27 -26 -25 -9 -128 8 -49 40 -73 93 -68 39 3 43 1 47
-22 15 -82 16 -120 2 -159 -14 -41 -13 -42 8 -35 11 4 23 8 25 10 10 9 12 115
3 184 -10 78 -7 97 9 67 13 -23 24 -22 63 8 34 26 71 36 48 13 -19 -19 -14
-28 18 -28 l30 0 -40 -36 c-28 -25 -44 -52 -55 -87 -24 -80 -20 -119 15 -156
38 -39 45 -39 25 -1 -22 42 -19 125 5 176 23 47 53 71 96 76 48 5 38 32 -21
54 -18 7 -17 8 8 12 15 2 27 7 27 12 0 30 -105 31 -155 1 -20 -11 -38 -21 -41
-21 -2 0 -4 16 -4 35 0 24 -5 35 -14 35 -20 0 -56 -48 -56 -74 0 -29 -18 -46
-50 -46 -32 0 -50 17 -50 48 0 13 -5 32 -10 42 -14 27 4 68 34 76 21 5 24 10
20 33 -7 35 16 55 53 48 65 -13 68 -13 68 8 0 48 51 63 78 23 l15 -23 22 23
c31 33 80 27 98 -11 12 -25 17 -27 48 -21 54 10 87 -34 49 -66 -26 -21 -17
-33 21 -27 27 5 40 1 55 -14 19 -19 19 -21 3 -48 -15 -26 -15 -30 0 -52 14
-23 14 -27 0 -48 -13 -18 -24 -22 -53 -19 -34 3 -36 1 -33 -24 4 -38 -38 -66
-73 -50 -14 7 -25 16 -25 22 0 5 -7 10 -15 10 -20 0 -19 -23 3 -43 43 -39 111
-28 140 23 9 16 25 30 35 30 29 0 67 45 67 79 0 16 -4 32 -10 36 -6 4 -5 15 2
30 16 36 2 75 -32 88 -17 7 -30 19 -30 28 0 42 -42 79 -89 79 -11 0 -31 11
-45 25 -19 19 -35 25 -70 25 -25 0 -48 -5 -51 -10 -4 -7 -12 -7 -25 0 -30 16
-75 12 -103 -10z"/>
<path d="M1169 753 c-9 -16 -19 -40 -23 -55 -6 -25 -11 -28 -50 -28 l-43 0 2
-37 c3 -45 29 -58 39 -19 9 37 31 32 53 -11 23 -47 49 -59 38 -17 -15 59 -6
112 33 187 2 4 -5 7 -15 7 -10 0 -26 -12 -34 -27z"/>
<path d="M702 761 c-10 -6 -9 -14 3 -37 17 -35 22 -91 11 -116 -12 -28 11 -22
40 9 25 27 26 27 40 8 8 -10 14 -22 14 -25 0 -4 11 -12 25 -18 28 -13 30 -8
10 28 -9 17 -10 29 -3 37 12 15 0 21 -50 25 -29 3 -36 8 -47 42 -16 47 -26 58
-43 47z"/>
<path d="M842 718 c3 -7 23 -14 46 -16 l42 -3 0 -65 c0 -62 1 -64 20 -54 16 9
20 21 20 65 l0 54 42 3 c23 2 43 9 46 16 3 9 -23 12 -108 12 -85 0 -111 -3
-108 -12z"/>
<path d="M212 558 c-12 -6 -25 -22 -28 -34 -5 -20 -13 -23 -62 -26 -77 -4 -84
-28 -8 -28 30 0 58 -4 61 -10 4 -6 -17 -10 -55 -10 -81 0 -79 -24 3 -28 53 -3
57 -5 57 -27 0 -24 -3 -25 -60 -25 -47 0 -60 -3 -60 -15 0 -12 14 -15 63 -17
l62 -1 -59 -6 c-80 -8 -88 -31 -11 -31 48 0 58 -3 62 -20 5 -18 14 -20 84 -20
72 0 79 2 79 20 0 17 7 20 44 20 35 0 45 -4 49 -20 5 -18 14 -20 80 -20 66 0
75 2 80 20 8 29 86 29 94 0 5 -18 14 -20 80 -20 66 0 75 2 80 20 4 16 14 20
49 20 37 0 44 -3 44 -20 0 -18 7 -20 79 -20 70 0 79 2 84 20 4 17 14 20 62 20
77 0 69 23 -11 31 l-59 6 63 1 c48 2 62 5 62 17 0 12 -13 15 -60 15 -57 0 -60
1 -60 25 0 22 4 24 57 27 82 4 84 28 3 28 -38 0 -59 4 -55 10 3 6 31 10 61 10
76 0 69 24 -8 28 -49 3 -57 6 -62 26 -6 25 -43 46 -80 46 -28 0 -76 -35 -76
-56 0 -10 -13 -14 -44 -14 -36 0 -46 4 -51 20 -10 33 -50 53 -91 47 -43 -7
-64 -23 -64 -48 0 -16 -8 -19 -49 -19 -43 0 -50 3 -55 23 -6 26 -43 47 -82 47
-25 0 -74 -40 -74 -60 0 -5 -20 -10 -45 -10 -32 0 -45 4 -45 14 0 22 -49 56
-79 55 -14 0 -36 -5 -49 -11z m76 -30 c8 -8 12 -50 12 -125 l0 -113 -45 0 -45
0 0 106 c0 58 5 114 10 125 12 21 50 25 68 7z m260 0 c8 -8 12 -50 12 -125 l0
-113 -45 0 -45 0 0 113 c0 119 6 137 45 137 12 0 26 -5 33 -12z m250 0 c8 -8
12 -50 12 -125 l0 -113 -45 0 -45 0 0 113 c0 119 6 137 45 137 12 0 26 -5 33
-12z m262 -7 c5 -11 10 -67 10 -125 l0 -106 -45 0 -45 0 0 119 c0 86 3 121 13
124 27 12 57 6 67 -12z m-630 -61 c0 -5 -20 -10 -45 -10 -25 0 -45 5 -45 10 0
6 20 10 45 10 25 0 45 -4 45 -10z m250 0 c0 -5 -18 -10 -40 -10 -22 0 -40 5
-40 10 0 6 18 10 40 10 22 0 40 -4 40 -10z m260 0 c0 -5 -20 -10 -45 -10 -25
0 -45 5 -45 10 0 6 20 10 45 10 25 0 45 -4 45 -10z m-510 -65 c0 -23 -4 -25
-45 -25 -41 0 -45 2 -45 25 0 23 4 25 45 25 41 0 45 -2 45 -25z m258 3 c-3
-20 -10 -23 -50 -26 -46 -3 -48 -2 -48 22 0 24 3 26 51 26 47 0 50 -2 47 -22z
m252 -3 c0 -23 -4 -25 -45 -25 -41 0 -45 2 -45 25 0 23 4 25 45 25 41 0 45 -2
45 -25z m-527 -62 c-13 -2 -35 -2 -50 0 -16 2 -5 4 22 4 28 0 40 -2 28 -4z
m255 0 c-16 -2 -40 -2 -55 0 -16 2 -3 4 27 4 30 0 43 -2 28 -4z m255 0 c-13
-2 -35 -2 -50 0 -16 2 -5 4 22 4 28 0 40 -2 28 -4z"/>
</g>
</svg>
