<?xml version="1.0" standalone="no"?>
<!DOCTYPE svg PUBLIC "-//W3C//DTD SVG 20010904//EN"
 "http://www.w3.org/TR/2001/REC-SVG-20010904/DTD/svg10.dtd">
<svg version="1.0" xmlns="http://www.w3.org/2000/svg"
 width="128.000000pt" height="128.000000pt" viewBox="0 0 128.000000 128.000000"
 preserveAspectRatio="xMidYMid meet">
<g transform="translate(0.000000,128.000000) scale(0.100000,-0.100000)"
fill="#000000" stroke="none">
<path d="M48 1264 c-15 -8 -32 -23 -38 -34 -5 -10 -10 -86 -10 -169 l0 -151
45 0 45 0 0 -455 0 -455 45 0 45 0 0 130 c0 72 3 130 8 130 4 0 66 -58 137
-130 l130 -130 47 0 48 0 0 455 0 455 225 0 225 0 0 -225 0 -225 -90 0 -90 0
0 -95 0 -95 228 2 227 3 0 90 0 90 -92 3 -93 3 0 224 0 225 90 0 c60 0 90 4
90 11 0 6 -19 47 -42 90 l-43 79 -318 0 -317 0 -47 95 -48 95 -190 0 c-148 -1
-196 -4 -217 -16z m432 -124 c16 -31 18 -42 7 -45 -7 -3 -98 -4 -202 -3 l-190
3 -3 43 -3 42 185 0 186 0 20 -40z m-20 -360 c0 -71 -3 -130 -8 -130 -4 0 -66
59 -137 130 l-130 130 138 0 137 0 0 -130z m-158 -77 l108 -108 -107 -107
c-59 -60 -111 -108 -115 -108 -5 0 -8 97 -8 215 0 118 3 215 7 215 4 0 56 -48
115 -107z m158 -383 c0 -121 -3 -220 -8 -220 -4 0 -57 50 -117 110 l-110 110
110 110 c60 61 113 110 117 110 5 0 8 -99 8 -220z"/>
</g>
</svg>
