<?xml version="1.0" standalone="no"?>
<!DOCTYPE svg PUBLIC "-//W3C//DTD SVG 20010904//EN"
 "http://www.w3.org/TR/2001/REC-SVG-20010904/DTD/svg10.dtd">
<svg version="1.0" xmlns="http://www.w3.org/2000/svg"
 width="128.000000pt" height="128.000000pt" viewBox="0 0 128.000000 128.000000"
 preserveAspectRatio="xMidYMid meet">
<g transform="translate(0.000000,128.000000) scale(0.100000,-0.100000)"
fill="#000000" stroke="none">
<path d="M573 1250 c-22 -26 -23 -38 -23 -179 l0 -151 -182 -2 -183 -3 -3 -78
c-2 -50 1 -84 9 -93 9 -11 48 -14 185 -14 l174 0 0 -365 0 -365 90 0 90 0 2
362 3 363 183 3 182 2 0 95 0 95 -169 0 c-93 0 -176 3 -185 6 -14 5 -16 29
-16 158 -1 182 -7 196 -87 195 -41 0 -51 -4 -70 -29z"/>
</g>
</svg>
