<?xml version="1.0" standalone="no"?>
<!DOCTYPE svg PUBLIC "-//W3C//DTD SVG 20010904//EN"
 "http://www.w3.org/TR/2001/REC-SVG-20010904/DTD/svg10.dtd">
<svg version="1.0" xmlns="http://www.w3.org/2000/svg"
 width="128.000000pt" height="128.000000pt" viewBox="0 0 128.000000 128.000000"
 preserveAspectRatio="xMidYMid meet">
<g transform="translate(0.000000,128.000000) scale(0.100000,-0.100000)"
fill="#000000" stroke="none">
<path d="M430 1123 c0 -38 7 -162 15 -278 8 -116 15 -213 15 -217 0 -5 90 -8
201 -8 l200 0 -7 48 c-10 67 -38 145 -81 221 -48 87 -187 226 -269 269 -34 18
-65 32 -68 32 -3 0 -6 -30 -6 -67z"/>
<path d="M186 1053 c16 -367 15 -353 35 -353 23 0 24 -12 3 -51 -15 -30 -15
-30 8 -27 15 2 30 17 43 40 20 37 21 38 79 38 l59 0 -7 126 c-4 69 -12 138
-17 152 -18 49 -165 182 -200 182 -5 0 -6 -48 -3 -107z"/>
<path d="M700 1121 c0 -53 12 -81 60 -142 43 -54 100 -167 120 -235 11 -36 15
-40 39 -36 20 3 38 -6 70 -32 57 -48 114 -49 61 -1 -11 10 -25 37 -31 59 -44
162 -87 243 -170 324 -43 41 -127 102 -141 102 -5 0 -8 -18 -8 -39z"/>
<path d="M300 639 c0 -14 5 -19 17 -17 26 5 29 38 4 38 -15 0 -21 -6 -21 -21z"/>
<path d="M942 603 c2 -46 7 -58 21 -61 16 -3 18 3 15 55 -2 46 -7 58 -21 61
-16 3 -18 -3 -15 -55z"/>
<path d="M1068 581 c-12 -17 -31 -41 -41 -55 -13 -19 -27 -26 -52 -26 -44 0
-61 -18 -74 -82 -7 -28 -17 -58 -23 -65 -9 -12 1 -13 63 -11 l74 3 7 45 c4 25
26 82 48 128 22 46 40 86 40 88 0 13 -21 0 -42 -25z"/>
<path d="M140 566 c0 -8 18 -25 39 -37 23 -12 42 -32 45 -45 6 -23 9 -24 116
-24 93 0 109 2 104 15 -6 15 -24 22 -74 27 -13 2 -29 13 -35 24 -25 50 -34 54
-116 54 -62 0 -79 -3 -79 -14z"/>
<path d="M600 560 c-6 -12 -21 -20 -36 -20 -33 0 -29 -33 4 -38 12 -2 27 -13
33 -24 9 -17 17 -19 46 -15 58 10 114 77 63 77 -10 0 -24 9 -30 20 -7 13 -21
20 -40 20 -19 0 -33 -7 -40 -20z"/>
<path d="M459 403 c-12 -33 -3 -63 21 -63 34 0 38 71 4 84 -10 4 -18 -3 -25
-21z"/>
<path d="M680 420 c-28 -7 -39 -42 -20 -66 14 -16 150 -21 150 -5 0 19 -46 62
-75 69 -16 5 -41 6 -55 2z"/>
<path d="M220 392 c0 -37 17 -52 57 -52 29 0 33 3 33 28 0 37 -17 52 -57 52
-29 0 -33 -3 -33 -28z"/>
<path d="M350 405 c-15 -18 -10 -45 13 -59 34 -22 73 27 47 59 -16 19 -44 19
-60 0z"/>
<path d="M550 405 c-15 -18 -10 -45 13 -59 34 -22 73 27 47 59 -16 19 -44 19
-60 0z"/>
<path d="M825 409 c-10 -15 1 -23 20 -15 9 3 13 10 10 16 -8 13 -22 13 -30 -1z"/>
<path d="M240 292 c0 -28 64 -93 117 -118 57 -28 62 -29 253 -32 210 -4 248 1
313 45 36 25 77 79 77 102 0 8 -21 11 -67 9 -62 -3 -68 -5 -71 -25 -4 -27 5
-29 29 -7 10 9 25 14 34 10 36 -13 -34 -76 -85 -76 -32 0 -78 27 -85 51 -9 27
-1 33 23 20 30 -16 42 -13 42 9 0 20 -7 20 -290 20 -159 0 -290 -4 -290 -8z"/>
<path d="M236 193 c15 -41 60 -87 108 -109 49 -23 60 -24 276 -24 217 0 227 1
277 24 34 16 63 39 82 67 36 49 33 64 -7 27 -15 -15 -47 -37 -72 -50 -42 -21
-59 -23 -235 -26 -245 -5 -317 10 -404 83 -25 21 -30 23 -25 8z"/>
</g>
</svg>
