<?xml version="1.0" standalone="no"?>
<!DOCTYPE svg PUBLIC "-//W3C//DTD SVG 20010904//EN"
 "http://www.w3.org/TR/2001/REC-SVG-20010904/DTD/svg10.dtd">
<svg version="1.0" xmlns="http://www.w3.org/2000/svg"
 width="128.000000pt" height="128.000000pt" viewBox="0 0 128.000000 128.000000"
 preserveAspectRatio="xMidYMid meet">
<g transform="translate(0.000000,128.000000) scale(0.100000,-0.100000)"
fill="#000000" stroke="none">
<path d="M506 1184 c-196 -47 -364 -218 -411 -415 -82 -349 187 -689 545 -689
274 0 513 207 552 479 57 390 -302 718 -686 625z m247 -69 c180 -47 315 -181
362 -360 66 -255 -97 -521 -362 -590 -299 -78 -603 162 -603 475 0 130 51 251
145 345 122 122 298 172 458 130z"/>
<path d="M880 955 c-21 -102 -109 -236 -188 -286 -58 -37 -83 -37 -110 1 -32
43 -80 42 -115 -3 -24 -32 -24 -34 -7 -45 15 -9 18 -19 13 -45 -7 -48 27 -111
75 -136 20 -11 33 -20 29 -21 -18 -1 -66 31 -86 56 -12 15 -24 44 -27 64 -6
37 -6 37 -63 43 -62 5 -124 32 -183 79 -49 38 -53 12 -5 -27 19 -16 23 -22 10
-15 -32 15 -29 -4 5 -29 20 -16 22 -20 7 -15 -16 5 -14 1 8 -20 20 -19 24 -26
12 -26 -25 0 52 -74 105 -101 38 -19 67 -24 187 -29 171 -8 193 -18 193 -81 0
-31 3 -40 14 -36 7 3 19 0 25 -6 9 -9 14 -9 20 1 4 7 14 12 22 10 9 -2 13 5
11 21 -2 19 0 22 12 12 15 -13 32 1 22 18 -4 5 4 7 16 3 18 -4 20 -2 15 17 -4
17 -2 21 8 17 29 -11 24 14 -7 37 -47 35 -78 50 -118 57 l-35 6 48 23 c55 27
84 62 126 151 21 44 32 87 36 133 2 37 3 67 0 67 -2 0 -22 -26 -44 -58 -21
-32 -47 -64 -57 -72 -15 -12 -15 -10 2 10 41 49 67 92 80 136 7 24 10 44 6 44
-4 0 -22 -29 -40 -64 -18 -35 -43 -72 -54 -82 -17 -15 -16 -12 4 16 54 71 81
165 62 214 -11 29 -22 16 -34 -39z"/>
</g>
</svg>
