<?xml version="1.0" standalone="no"?>
<!DOCTYPE svg PUBLIC "-//W3C//DTD SVG 20010904//EN"
 "http://www.w3.org/TR/2001/REC-SVG-20010904/DTD/svg10.dtd">
<svg version="1.0" xmlns="http://www.w3.org/2000/svg"
 width="128.000000pt" height="128.000000pt" viewBox="0 0 128.000000 128.000000"
 preserveAspectRatio="xMidYMid meet">
<g transform="translate(0.000000,128.000000) scale(0.100000,-0.100000)"
fill="#000000" stroke="none">
<path d="M899 1244 c-17 -21 -341 -1134 -341 -1173 -1 -49 13 -51 345 -51 193
0 316 4 328 10 18 10 19 28 19 603 0 326 -4 598 -8 604 -6 9 -58 15 -168 19
-148 6 -160 5 -175 -12z m271 -174 l0 -80 -131 0 c-101 0 -130 3 -127 13 3 6
13 42 23 80 l18 67 108 0 109 0 0 -80z m-2 -552 l2 -388 -256 0 c-239 0 -255
1 -250 18 3 9 53 180 110 380 58 200 108 367 111 373 4 6 62 8 143 7 l137 -3
3 -387z"/>
<path d="M148 911 c-14 -5 -47 -23 -72 -40 -37 -26 -46 -38 -46 -61 0 -20 7
-33 21 -41 18 -9 29 -6 72 21 68 42 101 41 168 -5 51 -35 57 -37 121 -33 55 3
74 9 116 38 56 38 67 59 45 89 -19 28 -40 26 -93 -9 -59 -39 -92 -38 -155 5
-54 38 -126 52 -177 36z"/>
<path d="M130 654 c-83 -36 -121 -89 -88 -122 19 -19 44 -14 95 18 57 36 79
37 127 5 96 -65 152 -72 236 -28 68 36 97 72 81 102 -16 29 -51 27 -108 -9
-58 -37 -79 -37 -129 -4 -82 56 -146 67 -214 38z"/>
<path d="M142 420 c-13 -5 -43 -24 -68 -41 -39 -27 -45 -35 -42 -62 4 -44 44
-49 100 -12 55 37 96 35 153 -6 58 -41 141 -51 200 -23 57 27 107 78 98 100
-15 42 -52 45 -100 8 -57 -43 -94 -43 -158 1 -43 30 -66 39 -108 42 -28 1 -62
-2 -75 -7z"/>
</g>
</svg>
