<?xml version="1.0" standalone="no"?>
<!DOCTYPE svg PUBLIC "-//W3C//DTD SVG 20010904//EN"
 "http://www.w3.org/TR/2001/REC-SVG-20010904/DTD/svg10.dtd">
<svg version="1.0" xmlns="http://www.w3.org/2000/svg"
 width="128.000000pt" height="128.000000pt" viewBox="0 0 128.000000 128.000000"
 preserveAspectRatio="xMidYMid meet">
<g transform="translate(0.000000,128.000000) scale(0.100000,-0.100000)"
fill="#000000" stroke="none">
<path d="M534 1204 c-90 -44 -59 -184 41 -184 101 0 131 141 40 185 -40 18
-42 18 -81 -1z"/>
<path d="M290 1007 c-18 -9 -36 -38 -62 -102 -43 -104 -45 -118 -18 -145 23
-23 82 -27 98 -7 25 31 82 188 76 212 -11 43 -54 62 -94 42z"/>
<path d="M469 975 c-19 -10 -36 -38 -59 -92 -18 -43 -45 -109 -61 -147 -50
-119 -42 -134 119 -215 l117 -59 69 -101 c53 -77 75 -101 92 -101 41 0 36 29
-28 153 -58 112 -67 124 -127 166 -35 25 -69 51 -77 56 -10 8 -6 27 23 98 l37
88 51 -51 c54 -53 99 -66 125 -35 7 9 26 25 41 36 l28 20 81 -161 c45 -90 86
-160 94 -160 7 0 19 6 25 14 10 12 -11 61 -106 248 -115 228 -143 266 -159
223 -4 -9 4 -39 16 -66 13 -27 22 -51 19 -52 -2 -2 -22 -16 -43 -30 l-40 -26
-72 98 c-82 112 -108 127 -165 96z"/>
<path d="M374 423 c6 -70 3 -91 -28 -198 -34 -124 -34 -160 2 -153 32 6 126
229 135 319 l5 56 -54 26 c-30 15 -57 27 -61 27 -3 0 -3 -35 1 -77z"/>
<path d="M1072 405 c-40 -17 -77 -36 -81 -41 -5 -5 -19 -37 -31 -71 -12 -35
-28 -67 -34 -72 -6 -5 -59 -18 -118 -30 -88 -17 -121 -29 -187 -69 -44 -26
-81 -50 -81 -54 0 -5 135 -8 300 -8 236 0 302 3 306 13 2 7 3 92 2 189 l-3
175 -73 -32z"/>
</g>
</svg>
