<?xml version="1.0" standalone="no"?>
<!DOCTYPE svg PUBLIC "-//W3C//DTD SVG 20010904//EN"
 "http://www.w3.org/TR/2001/REC-SVG-20010904/DTD/svg10.dtd">
<svg version="1.0" xmlns="http://www.w3.org/2000/svg"
 width="128.000000pt" height="128.000000pt" viewBox="0 0 128.000000 128.000000"
 preserveAspectRatio="xMidYMid meet">
<g transform="translate(0.000000,128.000000) scale(0.100000,-0.100000)"
fill="#000000" stroke="none">
<path d="M607 1038 c-15 -11 -17 -40 -19 -218 l-3 -205 -50 -5 -50 -5 -3 -47
c-3 -40 -6 -48 -23 -48 -33 0 -78 -29 -85 -54 -3 -13 -4 -38 -2 -57 l3 -34
224 -3 c156 -2 228 1 237 9 8 6 14 27 14 46 0 43 -46 93 -84 93 -23 0 -26 4
-26 39 0 45 -12 58 -60 63 l-35 3 -3 113 -3 112 125 0 c100 0 128 3 140 16 19
19 21 87 3 102 -19 16 -235 92 -261 92 -12 0 -30 -6 -39 -12z m148 -67 c98
-34 110 -41 110 -62 0 -24 -1 -24 -112 -27 l-113 -3 0 66 c0 36 1 65 3 65 1
-1 52 -18 112 -39z m-70 -431 c0 -24 -2 -25 -77 -28 l-78 -3 0 31 0 31 78 -3
c75 -3 77 -4 77 -28z m86 -80 c11 -6 19 -21 19 -35 l0 -25 -185 0 c-176 0
-185 1 -185 19 0 45 22 51 181 51 85 0 159 -5 170 -10z"/>
</g>
</svg>
