<?xml version="1.0" standalone="no"?>
<!DOCTYPE svg PUBLIC "-//W3C//DTD SVG 20010904//EN"
 "http://www.w3.org/TR/2001/REC-SVG-20010904/DTD/svg10.dtd">
<svg version="1.0" xmlns="http://www.w3.org/2000/svg"
 width="128.000000pt" height="128.000000pt" viewBox="0 0 128.000000 128.000000"
 preserveAspectRatio="xMidYMid meet">
<g transform="translate(0.000000,128.000000) scale(0.100000,-0.100000)"
fill="#000000" stroke="none">
<path d="M605 1160 c-4 -6 -14 -99 -24 -206 -21 -245 -15 -235 -182 -253 -164
-17 -178 -21 -184 -42 -11 -33 4 -57 38 -62 18 -3 83 -11 146 -18 167 -18 161
-8 182 -253 10 -107 20 -200 24 -206 8 -13 62 -13 70 0 4 6 14 99 24 206 21
245 15 235 182 253 63 7 128 15 146 18 34 5 49 29 38 62 -6 21 -20 25 -184 42
-167 18 -161 8 -182 253 -10 107 -20 200 -24 206 -8 13 -62 13 -70 0z"/>
<path d="M315 960 c-21 -23 -14 -43 35 -97 35 -39 49 -41 78 -10 32 33 28 47
-24 90 -54 43 -64 45 -89 17z"/>
<path d="M876 943 c-52 -43 -56 -60 -23 -91 31 -29 42 -28 77 11 49 54 56 74
35 97 -25 28 -35 26 -89 -17z"/>
<path d="M338 404 c-43 -52 -46 -64 -18 -89 23 -21 43 -14 98 35 38 35 40 49
9 78 -33 31 -47 27 -89 -24z"/>
<path d="M852 427 c-31 -33 -27 -47 24 -89 52 -43 64 -46 89 -18 21 23 14 43
-35 98 -35 38 -49 40 -78 9z"/>
</g>
</svg>
