<?xml version="1.0" standalone="no"?>
<!DOCTYPE svg PUBLIC "-//W3C//DTD SVG 20010904//EN"
 "http://www.w3.org/TR/2001/REC-SVG-20010904/DTD/svg10.dtd">
<svg version="1.0" xmlns="http://www.w3.org/2000/svg"
 width="128.000000pt" height="128.000000pt" viewBox="0 0 128.000000 128.000000"
 preserveAspectRatio="xMidYMid meet">
<g transform="translate(0.000000,128.000000) scale(0.100000,-0.100000)"
fill="#000000" stroke="none">
<path d="M432 1268 c-28 -28 -1 -75 37 -63 25 8 34 31 21 56 -12 21 -40 25
-58 7z m38 -28 c0 -21 -15 -27 -25 -10 -7 12 2 30 16 30 5 0 9 -9 9 -20z"/>
<path d="M286 1188 c-13 -19 -14 -25 -2 -43 26 -39 76 -26 76 19 0 46 -48 62
-74 24z m51 -14 c8 -21 -13 -42 -28 -27 -13 13 -5 43 11 43 6 0 13 -7 17 -16z"/>
<path d="M486 1171 c-47 -7 -76 -29 -76 -57 0 -6 -9 -14 -20 -17 -13 -3 -22
-17 -27 -37 -6 -32 -6 -32 -52 -25 -25 4 -72 16 -104 27 -68 23 -114 19 -145
-15 -35 -37 -42 -73 -42 -212 0 -78 -4 -136 -10 -140 -14 -9 -12 -99 2 -113 9
-9 88 -12 295 -12 266 0 283 -1 283 -18 0 -24 19 -42 45 -42 11 0 29 -7 39
-15 11 -8 35 -15 53 -15 34 0 45 -16 18 -26 -21 -9 -21 -141 1 -172 15 -21 20
-22 204 -22 184 0 189 1 204 22 22 31 22 156 1 164 -11 5 -15 22 -15 65 l0 59
58 0 c32 0 63 5 70 12 14 14 16 104 2 113 -5 3 -10 13 -10 21 0 8 -7 31 -16
52 -9 20 -17 48 -18 62 -1 16 -12 32 -32 45 -17 11 -35 29 -40 40 -9 20 -13
21 -148 25 -10 1 -26 -5 -35 -13 -14 -13 -34 -4 -175 77 -127 74 -161 98 -171
123 -14 34 -42 54 -72 52 -10 -1 -40 -5 -67 -8z m106 -28 c25 -22 23 -35 -6
-27 -26 6 -73 -13 -125 -51 -29 -21 -81 -35 -81 -21 0 16 14 36 26 36 8 0 20
16 29 35 13 33 17 36 54 33 22 -1 44 1 47 5 12 12 37 8 56 -10z m-22 -52 c0
-20 -82 -79 -131 -94 -58 -19 -113 -21 -179 -7 -60 14 -150 50 -150 61 0 15
42 10 95 -10 116 -44 208 -37 297 25 51 35 68 41 68 25z m50 -11 c13 -8 13
-11 -2 -27 -21 -20 -43 -6 -32 20 7 19 13 21 34 7z m55 -30 c8 -13 -25 -70
-40 -70 -22 0 -24 12 -8 46 17 34 36 43 48 24z m-438 -75 c105 -28 203 -14
284 40 31 20 43 23 59 15 11 -6 17 -16 14 -25 -11 -27 16 -46 60 -43 38 3 41
1 46 -27 5 -32 40 -46 63 -26 18 15 35 0 39 -34 2 -22 9 -31 26 -33 13 -2 29
2 37 8 11 9 17 6 29 -12 9 -13 17 -34 18 -47 3 -22 -1 -24 -37 -23 -22 0 -53
4 -68 8 -20 5 -33 1 -48 -12 -13 -12 -32 -17 -54 -15 -25 2 -37 -3 -47 -18
-12 -19 -22 -21 -131 -21 l-118 0 -60 65 c-68 73 -162 126 -255 145 l-56 12 5
35 c4 20 14 44 23 54 16 18 18 17 65 -7 27 -13 74 -31 106 -39z m487 46 c7
-10 -3 -41 -13 -41 -17 1 -31 18 -25 33 7 18 29 23 38 8z m51 -31 c9 -14 -23
-70 -40 -70 -18 0 -19 20 -3 55 11 25 32 33 43 15z m52 -36 c1 -5 -1 -15 -6
-23 -8 -12 -12 -13 -25 -2 -13 11 -14 17 -5 28 13 14 31 13 36 -3z m53 -26 c0
-20 -31 -68 -45 -68 -20 0 -19 22 2 58 16 27 43 34 43 10z m108 -57 c49 -29
93 -45 135 -52 68 -11 101 -35 112 -81 l7 -28 -145 0 c-99 0 -148 4 -153 11
-4 7 -8 32 -9 56 -1 27 -10 55 -24 74 -14 19 -20 37 -16 49 4 11 9 19 13 17 4
-2 40 -23 80 -46z m60 37 c9 -9 15 -9 24 0 23 23 59 14 71 -18 8 -21 18 -30
33 -30 12 0 25 -7 28 -16 9 -23 3 -26 -28 -14 -15 5 -41 10 -57 10 -46 0 -145
53 -133 71 8 13 48 11 62 -3z m-893 -28 c77 -26 130 -63 199 -138 l30 -32
-172 0 -172 0 0 101 0 101 33 -7 c17 -4 55 -15 82 -25z m671 -131 c4 -6 19 -9
35 -5 21 4 35 0 49 -14 23 -23 24 -33 8 -60 -10 -15 -10 -22 0 -32 28 -28 7
-78 -34 -78 -15 0 -24 -8 -28 -25 -7 -29 -49 -44 -70 -25 -11 8 -20 8 -35 1
-28 -15 -56 -14 -71 4 -7 8 -23 15 -37 15 -28 0 -41 25 -25 50 8 13 7 21 -6
34 -20 20 -6 49 27 54 12 2 21 11 21 21 0 30 27 46 59 35 23 -9 29 -7 44 13
19 24 51 31 63 12z m-231 -79 c-12 -14 -16 -28 -12 -50 l7 -30 -283 2 -282 3
-3 33 c-6 65 -21 62 299 62 290 0 292 0 274 -20z m660 -30 l0 -45 -150 -3
-150 -2 -11 34 c-20 64 -12 67 159 64 l152 -3 0 -45z m-285 -101 c0 -17 4 -28
10 -24 6 3 10 17 10 31 0 15 6 24 15 24 10 0 15 -10 15 -31 0 -17 4 -28 10
-24 6 3 10 17 10 31 0 15 6 24 15 24 10 0 15 -10 15 -30 0 -16 5 -30 10 -30 6
0 10 14 10 30 0 20 5 30 15 30 12 0 15 -13 15 -60 l0 -60 -170 0 c-158 0 -170
1 -170 18 0 15 6 18 30 14 24 -3 36 2 60 28 29 32 31 32 45 14 14 -18 14 -18
15 7 0 29 7 39 27 39 8 0 13 -12 13 -31z m178 -166 c5 -94 8 -93 -196 -93
-125 0 -182 4 -190 12 -7 7 -12 39 -12 75 l0 63 198 -2 197 -3 3 -52z"/>
<path d="M640 855 c-16 -20 -5 -62 19 -70 42 -13 72 25 51 65 -13 24 -52 27
-70 5z m58 -28 c4 -20 -25 -34 -40 -19 -15 15 -1 44 19 40 10 -2 19 -11 21
-21z"/>
<path d="M826 684 c-19 -19 -17 -33 7 -48 24 -15 56 17 41 41 -15 24 -29 26
-48 7z m31 -30 c-9 -9 -28 6 -21 18 4 6 10 6 17 -1 6 -6 8 -13 4 -17z"/>
<path d="M672 628 c-25 -25 -6 -68 30 -68 9 0 22 9 28 19 13 25 13 27 -6 45
-19 19 -36 20 -52 4z m41 -23 c8 -18 -11 -31 -25 -17 -11 11 -3 32 12 32 4 0
10 -7 13 -15z"/>
<path d="M1082 1048 c-7 -7 -12 -25 -12 -40 0 -21 6 -29 25 -34 31 -8 55 10
55 40 0 26 -18 46 -40 46 -9 0 -21 -5 -28 -12z m46 -36 c3 -17 -2 -22 -17 -22
-14 0 -21 6 -21 18 0 38 33 41 38 4z"/>
<path d="M459 524 c-17 -21 0 -48 33 -52 28 -3 42 18 33 49 -8 23 -48 25 -66
3z m51 -19 c0 -8 -6 -15 -14 -15 -17 0 -28 14 -19 24 12 12 33 6 33 -9z"/>
<path d="M560 445 c-17 -20 -5 -62 21 -70 24 -8 59 19 59 45 0 37 -55 55 -80
25z m56 -16 c3 -6 0 -17 -7 -25 -18 -17 -44 -2 -36 20 7 18 33 21 43 5z"/>
</g>
</svg>
