<?xml version="1.0" standalone="no"?>
<!DOCTYPE svg PUBLIC "-//W3C//DTD SVG 20010904//EN"
 "http://www.w3.org/TR/2001/REC-SVG-20010904/DTD/svg10.dtd">
<svg version="1.0" xmlns="http://www.w3.org/2000/svg"
 width="128.000000pt" height="128.000000pt" viewBox="0 0 128.000000 128.000000"
 preserveAspectRatio="xMidYMid meet">
<g transform="translate(0.000000,128.000000) scale(0.100000,-0.100000)"
fill="#000000" stroke="none">
<path d="M580 1238 c-106 -97 -269 -140 -392 -104 -116 33 -123 24 -115 -158
17 -395 181 -721 466 -925 109 -77 152 -62 337 123 189 189 291 410 323 699
17 150 14 230 -8 258 l-19 23 -72 -18 c-139 -36 -288 2 -402 103 -25 22 -52
41 -60 41 -7 -1 -33 -19 -58 -42z m110 -88 c98 -78 251 -120 361 -100 33 6 64
8 69 5 15 -9 12 -141 -5 -241 -53 -305 -204 -556 -422 -702 l-52 -34 -37 23
c-67 41 -152 118 -209 188 -115 143 -187 301 -224 495 -21 105 -28 261 -13
269 4 3 35 0 69 -5 114 -17 277 30 368 106 39 33 49 32 95 -4z"/>
<path d="M620 905 l0 -46 -30 16 c-34 18 -40 18 -40 5 0 -6 16 -20 35 -31 l35
-21 0 -75 0 -75 -62 35 c-62 35 -63 36 -66 82 -4 53 -25 58 -30 7 l-3 -32 -39
23 c-32 18 -41 20 -52 9 -11 -11 -9 -17 11 -33 13 -11 31 -24 40 -29 14 -9 13
-12 -9 -29 -34 -27 -20 -36 23 -15 34 16 35 16 96 -17 33 -18 61 -36 61 -40 0
-5 -84 -55 -113 -68 -5 -2 -24 5 -42 15 -19 10 -38 14 -42 10 -4 -5 -3 -11 3
-13 6 -2 19 -10 29 -17 17 -12 16 -15 -23 -40 -68 -43 -46 -74 27 -36 l41 20
0 -35 c0 -19 5 -35 10 -35 6 0 10 19 10 43 0 42 1 43 63 80 l62 36 3 -67 c3
-70 1 -75 -54 -108 -11 -7 -15 -15 -11 -20 4 -5 17 -3 27 4 32 20 39 14 42
-35 2 -35 7 -48 18 -48 11 0 16 13 18 49 3 50 5 51 55 31 31 -13 18 13 -18 35
-34 21 -35 23 -35 86 0 40 4 64 11 64 6 0 35 -15 65 -32 50 -30 54 -35 54 -70
0 -21 5 -38 10 -38 6 0 10 14 10 30 0 36 3 36 47 9 18 -12 40 -18 48 -15 27
10 16 34 -25 57 l-40 23 27 23 c32 26 16 30 -28 8 -28 -15 -32 -14 -89 17 -33
18 -60 35 -60 38 0 3 28 20 63 39 62 33 63 34 96 17 41 -22 55 -12 21 15 -22
17 -23 20 -9 29 9 5 27 18 40 29 19 16 21 22 12 32 -10 10 -21 8 -52 -9 l-40
-23 -3 33 c-4 47 -22 41 -28 -10 -5 -39 -9 -45 -63 -77 -32 -19 -60 -35 -63
-35 -2 0 -4 34 -4 75 l0 75 35 17 c19 9 35 23 35 30 0 17 -12 16 -36 -2 -30
-22 -34 -18 -34 30 0 38 -3 45 -20 45 -17 0 -20 -7 -20 -45z"/>
</g>
</svg>
