<?xml version="1.0" standalone="no"?>
<!DOCTYPE svg PUBLIC "-//W3C//DTD SVG 20010904//EN"
 "http://www.w3.org/TR/2001/REC-SVG-20010904/DTD/svg10.dtd">
<svg version="1.0" xmlns="http://www.w3.org/2000/svg"
 width="128.000000pt" height="128.000000pt" viewBox="0 0 128.000000 128.000000"
 preserveAspectRatio="xMidYMid meet">
<g transform="translate(0.000000,128.000000) scale(0.100000,-0.100000)"
fill="#000000" stroke="none">
<path d="M161 1258 c-19 -13 -44 -36 -55 -51 -21 -28 -21 -38 -24 -577 l-2
-549 -32 -3 c-38 -4 -58 -30 -42 -55 10 -17 44 -18 474 -18 430 0 464 1 474
18 16 25 -4 51 -43 55 l-31 3 0 160 c0 137 2 159 15 159 9 0 27 -11 40 -25 20
-19 25 -34 25 -73 0 -107 93 -172 180 -127 54 28 60 54 60 270 l0 195 28 0
c50 0 52 10 52 209 0 202 -7 244 -47 292 -49 57 -160 82 -183 40 -13 -25 -13
-27 6 -45 8 -9 29 -16 45 -16 17 0 39 -5 51 -11 24 -13 48 -67 48 -109 l0 -30
-70 0 c-58 0 -71 -3 -80 -19 -5 -11 -10 -78 -10 -150 0 -141 7 -161 56 -161
l24 0 0 -188 c0 -194 -4 -212 -42 -212 -24 0 -38 30 -38 80 0 73 -56 143 -125
156 l-35 6 0 340 c0 376 -2 386 -64 431 -30 21 -39 22 -326 25 -294 3 -296 3
-329 -20z m613 -79 l26 -20 0 -540 0 -539 -320 0 -320 0 0 535 0 536 25 24 24
25 269 0 c257 0 270 -1 296 -21z"/>
<path d="M252 1108 c-17 -17 -17 -439 0 -456 17 -17 439 -17 456 0 13 13 18
421 6 452 -5 14 -35 16 -228 16 -159 0 -225 -3 -234 -12z"/>
</g>
</svg>
