<?xml version="1.0" standalone="no"?>
<!DOCTYPE svg PUBLIC "-//W3C//DTD SVG 20010904//EN"
 "http://www.w3.org/TR/2001/REC-SVG-20010904/DTD/svg10.dtd">
<svg version="1.0" xmlns="http://www.w3.org/2000/svg"
 width="128.000000pt" height="128.000000pt" viewBox="0 0 128.000000 128.000000"
 preserveAspectRatio="xMidYMid meet">
<g transform="translate(0.000000,128.000000) scale(0.100000,-0.100000)"
fill="#000000" stroke="none">
<path d="M160 1095 c0 -20 -5 -25 -25 -25 -24 0 -25 -3 -25 -55 0 -52 1 -55
25 -55 l25 0 0 -375 0 -375 -25 0 c-23 0 -25 -3 -25 -50 l0 -50 130 0 130 0 0
50 c0 47 -2 50 -25 50 l-25 0 0 375 0 375 135 0 135 0 0 -25 c0 -14 5 -25 10
-25 6 0 10 -39 10 -98 0 -86 -3 -101 -20 -117 -23 -21 -26 -52 -6 -81 8 -11
16 -33 18 -49 2 -24 9 -31 33 -35 24 -4 30 -10 30 -30 0 -31 -29 -39 -55 -15
-28 25 -55 16 -55 -20 0 -24 7 -34 36 -49 99 -53 190 74 110 154 -24 24 -26
31 -15 41 18 15 18 64 -1 83 -11 11 -15 39 -15 115 0 61 4 101 10 101 6 0 10
11 10 25 l0 25 135 0 135 0 0 -375 0 -375 -25 0 c-23 0 -25 -3 -25 -50 l0 -50
130 0 130 0 0 50 c0 47 -2 50 -25 50 l-25 0 0 375 0 375 25 0 c24 0 25 3 25
55 0 52 -1 55 -25 55 -20 0 -25 5 -25 25 0 25 -1 25 -80 25 -79 0 -80 0 -80
-25 l0 -25 -320 0 -320 0 0 25 c0 25 -1 25 -80 25 -79 0 -80 0 -80 -25z m81
-249 l-31 -31 0 35 c0 23 8 43 28 63 l27 29 3 -33 c3 -25 -3 -39 -27 -63z
m800 0 l-31 -31 0 35 c0 23 8 43 28 63 l27 29 3 -33 c3 -25 -3 -39 -27 -63z
m-800 -160 l-31 -31 0 35 c0 23 8 43 28 63 l27 29 3 -33 c3 -25 -3 -39 -27
-63z m800 0 l-31 -31 0 35 c0 23 8 43 28 63 l27 29 3 -33 c3 -25 -3 -39 -27
-63z m-800 -160 l-31 -31 0 35 c0 23 8 43 28 63 l27 29 3 -33 c3 -25 -3 -39
-27 -63z m800 0 l-31 -31 0 35 c0 23 8 43 28 63 l27 29 3 -33 c3 -25 -3 -39
-27 -63z m-800 -160 l-31 -31 0 35 c0 23 8 43 28 63 l27 29 3 -33 c3 -25 -3
-39 -27 -63z m800 0 l-31 -31 0 35 c0 23 8 43 28 63 l27 29 3 -33 c3 -25 -3
-39 -27 -63z m-771 -100 c0 -37 -21 -62 -45 -52 -21 8 -19 28 6 60 28 35 39
33 39 -8z m800 0 c0 -37 -21 -62 -45 -52 -21 8 -19 28 6 60 28 35 39 33 39 -8z"/>
</g>
</svg>
