<?xml version="1.0" standalone="no"?>
<!DOCTYPE svg PUBLIC "-//W3C//DTD SVG 20010904//EN"
 "http://www.w3.org/TR/2001/REC-SVG-20010904/DTD/svg10.dtd">
<svg version="1.0" xmlns="http://www.w3.org/2000/svg"
 width="128.000000pt" height="128.000000pt" viewBox="0 0 128.000000 128.000000"
 preserveAspectRatio="xMidYMid meet">
<g transform="translate(0.000000,128.000000) scale(0.100000,-0.100000)"
fill="#000000" stroke="none">
<path d="M220 1120 l0 -60 -60 0 -60 0 0 -35 0 -34 58 -3 57 -3 0 -345 0 -345
-57 -3 -58 -3 0 -34 0 -35 60 0 60 0 0 -60 0 -60 35 0 34 0 3 57 3 58 345 0
345 0 3 -57 3 -58 34 0 35 0 0 60 0 60 60 0 60 0 0 35 0 34 -58 3 -57 3 0 345
0 345 58 3 57 3 0 34 0 35 -60 0 -60 0 0 60 0 60 -35 0 -34 0 -3 -57 -3 -58
-345 0 -345 0 -3 58 -3 57 -34 0 -35 0 0 -60z m765 -480 l0 -345 -345 0 -345
0 -3 335 c-1 184 0 341 3 348 3 10 77 12 347 10 l343 -3 0 -345z"/>
</g>
</svg>
