<?xml version="1.0" standalone="no"?>
<!DOCTYPE svg PUBLIC "-//W3C//DTD SVG 20010904//EN"
 "http://www.w3.org/TR/2001/REC-SVG-20010904/DTD/svg10.dtd">
<svg version="1.0" xmlns="http://www.w3.org/2000/svg"
 width="128.000000pt" height="128.000000pt" viewBox="0 0 128.000000 128.000000"
 preserveAspectRatio="xMidYMid meet">
<g transform="translate(0.000000,128.000000) scale(0.100000,-0.100000)"
fill="#000000" stroke="none">
<path d="M443 683 c37 -2 96 -2 130 0 34 2 4 3 -68 3 -72 0 -99 -1 -62 -3z"/>
<path d="M703 683 c37 -2 96 -2 130 0 34 2 4 3 -68 3 -71 0 -99 -1 -62 -3z"/>
<path d="M263 673 c15 -2 39 -2 55 0 15 2 2 4 -28 4 -30 0 -43 -2 -27 -4z"/>
<path d="M973 673 c15 -2 39 -2 55 0 15 2 2 4 -28 4 -30 0 -43 -2 -27 -4z"/>
<path d="M96 657 l-48 -12 1 -259 c2 -294 -4 -273 91 -300 107 -30 187 -38
416 -43 308 -7 528 15 629 63 32 15 32 15 39 107 3 51 6 169 7 262 l2 170 -49
12 c-27 6 -65 11 -84 11 -22 0 -10 -4 32 -12 113 -20 104 -37 -31 -58 -120
-18 -802 -18 -922 0 -135 21 -144 38 -31 58 42 8 54 12 32 12 -19 0 -57 -5
-84 -11z m169 -77 c208 -19 757 -9 890 16 l35 6 0 -230 0 -230 -47 -16 c-67
-22 -225 -44 -380 -52 l-132 -7 -3 59 -3 59 -70 1 -70 1 -3 52 -3 51 -70 0
-69 0 0 60 0 59 -57 3 -58 3 -3 52 -3 52 -67 3 -67 3 -3 39 -3 39 43 -7 c24
-4 88 -11 143 -16z m-75 -145 l0 -55 55 0 55 0 0 -60 0 -60 75 0 75 0 0 -55 0
-54 72 -3 72 -3 0 -35 -1 -35 -99 3 c-185 5 -364 34 -401 64 -10 8 -13 55 -13
173 0 89 3 165 7 168 3 4 28 7 55 7 l48 0 0 -55z"/>
</g>
</svg>
