<?xml version="1.0" standalone="no"?>
<!DOCTYPE svg PUBLIC "-//W3C//DTD SVG 20010904//EN"
 "http://www.w3.org/TR/2001/REC-SVG-20010904/DTD/svg10.dtd">
<svg version="1.0" xmlns="http://www.w3.org/2000/svg"
 width="128.000000pt" height="128.000000pt" viewBox="0 0 128.000000 128.000000"
 preserveAspectRatio="xMidYMid meet">
<g transform="translate(0.000000,128.000000) scale(0.100000,-0.100000)"
fill="#000000" stroke="none">
<path d="M949 1186 c-130 -84 -249 -172 -249 -184 0 -4 16 -17 36 -30 19 -13
45 -39 56 -58 l21 -35 34 33 c53 51 244 341 232 352 -2 2 -61 -33 -130 -78z"/>
<path d="M117 927 c-53 -6 -97 -13 -97 -16 0 -18 372 -141 426 -141 10 0 14
15 14 53 1 28 7 63 15 77 8 14 14 28 15 33 0 10 -253 6 -373 -6z"/>
<path d="M592 903 c-18 -7 -42 -57 -42 -87 0 -13 12 -38 26 -55 33 -39 80 -42
121 -7 61 52 20 157 -60 155 -18 0 -38 -3 -45 -6z"/>
<path d="M800 740 c-26 -63 -108 -106 -185 -98 l-42 5 -17 -241 c-9 -133 -19
-258 -22 -278 l-6 -38 -84 0 -84 0 0 -45 0 -45 275 0 275 0 0 45 0 45 -89 0
-89 0 -6 63 c-3 34 -8 114 -11 177 -3 63 -8 157 -11 209 l-7 94 79 -60 c100
-75 304 -205 304 -193 0 24 -173 284 -234 353 l-33 37 -13 -30z"/>
</g>
</svg>
