<?xml version="1.0" standalone="no"?>
<!DOCTYPE svg PUBLIC "-//W3C//DTD SVG 20010904//EN"
 "http://www.w3.org/TR/2001/REC-SVG-20010904/DTD/svg10.dtd">
<svg version="1.0" xmlns="http://www.w3.org/2000/svg"
 width="128.000000pt" height="128.000000pt" viewBox="0 0 128.000000 128.000000"
 preserveAspectRatio="xMidYMid meet">
<g transform="translate(0.000000,128.000000) scale(0.100000,-0.100000)"
fill="#000000" stroke="none">
<path d="M681 1127 c2 -1 15 -11 29 -22 l25 -20 -19 23 c-11 12 -24 22 -29 22
-6 0 -8 -1 -6 -3z"/>
<path d="M634 1088 l-29 -33 33 29 c30 28 37 36 29 36 -2 0 -16 -15 -33 -32z"/>
<path d="M435 1069 c-11 -16 -1 -19 13 -3 7 8 8 14 3 14 -5 0 -13 -5 -16 -11z"/>
<path d="M751 1053 c13 -18 30 -32 38 -32 8 -1 12 0 10 2 -2 1 -20 16 -38 32
l-35 30 25 -32z"/>
<path d="M546 1012 l-19 -27 25 23 c16 15 32 20 44 16 16 -5 16 -4 4 5 -23 16
-33 13 -54 -17z"/>
<path d="M631 1013 c3 -2 5 -14 4 -26 -2 -14 -1 -16 2 -3 3 13 11 17 29 13 13
-2 27 0 30 4 3 5 -6 9 -20 9 -13 0 -30 2 -38 3 -7 2 -10 2 -7 0z"/>
<path d="M809 988 c7 -10 10 -18 5 -18 -5 -1 2 -7 16 -15 14 -8 32 -14 40 -14
13 1 13 1 0 6 -8 3 -28 17 -45 32 -16 14 -23 18 -16 9z"/>
<path d="M715 980 c3 -5 8 -10 11 -10 2 0 4 5 4 10 0 6 -5 10 -11 10 -5 0 -7
-4 -4 -10z"/>
<path d="M483 963 c-30 -20 -29 -34 5 -64 l27 -24 -25 28 -25 28 25 19 c30 23
24 34 -7 13z"/>
<path d="M530 963 c8 -3 19 -11 23 -17 6 -7 7 -6 4 4 -2 8 -12 16 -23 17 -13
2 -15 1 -4 -4z"/>
<path d="M387 943 c-4 -3 -7 -13 -7 -22 1 -13 3 -13 11 2 11 19 8 33 -4 20z"/>
<path d="M868 918 c9 -9 5 -20 -20 -48 l-33 -35 37 34 c29 27 35 38 27 48 -6
7 -14 13 -17 13 -3 0 -1 -5 6 -12z"/>
<path d="M950 914 c0 -8 5 -12 10 -9 6 4 8 11 5 16 -9 14 -15 11 -15 -7z"/>
<path d="M256 911 c-4 -5 3 -7 14 -4 23 6 26 13 6 13 -8 0 -17 -4 -20 -9z"/>
<path d="M961 874 c0 -11 3 -14 6 -6 3 7 2 16 -1 19 -3 4 -6 -2 -5 -13z"/>
<path d="M351 835 c-7 -20 -10 -39 -7 -42 3 -4 6 0 6 9 0 8 11 25 25 38 l25
24 33 -29 32 -30 -32 34 c-26 28 -34 32 -46 22 -11 -8 -16 -9 -19 -1 -2 6 -9
-5 -17 -25z"/>
<path d="M554 822 c21 -24 36 -54 37 -70 1 -17 3 -21 6 -9 4 14 8 16 19 6 8
-6 14 -17 14 -24 0 -7 7 -15 14 -18 27 -10 7 18 -61 89 -36 38 -50 50 -29 26z"/>
<path d="M914 818 l-29 -33 32 29 c30 27 52 28 54 3 0 -7 17 -25 37 -42 36
-29 36 -29 -8 22 -25 29 -48 53 -51 53 -3 0 -18 -15 -35 -32z"/>
<path d="M660 817 c0 -14 -2 -31 -3 -39 -2 -7 -2 -9 1 -4 2 4 8 3 12 -4 4 -6
6 5 5 25 -3 42 -15 61 -15 22z"/>
<path d="M785 820 c-10 -11 -21 -17 -26 -15 -4 3 -10 -4 -14 -15 -3 -11 -9
-20 -13 -20 -12 0 -64 -52 -58 -58 3 -3 15 7 27 21 11 15 26 27 32 28 7 0 27
18 46 40 34 39 39 56 6 19z"/>
<path d="M271 804 c0 -11 3 -14 6 -6 3 7 2 16 -1 19 -3 4 -6 -2 -5 -13z"/>
<path d="M291 776 c-14 -15 -19 -26 -12 -31 6 -3 11 -1 11 6 0 7 7 21 17 31
24 27 10 22 -16 -6z"/>
<path d="M497 754 c24 -28 49 -57 58 -64 8 -7 12 -16 9 -21 -3 -5 3 -9 12 -9
15 0 13 5 -9 28 -15 16 -26 30 -24 33 2 2 -17 22 -42 44 l-46 40 42 -51z"/>
<path d="M832 750 c-18 -17 -42 -30 -55 -30 -15 0 -18 -3 -9 -8 9 -7 8 -13 -8
-27 -17 -15 -23 -16 -33 -6 -9 11 -9 14 1 18 6 3 10 9 6 14 -8 14 -24 0 -24
-21 0 -33 35 -33 68 0 17 16 38 30 48 30 9 0 14 3 11 7 -4 3 3 17 15 30 30 32
19 28 -20 -7z"/>
<path d="M976 765 c-3 -8 -1 -15 4 -15 6 0 10 7 10 15 0 8 -2 15 -4 15 -2 0
-6 -7 -10 -15z"/>
<path d="M1050 750 c-6 -19 -7 -41 -2 -36 3 3 17 -4 31 -16 l26 -23 -21 25
c-12 14 -24 32 -27 40 -3 8 -6 13 -7 10z"/>
<path d="M214 708 l-29 -33 33 29 c30 28 37 36 29 36 -2 0 -16 -15 -33 -32z"/>
<path d="M868 733 c7 -3 16 -2 19 1 4 3 -2 6 -13 5 -11 0 -14 -3 -6 -6z"/>
<path d="M291 694 c0 -11 3 -14 6 -6 3 7 2 16 -1 19 -3 4 -6 -2 -5 -13z"/>
<path d="M597 690 c3 -11 7 -20 9 -20 2 0 4 9 4 20 0 11 -4 20 -9 20 -5 0 -7
-9 -4 -20z"/>
<path d="M302 658 c-9 -34 5 -55 31 -44 7 2 4 5 -7 5 -16 1 -18 7 -13 36 7 44
0 46 -11 3z"/>
<path d="M1030 682 c0 -6 -7 -9 -16 -5 -14 5 -14 3 -3 -15 l14 -22 8 22 c4 11
5 23 2 26 -3 3 -5 0 -5 -6z"/>
<path d="M948 663 c6 -2 18 -2 25 0 6 3 1 5 -13 5 -14 0 -19 -2 -12 -5z"/>
<path d="M470 650 c-8 -5 -10 -10 -5 -10 6 0 17 5 25 10 8 5 11 10 5 10 -5 0
-17 -5 -25 -10z"/>
<path d="M515 650 c-3 -5 -2 -10 4 -10 5 0 13 5 16 10 3 6 2 10 -4 10 -5 0
-13 -4 -16 -10z"/>
<path d="M1125 642 c18 -22 18 -23 -6 -50 l-23 -27 29 27 29 28 -24 22 -24 23
19 -23z"/>
<path d="M190 647 c0 -2 15 -16 33 -33 l32 -29 -29 33 c-28 30 -36 37 -36 29z"/>
<path d="M585 637 c-6 -7 -15 -19 -19 -27 -7 -12 -6 -12 4 -3 7 6 18 10 24 9
6 -2 8 -1 4 1 -4 2 -4 11 -1 19 6 17 2 18 -12 1z"/>
<path d="M725 640 c4 -7 2 -16 -5 -20 -8 -5 -3 -8 13 -7 32 2 34 8 6 25 -14 9
-19 10 -14 2z"/>
<path d="M800 638 c0 -4 11 -8 24 -8 14 0 27 4 30 8 3 5 -8 9 -24 9 -17 0 -30
-4 -30 -9z"/>
<path d="M1016 615 c4 -8 8 -15 10 -15 2 0 4 7 4 15 0 8 -4 15 -10 15 -5 0 -7
-7 -4 -15z"/>
<path d="M596 593 c-3 -3 -6 -16 -5 -27 0 -15 2 -17 6 -6 3 8 10 18 16 21 6 4
6 9 -1 12 -5 4 -12 4 -16 0z"/>
<path d="M690 589 c0 -6 -6 -9 -14 -6 -8 3 -24 -6 -37 -20 -16 -16 -19 -24 -9
-21 8 2 19 12 23 23 8 19 9 19 21 3 17 -24 21 -23 22 7 1 14 0 25 -2 25 -2 0
-4 -5 -4 -11z"/>
<path d="M767 589 c7 -9 11 -18 9 -20 -3 -2 6 -9 20 -16 33 -16 29 -3 -9 27
-18 13 -26 18 -20 9z"/>
<path d="M985 590 c-16 -7 -17 -9 -3 -9 9 -1 20 4 23 9 7 11 7 11 -20 0z"/>
<path d="M520 576 c-8 -6 -22 -20 -30 -31 -14 -19 -14 -19 5 -3 11 9 31 21 44
26 18 6 20 10 10 14 -8 3 -21 1 -29 -6z"/>
<path d="M716 575 c4 -8 8 -15 10 -15 2 0 4 7 4 15 0 8 -4 15 -10 15 -5 0 -7
-7 -4 -15z"/>
<path d="M250 577 c0 -2 14 -16 32 -33 31 -29 31 -29 12 -2 -16 23 -44 45 -44
35z"/>
<path d="M1057 544 c-15 -14 -24 -30 -20 -37 5 -8 8 -7 11 3 3 8 14 25 25 38
28 30 18 28 -16 -4z"/>
<path d="M398 543 c7 -3 16 -2 19 1 4 3 -2 6 -13 5 -11 0 -14 -3 -6 -6z"/>
<path d="M580 529 c0 -7 -9 -22 -20 -34 -14 -15 -16 -22 -7 -22 17 0 49 55 36
62 -5 4 -9 1 -9 -6z"/>
<path d="M731 532 c-1 -8 -6 -10 -13 -6 -7 4 -5 -2 5 -13 9 -11 17 -28 18 -39
0 -10 3 -13 6 -6 2 6 10 9 16 5 7 -3 5 2 -4 13 -10 10 -19 28 -22 39 -2 11 -5
14 -6 7z"/>
<path d="M429 493 l-34 -38 38 34 c34 33 42 41 34 41 -2 0 -19 -17 -38 -37z"/>
<path d="M830 517 c0 -2 15 -16 33 -33 l32 -29 -29 33 c-28 30 -36 37 -36 29z"/>
<path d="M651 483 c0 -25 1 -26 9 -8 12 27 12 35 0 35 -5 0 -10 -12 -9 -27z"/>
<path d="M333 483 c9 -11 17 -24 17 -30 0 -13 25 -11 37 2 4 4 3 5 -4 1 -6 -3
-18 2 -25 12 -7 10 -20 22 -28 27 -11 6 -10 3 3 -12z"/>
<path d="M976 473 c-14 -14 -24 -28 -21 -31 3 -3 6 -3 8 -1 1 2 13 16 26 32
31 35 22 35 -13 0z"/>
<path d="M494 438 l-29 -33 33 29 c30 28 37 36 29 36 -2 0 -16 -15 -33 -32z"/>
<path d="M800 425 c19 -19 36 -35 39 -35 3 0 -10 16 -29 35 -19 19 -36 35 -39
35 -3 0 10 -16 29 -35z"/>
<path d="M752 420 c0 -14 2 -19 5 -12 2 6 2 18 0 25 -3 6 -5 1 -5 -13z"/>
<path d="M910 426 c7 -7 13 -7 20 0 6 6 3 10 -10 10 -13 0 -16 -4 -10 -10z"/>
<path d="M362 395 c0 -11 4 -31 8 -45 l8 -25 0 25 c0 14 -3 34 -8 45 l-9 20 1
-20z"/>
<path d="M441 388 c-1 -9 4 -20 9 -23 6 -4 8 -10 5 -14 -2 -5 8 -14 23 -20
l27 -13 -26 29 c-15 15 -29 35 -32 43 -4 12 -6 12 -6 -2z"/>
<path d="M849 369 c7 -8 -5 -26 -37 -56 -32 -31 -35 -35 -9 -14 21 17 44 31
51 31 17 0 15 26 -2 40 -9 7 -9 7 -3 -1z"/>
<path d="M1048 373 c7 -3 16 -2 19 1 4 3 -2 6 -13 5 -11 0 -14 -3 -6 -6z"/>
<path d="M926 354 c-6 -15 -1 -16 28 -5 19 7 19 8 -1 13 -14 4 -24 0 -27 -8z"/>
<path d="M681 334 c0 -11 3 -14 6 -6 3 7 2 16 -1 19 -3 4 -6 -2 -5 -13z"/>
<path d="M778 323 c7 -3 16 -2 19 1 4 3 -2 6 -13 5 -11 0 -14 -3 -6 -6z"/>
<path d="M516 288 c10 -15 25 -28 33 -28 8 0 12 1 10 3 -2 1 -17 13 -33 27
l-29 25 19 -27z"/>
<path d="M630 288 c0 -10 42 -10 58 0 8 5 -1 8 -23 8 -19 -1 -35 -4 -35 -8z"/>
<path d="M598 273 c7 -3 16 -2 19 1 4 3 -2 6 -13 5 -11 0 -14 -3 -6 -6z"/>
<path d="M714 228 l-29 -33 35 30 c19 17 37 31 39 33 2 1 0 2 -5 2 -6 0 -23
-15 -40 -32z"/>
<path d="M560 237 c0 -2 15 -16 33 -33 l32 -29 -29 33 c-28 30 -36 37 -36 29z"/>
<path d="M646 175 c-11 -8 -15 -15 -9 -15 6 0 16 7 23 15 16 19 11 19 -14 0z"/>
</g>
</svg>
