<?xml version="1.0" standalone="no"?>
<!DOCTYPE svg PUBLIC "-//W3C//DTD SVG 20010904//EN"
 "http://www.w3.org/TR/2001/REC-SVG-20010904/DTD/svg10.dtd">
<svg version="1.0" xmlns="http://www.w3.org/2000/svg"
 width="128.000000pt" height="128.000000pt" viewBox="0 0 128.000000 128.000000"
 preserveAspectRatio="xMidYMid meet">
<g transform="translate(0.000000,128.000000) scale(0.100000,-0.100000)"
fill="#000000" stroke="none">
<path d="M135 1270 c-11 -19 6 -30 46 -30 l39 0 0 -45 c0 -36 4 -47 25 -61 23
-15 25 -22 25 -94 0 -64 3 -80 20 -95 28 -26 28 -105 0 -123 -11 -7 -20 -23
-20 -36 0 -18 -13 -32 -57 -58 -57 -33 -58 -35 -61 -82 -3 -41 1 -53 22 -75
23 -24 25 -35 28 -121 l3 -95 125 0 125 0 3 95 c3 86 5 97 28 121 21 22 25 34
22 75 -3 48 -5 50 -57 81 -37 22 -56 40 -58 55 -2 13 -12 30 -23 40 -29 24
-27 94 2 125 18 20 23 39 27 101 3 61 7 80 22 90 14 9 19 25 19 57 l0 44 43 3
c29 2 42 8 42 18 0 13 -29 15 -192 18 -122 1 -194 -1 -198 -8z m265 -65 l0
-35 -70 0 -70 0 0 35 0 35 70 0 70 0 0 -35z m-50 -100 c0 -18 -5 -25 -20 -25
-15 0 -20 7 -20 25 0 18 5 25 20 25 15 0 20 -7 20 -25z m-2 -97 c-2 -21 -8
-33 -18 -33 -10 0 -16 12 -18 33 -3 27 0 32 18 32 18 0 21 -5 18 -32z m0 -236
c2 -14 -2 -22 -12 -22 -19 0 -29 17 -22 36 8 22 30 12 34 -14z m76 -77 c29
-16 36 -25 36 -50 l0 -30 -130 0 -130 0 0 30 c0 24 8 34 36 50 47 27 137 27
188 0z m-112 -152 c4 -37 32 -37 36 0 3 24 8 27 38 27 l34 0 0 -85 0 -85 -90
0 -90 0 0 85 0 85 34 0 c30 0 35 -3 38 -27z"/>
<path d="M517 524 c-4 -4 -7 -54 -7 -111 l0 -103 -168 0 c-154 0 -171 -2 -212
-22 -104 -53 -112 -191 -17 -262 28 -21 39 -21 505 -24 319 -2 489 0 514 8 20
6 48 24 62 41 76 89 39 216 -72 250 l-41 12 -3 106 -3 106 -125 0 -125 0 -3
-107 c-3 -107 -3 -108 -27 -108 -24 0 -24 1 -27 108 l-3 107 -121 3 c-66 1
-123 -1 -127 -4z m105 -66 c4 -45 32 -45 36 0 3 29 6 32 38 32 l34 0 0 -90 0
-90 -90 0 -90 0 0 90 0 90 34 0 c32 0 35 -3 38 -32z m310 0 c2 -21 8 -33 18
-33 10 0 16 12 18 33 3 29 6 32 38 32 l34 0 0 -90 0 -90 -90 0 -90 0 0 90 0
90 34 0 c32 0 35 -3 38 -32z m180 -198 c80 -23 106 -119 49 -182 l-29 -33
-492 0 -492 0 -29 33 c-55 61 -31 159 44 181 45 13 902 14 949 1z"/>
<path d="M155 195 c-28 -27 -30 -37 -14 -68 16 -29 28 -37 60 -37 54 0 79 70
39 110 -27 27 -56 25 -85 -5z m63 -38 c4 -22 -27 -35 -38 -16 -10 15 7 42 24
36 6 -2 12 -11 14 -20z"/>
<path d="M332 200 c-27 -26 -28 -64 -2 -90 26 -26 64 -26 90 0 27 27 25 62 -3
88 -29 27 -57 28 -85 2z m64 -59 c-10 -16 -36 -13 -43 5 -8 22 18 37 36 20 7
-8 10 -19 7 -25z"/>
<path d="M512 204 c-15 -10 -22 -25 -22 -48 0 -64 70 -90 109 -40 27 34 26 50
-4 79 -28 29 -51 31 -83 9z m56 -52 c2 -14 -2 -22 -12 -22 -19 0 -29 17 -22
36 8 22 30 12 34 -14z"/>
<path d="M685 195 c-30 -29 -31 -45 -4 -79 40 -50 109 -24 109 42 0 21 -7 36
-22 46 -32 22 -55 20 -83 -9z m60 -41 c0 -10 -8 -20 -17 -22 -18 -3 -26 27
-11 42 12 11 28 0 28 -20z"/>
<path d="M862 197 c-27 -29 -28 -61 -2 -87 26 -26 64 -26 90 0 26 26 25 64 -2
90 -29 26 -59 25 -86 -3z m68 -43 c0 -19 -28 -30 -42 -16 -8 8 -8 15 1 26 14
17 41 10 41 -10z"/>
<path d="M1040 200 c-40 -40 -14 -110 41 -110 30 0 43 9 58 37 16 31 14 41
-14 68 -29 30 -58 32 -85 5z m57 -31 c14 -14 6 -39 -12 -39 -18 0 -28 17 -21
35 6 18 18 19 33 4z"/>
</g>
</svg>
