<?xml version="1.0" standalone="no"?>
<!DOCTYPE svg PUBLIC "-//W3C//DTD SVG 20010904//EN"
 "http://www.w3.org/TR/2001/REC-SVG-20010904/DTD/svg10.dtd">
<svg version="1.0" xmlns="http://www.w3.org/2000/svg"
 width="128.000000pt" height="128.000000pt" viewBox="0 0 128.000000 128.000000"
 preserveAspectRatio="xMidYMid meet">
<g transform="translate(0.000000,128.000000) scale(0.100000,-0.100000)"
fill="#000000" stroke="none">
<path d="M452 1236 c-66 -72 -67 -107 -5 -197 76 -111 75 -161 -7 -287 -57
-90 -70 -121 -70 -167 0 -31 8 -45 92 -167 14 -21 29 -57 32 -80 7 -48 -14
-183 -43 -276 l-19 -62 424 0 424 0 0 640 0 640 -394 0 -393 0 -41 -44z"/>
</g>
</svg>
