<?xml version="1.0" standalone="no"?>
<!DOCTYPE svg PUBLIC "-//W3C//DTD SVG 20010904//EN"
 "http://www.w3.org/TR/2001/REC-SVG-20010904/DTD/svg10.dtd">
<svg version="1.0" xmlns="http://www.w3.org/2000/svg"
 width="128.000000pt" height="128.000000pt" viewBox="0 0 128.000000 128.000000"
 preserveAspectRatio="xMidYMid meet">
<g transform="translate(0.000000,128.000000) scale(0.100000,-0.100000)"
fill="#000000" stroke="none">
<path d="M402 1013 l3 -108 235 0 235 0 3 108 3 107 -241 0 -241 0 3 -107z
m436 0 l3 -63 -201 0 -200 0 0 58 c0 32 3 62 7 66 4 3 93 5 197 4 l191 -3 3
-62z"/>
<path d="M917 1114 c-4 -4 -7 -49 -7 -99 0 -67 4 -96 14 -104 9 -8 48 -11 112
-9 l99 3 0 105 0 105 -106 3 c-58 1 -108 -1 -112 -4z m173 -99 l0 -65 -65 0
-65 0 0 65 0 65 65 0 65 0 0 -65z"/>
<path d="M147 863 c-4 -3 -7 -50 -7 -104 0 -79 3 -98 16 -103 9 -3 114 -6 234
-6 207 0 220 1 230 19 11 21 14 159 4 185 -5 14 -36 16 -238 16 -128 0 -236
-3 -239 -7z m433 -98 l0 -65 -195 0 -195 0 0 65 0 65 195 0 195 0 0 -65z"/>
<path d="M656 854 c-3 -8 -6 -53 -6 -99 0 -73 3 -86 19 -95 23 -12 440 -14
459 -2 9 6 12 35 10 108 l-3 99 -236 3 c-209 2 -237 1 -243 -14z m434 -89 l0
-65 -195 0 -195 0 0 65 0 65 195 0 195 0 0 -65z"/>
<path d="M152 622 c-9 -6 -12 -35 -10 -108 l3 -99 110 0 110 0 3 94 c2 60 -1
98 -9 107 -13 16 -184 20 -207 6z m168 -107 l0 -65 -65 0 -65 0 0 65 0 65 65
0 65 0 0 -65z"/>
<path d="M413 623 c-9 -3 -13 -35 -13 -109 l0 -104 240 0 240 0 0 104 c0 85
-3 105 -16 110 -19 7 -433 7 -451 -1z m425 -105 l-3 -63 -195 0 -195 0 -3 63
-3 62 201 0 201 0 -3 -62z"/>
<path d="M921 616 c-8 -9 -11 -47 -9 -107 l3 -94 110 0 110 0 3 99 c2 73 -1
102 -10 108 -23 14 -194 10 -207 -6z m169 -101 l0 -65 -65 0 -65 0 0 65 0 65
65 0 65 0 0 -65z"/>
<path d="M144 367 c-3 -8 -3 -56 -2 -108 l3 -94 234 -3 c181 -2 236 1 243 10
13 21 10 182 -4 196 -18 18 -467 17 -474 -1z m436 -102 l0 -65 -195 0 -195 0
0 65 0 65 195 0 195 0 0 -65z"/>
<path d="M662 368 c-14 -14 -17 -175 -4 -196 7 -9 62 -12 243 -10 l234 3 0
105 0 105 -230 3 c-171 2 -234 -1 -243 -10z m428 -103 l0 -65 -195 0 -195 0 0
65 0 65 195 0 195 0 0 -65z"/>
</g>
</svg>
