<?xml version="1.0" standalone="no"?>
<!DOCTYPE svg PUBLIC "-//W3C//DTD SVG 20010904//EN"
 "http://www.w3.org/TR/2001/REC-SVG-20010904/DTD/svg10.dtd">
<svg version="1.0" xmlns="http://www.w3.org/2000/svg"
 width="128.000000pt" height="128.000000pt" viewBox="0 0 128.000000 128.000000"
 preserveAspectRatio="xMidYMid meet">
<g transform="translate(0.000000,128.000000) scale(0.100000,-0.100000)"
fill="#000000" stroke="none">
<path d="M594 1159 c-36 -10 -91 -67 -100 -103 -3 -12 -4 -162 -2 -332 l3
-309 29 -62 c16 -35 35 -68 42 -74 25 -20 15 -35 -38 -60 -42 -20 -67 -24
-137 -24 -73 0 -94 4 -136 27 -28 14 -70 47 -94 73 -76 83 -75 77 -81 475 l-5
355 -37 3 -38 3 0 -335 c0 -303 2 -340 19 -397 54 -172 201 -281 381 -282 80
0 165 24 218 61 27 20 28 20 52 1 66 -51 196 -77 287 -59 147 31 254 126 302
268 20 57 21 84 21 402 l0 341 -37 -3 -38 -3 -5 -355 -5 -355 -27 -51 c-71
-134 -227 -202 -370 -160 -31 9 -65 24 -77 33 l-22 18 27 39 c58 85 64 128 64
460 0 298 0 304 -22 336 -44 64 -108 89 -174 69z m95 -88 c30 -30 33 -69 29
-358 -5 -283 -11 -323 -58 -383 l-20 -25 -20 25 c-47 60 -53 100 -58 383 -2
148 -1 284 3 303 8 45 37 74 75 74 17 0 39 -9 49 -19z"/>
</g>
</svg>
