<?xml version="1.0" standalone="no"?>
<!DOCTYPE svg PUBLIC "-//W3C//DTD SVG 20010904//EN"
 "http://www.w3.org/TR/2001/REC-SVG-20010904/DTD/svg10.dtd">
<svg version="1.0" xmlns="http://www.w3.org/2000/svg"
 width="128.000000pt" height="128.000000pt" viewBox="0 0 128.000000 128.000000"
 preserveAspectRatio="xMidYMid meet">
<g transform="translate(0.000000,128.000000) scale(0.100000,-0.100000)"
fill="#000000" stroke="none">
<path d="M601 1163 c-27 -27 -231 -372 -231 -392 0 -5 7 -17 16 -25 12 -13 40
-16 142 -16 113 0 131 -3 166 -23 69 -40 94 -119 59 -192 -15 -31 -15 -40 -4
-68 23 -54 24 -96 6 -143 -16 -41 -16 -48 -1 -85 9 -21 16 -54 16 -72 0 -18 5
-38 12 -45 9 -9 73 -12 228 -12 203 0 218 1 238 20 30 29 38 66 20 104 -40 82
-542 943 -560 959 -30 25 -73 21 -107 -10z"/>
<path d="M50 643 c-48 -18 -63 -60 -34 -101 15 -22 16 -22 323 -22 286 0 309
1 324 18 18 19 22 59 9 79 -18 28 -69 33 -335 32 -150 0 -279 -3 -287 -6z"/>
<path d="M20 410 c-28 -28 -25 -64 6 -89 26 -20 38 -21 318 -21 327 0 336 2
336 64 0 66 -2 66 -338 66 -289 0 -303 -1 -322 -20z"/>
<path d="M26 199 c-31 -25 -34 -61 -6 -89 19 -19 33 -20 323 -20 282 0 305 1
320 18 25 27 22 78 -5 96 -19 14 -66 16 -314 16 -280 0 -292 -1 -318 -21z"/>
</g>
</svg>
