<?xml version="1.0" standalone="no"?>
<!DOCTYPE svg PUBLIC "-//W3C//DTD SVG 20010904//EN"
 "http://www.w3.org/TR/2001/REC-SVG-20010904/DTD/svg10.dtd">
<svg version="1.0" xmlns="http://www.w3.org/2000/svg"
 width="128.000000pt" height="128.000000pt" viewBox="0 0 128.000000 128.000000"
 preserveAspectRatio="xMidYMid meet">
<g transform="translate(0.000000,128.000000) scale(0.100000,-0.100000)"
fill="#000000" stroke="none">
<path d="M158 914 l-158 -275 158 -274 157 -274 325 0 325 0 157 274 158 274
-158 275 -157 275 -325 0 -325 0 -157 -275z m623 146 c270 -91 389 -400 252
-652 -38 -69 -130 -153 -210 -190 -57 -27 -83 -33 -160 -36 -121 -6 -207 19
-295 86 -118 89 -181 217 -180 366 2 202 128 369 327 432 64 20 196 17 266 -6z"/>
<path d="M516 1010 c-94 -30 -92 -40 7 -40 l87 0 0 30 c0 36 -10 37 -94 10z"/>
<path d="M670 1000 l0 -30 93 0 c103 0 103 7 -2 40 -84 27 -91 26 -91 -10z"/>
<path d="M326 876 c-20 -23 -36 -46 -36 -50 0 -3 72 -6 160 -6 l160 0 0 50 0
50 -124 0 -125 0 -35 -44z"/>
<path d="M670 870 l0 -50 160 0 c88 0 160 4 160 8 0 5 -16 27 -36 50 l-36 42
-124 0 -124 0 0 -50z"/>
<path d="M256 753 c-2 -10 -7 -33 -11 -50 l-7 -33 186 0 186 0 0 50 0 50 -174
0 c-158 0 -175 -2 -180 -17z"/>
<path d="M670 720 l0 -50 185 0 c202 0 193 -3 174 63 l-10 37 -174 0 -175 0 0
-50z"/>
<path d="M240 593 c0 -16 3 -38 6 -50 l6 -23 388 0 c429 0 400 -5 400 66 l0
34 -400 0 -400 0 0 -27z"/>
<path d="M280 452 c0 -5 14 -28 30 -50 l30 -42 298 0 c297 0 299 0 319 23 20
21 43 60 43 71 0 3 -162 6 -360 6 -198 0 -360 -4 -360 -8z"/>
<path d="M435 285 c117 -73 293 -73 410 0 l40 24 -245 0 -245 0 40 -24z"/>
</g>
</svg>
