<?xml version="1.0" standalone="no"?>
<!DOCTYPE svg PUBLIC "-//W3C//DTD SVG 20010904//EN"
 "http://www.w3.org/TR/2001/REC-SVG-20010904/DTD/svg10.dtd">
<svg version="1.0" xmlns="http://www.w3.org/2000/svg"
 width="128.000000pt" height="128.000000pt" viewBox="0 0 128.000000 128.000000"
 preserveAspectRatio="xMidYMid meet">
<g transform="translate(0.000000,128.000000) scale(0.100000,-0.100000)"
fill="#000000" stroke="none">
<path d="M910 1186 l0 -94 69 -56 c39 -31 72 -56 75 -56 4 0 6 68 6 150 l0
150 -75 0 -75 0 0 -94z"/>
<path d="M556 1059 c-27 -4 -53 -12 -58 -17 -5 -5 -8 -42 -6 -83 l3 -74 278
-3 c166 -1 277 1 275 7 -7 20 -105 92 -165 121 -62 31 -187 60 -248 58 -16 0
-52 -4 -79 -9z"/>
<path d="M355 989 c-58 -37 -125 -91 -125 -101 0 -5 45 -8 100 -8 l100 0 0 70
c0 82 -4 84 -75 39z"/>
<path d="M148 782 c-19 -32 -52 -115 -62 -154 l-6 -28 255 0 255 0 0 105 0
105 -213 0 -213 0 -16 -28z"/>
<path d="M670 705 l0 -105 265 0 265 0 -6 28 c-10 39 -43 122 -62 154 l-16 28
-223 0 -223 0 0 -105z"/>
<path d="M72 403 l3 -118 65 0 65 0 3 48 c3 42 6 47 27 47 21 0 24 -5 27 -47
l3 -48 67 -3 67 -3 20 39 c52 102 167 157 275 133 64 -14 136 -71 167 -133
l20 -39 67 3 67 3 3 48 c3 42 6 47 27 47 21 0 24 -5 27 -47 l3 -48 65 0 65 0
3 118 3 117 -571 0 -571 0 3 -117z"/>
<path d="M70 105 l0 -105 165 0 165 0 0 105 0 105 -70 0 -70 0 0 -35 c0 -31
-3 -35 -25 -35 -22 0 -25 4 -25 35 l0 35 -70 0 -70 0 0 -105z"/>
<path d="M880 105 l0 -105 165 0 165 0 0 105 0 105 -70 0 -70 0 0 -35 c0 -31
-3 -35 -25 -35 -22 0 -25 4 -25 35 l0 35 -70 0 -70 0 0 -105z"/>
</g>
</svg>
