<?xml version="1.0" standalone="no"?>
<!DOCTYPE svg PUBLIC "-//W3C//DTD SVG 20010904//EN"
 "http://www.w3.org/TR/2001/REC-SVG-20010904/DTD/svg10.dtd">
<svg version="1.0" xmlns="http://www.w3.org/2000/svg"
 width="128.000000pt" height="128.000000pt" viewBox="0 0 128.000000 128.000000"
 preserveAspectRatio="xMidYMid meet">
<g transform="translate(0.000000,128.000000) scale(0.100000,-0.100000)"
fill="#000000" stroke="none">
<path d="M490 1204 l-125 -65 -13 -47 c-18 -62 -19 -200 -3 -289 l13 -73 44 0
c43 0 44 -1 44 -32 -1 -18 -20 -183 -44 -366 l-42 -332 273 0 c212 0 273 3
273 13 0 6 -20 169 -45 362 -25 192 -45 351 -45 352 0 1 21 3 47 5 l48 3 13
55 c18 74 18 243 1 300 -14 44 -16 46 -144 112 -72 37 -139 67 -150 67 -11 -1
-76 -30 -145 -65z m384 -145 c3 -17 6 -64 6 -104 0 -40 -3 -87 -6 -104 l-6
-31 -229 0 -229 0 -7 28 c-10 35 -10 179 0 215 l7 27 229 0 229 0 6 -31z"/>
<path d="M54 1128 c-10 -16 17 -33 108 -68 91 -35 94 -35 101 -16 8 19 -4 27
-95 64 -83 35 -103 38 -114 20z"/>
<path d="M1093 1103 c-77 -33 -98 -53 -73 -68 6 -4 53 10 105 30 74 29 95 41
95 56 0 28 -31 23 -127 -18z"/>
<path d="M53 964 c-10 -26 16 -34 107 -34 91 0 117 8 107 34 -5 13 -24 16
-107 16 -83 0 -102 -3 -107 -16z"/>
<path d="M1007 966 c-11 -27 17 -36 108 -36 96 0 122 8 112 34 -5 13 -24 16
-111 16 -79 0 -105 -3 -109 -14z"/>
<path d="M146 841 c-89 -37 -112 -55 -82 -67 17 -6 145 37 183 62 22 14 22 45
-1 43 -6 0 -51 -17 -100 -38z"/>
<path d="M1013 864 c-8 -21 0 -26 92 -63 92 -36 115 -38 115 -13 0 13 -24 27
-94 55 -52 20 -97 37 -100 37 -4 0 -9 -7 -13 -16z"/>
</g>
</svg>
