<?xml version="1.0" standalone="no"?>
<!DOCTYPE svg PUBLIC "-//W3C//DTD SVG 20010904//EN"
 "http://www.w3.org/TR/2001/REC-SVG-20010904/DTD/svg10.dtd">
<svg version="1.0" xmlns="http://www.w3.org/2000/svg"
 width="128.000000pt" height="128.000000pt" viewBox="0 0 128.000000 128.000000"
 preserveAspectRatio="xMidYMid meet">
<g transform="translate(0.000000,128.000000) scale(0.100000,-0.100000)"
fill="#000000" stroke="none">
<path d="M500 1264 c-234 -50 -436 -254 -485 -489 -95 -454 306 -855 760 -760
238 50 440 252 490 490 95 456 -309 857 -765 759z m294 -50 c92 -22 192 -81
266 -154 232 -233 232 -607 0 -840 -233 -232 -607 -232 -840 0 -114 114 -173
258 -173 420 0 162 59 306 173 420 64 64 160 123 240 149 99 31 219 33 334 5z"/>
<path d="M501 1175 c-187 -53 -329 -188 -386 -367 -30 -93 -32 -136 -8 -154
17 -13 17 -15 0 -28 -21 -16 -22 -53 -2 -126 50 -189 206 -345 395 -395 69
-18 209 -19 275 -1 186 49 333 189 390 368 31 99 33 144 5 151 -11 3 -20 10
-20 17 0 7 9 14 20 17 28 7 26 52 -5 152 -50 157 -185 297 -337 351 -83 29
-249 37 -327 15z m234 -34 c25 -5 31 -12 33 -39 3 -28 7 -32 33 -32 22 0 29 5
29 20 0 11 5 20 10 20 6 0 19 -9 30 -20 11 -11 27 -20 35 -20 8 0 30 -14 50
-31 35 -31 35 -31 35 -115 l0 -84 29 0 c29 0 30 2 33 53 l3 52 37 -75 36 -75
-69 -3 -69 -3 0 -34 0 -35 73 0 c41 0 77 -3 80 -7 4 -3 0 -15 -10 -25 -12 -14
-31 -18 -80 -18 l-63 0 0 -30 0 -30 63 0 c49 0 68 -4 80 -18 19 -21 13 -32
-15 -32 -16 0 -18 -9 -18 -72 0 -58 -5 -79 -25 -115 -21 -35 -31 -43 -55 -43
-26 0 -30 -4 -30 -28 0 -16 -9 -37 -20 -47 -20 -18 -20 -17 -20 28 0 47 0 47
-35 47 l-35 0 0 -70 c0 -58 -3 -71 -19 -80 -11 -5 -22 -10 -25 -10 -3 0 -6 36
-6 80 l0 80 -30 0 -30 0 0 -84 c0 -59 4 -86 13 -89 21 -7 -92 -27 -151 -26
-54 1 -176 25 -139 28 15 1 17 12 17 86 l0 85 -30 0 -30 0 0 -80 c0 -44 -3
-80 -6 -80 -3 0 -14 5 -25 10 -16 9 -19 22 -19 80 l0 70 -30 0 c-29 0 -30 -2
-30 -45 0 -25 -3 -45 -7 -45 -18 0 -43 36 -43 62 0 24 -4 28 -30 28 -24 0 -34
8 -55 43 -20 36 -25 57 -25 115 0 63 -2 72 -18 72 -28 0 -34 11 -15 32 12 14
31 18 80 18 l63 0 0 30 0 30 -63 0 c-49 0 -68 4 -80 18 -10 10 -14 22 -10 25
3 4 39 7 80 7 l73 0 0 35 0 34 -69 3 -69 3 36 75 37 75 3 -53 3 -53 32 3 32 3
1 85 c2 81 3 85 33 112 17 15 38 28 46 28 8 0 24 9 35 20 11 11 25 20 30 20 6
0 10 -9 10 -20 0 -15 7 -20 29 -20 26 0 30 4 33 32 4 39 24 46 128 46 36 0 79
-3 95 -7z"/>
<path d="M560 1090 l0 -31 83 3 c81 3 82 3 85 31 l3 27 -85 0 -86 0 0 -30z"/>
<path d="M340 980 l0 -30 85 0 85 0 0 30 0 30 -85 0 -85 0 0 -30z"/>
<path d="M550 925 l0 -85 30 0 30 0 0 85 0 85 -30 0 -30 0 0 -85z"/>
<path d="M670 925 l0 -85 30 0 30 0 0 85 0 85 -30 0 -30 0 0 -85z"/>
<path d="M770 980 l0 -30 85 0 85 0 0 30 0 30 -85 0 -85 0 0 -30z"/>
<path d="M340 870 l0 -30 85 0 85 0 0 30 0 30 -85 0 -85 0 0 -30z"/>
<path d="M770 870 l0 -30 85 0 85 0 0 30 0 30 -85 0 -85 0 0 -30z"/>
<path d="M560 755 l0 -36 83 3 82 3 0 30 0 30 -82 3 -83 3 0 -36z"/>
<path d="M340 695 l0 -85 30 0 30 0 0 85 0 85 -30 0 -30 0 0 -85z"/>
<path d="M450 695 l0 -85 30 0 30 0 0 85 0 85 -30 0 -30 0 0 -85z"/>
<path d="M770 695 l0 -85 30 0 30 0 0 85 0 85 -30 0 -30 0 0 -85z"/>
<path d="M882 698 l3 -83 30 0 30 0 3 83 3 82 -36 0 -36 0 3 -82z"/>
<path d="M560 640 l0 -30 85 0 85 0 0 30 0 30 -85 0 -85 0 0 -30z"/>
<path d="M237 554 c-4 -4 -7 -43 -7 -86 l0 -78 35 0 36 0 -3 83 c-3 79 -4 82
-28 85 -14 2 -29 0 -33 -4z"/>
<path d="M340 530 l0 -30 85 0 85 0 0 30 0 30 -85 0 -85 0 0 -30z"/>
<path d="M557 554 c-4 -4 -7 -43 -7 -86 l0 -78 30 0 30 0 0 75 c0 41 0 78 0
83 1 10 -44 15 -53 6z"/>
<path d="M670 475 l0 -85 30 0 30 0 0 85 0 85 -30 0 -30 0 0 -85z"/>
<path d="M770 530 l0 -30 85 0 85 0 0 30 0 30 -85 0 -85 0 0 -30z"/>
<path d="M990 475 l0 -85 30 0 30 0 0 85 0 85 -30 0 -30 0 0 -85z"/>
<path d="M340 415 l0 -35 86 0 85 0 -3 33 -3 32 -82 3 -83 3 0 -36z"/>
<path d="M774 436 c-3 -8 -4 -23 -2 -33 3 -15 15 -18 86 -21 l82 -3 0 36 0 35
-80 0 c-61 0 -82 -4 -86 -14z"/>
<path d="M560 300 l0 -31 83 3 c81 3 82 3 85 31 l3 27 -85 0 -86 0 0 -30z"/>
<path d="M560 190 l0 -30 86 0 85 0 -3 28 c-3 27 -4 27 -85 30 l-83 3 0 -31z"/>
</g>
</svg>
