<?xml version="1.0" standalone="no"?>
<!DOCTYPE svg PUBLIC "-//W3C//DTD SVG 20010904//EN"
 "http://www.w3.org/TR/2001/REC-SVG-20010904/DTD/svg10.dtd">
<svg version="1.0" xmlns="http://www.w3.org/2000/svg"
 width="128.000000pt" height="128.000000pt" viewBox="0 0 128.000000 128.000000"
 preserveAspectRatio="xMidYMid meet">
<g transform="translate(0.000000,128.000000) scale(0.100000,-0.100000)"
fill="#000000" stroke="none">
<path d="M650 1210 c0 -66 -1 -70 -25 -76 -14 -3 -29 -12 -33 -20 -11 -20
-462 -230 -512 -238 -71 -11 -91 -38 -42 -57 l27 -11 -27 -14 c-39 -21 -46
-59 -17 -90 36 -39 116 -57 228 -52 108 5 173 30 193 74 10 21 8 28 -17 54
l-29 30 100 0 c86 0 96 -2 74 -13 -35 -18 -38 -45 -6 -53 36 -9 36 -49 1 -58
-16 -4 -25 -13 -25 -26 0 -13 9 -22 25 -26 39 -10 35 -56 -6 -71 -36 -14 -34
-32 4 -51 36 -18 37 -59 2 -72 -32 -12 -32 -38 0 -50 19 -7 25 -17 25 -40 0
-27 -3 -30 -30 -30 -19 0 -34 -7 -42 -20 -7 -11 -18 -20 -25 -20 -7 0 -13 -4
-13 -10 0 -6 65 -10 175 -10 110 0 175 4 175 10 0 6 -6 10 -13 10 -7 0 -18 9
-25 20 -7 11 -21 20 -32 20 -16 0 -20 7 -20 34 0 28 4 35 22 38 33 4 35 36 4
48 -34 13 -37 60 -4 75 32 15 33 33 4 45 -34 13 -37 61 -4 75 33 15 35 43 4
51 -19 4 -26 13 -26 29 0 16 7 25 26 29 32 8 29 35 -6 53 -22 11 -17 13 52 13
l76 0 -29 -29 c-16 -16 -29 -35 -29 -41 0 -23 60 -68 104 -79 63 -16 193 -14
252 4 95 28 122 95 53 131 l-32 16 23 11 c40 20 34 35 -21 51 -93 28 -467 209
-473 229 -2 10 -14 21 -25 24 -47 12 -15 23 69 23 83 0 90 1 90 20 0 19 -7 20
-89 20 -121 0 -129 18 -9 22 88 3 93 4 96 26 3 21 1 22 -87 22 -49 0 -93 5
-96 10 -3 6 -13 10 -21 10 -11 0 -14 -16 -14 -70z m-82 -146 c-35 -18 -36 -37
-3 -52 14 -6 25 -16 25 -22 0 -6 -11 -15 -25 -20 -14 -5 -25 -16 -25 -25 0 -9
11 -20 25 -25 14 -5 25 -16 25 -25 0 -13 -29 -15 -217 -15 -119 0 -214 2 -212
4 11 11 406 194 419 195 8 0 3 -7 -12 -15z m397 -98 c86 -41 159 -77 162 -80
4 -3 -82 -6 -190 -6 -170 0 -197 2 -197 15 0 9 11 20 25 25 14 5 25 16 25 25
0 9 -11 20 -25 25 -14 5 -25 16 -25 24 0 7 11 17 25 20 14 4 25 11 25 16 0 17
14 12 175 -64z m-689 -176 c12 0 33 -9 48 -21 20 -16 24 -24 16 -39 -31 -58
-227 -48 -238 12 -5 27 83 62 133 52 11 -2 30 -4 41 -4z m877 -17 c90 -45 -78
-110 -177 -69 -45 19 -53 34 -28 58 37 38 142 43 205 11z"/>
<path d="M920 1235 l0 -25 125 0 125 0 0 25 0 25 -125 0 -125 0 0 -25z"/>
<path d="M920 1170 c0 -19 7 -20 125 -20 118 0 125 1 125 20 0 19 -7 20 -125
20 -118 0 -125 -1 -125 -20z"/>
</g>
</svg>
