<?xml version="1.0" standalone="no"?>
<!DOCTYPE svg PUBLIC "-//W3C//DTD SVG 20010904//EN"
 "http://www.w3.org/TR/2001/REC-SVG-20010904/DTD/svg10.dtd">
<svg version="1.0" xmlns="http://www.w3.org/2000/svg"
 width="128.000000pt" height="128.000000pt" viewBox="0 0 128.000000 128.000000"
 preserveAspectRatio="xMidYMid meet">
<g transform="translate(0.000000,128.000000) scale(0.100000,-0.100000)"
fill="#000000" stroke="none">
<path d="M260 641 l0 -441 45 0 45 0 0 365 c0 313 2 365 15 365 21 0 55 40 55
65 0 26 -18 45 -42 45 -9 0 -21 7 -25 15 -5 7 -27 17 -51 21 l-42 7 0 -442z"/>
<path d="M872 1073 c-13 -2 -26 -11 -29 -20 -3 -8 -16 -19 -29 -23 -27 -11
-42 -55 -27 -79 5 -8 21 -18 34 -21 l24 -6 3 -362 2 -363 48 3 47 3 0 435 0
435 -25 1 c-14 1 -35 0 -48 -3z"/>
<path d="M456 1003 c-9 -26 -16 -58 -16 -72 l0 -26 20 25 19 25 9 -25 9 -24
14 22 c17 27 29 28 29 2 0 -26 14 -25 33 3 15 21 16 20 16 -34 l1 -56 -45 -17
c-54 -21 -91 -62 -74 -82 9 -11 15 -9 30 10 26 32 84 59 112 50 12 -4 38 -20
57 -35 40 -34 60 -37 60 -10 0 21 -47 66 -80 76 -17 5 -20 15 -20 61 0 30 5
54 10 54 6 0 10 -9 10 -20 0 -11 4 -20 9 -20 5 0 13 9 16 20 8 26 21 25 29 -2
3 -14 9 -19 14 -13 12 14 32 87 32 116 -1 21 -2 22 -11 7 -12 -22 -29 -23 -29
-3 0 20 -17 19 -29 -2 -9 -17 -11 -17 -25 2 -15 19 -17 19 -27 3 -12 -22 -29
-23 -29 -3 0 8 -5 15 -10 15 -6 0 -13 -7 -16 -15 -4 -8 -10 -15 -15 -15 -5 0
-9 7 -9 15 0 21 -26 19 -35 -2 -6 -17 -7 -17 -19 0 -19 25 -22 22 -40 -30z"/>
<path d="M1002 991 c-10 -6 -10 -10 3 -21 13 -10 14 -28 9 -106 -6 -77 -4 -94
7 -95 8 0 36 -4 62 -8 45 -8 48 -7 45 13 -2 16 -14 23 -45 30 l-42 10 -3 90
c-3 87 -10 104 -36 87z"/>
<path d="M453 668 c3 -13 14 -67 23 -120 l17 -98 108 0 c104 0 109 1 114 23
23 98 41 194 38 205 -4 9 -44 12 -155 12 l-150 0 5 -22z"/>
<path d="M398 304 c-2 -53 -1 -98 1 -100 2 -2 94 -4 203 -4 l198 0 0 100 0
100 -199 0 -200 0 -3 -96z"/>
</g>
</svg>
