<?xml version="1.0" standalone="no"?>
<!DOCTYPE svg PUBLIC "-//W3C//DTD SVG 20010904//EN"
 "http://www.w3.org/TR/2001/REC-SVG-20010904/DTD/svg10.dtd">
<svg version="1.0" xmlns="http://www.w3.org/2000/svg"
 width="128.000000pt" height="128.000000pt" viewBox="0 0 128.000000 128.000000"
 preserveAspectRatio="xMidYMid meet">
<g transform="translate(0.000000,128.000000) scale(0.100000,-0.100000)"
fill="#000000" stroke="none">
<path d="M90 1262 c0 -9 56 -73 125 -142 l125 -125 0 -367 0 -368 -40 0 -40 0
0 223 0 223 -73 72 c-40 39 -78 72 -85 72 -28 0 -8 -39 48 -95 l60 -59 0 -218
0 -217 -57 -3 -58 -3 -5 -40 c-5 -38 -7 -40 -45 -45 l-40 -5 0 -80 0 -80 635
0 635 0 0 80 0 80 -40 5 c-38 5 -40 7 -45 45 l-5 40 -57 3 -58 3 0 157 c0 110
-4 162 -12 170 -8 8 -52 12 -130 12 l-118 0 0 88 c0 76 3 92 20 107 19 17 21
17 46 -1 82 -58 116 -76 177 -95 48 -15 82 -20 113 -15 52 7 103 31 111 52 4
11 -33 55 -118 140 l-123 124 34 35 c22 23 43 35 60 35 33 0 60 28 60 63 0 34
-24 57 -60 57 -36 0 -60 -23 -60 -59 0 -18 -12 -39 -35 -61 l-35 -34 -124 123
c-85 85 -129 122 -140 118 -21 -8 -45 -59 -52 -111 -9 -62 25 -165 81 -249
l45 -68 -20 -26 c-17 -22 -20 -40 -20 -124 l0 -98 -127 -3 -128 -3 -3 -167 -2
-168 -65 0 -65 0 0 378 0 377 -133 133 c-73 72 -138 132 -145 132 -6 0 -12 -8
-12 -18z m585 -858 c0 -46 -3 -59 -15 -59 -11 0 -16 13 -18 49 -4 56 3 79 21
73 8 -2 12 -24 12 -63z m130 0 c0 -46 -3 -59 -15 -59 -11 0 -16 13 -18 49 -4
56 3 79 21 73 8 -2 12 -24 12 -63z m130 0 c0 -46 -3 -59 -15 -59 -11 0 -16 13
-18 49 -4 56 3 79 21 73 8 -2 12 -24 12 -63z"/>
</g>
</svg>
