<?xml version="1.0" standalone="no"?>
<!DOCTYPE svg PUBLIC "-//W3C//DTD SVG 20010904//EN"
 "http://www.w3.org/TR/2001/REC-SVG-20010904/DTD/svg10.dtd">
<svg version="1.0" xmlns="http://www.w3.org/2000/svg"
 width="128.000000pt" height="128.000000pt" viewBox="0 0 128.000000 128.000000"
 preserveAspectRatio="xMidYMid meet">
<g transform="translate(0.000000,128.000000) scale(0.100000,-0.100000)"
fill="#000000" stroke="none">
<path d="M520 1255 c-182 -33 -355 -166 -439 -336 -90 -182 -90 -377 -1 -557
90 -182 260 -306 463 -340 88 -14 106 -14 194 0 203 34 373 158 462 339 90
182 90 376 0 558 -85 173 -257 303 -444 336 -97 17 -138 17 -235 0z m226 -76
c157 -28 316 -152 387 -299 167 -349 -64 -754 -449 -787 -161 -13 -312 43
-430 161 -220 220 -220 552 0 772 134 134 304 187 492 153z"/>
<path d="M525 1008 c-3 -7 8 -70 23 -140 19 -86 25 -128 17 -128 -6 0 -77 15
-157 34 -81 18 -152 30 -158 26 -18 -11 -1 -35 74 -110 36 -35 66 -67 66 -71
0 -4 -17 -9 -37 -12 -56 -9 -83 -32 -83 -70 0 -88 140 -237 223 -237 31 0 49
16 81 73 32 55 93 106 195 162 91 49 123 85 151 172 25 75 47 105 91 123 41
17 36 43 -13 75 -76 50 -165 43 -234 -17 l-35 -31 -83 82 c-80 78 -111 95
-121 69z m113 -91 c45 -46 79 -86 76 -90 -4 -4 -1 -7 7 -7 9 0 25 13 37 30 29
38 91 70 138 70 37 0 124 -42 124 -60 0 -5 -11 -12 -25 -16 -37 -9 -70 -55
-95 -131 -26 -81 -53 -112 -140 -159 -104 -57 -166 -109 -202 -169 -18 -30
-41 -58 -51 -61 -32 -10 -85 17 -135 70 -89 94 -107 157 -49 181 65 27 90 23
141 -22 49 -43 103 -68 133 -60 16 3 16 5 -2 11 -65 23 -113 59 -215 161 -63
63 -108 115 -100 115 8 -1 109 -23 225 -50 116 -26 214 -44 219 -40 8 8 -26
20 -99 34 -23 5 -31 13 -33 31 -2 24 -38 194 -48 228 -10 32 11 17 94 -66z"/>
<path d="M871 856 c-12 -14 -5 -26 16 -26 15 0 18 26 4 34 -5 3 -14 0 -20 -8z"/>
</g>
</svg>
