<?xml version="1.0" standalone="no"?>
<!DOCTYPE svg PUBLIC "-//W3C//DTD SVG 20010904//EN"
 "http://www.w3.org/TR/2001/REC-SVG-20010904/DTD/svg10.dtd">
<svg version="1.0" xmlns="http://www.w3.org/2000/svg"
 width="128.000000pt" height="128.000000pt" viewBox="0 0 128.000000 128.000000"
 preserveAspectRatio="xMidYMid meet">
<g transform="translate(0.000000,128.000000) scale(0.100000,-0.100000)"
fill="#000000" stroke="none">
<path d="M520 1089 c0 -6 13 -48 30 -95 31 -87 54 -201 65 -316 l7 -68 50 0
51 0 -7 68 c-14 141 -76 314 -140 390 -27 31 -56 43 -56 21z"/>
<path d="M399 1066 c-31 -12 -72 -32 -91 -44 -56 -35 -127 -117 -158 -185 -29
-61 -55 -165 -45 -175 11 -12 226 -41 344 -48 l124 -7 -6 89 c-4 49 -16 125
-26 169 -22 89 -70 225 -80 225 -3 0 -31 -11 -62 -24z"/>
<path d="M700 1063 c14 -10 51 -42 83 -72 54 -51 59 -53 74 -38 16 15 15 18
-1 36 -19 21 -118 75 -156 85 l-25 7 25 -18z"/>
<path d="M1040 1031 c-31 -59 8 -163 65 -169 38 -5 55 19 54 72 l-2 41 -6 -34
c-12 -64 -61 -68 -87 -6 -12 30 -12 40 -2 62 7 15 19 29 27 31 9 3 11 0 6 -7
-10 -17 3 -61 18 -61 25 0 37 21 25 44 -25 47 -79 61 -98 27z"/>
<path d="M963 973 c-30 -11 -9 -100 34 -145 21 -22 29 -25 44 -15 18 11 17 13
-7 39 -15 14 -34 49 -43 76 -10 30 -21 47 -28 45z"/>
<path d="M832 880 c-39 -28 -74 -55 -77 -60 -3 -6 -1 -45 5 -89 l12 -79 103
62 103 61 -26 35 c-14 19 -31 53 -37 77 l-11 43 -72 -50z"/>
<path d="M977 723 c-19 -9 -27 -20 -23 -30 3 -8 6 -21 6 -29 0 -18 49 -19 55
-1 2 6 1 26 -3 44 -7 31 -7 31 -35 16z"/>
<path d="M102 574 l3 -39 90 -17 c166 -32 350 -42 503 -29 75 6 178 19 227 29
l90 17 3 39 c3 37 2 38 -23 32 -208 -52 -560 -52 -858 0 l-38 7 3 -39z"/>
<path d="M100 297 c0 -218 -7 -201 84 -212 l57 -7 -2 72 c-2 53 2 74 12 81 23
14 65 10 89 -9 19 -15 23 -29 24 -87 l1 -69 40 -9 c90 -20 516 7 603 38 9 3
12 53 12 201 l0 196 -23 -5 c-127 -32 -224 -42 -437 -42 -213 0 -310 10 -437
42 l-23 5 0 -195z m855 -82 l0 -50 -37 -3 -38 -3 0 43 c0 51 15 70 50 66 23
-3 25 -7 25 -53z m-200 -30 l0 -50 -37 -3 -38 -3 0 50 c0 52 8 61 50 58 23 -2
25 -6 25 -52z m-207 33 c7 -7 12 -31 12 -55 l0 -43 -40 0 -40 0 0 43 c0 45 13
67 40 67 9 0 21 -5 28 -12z"/>
</g>
</svg>
