<?xml version="1.0" standalone="no"?>
<!DOCTYPE svg PUBLIC "-//W3C//DTD SVG 20010904//EN"
 "http://www.w3.org/TR/2001/REC-SVG-20010904/DTD/svg10.dtd">
<svg version="1.0" xmlns="http://www.w3.org/2000/svg"
 width="128.000000pt" height="128.000000pt" viewBox="0 0 128.000000 128.000000"
 preserveAspectRatio="xMidYMid meet">
<g transform="translate(0.000000,128.000000) scale(0.100000,-0.100000)"
fill="#000000" stroke="none">
<path d="M450 1171 c0 -29 -2 -31 -39 -31 l-38 0 -6 -62 c-4 -35 -10 -107 -13
-160 -7 -94 -6 -98 14 -98 17 0 21 8 27 60 4 33 9 60 11 60 9 0 84 -53 84 -59
0 -4 -21 -17 -47 -30 -32 -15 -43 -25 -34 -30 7 -5 11 -18 9 -30 -2 -16 7 -27
36 -45 l39 -23 -38 -19 c-74 -37 -22 -59 59 -24 58 24 56 24 56 0 0 -13 7 -20
20 -20 24 0 24 -9 4 240 -20 252 -17 240 -59 240 -29 0 -34 3 -37 28 -2 19 -9
28 -25 30 -20 3 -23 -1 -23 -27z m80 -86 c0 -11 -8 -13 -32 -8 -59 11 -66 22
-15 23 35 0 47 -4 47 -15z m-46 -55 c4 -5 -11 -18 -34 -30 -23 -12 -43 -20
-45 -18 -1 2 0 18 2 36 5 31 7 33 37 26 17 -3 35 -10 40 -14z m59 -77 c4 -20
5 -39 2 -41 -4 -4 -75 37 -75 43 0 5 52 34 61 35 4 0 9 -17 12 -37z m15 -184
l-3 -28 -53 31 -54 31 49 26 48 26 8 -28 c4 -16 7 -42 5 -58z"/>
<path d="M930 980 c0 -96 -6 -94 138 -46 l102 35 0 -305 0 -305 23 3 22 3 3
348 2 347 -145 0 -145 0 0 -80z m205 25 c-40 -19 -70 -18 -85 0 -11 13 -4 15
51 14 62 -1 63 -1 34 -14z m-130 -28 c17 -13 17 -14 -3 -19 -14 -4 -22 0 -25
13 -6 22 2 24 28 6z"/>
<path d="M819 1015 c0 -3 -1 -29 -1 -57 l-1 -53 37 -3 36 -3 0 60 0 61 -35 0
c-19 0 -35 -2 -36 -5z"/>
<path d="M779 855 c0 -3 -1 -29 -1 -57 l-1 -53 137 -3 136 -3 0 61 0 60 -135
0 c-74 0 -135 -2 -136 -5z"/>
<path d="M180 720 l0 -60 95 0 95 0 0 60 0 60 -95 0 -95 0 0 -60z m110 0 c0
-17 -7 -20 -40 -20 -33 0 -40 3 -40 20 0 17 7 20 40 20 33 0 40 -3 40 -20z"/>
<path d="M855 690 c-12 -20 7 -30 61 -30 47 0 54 2 54 20 0 18 -7 20 -54 20
-30 0 -58 -4 -61 -10z"/>
<path d="M100 560 l0 -60 495 0 495 0 0 60 0 60 -495 0 -495 0 0 -60z"/>
<path d="M110 454 c0 -3 21 -35 48 -71 l47 -65 3 32 c5 43 -41 110 -74 110
-13 0 -24 -3 -24 -6z"/>
<path d="M258 303 l-3 -158 -51 -7 c-84 -12 -129 -30 -129 -53 0 -23 7 -23 94
0 63 17 67 17 148 -5 77 -20 86 -21 130 -7 88 28 109 29 192 7 75 -20 83 -21
128 -7 91 29 105 29 193 7 l85 -22 75 19 c63 17 74 23 72 39 -2 10 -5 20 -7
22 -1 2 -35 -5 -75 -15 -72 -18 -74 -18 -146 2 l-74 20 0 158 0 158 -36 -3
-36 -3 -1 -160 -2 -159 -50 -15 c-44 -12 -57 -12 -112 3 -34 9 -82 16 -107 16
l-45 0 -3 158 c-3 154 -3 157 -25 160 l-23 3 0 -170 0 -169 -30 -7 c-16 -4
-43 -4 -60 0 l-30 7 0 169 0 169 -35 0 -34 0 -3 -157z"/>
<path d="M670 454 c0 -3 21 -35 48 -71 l47 -65 3 32 c5 43 -41 110 -74 110
-13 0 -24 -3 -24 -6z"/>
<path d="M967 428 c-22 -29 -42 -109 -27 -108 4 1 70 90 93 127 6 9 1 13 -17
13 -17 0 -33 -11 -49 -32z"/>
</g>
</svg>
