<?xml version="1.0" standalone="no"?>
<!DOCTYPE svg PUBLIC "-//W3C//DTD SVG 20010904//EN"
 "http://www.w3.org/TR/2001/REC-SVG-20010904/DTD/svg10.dtd">
<svg version="1.0" xmlns="http://www.w3.org/2000/svg"
 width="128.000000pt" height="128.000000pt" viewBox="0 0 128.000000 128.000000"
 preserveAspectRatio="xMidYMid meet">
<g transform="translate(0.000000,128.000000) scale(0.100000,-0.100000)"
fill="#000000" stroke="none">
<path d="M323 1159 c-30 -12 -77 -43 -109 -71 -53 -49 -57 -51 -79 -37 -34 20
-34 33 0 41 24 6 23 7 -9 3 -61 -7 -65 -21 -14 -46 l46 -22 -30 -64 c-25 -52
-31 -79 -32 -138 -1 -73 -1 -75 26 -80 l27 -6 4 -157 3 -157 2 158 c1 96 6
157 12 157 6 0 10 27 10 60 0 42 4 60 13 60 7 0 42 24 78 54 l65 54 168 -114
c93 -62 170 -115 173 -117 2 -3 -2 -16 -8 -31 -15 -33 -39 -34 -39 -1 0 14 -5
25 -11 25 -6 0 -8 -9 -4 -20 5 -16 2 -20 -14 -20 -23 0 -28 15 -8 24 6 3 3 5
-8 3 -11 -1 -22 -12 -25 -27 -4 -17 -8 -21 -14 -12 -8 14 -26 16 -26 4 0 -5
11 -14 25 -20 21 -10 25 -9 25 3 0 20 26 19 34 -1 11 -28 7 -34 -24 -34 -16 0
-30 -4 -30 -8 0 -4 16 -6 35 -4 29 3 35 8 35 28 0 15 6 24 15 24 19 0 19 -4
-6 -70 -26 -69 -33 -76 -24 -25 4 26 3 35 -3 27 -5 -8 -20 -12 -33 -10 -20 2
-25 -2 -27 -24 -3 -24 0 -28 22 -28 19 0 26 -5 26 -20 0 -15 -7 -20 -29 -20
-17 0 -32 -4 -35 -8 -3 -5 8 -6 25 -4 24 4 29 1 29 -17 0 -17 -6 -21 -35 -21
-27 0 -35 -4 -34 -17 0 -11 3 -13 6 -5 2 6 14 12 25 12 16 0 19 -5 14 -22 -3
-13 -6 -26 -6 -30 0 -17 -40 -7 -41 10 -1 22 -17 -25 -17 -53 -1 -18 0 -18 8
3 5 12 16 22 25 22 19 0 19 -4 -5 -70 -11 -30 -20 -55 -20 -56 0 -1 -9 -4 -20
-7 -11 -3 -20 -11 -19 -19 0 -10 2 -10 6 0 2 6 9 12 14 12 16 0 10 -29 -10
-49 -11 -11 -15 -21 -9 -23 6 -2 4 -11 -6 -21 -24 -24 -276 -26 -276 -2 0 8 5
15 10 15 18 0 11 18 -10 25 -14 4 -20 15 -20 36 0 16 5 29 10 29 6 0 10 7 10
15 0 8 -6 15 -14 15 -9 0 -16 13 -19 33 l-4 32 -1 -31 c-2 -23 -8 -33 -24 -38
l-23 -7 22 -16 c29 -20 29 -37 1 -65 -14 -14 -18 -23 -10 -26 7 -2 12 -10 12
-18 0 -10 -12 -14 -40 -14 -22 0 -40 -4 -40 -10 0 -7 187 -10 543 -10 l542 0
61 77 62 78 -46 57 c-36 46 -51 58 -73 58 -28 0 -29 1 -29 53 0 28 6 64 14 78
10 20 11 29 1 42 -15 21 -31 22 -39 2 -4 -10 -20 -15 -53 -15 -36 0 -44 3 -35
12 7 7 12 29 12 49 0 36 -4 40 -112 120 -62 46 -190 140 -284 210 l-172 128
14 58 c8 32 14 61 14 66 0 14 -86 6 -137 -14z m-163 -346 c0 -36 -3 -43 -20
-43 -17 0 -20 7 -20 43 0 36 3 43 20 43 17 0 20 -7 20 -43z m685 -180 c47 -31
85 -59 85 -63 0 -3 -9 -16 -20 -28 -21 -22 -70 -31 -70 -12 0 6 -7 10 -15 10
-8 0 -15 -4 -15 -10 0 -5 -7 -10 -15 -10 -8 0 -15 6 -15 13 0 6 -6 45 -14 85
-7 39 -12 72 -10 72 2 0 42 -25 89 -57z m-169 -255 c-9 -107 -16 -206 -16
-221 0 -27 0 -27 -74 -27 l-73 0 86 240 c47 133 87 232 89 221 2 -11 -4 -107
-12 -213z m-86 187 c0 -8 -9 -15 -20 -15 -11 0 -20 7 -20 15 0 8 9 15 20 15
11 0 20 -7 20 -15z m207 -380 c-1 -1 -24 -15 -51 -30 l-49 -29 7 145 c4 79 10
171 13 204 l6 60 39 -174 c21 -96 37 -175 35 -176z m17 284 c3 -17 6 -39 6
-48 -1 -14 -2 -14 -9 -1 -13 23 -21 80 -12 80 5 0 11 -14 15 -31z m145 6 c31
3 73 8 94 11 l37 6 0 -56 0 -56 -68 0 c-56 0 -72 -4 -87 -20 -12 -13 -31 -20
-57 -20 l-38 0 0 68 c0 38 3 71 6 75 3 3 18 1 32 -4 14 -6 51 -7 81 -4z"/>
<path d="M481 304 c0 -11 3 -14 6 -6 3 7 2 16 -1 19 -3 4 -6 -2 -5 -13z"/>
</g>
</svg>
