<?xml version="1.0" standalone="no"?>
<!DOCTYPE svg PUBLIC "-//W3C//DTD SVG 20010904//EN"
 "http://www.w3.org/TR/2001/REC-SVG-20010904/DTD/svg10.dtd">
<svg version="1.0" xmlns="http://www.w3.org/2000/svg"
 width="128.000000pt" height="128.000000pt" viewBox="0 0 128.000000 128.000000"
 preserveAspectRatio="xMidYMid meet">
<g transform="translate(0.000000,128.000000) scale(0.100000,-0.100000)"
fill="#000000" stroke="none">
<path d="M564 1190 c-123 -18 -227 -71 -315 -159 -108 -108 -162 -239 -162
-391 0 -152 54 -283 162 -391 109 -109 239 -163 396 -162 306 1 548 246 548
553 0 240 -149 449 -374 524 -85 27 -181 38 -255 26z m220 -90 c133 -42 256
-156 307 -287 31 -80 37 -219 14 -299 -22 -76 -56 -144 -63 -124 -9 26 -83 90
-104 90 -11 0 -36 -14 -55 -30 -18 -17 -42 -30 -52 -30 -10 0 -30 14 -44 30
-36 40 -65 38 -107 -5 -19 -19 -38 -35 -42 -35 -5 0 -25 16 -45 35 -44 43 -71
44 -105 5 -33 -38 -57 -38 -93 0 -18 18 -39 30 -54 30 -29 -1 -97 -58 -103
-87 -5 -24 -40 43 -63 121 -23 80 -17 219 14 299 50 129 173 245 304 286 85
27 204 27 291 1z m-401 -740 c19 -16 46 -30 59 -30 14 0 36 13 53 30 16 17 33
30 39 30 5 0 24 -13 41 -29 47 -44 68 -47 108 -11 42 37 60 38 99 5 39 -33 70
-32 111 5 42 37 51 37 84 4 24 -24 26 -24 44 -8 18 16 19 16 19 -11 0 -19 -4
-26 -14 -22 -8 3 -24 -6 -37 -20 -81 -85 -222 -143 -349 -143 -127 0 -268 58
-349 143 -13 14 -29 23 -37 20 -10 -4 -14 3 -14 23 0 26 1 27 17 12 15 -16 18
-15 45 7 37 31 40 31 81 -5z"/>
<path d="M286 842 c-41 -33 -46 -41 -46 -79 0 -24 4 -43 10 -43 5 0 25 14 43
30 19 17 41 30 49 30 8 0 29 -13 46 -30 18 -16 41 -30 52 -30 11 0 34 14 52
30 17 17 37 30 44 30 7 0 27 -13 44 -30 19 -18 41 -30 58 -30 17 0 37 11 55
30 33 35 50 37 76 11 22 -22 55 -41 70 -41 6 0 26 14 44 30 19 17 42 30 52 30
10 0 33 -13 52 -30 18 -16 38 -30 43 -30 6 0 10 19 9 43 -1 36 -6 47 -40 76
-48 41 -85 44 -112 7 -26 -36 -78 -36 -101 -1 -24 36 -68 34 -103 -5 -34 -38
-66 -39 -94 -1 -32 44 -55 45 -98 5 -46 -40 -63 -42 -89 -9 -11 13 -31 29 -45
34 -22 9 -32 5 -71 -27z"/>
<path d="M290 650 c-17 -16 -35 -30 -40 -30 -6 0 -10 -20 -10 -45 0 -53 18
-59 52 -20 13 15 32 25 48 25 16 0 35 -10 48 -25 14 -16 32 -25 50 -25 17 0
38 10 52 25 31 33 55 32 97 -5 18 -16 42 -30 52 -30 10 0 32 14 49 30 39 37
61 38 92 5 31 -33 79 -33 110 0 13 14 34 25 47 25 13 0 33 -11 45 -25 32 -37
58 -33 58 10 0 27 -8 42 -42 74 -24 22 -51 41 -60 41 -10 0 -33 -13 -51 -30
-19 -16 -43 -30 -54 -30 -11 0 -32 14 -48 30 -37 39 -58 38 -102 -5 -20 -19
-43 -35 -50 -35 -8 0 -29 16 -46 35 -17 19 -37 35 -45 35 -8 0 -32 -16 -53
-35 -22 -19 -43 -35 -49 -35 -5 0 -25 16 -44 35 -43 43 -66 44 -106 5z"/>
</g>
</svg>
