<?xml version="1.0" standalone="no"?>
<!DOCTYPE svg PUBLIC "-//W3C//DTD SVG 20010904//EN"
 "http://www.w3.org/TR/2001/REC-SVG-20010904/DTD/svg10.dtd">
<svg version="1.0" xmlns="http://www.w3.org/2000/svg"
 width="128.000000pt" height="128.000000pt" viewBox="0 0 128.000000 128.000000"
 preserveAspectRatio="xMidYMid meet">
<g transform="translate(0.000000,128.000000) scale(0.100000,-0.100000)"
fill="#000000" stroke="none">
<path d="M228 1210 c-27 -32 -48 -61 -48 -64 0 -3 22 -6 50 -6 36 0 61 -7 95
-27 l45 -28 0 -62 0 -63 265 0 265 0 0 63 0 62 44 28 c32 20 56 27 95 27 28 0
51 3 51 6 0 4 -23 33 -51 65 l-51 59 -356 -1 -357 0 -47 -59z m764 3 c10 -9
18 -20 18 -25 0 -4 -169 -8 -375 -8 -206 0 -375 3 -375 7 0 3 7 15 17 25 15
17 39 18 356 18 303 0 342 -2 359 -17z m-96 -88 c-16 -12 -64 -15 -261 -15
-197 0 -245 3 -261 15 -17 13 13 14 261 14 248 0 278 -1 261 -14z m-36 -90 l0
-35 -230 0 -230 0 0 35 0 35 230 0 230 0 0 -35z"/>
<path d="M77 901 c-32 -60 -57 -114 -57 -120 0 -6 16 -11 37 -11 26 0 45 -8
65 -27 l28 -27 0 -293 c0 -248 -2 -293 -14 -293 -10 0 -16 -13 -18 -38 l-3
-37 -52 -3 c-38 -2 -53 -7 -53 -18 0 -12 84 -14 610 -14 524 0 610 2 610 14 0
10 -13 16 -37 18 -36 3 -38 5 -41 41 -2 24 -8 37 -18 37 -12 0 -14 45 -14 292
l0 292 27 28 c20 21 36 28 65 28 21 0 38 3 38 8 1 4 -25 58 -57 119 l-58 113
-112 0 -113 0 0 -35 0 -35 -275 0 -275 0 0 35 0 35 -113 0 -114 0 -56 -109z
m243 34 l0 -35 310 0 310 0 0 35 0 35 88 0 87 0 38 -69 c20 -38 37 -74 37 -80
0 -8 -157 -11 -560 -11 l-560 0 40 80 40 80 85 0 85 0 0 -35z m800 -166 c0
-27 -36 -29 -485 -29 -449 0 -485 2 -485 30 0 3 218 5 485 5 267 0 485 -2 485
-6z m-880 -354 l0 -285 -30 0 -30 0 0 285 0 285 30 0 30 0 0 -285z m120 205
l0 -80 -45 0 -45 0 0 80 0 80 45 0 45 0 0 -80z m90 -205 l0 -285 -30 0 -30 0
0 285 0 285 30 0 30 0 0 -285z m330 205 l0 -80 -150 0 -150 0 0 80 0 80 150 0
150 0 0 -80z m90 -205 l0 -285 -25 0 -25 0 0 285 0 285 25 0 25 0 0 -285z
m125 205 l0 -75 -42 -3 -43 -3 0 81 0 81 43 -3 42 -3 0 -75z m85 -205 l0 -285
-25 0 -25 0 0 285 0 285 25 0 25 0 0 -285z m-720 65 c0 -17 -7 -20 -45 -20
-38 0 -45 3 -45 20 0 17 7 20 45 20 38 0 45 -3 45 -20z m420 0 c0 -20 -5 -20
-147 -18 -131 3 -148 5 -151 21 -3 16 9 17 147 17 145 0 151 -1 151 -20z m215
0 c0 -10 -13 -16 -42 -18 -38 -3 -43 -1 -43 18 0 19 5 21 43 18 29 -2 42 -8
42 -18z m-637 -202 c2 -125 0 -148 -12 -148 -10 0 -16 -13 -18 -38 -4 -48 -22
-48 -26 0 -2 25 -8 38 -18 38 -11 0 -14 25 -14 143 0 79 3 147 7 151 4 4 23 6
43 4 l35 -3 3 -147z m422 2 c0 -127 -2 -150 -15 -150 -11 0 -15 -11 -15 -40
l0 -41 -117 3 -118 3 -3 37 c-2 25 -8 38 -18 38 -11 0 -14 25 -14 143 0 79 3
147 7 150 3 4 71 7 150 7 l143 0 0 -150z m218 -2 c2 -143 2 -148 -18 -148 -17
0 -20 -6 -20 -40 0 -22 -4 -40 -10 -40 -5 0 -10 18 -10 40 0 29 -4 40 -15 40
-13 0 -15 23 -15 151 l0 150 43 -3 42 -3 3 -147z m-730 -205 c-2 -14 -15 -19
-61 -21 -52 -3 -57 -1 -57 18 0 18 6 20 61 20 52 0 60 -2 57 -17z m212 -3 c0
-19 -5 -21 -57 -18 -46 2 -59 7 -61 21 -3 15 5 17 57 17 55 0 61 -2 61 -20z
m425 0 c0 -11 -14 -16 -54 -18 -55 -3 -79 7 -66 28 11 18 120 9 120 -10z m213
3 c-2 -14 -15 -19 -61 -21 -52 -3 -57 -1 -57 18 0 18 6 20 61 20 52 0 60 -2
57 -17z"/>
<path d="M504 666 c-3 -7 -4 -33 -2 -57 l3 -44 119 -3 c66 -1 125 -1 130 1 7
3 10 27 8 61 l-4 56 -124 0 c-97 0 -126 -3 -130 -14z m226 -46 c0 -19 -7 -20
-95 -20 -88 0 -95 1 -95 20 0 19 7 20 95 20 88 0 95 -1 95 -20z"/>
</g>
</svg>
