<?xml version="1.0" standalone="no"?>
<!DOCTYPE svg PUBLIC "-//W3C//DTD SVG 20010904//EN"
 "http://www.w3.org/TR/2001/REC-SVG-20010904/DTD/svg10.dtd">
<svg version="1.0" xmlns="http://www.w3.org/2000/svg"
 width="128.000000pt" height="128.000000pt" viewBox="0 0 128.000000 128.000000"
 preserveAspectRatio="xMidYMid meet">
<g transform="translate(0.000000,128.000000) scale(0.100000,-0.100000)"
fill="#000000" stroke="none">
<path d="M216 1201 c-12 -18 -96 -246 -96 -258 0 -10 111 -13 520 -13 413 0
520 3 520 13 0 7 -21 68 -48 137 l-47 125 -422 3 c-248 1 -424 -2 -427 -7z"/>
<path d="M300 670 l0 -220 28 -11 c140 -54 484 -54 625 0 l27 11 0 220 c0 213
-1 220 -20 220 -19 0 -20 -7 -20 -170 0 -93 -3 -170 -7 -170 -5 0 -30 7 -58
16 -27 8 -105 18 -172 21 l-123 6 0 42 c0 24 13 74 30 115 17 40 30 74 30 76
0 2 -11 4 -23 4 -20 0 -28 -11 -50 -68 -17 -42 -27 -87 -27 -119 l0 -52 -37
-6 c-21 -3 -64 -12 -95 -20 -32 -8 -60 -15 -63 -15 -3 0 -5 77 -5 170 0 163
-1 170 -20 170 -19 0 -20 -7 -20 -220z m558 -146 c63 -17 81 -29 67 -43 -17
-17 -122 -40 -217 -46 -147 -11 -353 21 -353 55 0 16 62 38 132 47 l53 6 0
-37 c0 -29 4 -36 20 -36 16 0 20 7 20 33 0 19 3 37 8 41 10 12 204 -3 270 -20z"/>
<path d="M520 809 c0 -11 5 -17 10 -14 6 3 10 13 10 21 0 8 -4 14 -10 14 -5 0
-10 -9 -10 -21z"/>
<path d="M681 808 c-5 -13 -18 -47 -30 -76 -26 -65 -26 -64 1 -60 16 2 28 20
50 72 15 38 28 73 28 78 0 18 -41 7 -49 -14z"/>
<path d="M200 750 c0 -15 7 -20 25 -20 18 0 25 5 25 20 0 15 -7 20 -25 20 -18
0 -25 -5 -25 -20z"/>
<path d="M390 750 c0 -17 7 -20 50 -20 43 0 50 3 50 20 0 17 -7 20 -50 20 -43
0 -50 -3 -50 -20z"/>
<path d="M750 745 c-6 -14 -14 -36 -20 -50 -8 -22 -7 -25 10 -25 16 0 20 7 20
30 l0 30 65 0 c58 0 65 2 65 20 0 18 -7 20 -65 20 -61 0 -66 -2 -75 -25z"/>
<path d="M1030 750 c0 -11 7 -20 15 -20 12 0 15 -18 15 -100 l0 -100 70 0 c63
0 70 2 70 19 0 17 -8 20 -47 23 l-48 3 -3 98 -3 97 -34 0 c-28 0 -35 -4 -35
-20z"/>
<path d="M300 365 c0 -28 5 -35 31 -44 46 -16 49 -15 49 23 0 31 -3 34 -40 44
l-40 10 0 -33z"/>
<path d="M902 379 c-41 -10 -102 -21 -138 -24 l-64 -7 0 -35 0 -35 63 7 c73 8
186 32 205 44 8 5 12 21 10 37 l-3 30 -73 -17z"/>
<path d="M420 337 c0 -44 5 -46 136 -54 l104 -6 0 35 0 35 -102 6 c-57 3 -111
9 -120 12 -15 6 -18 1 -18 -28z"/>
<path d="M300 251 c0 -28 4 -32 53 -46 60 -17 175 -34 182 -27 3 3 5 18 5 34
0 24 -4 28 -27 28 -26 0 -116 17 -185 35 -26 7 -28 5 -28 -24z"/>
<path d="M947 273 c-4 -3 -7 -20 -7 -36 0 -22 4 -28 16 -23 9 3 18 6 20 6 2 0
4 14 4 30 0 28 -17 40 -33 23z"/>
<path d="M835 250 c-22 -5 -88 -12 -147 -16 l-108 -7 0 -30 0 -30 123 6 c172
10 191 15 195 55 4 35 3 35 -63 22z"/>
<path d="M300 161 c0 -12 29 -35 36 -28 11 10 -5 37 -21 37 -8 0 -15 -4 -15
-9z"/>
<path d="M918 158 c-31 -8 -38 -15 -38 -35 0 -21 3 -23 23 -18 28 8 70 38 75
53 4 14 -8 14 -60 0z"/>
<path d="M380 127 c0 -29 5 -31 135 -48 86 -11 272 -7 309 7 18 7 19 49 1 49
-5 -1 -55 -4 -110 -9 -91 -7 -244 3 -312 20 -19 5 -23 2 -23 -19z"/>
</g>
</svg>
