<?xml version="1.0" standalone="no"?>
<!DOCTYPE svg PUBLIC "-//W3C//DTD SVG 20010904//EN"
 "http://www.w3.org/TR/2001/REC-SVG-20010904/DTD/svg10.dtd">
<svg version="1.0" xmlns="http://www.w3.org/2000/svg"
 width="128.000000pt" height="128.000000pt" viewBox="0 0 128.000000 128.000000"
 preserveAspectRatio="xMidYMid meet">
<g transform="translate(0.000000,128.000000) scale(0.100000,-0.100000)"
fill="#000000" stroke="none">
<path d="M798 1043 l-3 -47 -57 3 c-53 2 -58 1 -58 -18 0 -19 6 -21 60 -21
l60 0 0 -40 0 -40 -60 0 c-53 0 -60 -2 -60 -20 0 -18 7 -20 60 -20 l60 0 0
-195 0 -195 -60 0 c-47 0 -60 -3 -60 -15 0 -12 13 -15 60 -15 l60 0 0 -40 0
-40 -60 0 c-53 0 -60 -2 -60 -20 0 -18 7 -20 60 -20 l60 0 0 -55 0 -55 100 0
100 0 0 450 0 450 -99 0 -100 0 -3 -47z m162 -403 l0 -415 -62 0 -63 0 -3 405
c-1 223 0 411 3 418 3 9 23 12 65 10 l61 -3 -1 -415z"/>
<path d="M370 980 c0 -18 6 -20 61 -20 52 0 60 2 57 18 -2 13 -15 18 -61 20
-52 3 -57 1 -57 -18z"/>
<path d="M527 994 c-4 -4 -7 -13 -7 -21 0 -9 17 -13 61 -13 52 0 60 2 57 18
-2 13 -15 18 -53 20 -28 2 -54 0 -58 -4z"/>
<path d="M367 872 c-14 -21 12 -33 64 -30 40 2 54 7 54 18 0 11 -14 16 -57 18
-31 2 -59 -1 -61 -6z"/>
<path d="M520 860 c0 -18 7 -20 60 -20 53 0 60 2 60 20 0 18 -7 20 -60 20 -53
0 -60 -2 -60 -20z"/>
<path d="M367 435 c7 -20 114 -17 121 3 3 9 -14 12 -62 12 -55 0 -64 -2 -59
-15z"/>
<path d="M520 435 c0 -12 13 -15 60 -15 47 0 60 3 60 15 0 12 -13 15 -60 15
-47 0 -60 -3 -60 -15z"/>
<path d="M370 320 c0 -19 5 -21 58 -18 43 2 57 7 57 18 0 11 -14 16 -57 18
-53 3 -58 1 -58 -18z"/>
<path d="M520 320 c0 -18 7 -20 60 -20 53 0 60 2 60 20 0 18 -7 20 -60 20 -53
0 -60 -2 -60 -20z"/>
</g>
</svg>
