<?xml version="1.0" standalone="no"?>
<!DOCTYPE svg PUBLIC "-//W3C//DTD SVG 20010904//EN"
 "http://www.w3.org/TR/2001/REC-SVG-20010904/DTD/svg10.dtd">
<svg version="1.0" xmlns="http://www.w3.org/2000/svg"
 width="128.000000pt" height="128.000000pt" viewBox="0 0 128.000000 128.000000"
 preserveAspectRatio="xMidYMid meet">
<g transform="translate(0.000000,128.000000) scale(0.100000,-0.100000)"
fill="#000000" stroke="none">
<path d="M270 1080 c-8 -5 -27 -7 -42 -4 -43 9 -46 0 -54 -196 -4 -108 -8
-129 -39 -190 -23 -47 -14 -50 136 -50 159 0 167 4 130 70 -30 54 -29 139 2
168 27 25 69 29 87 7 7 -8 19 -15 26 -15 11 0 14 -21 14 -96 0 -85 -2 -98 -21
-112 -22 -18 -18 -52 6 -52 11 0 15 -35 18 -152 3 -84 9 -173 13 -198 8 -38
13 -45 34 -46 14 -1 42 -9 62 -18 52 -22 312 -23 365 -1 19 8 44 15 54 15 10
0 23 9 29 20 6 11 9 20 6 20 -3 0 2 16 10 35 10 24 14 74 14 171 0 121 3 142
22 181 19 38 20 46 8 54 -8 5 -76 8 -150 7 -121 -3 -135 -5 -138 -21 -2 -10 5
-28 15 -39 14 -16 19 -40 21 -113 4 -86 2 -94 -17 -104 -12 -7 -21 -18 -21
-26 0 -26 -60 -18 -86 11 -22 22 -24 34 -24 113 0 70 3 90 15 95 19 7 20 42 1
53 -11 6 -15 42 -18 158 -2 108 -7 157 -18 175 -8 14 -13 31 -11 38 4 21 -18
41 -47 42 -179 8 -390 8 -402 0z"/>
<path d="M900 855 c0 -70 -3 -85 -16 -85 -11 0 -14 -8 -12 -27 l3 -28 135 0
c132 0 135 0 138 23 2 13 -3 25 -12 28 -13 5 -16 23 -16 90 l0 84 -110 0 -110
0 0 -85z"/>
<path d="M142 618 c-18 -18 -15 -36 8 -50 17 -11 20 -24 20 -95 l0 -83 105 0
105 0 0 81 c0 72 3 83 23 99 18 15 20 22 11 37 -10 16 -28 18 -135 21 -88 2
-128 -1 -137 -10z"/>
</g>
</svg>
