<?xml version="1.0" standalone="no"?>
<!DOCTYPE svg PUBLIC "-//W3C//DTD SVG 20010904//EN"
 "http://www.w3.org/TR/2001/REC-SVG-20010904/DTD/svg10.dtd">
<svg version="1.0" xmlns="http://www.w3.org/2000/svg"
 width="128.000000pt" height="128.000000pt" viewBox="0 0 128.000000 128.000000"
 preserveAspectRatio="xMidYMid meet">
<g transform="translate(0.000000,128.000000) scale(0.100000,-0.100000)"
fill="#000000" stroke="none">
<path d="M574 1112 c-32 -21 -65 -46 -73 -55 -7 -9 -26 -17 -42 -17 l-29 0 0
-112 c1 -157 32 -221 127 -253 36 -13 38 -15 38 -57 l0 -43 -109 -3 c-122 -3
-141 -11 -132 -54 4 -23 2 -28 -13 -28 -23 0 -27 10 -36 92 -7 61 -6 67 14 78
82 43 81 217 -1 261 -34 18 -99 15 -132 -6 -76 -50 -74 -208 3 -252 26 -15 30
-24 36 -82 4 -35 9 -70 12 -78 4 -10 -13 -13 -79 -13 -122 0 -123 -2 -83 -178
14 -61 25 -113 25 -115 0 -3 -11 -8 -25 -11 -19 -5 -25 -13 -25 -35 0 -17 6
-31 16 -35 20 -8 1128 -8 1148 0 10 4 16 18 16 35 0 22 -6 30 -25 35 -14 3
-25 8 -25 11 0 2 11 54 25 115 40 176 39 178 -83 178 -66 0 -83 3 -79 13 3 8
8 43 12 78 6 58 10 67 36 82 77 44 79 202 3 252 -33 21 -98 24 -132 6 -82 -44
-83 -218 -1 -261 20 -11 21 -17 14 -78 -9 -82 -13 -92 -36 -92 -15 0 -17 5
-13 28 9 43 -10 51 -132 54 l-109 3 0 43 c0 42 2 44 38 57 95 32 126 96 127
253 l0 112 -30 0 c-18 0 -42 11 -62 29 -39 33 -108 81 -118 81 -4 0 -33 -17
-66 -38z m96 -73 l24 -21 -24 -19 c-31 -23 -29 -23 -60 1 l-25 20 25 20 c31
24 29 24 60 -1z m-108 -108 c30 -27 33 -34 36 -105 3 -59 1 -76 -9 -76 -19 1
-54 30 -68 57 -14 27 -15 153 -1 153 5 0 24 -13 42 -29z m208 -37 c0 -70 -10
-99 -44 -126 -41 -34 -49 -24 -44 58 3 71 6 78 36 105 18 16 37 29 42 29 6 0
10 -29 10 -66z m-472 -89 c8 -67 -30 -105 -69 -69 -47 42 -6 144 46 110 11 -7
21 -26 23 -41z m770 -10 c3 -38 -18 -75 -44 -75 -24 0 -44 31 -44 70 0 82 81
86 88 5z m-234 -332 c-3 -16 -15 -82 -27 -148 l-22 -120 -145 0 -145 0 -22
120 c-12 66 -24 132 -27 148 l-5 27 199 0 200 0 -6 -27z m-442 -148 c26 -138
36 -125 -95 -125 l-114 0 -21 103 c-12 56 -22 106 -22 110 0 4 53 6 117 5
l118 -3 17 -90z m748 88 c0 -5 -10 -54 -22 -110 l-21 -103 -114 0 c-80 0 -113
3 -113 12 0 14 30 178 35 196 3 9 36 12 120 12 63 0 115 -3 115 -7z"/>
<path d="M504 404 c3 -25 8 -50 12 -55 3 -5 59 -9 124 -9 65 0 121 4 124 9 4
5 9 30 12 55 l7 46 -143 0 -143 0 7 -46z"/>
</g>
</svg>
