<?xml version="1.0" standalone="no"?>
<!DOCTYPE svg PUBLIC "-//W3C//DTD SVG 20010904//EN"
 "http://www.w3.org/TR/2001/REC-SVG-20010904/DTD/svg10.dtd">
<svg version="1.0" xmlns="http://www.w3.org/2000/svg"
 width="128.000000pt" height="128.000000pt" viewBox="0 0 128.000000 128.000000"
 preserveAspectRatio="xMidYMid meet">
<g transform="translate(0.000000,128.000000) scale(0.100000,-0.100000)"
fill="#000000" stroke="none">
<path d="M740 709 l0 -440 -26 20 c-19 15 -41 21 -76 21 -44 0 -53 -4 -97 -45
-26 -25 -54 -45 -61 -45 -7 0 -35 20 -61 45 -43 41 -53 45 -96 45 -88 -1 -182
-63 -169 -113 9 -37 38 -39 88 -6 56 38 87 37 124 -2 37 -40 75 -59 114 -59
39 0 77 19 114 59 17 17 36 31 44 31 8 0 34 -18 57 -39 73 -67 143 -67 207 0
46 48 69 49 132 8 40 -27 51 -30 72 -21 36 17 30 46 -18 85 -60 48 -80 57
-132 57 -33 0 -52 -6 -74 -25 -17 -14 -33 -25 -36 -25 -4 0 -5 39 -4 87 l3 88
78 3 78 3 -3 46 -3 46 -75 1 -75 1 0 60 0 60 78 3 77 3 0 49 0 50 -80 0 -80 0
0 60 0 60 80 0 80 0 0 50 0 50 -80 0 -80 0 0 85 0 85 -50 0 -50 0 0 -441z"/>
<path d="M229 1073 c-56 -86 -59 -131 -11 -174 42 -37 89 -39 130 -4 38 32 46
65 27 112 -21 51 -77 133 -91 133 -7 0 -31 -30 -55 -67z m121 -103 c0 -12 -11
-32 -25 -46 -31 -31 -56 -22 -27 10 10 11 22 29 25 39 9 24 27 22 27 -3z"/>
<path d="M427 862 c-140 -195 -156 -278 -71 -372 114 -126 324 -46 324 123 0
32 -11 65 -36 115 -37 72 -131 203 -150 209 -6 2 -36 -32 -67 -75z m178 -223
c24 -37 -43 -139 -91 -139 -33 0 -30 24 6 50 18 13 33 36 40 61 10 38 31 51
45 28z"/>
</g>
</svg>
