<?xml version="1.0" standalone="no"?>
<!DOCTYPE svg PUBLIC "-//W3C//DTD SVG 20010904//EN"
 "http://www.w3.org/TR/2001/REC-SVG-20010904/DTD/svg10.dtd">
<svg version="1.0" xmlns="http://www.w3.org/2000/svg"
 width="128.000000pt" height="128.000000pt" viewBox="0 0 128.000000 128.000000"
 preserveAspectRatio="xMidYMid meet">
<g transform="translate(0.000000,128.000000) scale(0.100000,-0.100000)"
fill="#000000" stroke="none">
<path d="M435 1158 c-2 -7 -6 -42 -7 -78 l-3 -65 -75 -5 -75 -5 -3 -249 c-2
-258 0 -276 39 -276 34 0 39 33 39 244 l0 206 290 0 290 0 0 -223 c0 -208 1
-225 19 -241 16 -14 24 -15 40 -6 21 11 21 16 19 278 l-3 267 -75 5 -75 5 -5
75 -5 75 -203 3 c-157 2 -203 0 -207 -10z m335 -108 l0 -40 -130 0 -130 0 0
40 0 40 130 0 130 0 0 -40z"/>
<path d="M437 843 c-4 -3 -7 -89 -7 -189 0 -175 1 -184 21 -194 16 -9 25 -8
40 6 17 16 19 32 19 181 0 94 -4 173 -10 184 -10 18 -50 26 -63 12z"/>
<path d="M611 836 c-8 -9 -11 -65 -9 -176 3 -142 5 -164 21 -174 12 -8 22 -8
35 0 15 10 17 32 20 174 3 168 -2 190 -38 190 -10 0 -23 -6 -29 -14z"/>
<path d="M781 831 c-6 -11 -11 -78 -11 -153 0 -147 8 -172 51 -166 l24 3 0
165 0 165 -27 3 c-18 2 -30 -3 -37 -17z"/>
<path d="M702 420 c-18 -4 -51 -20 -75 -36 -58 -38 -129 -44 -187 -14 -81 41
-194 36 -254 -11 -30 -23 -32 -55 -5 -72 12 -7 28 -4 61 11 58 29 95 28 170
-4 89 -37 173 -32 247 16 67 42 124 45 191 10 34 -18 61 -24 110 -24 104 0
186 55 149 100 -14 17 -28 15 -99 -11 -48 -18 -61 -16 -170 24 -58 22 -85 24
-138 11z"/>
<path d="M702 260 c-18 -4 -51 -20 -75 -36 -58 -38 -129 -44 -187 -14 -81 41
-194 36 -254 -11 -30 -23 -32 -55 -5 -72 12 -7 28 -4 61 11 58 29 95 28 170
-4 89 -37 173 -32 247 16 67 42 124 45 191 10 34 -18 61 -24 110 -24 104 0
186 55 149 100 -14 17 -28 15 -99 -11 -48 -18 -61 -16 -170 24 -58 22 -85 24
-138 11z"/>
</g>
</svg>
