<?xml version="1.0" standalone="no"?>
<!DOCTYPE svg PUBLIC "-//W3C//DTD SVG 20010904//EN"
 "http://www.w3.org/TR/2001/REC-SVG-20010904/DTD/svg10.dtd">
<svg version="1.0" xmlns="http://www.w3.org/2000/svg"
 width="128.000000pt" height="128.000000pt" viewBox="0 0 128.000000 128.000000"
 preserveAspectRatio="xMidYMid meet">
<g transform="translate(0.000000,128.000000) scale(0.100000,-0.100000)"
fill="#000000" stroke="none">
<path d="M689 1181 c-23 -19 -24 -25 -22 -132 2 -114 9 -136 37 -126 13 5 16
25 16 112 0 132 9 135 99 29 63 -74 92 -89 99 -51 3 16 -80 124 -131 170 -25
22 -69 22 -98 -2z"/>
<path d="M555 820 c-285 -103 -415 -156 -427 -171 -43 -52 -4 -139 61 -139 17
0 87 21 157 46 69 25 127 44 129 42 2 -2 -19 -129 -46 -282 -44 -247 -48 -281
-35 -294 23 -24 43 0 50 62 7 49 12 57 89 134 l82 82 73 -73 c66 -66 73 -77
83 -132 14 -72 32 -97 54 -75 13 13 12 28 -5 125 -11 61 -33 187 -50 280 -16
94 -34 191 -39 218 -4 26 -5 49 -2 51 4 3 69 27 146 55 76 28 149 61 162 73
47 44 20 127 -47 142 -17 4 -149 -39 -435 -144z m444 76 c6 -7 9 -20 6 -29 -4
-9 -165 -72 -411 -162 -330 -120 -407 -145 -419 -135 -17 14 -18 20 -6 39 8
13 770 298 802 300 9 1 22 -5 28 -13z m-320 -273 c5 -27 13 -72 17 -101 l7
-53 -109 -109 c-60 -61 -112 -110 -115 -110 -7 0 18 141 26 149 3 2 11 -1 17
-7 7 -7 20 -12 29 -12 30 0 29 29 -1 64 -33 37 -35 48 -19 129 11 55 12 56 63
75 28 11 56 20 63 21 6 0 16 -20 22 -46z m50 -289 c7 -37 10 -69 7 -71 -3 -3
-24 13 -48 35 l-43 41 30 31 c16 16 32 30 36 30 4 0 12 -30 18 -66z"/>
<path d="M982 737 c-6 -7 -13 -58 -14 -112 -2 -62 -7 -100 -14 -102 -7 -2 -38
30 -70 71 -42 53 -66 75 -81 76 -38 0 -27 -32 37 -113 66 -84 90 -102 126 -93
55 14 64 36 64 160 0 95 -3 115 -16 120 -21 8 -20 8 -32 -7z"/>
<path d="M243 453 c-16 -6 -19 -428 -4 -437 5 -4 16 -3 25 0 14 5 16 33 16
214 0 210 -4 235 -37 223z"/>
<path d="M935 344 c-12 -12 -15 -43 -15 -158 0 -150 8 -184 43 -170 15 5 17
24 17 169 0 134 -3 164 -15 169 -8 3 -21 -2 -30 -10z"/>
</g>
</svg>
