<?xml version="1.0" standalone="no"?>
<!DOCTYPE svg PUBLIC "-//W3C//DTD SVG 20010904//EN"
 "http://www.w3.org/TR/2001/REC-SVG-20010904/DTD/svg10.dtd">
<svg version="1.0" xmlns="http://www.w3.org/2000/svg"
 width="128.000000pt" height="128.000000pt" viewBox="0 0 128.000000 128.000000"
 preserveAspectRatio="xMidYMid meet">
<g transform="translate(0.000000,128.000000) scale(0.100000,-0.100000)"
fill="#000000" stroke="none">
<path d="M604 1245 c-6 -19 -8 -35 -5 -35 3 0 8 -104 9 -230 l4 -230 -25 0
c-16 0 -27 7 -30 18 -3 9 -5 -1 -6 -24 0 -22 3 -44 8 -50 4 -5 16 -32 26 -61
18 -50 18 -52 -3 -111 -12 -32 -22 -68 -21 -78 0 -10 10 10 22 46 l22 65 6
-65 c5 -60 6 -61 7 -17 1 34 5 46 14 41 8 -5 9 -2 3 12 -5 10 -10 57 -12 104
l-4 85 107 70 c124 82 124 81 124 61 0 -20 4 -20 40 -1 27 14 30 20 30 68 0
28 -3 62 -6 74 -6 21 -8 22 -35 7 -20 -10 -29 -22 -29 -39 0 -14 -3 -25 -7
-25 -11 1 -217 307 -223 331 -4 16 -7 12 -16 -16z m142 -198 c48 -70 85 -129
83 -131 -6 -5 -182 -121 -196 -130 -10 -6 -13 40 -13 216 0 259 -15 253 126
45z m-136 -374 c0 -59 -9 -61 -28 -8 -5 17 -13 38 -17 48 -6 14 -2 17 19 17
25 0 26 -2 26 -57z"/>
<path d="M519 1088 c-34 -62 -64 -116 -66 -120 -2 -5 -2 -8 1 -8 2 0 32 51 67
113 34 61 64 115 66 120 2 4 2 7 -1 7 -2 0 -32 -51 -67 -112z"/>
<path d="M581 1014 c0 -11 3 -14 6 -6 3 7 2 16 -1 19 -3 4 -6 -2 -5 -13z"/>
<path d="M379 838 c-34 -62 -64 -116 -66 -120 -2 -5 -2 -8 1 -8 2 0 32 51 67
113 34 61 64 115 66 120 2 4 2 7 -1 7 -2 0 -32 -51 -67 -112z"/>
<path d="M572 930 c0 -14 2 -19 5 -12 2 6 2 18 0 25 -3 6 -5 1 -5 -13z"/>
<path d="M561 844 c0 -11 3 -14 6 -6 3 7 2 16 -1 19 -3 4 -6 -2 -5 -13z"/>
<path d="M239 588 c-34 -62 -64 -116 -66 -120 -2 -5 -2 -8 1 -8 2 0 32 51 67
113 34 61 64 115 66 120 2 4 2 7 -1 7 -2 0 -32 -51 -67 -112z"/>
<path d="M655 680 c-4 -6 -6 -43 -5 -83 2 -104 -20 -227 -39 -227 -13 0 -13
-2 -3 -9 9 -5 11 -17 6 -34 -5 -21 -2 -27 10 -27 23 0 20 -9 -9 -32 -19 -15
-25 -29 -25 -59 0 -21 -4 -39 -10 -39 -5 0 -10 -9 -10 -19 0 -11 -4 -23 -10
-26 -5 -3 -10 -13 -10 -21 0 -8 5 -12 10 -9 5 3 10 -1 10 -9 0 -10 -6 -13 -16
-9 -12 4 -15 2 -12 -8 2 -8 15 -16 29 -19 13 -3 -108 -7 -270 -10 -223 -4
-295 -8 -299 -17 -3 -10 129 -13 638 -13 509 0 641 3 638 13 -3 8 -40 14 -119
17 l-115 5 -3 95 -3 94 71 -67 c55 -52 78 -67 101 -67 20 0 30 5 30 15 0 9 -9
15 -23 15 -13 0 -27 3 -31 8 -4 4 -11 7 -15 7 -4 0 -35 27 -69 59 -43 41 -62
68 -63 85 -1 19 -3 21 -6 7 -4 -16 -12 -11 -54 30 l-49 48 42 13 c62 18 65 17
88 -27 11 -22 23 -40 25 -40 3 0 -6 23 -20 51 -20 39 -30 49 -43 44 -45 -17
-101 -28 -116 -22 -9 4 -21 17 -26 29 -5 13 -9 19 -9 14 -1 -10 -171 155 -171
165 0 10 89 31 101 24 10 -7 13 8 3 17 -3 3 -26 -1 -51 -8 -68 -20 -73 -19
-73 21 0 34 -12 46 -25 25z m147 -345 l2 -130 6 125 5 125 108 -104 c104 -101
107 -105 107 -148 0 -43 0 -43 -35 -43 l-35 0 0 75 0 76 -57 -3 -58 -3 -3 -72
c-2 -54 -6 -73 -17 -73 -7 0 -16 10 -18 23 -2 12 -5 -9 -6 -48 l-2 -70 -19 39
c-11 22 -20 46 -20 53 0 7 -4 13 -10 13 -5 0 -10 18 -10 39 0 29 -6 44 -22 58
-30 24 -28 83 3 83 10 0 19 5 19 10 0 6 -11 10 -25 10 -18 0 -25 5 -25 20 0
11 7 23 15 26 22 9 18 43 -10 80 -24 32 -32 64 -18 78 4 3 33 -19 65 -51 l58
-57 2 -131z m-108 -216 c-9 -28 -13 -57 -10 -65 4 -9 -2 -14 -15 -14 -11 0
-18 4 -15 9 4 5 1 22 -5 38 -6 15 -15 40 -19 56 -8 27 -8 27 35 27 l44 0 -15
-51z m-84 -18 c0 -3 -4 -12 -9 -19 -7 -11 -10 -10 -15 3 -10 26 -7 35 9 29 8
-4 15 -9 15 -13z m420 -21 l0 -40 -122 1 c-68 0 -117 3 -110 6 6 2 12 20 12
39 l0 34 110 0 110 0 0 -40z m-280 23 c0 -10 -20 -40 -20 -31 0 3 -3 13 -6 22
-4 11 -1 16 10 16 9 0 16 -3 16 -7z m-110 -24 c0 -5 -4 -9 -10 -9 -5 0 -10 7
-10 16 0 8 5 12 10 9 6 -3 10 -10 10 -16z m70 5 c0 -8 -5 -12 -10 -9 -6 4 -8
11 -5 16 9 14 15 11 15 -7z m70 2 c0 -3 -4 -8 -10 -11 -5 -3 -10 -1 -10 4 0 6
5 11 10 11 6 0 10 -2 10 -4z m-140 -42 c0 -2 -7 -4 -15 -4 -8 0 -15 4 -15 10
0 5 7 7 15 4 8 -4 15 -8 15 -10z m140 0 c0 -2 -9 -4 -21 -4 -11 0 -18 4 -14
10 5 8 35 3 35 -6z m-53 0 c-3 -3 -12 -4 -19 -1 -8 3 -5 6 6 6 11 1 17 -2 13
-5z"/>
<path d="M552 625 c0 -16 2 -22 5 -12 2 9 2 23 0 30 -3 6 -5 -1 -5 -18z"/>
<path d="M88 634 c-5 -4 -8 -17 -8 -28 0 -16 -2 -18 -9 -7 -7 11 -11 5 -16
-23 -8 -43 1 -61 11 -22 8 32 32 34 43 4 l8 -23 8 24 c5 17 3 28 -8 35 -8 7
-16 20 -18 30 -2 10 -7 14 -11 10z"/>
<path d="M350 602 c0 -40 19 -92 34 -92 4 0 6 10 2 23 -3 12 -6 41 -6 65 0 31
-4 42 -15 42 -11 0 -15 -11 -15 -38z"/>
<path d="M43 480 c0 -25 2 -35 4 -22 2 12 2 32 0 45 -2 12 -4 2 -4 -23z"/>
<path d="M84 470 c0 -35 4 -50 13 -50 7 0 13 10 13 21 0 18 2 19 15 9 13 -11
15 -8 15 13 0 14 -3 33 -7 43 -6 16 -7 16 -14 -2 -7 -17 -8 -17 -8 -1 -1 9 -7
17 -14 17 -9 0 -13 -15 -13 -50z"/>
<path d="M123 380 c0 -25 2 -35 4 -22 2 12 2 32 0 45 -2 12 -4 2 -4 -23z"/>
<path d="M35 390 c-3 -5 1 -20 9 -32 16 -22 16 -22 16 10 0 31 -12 42 -25 22z"/>
<path d="M64 308 c-7 -24 6 -45 17 -27 8 12 11 11 19 -1 7 -12 10 -8 10 15 0
24 -4 31 -20 31 -11 0 -23 -8 -26 -18z"/>
</g>
</svg>
