<?xml version="1.0" standalone="no"?>
<!DOCTYPE svg PUBLIC "-//W3C//DTD SVG 20010904//EN"
 "http://www.w3.org/TR/2001/REC-SVG-20010904/DTD/svg10.dtd">
<svg version="1.0" xmlns="http://www.w3.org/2000/svg"
 width="128.000000pt" height="128.000000pt" viewBox="0 0 128.000000 128.000000"
 preserveAspectRatio="xMidYMid meet">
<g transform="translate(0.000000,128.000000) scale(0.100000,-0.100000)"
fill="#000000" stroke="none">
<path d="M166 1074 c-3 -9 -6 -204 -6 -433 0 -392 1 -419 18 -434 17 -15 64
-17 464 -17 418 0 446 1 461 18 15 17 17 62 17 438 0 313 -3 423 -12 432 -9 9
-75 12 -234 12 -190 0 -223 -2 -235 -16 -9 -11 -10 -20 -2 -32 9 -15 36 -17
212 -20 l201 -2 0 -146 0 -145 -22 7 c-13 4 -39 17 -58 30 -45 31 -76 30 -125
-3 -50 -34 -89 -34 -139 0 -49 34 -80 34 -129 0 -22 -16 -52 -27 -71 -27 -19
0 -46 11 -67 27 -46 35 -83 34 -138 -3 -72 -49 -71 -51 -71 138 0 173 -4 192
-41 192 -9 0 -20 -7 -23 -16z"/>
<path d="M292 1065 c-12 -15 -22 -32 -22 -37 0 -21 22 -48 38 -48 42 0 55 51
24 90 l-18 23 -22 -28z"/>
<path d="M411 1064 c-25 -32 -24 -62 2 -78 42 -27 73 39 39 83 l-19 23 -22
-28z"/>
<path d="M526 1066 c-31 -48 0 -106 42 -80 26 17 26 48 -1 79 l-23 27 -18 -26z"/>
</g>
</svg>
