<?xml version="1.0" standalone="no"?>
<!DOCTYPE svg PUBLIC "-//W3C//DTD SVG 20010904//EN"
 "http://www.w3.org/TR/2001/REC-SVG-20010904/DTD/svg10.dtd">
<svg version="1.0" xmlns="http://www.w3.org/2000/svg"
 width="128.000000pt" height="128.000000pt" viewBox="0 0 128.000000 128.000000"
 preserveAspectRatio="xMidYMid meet">
<g transform="translate(0.000000,128.000000) scale(0.100000,-0.100000)"
fill="#000000" stroke="none">
<path d="M557 1138 c-88 -117 -120 -294 -82 -441 l15 -57 -126 -251 c-69 -138
-123 -258 -120 -265 4 -11 53 -14 266 -14 254 0 260 0 260 20 0 11 -34 88 -75
170 -41 82 -75 152 -75 156 0 3 14 -6 31 -21 78 -65 199 -105 319 -105 131 0
131 -2 13 201 -55 96 -105 183 -111 195 -10 19 -5 24 57 59 64 36 68 40 58 62
-12 27 -16 28 -42 10 -11 -7 -41 -25 -66 -40 l-46 -26 -109 189 c-74 129 -114
190 -126 190 -9 0 -28 -15 -41 -32z m244 -398 c110 -190 199 -348 199 -352 0
-13 -82 -9 -143 7 -140 36 -242 121 -305 252 -36 75 -37 82 -37 188 0 104 2
114 34 183 19 40 39 71 44 69 5 -1 99 -158 208 -347z m-196 -380 c52 -104 95
-192 95 -195 0 -3 -88 -5 -195 -5 l-195 0 97 195 c54 107 99 195 100 195 2 0
46 -85 98 -190z"/>
</g>
</svg>
