<?xml version="1.0" standalone="no"?>
<!DOCTYPE svg PUBLIC "-//W3C//DTD SVG 20010904//EN"
 "http://www.w3.org/TR/2001/REC-SVG-20010904/DTD/svg10.dtd">
<svg version="1.0" xmlns="http://www.w3.org/2000/svg"
 width="128.000000pt" height="128.000000pt" viewBox="0 0 128.000000 128.000000"
 preserveAspectRatio="xMidYMid meet">
<g transform="translate(0.000000,128.000000) scale(0.100000,-0.100000)"
fill="#000000" stroke="none">
<path d="M348 1156 c-97 -35 -157 -87 -206 -180 l-27 -51 -3 -407 -3 -408 346
0 345 0 0 320 c0 176 3 320 8 320 4 0 39 -20 77 -44 l70 -43 3 -276 2 -277 55
0 55 0 0 240 c0 132 2 240 5 240 3 0 23 -11 45 -25 22 -14 42 -25 45 -25 3 0
5 24 5 53 l-1 52 -184 109 -184 110 -11 45 c-25 102 -116 203 -216 240 -63 24
-169 27 -226 7z m213 -117 c39 -20 109 -94 109 -116 0 -10 -45 -13 -221 -13
l-220 0 22 40 c59 105 200 146 310 89z m27 -346 l3 -53 -135 0 -136 0 0 55 0
56 133 -3 132 -3 3 -52z m2 -213 l0 -50 -135 0 -135 0 0 50 0 50 135 0 135 0
0 -50z m-2 -212 l-3 -53 -132 -3 -133 -3 0 56 0 55 136 0 135 0 -3 -52z"/>
</g>
</svg>
