<?xml version="1.0" standalone="no"?>
<!DOCTYPE svg PUBLIC "-//W3C//DTD SVG 20010904//EN"
 "http://www.w3.org/TR/2001/REC-SVG-20010904/DTD/svg10.dtd">
<svg version="1.0" xmlns="http://www.w3.org/2000/svg"
 width="128.000000pt" height="128.000000pt" viewBox="0 0 128.000000 128.000000"
 preserveAspectRatio="xMidYMid meet">
<g transform="translate(0.000000,128.000000) scale(0.100000,-0.100000)"
fill="#000000" stroke="none">
<path d="M0 1252 c0 -21 17 -44 70 -97 l70 -69 -70 -71 c-66 -66 -70 -73 -70
-115 l0 -45 93 93 92 92 93 -93 92 -92 -105 -105 -105 -105 -80 80 -80 80 0
-41 c0 -35 7 -46 60 -99 l60 -59 -60 -61 c-55 -56 -60 -64 -60 -105 l0 -45 83
83 82 82 93 -93 92 -92 -105 -105 -105 -105 -70 70 -70 69 0 -46 c0 -43 3 -49
45 -84 25 -20 45 -42 45 -48 0 -7 -20 -32 -45 -56 -54 -53 -57 -70 -11 -70 27
0 41 8 71 41 l37 41 42 -41 c35 -34 48 -41 81 -41 l39 0 -57 58 c-31 32 -57
62 -57 67 0 6 45 55 100 110 l100 100 92 -93 93 -92 -75 -75 -74 -75 44 0 c40
0 49 5 97 52 l53 52 53 -52 c44 -44 58 -52 90 -52 20 0 37 3 37 6 0 3 -32 36
-71 72 l-70 67 105 105 106 105 92 -93 93 -92 -85 -85 -85 -85 41 0 c36 0 46
7 104 65 l64 65 66 -65 c48 -48 73 -65 93 -65 45 0 33 30 -43 105 l-70 69 70
71 c63 63 70 74 70 110 l0 40 -90 -90 -90 -90 -92 93 -93 92 105 105 105 105
77 -77 78 -78 0 40 c0 35 -7 47 -57 97 l-57 58 57 58 c52 53 57 61 57 102 l0
45 -80 -80 -80 -80 -92 93 -93 92 105 105 105 105 67 -67 68 -67 0 41 c0 37
-6 47 -47 87 l-48 45 48 48 c33 34 47 57 47 76 0 42 -27 34 -88 -25 l-53 -53
-50 53 c-45 46 -55 52 -92 52 l-41 0 72 -73 72 -72 -105 -105 -105 -105 -92
93 -93 92 85 85 85 85 -41 0 c-36 0 -46 -7 -104 -65 l-64 -65 -66 65 c-57 57
-70 65 -103 65 -20 0 -37 -4 -37 -9 0 -5 37 -43 83 -85 l82 -75 -105 -106
-105 -105 -92 92 -93 93 97 97 98 98 -45 0 c-43 0 -49 -4 -120 -75 l-75 -75
-75 75 c-81 81 -110 93 -110 47z m762 -279 l86 -88 -102 -107 -102 -107 -94
94 -95 95 100 100 c55 55 104 100 110 100 6 0 49 -39 97 -87z m213 -423 l-105
-105 -92 93 -93 92 105 105 105 105 92 -92 93 -93 -105 -105z m-467 167 l92
-92 -105 -105 -105 -105 -92 92 -91 91 98 106 c55 58 101 106 105 106 3 0 47
-42 98 -93z m227 -227 l90 -90 -105 -105 -105 -105 -87 87 c-49 48 -88 92 -88
98 0 10 190 205 200 205 3 0 46 -41 95 -90z"/>
</g>
</svg>
