<?xml version="1.0" standalone="no"?>
<!DOCTYPE svg PUBLIC "-//W3C//DTD SVG 20010904//EN"
 "http://www.w3.org/TR/2001/REC-SVG-20010904/DTD/svg10.dtd">
<svg version="1.0" xmlns="http://www.w3.org/2000/svg"
 width="128.000000pt" height="128.000000pt" viewBox="0 0 128.000000 128.000000"
 preserveAspectRatio="xMidYMid meet">
<g transform="translate(0.000000,128.000000) scale(0.100000,-0.100000)"
fill="#000000" stroke="none">
<path d="M660 1001 c-74 -38 -76 -40 -124 -127 -27 -49 -50 -90 -51 -92 -1 -1
-51 -16 -109 -31 -59 -16 -109 -31 -112 -34 -2 -2 -17 -48 -32 -103 l-27 -98
-76 -29 -76 -29 -22 -73 c-11 -41 -24 -80 -27 -88 -4 -11 16 -19 80 -36 82
-20 107 -21 640 -21 l554 0 -46 102 c-66 142 -138 222 -239 264 -52 21 -89 45
-127 83 l-53 52 -38 150 c-21 82 -38 149 -39 149 0 -1 -35 -18 -76 -39z m35
-210 c21 -85 26 -94 91 -165 60 -66 77 -79 145 -106 66 -27 84 -40 128 -92 28
-33 51 -66 51 -74 0 -13 -68 -14 -480 -12 -554 3 -576 7 -405 72 l70 26 25 97
25 98 97 26 c53 15 101 30 106 33 6 4 34 49 62 102 29 52 54 93 57 90 3 -2 15
-45 28 -95z"/>
<path d="M616 640 l-38 -42 38 -39 c21 -21 41 -39 44 -39 4 0 21 18 40 41 l33
41 -40 40 -40 39 -37 -41z"/>
<path d="M477 512 l-37 -37 38 -43 37 -43 39 40 40 41 -30 37 c-17 20 -35 38
-40 40 -5 2 -26 -14 -47 -35z"/>
<path d="M801 485 c-17 -20 -31 -39 -31 -43 0 -5 17 -25 38 -45 l38 -37 36 44
37 43 -38 37 c-20 20 -40 36 -43 36 -3 0 -20 -16 -37 -35z"/>
</g>
</svg>
