<?xml version="1.0" standalone="no"?>
<!DOCTYPE svg PUBLIC "-//W3C//DTD SVG 20010904//EN"
 "http://www.w3.org/TR/2001/REC-SVG-20010904/DTD/svg10.dtd">
<svg version="1.0" xmlns="http://www.w3.org/2000/svg"
 width="128.000000pt" height="128.000000pt" viewBox="0 0 128.000000 128.000000"
 preserveAspectRatio="xMidYMid meet">
<g transform="translate(0.000000,128.000000) scale(0.100000,-0.100000)"
fill="#000000" stroke="none">
<path d="M485 1254 c-218 -53 -403 -238 -459 -460 -20 -79 -20 -229 0 -308 56
-221 240 -406 459 -461 76 -19 234 -19 310 0 221 56 402 237 460 460 21 78 21
232 0 310 -29 110 -81 202 -164 285 -131 132 -271 191 -451 189 -52 0 -122 -7
-155 -15z m289 -89 c239 -63 406 -278 406 -525 0 -148 -53 -275 -159 -381
-296 -296 -800 -159 -906 247 -73 282 103 582 388 659 70 18 199 19 271 0z"/>
<path d="M561 1002 c-82 -41 -122 -142 -86 -213 25 -48 77 -109 125 -148 l41
-33 45 37 c58 48 122 133 130 173 14 70 -28 152 -97 188 -38 19 -117 18 -158
-4z"/>
<path d="M364 555 c-5 -11 7 -30 32 -56 53 -54 68 -57 115 -20 42 34 56 33 93
-8 24 -27 48 -27 72 0 37 41 52 42 92 9 20 -16 42 -30 50 -30 17 0 102 79 102
96 0 27 -21 23 -58 -11 -22 -19 -43 -35 -47 -35 -4 0 -25 16 -47 35 l-39 36
-44 -37 -45 -36 -45 36 -44 37 -39 -36 c-22 -19 -44 -35 -49 -35 -5 0 -20 12
-34 26 -36 39 -58 48 -65 29z"/>
<path d="M301 376 c-8 -10 -5 -18 12 -32 43 -39 96 -74 110 -74 7 0 35 16 62
35 l49 34 47 -34 c26 -19 52 -35 59 -35 7 0 34 15 60 34 l48 35 49 -35 c26
-19 54 -34 61 -34 17 0 119 71 126 87 3 6 -1 16 -8 22 -9 7 -26 1 -61 -24 -27
-19 -53 -35 -58 -35 -5 0 -31 16 -58 36 l-49 36 -49 -36 c-27 -20 -53 -36 -58
-36 -5 0 -31 16 -58 34 -27 19 -53 32 -59 29 -6 -4 -30 -19 -53 -35 -23 -15
-46 -28 -50 -28 -5 0 -25 12 -44 26 -54 41 -66 45 -78 30z"/>
</g>
</svg>
