<?xml version="1.0" standalone="no"?>
<!DOCTYPE svg PUBLIC "-//W3C//DTD SVG 20010904//EN"
 "http://www.w3.org/TR/2001/REC-SVG-20010904/DTD/svg10.dtd">
<svg version="1.0" xmlns="http://www.w3.org/2000/svg"
 width="128.000000pt" height="128.000000pt" viewBox="0 0 128.000000 128.000000"
 preserveAspectRatio="xMidYMid meet">
<g transform="translate(0.000000,128.000000) scale(0.100000,-0.100000)"
fill="#000000" stroke="none">
<path d="M590 1200 l0 -30 -122 0 c-142 0 -177 -13 -199 -74 -7 -19 -21 -37
-31 -39 -23 -7 -26 -84 -3 -93 12 -5 15 -30 15 -139 l0 -133 -27 -7 c-50 -12
-91 -45 -112 -89 -19 -39 -21 -60 -21 -249 0 -200 -1 -207 -20 -207 -17 0 -20
-7 -20 -45 l0 -45 590 0 590 0 0 45 c0 38 -3 45 -20 45 -19 0 -20 7 -20 205 0
150 -4 214 -14 238 -17 41 -76 93 -115 102 l-31 7 0 133 c0 109 3 134 15 139
23 9 20 86 -3 93 -10 2 -24 20 -31 38 -22 60 -60 75 -200 75 l-121 0 0 30 c0
29 -1 30 -50 30 -49 0 -50 -1 -50 -30z m60 -15 c0 -8 -4 -15 -10 -15 -5 0 -10
7 -10 15 0 8 5 15 10 15 6 0 10 -7 10 -15z m297 -71 c15 -12 29 -29 31 -38 3
-15 -26 -16 -337 -16 -359 0 -369 1 -323 43 36 33 67 36 334 34 254 -2 268 -3
295 -23z m73 -104 c0 -6 -133 -10 -380 -10 -247 0 -380 4 -380 10 0 6 133 10
380 10 247 0 380 -4 380 -10z m-480 -460 l0 -410 -125 0 -125 0 0 410 0 410
125 0 125 0 0 -410z m160 380 l0 -30 -60 0 -60 0 0 30 0 30 60 0 60 0 0 -30z
m290 -380 l0 -410 -125 0 -125 0 0 410 0 410 125 0 125 0 0 -410z m-290 285
c0 -24 -3 -25 -60 -25 -57 0 -60 1 -60 25 0 24 3 25 60 25 57 0 60 -1 60 -25z
m0 -95 l0 -30 -60 0 -60 0 0 30 0 30 60 0 60 0 0 -30z m0 -95 c0 -24 -3 -25
-60 -25 -57 0 -60 1 -60 25 0 24 3 25 60 25 57 0 60 -1 60 -25z m-450 -5 c0
-5 -16 -16 -35 -25 -58 -24 -65 -54 -65 -280 0 -123 -4 -195 -10 -195 -6 0
-10 76 -10 209 0 200 1 209 23 242 30 44 97 78 97 49z m837 -10 c58 -35 63
-56 63 -285 0 -130 -4 -205 -10 -205 -6 0 -10 72 -10 195 0 226 -7 256 -65
280 -19 9 -35 20 -35 25 0 16 22 12 57 -10z m-837 -265 l0 -225 -30 0 -30 0 0
205 c0 192 1 206 20 225 11 11 25 20 30 20 6 0 10 -82 10 -225z m820 205 c19
-19 20 -33 20 -225 l0 -205 -30 0 -30 0 0 225 c0 143 4 225 10 225 6 0 19 -9
30 -20z m-370 -20 l0 -30 -60 0 -60 0 0 30 0 30 60 0 60 0 0 -30z m0 -95 c0
-24 -3 -25 -60 -25 -57 0 -60 1 -60 25 0 24 3 25 60 25 57 0 60 -1 60 -25z m0
-95 l0 -30 -60 0 -60 0 0 30 0 30 60 0 60 0 0 -30z m0 -95 c0 -24 -3 -25 -60
-25 -57 0 -60 1 -60 25 0 24 3 25 60 25 57 0 60 -1 60 -25z m0 -95 l0 -30 -60
0 -60 0 0 30 0 30 60 0 60 0 0 -30z m500 -75 c0 -13 -69 -15 -560 -15 -491 0
-560 2 -560 15 0 13 69 15 560 15 491 0 560 -2 560 -15z"/>
<path d="M932 368 c2 -39 7 -53 18 -53 11 0 15 12 15 50 0 40 -4 50 -18 53
-16 3 -18 -3 -15 -50z"/>
</g>
</svg>
