<?xml version="1.0" standalone="no"?>
<!DOCTYPE svg PUBLIC "-//W3C//DTD SVG 20010904//EN"
 "http://www.w3.org/TR/2001/REC-SVG-20010904/DTD/svg10.dtd">
<svg version="1.0" xmlns="http://www.w3.org/2000/svg"
 width="128.000000pt" height="128.000000pt" viewBox="0 0 128.000000 128.000000"
 preserveAspectRatio="xMidYMid meet">
<g transform="translate(0.000000,128.000000) scale(0.100000,-0.100000)"
fill="#000000" stroke="none">
<path d="M304 1176 c-18 -14 -19 -33 -22 -525 l-3 -511 -50 0 c-47 0 -50 -2
-47 -23 l3 -22 456 -3 c411 -2 457 -1 463 14 10 26 -3 34 -55 34 l-49 0 0 505
c0 492 -1 506 -20 525 -19 19 -33 20 -338 20 -259 0 -322 -3 -338 -14z m634
-535 c2 -381 0 -486 -10 -493 -22 -13 -562 -10 -576 4 -9 9 -12 131 -12 488 0
262 3 480 7 483 4 4 137 6 297 5 l291 -3 3 -484z"/>
<path d="M437 1032 c-14 -16 -17 -43 -17 -174 0 -137 2 -157 18 -171 27 -25
382 -25 406 -1 13 13 16 43 16 173 0 140 -2 160 -18 174 -16 15 -45 17 -204
17 -166 0 -187 -2 -201 -18z m357 -48 c22 -21 23 -235 2 -253 -9 -8 -61 -11
-162 -9 l-149 3 -3 129 c-2 97 1 131 10 138 7 4 75 8 150 8 111 0 140 -3 152
-16z"/>
<path d="M612 486 c-40 -47 -72 -87 -72 -90 0 -3 22 -6 50 -6 l50 0 -21 -52
c-12 -29 -24 -60 -26 -68 -3 -8 35 25 86 75 50 49 91 93 91 97 0 5 -23 8 -51
8 -48 0 -51 1 -46 23 11 46 19 97 15 97 -3 0 -37 -38 -76 -84z"/>
</g>
</svg>
