<?xml version="1.0" standalone="no"?>
<!DOCTYPE svg PUBLIC "-//W3C//DTD SVG 20010904//EN"
 "http://www.w3.org/TR/2001/REC-SVG-20010904/DTD/svg10.dtd">
<svg version="1.0" xmlns="http://www.w3.org/2000/svg"
 width="128.000000pt" height="128.000000pt" viewBox="0 0 128.000000 128.000000"
 preserveAspectRatio="xMidYMid meet">
<g transform="translate(0.000000,128.000000) scale(0.100000,-0.100000)"
fill="#000000" stroke="none">
<path d="M657 970 c-4 -14 -8 -38 -9 -55 -2 -22 -9 -31 -25 -33 -17 -2 -23
-10 -23 -27 0 -13 -3 -26 -8 -29 -4 -2 -7 -29 -7 -60 1 -31 -3 -56 -7 -56 -5
0 -5 -12 -2 -26 4 -17 2 -29 -6 -34 -10 -6 -10 -15 -2 -38 7 -20 7 -33 0 -40
-7 -7 -7 -20 0 -41 9 -26 8 -31 -5 -31 -10 0 -13 -5 -8 -17 17 -42 17 -56 1
-65 -13 -7 -14 -13 -4 -31 31 -58 16 -81 -61 -93 -44 -7 -53 -19 -21 -29 16
-5 20 -15 20 -46 l0 -39 175 0 175 0 0 35 c0 28 5 38 25 47 32 14 32 28 0 28
-13 0 -42 7 -63 15 -30 12 -37 21 -37 40 1 13 8 31 15 40 12 15 12 19 -4 31
-17 12 -17 17 -6 45 11 25 11 32 0 39 -10 6 -10 15 -1 40 14 41 14 41 -1 38
-14 -3 -14 0 -3 45 5 18 3 27 -5 27 -9 0 -11 10 -6 30 3 17 2 30 -2 30 -4 0
-8 26 -9 57 -1 32 -6 59 -11 61 -6 2 -8 12 -5 22 4 14 -2 22 -20 29 -21 8 -27
20 -35 63 -7 44 -10 49 -15 28z"/>
</g>
</svg>
