<?xml version="1.0" standalone="no"?>
<!DOCTYPE svg PUBLIC "-//W3C//DTD SVG 20010904//EN"
 "http://www.w3.org/TR/2001/REC-SVG-20010904/DTD/svg10.dtd">
<svg version="1.0" xmlns="http://www.w3.org/2000/svg"
 width="128.000000pt" height="128.000000pt" viewBox="0 0 128.000000 128.000000"
 preserveAspectRatio="xMidYMid meet">
<g transform="translate(0.000000,128.000000) scale(0.100000,-0.100000)"
fill="#000000" stroke="none">
<path d="M291 1006 c-81 -138 -84 -145 -72 -173 9 -19 8 -34 -1 -59 -9 -25 -9
-40 -2 -52 6 -9 67 -49 135 -89 68 -39 124 -78 124 -85 0 -8 -18 -15 -52 -18
-56 -6 -84 -25 -103 -71 -22 -51 -40 -36 -40 31 0 110 -36 155 -119 148 l-36
-3 0 -220 0 -220 46 -3 c37 -2 52 2 74 21 24 20 28 32 33 95 5 82 18 91 58 42
37 -43 91 -57 138 -35 61 29 86 112 50 164 -14 19 -14 25 -3 36 12 11 39 -1
167 -76 167 -97 199 -106 226 -64 16 24 18 25 46 10 16 -8 36 -15 44 -15 16 0
126 185 126 212 0 9 7 21 15 28 9 7 15 20 13 28 -4 22 -755 452 -789 452 -25
0 -34 -10 -78 -84z m443 -171 c190 -110 346 -202 346 -205 0 -3 -44 -34 -97
-69 l-97 -64 -71 36 c-70 37 -522 303 -538 317 -10 9 -4 21 55 123 22 38 43
67 48 65 5 -2 164 -93 354 -203z m-161 -218 c155 -90 290 -166 300 -170 14 -5
16 -11 7 -27 -6 -11 -13 -20 -16 -20 -4 0 -591 336 -602 345 -6 5 11 35 19 35
5 0 137 -73 292 -163z m-364 -41 c8 -9 11 -64 9 -172 -3 -156 -3 -159 -25
-162 l-23 -3 0 175 c0 143 3 176 14 176 7 0 19 -6 25 -14z m819 -86 c-35 -64
-36 -64 -56 -51 -12 7 -12 13 0 35 11 20 70 73 86 76 1 0 -12 -27 -30 -60z
m-554 -32 c33 -47 7 -98 -50 -98 -41 0 -68 34 -58 74 12 49 81 64 108 24z"/>
</g>
</svg>
