<?xml version="1.0" standalone="no"?>
<!DOCTYPE svg PUBLIC "-//W3C//DTD SVG 20010904//EN"
 "http://www.w3.org/TR/2001/REC-SVG-20010904/DTD/svg10.dtd">
<svg version="1.0" xmlns="http://www.w3.org/2000/svg"
 width="128.000000pt" height="128.000000pt" viewBox="0 0 128.000000 128.000000"
 preserveAspectRatio="xMidYMid meet">
<g transform="translate(0.000000,128.000000) scale(0.100000,-0.100000)"
fill="#000000" stroke="none">
<path d="M350 1175 l0 -35 85 0 85 0 0 35 0 35 -85 0 -85 0 0 -35z"/>
<path d="M790 1175 l0 -35 90 0 90 0 0 35 0 35 -90 0 -90 0 0 -35z"/>
<path d="M397 988 c-36 -13 -32 -40 9 -53 l30 -10 -216 -445 -217 -445 36 -8
c19 -4 40 -6 46 -3 6 2 109 207 230 455 l219 452 33 -3 34 -3 2 -450 2 -450
55 0 55 0 3 453 2 452 39 0 39 0 198 -447 c108 -247 200 -450 203 -453 3 -3
22 -3 42 0 l37 5 -197 445 -197 445 25 9 c35 12 43 28 25 46 -12 12 -57 15
-262 17 -153 1 -258 -2 -275 -9z"/>
</g>
</svg>
