<?xml version="1.0" standalone="no"?>
<!DOCTYPE svg PUBLIC "-//W3C//DTD SVG 20010904//EN"
 "http://www.w3.org/TR/2001/REC-SVG-20010904/DTD/svg10.dtd">
<svg version="1.0" xmlns="http://www.w3.org/2000/svg"
 width="128.000000pt" height="128.000000pt" viewBox="0 0 128.000000 128.000000"
 preserveAspectRatio="xMidYMid meet">
<g transform="translate(0.000000,128.000000) scale(0.100000,-0.100000)"
fill="#000000" stroke="none">
<path d="M665 950 c-88 -116 -101 -121 -169 -65 -38 31 -50 35 -99 35 l-56 0
-71 -182 c-40 -101 -75 -189 -77 -195 -4 -10 90 -13 451 -13 418 0 456 1 456
17 0 16 -70 427 -73 429 -5 4 -265 74 -275 74 -6 0 -45 -45 -87 -100z m209
-182 c60 -68 64 -78 40 -102 -24 -25 -44 -19 -80 22 l-32 37 -40 -39 c-43 -41
-75 -43 -88 -4 -5 16 7 34 57 84 35 35 69 64 75 64 7 0 37 -28 68 -62z m-394
-78 c23 -23 25 -40 8 -62 -20 -24 -44 -28 -67 -12 -25 18 -27 56 -5 78 21 21
40 20 64 -4z"/>
<path d="M448 440 l-256 -5 30 -72 31 -73 386 0 387 0 37 75 c20 42 37 78 37
80 0 5 -246 4 -652 -5z"/>
<path d="M320 185 c-16 -19 -4 -52 22 -61 30 -9 62 29 48 57 -13 22 -52 25
-70 4z"/>
<path d="M912 188 c-33 -33 17 -88 53 -58 25 21 15 64 -15 68 -14 2 -31 -3
-38 -10z"/>
</g>
</svg>
