<?xml version="1.0" standalone="no"?>
<!DOCTYPE svg PUBLIC "-//W3C//DTD SVG 20010904//EN"
 "http://www.w3.org/TR/2001/REC-SVG-20010904/DTD/svg10.dtd">
<svg version="1.0" xmlns="http://www.w3.org/2000/svg"
 width="128.000000pt" height="128.000000pt" viewBox="0 0 128.000000 128.000000"
 preserveAspectRatio="xMidYMid meet">
<g transform="translate(0.000000,128.000000) scale(0.100000,-0.100000)"
fill="#000000" stroke="none">
<path d="M1063 1270 c-12 -5 -30 -17 -40 -27 -16 -16 -54 -21 -293 -36 l-274
-17 -44 42 -43 43 -35 -40 c-170 -200 -176 -522 -12 -739 122 -163 332 -253
525 -226 114 16 251 79 313 145 l24 25 -41 43 -40 42 16 285 c15 268 17 287
39 314 30 39 30 95 0 124 -28 25 -66 34 -95 22z m-109 -162 c-38 -45 -205
-208 -212 -208 -9 0 -207 199 -201 202 9 3 309 25 368 26 l64 2 -19 -22z m82
-170 c-16 -285 -19 -318 -25 -318 -3 0 -51 48 -105 106 l-99 106 109 109 c60
60 113 109 118 109 5 0 6 -48 2 -112z"/>
<path d="M276 312 c-45 -70 -165 -277 -172 -295 -6 -16 17 -17 400 -17 l406 0
0 79 0 80 -67 -6 c-162 -13 -361 49 -487 152 l-56 45 -24 -38z"/>
</g>
</svg>
