<?xml version="1.0" standalone="no"?>
<!DOCTYPE svg PUBLIC "-//W3C//DTD SVG 20010904//EN"
 "http://www.w3.org/TR/2001/REC-SVG-20010904/DTD/svg10.dtd">
<svg version="1.0" xmlns="http://www.w3.org/2000/svg"
 width="128.000000pt" height="128.000000pt" viewBox="0 0 128.000000 128.000000"
 preserveAspectRatio="xMidYMid meet">
<g transform="translate(0.000000,128.000000) scale(0.100000,-0.100000)"
fill="#000000" stroke="none">
<path d="M506 1155 c-236 -65 -396 -273 -396 -513 0 -296 234 -531 529 -532
295 0 531 235 531 530 0 242 -163 454 -396 514 -74 19 -200 19 -268 1z m149
-286 c0 -24 -5 -34 -15 -34 -16 0 -25 37 -16 62 10 26 31 8 31 -28z m-168 -51
c25 -24 30 -48 10 -48 -19 0 -60 47 -52 59 9 16 16 14 42 -11z m348 11 c8 -12
-33 -59 -52 -59 -20 0 -16 21 9 47 24 25 34 28 43 12z m-160 -69 c25 0 74 -51
84 -86 26 -93 -60 -179 -152 -153 -91 25 -121 144 -53 208 25 24 73 42 94 35
8 -2 20 -4 27 -4z m-230 -120 c0 -18 -52 -27 -67 -12 -17 17 2 33 35 30 20 -2
32 -8 32 -18z m460 0 c0 -18 -52 -27 -67 -12 -17 17 2 33 35 30 20 -2 32 -8
32 -18z m-395 -143 c0 -8 -11 -24 -25 -37 -19 -18 -28 -21 -37 -12 -9 9 -6 18
12 37 25 27 50 33 50 12z m310 -12 c18 -19 21 -28 12 -37 -9 -9 -18 -6 -37 12
-14 13 -25 29 -25 37 0 21 25 15 50 -12z m-165 -76 c0 -24 -5 -34 -15 -34 -16
0 -25 37 -16 62 10 26 31 8 31 -28z"/>
</g>
</svg>
