<?xml version="1.0" standalone="no"?>
<!DOCTYPE svg PUBLIC "-//W3C//DTD SVG 20010904//EN"
 "http://www.w3.org/TR/2001/REC-SVG-20010904/DTD/svg10.dtd">
<svg version="1.0" xmlns="http://www.w3.org/2000/svg"
 width="128.000000pt" height="128.000000pt" viewBox="0 0 128.000000 128.000000"
 preserveAspectRatio="xMidYMid meet">
<g transform="translate(0.000000,128.000000) scale(0.100000,-0.100000)"
fill="#000000" stroke="none">
<path d="M0 1144 c0 -130 1 -136 25 -159 20 -21 34 -25 80 -25 l55 0 0 -80 0
-80 -68 0 c-40 0 -73 -5 -80 -12 -16 -16 -16 -120 0 -136 7 -7 40 -12 80 -12
l68 0 0 -308 c0 -226 3 -311 12 -320 16 -16 120 -16 136 0 9 9 12 94 12 320
l0 308 320 0 320 0 0 -308 c0 -226 3 -311 12 -320 16 -16 120 -16 136 0 9 9
12 94 12 320 l0 308 68 0 c40 0 73 5 80 12 16 16 16 120 0 136 -7 7 -40 12
-80 12 l-68 0 0 80 0 80 55 0 c46 0 60 4 80 25 24 23 25 29 25 159 l0 135 -58
-24 c-121 -49 -183 -55 -582 -55 -399 0 -461 6 -582 55 l-58 24 0 -135z m560
-264 l0 -80 -120 0 -120 0 0 80 0 80 120 0 120 0 0 -80z m400 0 l0 -80 -120 0
-120 0 0 80 0 80 120 0 120 0 0 -80z"/>
</g>
</svg>
