<?xml version="1.0" standalone="no"?>
<!DOCTYPE svg PUBLIC "-//W3C//DTD SVG 20010904//EN"
 "http://www.w3.org/TR/2001/REC-SVG-20010904/DTD/svg10.dtd">
<svg version="1.0" xmlns="http://www.w3.org/2000/svg"
 width="128.000000pt" height="128.000000pt" viewBox="0 0 128.000000 128.000000"
 preserveAspectRatio="xMidYMid meet">
<g transform="translate(0.000000,128.000000) scale(0.100000,-0.100000)"
fill="#000000" stroke="none">
<path d="M400 1182 l-215 -87 -3 -182 -2 -183 455 0 455 0 0 183 0 183 -217
87 c-120 48 -227 87 -238 87 -11 -1 -117 -40 -235 -88z m60 -272 l0 -90 -95 0
-95 0 0 90 0 90 95 0 95 0 0 -90z m270 0 l0 -90 -90 0 -90 0 0 90 0 90 90 0
90 0 0 -90z m270 0 l0 -90 -90 0 -90 0 0 90 0 90 90 0 90 0 0 -90z"/>
<path d="M356 658 c-3 -7 -21 -150 -41 -318 -20 -168 -38 -313 -41 -322 -5
-16 3 -18 65 -18 l70 0 6 35 c3 19 7 50 10 67 4 28 18 42 98 95 50 34 99 64
107 68 10 3 54 -21 117 -64 106 -74 113 -83 113 -173 0 -28 0 -28 70 -28 49 0
70 4 70 13 0 6 -18 156 -40 331 -22 176 -40 321 -40 323 0 2 -126 3 -280 3
-216 0 -282 -3 -284 -12z m438 -75 c16 -107 18 -101 -64 -159 -41 -29 -81 -53
-88 -53 -7 -1 -48 23 -92 51 l-80 53 6 60 c3 33 7 66 9 73 3 9 43 12 154 12
l149 0 6 -37z m-234 -263 c0 -8 -101 -80 -113 -80 -7 0 -4 29 9 117 l5 32 49
-30 c28 -17 50 -34 50 -39z m269 -44 l1 -38 -27 17 c-16 10 -43 29 -61 42
l-33 25 53 33 53 34 7 -37 c4 -20 7 -54 7 -76z"/>
</g>
</svg>
