<?xml version="1.0" standalone="no"?>
<!DOCTYPE svg PUBLIC "-//W3C//DTD SVG 20010904//EN"
 "http://www.w3.org/TR/2001/REC-SVG-20010904/DTD/svg10.dtd">
<svg version="1.0" xmlns="http://www.w3.org/2000/svg"
 width="128.000000pt" height="128.000000pt" viewBox="0 0 128.000000 128.000000"
 preserveAspectRatio="xMidYMid meet">
<g transform="translate(0.000000,128.000000) scale(0.100000,-0.100000)"
fill="#000000" stroke="none">
<path d="M585 1255 c-21 -20 -25 -34 -25 -80 l0 -55 -119 0 -118 0 -7 30 c-12
63 -100 63 -112 0 -6 -27 -10 -30 -45 -30 -32 0 -39 3 -39 20 0 26 -34 60 -60
60 -42 0 -60 -34 -60 -115 0 -67 3 -79 25 -100 22 -22 32 -25 105 -25 l80 0
175 -117 175 -116 0 -339 0 -339 25 -24 c32 -33 78 -33 110 0 l25 24 0 338 0
338 176 118 176 117 80 0 c70 0 82 3 103 25 22 21 25 33 25 100 0 81 -18 115
-60 115 -11 0 -29 -9 -40 -20 -11 -11 -20 -29 -20 -40 0 -17 -7 -20 -39 -20
-35 0 -39 3 -45 30 -12 63 -100 63 -112 0 l-6 -30 -119 0 -119 0 0 55 c0 67
-29 105 -80 105 -19 0 -40 -9 -55 -25z m-25 -360 c0 -36 -2 -65 -5 -65 -6 0
-174 108 -189 122 -6 4 36 8 92 8 l102 0 0 -65z m360 61 c0 -5 -185 -126 -193
-126 -4 0 -7 29 -7 65 l0 65 100 0 c55 0 100 -2 100 -4z"/>
</g>
</svg>
