<?xml version="1.0" standalone="no"?>
<!DOCTYPE svg PUBLIC "-//W3C//DTD SVG 20010904//EN"
 "http://www.w3.org/TR/2001/REC-SVG-20010904/DTD/svg10.dtd">
<svg version="1.0" xmlns="http://www.w3.org/2000/svg"
 width="128.000000pt" height="128.000000pt" viewBox="0 0 128.000000 128.000000"
 preserveAspectRatio="xMidYMid meet">
<g transform="translate(0.000000,128.000000) scale(0.100000,-0.100000)"
fill="#000000" stroke="none">
<path d="M58 1264 c-59 -31 -58 -22 -58 -624 0 -604 -1 -593 60 -625 44 -23
1116 -23 1160 0 61 32 60 21 60 625 0 604 1 593 -60 625 -43 22 -1121 22
-1162 -1z m1166 -33 l26 -24 0 -567 0 -567 -26 -24 -26 -24 -558 0 -558 0 -26
24 -26 24 0 567 0 567 22 20 c13 12 34 23 48 26 14 3 267 4 562 3 l536 -1 26
-24z"/>
<path d="M535 960 c-65 -21 -133 -70 -122 -87 5 -8 24 0 57 22 27 18 75 39
105 45 36 7 55 16 55 26 0 18 -22 17 -95 -6z"/>
<path d="M650 966 c0 -10 19 -19 54 -26 29 -6 75 -24 100 -41 44 -27 75 -31
60 -8 -12 19 -82 58 -134 73 -66 20 -80 20 -80 2z"/>
<path d="M565 916 c-52 -16 -98 -41 -114 -60 -22 -27 13 -31 48 -5 16 12 51
27 78 34 30 8 49 18 51 29 4 19 -8 19 -63 2z"/>
<path d="M652 915 c2 -12 20 -22 51 -30 27 -7 62 -22 79 -35 21 -15 33 -19 41
-11 7 7 7 14 -2 24 -14 17 -92 52 -139 62 -29 6 -33 4 -30 -10z"/>
<path d="M570 864 c-61 -19 -99 -49 -83 -65 9 -9 18 -7 39 10 15 12 44 24 66
27 28 5 38 11 38 25 0 22 -1 22 -60 3z"/>
<path d="M652 864 c2 -10 21 -22 46 -29 23 -7 49 -19 57 -25 8 -7 23 -9 32 -5
17 6 17 7 -2 22 -24 18 -69 38 -108 47 -23 6 -28 4 -25 -10z"/>
<path d="M877 862 c-4 -6 6 -32 22 -58 17 -25 35 -71 41 -100 7 -35 16 -54 26
-54 19 0 18 16 -6 91 -20 67 -71 141 -83 121z"/>
<path d="M362 833 c-27 -38 -48 -92 -57 -142 -5 -33 -4 -41 8 -41 11 0 19 17
27 54 6 29 24 74 40 99 26 42 29 57 9 57 -4 0 -16 -12 -27 -27z"/>
<path d="M400 799 c-23 -38 -55 -137 -46 -146 12 -12 36 8 36 30 0 13 12 47
26 76 19 37 23 56 16 63 -8 8 -17 1 -32 -23z"/>
<path d="M835 821 c-3 -6 4 -24 16 -40 12 -16 27 -51 34 -78 8 -31 18 -49 30
-51 14 -3 16 1 10 30 -8 43 -57 141 -72 146 -6 2 -14 -2 -18 -7z"/>
<path d="M553 804 c-35 -17 -47 -51 -15 -41 73 24 92 33 92 44 0 18 -38 16
-77 -3z"/>
<path d="M650 807 c0 -11 52 -35 89 -40 29 -4 20 21 -13 37 -41 19 -76 21 -76
3z"/>
<path d="M803 789 c-9 -9 -8 -18 8 -37 10 -14 22 -42 25 -64 4 -22 12 -38 20
-38 27 0 10 84 -28 133 -10 14 -16 15 -25 6z"/>
<path d="M432 748 c-11 -24 -23 -55 -26 -70 -5 -23 -3 -28 14 -28 14 0 20 7
20 23 0 12 9 40 20 61 18 37 19 56 0 56 -4 0 -17 -19 -28 -42z"/>
<path d="M571 754 c-16 -12 -19 -19 -11 -24 16 -10 70 11 70 27 0 18 -31 16
-59 -3z"/>
<path d="M650 757 c0 -20 57 -38 70 -23 7 10 3 16 -16 24 -33 16 -54 15 -54
-1z"/>
<path d="M476 726 c-19 -41 -21 -76 -3 -76 11 0 35 52 40 89 4 29 -21 20 -37
-13z"/>
<path d="M765 750 c-3 -5 1 -23 10 -39 8 -17 15 -37 15 -46 0 -8 7 -15 15 -15
20 0 19 31 -2 75 -17 36 -27 43 -38 25z"/>
<path d="M523 708 c-22 -46 -23 -58 -5 -58 25 0 46 50 29 67 -11 11 -15 10
-24 -9z"/>
<path d="M728 714 c-10 -9 16 -64 29 -64 16 0 17 24 3 51 -11 19 -22 24 -32
13z"/>
<path d="M305 589 c9 -55 31 -106 62 -147 39 -52 51 -25 14 33 -17 26 -35 72
-41 101 -8 37 -16 54 -27 54 -12 0 -13 -8 -8 -41z"/>
<path d="M355 598 c10 -47 45 -125 62 -139 10 -9 17 -9 24 -2 8 8 4 20 -11 41
-13 17 -28 52 -35 79 -8 31 -18 49 -30 51 -14 3 -16 -1 -10 -30z"/>
<path d="M404 613 c2 -10 8 -29 11 -43 4 -14 16 -40 27 -58 16 -26 23 -30 34
-21 11 9 10 15 -6 37 -11 14 -23 42 -26 64 -5 29 -11 38 -26 38 -14 0 -18 -5
-14 -17z"/>
<path d="M460 609 c0 -30 31 -90 44 -86 13 5 12 18 -6 70 -14 40 -38 50 -38
16z"/>
<path d="M511 598 c11 -41 26 -55 40 -41 16 16 -10 73 -33 73 -14 0 -15 -5 -7
-32z"/>
<path d="M733 603 c-10 -20 -10 -30 -1 -40 14 -17 26 -6 37 35 8 27 7 32 -7
32 -9 0 -23 -12 -29 -27z"/>
<path d="M790 613 c0 -10 -7 -31 -15 -47 -12 -23 -13 -31 -3 -37 15 -10 32 14
46 64 9 33 9 37 -9 37 -11 0 -19 -7 -19 -17z"/>
<path d="M840 607 c0 -12 -9 -40 -20 -61 -18 -37 -19 -56 0 -56 10 0 45 73 54
113 5 22 3 27 -14 27 -14 0 -20 -7 -20 -23z"/>
<path d="M897 623 c-2 -5 -7 -24 -11 -44 -4 -21 -17 -53 -31 -72 -20 -30 -21
-38 -10 -47 11 -9 18 -5 35 22 18 29 50 118 50 140 0 10 -27 11 -33 1z"/>
<path d="M940 576 c-6 -29 -24 -74 -40 -99 -28 -45 -25 -72 5 -47 21 18 62
109 70 158 5 34 4 42 -8 42 -11 0 -19 -17 -27 -54z"/>
<path d="M561 547 c-11 -14 4 -26 52 -41 28 -9 21 29 -8 42 -32 15 -30 15 -44
-1z"/>
<path d="M673 546 c-13 -6 -23 -18 -23 -28 0 -12 5 -15 23 -10 37 12 60 29 53
41 -8 13 -23 13 -53 -3z"/>
<path d="M525 510 c-4 -6 -5 -13 -4 -14 15 -13 72 -36 89 -36 32 0 24 24 -12
36 -18 6 -40 14 -49 18 -10 4 -20 2 -24 -4z"/>
<path d="M710 505 c-14 -8 -33 -14 -42 -15 -25 0 -23 -30 2 -30 29 0 90 32 90
47 0 17 -18 16 -50 -2z"/>
<path d="M491 476 c-9 -11 -5 -18 21 -34 18 -11 44 -23 58 -27 14 -3 33 -9 43
-11 12 -4 17 0 17 14 0 15 -9 21 -38 26 -22 3 -50 15 -64 26 -22 16 -28 17
-37 6z"/>
<path d="M751 470 c-13 -11 -41 -23 -62 -26 -29 -5 -39 -11 -39 -25 0 -16 5
-18 28 -13 45 10 117 49 117 64 0 21 -18 21 -44 0z"/>
<path d="M455 440 c-4 -6 -2 -17 4 -24 14 -17 93 -51 139 -61 29 -6 33 -4 30
10 -2 12 -20 22 -51 30 -27 7 -61 22 -77 34 -33 24 -36 25 -45 11z"/>
<path d="M781 428 c-19 -12 -55 -27 -80 -34 -30 -7 -47 -17 -49 -29 -3 -14 1
-16 30 -10 74 16 164 67 152 86 -8 13 -15 11 -53 -13z"/>
<path d="M807 384 c-26 -18 -72 -38 -102 -44 -36 -7 -55 -16 -55 -26 0 -18 14
-18 80 2 54 16 122 54 135 74 17 27 -14 24 -58 -6z"/>
<path d="M416 401 c-8 -13 24 -37 84 -64 73 -33 130 -43 130 -23 0 10 -18 18
-54 26 -29 6 -74 24 -100 40 -52 33 -53 34 -60 21z"/>
</g>
</svg>
