<?xml version="1.0" standalone="no"?>
<!DOCTYPE svg PUBLIC "-//W3C//DTD SVG 20010904//EN"
 "http://www.w3.org/TR/2001/REC-SVG-20010904/DTD/svg10.dtd">
<svg version="1.0" xmlns="http://www.w3.org/2000/svg"
 width="128.000000pt" height="128.000000pt" viewBox="0 0 128.000000 128.000000"
 preserveAspectRatio="xMidYMid meet">
<g transform="translate(0.000000,128.000000) scale(0.100000,-0.100000)"
fill="#000000" stroke="none">
<path d="M139 981 l-29 -29 0 -312 0 -312 29 -29 29 -29 472 0 472 0 29 29 29
29 0 312 0 312 -29 29 -29 29 -472 0 -472 0 -29 -29z m951 -341 l0 -290 -450
0 -450 0 0 290 0 290 450 0 450 0 0 -290z"/>
<path d="M245 798 c-3 -8 -4 -81 -3 -163 l3 -150 100 0 100 0 3 38 3 37 -65 0
-65 0 -3 123 -3 122 -33 3 c-20 2 -34 -2 -37 -10z"/>
<path d="M507 804 c-13 -13 -8 -299 5 -312 7 -7 45 -12 99 -12 94 0 113 9 107
52 -3 21 -9 23 -68 28 -57 4 -65 8 -65 25 0 17 8 21 65 25 l65 5 0 35 0 35
-67 3 c-59 3 -68 5 -68 22 0 17 9 19 68 22 l67 3 0 35 0 35 -101 3 c-55 1
-103 0 -107 -4z"/>
<path d="M778 804 c-5 -4 -8 -76 -8 -161 l0 -153 73 0 c54 0 80 5 105 20 99
61 97 213 -4 272 -34 20 -154 36 -166 22z m113 -84 c5 0 18 -9 29 -20 43 -43
13 -130 -45 -130 -25 0 -25 1 -25 81 0 70 2 80 16 75 9 -3 20 -6 25 -6z"/>
</g>
</svg>
