<?xml version="1.0" standalone="no"?>
<!DOCTYPE svg PUBLIC "-//W3C//DTD SVG 20010904//EN"
 "http://www.w3.org/TR/2001/REC-SVG-20010904/DTD/svg10.dtd">
<svg version="1.0" xmlns="http://www.w3.org/2000/svg"
 width="128.000000pt" height="128.000000pt" viewBox="0 0 128.000000 128.000000"
 preserveAspectRatio="xMidYMid meet">
<g transform="translate(0.000000,128.000000) scale(0.100000,-0.100000)"
fill="#000000" stroke="none">
<path d="M303 1066 c-27 -23 -28 -29 -34 -142 -5 -103 -14 -153 -72 -373 -37
-140 -67 -266 -67 -281 0 -15 11 -39 25 -54 l24 -26 349 0 c333 0 350 1 374
20 14 11 28 31 31 46 2 15 -26 147 -69 313 -65 253 -74 297 -74 377 0 85 -2
93 -26 118 l-27 26 -203 0 c-200 0 -203 0 -231 -24z m418 -161 c5 -92 16 -150
72 -362 37 -139 67 -259 67 -268 0 -13 -40 -15 -324 -15 -179 0 -327 4 -330 8
-3 5 29 138 70 297 63 246 74 301 74 372 l0 83 183 -2 182 -3 6 -110z"/>
<path d="M500 738 c-48 -52 -94 -141 -98 -194 -4 -48 -2 -55 29 -88 42 -46 90
-59 145 -40 71 24 105 90 84 161 -15 51 -100 177 -122 181 -9 2 -26 -7 -38
-20z m65 -131 c14 -24 25 -54 25 -67 0 -31 -27 -60 -57 -60 -26 0 -63 32 -63
56 0 20 50 114 61 114 5 0 20 -20 34 -43z"/>
<path d="M833 1004 c-12 -32 11 -49 71 -52 l56 -3 0 -76 c0 -60 12 -123 55
-292 31 -119 58 -224 61 -233 5 -16 -2 -18 -45 -18 -41 0 -52 -4 -61 -21 -19
-34 3 -49 75 -49 57 0 66 3 84 26 12 15 21 37 21 49 0 12 -27 126 -60 253 -48
184 -60 247 -60 307 0 67 -3 79 -25 100 -21 22 -33 25 -95 25 -56 0 -72 -3
-77 -16z"/>
</g>
</svg>
