<?xml version="1.0" standalone="no"?>
<!DOCTYPE svg PUBLIC "-//W3C//DTD SVG 20010904//EN"
 "http://www.w3.org/TR/2001/REC-SVG-20010904/DTD/svg10.dtd">
<svg version="1.0" xmlns="http://www.w3.org/2000/svg"
 width="128.000000pt" height="128.000000pt" viewBox="0 0 128.000000 128.000000"
 preserveAspectRatio="xMidYMid meet">
<g transform="translate(0.000000,128.000000) scale(0.100000,-0.100000)"
fill="#000000" stroke="none">
<path d="M500 1264 c-234 -50 -436 -254 -485 -489 -95 -454 305 -855 760 -760
179 37 350 170 433 335 95 191 95 389 0 580 -129 257 -422 396 -708 334z m301
-60 c254 -75 423 -300 423 -564 0 -266 -169 -489 -429 -566 -81 -24 -230 -24
-309 0 -200 59 -353 213 -412 411 -24 81 -24 229 0 310 68 229 256 393 491
429 51 7 179 -3 236 -20z"/>
<path d="M632 893 c2 -14 15 -19 51 -21 42 -3 47 -5 47 -28 0 -24 -1 -24 -95
-24 -106 0 -145 -12 -187 -56 -39 -42 -48 -75 -48 -179 0 -73 -3 -94 -15 -99
-24 -9 -21 -102 4 -116 25 -13 217 -13 242 0 24 13 27 91 4 114 -8 8 -15 28
-15 45 l0 31 124 0 c163 0 168 4 173 121 5 116 -4 132 -82 139 -52 4 -60 8
-63 27 -3 20 2 22 50 25 39 2 53 7 53 18 0 12 -22 15 -123 18 -114 2 -123 1
-120 -15z"/>
</g>
</svg>
