<?xml version="1.0" standalone="no"?>
<!DOCTYPE svg PUBLIC "-//W3C//DTD SVG 20010904//EN"
 "http://www.w3.org/TR/2001/REC-SVG-20010904/DTD/svg10.dtd">
<svg version="1.0" xmlns="http://www.w3.org/2000/svg"
 width="128.000000pt" height="128.000000pt" viewBox="0 0 128.000000 128.000000"
 preserveAspectRatio="xMidYMid meet">
<g transform="translate(0.000000,128.000000) scale(0.100000,-0.100000)"
fill="#000000" stroke="none">
<path d="M110 1020 l0 -260 535 0 535 0 0 260 0 260 -535 0 -535 0 0 -260z"/>
<path d="M320 540 l0 -120 95 0 95 0 0 120 0 120 -95 0 -95 0 0 -120z"/>
<path d="M880 621 c-206 -67 -293 -297 -179 -476 l29 -45 -365 0 -365 0 0 -50
0 -50 640 0 640 0 0 50 0 50 -45 0 -45 0 29 40 c38 53 54 116 49 197 -6 115
-72 214 -176 265 -50 24 -164 35 -212 19z m188 -81 c23 -11 42 -23 42 -27 0
-5 -34 -42 -75 -83 l-75 -74 -75 74 c-41 41 -75 77 -75 80 0 10 58 40 96 49
48 12 106 5 162 -19z m-225 -148 l77 -77 -79 -79 -78 -78 -23 49 c-30 65 -31
154 0 217 12 25 23 46 24 46 1 0 36 -35 79 -78z m357 0 c14 -53 12 -113 -5
-162 -28 -79 -30 -79 -112 2 -40 40 -73 77 -73 83 0 5 33 42 73 83 72 72 72
73 89 52 10 -12 22 -38 28 -58z m-161 -196 c41 -42 70 -79 67 -85 -9 -14 -264
-15 -286 -1 -12 8 -1 24 60 85 41 41 77 75 80 75 3 0 39 -33 79 -74z"/>
</g>
</svg>
