<?xml version="1.0" standalone="no"?>
<!DOCTYPE svg PUBLIC "-//W3C//DTD SVG 20010904//EN"
 "http://www.w3.org/TR/2001/REC-SVG-20010904/DTD/svg10.dtd">
<svg version="1.0" xmlns="http://www.w3.org/2000/svg"
 width="128.000000pt" height="128.000000pt" viewBox="0 0 128.000000 128.000000"
 preserveAspectRatio="xMidYMid meet">
<g transform="translate(0.000000,128.000000) scale(0.100000,-0.100000)"
fill="#000000" stroke="none">
<path d="M500 1264 c-234 -50 -436 -254 -485 -489 -95 -454 306 -855 760 -760
238 50 440 252 490 490 95 456 -309 857 -765 759z m140 -159 l45 0 5 41 5 41
62 -13 c201 -41 376 -216 417 -417 l13 -62 -41 -5 -41 -5 0 -45 0 -45 41 -5
41 -5 -13 -62 c-20 -101 -70 -189 -149 -268 -79 -79 -167 -129 -268 -149 l-62
-13 -5 41 -5 41 -45 0 -45 0 -5 -41 -5 -41 -62 13 c-201 41 -376 216 -417 417
l-13 62 41 5 41 5 0 45 0 45 -41 5 -41 5 13 62 c41 201 216 376 417 417 l62
13 5 -41 5 -41 45 0z"/>
<path d="M495 1072 c-143 -49 -255 -166 -293 -304 l-10 -38 46 0 47 0 19 52
c25 72 122 169 194 194 l52 19 0 47 c0 27 -1 48 -2 48 -2 -1 -26 -8 -53 -18z"/>
<path d="M730 1043 l0 -48 52 -19 c72 -25 169 -122 194 -194 l19 -52 47 0 46
0 -10 38 c-31 115 -130 231 -240 282 -108 49 -108 49 -108 -7z"/>
<path d="M592 849 c-29 -35 -70 -100 -93 -144 -36 -71 -40 -86 -35 -128 15
-133 148 -204 273 -147 50 22 80 66 89 129 13 86 -29 182 -130 295 l-53 59
-51 -64z"/>
<path d="M202 513 c39 -143 169 -273 311 -311 l37 -10 0 46 0 47 -52 19 c-72
25 -169 122 -194 194 l-19 52 -47 0 -46 0 10 -37z"/>
<path d="M976 498 c-25 -72 -122 -169 -194 -194 l-52 -19 0 -47 0 -46 38 10
c140 38 271 170 310 311 l10 37 -46 0 -47 0 -19 -52z"/>
</g>
</svg>
