<?xml version="1.0" standalone="no"?>
<!DOCTYPE svg PUBLIC "-//W3C//DTD SVG 20010904//EN"
 "http://www.w3.org/TR/2001/REC-SVG-20010904/DTD/svg10.dtd">
<svg version="1.0" xmlns="http://www.w3.org/2000/svg"
 width="128.000000pt" height="128.000000pt" viewBox="0 0 128.000000 128.000000"
 preserveAspectRatio="xMidYMid meet">
<g transform="translate(0.000000,128.000000) scale(0.100000,-0.100000)"
fill="#000000" stroke="none">
<path d="M184 1265 c-3 -8 -4 -97 -2 -197 3 -146 7 -191 21 -223 28 -62 65
-111 108 -141 31 -21 39 -33 39 -58 0 -34 -67 -586 -75 -624 -5 -21 -3 -22 64
-22 l70 0 6 35 c3 19 7 50 10 68 4 27 18 41 98 94 50 34 99 64 107 68 10 3 54
-21 117 -64 106 -74 113 -83 113 -173 0 -28 0 -28 70 -28 49 0 70 4 70 13 0 6
-18 156 -40 332 l-41 320 33 25 c51 39 87 81 111 130 20 41 22 62 25 253 l3
207 -65 0 -66 0 0 -70 c0 -67 -1 -70 -24 -70 -13 0 -43 -7 -66 -15 -69 -24
-148 -19 -233 15 -86 34 -174 40 -234 15 -19 -8 -46 -15 -59 -15 -23 0 -24 3
-24 70 l0 70 -65 0 c-49 0 -67 -4 -71 -15z m483 -659 l122 1 5 -26 c3 -14 6
-44 8 -65 3 -39 1 -41 -72 -92 -41 -29 -81 -53 -88 -53 -7 -1 -48 23 -92 51
l-80 53 6 60 c8 85 9 87 41 78 16 -5 83 -8 150 -7z m-107 -286 c0 -8 -101 -80
-113 -80 -7 0 -4 29 9 117 l5 32 49 -30 c28 -17 50 -34 50 -39z m269 -44 l1
-38 -27 17 c-16 10 -43 29 -61 42 l-33 25 53 33 53 34 7 -37 c4 -20 7 -54 7
-76z"/>
</g>
</svg>
