<?xml version="1.0" standalone="no"?>
<!DOCTYPE svg PUBLIC "-//W3C//DTD SVG 20010904//EN"
 "http://www.w3.org/TR/2001/REC-SVG-20010904/DTD/svg10.dtd">
<svg version="1.0" xmlns="http://www.w3.org/2000/svg"
 width="128.000000pt" height="128.000000pt" viewBox="0 0 128.000000 128.000000"
 preserveAspectRatio="xMidYMid meet">
<g transform="translate(0.000000,128.000000) scale(0.100000,-0.100000)"
fill="#000000" stroke="none">
<path d="M200 1095 l0 -55 -55 0 c-52 0 -55 -1 -55 -25 0 -24 3 -25 55 -25
l55 0 0 -204 0 -205 -47 -3 -48 -3 -3 -62 -3 -63 36 0 35 0 0 -190 0 -190 345
0 345 0 0 190 0 190 40 0 41 0 -3 63 -3 62 -48 3 -47 3 2 202 3 202 55 0 55 0
3 -132 3 -133 29 0 c17 0 30 5 30 10 0 6 40 10 100 10 l100 0 0 30 0 30 -100
0 -100 0 0 120 0 119 -87 3 -88 3 -3 53 -3 52 -39 0 -39 0 -3 -52 -3 -53 -62
-3 c-62 -3 -63 -2 -63 23 l0 25 -94 0 c-90 0 -95 -1 -98 -22 -3 -21 -9 -23
-75 -26 l-73 -3 0 56 0 55 -45 0 -45 0 0 -55z m243 -125 c15 -18 17 -45 17
-205 l0 -185 -85 0 -85 0 0 205 0 205 68 0 c55 0 71 -4 85 -20z m315 -187 l2
-203 -140 0 -140 0 2 188 3 187 73 3 c56 2 72 6 72 18 0 12 12 14 63 12 l62
-3 3 -202z"/>
</g>
</svg>
