<?xml version="1.0" standalone="no"?>
<!DOCTYPE svg PUBLIC "-//W3C//DTD SVG 20010904//EN"
 "http://www.w3.org/TR/2001/REC-SVG-20010904/DTD/svg10.dtd">
<svg version="1.0" xmlns="http://www.w3.org/2000/svg"
 width="128.000000pt" height="128.000000pt" viewBox="0 0 128.000000 128.000000"
 preserveAspectRatio="xMidYMid meet">
<g transform="translate(0.000000,128.000000) scale(0.100000,-0.100000)"
fill="#000000" stroke="none">
<path d="M815 1191 c-22 -10 -61 -37 -87 -59 l-47 -39 -58 10 c-32 5 -123 10
-203 11 -119 1 -156 -2 -205 -19 -113 -37 -183 -137 -193 -277 -6 -93 10 -128
58 -128 38 0 44 12 46 95 2 122 42 185 133 212 45 13 83 15 201 9 80 -3 170
-9 200 -12 l56 -6 69 56 c39 31 80 56 93 56 21 0 138 -97 129 -107 -2 -2 -21
4 -42 13 -49 20 -99 12 -181 -32 l-64 -34 -100 15 c-125 19 -260 19 -303 1
-44 -18 -113 -96 -126 -142 -6 -22 -11 -87 -11 -146 0 -111 9 -138 48 -138 41
1 47 15 53 141 l6 121 36 36 c45 45 97 51 250 28 155 -23 176 -21 250 19 94
51 114 48 205 -39 58 -55 75 -88 58 -111 -10 -14 -21 -16 -47 -11 -99 18 -107
18 -143 1 -21 -10 -48 -34 -62 -54 -25 -37 -32 -99 -13 -118 7 -7 3 -12 -16
-17 -31 -8 -45 -40 -45 -102 l0 -44 -55 0 -55 0 0 55 c0 60 -22 95 -59 95 -36
0 -51 -27 -51 -91 l0 -59 -60 0 -60 0 0 55 c0 42 -5 60 -20 75 -47 47 -90 12
-90 -73 l0 -57 -60 0 -60 0 0 58 c0 64 -18 92 -57 92 -35 0 -53 -31 -53 -92 0
-54 -1 -56 -30 -62 -63 -12 -64 -97 -1 -111 l31 -7 0 -78 c0 -70 2 -81 22 -94
30 -21 44 -20 68 4 16 16 20 33 20 95 l0 75 60 0 60 0 0 -80 c0 -73 2 -81 24
-95 17 -11 30 -13 48 -6 33 12 38 28 38 112 l0 69 60 0 60 0 0 -80 c0 -73 2
-81 24 -95 17 -11 30 -13 48 -6 33 12 38 28 38 112 l0 69 55 0 55 0 0 -59 c0
-99 32 -146 83 -120 33 18 37 28 37 107 l0 72 55 0 55 0 0 -70 c0 -62 3 -74
25 -95 30 -31 40 -31 70 0 22 21 25 33 25 93 l0 69 42 6 c65 9 88 57 48 97
-12 12 -33 20 -55 20 l-35 0 0 55 c0 80 -44 118 -95 81 -13 -10 -20 -30 -23
-75 l-4 -61 -54 0 -54 0 0 55 c0 42 -5 60 -20 75 -19 19 -19 20 -2 20 21 0 52
29 52 48 0 7 9 21 19 31 18 18 22 18 74 4 71 -20 101 -12 154 41 35 35 43 50
43 80 0 54 -23 100 -81 161 -29 30 -47 55 -41 55 18 0 42 30 42 54 0 27 -86
125 -145 166 -57 39 -108 46 -160 21z"/>
</g>
</svg>
