<?xml version="1.0" standalone="no"?>
<!DOCTYPE svg PUBLIC "-//W3C//DTD SVG 20010904//EN"
 "http://www.w3.org/TR/2001/REC-SVG-20010904/DTD/svg10.dtd">
<svg version="1.0" xmlns="http://www.w3.org/2000/svg"
 width="128.000000pt" height="128.000000pt" viewBox="0 0 128.000000 128.000000"
 preserveAspectRatio="xMidYMid meet">
<g transform="translate(0.000000,128.000000) scale(0.100000,-0.100000)"
fill="#000000" stroke="none">
<path d="M762 1163 c-28 -40 -28 -46 8 -105 17 -26 30 -51 30 -54 0 -3 -29 19
-64 50 -35 31 -66 56 -70 56 -4 0 -6 -19 -4 -42 3 -39 7 -44 55 -72 29 -16 51
-32 48 -34 -2 -2 -35 3 -74 12 -95 22 -94 22 -71 -24 l20 -40 68 -1 67 0 -82
-26 c-46 -15 -83 -29 -83 -32 0 -3 15 -16 33 -27 l33 -21 62 36 c45 26 61 40
56 51 -15 37 -10 72 14 96 63 63 165 -16 122 -95 -8 -16 2 -29 59 -80 38 -33
72 -61 75 -61 3 0 6 19 6 43 0 41 -2 43 -60 75 -33 18 -60 34 -60 36 0 3 94
-14 158 -29 l23 -6 -21 40 -20 40 -67 3 -68 3 75 23 c41 13 79 27 83 32 5 4
-8 17 -28 30 -32 20 -38 20 -58 8 -12 -8 -40 -25 -62 -38 l-40 -25 32 40 c17
22 45 53 62 70 28 26 30 30 14 37 -49 19 -68 10 -103 -51 -19 -33 -36 -58 -37
-57 -2 2 4 38 13 80 9 43 14 80 11 83 -3 2 -19 -3 -36 -11 -29 -15 -30 -19
-33 -89 l-3 -72 -31 89 -30 89 -22 -30z"/>
<path d="M154 1024 c25 -63 28 -110 12 -163 -9 -30 -15 -56 -13 -57 1 -1 76 5
166 14 l164 17 20 32 c14 25 26 33 48 33 22 0 29 5 29 20 0 15 -7 20 -29 20
-22 0 -34 8 -48 33 l-20 33 -129 12 c-71 7 -147 16 -168 19 -36 6 -39 4 -32
-13z"/>
<path d="M765 828 c-22 -24 -51 -55 -64 -70 l-24 -28 46 0 c45 0 46 1 77 56
18 30 34 54 35 52 2 -2 -4 -41 -14 -86 -11 -45 -17 -82 -15 -82 2 0 19 7 38
17 35 16 35 17 38 87 l3 71 31 -89 30 -89 23 38 22 38 -23 44 c-40 75 -54 89
-72 74 -15 -13 -42 -12 -76 3 -10 4 -29 -8 -55 -36z"/>
<path d="M760 610 c0 -27 -3 -30 -30 -30 -23 0 -30 -4 -30 -20 0 -15 7 -20 25
-20 23 0 25 -4 25 -42 0 -43 -14 -262 -25 -390 -6 -68 -6 -68 19 -68 24 0 26
3 26 50 l0 50 35 0 35 0 0 -50 c0 -47 2 -50 25 -50 23 0 25 3 25 51 l0 50 33
-3 c31 -3 32 -5 35 -51 3 -42 6 -47 27 -47 21 0 24 4 20 28 -2 15 -9 110 -15
212 -6 102 -12 201 -13 220 -2 29 2 36 21 38 32 5 30 42 -3 42 -21 0 -25 5
-25 30 0 25 -4 30 -25 30 -21 0 -25 -5 -25 -30 0 -20 -5 -30 -15 -30 -10 0
-15 10 -15 30 0 25 -4 30 -25 30 -21 0 -25 -5 -25 -30 0 -24 -4 -30 -21 -30
-19 0 -21 4 -15 30 5 27 3 30 -19 30 -21 0 -25 -5 -25 -30z m80 -170 l0 -100
-25 0 c-23 0 -25 3 -25 48 0 26 3 71 6 100 6 42 10 52 25 52 17 0 19 -9 19
-100z m90 68 c0 -18 3 -63 7 -100 l6 -68 -27 0 -26 0 0 100 c0 93 1 100 20
100 16 0 20 -7 20 -32z m-90 -268 l0 -60 -30 0 c-30 0 -30 1 -30 53 0 60 4 67
37 67 22 0 23 -4 23 -60z m108 -2 l3 -58 -31 0 -30 0 0 61 c0 60 0 60 28 57
26 -3 27 -6 30 -60z"/>
</g>
</svg>
