<?xml version="1.0" standalone="no"?>
<!DOCTYPE svg PUBLIC "-//W3C//DTD SVG 20010904//EN"
 "http://www.w3.org/TR/2001/REC-SVG-20010904/DTD/svg10.dtd">
<svg version="1.0" xmlns="http://www.w3.org/2000/svg"
 width="128.000000pt" height="128.000000pt" viewBox="0 0 128.000000 128.000000"
 preserveAspectRatio="xMidYMid meet">
<g transform="translate(0.000000,128.000000) scale(0.100000,-0.100000)"
fill="#000000" stroke="none">
<path d="M170 1195 l-75 -76 35 -32 c20 -18 119 -103 220 -191 102 -87 186
-161 187 -165 2 -3 -96 -91 -217 -195 -121 -104 -220 -192 -220 -197 0 -8 141
-149 150 -149 3 0 90 99 194 220 104 121 192 219 196 218 7 -3 218 -245 317
-364 29 -34 57 -65 63 -69 12 -7 163 133 158 146 -2 3 -61 57 -133 119 -71 62
-169 146 -217 188 -49 42 -88 79 -88 82 0 4 91 85 203 180 111 95 211 181 222
192 19 18 19 19 -55 93 -41 41 -77 75 -81 75 -6 0 -342 -386 -367 -421 -7 -11
-17 -19 -21 -19 -5 0 -46 44 -92 98 -193 224 -292 337 -298 340 -4 1 -40 -32
-81 -73z m491 -425 c28 -16 26 -68 -3 -79 -26 -10 -61 7 -66 32 -3 14 30 57
44 57 3 0 14 -5 25 -10z"/>
<path d="M568 1083 c-26 -6 -23 -13 26 -68 l45 -50 45 50 c25 28 45 53 46 56
1 16 -115 25 -162 12z"/>
<path d="M380 724 c0 -8 5 -12 10 -9 6 3 10 10 10 16 0 5 -4 9 -10 9 -5 0 -10
-7 -10 -16z"/>
<path d="M880 731 c0 -6 5 -13 10 -16 6 -3 10 1 10 9 0 9 -4 16 -10 16 -5 0
-10 -4 -10 -9z"/>
<path d="M481 314 c-99 -115 -151 -183 -151 -198 0 -13 -3 -44 -6 -70 l-7 -46
323 0 c290 0 322 2 316 16 -3 9 -6 39 -6 67 0 51 -2 54 -91 157 -50 58 -118
138 -152 178 -34 39 -65 72 -68 72 -4 0 -75 -79 -158 -176z"/>
</g>
</svg>
