<?xml version="1.0" standalone="no"?>
<!DOCTYPE svg PUBLIC "-//W3C//DTD SVG 20010904//EN"
 "http://www.w3.org/TR/2001/REC-SVG-20010904/DTD/svg10.dtd">
<svg version="1.0" xmlns="http://www.w3.org/2000/svg"
 width="128.000000pt" height="128.000000pt" viewBox="0 0 128.000000 128.000000"
 preserveAspectRatio="xMidYMid meet">
<g transform="translate(0.000000,128.000000) scale(0.100000,-0.100000)"
fill="#000000" stroke="none">
<path d="M695 1154 c-40 -21 -53 -24 -72 -15 -42 19 -79 13 -125 -22 -36 -28
-48 -32 -72 -26 -30 8 -87 -9 -100 -30 -4 -6 -19 -11 -34 -11 -64 0 -94 -64
-56 -119 14 -19 22 -22 53 -17 46 8 59 8 98 0 23 -4 42 -1 65 13 32 19 34 19
63 1 39 -23 82 -23 122 1 31 20 32 19 70 0 109 -57 230 43 194 161 -26 86
-114 113 -206 64z"/>
<path d="M206 808 c-6 -51 -36 -373 -36 -383 0 -3 38 -5 85 -5 56 0 85 4 85
11 0 19 -30 341 -36 387 l-5 42 -44 0 -44 0 -5 -52z"/>
<path d="M720 605 c0 -71 -1 -75 -25 -81 l-25 -6 -2 -162 c-2 -101 -7 -160
-13 -159 -5 2 -11 23 -13 47 -2 33 -8 45 -22 49 -18 5 -20 17 -22 153 l-3 149
-32 3 -32 3 -3 -153 c-3 -145 -4 -153 -23 -153 -19 0 -20 8 -25 150 l-5 150
-32 3 -33 3 0 -155 0 -156 -145 0 -145 0 0 -49 c0 -52 -8 -61 -56 -61 -21 0
-24 -4 -24 -40 l0 -40 600 0 600 0 0 39 c0 36 -3 40 -27 43 l-28 3 -5 170 -5
170 -87 3 -88 3 0 74 0 75 -140 0 -140 0 0 -75z m80 -185 c0 -27 -3 -30 -30
-30 -25 0 -30 4 -30 23 0 30 7 37 37 37 19 0 23 -5 23 -30z m108 -2 c3 -25 0
-28 -27 -28 -28 0 -31 3 -31 31 0 27 3 30 28 27 21 -2 28 -9 30 -30z m100 0
c3 -26 1 -28 -32 -28 -31 0 -36 3 -36 23 0 31 9 39 40 35 19 -2 26 -10 28 -30z
m-208 -119 c0 -27 -3 -30 -27 -27 -22 2 -29 9 -31 31 -3 24 0 27 27 27 28 0
31 -3 31 -31z m100 1 c0 -25 -4 -30 -25 -30 -21 0 -25 5 -25 30 0 25 4 30 25
30 21 0 25 -5 25 -30z m110 0 c0 -28 -3 -30 -35 -30 -30 0 -35 3 -35 23 0 31
7 37 42 37 24 0 28 -4 28 -30z"/>
<path d="M142 353 l3 -28 113 -3 112 -3 0 31 0 30 -116 0 -115 0 3 -27z"/>
</g>
</svg>
