<?xml version="1.0" standalone="no"?>
<!DOCTYPE svg PUBLIC "-//W3C//DTD SVG 20010904//EN"
 "http://www.w3.org/TR/2001/REC-SVG-20010904/DTD/svg10.dtd">
<svg version="1.0" xmlns="http://www.w3.org/2000/svg"
 width="128.000000pt" height="128.000000pt" viewBox="0 0 128.000000 128.000000"
 preserveAspectRatio="xMidYMid meet">
<g transform="translate(0.000000,128.000000) scale(0.100000,-0.100000)"
fill="#000000" stroke="none">
<path d="M1135 1170 c-47 -58 -48 -60 -30 -84 13 -18 17 -16 73 25 l59 44 -24
32 c-14 18 -28 33 -32 33 -3 -1 -24 -23 -46 -50z"/>
<path d="M912 955 c-84 -78 -143 -126 -162 -130 -30 -7 -190 -166 -190 -190 0
-6 11 -22 25 -35 l25 -23 82 79 c46 43 94 95 109 115 15 19 85 89 157 155 121
110 129 120 114 137 -8 9 -18 17 -21 16 -3 0 -66 -56 -139 -124z"/>
<path d="M1011 874 c-23 -30 -24 -33 -12 -53 10 -15 38 -4 61 24 11 14 10 19
-7 36 l-20 21 -22 -28z"/>
<path d="M864 730 c-49 -44 -96 -80 -104 -80 -8 -1 -39 -23 -69 -51 l-54 -51
26 -25 26 -26 47 38 c26 21 55 52 65 69 10 17 52 62 94 99 71 65 87 89 66 101
-5 3 -49 -30 -97 -74z"/>
<path d="M273 620 c-61 -37 -81 -116 -43 -177 15 -26 27 -33 50 -33 16 0 30 2
30 4 0 3 -13 18 -30 34 -40 41 -40 83 -1 123 31 30 67 37 102 19 16 -9 19 -7
19 9 0 42 -73 54 -127 21z"/>
<path d="M450 522 l0 -97 -75 -29 c-69 -26 -75 -31 -75 -57 l0 -29 180 0 180
0 0 73 -1 72 -79 83 c-58 61 -85 82 -104 82 l-26 0 0 -98z"/>
<path d="M167 212 c-26 -26 -47 -50 -47 -54 0 -3 14 -8 31 -12 25 -5 39 0 69
24 l38 30 139 0 c139 0 140 0 151 -25 16 -34 59 -34 72 0 13 34 48 33 193 -9
65 -18 120 -30 123 -25 3 5 15 9 27 9 35 0 9 14 -116 64 l-117 46 -258 0 -258
0 -47 -48z"/>
<path d="M70 85 l-23 -25 73 0 73 0 -23 25 c-30 32 -70 32 -100 0z"/>
<path d="M530 85 l-23 -25 78 0 78 0 -23 25 c-15 16 -34 25 -55 25 -21 0 -40
-9 -55 -25z"/>
<path d="M940 85 l-23 -25 73 0 73 0 -23 25 c-14 14 -35 25 -50 25 -15 0 -36
-11 -50 -25z"/>
</g>
</svg>
