<?xml version="1.0" standalone="no"?>
<!DOCTYPE svg PUBLIC "-//W3C//DTD SVG 20010904//EN"
 "http://www.w3.org/TR/2001/REC-SVG-20010904/DTD/svg10.dtd">
<svg version="1.0" xmlns="http://www.w3.org/2000/svg"
 width="128.000000pt" height="128.000000pt" viewBox="0 0 128.000000 128.000000"
 preserveAspectRatio="xMidYMid meet">
<g transform="translate(0.000000,128.000000) scale(0.100000,-0.100000)"
fill="#000000" stroke="none">
<path d="M589 1271 c-126 -41 -147 -182 -35 -235 32 -15 36 -21 36 -56 l0 -40
-88 0 c-60 0 -99 5 -120 15 -27 14 -35 14 -66 1 -30 -12 -36 -20 -36 -45 0
-53 69 -80 118 -46 16 12 42 15 104 13 l83 -3 -4 -250 c-2 -176 -7 -259 -16
-282 -40 -95 -186 -97 -329 -3 -92 60 -101 73 -47 64 25 -4 41 -3 41 4 0 30
-143 125 -200 133 -24 4 -25 2 -28 -64 -2 -51 2 -78 18 -115 20 -44 22 -46 36
-28 8 11 14 23 14 28 0 19 17 5 45 -38 53 -79 163 -150 322 -208 97 -34 151
-62 179 -93 l24 -26 24 26 c28 31 82 59 179 93 160 58 262 124 321 207 l34 48
20 -28 21 -28 20 45 c22 49 29 174 11 185 -27 17 -220 -104 -220 -137 0 -6 16
-7 41 -3 56 10 46 -4 -47 -65 -143 -94 -289 -92 -329 3 -9 23 -14 106 -16 282
l-4 250 83 3 c62 2 88 -1 104 -13 49 -34 118 -7 118 46 0 25 -6 33 -36 45 -31
13 -39 13 -66 -1 -21 -10 -60 -15 -120 -15 l-88 0 0 38 c0 32 5 39 37 57 99
54 103 161 6 217 -35 21 -108 31 -144 19z m101 -91 c24 -24 25 -43 4 -64 -27
-27 -63 -31 -92 -9 -35 26 -38 47 -13 72 27 27 75 27 101 1z"/>
</g>
</svg>
