<?xml version="1.0" standalone="no"?>
<!DOCTYPE svg PUBLIC "-//W3C//DTD SVG 20010904//EN"
 "http://www.w3.org/TR/2001/REC-SVG-20010904/DTD/svg10.dtd">
<svg version="1.0" xmlns="http://www.w3.org/2000/svg"
 width="128.000000pt" height="128.000000pt" viewBox="0 0 128.000000 128.000000"
 preserveAspectRatio="xMidYMid meet">
<g transform="translate(0.000000,128.000000) scale(0.100000,-0.100000)"
fill="#000000" stroke="none">
<path d="M274 1266 c-3 -8 -4 -29 -2 -48 3 -33 3 -33 60 -36 47 -2 61 -7 77
-28 17 -22 47 -122 38 -130 -1 -2 -33 13 -71 32 -177 89 -328 6 -327 -181 0
-82 46 -171 157 -305 47 -58 90 -114 95 -125 4 -11 22 -55 40 -98 17 -43 51
-105 75 -137 60 -81 59 -107 -4 -140 -31 -17 -48 -32 -50 -48 l-3 -22 275 0
276 0 0 23 c0 16 -12 29 -45 47 -39 21 -45 29 -45 56 0 20 11 45 31 70 37 46
85 138 110 211 11 34 46 85 103 155 182 218 214 376 96 482 -66 59 -166 62
-272 7 l-61 -32 7 43 c4 24 15 59 25 78 17 34 20 35 79 38 l62 3 0 49 0 50
-360 0 c-301 0 -362 -2 -366 -14z m49 -286 c23 -11 56 -31 72 -44 l30 -24 -30
-12 c-64 -25 -100 -83 -119 -194 l-12 -71 -46 65 c-66 94 -78 122 -78 185 0
49 4 60 29 86 36 36 90 39 154 9z m784 -4 c25 -22 28 -31 28 -88 0 -44 -6 -74
-20 -100 -26 -49 -98 -148 -107 -148 -5 0 -8 20 -8 45 0 51 -24 128 -51 166
-10 15 -37 35 -60 46 l-41 19 48 32 c65 41 91 51 141 51 30 1 50 -6 70 -23z"/>
</g>
</svg>
