<?xml version="1.0" standalone="no"?>
<!DOCTYPE svg PUBLIC "-//W3C//DTD SVG 20010904//EN"
 "http://www.w3.org/TR/2001/REC-SVG-20010904/DTD/svg10.dtd">
<svg version="1.0" xmlns="http://www.w3.org/2000/svg"
 width="128.000000pt" height="128.000000pt" viewBox="0 0 128.000000 128.000000"
 preserveAspectRatio="xMidYMid meet">
<g transform="translate(0.000000,128.000000) scale(0.100000,-0.100000)"
fill="#000000" stroke="none">
<path d="M615 1203 c-53 -80 -144 -120 -247 -109 -32 3 -103 17 -158 31 -108
28 -132 25 -146 -17 -21 -67 14 -249 81 -420 183 -463 462 -643 684 -443 44
40 56 43 48 15 -8 -30 38 -80 73 -80 21 0 30 -7 39 -28 7 -16 28 -45 48 -65
29 -31 42 -37 77 -37 43 0 76 20 95 57 28 54 -1 109 -83 157 -35 20 -43 30
-39 46 8 30 -44 83 -74 77 -48 -9 -46 17 5 120 117 232 197 527 166 608 -13
34 -48 35 -170 4 -65 -16 -136 -29 -159 -29 -61 0 -125 37 -160 92 -34 54 -55
59 -80 21z m169 -162 c25 -6 60 -11 79 -11 29 0 181 34 249 55 16 6 18 1 18
-37 0 -95 -78 -345 -156 -500 -24 -48 -47 -88 -52 -88 -4 0 -108 101 -232 225
l-225 224 -57 7 -58 7 0 -59 0 -58 241 -241 240 -242 -37 -33 c-87 -76 -165
-88 -262 -39 -137 68 -269 268 -362 547 -42 127 -69 267 -54 282 6 6 45 -1 99
-16 63 -18 117 -26 180 -27 80 -1 97 2 146 25 30 15 66 39 78 52 l24 25 48
-43 c30 -27 65 -48 93 -55z m-157 -373 c117 -117 213 -218 213 -225 0 -7 -8
-13 -17 -13 -12 0 0 -18 37 -55 l55 -56 18 22 c9 12 17 18 17 13 0 -4 -7 -16
-16 -25 -16 -18 -31 -4 -275 244 -239 241 -294 307 -258 307 7 0 109 -95 226
-212z m409 -339 c3 -6 -15 -33 -42 -60 -37 -38 -51 -46 -61 -37 -11 9 -5 20
34 60 50 51 58 55 69 37z"/>
<path d="M972 287 c-23 -24 -39 -46 -35 -50 7 -8 93 71 93 85 0 17 -17 6 -58
-35z"/>
</g>
</svg>
