<?xml version="1.0" standalone="no"?>
<!DOCTYPE svg PUBLIC "-//W3C//DTD SVG 20010904//EN"
 "http://www.w3.org/TR/2001/REC-SVG-20010904/DTD/svg10.dtd">
<svg version="1.0" xmlns="http://www.w3.org/2000/svg"
 width="128.000000pt" height="128.000000pt" viewBox="0 0 128.000000 128.000000"
 preserveAspectRatio="xMidYMid meet">
<g transform="translate(0.000000,128.000000) scale(0.100000,-0.100000)"
fill="#000000" stroke="none">
<path d="M450 1134 l0 -116 25 6 c79 19 73 20 77 -15 l3 -32 87 2 c83 2 86 1
81 -18 -5 -18 -14 -21 -74 -22 -38 -1 -75 -2 -81 -3 -7 -1 -12 5 -10 12 4 20
-23 24 -61 8 -41 -17 -47 -13 -47 26 0 15 -2 28 -5 28 -21 0 -116 -60 -158
-98 -111 -103 -167 -231 -167 -381 0 -149 49 -268 151 -370 202 -203 536 -203
738 0 101 101 151 223 151 370 0 150 -56 278 -167 381 -42 38 -137 98 -158 98
-3 0 -5 -12 -5 -26 0 -25 -2 -25 -42 -19 -56 9 -58 11 -58 47 0 27 2 30 25 24
14 -3 36 -9 50 -12 l25 -6 0 116 0 117 -52 -3 -53 -3 -5 -100 -5 -100 -75 0
-75 0 -5 100 -5 100 -52 3 -53 3 0 -117z m457 -220 c40 -23 42 -34 6 -34 -27
-1 -27 -1 -9 -15 18 -14 13 -15 -54 -15 l-75 0 51 -34 c90 -61 146 -147 163
-252 19 -119 -17 -223 -109 -315 -74 -75 -144 -102 -260 -103 -75 -1 -92 3
-150 30 -83 40 -145 102 -184 184 -27 57 -31 76 -31 150 0 76 4 93 32 151 31
62 90 128 153 171 l25 17 -37 0 c-29 1 -36 4 -32 16 4 8 13 15 21 15 13 0 13
3 2 16 -11 14 -10 18 6 31 18 13 20 12 23 -7 3 -15 9 -20 20 -17 9 3 32 10 50
15 28 9 32 8 32 -8 0 -11 7 -23 16 -28 13 -7 6 -11 -27 -18 l-44 -8 62 -4 c34
-1 93 -1 130 0 l68 4 -45 9 c-43 9 -44 9 -15 15 22 4 31 12 33 29 4 24 11 25
80 5 18 -5 22 -2 22 15 0 23 16 20 77 -15z m-520 -30 c-3 -3 -12 -4 -19 -1 -8
3 -5 6 6 6 11 1 17 -2 13 -5z m-47 -19 c-10 -13 -9 -15 9 -15 25 0 28 -15 4
-24 -11 -4 -22 -1 -29 8 -6 9 -19 16 -28 16 -9 0 -16 7 -16 15 0 11 11 15 36
15 31 0 35 -2 24 -15z m660 -4 c0 -10 14 -36 31 -57 41 -50 86 -147 95 -201 6
-38 4 -43 -13 -43 -16 0 -23 13 -37 62 -21 74 -53 132 -101 178 -40 39 -43 50
-14 50 18 0 19 2 9 15 -10 13 -9 15 9 15 14 0 21 -6 21 -19z"/>
<path d="M830 890 c0 -5 10 -10 23 -10 18 0 19 2 7 10 -19 13 -30 13 -30 0z"/>
<path d="M568 674 c-26 -14 -58 -60 -58 -84 0 -5 11 -10 25 -10 17 0 29 8 37
25 12 26 47 41 83 36 73 -11 53 -111 -22 -111 -16 0 -23 -6 -23 -20 0 -16 7
-20 30 -20 61 0 92 -69 48 -110 -40 -37 -108 -18 -128 36 -10 24 -43 33 -55
14 -9 -15 21 -77 47 -94 33 -21 97 -28 137 -13 73 26 98 113 48 165 -26 27
-26 28 -7 45 44 37 32 115 -21 142 -36 19 -106 18 -141 -1z"/>
</g>
</svg>
