<?xml version="1.0" standalone="no"?>
<!DOCTYPE svg PUBLIC "-//W3C//DTD SVG 20010904//EN"
 "http://www.w3.org/TR/2001/REC-SVG-20010904/DTD/svg10.dtd">
<svg version="1.0" xmlns="http://www.w3.org/2000/svg"
 width="128.000000pt" height="128.000000pt" viewBox="0 0 128.000000 128.000000"
 preserveAspectRatio="xMidYMid meet">
<g transform="translate(0.000000,128.000000) scale(0.100000,-0.100000)"
fill="#000000" stroke="none">
<path d="M165 1218 c-8 -37 -35 -237 -35 -258 0 -19 7 -20 145 -20 l145 0 0
45 0 45 45 0 45 0 0 40 0 40 130 0 130 0 0 -40 0 -40 40 0 40 0 0 -45 0 -45
143 0 c79 0 146 2 148 5 3 2 -4 70 -15 150 l-20 145 -468 0 -468 0 -5 -22z
m922 -93 c6 -44 12 -95 12 -112 l1 -33 -105 0 -105 0 0 39 c0 40 0 40 -42 43
-43 3 -43 3 -46 46 l-3 42 -165 0 -164 0 0 -45 0 -45 -40 0 -40 0 0 -40 0 -40
-110 0 c-90 0 -110 3 -110 15 0 33 22 172 30 193 l10 22 432 -2 433 -3 12 -80z"/>
<path d="M550 1025 l0 -45 -40 0 -40 0 0 -40 0 -40 -110 0 -110 0 0 -65 c0
-58 -2 -65 -20 -65 -13 0 -20 -7 -20 -20 0 -13 7 -20 20 -20 18 0 20 -7 20
-65 0 -58 -2 -65 -20 -65 -13 0 -20 -7 -20 -20 0 -13 7 -20 20 -20 18 0 20 -7
20 -65 0 -58 -2 -65 -20 -65 -13 0 -20 -7 -20 -20 0 -13 7 -20 20 -20 18 0 20
-7 20 -85 l0 -85 -60 0 -60 0 0 -85 0 -85 510 0 510 0 0 85 0 85 -65 0 -65 0
0 85 c0 78 2 85 20 85 13 0 20 7 20 20 0 13 -7 20 -20 20 -18 0 -20 7 -20 65
0 58 2 65 20 65 13 0 20 7 20 20 0 13 -7 20 -20 20 -18 0 -20 7 -20 65 0 58 2
65 20 65 13 0 20 7 20 20 0 13 -7 20 -20 20 -18 0 -20 7 -20 65 l0 65 -105 0
-105 0 0 39 c0 40 0 40 -42 43 -43 3 -43 3 -46 46 l-3 42 -85 0 -84 0 0 -45z
m130 -400 l0 -405 -45 0 -45 0 0 405 0 405 45 0 45 0 0 -405z m-130 -45 l0
-360 -65 0 -65 0 0 320 0 320 45 0 45 0 0 40 c0 33 3 40 20 40 20 0 20 -7 20
-360z m220 320 l0 -40 40 0 40 0 0 -320 0 -320 -65 0 -65 0 0 360 0 360 25 0
c23 0 25 -4 25 -40z m-390 -105 l0 -65 -45 0 -45 0 0 58 c0 32 3 62 7 65 3 4
24 7 45 7 l38 0 0 -65z m600 0 l0 -65 -45 0 -45 0 0 65 0 65 45 0 45 0 0 -65z
m-600 -170 l0 -65 -45 0 -45 0 0 58 c0 32 3 62 7 65 3 4 24 7 45 7 l38 0 0
-65z m600 0 l0 -65 -45 0 -45 0 0 65 0 65 45 0 45 0 0 -65z m-600 -170 l0 -65
-45 0 -45 0 0 58 c0 32 3 62 7 65 3 4 24 7 45 7 l38 0 0 -65z m600 0 l0 -65
-45 0 -45 0 0 65 0 65 45 0 45 0 0 -65z m-600 -170 l0 -65 -45 0 -45 0 0 58
c0 32 3 62 7 65 3 4 24 7 45 7 l38 0 0 -65z m600 0 l0 -65 -45 0 -45 0 0 65 0
65 45 0 45 0 0 -65z m130 -155 l0 -50 -475 0 -475 0 0 50 0 50 475 0 475 0 0
-50z"/>
</g>
</svg>
