<?xml version="1.0" standalone="no"?>
<!DOCTYPE svg PUBLIC "-//W3C//DTD SVG 20010904//EN"
 "http://www.w3.org/TR/2001/REC-SVG-20010904/DTD/svg10.dtd">
<svg version="1.0" xmlns="http://www.w3.org/2000/svg"
 width="128.000000pt" height="128.000000pt" viewBox="0 0 128.000000 128.000000"
 preserveAspectRatio="xMidYMid meet">
<g transform="translate(0.000000,128.000000) scale(0.100000,-0.100000)"
fill="#000000" stroke="none">
<path d="M335 976 c-18 -13 -18 -14 4 -50 l23 -36 -26 -31 c-52 -61 -56 -147
-10 -215 13 -19 24 -36 24 -38 0 -1 -40 -53 -88 -116 -82 -106 -91 -114 -147
-135 -45 -16 -61 -27 -63 -43 -3 -21 0 -22 90 -22 l93 0 83 109 c109 143 108
143 117 84 25 -169 187 -252 329 -169 56 33 97 99 104 167 l5 49 43 0 c43 0
44 0 44 34 0 40 3 40 173 52 l97 6 0 119 c0 115 -1 119 -22 123 -51 10 -752
58 -777 53 -22 -5 -30 0 -52 34 -23 35 -27 38 -44 25z m391 -325 c59 -27 87
-72 92 -146 3 -50 0 -65 -20 -94 -36 -53 -71 -74 -131 -79 -154 -13 -245 160
-144 275 56 63 126 79 203 44z"/>
<path d="M654 593 c-11 -44 -15 -46 -43 -19 -27 26 -28 26 -44 8 -16 -17 -16
-20 8 -42 26 -24 25 -40 -3 -40 -28 0 -43 -15 -36 -34 5 -14 14 -16 45 -11
l38 7 -9 -33 c-11 -37 -6 -49 19 -49 14 0 21 10 26 36 l6 36 30 -28 c27 -26
30 -27 46 -11 16 16 15 19 -11 46 l-28 30 36 6 c26 5 36 12 36 26 0 26 -20 32
-54 19 l-28 -10 7 36 c4 26 3 39 -7 45 -21 14 -27 11 -34 -18z"/>
</g>
</svg>
