<?xml version="1.0" standalone="no"?>
<!DOCTYPE svg PUBLIC "-//W3C//DTD SVG 20010904//EN"
 "http://www.w3.org/TR/2001/REC-SVG-20010904/DTD/svg10.dtd">
<svg version="1.0" xmlns="http://www.w3.org/2000/svg"
 width="128.000000pt" height="128.000000pt" viewBox="0 0 128.000000 128.000000"
 preserveAspectRatio="xMidYMid meet">
<g transform="translate(0.000000,128.000000) scale(0.100000,-0.100000)"
fill="#000000" stroke="none">
<path d="M78 1163 c-39 -47 -78 -114 -78 -137 l0 -26 227 2 c268 3 262 0 187
109 l-47 69 -137 0 c-118 0 -139 -2 -152 -17z"/>
<path d="M866 1116 c-27 -37 -46 -75 -46 -90 l0 -26 227 2 c268 3 262 0 188
109 l-47 69 -139 0 -138 0 -45 -64z"/>
<path d="M0 500 l0 -410 228 2 227 3 6 72 c12 134 65 193 173 193 117 0 171
-59 183 -198 l6 -72 228 0 229 0 0 410 0 410 -230 0 -230 0 0 -90 0 -90 -180
0 -180 0 0 90 0 90 -230 0 -230 0 0 -410z m270 180 c0 -32 -8 -66 -22 -93
l-21 -42 -23 50 c-23 48 -31 114 -17 128 3 4 24 7 45 7 l38 0 0 -50z m820 0
c0 -32 -8 -66 -21 -93 l-22 -42 -23 54 c-23 52 -31 110 -17 124 3 4 24 7 45 7
l38 0 0 -50z"/>
</g>
</svg>
