<?xml version="1.0" standalone="no"?>
<!DOCTYPE svg PUBLIC "-//W3C//DTD SVG 20010904//EN"
 "http://www.w3.org/TR/2001/REC-SVG-20010904/DTD/svg10.dtd">
<svg version="1.0" xmlns="http://www.w3.org/2000/svg"
 width="128.000000pt" height="128.000000pt" viewBox="0 0 128.000000 128.000000"
 preserveAspectRatio="xMidYMid meet">
<g transform="translate(0.000000,128.000000) scale(0.100000,-0.100000)"
fill="#000000" stroke="none">
<path d="M0 815 l0 -75 640 0 640 0 0 75 0 75 -640 0 -640 0 0 -75z"/>
<path d="M0 655 l0 -55 140 0 140 0 0 55 0 55 -140 0 -140 0 0 -55z"/>
<path d="M320 655 l0 -55 160 0 160 0 0 55 0 55 -160 0 -160 0 0 -55z"/>
<path d="M680 655 l0 -55 160 0 160 0 0 55 0 55 -160 0 -160 0 0 -55z"/>
<path d="M1040 655 l0 -55 120 0 120 0 0 55 0 55 -120 0 -120 0 0 -55z"/>
<path d="M0 500 l0 -61 53 3 52 3 0 55 0 55 -52 3 -53 3 0 -61z"/>
<path d="M142 503 l3 -58 160 0 160 0 0 55 0 55 -163 3 -163 3 3 -58z"/>
<path d="M502 503 l3 -58 160 0 160 0 0 55 0 55 -163 3 -163 3 3 -58z"/>
<path d="M862 503 l3 -58 160 0 160 0 3 58 3 57 -166 0 -166 0 3 -57z"/>
<path d="M1222 503 c3 -55 4 -58 31 -61 27 -3 27 -3 27 57 l0 61 -30 0 -31 0
3 -57z"/>
<path d="M0 350 l0 -60 145 0 146 0 -3 58 -3 57 -142 3 -143 3 0 -61z"/>
<path d="M324 396 c-3 -7 -4 -33 -2 -57 l3 -44 163 -3 163 -3 -3 58 -3 58
-158 3 c-128 2 -158 0 -163 -12z"/>
<path d="M684 396 c-3 -7 -4 -33 -2 -57 l3 -44 163 -3 163 -3 -3 58 -3 58
-158 3 c-128 2 -158 0 -163 -12z"/>
<path d="M1044 396 c-3 -7 -4 -33 -2 -57 l3 -44 118 -3 117 -3 0 61 0 60 -115
0 c-89 0 -117 -3 -121 -14z"/>
<path d="M0 195 l0 -55 55 0 55 0 0 55 0 55 -55 0 -55 0 0 -55z"/>
<path d="M140 195 l0 -55 165 0 165 0 0 55 0 55 -165 0 -165 0 0 -55z"/>
<path d="M500 195 l0 -55 165 0 165 0 0 55 0 55 -165 0 -165 0 0 -55z"/>
<path d="M860 195 l0 -55 165 0 165 0 0 55 0 55 -165 0 -165 0 0 -55z"/>
<path d="M1220 195 c0 -54 0 -55 30 -55 30 0 30 1 30 55 0 54 0 55 -30 55 -30
0 -30 -1 -30 -55z"/>
<path d="M0 50 l0 -50 140 0 140 0 0 50 0 50 -140 0 -140 0 0 -50z"/>
<path d="M320 50 l0 -50 160 0 160 0 0 50 0 50 -160 0 -160 0 0 -50z"/>
<path d="M680 50 l0 -50 160 0 160 0 0 50 0 50 -160 0 -160 0 0 -50z"/>
<path d="M1040 50 l0 -50 120 0 120 0 0 50 0 50 -120 0 -120 0 0 -50z"/>
</g>
</svg>
