<?xml version="1.0" standalone="no"?>
<!DOCTYPE svg PUBLIC "-//W3C//DTD SVG 20010904//EN"
 "http://www.w3.org/TR/2001/REC-SVG-20010904/DTD/svg10.dtd">
<svg version="1.0" xmlns="http://www.w3.org/2000/svg"
 width="128.000000pt" height="128.000000pt" viewBox="0 0 128.000000 128.000000"
 preserveAspectRatio="xMidYMid meet">
<g transform="translate(0.000000,128.000000) scale(0.100000,-0.100000)"
fill="#000000" stroke="none">
<path d="M64 1215 l-24 -24 2 -313 3 -313 75 -3 75 -3 73 -72 72 -71 75 74 75
74 75 -74 75 -74 75 74 75 74 75 -74 75 -74 73 71 72 72 75 3 75 3 3 313 2
313 -24 24 -25 25 -551 0 -551 0 -25 -25z"/>
<path d="M572 324 c-131 -67 -94 -265 52 -281 115 -13 200 106 151 211 -35 73
-131 106 -203 70z"/>
</g>
</svg>
