<?xml version="1.0" standalone="no"?>
<!DOCTYPE svg PUBLIC "-//W3C//DTD SVG 20010904//EN"
 "http://www.w3.org/TR/2001/REC-SVG-20010904/DTD/svg10.dtd">
<svg version="1.0" xmlns="http://www.w3.org/2000/svg"
 width="128.000000pt" height="128.000000pt" viewBox="0 0 128.000000 128.000000"
 preserveAspectRatio="xMidYMid meet">
<g transform="translate(0.000000,128.000000) scale(0.100000,-0.100000)"
fill="#000000" stroke="none">
<path d="M733 928 c-29 -28 -41 -33 -105 -39 -66 -6 -75 -5 -89 13 -12 15 -29
21 -63 22 l-48 1 -35 -77 -36 -78 -51 0 -52 0 -32 -65 c-26 -53 -36 -65 -56
-65 -30 0 -46 -40 -46 -116 l0 -54 500 0 500 0 0 46 c0 75 -18 122 -48 126
-21 2 -30 15 -56 78 l-32 75 -55 3 -56 3 -17 54 c-12 38 -27 62 -50 80 -18 14
-35 25 -37 25 -2 0 -19 -14 -36 -32z m83 -111 l21 -62 57 -5 57 -5 33 -75 c22
-51 38 -76 52 -79 23 -4 34 -19 34 -48 l0 -23 -449 0 c-262 0 -452 4 -455 9
-11 18 13 61 34 61 15 0 28 17 52 65 36 73 64 85 88 40 7 -14 16 -25 20 -25 3
0 26 43 49 95 57 125 64 130 106 81 l33 -39 35 22 c27 16 49 21 87 20 44 -2
55 1 78 24 32 33 40 27 68 -56z"/>
</g>
</svg>
