<?xml version="1.0" standalone="no"?>
<!DOCTYPE svg PUBLIC "-//W3C//DTD SVG 20010904//EN"
 "http://www.w3.org/TR/2001/REC-SVG-20010904/DTD/svg10.dtd">
<svg version="1.0" xmlns="http://www.w3.org/2000/svg"
 width="128.000000pt" height="128.000000pt" viewBox="0 0 128.000000 128.000000"
 preserveAspectRatio="xMidYMid meet">
<g transform="translate(0.000000,128.000000) scale(0.100000,-0.100000)"
fill="#000000" stroke="none">
<path d="M53 1090 l-23 -9 0 -459 c0 -343 3 -461 12 -470 9 -9 154 -12 589
-12 524 0 578 2 590 17 11 13 14 99 14 465 0 434 -1 450 -19 464 -15 10 -52
14 -138 14 -152 0 -158 -5 -158 -120 l0 -80 -65 0 -65 0 0 84 c0 112 -5 116
-152 116 -58 0 -118 -4 -132 -10 -25 -9 -26 -12 -26 -100 l0 -90 -70 0 -70 0
0 84 c0 112 -5 116 -155 115 -60 0 -120 -4 -132 -9z m197 -162 c0 -97 13 -118
72 -118 l38 0 0 -65 0 -65 -120 0 -119 0 -3 161 c-2 88 -1 163 1 165 2 2 33 4
68 4 l63 0 0 -82z m450 -2 c0 -99 10 -116 71 -116 l39 0 0 -65 0 -65 -180 0
-180 0 0 65 0 65 43 0 c24 0 48 5 55 12 7 7 12 43 12 93 0 45 3 85 7 88 3 4
35 7 70 7 l63 0 0 -84z m448 -83 l2 -163 -125 0 -125 0 0 65 0 65 36 0 c68 0
74 10 74 111 l0 90 68 -3 67 -3 3 -162z m-558 -323 l0 -70 -236 2 -236 3 0 63
c1 34 1 64 1 67 1 3 107 5 236 5 l235 0 0 -70z m558 -2 l3 -68 -236 0 -235 0
0 70 0 70 233 -2 232 -3 3 -67z m-788 -223 l0 -65 -118 0 c-65 0 -121 2 -123
4 -2 2 -2 32 -1 65 l4 61 119 0 119 0 0 -65z m450 0 l0 -65 -180 0 -180 0 0
65 0 65 180 0 180 0 0 -65z m340 0 l0 -65 -125 0 -125 0 0 65 0 65 125 0 125
0 0 -65z"/>
</g>
</svg>
