<?xml version="1.0" standalone="no"?>
<!DOCTYPE svg PUBLIC "-//W3C//DTD SVG 20010904//EN"
 "http://www.w3.org/TR/2001/REC-SVG-20010904/DTD/svg10.dtd">
<svg version="1.0" xmlns="http://www.w3.org/2000/svg"
 width="128.000000pt" height="128.000000pt" viewBox="0 0 128.000000 128.000000"
 preserveAspectRatio="xMidYMid meet">
<g transform="translate(0.000000,128.000000) scale(0.100000,-0.100000)"
fill="#000000" stroke="none">
<path d="M0 1045 l0 -135 638 2 637 3 3 133 3 132 -96 0 -95 0 0 -90 0 -91
-87 3 -88 3 -3 88 -3 87 -89 0 -89 0 -3 -87 -3 -88 -87 -3 -88 -3 0 91 0 90
-95 0 -95 0 0 -90 0 -91 -87 3 -88 3 -3 88 -3 87 -89 0 -90 0 0 -135z"/>
<path d="M0 455 l0 -365 115 0 115 0 0 54 c0 163 68 356 155 440 69 67 125 90
235 94 124 5 188 -17 264 -92 92 -89 144 -225 161 -418 l7 -78 114 0 114 0 0
365 0 365 -640 0 -640 0 0 -365z"/>
<path d="M567 536 c-117 -42 -189 -179 -199 -381 l-3 -60 273 -3 272 -2 0 57
c-1 269 -163 453 -343 389z"/>
</g>
</svg>
