<?xml version="1.0" standalone="no"?>
<!DOCTYPE svg PUBLIC "-//W3C//DTD SVG 20010904//EN"
 "http://www.w3.org/TR/2001/REC-SVG-20010904/DTD/svg10.dtd">
<svg version="1.0" xmlns="http://www.w3.org/2000/svg"
 width="128.000000pt" height="128.000000pt" viewBox="0 0 128.000000 128.000000"
 preserveAspectRatio="xMidYMid meet">
<g transform="translate(0.000000,128.000000) scale(0.100000,-0.100000)"
fill="#000000" stroke="none">
<path d="M927 1219 c-27 -16 -47 -64 -47 -115 0 -43 -5 -52 -65 -119 l-65 -73
0 -415 c0 -229 3 -422 6 -431 5 -14 38 -16 259 -16 221 0 254 2 259 16 3 9 6
202 6 431 l0 415 -65 73 c-60 67 -65 76 -65 119 0 52 -20 100 -49 116 -25 13
-151 13 -174 -1z m134 -59 c13 -8 19 -21 19 -45 l0 -35 -65 0 -65 0 0 35 c0
22 6 38 18 44 22 13 68 14 93 1z m91 -207 c37 -37 58 -66 58 -80 l0 -23 -195
0 c-195 0 -195 0 -195 22 0 14 22 45 57 80 l57 58 80 0 80 0 58 -57z m58 -203
l0 -30 -195 0 -195 0 0 30 0 30 195 0 195 0 0 -30z m0 -305 l0 -205 -195 0
-195 0 0 205 0 205 195 0 195 0 0 -205z m-5 -300 l0 -30 -190 0 c-175 0 -190
1 -193 18 -9 46 -4 48 195 45 l188 -3 0 -30z"/>
<path d="M902 548 c-8 -8 -12 -46 -12 -105 0 -112 1 -113 129 -113 117 0 121
4 121 119 0 54 -4 91 -12 99 -16 16 -210 16 -226 0z m168 -103 l0 -45 -55 0
-55 0 0 45 0 45 55 0 55 0 0 -45z"/>
<path d="M325 1025 c-16 -9 -34 -22 -40 -29 -5 -7 -30 -15 -55 -19 -51 -7 -97
-48 -107 -98 -3 -16 -12 -29 -20 -29 -28 0 -73 -31 -89 -61 -27 -54 0 -122 59
-142 15 -6 17 -26 17 -222 l0 -216 -41 -60 c-67 -100 -86 -94 311 -94 397 0
378 -6 311 94 l-41 60 0 213 1 213 32 20 c69 44 73 128 8 172 -19 13 -45 23
-57 23 -13 0 -24 6 -24 13 0 8 -12 24 -26 38 -14 13 -34 40 -45 60 -35 70
-125 99 -194 64z m118 -72 c8 -10 19 -31 22 -46 4 -15 19 -34 34 -42 23 -13
10 -14 -141 -15 -139 0 -168 2 -168 14 0 26 49 56 81 49 23 -4 34 0 58 26 34
36 87 43 114 14z m197 -188 c6 -8 9 -23 5 -35 -6 -20 -11 -20 -282 -18 -245 3
-277 5 -286 20 -8 12 -7 21 2 32 12 14 49 16 281 16 222 0 270 -2 280 -15z
m-80 -349 c0 -220 0 -224 24 -259 13 -19 22 -38 18 -41 -10 -11 -482 -7 -482
4 0 5 9 24 20 42 18 30 20 51 20 256 l0 222 200 0 200 0 0 -224z"/>
<path d="M247 513 c-4 -3 -7 -52 -7 -109 0 -84 3 -103 16 -108 9 -3 58 -6 109
-6 120 0 125 4 125 111 0 119 0 119 -129 119 -59 0 -111 -3 -114 -7z m171
-106 l3 -48 -58 3 c-58 3 -58 3 -61 36 -6 56 2 63 60 60 l53 -3 3 -48z"/>
</g>
</svg>
