<?xml version="1.0" standalone="no"?>
<!DOCTYPE svg PUBLIC "-//W3C//DTD SVG 20010904//EN"
 "http://www.w3.org/TR/2001/REC-SVG-20010904/DTD/svg10.dtd">
<svg version="1.0" xmlns="http://www.w3.org/2000/svg"
 width="128.000000pt" height="128.000000pt" viewBox="0 0 128.000000 128.000000"
 preserveAspectRatio="xMidYMid meet">
<g transform="translate(0.000000,128.000000) scale(0.100000,-0.100000)"
fill="#000000" stroke="none">
<path d="M105 1120 c-9 -14 4 -95 27 -159 25 -75 70 -142 134 -200 55 -50 162
-111 196 -111 10 0 18 -4 18 -10 0 -5 -8 -10 -18 -10 -34 0 -141 -61 -196
-111 -93 -85 -153 -202 -158 -312 l-3 -52 50 0 50 0 6 55 c17 148 125 273 277
320 111 34 102 50 102 -180 l0 -200 50 0 50 0 0 200 c0 226 -7 211 85 186 157
-42 278 -175 294 -324 l6 -57 48 -3 c58 -4 62 4 47 89 -18 100 -64 184 -140
261 -65 65 -169 128 -212 128 -10 0 -18 5 -18 10 0 6 8 10 18 10 34 0 141 61
196 111 92 84 146 188 161 312 l7 58 -53 -3 -54 -3 -6 -55 c-17 -148 -125
-273 -277 -320 -111 -34 -102 -50 -102 180 l0 200 -50 0 -50 0 0 -200 c0 -230
9 -214 -102 -180 -84 26 -150 71 -198 134 -50 66 -71 117 -79 186 l-6 55 -47
3 c-25 2 -49 -2 -53 -8z"/>
</g>
</svg>
