<?xml version="1.0" standalone="no"?>
<!DOCTYPE svg PUBLIC "-//W3C//DTD SVG 20010904//EN"
 "http://www.w3.org/TR/2001/REC-SVG-20010904/DTD/svg10.dtd">
<svg version="1.0" xmlns="http://www.w3.org/2000/svg"
 width="128.000000pt" height="128.000000pt" viewBox="0 0 128.000000 128.000000"
 preserveAspectRatio="xMidYMid meet">
<g transform="translate(0.000000,128.000000) scale(0.100000,-0.100000)"
fill="#000000" stroke="none">
<path d="M92 1093 l3 -88 225 0 225 0 3 88 3 87 -45 0 -45 0 -3 -42 -3 -43
-45 0 -45 0 -3 43 -3 42 -45 0 -44 0 0 -46 0 -45 -42 3 c-43 3 -43 3 -46 46
l-3 42 -45 0 -45 0 3 -87z"/>
<path d="M732 1093 l3 -88 223 -3 222 -2 0 90 0 90 -45 0 -45 0 0 -46 0 -45
-42 3 c-43 3 -43 3 -46 46 l-3 42 -45 0 -44 0 0 -45 0 -45 -45 0 -45 0 0 45 0
45 -45 0 -46 0 3 -87z"/>
<path d="M92 638 l3 -273 543 -3 542 -2 0 275 0 275 -225 0 -225 0 0 -90 0
-90 -90 0 -90 0 0 90 0 90 -230 0 -230 0 2 -272z m268 42 c0 -44 -25 -120 -39
-120 -17 0 -51 84 -51 124 l0 46 45 0 45 0 0 -50z m640 0 c0 -32 -8 -66 -21
-92 l-21 -42 -24 44 c-14 28 -23 63 -24 93 l0 47 45 0 45 0 0 -50z"/>
<path d="M52 158 c-22 -62 -43 -123 -46 -135 l-7 -23 640 0 640 0 -47 135 -47
135 -546 0 -547 0 -40 -112z"/>
</g>
</svg>
