<?xml version="1.0" standalone="no"?>
<!DOCTYPE svg PUBLIC "-//W3C//DTD SVG 20010904//EN"
 "http://www.w3.org/TR/2001/REC-SVG-20010904/DTD/svg10.dtd">
<svg version="1.0" xmlns="http://www.w3.org/2000/svg"
 width="128.000000pt" height="128.000000pt" viewBox="0 0 128.000000 128.000000"
 preserveAspectRatio="xMidYMid meet">
<g transform="translate(0.000000,128.000000) scale(0.100000,-0.100000)"
fill="#000000" stroke="none">
<path d="M542 1267 c-6 -7 -13 -58 -14 -113 l-3 -99 -89 -31 c-48 -16 -92 -38
-97 -47 -7 -11 -5 -34 6 -69 8 -28 14 -52 12 -53 -1 -1 -22 -9 -46 -17 -63
-20 -69 -35 -49 -113 17 -64 17 -65 -8 -132 -16 -41 -28 -98 -31 -144 -13
-182 95 -352 267 -421 78 -31 222 -31 300 0 121 48 214 150 252 276 39 127 9
277 -82 424 -22 35 -40 66 -40 68 0 3 10 14 22 24 l22 17 -22 84 c-28 104 -39
116 -87 102 l-35 -11 -16 53 c-10 35 -22 56 -34 60 -16 5 -20 18 -22 72 -3 73
-22 98 -55 77 -14 -9 -19 -28 -21 -91 -3 -74 -5 -81 -25 -87 -12 -3 -25 -6
-29 -6 -5 0 -8 37 -8 83 0 51 -5 88 -12 95 -16 16 -43 15 -56 -1z m188 -256
c0 -15 -26 -28 -142 -67 -79 -27 -145 -48 -148 -46 -3 1 -5 9 -5 18 0 12 37
30 135 64 74 27 141 49 148 49 6 1 12 -8 12 -18z m128 -112 c3 -23 -8 -28
-240 -107 -134 -45 -248 -82 -254 -82 -12 0 -27 40 -18 49 9 9 489 170 499
167 6 -1 11 -13 13 -27z m18 -199 c130 -202 130 -384 -1 -515 -67 -67 -137
-95 -235 -95 -98 0 -168 28 -235 95 -68 68 -98 141 -97 240 0 86 33 182 65
194 71 27 69 28 39 -36 -22 -49 -27 -72 -27 -148 0 -74 4 -97 22 -131 43 -80
147 -144 233 -144 86 0 190 64 233 144 18 34 22 57 22 131 -1 78 -5 99 -30
155 -17 36 -45 84 -62 108 -38 48 -40 59 -15 65 37 10 44 5 88 -63z m-157 -32
c79 -107 112 -210 91 -287 -47 -175 -293 -175 -340 0 -19 71 22 206 88 284 16
20 84 53 109 54 7 1 30 -23 52 -51z"/>
</g>
</svg>
