<?xml version="1.0" standalone="no"?>
<!DOCTYPE svg PUBLIC "-//W3C//DTD SVG 20010904//EN"
 "http://www.w3.org/TR/2001/REC-SVG-20010904/DTD/svg10.dtd">
<svg version="1.0" xmlns="http://www.w3.org/2000/svg"
 width="128.000000pt" height="128.000000pt" viewBox="0 0 128.000000 128.000000"
 preserveAspectRatio="xMidYMid meet">
<g transform="translate(0.000000,128.000000) scale(0.100000,-0.100000)"
fill="#000000" stroke="none">
<path d="M142 1269 c-46 -14 -118 -88 -131 -135 -6 -22 -11 -118 -11 -214 l0
-175 372 -372 373 -373 267 267 268 268 -372 372 -373 373 -180 -1 c-99 0
-195 -5 -213 -10z m127 -113 c31 -17 51 -54 51 -97 0 -43 -56 -99 -99 -99 -68
0 -111 44 -111 115 0 75 85 119 159 81z"/>
</g>
</svg>
