<?xml version="1.0" standalone="no"?>
<!DOCTYPE svg PUBLIC "-//W3C//DTD SVG 20010904//EN"
 "http://www.w3.org/TR/2001/REC-SVG-20010904/DTD/svg10.dtd">
<svg version="1.0" xmlns="http://www.w3.org/2000/svg"
 width="128.000000pt" height="128.000000pt" viewBox="0 0 128.000000 128.000000"
 preserveAspectRatio="xMidYMid meet">
<g transform="translate(0.000000,128.000000) scale(0.100000,-0.100000)"
fill="#000000" stroke="none">
<path d="M609 1217 c-21 -16 -39 -51 -39 -74 1 -10 9 -36 19 -57 19 -40 16
-71 -11 -103 -21 -25 19 -14 46 13 29 30 34 74 11 114 -21 37 -18 68 10 95 24
25 24 25 2 25 -12 0 -29 -6 -38 -13z"/>
<path d="M675 1070 c5 -14 -4 -37 -25 -70 -32 -51 -34 -76 -5 -100 13 -10 15
-8 15 15 0 15 11 40 25 57 26 31 32 67 15 99 -14 25 -33 25 -25 -1z"/>
<path d="M574 860 c-38 -15 -448 -281 -466 -302 -16 -18 -18 -44 -18 -222 0
-266 -20 -246 238 -246 l192 0 0 160 0 160 120 0 120 0 0 -160 0 -160 193 0
c257 0 237 -20 237 247 0 177 -2 203 -17 221 -20 23 -431 288 -470 303 -30 11
-100 11 -129 -1z m324 -177 c118 -75 221 -143 228 -151 12 -11 14 -51 12 -200
l-3 -187 -162 -3 -163 -2 0 140 c0 186 6 180 -170 180 -176 0 -170 6 -170
-180 l0 -140 -162 2 -163 3 -3 191 -2 191 227 146 c205 132 232 147 272 147
40 0 66 -14 259 -137z"/>
<path d="M574 346 c-3 -8 -4 -29 -2 -48 l3 -33 65 0 65 0 0 45 0 45 -63 3
c-47 2 -64 -1 -68 -12z"/>
</g>
</svg>
