<?xml version="1.0" standalone="no"?>
<!DOCTYPE svg PUBLIC "-//W3C//DTD SVG 20010904//EN"
 "http://www.w3.org/TR/2001/REC-SVG-20010904/DTD/svg10.dtd">
<svg version="1.0" xmlns="http://www.w3.org/2000/svg"
 width="128.000000pt" height="128.000000pt" viewBox="0 0 128.000000 128.000000"
 preserveAspectRatio="xMidYMid meet">
<g transform="translate(0.000000,128.000000) scale(0.100000,-0.100000)"
fill="#000000" stroke="none">
<path d="M517 1149 c-26 -5 -73 -21 -104 -34 -30 -14 -57 -25 -59 -25 -1 0 -4
10 -6 23 -2 17 -10 23 -39 25 l-37 3 -7 -78 c-4 -43 -10 -82 -15 -88 -14 -19
-22 -106 -10 -119 8 -10 7 -15 -5 -20 -16 -6 -20 -43 -6 -65 11 -18 -8 -75
-45 -130 -26 -39 -26 -43 -13 -79 13 -34 14 -66 6 -172 l-2 -35 463 -3 462 -2
10 26 c8 21 7 31 -6 45 -13 15 -14 22 -5 33 9 11 8 22 -9 52 -24 46 -24 53 -5
90 26 50 11 140 -29 173 -10 9 -14 31 -14 77 1 37 -3 69 -10 76 -7 7 -12 27
-12 44 0 18 -5 36 -10 39 -7 4 -7 12 0 24 5 11 6 37 2 62 -6 35 -12 45 -30 47
-17 3 -25 -3 -33 -27 -6 -17 -12 -31 -13 -31 -2 0 -29 9 -62 21 -155 53 -256
67 -357 48z"/>
</g>
</svg>
