<?xml version="1.0" standalone="no"?>
<!DOCTYPE svg PUBLIC "-//W3C//DTD SVG 20010904//EN"
 "http://www.w3.org/TR/2001/REC-SVG-20010904/DTD/svg10.dtd">
<svg version="1.0" xmlns="http://www.w3.org/2000/svg"
 width="128.000000pt" height="128.000000pt" viewBox="0 0 128.000000 128.000000"
 preserveAspectRatio="xMidYMid meet">
<g transform="translate(0.000000,128.000000) scale(0.100000,-0.100000)"
fill="#000000" stroke="none">
<path d="M295 1244 c-9 -19 -19 -68 -22 -108 -5 -70 -4 -77 31 -142 35 -66 36
-71 36 -176 l0 -108 45 0 45 0 0 108 c0 101 2 111 32 174 24 49 37 65 48 61
37 -15 81 -14 104 0 22 15 28 15 64 1 36 -15 43 -15 75 1 88 41 107 225 25
225 l-29 0 20 -26 c32 -41 28 -98 -9 -136 -25 -24 -36 -29 -58 -23 -15 3 -35
13 -44 22 -15 14 -20 13 -44 -6 -29 -23 -83 -28 -102 -9 -7 7 -12 25 -12 40
l0 28 -90 0 c-75 0 -90 3 -90 15 0 24 28 73 47 84 15 8 11 10 -18 11 -32 0
-39 -4 -54 -36z m45 -150 c0 -8 9 -32 20 -54 22 -43 25 -60 10 -60 -19 0 -66
113 -54 132 8 12 24 0 24 -18z"/>
<path d="M468 1268 c17 -8 26 -8 34 0 9 9 4 12 -22 11 -33 0 -34 -1 -12 -11z"/>
<path d="M623 1263 c16 -16 18 -16 34 0 16 16 15 17 -17 17 -32 0 -33 -1 -17
-17z"/>
<path d="M760 991 c0 -10 7 -21 15 -25 8 -3 15 -1 15 5 0 7 68 9 198 8 175 -1
197 0 200 15 3 14 -19 16 -212 16 -205 0 -216 -1 -216 -19z"/>
<path d="M1137 945 c-10 -7 -17 -17 -16 -21 1 -5 1 -91 0 -191 l-1 -183 -145
0 -145 0 0 194 c0 168 -2 195 -16 200 -9 3 -18 6 -20 6 -2 0 -4 -47 -4 -105
l0 -105 -32 -14 -33 -14 28 -1 c53 -2 58 -17 55 -158 l-3 -128 -52 -3 c-35 -2
-53 1 -53 9 0 7 -21 10 -67 8 -38 -1 -90 -2 -118 -1 l-50 2 0 110 0 110 47 0
c46 0 47 -1 54 -36 4 -20 4 -69 0 -110 -6 -69 -5 -74 13 -74 16 0 20 10 26 69
4 39 4 88 0 110 l-7 41 51 0 c48 0 51 1 51 26 l0 26 -190 -4 c-113 -3 -195 -9
-201 -15 -6 -6 -12 -52 -14 -103 -4 -80 0 -104 22 -171 20 -61 24 -88 19 -124
-4 -25 -11 -45 -15 -45 -4 0 -5 14 -3 31 10 67 -16 16 -42 -85 l-28 -104 -39
-4 c-21 -2 -39 -2 -39 1 0 12 96 181 121 212 16 20 29 44 29 53 0 50 -61 -21
-133 -156 -31 -58 -63 -111 -72 -118 -8 -7 -15 -19 -15 -26 0 -11 22 -14 99
-14 103 0 123 7 96 34 -14 14 -14 21 0 71 15 51 19 55 46 55 27 0 29 -2 18
-21 -20 -39 -14 -91 16 -116 33 -29 38 -29 72 3 19 17 24 27 16 31 -8 2 -13
22 -13 44 0 24 4 38 10 34 6 -3 10 -22 10 -41 0 -23 5 -34 14 -34 8 0 28 -13
44 -30 37 -36 46 -37 77 -5 18 17 25 35 25 64 0 22 -4 43 -10 46 -18 11 -11
25 13 25 21 1 39 27 60 92 9 27 56 52 95 51 28 -1 44 -9 69 -37 41 -45 67 -45
109 -2 39 40 77 49 123 30 18 -8 35 -14 37 -14 2 0 4 27 4 60 0 33 4 60 10 60
6 0 10 -33 10 -80 0 -71 -2 -79 -17 -73 -15 5 -15 3 2 -14 20 -20 20 -20 23
104 2 100 5 123 17 123 19 0 19 37 0 47 -12 7 -15 45 -17 210 -3 191 -4 201
-21 188z m-327 -220 c0 -8 -4 -15 -10 -15 -5 0 -10 7 -10 15 0 8 5 15 10 15 6
0 10 -7 10 -15z m-212 -48 c2 -12 -3 -17 -17 -17 -15 0 -21 6 -21 21 0 25 33
22 38 -4z m-176 -77 c1 -16 2 -37 2 -47 1 -9 -5 -18 -11 -20 -9 -3 -13 10 -13
46 0 54 19 72 22 21z m738 -75 c0 -16 -6 -25 -15 -25 -9 0 -15 9 -15 25 0 16
6 25 15 25 9 0 15 -9 15 -25z m-40 -55 l0 -30 -145 0 -145 0 0 30 0 30 145 0
145 0 0 -30z m-584 -105 c5 -20 12 -25 37 -25 34 0 107 -45 107 -66 0 -25 -20
-25 -53 0 -48 37 -83 35 -91 -4 l-6 -31 -62 3 -63 3 -6 36 c-3 20 -3 52 -1 72
l4 37 64 0 c60 0 64 -2 70 -25z m-11 -155 c4 -6 -10 -10 -35 -10 -25 0 -39 4
-35 10 3 6 19 10 35 10 16 0 32 -4 35 -10z m-102 -7 c-7 -2 -19 -2 -25 0 -7 3
-2 5 12 5 14 0 19 -2 13 -5z m160 0 c-7 -2 -19 -2 -25 0 -7 3 -2 5 12 5 14 0
19 -2 13 -5z m-53 -63 c0 -40 -15 -54 -27 -24 -5 15 11 64 22 64 3 0 5 -18 5
-40z m-101 1 c7 -13 6 -23 -4 -37 -15 -19 -15 -19 -30 0 -15 19 -5 56 15 56 5
0 14 -8 19 -19z m159 -11 c4 -27 -17 -44 -35 -28 -16 13 -17 30 -1 46 17 17
32 10 36 -18z"/>
<path d="M916 849 c-25 -20 -26 -23 -26 -140 l0 -120 83 3 82 3 3 113 c3 108
2 113 -22 137 -31 31 -83 33 -120 4z m92 -28 c9 -5 14 -35 15 -95 l2 -86 -52
0 -53 0 0 85 c0 69 3 86 18 94 21 13 52 14 70 2z"/>
<path d="M734 668 l-32 -10 0 -109 -1 -109 45 0 44 0 0 120 c0 129 2 127 -56
108z"/>
<path d="M266 604 c-9 -25 -7 -72 4 -79 6 -4 10 13 10 44 0 53 -4 62 -14 35z"/>
<path d="M745 308 c-8 -13 -21 -23 -28 -23 -6 0 -13 -9 -16 -20 -3 -17 -2 -18
15 -5 20 15 -20 -35 -44 -57 -31 -27 18 -126 74 -149 40 -17 68 -11 103 20 41
37 66 116 37 116 -8 0 -17 6 -19 13 -3 6 -6 0 -6 -15 -1 -35 -14 -42 -35 -19
-21 23 -67 22 -94 -2 -19 -17 -20 -17 -25 5 -4 13 -4 34 0 46 l6 23 23 -22
c19 -17 27 -20 36 -11 9 9 6 17 -11 36 -31 33 -19 50 30 43 37 -5 37 -4 27 19
-14 31 -52 32 -73 2z m95 -180 c0 7 5 12 12 12 29 0 -22 -32 -59 -37 -51 -7
-63 10 -32 43 l23 24 28 -27 c15 -15 28 -21 28 -15z m-110 -9 c0 -5 -4 -9 -10
-9 -5 0 -10 7 -10 16 0 8 5 12 10 9 6 -3 10 -10 10 -16z"/>
<path d="M1000 290 c0 -5 -6 -7 -14 -4 -29 11 -23 -25 9 -56 38 -37 61 -23 25
15 -28 29 -19 45 25 45 44 0 53 -16 24 -46 -17 -19 -20 -27 -11 -36 9 -9 18
-6 37 12 l25 23 0 -48 0 -48 -25 23 c-19 18 -28 21 -37 12 -9 -9 -6 -17 11
-36 13 -14 20 -29 16 -35 -14 -23 -115 -5 -115 21 0 9 3 9 12 0 9 -9 17 -7 35
10 23 21 31 48 15 48 -5 0 -17 -9 -27 -20 -27 -30 -35 -25 -35 21 l0 42 -21
-27 c-55 -70 39 -185 127 -156 58 20 109 120 71 142 -10 5 -17 20 -17 32 0 13
-7 27 -16 30 -10 4 -13 13 -9 26 6 18 2 20 -49 20 -31 0 -56 -4 -56 -10z m112
-172 c-7 -7 -12 -8 -12 -2 0 14 12 26 19 19 2 -3 -1 -11 -7 -17z"/>
<path d="M816 256 c-25 -34 -33 -56 -19 -56 12 0 63 53 63 66 0 27 -19 22 -44
-10z"/>
<path d="M880 248 c0 -10 5 -18 10 -18 6 0 10 -9 10 -20 0 -11 7 -20 15 -20 8
0 15 6 15 14 0 8 2 20 3 28 2 7 2 10 0 6 -8 -14 -32 -8 -42 10 -10 16 -10 16
-11 0z"/>
</g>
</svg>
