<?xml version="1.0" standalone="no"?>
<!DOCTYPE svg PUBLIC "-//W3C//DTD SVG 20010904//EN"
 "http://www.w3.org/TR/2001/REC-SVG-20010904/DTD/svg10.dtd">
<svg version="1.0" xmlns="http://www.w3.org/2000/svg"
 width="128.000000pt" height="128.000000pt" viewBox="0 0 128.000000 128.000000"
 preserveAspectRatio="xMidYMid meet">
<g transform="translate(0.000000,128.000000) scale(0.100000,-0.100000)"
fill="#000000" stroke="none">
<path d="M185 1187 c-84 -47 -137 -162 -116 -251 34 -143 200 -183 314 -77
107 99 95 275 -24 336 -43 23 -127 19 -174 -8z m80 -38 c40 -36 46 -76 15
-104 -40 -37 -140 8 -140 62 0 29 42 73 69 73 11 0 36 -14 56 -31z"/>
<path d="M187 1134 c-4 -4 -7 -18 -7 -31 0 -21 4 -24 28 -21 21 2 27 8 27 28
0 18 -6 26 -20 28 -12 2 -24 0 -28 -4z"/>
<path d="M500 1006 c0 -72 -54 -168 -115 -206 -20 -12 -34 -24 -31 -27 8 -9
180 -43 214 -43 66 0 111 75 80 133 -12 23 -137 177 -144 177 -2 0 -4 -15 -4
-34z"/>
<path d="M654 938 c9 -13 23 -32 30 -43 44 -62 15 -164 -58 -199 -36 -17 -46
-18 -110 -7 -39 6 -81 14 -93 17 -20 6 -23 3 -23 -25 l0 -32 158 3 157 3 3
153 3 152 -42 0 c-41 0 -41 0 -25 -22z"/>
<path d="M762 890 l-3 -70 30 31 31 30 -23 40 c-12 21 -24 39 -27 39 -3 0 -7
-31 -8 -70z"/>
<path d="M812 828 c-16 -16 -15 -48 1 -48 19 0 37 21 37 42 0 21 -20 24 -38 6z"/>
<path d="M877 786 c-6 -16 11 -36 30 -36 19 0 16 37 -3 44 -21 8 -21 8 -27 -8z"/>
<path d="M760 718 c0 -59 2 -66 22 -71 30 -8 32 -3 12 28 -13 20 -15 31 -6 49
9 20 7 27 -9 42 -19 17 -19 16 -19 -48z"/>
<path d="M821 723 c-6 -12 -6 -25 -1 -34 12 -19 45 1 45 27 0 25 -31 30 -44 7z"/>
<path d="M896 693 c-7 -18 -8 -16 21 -32 14 -7 24 -8 28 -1 8 13 -1 27 -25 40
-14 7 -19 6 -24 -7z"/>
<path d="M841 631 c-16 -28 13 -51 36 -28 18 18 11 47 -11 47 -9 0 -20 -9 -25
-19z"/>
<path d="M917 600 c-3 -12 3 -21 20 -29 32 -14 33 -14 33 7 0 11 -11 24 -24
30 -20 9 -25 8 -29 -8z"/>
<path d="M436 600 c30 -12 75 -14 108 -5 21 6 38 3 61 -9 30 -16 35 -17 63 -2
39 20 56 20 72 1 8 -10 29 -15 59 -14 l46 0 -40 19 c-34 16 -66 19 -215 19
-105 0 -167 -4 -154 -9z"/>
<path d="M860 545 c-11 -13 -11 -19 3 -32 21 -21 49 -9 45 19 -4 28 -30 35
-48 13z"/>
<path d="M438 352 c-65 -109 -118 -201 -118 -205 0 -3 9 -11 19 -17 18 -9 31
9 141 191 67 111 119 208 116 215 -16 41 -44 8 -158 -184z"/>
<path d="M674 536 c-6 -15 191 -416 204 -416 4 0 13 4 21 9 21 13 -175 421
-202 421 -10 0 -20 -6 -23 -14z"/>
<path d="M937 511 c-3 -13 3 -22 20 -30 47 -21 60 10 14 33 -27 14 -29 14 -34
-3z"/>
<path d="M633 468 c3 -7 15 -50 28 -95 17 -60 28 -83 40 -83 8 0 18 3 22 6 6
7 -79 184 -89 184 -3 0 -4 -6 -1 -12z"/>
<path d="M894 465 c-8 -21 2 -45 19 -45 8 0 20 7 27 15 10 12 10 18 0 30 -7 8
-19 15 -27 15 -7 0 -16 -7 -19 -15z"/>
<path d="M977 436 c-3 -8 5 -18 19 -25 32 -14 34 -14 34 2 0 20 -47 40 -53 23z"/>
<path d="M926 381 c-11 -18 6 -42 28 -39 29 4 29 42 -1 46 -11 2 -24 -1 -27
-7z"/>
<path d="M1010 352 c0 -12 51 -34 59 -27 7 8 -28 35 -46 35 -7 0 -13 -4 -13
-8z"/>
<path d="M972 288 c2 -15 11 -24 26 -26 20 -3 23 0 20 20 -2 15 -11 24 -26 26
-20 3 -23 0 -20 -20z"/>
<path d="M1060 276 c0 -8 14 -19 30 -25 17 -6 30 -6 30 -1 0 5 -13 16 -30 25
-25 13 -30 13 -30 1z"/>
<path d="M1031 230 c-7 -4 -11 -16 -9 -26 4 -22 37 -31 48 -13 16 25 -14 55
-39 39z"/>
<path d="M1110 201 c0 -13 38 -33 53 -28 7 2 -3 11 -20 21 -18 9 -33 12 -33 7z"/>
<path d="M1077 153 c-13 -12 -7 -41 10 -47 9 -4 23 0 31 8 13 12 13 18 2 30
-13 17 -32 21 -43 9z"/>
<path d="M1152 104 c-10 -21 -9 -24 13 -30 53 -13 70 22 21 44 -20 9 -25 7
-34 -14z"/>
</g>
</svg>
