<?xml version="1.0" standalone="no"?>
<!DOCTYPE svg PUBLIC "-//W3C//DTD SVG 20010904//EN"
 "http://www.w3.org/TR/2001/REC-SVG-20010904/DTD/svg10.dtd">
<svg version="1.0" xmlns="http://www.w3.org/2000/svg"
 width="128.000000pt" height="128.000000pt" viewBox="0 0 128.000000 128.000000"
 preserveAspectRatio="xMidYMid meet">
<g transform="translate(0.000000,128.000000) scale(0.100000,-0.100000)"
fill="#000000" stroke="none">
<path d="M359 1045 l-266 -134 -47 -131 c-25 -73 -46 -134 -46 -136 0 -2 81
-4 180 -4 l180 0 0 -45 0 -45 -180 0 -180 0 0 -230 0 -230 228 2 227 3 3 275
2 276 89 88 88 87 91 -91 92 -92 0 -274 0 -274 230 0 230 0 -2 228 -3 227
-183 3 -183 2 3 43 3 42 178 3 c119 2 177 6 177 13 0 6 -19 67 -42 136 l-43
125 -267 134 c-148 74 -274 134 -280 133 -7 0 -133 -60 -279 -134z m-89 -680
l0 -96 -87 3 -88 3 -3 79 c-2 44 -1 85 2 93 4 9 29 13 91 13 l85 0 0 -95z
m910 0 l0 -96 -87 3 -88 3 -3 79 c-2 44 -1 85 2 93 4 9 29 13 91 13 l85 0 0
-95z"/>
<path d="M592 597 l-42 -43 0 -232 0 -232 90 0 90 0 0 226 0 225 -42 50 c-22
27 -44 49 -47 49 -4 0 -26 -19 -49 -43z"/>
</g>
</svg>
