<?xml version="1.0" standalone="no"?>
<!DOCTYPE svg PUBLIC "-//W3C//DTD SVG 20010904//EN"
 "http://www.w3.org/TR/2001/REC-SVG-20010904/DTD/svg10.dtd">
<svg version="1.0" xmlns="http://www.w3.org/2000/svg"
 width="128.000000pt" height="128.000000pt" viewBox="0 0 128.000000 128.000000"
 preserveAspectRatio="xMidYMid meet">
<g transform="translate(0.000000,128.000000) scale(0.100000,-0.100000)"
fill="#000000" stroke="none">
<path d="M539 1195 c0 -3 0 -33 -1 -67 l0 -63 68 0 69 0 0 65 0 65 -67 3 c-38
2 -68 0 -69 -3z"/>
<path d="M212 974 c-20 -14 -22 -23 -22 -124 0 -101 2 -110 22 -124 19 -14 73
-16 383 -16 l361 0 69 70 69 70 -69 70 -69 70 -361 0 c-310 0 -364 -2 -383
-16z m460 -120 c1 -36 1 -68 -1 -70 -2 -2 -33 -4 -68 -4 l-63 0 0 70 0 70 64
0 64 0 4 -66z"/>
<path d="M540 635 c0 -3 0 -128 -1 -277 l0 -273 68 0 68 0 0 275 0 275 -67 3
c-38 2 -68 0 -68 -3z"/>
</g>
</svg>
