<?xml version="1.0" standalone="no"?>
<!DOCTYPE svg PUBLIC "-//W3C//DTD SVG 20010904//EN"
 "http://www.w3.org/TR/2001/REC-SVG-20010904/DTD/svg10.dtd">
<svg version="1.0" xmlns="http://www.w3.org/2000/svg"
 width="128.000000pt" height="128.000000pt" viewBox="0 0 128.000000 128.000000"
 preserveAspectRatio="xMidYMid meet">
<g transform="translate(0.000000,128.000000) scale(0.100000,-0.100000)"
fill="#000000" stroke="none">
<path d="M427 1188 c-43 -22 -82 -49 -87 -58 -17 -31 -81 -290 -75 -300 4 -6
89 -10 221 -10 l214 0 0 146 0 146 -32 45 c-63 86 -122 94 -241 31z m200 -43
c1 -5 -40 -32 -93 -59 -81 -42 -99 -48 -122 -40 -34 12 -44 54 -13 54 12 0 21
-6 21 -15 0 -22 6 -20 95 30 78 43 105 51 112 30z m33 -90 c0 -11 -11 -15 -40
-15 -29 0 -40 4 -40 15 0 11 11 15 40 15 29 0 40 -4 40 -15z"/>
<path d="M128 889 c-38 -20 -68 -62 -68 -97 0 -10 12 -29 26 -43 l26 -24 511
0 c558 0 554 0 586 57 19 34 7 73 -32 102 -26 19 -44 21 -232 24 l-204 3 -3
-53 c-4 -77 -9 -79 -264 -76 -195 3 -214 5 -234 23 -18 16 -21 26 -15 62 l6
43 -33 0 c-18 -1 -50 -10 -70 -21z"/>
<path d="M1185 712 c-27 -15 -86 -17 -547 -20 -464 -2 -521 -1 -549 14 l-32
16 6 -53 c18 -152 153 -287 343 -345 47 -15 93 -19 229 -19 150 0 179 3 245
23 130 41 218 102 280 194 38 58 65 143 59 185 -4 21 -5 21 -34 5z m-725 -117
c0 -12 -20 -15 -120 -15 -100 0 -120 3 -120 15 0 13 20 15 120 15 100 0 120
-2 120 -15z m480 0 c0 -13 -29 -15 -200 -15 -171 0 -200 2 -200 15 0 13 29 15
200 15 171 0 200 -2 200 -15z m80 -130 c0 -12 -18 -15 -100 -15 -82 0 -100 3
-100 15 0 12 18 15 100 15 82 0 100 -3 100 -15z"/>
</g>
</svg>
