<?xml version="1.0" standalone="no"?>
<!DOCTYPE svg PUBLIC "-//W3C//DTD SVG 20010904//EN"
 "http://www.w3.org/TR/2001/REC-SVG-20010904/DTD/svg10.dtd">
<svg version="1.0" xmlns="http://www.w3.org/2000/svg"
 width="128.000000pt" height="128.000000pt" viewBox="0 0 128.000000 128.000000"
 preserveAspectRatio="xMidYMid meet">
<g transform="translate(0.000000,128.000000) scale(0.100000,-0.100000)"
fill="#000000" stroke="none">
<path d="M630 1090 c0 -25 -4 -30 -24 -30 -26 0 -30 -8 -42 -72 l-6 -38 -126
0 -126 0 -25 -31 c-16 -19 -47 -37 -81 -49 l-55 -19 78 0 77 -1 0 -61 c0 -54
-3 -64 -29 -88 -16 -15 -50 -34 -77 -43 l-49 -16 43 -1 c38 -1 42 -3 42 -26 0
-16 6 -25 15 -25 9 0 15 9 15 25 0 25 0 25 88 23 77 -2 80 -2 23 -5 -55 -4
-66 -8 -88 -33 -13 -16 -47 -38 -76 -49 l-52 -20 53 0 52 -1 0 -100 0 -100
-30 0 c-16 0 -30 -4 -30 -10 0 -7 150 -10 430 -10 280 0 430 3 430 10 0 6 -9
10 -20 10 -19 0 -20 7 -20 100 l0 100 53 1 52 0 -52 20 c-29 11 -63 33 -76 49
-21 25 -33 29 -83 33 -47 2 -41 4 29 5 87 2 87 2 87 -23 0 -14 5 -25 10 -25 6
0 10 11 10 25 0 23 4 25 43 26 l42 1 -49 16 c-27 9 -61 28 -77 43 -26 24 -29
34 -29 88 l0 61 78 1 77 0 -55 19 c-34 12 -65 30 -81 49 l-25 31 -121 0 -121
0 -6 38 c-12 64 -16 72 -42 72 -20 0 -24 5 -24 30 0 20 -5 30 -15 30 -10 0
-15 -10 -15 -30z m58 -67 c2 -9 -10 -13 -42 -13 -43 0 -55 7 -39 24 12 11 76
2 81 -11z m12 -58 c0 -12 -13 -15 -55 -15 -42 0 -55 3 -55 15 0 12 13 15 55
15 42 0 55 -3 55 -15z m275 -62 l25 -28 -356 -3 c-197 -1 -359 0 -362 2 -2 3
8 16 23 30 l28 26 308 0 308 0 26 -27z m-25 -108 c0 -48 -2 -55 -20 -55 -17 0
-20 7 -20 50 l0 50 -60 0 -60 0 0 -50 c0 -47 -2 -50 -25 -50 -23 0 -25 3 -25
50 l0 50 -95 0 -95 0 0 -50 c0 -47 -2 -50 -25 -50 -23 0 -25 3 -25 50 l0 50
-60 0 -60 0 0 -50 c0 -47 -2 -50 -25 -50 -24 0 -25 3 -25 55 l0 55 310 0 310
0 0 -55z m-480 -15 c0 -38 -2 -40 -30 -40 -28 0 -30 2 -30 40 0 38 2 40 30 40
28 0 30 -2 30 -40z m240 -1 c0 -24 -4 -38 -10 -34 -5 3 -10 15 -10 26 0 16 -7
19 -45 19 -38 0 -45 -3 -45 -19 0 -11 -4 -23 -10 -26 -6 -4 -10 10 -10 34 l0
41 65 0 65 0 0 -41z m170 0 c0 -39 -1 -40 -32 -37 -26 2 -34 8 -36 26 -6 37 5
52 38 52 28 0 30 -2 30 -41z m-212 -41 c7 -28 6 -33 -10 -36 -37 -7 -45 1 -36
36 5 17 15 32 23 32 8 0 18 -15 23 -32z m-88 -28 c0 -6 -32 -10 -75 -10 -60 0
-75 -3 -75 -15 0 -12 -15 -15 -74 -15 l-74 0 21 25 c21 24 26 25 150 25 78 0
127 -4 127 -10z m396 -15 l23 -25 -69 0 c-56 0 -70 3 -70 15 0 12 -16 15 -81
15 -51 0 -78 4 -74 10 4 6 57 10 127 10 116 0 122 -1 144 -25z m-146 -45 c0
-19 -7 -20 -185 -20 -178 0 -185 1 -185 20 0 19 7 20 185 20 178 0 185 -1 185
-20z m150 -75 l23 -25 -363 0 -363 0 23 25 23 25 317 0 317 0 23 -25z m-540
-72 c-17 -22 -32 -29 -73 -33 l-52 -5 0 -60 0 -60 63 -3 62 -3 0 66 c0 52 3
65 15 65 13 0 15 -12 13 -67 l-3 -68 -87 -3 -88 -3 0 101 0 100 86 0 85 0 -21
-27z m360 12 c11 -13 -7 -15 -155 -15 -148 0 -166 2 -155 15 10 12 40 15 155
15 115 0 145 -3 155 -15z m190 -85 l0 -101 -82 3 -83 3 -3 68 c-2 55 0 67 13
67 12 0 15 -13 15 -65 l0 -65 60 0 60 0 0 65 0 65 -49 0 c-44 0 -52 4 -71 30
l-21 30 80 0 81 0 0 -100z m-200 20 c0 -23 -15 -25 -50 -5 -15 9 -53 14 -95
14 -42 0 -80 -5 -95 -14 -35 -20 -50 -18 -50 5 0 19 7 20 145 20 138 0 145 -1
145 -20z m-380 -45 c0 -33 -2 -35 -35 -35 -33 0 -35 2 -35 35 0 33 2 35 35 35
33 0 35 -2 35 -35z m540 0 c0 -33 -2 -35 -35 -35 -33 0 -35 2 -35 35 0 33 2
35 35 35 33 0 35 -2 35 -35z m-196 10 c32 -13 36 -20 36 -50 0 -33 -2 -35 -35
-35 -35 0 -35 0 -35 45 l0 45 -75 0 -75 0 0 -45 c0 -45 0 -45 -35 -45 -33 0
-35 2 -35 35 0 30 5 37 33 49 44 20 175 20 221 1z m-66 -47 c-3 -31 -6 -33
-45 -36 l-43 -3 0 35 c0 36 0 36 46 36 45 0 45 0 42 -32z"/>
<path d="M130 320 c0 -5 11 -10 25 -10 14 0 25 5 25 10 0 6 -11 10 -25 10 -14
0 -25 -4 -25 -10z"/>
<path d="M1080 320 c0 -5 16 -10 35 -10 19 0 35 5 35 10 0 6 -16 10 -35 10
-19 0 -35 -4 -35 -10z"/>
</g>
</svg>
