<?xml version="1.0" standalone="no"?>
<!DOCTYPE svg PUBLIC "-//W3C//DTD SVG 20010904//EN"
 "http://www.w3.org/TR/2001/REC-SVG-20010904/DTD/svg10.dtd">
<svg version="1.0" xmlns="http://www.w3.org/2000/svg"
 width="128.000000pt" height="128.000000pt" viewBox="0 0 128.000000 128.000000"
 preserveAspectRatio="xMidYMid meet">
<g transform="translate(0.000000,128.000000) scale(0.100000,-0.100000)"
fill="#000000" stroke="none">
<path d="M515 1146 c-60 -40 -124 -89 -142 -109 -43 -49 -64 -127 -47 -171 5
-14 42 -16 314 -16 339 0 320 -4 320 63 -1 50 -34 110 -81 149 -67 54 -227
158 -241 157 -7 0 -62 -33 -123 -73z"/>
<path d="M69 1027 c-52 -63 -72 -105 -65 -141 4 -18 15 -41 26 -51 19 -17 20
-32 20 -347 l0 -328 240 0 240 0 0 110 c0 127 13 171 59 194 38 20 64 20 102
0 46 -23 59 -67 59 -194 l0 -110 240 0 240 0 0 328 c0 315 1 330 20 347 33 30
36 78 6 127 -31 52 -71 98 -86 98 -5 0 -30 -27 -55 -61 -53 -73 -58 -112 -20
-157 23 -28 25 -37 25 -141 l0 -111 -55 0 -55 0 0 65 c0 76 -12 106 -50 128
-24 15 -66 17 -320 17 -254 0 -296 -2 -320 -17 -38 -22 -50 -52 -50 -128 l0
-65 -55 0 -55 0 0 111 c0 104 2 113 25 141 38 45 33 84 -20 157 -25 34 -51 61
-57 60 -7 0 -25 -15 -39 -32z"/>
</g>
</svg>
