<?xml version="1.0" standalone="no"?>
<!DOCTYPE svg PUBLIC "-//W3C//DTD SVG 20010904//EN"
 "http://www.w3.org/TR/2001/REC-SVG-20010904/DTD/svg10.dtd">
<svg version="1.0" xmlns="http://www.w3.org/2000/svg"
 width="128.000000pt" height="128.000000pt" viewBox="0 0 128.000000 128.000000"
 preserveAspectRatio="xMidYMid meet">
<g transform="translate(0.000000,128.000000) scale(0.100000,-0.100000)"
fill="#000000" stroke="none">
<path d="M350 1075 c-191 -43 -301 -158 -335 -351 -32 -179 -13 -295 61 -374
105 -113 288 -162 594 -162 219 0 333 32 456 130 106 83 168 223 144 323 -35
145 -266 330 -513 412 -79 26 -110 31 -217 33 -84 2 -146 -1 -190 -11z m110
-210 l0 -45 -50 0 -50 0 0 45 0 45 50 0 50 0 0 -45z m360 0 l0 -45 -135 0
-135 0 0 45 0 45 135 0 135 0 0 -45z m180 -270 l0 -45 -410 0 -410 0 0 38 c0
21 3 42 7 45 3 4 188 7 410 7 l403 0 0 -45z m-180 -185 l0 -50 -227 2 -228 3
-3 33 c-6 64 -14 62 233 62 l225 0 0 -50z"/>
</g>
</svg>
