<?xml version="1.0" standalone="no"?>
<!DOCTYPE svg PUBLIC "-//W3C//DTD SVG 20010904//EN"
 "http://www.w3.org/TR/2001/REC-SVG-20010904/DTD/svg10.dtd">
<svg version="1.0" xmlns="http://www.w3.org/2000/svg"
 width="128.000000pt" height="128.000000pt" viewBox="0 0 128.000000 128.000000"
 preserveAspectRatio="xMidYMid meet">
<g transform="translate(0.000000,128.000000) scale(0.100000,-0.100000)"
fill="#000000" stroke="none">
<path d="M497 1132 c-135 -136 -138 -140 -135 -178 l3 -39 273 -3 272 -2 0 47
0 48 -133 133 c-73 72 -135 132 -137 132 -3 0 -67 -62 -143 -138z"/>
<path d="M57 1043 c-44 -62 -57 -87 -57 -112 0 -20 5 -21 135 -21 l135 0 0 25
c0 14 -18 55 -41 90 l-41 65 -48 0 c-46 0 -50 -2 -83 -47z"/>
<path d="M1044 1020 c-67 -104 -66 -105 96 -105 162 0 164 2 94 105 l-47 70
-49 0 -48 0 -46 -70z"/>
<path d="M0 455 l0 -365 228 2 227 3 6 72 c12 134 65 193 173 193 117 0 171
-59 183 -198 l6 -72 228 0 229 0 0 365 0 365 -134 0 c-146 0 -146 0 -146 -61
0 -28 -2 -29 -46 -29 l-46 0 4 45 3 45 -272 0 -273 0 0 -29 c0 -52 -8 -61 -56
-61 l-44 0 0 45 0 45 -135 0 -135 0 0 -365z m327 71 c24 -21 28 -32 31 -95 l4
-72 -88 3 -89 3 2 55 c3 67 18 104 46 118 36 17 64 14 94 -12z m711 18 c33 -9
52 -54 52 -124 l0 -60 -90 0 -90 0 0 50 c0 108 46 156 128 134z"/>
</g>
</svg>
