<?xml version="1.0" standalone="no"?>
<!DOCTYPE svg PUBLIC "-//W3C//DTD SVG 20010904//EN"
 "http://www.w3.org/TR/2001/REC-SVG-20010904/DTD/svg10.dtd">
<svg version="1.0" xmlns="http://www.w3.org/2000/svg"
 width="128.000000pt" height="128.000000pt" viewBox="0 0 128.000000 128.000000"
 preserveAspectRatio="xMidYMid meet">
<g transform="translate(0.000000,128.000000) scale(0.100000,-0.100000)"
fill="#000000" stroke="none">
<path d="M62 968 c3 -211 3 -213 25 -216 16 -2 23 -11 25 -35 2 -24 8 -33 26
-35 22 -3 22 -5 22 -173 l0 -169 -25 -10 c-19 -7 -25 -17 -25 -40 0 -23 -4
-30 -20 -30 -11 0 -20 -4 -20 -10 0 -7 197 -10 570 -10 373 0 570 3 570 10 0
6 -9 10 -19 10 -15 0 -21 8 -23 33 -2 24 -8 33 -25 35 -23 3 -23 5 -23 177 0
172 0 174 23 177 17 2 23 11 25 35 2 24 9 33 25 35 22 3 22 5 25 216 l2 212
-580 0 -580 0 2 -212z m1128 102 l0 -90 -43 0 c-36 0 -46 4 -56 24 -17 30 -51
46 -103 46 -34 0 -46 -6 -74 -35 -26 -28 -40 -35 -71 -35 -34 0 -40 4 -58 38
-37 68 -141 101 -218 68 -36 -14 -87 -69 -87 -92 0 -10 -12 -14 -41 -14 -33 0
-46 6 -73 35 -28 29 -40 35 -75 35 -50 0 -97 -22 -106 -50 -5 -16 -15 -20 -51
-20 l-44 0 0 90 0 90 550 0 550 0 0 -90z m-491 -6 c75 -30 96 -111 43 -164
-78 -77 -232 -33 -232 67 0 46 23 77 70 97 45 20 71 20 119 0z m-361 -54 c44
-42 12 -100 -55 -100 -45 0 -73 24 -73 61 0 54 84 80 128 39z m710 4 c26 -18
29 -60 5 -86 -23 -25 -87 -24 -113 2 -58 58 38 134 108 84z m-860 -80 c7 -14
29 -32 49 -40 48 -21 104 -5 135 36 18 25 29 30 65 30 31 0 43 -4 43 -14 0
-23 51 -78 87 -92 89 -38 204 5 228 84 5 18 13 22 49 22 35 0 46 -5 64 -30 31
-41 87 -57 135 -36 20 8 42 26 49 40 9 22 18 26 55 26 l43 0 0 -90 0 -90 -550
0 -550 0 0 90 0 90 43 0 c37 0 46 -4 55 -26z m142 -209 c0 -25 0 -25 -95 -25
-95 0 -95 0 -95 25 0 25 0 25 95 25 95 0 95 0 95 -25z m590 -10 c0 -28 4 -35
20 -35 19 0 20 -7 20 -95 l0 -95 -320 0 -320 0 0 95 c0 88 1 95 20 95 16 0 20
7 20 35 l0 35 280 0 280 0 0 -35z m220 10 c0 -25 0 -25 -95 -25 -95 0 -95 0
-95 25 0 25 0 25 95 25 95 0 95 0 95 -25z m-850 -221 l0 -175 -52 3 -53 3 -3
173 -2 172 55 0 55 0 0 -176z m808 4 l-3 -173 -52 -3 -53 -3 0 175 0 176 55 0
55 0 -2 -172z m-138 -63 l0 -25 -320 0 -320 0 0 25 0 25 320 0 320 0 0 -25z
m0 -80 c0 -28 -4 -35 -20 -35 -16 0 -20 -7 -20 -35 l0 -35 -280 0 -280 0 0 35
c0 28 -4 35 -20 35 -16 0 -20 7 -20 35 l0 35 320 0 320 0 0 -35z m-630 -80 c0
-25 0 -25 -95 -25 -95 0 -95 0 -95 25 0 25 0 25 95 25 95 0 95 0 95 -25z m810
0 c0 -25 0 -25 -95 -25 -95 0 -95 0 -95 25 0 25 0 25 95 25 95 0 95 0 95 -25z"/>
<path d="M136 1127 c-10 -7 -16 -22 -14 -33 2 -14 12 -19 38 -19 26 0 36 5 38
19 4 17 -20 46 -38 46 -3 0 -14 -6 -24 -13z m44 -27 c0 -5 -7 -10 -15 -10 -8
0 -15 5 -15 10 0 6 7 10 15 10 8 0 15 -4 15 -10z"/>
<path d="M1096 1127 c-10 -7 -16 -22 -14 -33 2 -14 12 -19 38 -19 26 0 36 5
38 19 4 17 -20 46 -38 46 -3 0 -14 -6 -24 -13z m34 -27 c0 -5 -7 -10 -15 -10
-8 0 -15 5 -15 10 0 6 7 10 15 10 8 0 15 -4 15 -10z"/>
<path d="M129 854 c-17 -21 0 -49 31 -49 27 0 46 25 37 49 -8 21 -51 21 -68 0z
m42 -17 c-1 -12 -15 -9 -19 4 -3 6 1 10 8 8 6 -3 11 -8 11 -12z"/>
<path d="M1081 851 c-8 -15 -7 -23 5 -35 19 -20 35 -20 60 -2 15 12 17 18 8
33 -16 26 -60 29 -73 4z m49 -9 c0 -13 -12 -22 -22 -16 -10 6 -1 24 13 24 5 0
9 -4 9 -8z"/>
<path d="M222 508 c2 -70 7 -103 16 -106 9 -3 12 22 12 102 0 89 -3 106 -15
106 -13 0 -15 -16 -13 -102z"/>
<path d="M1030 504 c0 -80 3 -105 13 -102 8 3 13 36 15 106 2 86 0 102 -13
102 -12 0 -15 -17 -15 -106z"/>
</g>
</svg>
