<?xml version="1.0" standalone="no"?>
<!DOCTYPE svg PUBLIC "-//W3C//DTD SVG 20010904//EN"
 "http://www.w3.org/TR/2001/REC-SVG-20010904/DTD/svg10.dtd">
<svg version="1.0" xmlns="http://www.w3.org/2000/svg"
 width="128.000000pt" height="128.000000pt" viewBox="0 0 128.000000 128.000000"
 preserveAspectRatio="xMidYMid meet">
<g transform="translate(0.000000,128.000000) scale(0.100000,-0.100000)"
fill="#000000" stroke="none">
<path d="M540 1266 c-110 -30 -197 -102 -246 -203 -27 -54 -29 -68 -34 -218
l-5 -160 -85 -5 -85 -5 0 -35 0 -35 85 -5 85 -5 0 -175 c0 -145 -3 -180 -17
-206 -26 -47 -80 -90 -140 -109 -29 -10 -56 -21 -61 -24 -14 -13 14 -71 34
-71 39 0 134 44 174 81 34 32 50 39 82 39 69 0 151 -20 256 -62 88 -35 115
-42 197 -46 68 -3 113 0 160 12 63 16 230 89 230 101 0 15 -31 65 -41 65 -5 0
-35 -13 -67 -29 -103 -51 -160 -66 -257 -65 -84 0 -99 4 -209 48 -89 35 -138
49 -190 53 l-71 5 3 182 c1 99 5 187 7 194 3 9 55 12 215 12 l210 0 0 40 0 40
-212 2 -213 3 0 145 c1 132 3 149 25 195 61 125 187 187 350 170 108 -11 192
-61 241 -143 13 -20 23 -38 25 -40 4 -6 74 27 74 36 0 18 -59 99 -98 134 -49
45 -91 67 -157 84 -62 17 -205 17 -265 0z"/>
</g>
</svg>
