<?xml version="1.0" standalone="no"?>
<!DOCTYPE svg PUBLIC "-//W3C//DTD SVG 20010904//EN"
 "http://www.w3.org/TR/2001/REC-SVG-20010904/DTD/svg10.dtd">
<svg version="1.0" xmlns="http://www.w3.org/2000/svg"
 width="128.000000pt" height="128.000000pt" viewBox="0 0 128.000000 128.000000"
 preserveAspectRatio="xMidYMid meet">
<g transform="translate(0.000000,128.000000) scale(0.100000,-0.100000)"
fill="#000000" stroke="none">
<path d="M244 1161 c-49 -30 -64 -82 -64 -221 l0 -120 -38 0 c-50 0 -101 -29
-124 -71 -15 -29 -18 -58 -18 -204 0 -186 7 -213 65 -251 24 -16 25 -21 25
-110 l0 -94 90 0 90 0 0 90 0 90 365 0 364 0 3 -87 3 -88 88 -3 87 -3 0 93 0
94 31 18 c59 35 71 85 67 270 -2 135 -6 166 -21 189 -26 40 -76 67 -124 67
l-42 0 -3 146 -3 146 -37 34 -38 34 -367 0 c-343 0 -370 -1 -399 -19z m665
-126 c37 -18 51 -60 51 -146 l0 -69 -320 0 -320 0 0 83 c0 88 13 121 54 137
11 5 130 9 264 9 195 1 249 -2 271 -14z m-619 -393 c28 -35 25 -74 -6 -106
-52 -51 -134 -19 -134 53 0 79 92 115 140 53z m820 0 c28 -35 25 -74 -6 -106
-52 -51 -134 -17 -134 57 0 76 94 109 140 49z"/>
</g>
</svg>
