<?xml version="1.0" standalone="no"?>
<!DOCTYPE svg PUBLIC "-//W3C//DTD SVG 20010904//EN"
 "http://www.w3.org/TR/2001/REC-SVG-20010904/DTD/svg10.dtd">
<svg version="1.0" xmlns="http://www.w3.org/2000/svg"
 width="128.000000pt" height="128.000000pt" viewBox="0 0 128.000000 128.000000"
 preserveAspectRatio="xMidYMid meet">
<g transform="translate(0.000000,128.000000) scale(0.100000,-0.100000)"
fill="#000000" stroke="none">
<path d="M210 640 l0 -550 50 0 50 0 0 550 0 550 -50 0 -50 0 0 -550z"/>
<path d="M360 640 l0 -550 280 0 280 0 0 550 0 550 -280 0 -280 0 0 -550z
m300 365 c0 -118 -1 -125 -20 -125 -19 0 -20 7 -20 125 0 118 1 125 20 125 19
0 20 -7 20 -125z m0 -365 c0 -113 -1 -120 -20 -120 -19 0 -20 7 -20 120 0 113
1 120 20 120 19 0 20 -7 20 -120z m0 -365 c0 -118 -1 -125 -20 -125 -19 0 -20
7 -20 125 0 118 1 125 20 125 19 0 20 -7 20 -125z"/>
<path d="M970 640 l0 -550 50 0 50 0 0 550 0 550 -50 0 -50 0 0 -550z"/>
</g>
</svg>
