<?xml version="1.0" standalone="no"?>
<!DOCTYPE svg PUBLIC "-//W3C//DTD SVG 20010904//EN"
 "http://www.w3.org/TR/2001/REC-SVG-20010904/DTD/svg10.dtd">
<svg version="1.0" xmlns="http://www.w3.org/2000/svg"
 width="128.000000pt" height="128.000000pt" viewBox="0 0 128.000000 128.000000"
 preserveAspectRatio="xMidYMid meet">
<g transform="translate(0.000000,128.000000) scale(0.100000,-0.100000)"
fill="#000000" stroke="none">
<path d="M170 1254 c-62 -37 -127 -101 -150 -149 -41 -84 -17 -168 69 -248 47
-44 188 -123 200 -112 5 6 10 4 -72 43 -155 74 -229 197 -183 306 20 49 71
102 137 142 32 20 59 38 59 40 0 9 -18 2 -60 -22z"/>
<path d="M1050 1275 c0 -2 17 -13 38 -24 58 -29 128 -97 151 -144 56 -116 -13
-241 -179 -321 -78 -37 -74 -35 -69 -41 12 -11 153 68 200 112 118 109 118
226 2 335 -55 51 -143 102 -143 83z"/>
<path d="M355 1178 c-76 -39 -125 -100 -125 -155 0 -31 30 -86 63 -115 28 -24
117 -68 137 -67 8 0 -7 10 -35 23 -90 41 -145 102 -145 161 0 54 52 117 119
144 17 8 31 17 31 22 0 11 2 12 -45 -13z"/>
<path d="M880 1190 c0 -6 6 -10 13 -10 23 0 96 -58 117 -93 49 -80 1 -166
-125 -223 -27 -13 -43 -23 -35 -23 26 -1 95 35 134 69 84 74 87 150 9 221 -48
43 -113 77 -113 59z"/>
<path d="M464 1076 c-35 -35 -41 -55 -24 -86 12 -23 71 -60 96 -60 11 0 2 8
-22 20 -77 38 -82 97 -12 140 24 14 28 20 15 20 -11 0 -34 -15 -53 -34z"/>
<path d="M781 1087 c19 -12 38 -35 43 -50 8 -22 6 -31 -15 -53 -13 -15 -37
-33 -54 -40 -23 -10 -25 -13 -10 -14 31 0 94 47 101 76 8 32 -9 66 -46 87 -42
25 -58 20 -19 -6z"/>
<path d="M574 1066 c-18 -8 -35 -19 -38 -25 -12 -18 3 -47 29 -59 29 -13 32
-44 15 -182 -34 -275 -145 -520 -315 -694 -36 -37 -65 -69 -63 -70 2 -1 16 -8
32 -15 29 -12 31 -10 95 53 l67 66 234 0 234 0 67 -66 c64 -63 66 -65 95 -53
16 7 31 14 33 16 2 1 -27 33 -64 70 -168 171 -281 417 -314 688 -18 144 -15
174 13 185 57 21 51 72 -12 90 -48 13 -70 12 -108 -4z m79 -529 c10 -34 36
-99 57 -144 l39 -83 -119 0 -119 0 39 83 c21 45 47 110 57 144 10 35 20 63 23
63 3 0 13 -28 23 -63z m147 -305 c14 -20 26 -40 28 -44 2 -5 -87 -8 -198 -8
-111 0 -200 3 -198 8 2 4 14 24 28 44 l25 38 145 0 145 0 25 -38z"/>
</g>
</svg>
