<?xml version="1.0" standalone="no"?>
<!DOCTYPE svg PUBLIC "-//W3C//DTD SVG 20010904//EN"
 "http://www.w3.org/TR/2001/REC-SVG-20010904/DTD/svg10.dtd">
<svg version="1.0" xmlns="http://www.w3.org/2000/svg"
 width="128.000000pt" height="128.000000pt" viewBox="0 0 128.000000 128.000000"
 preserveAspectRatio="xMidYMid meet">
<g transform="translate(0.000000,128.000000) scale(0.100000,-0.100000)"
fill="#000000" stroke="none">
<path d="M220 1150 c-19 -19 -20 -33 -20 -452 l0 -433 -100 -38 -100 -38 0
-95 0 -94 640 0 640 0 0 60 0 60 -72 60 c-40 33 -108 78 -150 100 l-78 41 0
278 c0 251 -2 281 -17 300 -27 33 -82 38 -116 11 l-27 -21 0 -210 0 -209 -95
0 -95 0 0 160 c0 157 -1 161 -25 185 -28 29 -79 33 -113 9 -19 -13 -22 -24
-22 -85 l0 -69 -50 0 -50 0 0 234 c0 231 0 235 -22 250 -33 23 -103 21 -128
-4z"/>
</g>
</svg>
