<?xml version="1.0" standalone="no"?>
<!DOCTYPE svg PUBLIC "-//W3C//DTD SVG 20010904//EN"
 "http://www.w3.org/TR/2001/REC-SVG-20010904/DTD/svg10.dtd">
<svg version="1.0" xmlns="http://www.w3.org/2000/svg"
 width="128.000000pt" height="128.000000pt" viewBox="0 0 128.000000 128.000000"
 preserveAspectRatio="xMidYMid meet">
<g transform="translate(0.000000,128.000000) scale(0.100000,-0.100000)"
fill="#000000" stroke="none">
<path d="M0 640 l0 -640 640 0 640 0 0 640 0 640 -640 0 -640 0 0 -640z m728
485 c193 -59 323 -103 332 -114 9 -10 50 -83 93 -163 l77 -145 -127 -241 c-71
-133 -134 -242 -140 -242 -7 0 -116 27 -241 60 -126 33 -234 60 -239 60 -12 0
-26 -30 -19 -38 5 -4 444 -121 459 -122 18 0 3 -20 -56 -73 l-64 -56 -229 55
c-126 30 -237 58 -248 62 -17 7 -13 14 33 67 47 54 50 60 35 74 -14 15 -20 11
-65 -38 -27 -30 -51 -53 -53 -50 -2 2 -45 164 -94 359 l-91 355 67 67 c36 37
69 64 73 60 3 -4 39 -161 80 -349 71 -327 75 -343 96 -343 13 0 23 3 23 8 0 4
-35 168 -79 365 l-78 359 56 64 c31 36 61 62 68 60 7 -3 156 -49 331 -101z"/>
<path d="M500 1085 c-101 -32 -148 -103 -116 -178 34 -83 150 -166 321 -231
183 -70 249 -119 249 -183 0 -52 -57 -103 -116 -103 -55 0 -132 44 -182 101
-33 39 -36 41 -36 18 1 -64 72 -154 148 -186 51 -21 133 -19 178 4 21 11 52
36 68 57 92 113 -19 262 -251 336 -121 39 -184 72 -229 122 -68 76 -38 130 77
136 62 4 77 1 134 -27 73 -36 160 -124 203 -204 l27 -52 3 41 c7 90 -64 212
-165 284 -99 70 -216 95 -313 65z"/>
<path d="M615 942 c-63 -8 -72 -42 -24 -97 17 -19 35 -35 40 -35 5 0 9 17 9
37 0 26 8 45 26 64 l25 26 -23 4 c-13 2 -36 3 -53 1z"/>
<path d="M1004 875 c18 -48 28 -121 22 -166 -4 -29 -3 -49 3 -49 14 0 47 50
55 82 9 38 -20 104 -57 130 -29 21 -30 21 -23 3z"/>
<path d="M587 653 c-24 -24 5 -75 49 -85 51 -13 75 46 32 76 -23 16 -69 21
-81 9z"/>
</g>
</svg>
