<?xml version="1.0" standalone="no"?>
<!DOCTYPE svg PUBLIC "-//W3C//DTD SVG 20010904//EN"
 "http://www.w3.org/TR/2001/REC-SVG-20010904/DTD/svg10.dtd">
<svg version="1.0" xmlns="http://www.w3.org/2000/svg"
 width="128.000000pt" height="128.000000pt" viewBox="0 0 128.000000 128.000000"
 preserveAspectRatio="xMidYMid meet">
<g transform="translate(0.000000,128.000000) scale(0.100000,-0.100000)"
fill="#000000" stroke="none">
<path d="M562 1268 c-9 -9 -12 -86 -12 -285 l0 -273 -258 0 c-238 0 -260 -1
-275 -18 -10 -10 -17 -24 -17 -31 0 -37 126 -482 146 -518 33 -57 99 -111 158
-128 72 -22 600 -22 673 0 62 18 134 80 162 138 18 39 141 482 141 511 0 7 -8
20 -18 29 -16 15 -54 17 -320 17 l-302 0 0 48 0 47 175 88 c97 48 178 94 181
102 16 41 -5 60 -199 173 -106 61 -200 112 -208 112 -8 0 -20 -5 -27 -12z
m186 -187 c50 -29 92 -56 92 -60 0 -6 -184 -101 -195 -101 -3 0 -5 50 -5 111
0 61 3 109 8 107 4 -1 49 -27 100 -57z m419 -485 c-3 -8 -9 -31 -13 -50 l-6
-36 -508 0 -508 0 -11 44 c-6 25 -11 47 -11 50 0 3 239 6 531 6 456 0 530 -2
526 -14z m-54 -192 c3 -3 1 -18 -3 -32 -5 -15 -18 -59 -30 -99 -24 -83 -57
-128 -115 -154 -36 -17 -70 -19 -323 -19 -233 0 -289 3 -320 15 -44 19 -79 50
-99 89 -20 38 -62 193 -55 200 7 8 937 8 945 0z"/>
</g>
</svg>
