<?xml version="1.0" standalone="no"?>
<!DOCTYPE svg PUBLIC "-//W3C//DTD SVG 20010904//EN"
 "http://www.w3.org/TR/2001/REC-SVG-20010904/DTD/svg10.dtd">
<svg version="1.0" xmlns="http://www.w3.org/2000/svg"
 width="128.000000pt" height="128.000000pt" viewBox="0 0 128.000000 128.000000"
 preserveAspectRatio="xMidYMid meet">
<g transform="translate(0.000000,128.000000) scale(0.100000,-0.100000)"
fill="#000000" stroke="none">
<path d="M815 1229 c-143 -26 -261 -48 -262 -48 -2 -1 -3 -60 -3 -133 l0 -132
42 -43 42 -43 137 0 c134 0 138 1 141 22 2 17 22 29 93 58 l90 36 3 167 c2
131 0 167 -10 166 -7 -1 -130 -23 -273 -50z"/>
<path d="M0 1077 l0 -54 198 -12 c108 -7 227 -15 265 -18 l67 -6 0 72 0 71
-265 0 -265 0 0 -53z"/>
<path d="M1090 855 l-165 -74 -266 0 -266 -1 -184 -96 c-101 -53 -190 -104
-197 -112 -16 -20 -16 -81 1 -87 6 -2 294 -5 640 -8 l627 -4 0 229 c0 176 -3
228 -12 227 -7 0 -87 -34 -178 -74z"/>
<path d="M53 415 c-3 -9 -3 -51 -1 -94 6 -97 29 -141 133 -246 l74 -75 403 0
402 0 84 84 c47 49 91 104 102 129 38 86 35 217 -4 217 -13 0 -14 -11 -9 -63
8 -90 -14 -135 -109 -220 l-75 -67 -394 0 -394 0 -77 78 c-42 42 -82 88 -89
102 -7 15 -12 55 -11 98 1 58 -2 72 -14 72 -8 0 -17 -7 -21 -15z"/>
<path d="M124 404 c-34 -51 -15 -154 27 -154 46 0 61 118 22 163 -21 23 -30
22 -49 -9z"/>
<path d="M272 423 c-28 -11 -52 -81 -52 -150 1 -187 125 -224 155 -46 18 113
-39 223 -103 196z"/>
<path d="M442 407 c-56 -60 -56 -214 0 -274 27 -29 49 -29 75 -1 58 64 58 212
0 276 -26 28 -48 28 -75 -1z"/>
<path d="M624 413 c-48 -48 -60 -174 -23 -250 50 -104 139 -35 139 109 0 112
-65 191 -116 141z"/>
<path d="M806 411 c-58 -65 -59 -211 -2 -277 53 -62 115 11 116 133 0 124 -62
202 -114 144z"/>
<path d="M1146 408 c-18 -26 -21 -109 -6 -139 12 -22 42 -25 58 -6 28 34 26
122 -4 152 -21 20 -30 19 -48 -7z"/>
<path d="M981 394 c-32 -41 -43 -125 -28 -205 8 -41 47 -89 72 -89 28 0 64 50
75 106 29 138 -55 270 -119 188z"/>
</g>
</svg>
