<?xml version="1.0" standalone="no"?>
<!DOCTYPE svg PUBLIC "-//W3C//DTD SVG 20010904//EN"
 "http://www.w3.org/TR/2001/REC-SVG-20010904/DTD/svg10.dtd">
<svg version="1.0" xmlns="http://www.w3.org/2000/svg"
 width="128.000000pt" height="128.000000pt" viewBox="0 0 128.000000 128.000000"
 preserveAspectRatio="xMidYMid meet">
<g transform="translate(0.000000,128.000000) scale(0.100000,-0.100000)"
fill="#000000" stroke="none">
<path d="M615 1111 c-3 -6 -3 -31 0 -54 7 -42 5 -45 -35 -80 -29 -25 -60 -40
-96 -47 -29 -6 -64 -20 -76 -30 l-23 -18 33 -28 c37 -33 46 -89 15 -97 -10 -3
-39 -10 -65 -17 -86 -22 -97 -66 -27 -107 25 -15 29 -23 27 -52 -3 -30 -8 -35
-43 -46 -63 -18 -85 -34 -85 -59 0 -23 28 -55 68 -75 20 -11 22 -19 22 -91 l0
-80 -40 0 c-39 0 -40 -1 -40 -35 l0 -35 391 0 390 0 -3 33 c-3 29 -6 32 -40
35 l-38 3 0 78 0 77 46 32 c37 27 45 37 42 60 -3 24 -11 30 -65 47 -62 20 -63
21 -63 57 0 31 5 40 34 57 74 46 53 79 -71 111 -40 10 -43 13 -43 43 0 24 8
40 32 61 l33 28 -23 18 c-12 10 -47 24 -76 30 -36 7 -67 22 -95 47 -41 34 -42
38 -39 87 3 46 1 51 -19 54 -11 2 -24 -2 -28 -7z m39 -19 c-1 -7 -2 -21 -2
-32 -1 -11 -6 -20 -11 -20 -10 0 -22 51 -14 63 7 11 28 3 27 -11z m19 -108
l29 -34 -50 0 c-28 0 -59 -3 -69 -7 -12 -4 -6 7 17 34 19 23 37 41 40 41 3 1
18 -15 33 -34z m122 -70 c73 -19 87 -30 60 -50 -18 -13 -20 -13 -23 0 -11 52
-373 52 -384 0 -3 -13 -5 -13 -23 0 -16 12 -17 17 -8 27 36 36 273 51 378 23z
m3 -43 c20 -11 23 -19 20 -59 l-3 -47 -50 5 c-64 6 -163 6 -240 0 l-60 -5 -3
44 c-4 50 3 60 50 72 48 12 259 5 286 -10z m-4 -121 c92 -15 166 -39 173 -57
4 -10 -3 -22 -18 -34 -30 -24 -39 -24 -39 -1 0 45 -258 78 -401 52 -106 -19
-139 -31 -139 -51 0 -24 -12 -24 -41 -1 -27 23 -21 48 17 63 90 33 326 49 448
29z m-69 -50 c50 -6 107 -15 128 -21 l37 -10 0 -60 c0 -48 -3 -60 -14 -56 -8
3 -60 11 -117 18 -79 9 -129 9 -218 0 -64 -7 -125 -13 -136 -14 -18 -2 -20 4
-20 53 l0 55 40 13 c22 7 74 17 115 21 41 5 80 9 85 10 6 0 51 -4 100 -9z
m108 -155 c106 -18 188 -45 195 -63 3 -9 -8 -26 -29 -43 -42 -35 -47 -36 -51
-2 -3 25 -9 29 -78 47 -107 27 -365 27 -465 0 -63 -17 -70 -22 -73 -46 -4 -35
-10 -35 -52 0 -43 37 -36 55 30 77 130 43 373 57 523 30z m7 -70 c107 -23 100
-12 100 -136 l0 -109 -80 0 -79 0 -3 73 c-3 70 -4 72 -30 75 l-28 3 0 -75 c0
-61 -3 -76 -15 -76 -12 0 -15 15 -15 75 l0 75 -50 0 -50 0 0 -75 c0 -60 -3
-75 -15 -75 -12 0 -15 15 -15 76 l0 75 -27 -3 c-27 -3 -28 -5 -31 -75 l-3 -73
-79 0 -80 0 0 109 0 109 33 11 c34 11 129 28 187 35 55 6 209 -4 280 -19z
m-292 -178 c2 -55 0 -67 -13 -67 -12 0 -15 14 -15 71 0 52 3 70 13 67 7 -3 13
-29 15 -71z m127 2 l0 -64 -37 -3 -38 -3 0 64 c0 35 2 66 4 68 2 2 19 4 38 3
l33 -1 0 -64z m85 -5 c0 -50 -3 -64 -15 -64 -12 0 -15 14 -15 63 0 35 3 67 6
70 16 15 24 -9 24 -69z m250 -99 l0 -25 -370 0 -370 0 0 25 0 25 370 0 370 0
0 -25z"/>
</g>
</svg>
