<?xml version="1.0" standalone="no"?>
<!DOCTYPE svg PUBLIC "-//W3C//DTD SVG 20010904//EN"
 "http://www.w3.org/TR/2001/REC-SVG-20010904/DTD/svg10.dtd">
<svg version="1.0" xmlns="http://www.w3.org/2000/svg"
 width="128.000000pt" height="128.000000pt" viewBox="0 0 128.000000 128.000000"
 preserveAspectRatio="xMidYMid meet">
<g transform="translate(0.000000,128.000000) scale(0.100000,-0.100000)"
fill="#000000" stroke="none">
<path d="M508 1211 c-94 -30 -167 -93 -213 -181 -40 -77 -45 -124 -45 -436 l0
-301 48 -49 c26 -27 55 -60 63 -73 14 -23 15 -22 11 17 -5 51 13 188 29 228
12 28 13 25 24 -51 13 -85 44 -195 55 -195 4 0 12 11 18 24 34 74 132 145 201
146 l33 0 -63 -68 c-35 -37 -74 -86 -87 -109 l-22 -41 67 34 c38 19 92 38 122
43 l53 8 -61 -54 c-33 -30 -61 -59 -61 -64 0 -5 43 -9 95 -9 l95 0 0 50 c0 27
-9 72 -20 100 -19 48 -19 50 -2 41 29 -15 102 -99 117 -134 l14 -32 1 59 c0
32 -7 85 -16 118 -8 33 -13 63 -9 66 3 3 19 -8 36 -24 l30 -29 -3 320 c-4 355
-5 361 -74 462 -88 129 -273 186 -436 134z m152 -316 l0 -25 -140 0 -140 0 0
25 0 25 140 0 140 0 0 -25z m240 0 c0 -24 -2 -25 -70 -25 -68 0 -70 1 -70 25
0 24 2 25 70 25 68 0 70 -1 70 -25z m-432 -107 c-2 -19 -10 -24 -45 -26 -40
-3 -43 -1 -43 22 0 24 3 26 46 26 41 0 45 -2 42 -22z m430 0 c-3 -23 -5 -23
-170 -26 l-168 -2 0 25 0 25 171 0 170 0 -3 -22z m-288 -103 l0 -25 -115 0
-115 0 0 25 0 25 115 0 115 0 0 -25z m288 3 c-3 -22 -8 -23 -105 -26 l-103 -3
0 26 0 25 106 0 c104 0 105 0 102 -22z"/>
<path d="M251 153 c-1 -72 -1 -73 25 -73 24 0 26 3 20 31 -3 16 -14 49 -25 72
l-19 42 -1 -72z"/>
</g>
</svg>
