<?xml version="1.0" standalone="no"?>
<!DOCTYPE svg PUBLIC "-//W3C//DTD SVG 20010904//EN"
 "http://www.w3.org/TR/2001/REC-SVG-20010904/DTD/svg10.dtd">
<svg version="1.0" xmlns="http://www.w3.org/2000/svg"
 width="128.000000pt" height="128.000000pt" viewBox="0 0 128.000000 128.000000"
 preserveAspectRatio="xMidYMid meet">
<g transform="translate(0.000000,128.000000) scale(0.100000,-0.100000)"
fill="#000000" stroke="none">
<path d="M25 1255 c-22 -21 -25 -33 -25 -95 0 -113 53 -191 169 -248 l56 -27
415 0 415 0 56 27 c116 57 169 135 169 248 0 62 -3 74 -25 95 -22 23 -32 25
-120 25 l-95 0 0 -80 0 -80 -120 0 -120 0 0 80 0 80 -160 0 -160 0 0 -80 0
-80 -120 0 -120 0 0 80 0 80 -95 0 c-88 0 -98 -2 -120 -25z"/>
<path d="M300 786 c0 -7 -16 -130 -35 -272 -19 -142 -35 -262 -35 -266 0 -5
184 -8 410 -8 226 0 410 3 410 8 0 4 -16 124 -35 266 -19 142 -35 265 -35 272
0 12 -61 14 -340 14 -279 0 -340 -2 -340 -14z"/>
<path d="M173 140 c-20 -12 -44 -42 -63 -80 l-30 -60 561 0 561 0 -34 63 c-56
101 -31 97 -533 97 -410 0 -432 -1 -462 -20z"/>
</g>
</svg>
