<?xml version="1.0" standalone="no"?>
<!DOCTYPE svg PUBLIC "-//W3C//DTD SVG 20010904//EN"
 "http://www.w3.org/TR/2001/REC-SVG-20010904/DTD/svg10.dtd">
<svg version="1.0" xmlns="http://www.w3.org/2000/svg"
 width="128.000000pt" height="128.000000pt" viewBox="0 0 128.000000 128.000000"
 preserveAspectRatio="xMidYMid meet">
<g transform="translate(0.000000,128.000000) scale(0.100000,-0.100000)"
fill="#000000" stroke="none">
<path d="M262 1222 c-33 -5 -46 -30 -111 -224 -33 -98 -74 -205 -91 -239 l-32
-62 4 -158 c2 -100 7 -162 14 -169 25 -25 110 -30 599 -30 525 0 575 3 595 40
5 10 10 86 10 168 l0 149 -35 76 c-19 42 -60 151 -91 242 -31 91 -65 176 -74
188 -18 22 -19 22 -392 23 -205 0 -383 -1 -396 -4z m790 -240 c28 -79 47 -146
43 -150 -3 -4 -213 -9 -466 -10 l-459 -4 50 144 c28 78 52 149 55 156 3 10 82
12 366 10 l361 -3 50 -143z m-811 -280 c26 -24 32 -36 33 -73 2 -78 -54 -132
-110 -107 -72 33 -72 169 0 198 34 14 44 12 77 -18z m907 -8 c41 -47 23 -147
-32 -172 -56 -25 -112 29 -110 107 1 37 6 49 34 74 38 34 72 31 108 -9z"/>
<path d="M110 190 c0 -137 2 -140 89 -140 75 0 81 10 81 146 l0 114 -85 0 -85
0 0 -120z"/>
<path d="M1001 195 c3 -71 9 -119 16 -126 7 -7 37 -14 67 -17 45 -4 57 -1 75
17 19 19 21 32 21 131 l0 110 -91 0 -91 0 3 -115z"/>
</g>
</svg>
