<?xml version="1.0" standalone="no"?>
<!DOCTYPE svg PUBLIC "-//W3C//DTD SVG 20010904//EN"
 "http://www.w3.org/TR/2001/REC-SVG-20010904/DTD/svg10.dtd">
<svg version="1.0" xmlns="http://www.w3.org/2000/svg"
 width="128.000000pt" height="128.000000pt" viewBox="0 0 128.000000 128.000000"
 preserveAspectRatio="xMidYMid meet">
<g transform="translate(0.000000,128.000000) scale(0.100000,-0.100000)"
fill="#000000" stroke="none">
<path d="M68 1254 c-59 -31 -58 -22 -58 -625 l0 -551 34 -34 34 -34 556 0
c378 0 563 3 579 11 13 6 31 23 40 39 15 25 17 83 17 577 0 530 -1 549 -20
581 -11 18 -32 37 -46 42 -15 6 -238 10 -567 10 -460 -1 -546 -3 -569 -16z
m655 -42 c24 -21 22 -77 -3 -102 -43 -43 -123 -12 -123 48 0 69 72 101 126 54z
m-189 -116 c45 -53 47 -54 88 -49 24 3 55 12 70 19 72 37 110 2 143 -126 37
-143 36 -151 -32 -199 l-56 -41 53 0 c57 0 90 -19 90 -50 0 -31 -24 -39 -151
-46 -120 -6 -127 -6 -148 15 -36 36 -27 63 43 129 l64 60 -20 81 -20 81 -58 0
-58 0 -56 67 c-59 71 -63 82 -44 101 23 23 46 12 92 -42z m701 -776 l0 -230
-590 0 -590 0 0 230 0 230 590 0 590 0 0 -230z"/>
</g>
</svg>
