<?xml version="1.0" standalone="no"?>
<!DOCTYPE svg PUBLIC "-//W3C//DTD SVG 20010904//EN"
 "http://www.w3.org/TR/2001/REC-SVG-20010904/DTD/svg10.dtd">
<svg version="1.0" xmlns="http://www.w3.org/2000/svg"
 width="128.000000pt" height="128.000000pt" viewBox="0 0 128.000000 128.000000"
 preserveAspectRatio="xMidYMid meet">
<g transform="translate(0.000000,128.000000) scale(0.100000,-0.100000)"
fill="#000000" stroke="none">
<path d="M497 1274 c-4 -4 -7 -30 -7 -59 0 -46 -3 -52 -31 -69 -17 -10 -46
-40 -66 -67 l-35 -49 -109 0 -110 0 3 -132 3 -133 106 -5 107 -5 46 -52 c26
-29 56 -55 66 -58 19 -6 20 -19 22 -323 l3 -317 130 0 130 0 3 312 2 312 38
27 c20 15 49 44 64 65 l28 39 104 0 c76 0 107 4 115 14 8 9 11 54 9 132 l-3
119 -107 3 -106 3 -27 35 c-15 19 -46 49 -69 65 -38 28 -41 34 -46 87 l-5 57
-126 3 c-69 1 -128 -1 -132 -4z"/>
<path d="M964 566 c-46 -46 -48 -101 -5 -148 25 -28 36 -33 76 -33 40 0 51 5
76 33 43 47 41 102 -5 148 -47 47 -95 47 -142 0z"/>
<path d="M182 445 c-70 -30 -52 -136 25 -151 27 -5 37 -1 63 24 35 35 38 69
10 104 -24 31 -59 39 -98 23z"/>
<path d="M842 237 c-30 -32 -29 -87 1 -115 50 -47 137 -10 137 58 0 69 -91
107 -138 57z"/>
</g>
</svg>
