<?xml version="1.0" standalone="no"?>
<!DOCTYPE svg PUBLIC "-//W3C//DTD SVG 20010904//EN"
 "http://www.w3.org/TR/2001/REC-SVG-20010904/DTD/svg10.dtd">
<svg version="1.0" xmlns="http://www.w3.org/2000/svg"
 width="128.000000pt" height="128.000000pt" viewBox="0 0 128.000000 128.000000"
 preserveAspectRatio="xMidYMid meet">
<g transform="translate(0.000000,128.000000) scale(0.100000,-0.100000)"
fill="#000000" stroke="none">
<path d="M1056 1106 l-60 -53 28 -36 28 -37 59 53 c32 28 59 57 59 63 0 5 -12
22 -27 37 l-28 26 -59 -53z"/>
<path d="M808 1082 c-31 -26 -57 -51 -57 -55 -1 -4 16 -25 37 -47 l37 -40 62
52 62 51 -37 43 c-20 24 -39 44 -42 44 -3 0 -31 -22 -62 -48z"/>
<path d="M953 824 c-164 -152 -309 -287 -322 -299 l-24 -23 41 -21 c58 -30 80
-27 141 19 42 32 61 40 95 40 48 0 79 -15 58 -28 -23 -15 66 -65 123 -69 55
-4 115 23 115 52 0 20 -7 19 -56 -7 -44 -23 -69 -21 -120 11 l-31 19 82 84
c87 89 128 156 164 269 21 67 46 217 38 226 -3 2 -139 -120 -304 -273z"/>
<path d="M896 973 c-31 -26 -56 -50 -56 -53 1 -3 14 -20 30 -39 l28 -33 29 20
c15 11 43 36 62 56 l35 36 -29 30 c-16 16 -32 30 -36 30 -4 0 -32 -21 -63 -47z"/>
<path d="M652 950 l-61 -53 18 -26 c10 -14 28 -34 40 -45 20 -18 21 -18 69 22
76 64 75 61 33 110 l-37 44 -62 -52z"/>
<path d="M197 877 l-48 -42 128 -157 c117 -144 130 -157 153 -150 14 4 49 7
77 7 52 0 55 2 135 75 l81 76 -79 96 c-90 110 -70 108 -182 11 l-60 -53 -73
90 c-41 49 -76 90 -79 90 -3 0 -27 -19 -53 -43z"/>
<path d="M738 837 l-57 -52 34 -39 35 -39 57 53 c32 30 60 55 62 57 5 4 -60
73 -68 73 -4 0 -32 -24 -63 -53z"/>
<path d="M60 528 c-19 -13 -35 -29 -38 -35 -5 -18 33 -16 48 2 22 26 91 19
143 -16 31 -21 53 -28 67 -24 27 9 25 18 -7 33 -16 6 -48 23 -72 37 -55 31
-98 32 -141 3z"/>
<path d="M342 504 c-12 -8 -22 -19 -22 -25 0 -14 23 -11 46 5 28 22 6 41 -24
20z"/>
<path d="M434 499 c-3 -6 0 -17 8 -25 12 -12 17 -11 38 11 l23 25 -31 0 c-17
0 -34 -5 -38 -11z"/>
<path d="M798 480 c-42 -35 -92 -53 -123 -44 -11 3 -41 14 -67 26 l-47 21
-125 -114 c-68 -63 -123 -118 -122 -124 2 -5 30 -34 64 -62 95 -81 86 -84 329
129 115 99 208 184 208 187 0 3 -18 7 -40 9 -32 2 -47 -3 -77 -28z"/>
<path d="M382 438 c-6 -6 -36 -12 -66 -12 -79 -1 -87 -14 -40 -70 21 -26 41
-45 45 -44 4 2 33 27 64 56 45 43 54 57 44 68 -14 17 -31 18 -47 2z"/>
</g>
</svg>
