<?xml version="1.0" standalone="no"?>
<!DOCTYPE svg PUBLIC "-//W3C//DTD SVG 20010904//EN"
 "http://www.w3.org/TR/2001/REC-SVG-20010904/DTD/svg10.dtd">
<svg version="1.0" xmlns="http://www.w3.org/2000/svg"
 width="128.000000pt" height="128.000000pt" viewBox="0 0 128.000000 128.000000"
 preserveAspectRatio="xMidYMid meet">
<g transform="translate(0.000000,128.000000) scale(0.100000,-0.100000)"
fill="#000000" stroke="none">
<path d="M307 1112 l-307 -155 0 -89 c0 -48 1 -88 3 -88 2 0 31 11 65 25 34
14 64 25 67 25 3 0 5 -187 5 -415 l0 -415 65 0 65 0 2 447 3 447 115 49 c63
27 145 61 182 77 l68 29 180 -77 180 -77 0 -447 0 -448 70 0 70 0 0 415 c0
228 1 415 3 415 2 0 31 -11 65 -25 34 -14 64 -25 67 -25 3 0 5 39 5 88 l0 87
-315 158 c-173 86 -323 157 -333 156 -9 -1 -155 -71 -325 -157z"/>
<path d="M613 810 c-43 -18 -55 -68 -23 -100 39 -39 110 -11 110 44 0 15 -11
33 -26 45 -30 23 -30 23 -61 11z"/>
<path d="M417 609 c-14 -57 -22 -108 -18 -112 4 -4 24 -10 43 -13 l35 -6 26
103 c14 57 22 108 18 112 -4 4 -24 10 -43 13 l-35 6 -26 -103z"/>
<path d="M576 661 c-10 -11 -31 -73 -48 -138 -49 -194 -108 -455 -108 -478 0
-46 49 -61 74 -23 8 13 29 87 47 165 19 79 36 143 39 143 3 0 21 -64 39 -142
18 -79 39 -153 47 -165 24 -39 74 -24 74 21 0 12 -23 115 -50 231 -30 132 -45
214 -39 219 6 6 9 4 9 -7 0 -18 61 -39 120 -41 31 -1 35 2 35 23 0 21 -7 27
-46 36 -63 17 -66 19 -74 68 -4 23 -13 54 -21 68 -22 43 -69 52 -98 20z"/>
<path d="M886 602 c-6 -10 -64 -317 -92 -484 -10 -59 -15 -111 -11 -115 13
-12 22 12 36 94 7 43 30 170 52 282 21 113 39 211 39 218 0 15 -16 18 -24 5z"/>
</g>
</svg>
