<?xml version="1.0" standalone="no"?>
<!DOCTYPE svg PUBLIC "-//W3C//DTD SVG 20010904//EN"
 "http://www.w3.org/TR/2001/REC-SVG-20010904/DTD/svg10.dtd">
<svg version="1.0" xmlns="http://www.w3.org/2000/svg"
 width="128.000000pt" height="128.000000pt" viewBox="0 0 128.000000 128.000000"
 preserveAspectRatio="xMidYMid meet">
<g transform="translate(0.000000,128.000000) scale(0.100000,-0.100000)"
fill="#000000" stroke="none">
<path d="M0 1185 l0 -95 638 2 637 3 0 90 0 90 -637 3 -638 2 0 -95z"/>
<path d="M12 988 c-9 -9 -12 -104 -12 -365 l0 -353 45 0 44 0 3 93 3 92 542 3
542 2 3 -92 3 -93 45 0 45 0 3 257 c2 223 0 258 -14 272 -22 22 -50 20 -68 -6
-12 -17 -16 -49 -16 -135 l0 -113 -545 0 -545 0 0 213 c0 224 -3 237 -45 237
-12 0 -26 -5 -33 -12z"/>
<path d="M270 903 c-31 -12 -71 -58 -80 -93 -30 -110 88 -208 188 -156 123 63
91 243 -45 252 -26 2 -55 1 -63 -3z"/>
<path d="M550 730 l0 -90 270 0 c298 0 285 -3 256 63 -17 39 -71 92 -109 106
-16 7 -110 11 -223 11 l-194 0 0 -90z"/>
<path d="M0 90 l0 -90 640 0 640 0 0 90 0 90 -640 0 -640 0 0 -90z"/>
</g>
</svg>
