<?xml version="1.0" standalone="no"?>
<!DOCTYPE svg PUBLIC "-//W3C//DTD SVG 20010904//EN"
 "http://www.w3.org/TR/2001/REC-SVG-20010904/DTD/svg10.dtd">
<svg version="1.0" xmlns="http://www.w3.org/2000/svg"
 width="128.000000pt" height="128.000000pt" viewBox="0 0 128.000000 128.000000"
 preserveAspectRatio="xMidYMid meet">
<g transform="translate(0.000000,128.000000) scale(0.100000,-0.100000)"
fill="#000000" stroke="none">
<path d="M765 1140 c-16 -5 -59 -15 -95 -23 -115 -27 -176 -61 -204 -115 -18
-36 -29 -133 -17 -152 9 -12 12 -12 28 1 10 9 39 27 64 41 40 22 49 23 64 11
19 -13 87 -18 98 -6 4 3 2 12 -4 19 -20 24 37 37 100 25 85 -17 150 -59 167
-106 13 -40 40 -68 57 -62 6 2 15 18 21 37 10 32 16 36 74 49 47 11 62 19 60
30 -5 24 -48 41 -102 41 -47 0 -52 3 -126 74 -43 41 -94 80 -114 87 -32 12
-51 39 -26 39 6 0 10 5 10 10 0 11 -13 11 -55 0z m-235 -165 c15 -18 5 -35
-21 -35 -12 0 -19 7 -19 18 0 33 20 42 40 17z"/>
<path d="M185 716 c-79 -25 -85 -31 -85 -90 0 -230 208 -453 456 -487 259 -36
512 137 579 396 18 72 20 142 2 148 -6 2 -32 -7 -57 -20 -59 -32 -104 -26
-177 24 -51 35 -61 38 -122 38 -67 0 -74 -2 -176 -61 -74 -42 -135 -40 -207 8
-85 56 -139 67 -213 44z m666 -147 c44 -14 109 -64 109 -85 0 -28 -30 -26 -74
7 -64 45 -109 44 -205 -4 -89 -44 -146 -48 -221 -16 -47 20 -66 41 -54 60 8
14 31 11 74 -11 56 -29 94 -25 190 20 90 42 120 47 181 29z m-497 -175 c42
-24 53 -25 117 -19 80 8 119 -3 144 -42 33 -49 -10 -74 -47 -28 -20 25 -23 26
-102 19 -75 -6 -86 -4 -133 20 -57 28 -68 40 -59 61 8 21 27 19 80 -11z m514
6 c31 -14 43 -25 40 -37 -3 -13 -11 -17 -33 -15 -54 6 -119 5 -147 -3 -24 -6
-28 -4 -28 13 0 23 18 40 57 52 44 13 65 11 111 -10z"/>
</g>
</svg>
