<?xml version="1.0" standalone="no"?>
<!DOCTYPE svg PUBLIC "-//W3C//DTD SVG 20010904//EN"
 "http://www.w3.org/TR/2001/REC-SVG-20010904/DTD/svg10.dtd">
<svg version="1.0" xmlns="http://www.w3.org/2000/svg"
 width="128.000000pt" height="128.000000pt" viewBox="0 0 128.000000 128.000000"
 preserveAspectRatio="xMidYMid meet">
<g transform="translate(0.000000,128.000000) scale(0.100000,-0.100000)"
fill="#000000" stroke="none">
<path d="M370 1270 c0 -6 21 -48 46 -95 45 -84 46 -85 85 -85 21 0 39 -2 39
-5 0 -3 -19 -43 -42 -90 l-42 -85 45 -92 46 -91 -46 -88 -46 -88 46 -93 47
-93 -44 -85 c-24 -47 -43 -88 -43 -92 -1 -5 78 -8 174 -8 133 0 175 3 175 13
0 6 -18 48 -41 91 l-41 80 47 91 47 91 -46 92 -46 92 45 90 45 90 -45 90 -45
90 44 0 45 0 45 90 c25 49 46 92 46 95 0 3 -121 5 -270 5 -175 0 -270 -4 -270
-10z m331 -296 c35 -37 33 -98 -4 -130 -39 -33 -81 -31 -118 5 -21 21 -29 39
-29 64 0 78 97 118 151 61z m-26 -346 c29 -13 55 -55 55 -87 0 -11 -12 -33
-26 -50 -72 -86 -202 16 -138 107 27 39 67 50 109 30z"/>
<path d="M270 45 l0 -45 365 0 365 0 0 45 0 45 -365 0 -365 0 0 -45z"/>
</g>
</svg>
