<?xml version="1.0" standalone="no"?>
<!DOCTYPE svg PUBLIC "-//W3C//DTD SVG 20010904//EN"
 "http://www.w3.org/TR/2001/REC-SVG-20010904/DTD/svg10.dtd">
<svg version="1.0" xmlns="http://www.w3.org/2000/svg"
 width="128.000000pt" height="128.000000pt" viewBox="0 0 128.000000 128.000000"
 preserveAspectRatio="xMidYMid meet">
<g transform="translate(0.000000,128.000000) scale(0.100000,-0.100000)"
fill="#000000" stroke="none">
<path d="M320 1130 c0 -36 -28 -90 -52 -99 -13 -6 -44 -13 -70 -16 -27 -3 -48
-10 -48 -15 0 -6 23 -21 50 -35 28 -14 50 -31 50 -39 0 -37 -98 -76 -190 -76
-45 0 -60 -4 -60 -14 0 -21 58 -66 93 -73 l30 -6 -7 -166 c-11 -288 -17 -341
-35 -341 -13 0 -15 -10 -13 -60 l4 -60 574 0 574 0 0 61 c0 52 -3 62 -19 66
-22 6 -27 40 -36 258 -3 77 -8 161 -11 187 l-6 47 50 21 c55 24 88 53 77 69
-3 6 -27 11 -53 11 -68 1 -173 39 -183 67 -7 20 -3 26 39 45 26 13 48 31 50
41 3 14 -5 17 -50 17 -69 0 -93 17 -109 80 -13 49 -22 60 -34 40 -8 -14 -582
-14 -590 0 -11 17 -25 11 -25 -10z m555 -127 c8 -32 42 -73 62 -73 21 0 15
-17 -9 -24 -30 -8 -536 -8 -565 0 -30 8 -29 16 7 36 17 10 37 33 46 53 l14 35
219 0 219 0 7 -27z m-166 -410 c21 -17 22 -26 22 -178 l0 -160 -90 -3 -91 -3
0 150 c0 146 1 150 26 180 21 26 33 31 69 31 26 0 51 -7 64 -17z m-281 -43
c21 -19 22 -30 22 -155 l0 -135 -90 0 -90 0 0 134 c0 133 0 135 26 155 36 28
102 28 132 1z m529 9 c15 -5 31 -16 35 -22 4 -7 8 -74 8 -150 l0 -138 -87 3
-88 3 -3 134 c-3 139 1 155 43 171 28 12 59 12 92 -1z"/>
</g>
</svg>
