<?xml version="1.0" standalone="no"?>
<!DOCTYPE svg PUBLIC "-//W3C//DTD SVG 20010904//EN"
 "http://www.w3.org/TR/2001/REC-SVG-20010904/DTD/svg10.dtd">
<svg version="1.0" xmlns="http://www.w3.org/2000/svg"
 width="128.000000pt" height="128.000000pt" viewBox="0 0 128.000000 128.000000"
 preserveAspectRatio="xMidYMid meet">
<g transform="translate(0.000000,128.000000) scale(0.100000,-0.100000)"
fill="#000000" stroke="none">
<path d="M551 1254 c-119 -59 -251 -259 -381 -574 -41 -101 -140 -386 -140
-404 0 -3 275 -6 610 -6 501 0 610 2 610 13 0 8 -15 69 -34 138 -99 360 -233
629 -381 768 -100 93 -187 113 -284 65z m146 -346 c48 -52 143 -297 143 -368
l0 -30 -195 0 -195 0 0 41 c0 91 79 299 134 354 33 33 84 34 113 3z"/>
<path d="M17 112 c-22 -25 -21 -75 1 -95 17 -15 75 -17 630 -17 594 0 612 1
622 19 16 30 12 76 -8 94 -17 15 -75 17 -624 17 -573 0 -606 -1 -621 -18z"/>
</g>
</svg>
