<?xml version="1.0" standalone="no"?>
<!DOCTYPE svg PUBLIC "-//W3C//DTD SVG 20010904//EN"
 "http://www.w3.org/TR/2001/REC-SVG-20010904/DTD/svg10.dtd">
<svg version="1.0" xmlns="http://www.w3.org/2000/svg"
 width="128.000000pt" height="128.000000pt" viewBox="0 0 128.000000 128.000000"
 preserveAspectRatio="xMidYMid meet">
<g transform="translate(0.000000,128.000000) scale(0.100000,-0.100000)"
fill="#000000" stroke="none">
<path d="M617 1188 c-9 -7 -108 -161 -219 -343 -191 -309 -206 -330 -237 -336
-59 -12 -76 -39 -76 -123 0 -65 3 -78 24 -100 l24 -26 507 0 507 0 24 26 c21
22 24 35 24 100 0 84 -17 111 -76 123 -31 6 -46 27 -237 336 -182 297 -222
355 -242 355 -3 0 -14 -6 -23 -12z m151 -462 c67 -112 122 -207 122 -210 0 -3
-112 -6 -250 -6 -137 0 -250 3 -250 6 0 10 244 414 250 414 3 0 61 -92 128
-204z"/>
</g>
</svg>
