<?xml version="1.0" standalone="no"?>
<!DOCTYPE svg PUBLIC "-//W3C//DTD SVG 20010904//EN"
 "http://www.w3.org/TR/2001/REC-SVG-20010904/DTD/svg10.dtd">
<svg version="1.0" xmlns="http://www.w3.org/2000/svg"
 width="128.000000pt" height="128.000000pt" viewBox="0 0 128.000000 128.000000"
 preserveAspectRatio="xMidYMid meet">
<g transform="translate(0.000000,128.000000) scale(0.100000,-0.100000)"
fill="#000000" stroke="none">
<path d="M161 1106 c-49 -27 -50 -35 -51 -436 0 -280 3 -379 12 -388 8 -8 52
-12 133 -12 l122 0 18 -39 c73 -162 302 -161 386 1 l19 38 215 0 215 0 0 50 0
50 -55 0 -55 0 0 208 0 209 -29 39 c-33 45 -244 253 -281 278 -21 14 -63 16
-325 16 -230 -1 -306 -4 -324 -14z m587 -358 l3 -158 -216 0 -215 0 0 160 0
160 213 -2 212 -3 3 -157z m-124 -332 c93 -39 87 -164 -8 -196 -64 -21 -136
33 -136 100 0 36 30 81 63 95 40 18 41 18 81 1z"/>
<path d="M430 745 l0 -55 105 0 105 0 0 55 0 55 -105 0 -105 0 0 -55z"/>
</g>
</svg>
