<?xml version="1.0" standalone="no"?>
<!DOCTYPE svg PUBLIC "-//W3C//DTD SVG 20010904//EN"
 "http://www.w3.org/TR/2001/REC-SVG-20010904/DTD/svg10.dtd">
<svg version="1.0" xmlns="http://www.w3.org/2000/svg"
 width="128.000000pt" height="128.000000pt" viewBox="0 0 128.000000 128.000000"
 preserveAspectRatio="xMidYMid meet">
<g transform="translate(0.000000,128.000000) scale(0.100000,-0.100000)"
fill="#000000" stroke="none">
<path d="M197 1037 c-120 -109 -183 -173 -173 -175 14 -3 16 -40 18 -305 l3
-302 118 -3 117 -3 0 171 0 170 105 0 105 0 0 -125 0 -124 -32 -38 c-18 -21
-66 -75 -106 -121 -40 -46 -72 -88 -69 -95 4 -14 975 -23 989 -9 5 5 -14 62
-41 128 -28 65 -99 236 -159 379 -65 156 -114 261 -123 263 -12 2 -82 -71
-196 -207 l-22 -26 -1 123 c0 102 2 122 15 122 8 0 15 3 14 8 -1 6 -246 231
-337 309 l-37 31 -188 -171z"/>
</g>
</svg>
