<?xml version="1.0" standalone="no"?>
<!DOCTYPE svg PUBLIC "-//W3C//DTD SVG 20010904//EN"
 "http://www.w3.org/TR/2001/REC-SVG-20010904/DTD/svg10.dtd">
<svg version="1.0" xmlns="http://www.w3.org/2000/svg"
 width="128.000000pt" height="128.000000pt" viewBox="0 0 128.000000 128.000000"
 preserveAspectRatio="xMidYMid meet">
<g transform="translate(0.000000,128.000000) scale(0.100000,-0.100000)"
fill="#000000" stroke="none">
<path d="M0 790 l0 -490 488 2 487 3 0 485 0 485 -487 3 -488 2 0 -490z m900
110 l0 -300 -28 0 c-24 0 -41 18 -122 124 l-95 124 -46 -44 -45 -44 -80 139
c-43 77 -83 139 -88 138 -5 -2 -67 -100 -138 -218 -117 -196 -130 -214 -155
-214 l-28 0 -3 298 -2 297 415 0 415 0 0 -300z m-430 -127 c40 -71 74 -130 77
-132 2 -3 25 17 52 43 l48 47 47 -58 c25 -32 46 -61 46 -65 0 -5 -117 -8 -261
-8 -143 0 -259 4 -257 8 5 14 171 292 174 292 1 0 34 -57 74 -127z m430 -318
l0 -75 -415 0 -415 0 0 68 c0 38 3 72 7 75 3 4 190 7 415 7 l408 0 0 -75z"/>
<path d="M1050 1015 l0 -35 75 0 75 0 0 -415 0 -415 -410 0 -410 0 0 35 c0 34
-1 35 -40 35 l-41 0 3 -72 3 -73 485 0 485 0 3 488 2 487 -115 0 -115 0 0 -35z"/>
</g>
</svg>
