<?xml version="1.0" standalone="no"?>
<!DOCTYPE svg PUBLIC "-//W3C//DTD SVG 20010904//EN"
 "http://www.w3.org/TR/2001/REC-SVG-20010904/DTD/svg10.dtd">
<svg version="1.0" xmlns="http://www.w3.org/2000/svg"
 width="128.000000pt" height="128.000000pt" viewBox="0 0 128.000000 128.000000"
 preserveAspectRatio="xMidYMid meet">
<g transform="translate(0.000000,128.000000) scale(0.100000,-0.100000)"
fill="#000000" stroke="none">
<path d="M363 931 c-65 -41 -73 -113 -19 -167 70 -70 175 -26 176 73 0 85 -87
137 -157 94z"/>
<path d="M60 881 c-6 -13 -10 -163 -10 -420 0 -350 2 -402 16 -415 20 -21 37
-20 57 2 13 15 17 39 17 115 l0 97 435 0 435 0 6 25 c14 56 19 55 -447 55
l-429 0 0 55 0 55 460 0 c512 0 508 0 536 -65 10 -25 14 -77 14 -183 0 -166 7
-186 55 -164 l25 12 0 165 c0 180 -8 215 -58 268 -49 51 -95 57 -433 57 l-306
0 -5 50 c-4 35 -13 59 -29 76 -41 44 -71 54 -169 54 l-90 0 0 74 c0 54 -4 79
-16 90 -21 22 -51 20 -64 -3z m271 -270 c10 -13 19 -34 19 -47 0 -24 -1 -24
-105 -24 l-105 0 0 51 0 51 86 -3 c76 -4 88 -7 105 -28z"/>
<path d="M501 741 c-29 -29 -17 -48 66 -105 l68 -46 225 2 225 3 3 23 c7 49
-5 52 -220 52 l-199 0 -59 40 c-79 53 -85 55 -109 31z"/>
</g>
</svg>
