<?xml version="1.0" standalone="no"?>
<!DOCTYPE svg PUBLIC "-//W3C//DTD SVG 20010904//EN"
 "http://www.w3.org/TR/2001/REC-SVG-20010904/DTD/svg10.dtd">
<svg version="1.0" xmlns="http://www.w3.org/2000/svg"
 width="128.000000pt" height="128.000000pt" viewBox="0 0 128.000000 128.000000"
 preserveAspectRatio="xMidYMid meet">
<g transform="translate(0.000000,128.000000) scale(0.100000,-0.100000)"
fill="#000000" stroke="none">
<path d="M16 1264 c-14 -14 -16 -86 -16 -640 l0 -624 45 0 45 0 0 90 0 90 545
0 545 0 0 -90 0 -90 50 0 50 0 0 526 c0 343 -4 532 -10 545 -13 23 -53 25 -74
3 -13 -12 -16 -40 -16 -135 l0 -119 -545 0 -545 0 0 214 c0 182 -2 217 -16
230 -8 9 -22 16 -29 16 -7 0 -21 -7 -29 -16z m1164 -764 l0 -230 -542 2 -543
3 -3 228 -2 227 545 0 545 0 0 -230z"/>
<path d="M264 626 c-68 -30 -97 -109 -66 -180 60 -134 255 -88 255 60 0 53
-22 88 -73 114 -45 23 -73 25 -116 6z"/>
<path d="M550 456 l0 -96 270 0 270 0 0 23 c0 36 -42 99 -88 132 l-44 30 -204
3 -204 3 0 -95z"/>
<path d="M244 1161 c-20 -12 -38 -36 -49 -64 -53 -140 114 -247 221 -141 41
41 48 93 23 156 -25 62 -130 88 -195 49z"/>
<path d="M550 1000 l0 -90 270 0 c265 0 270 0 270 20 0 41 -40 101 -87 131
l-47 29 -203 0 -203 0 0 -90z"/>
</g>
</svg>
