<?xml version="1.0" standalone="no"?>
<!DOCTYPE svg PUBLIC "-//W3C//DTD SVG 20010904//EN"
 "http://www.w3.org/TR/2001/REC-SVG-20010904/DTD/svg10.dtd">
<svg version="1.0" xmlns="http://www.w3.org/2000/svg"
 width="128.000000pt" height="128.000000pt" viewBox="0 0 128.000000 128.000000"
 preserveAspectRatio="xMidYMid meet">
<g transform="translate(0.000000,128.000000) scale(0.100000,-0.100000)"
fill="#000000" stroke="none">
<path d="M369 1074 c-10 -12 -10 -23 -2 -44 10 -26 7 -31 -31 -69 -48 -47 -72
-52 -86 -16 -10 27 -47 35 -56 12 -16 -42 44 -97 106 -97 l30 0 0 -70 c0 -63
-2 -70 -20 -70 -12 0 -26 12 -35 30 -18 34 -27 37 -45 15 -11 -13 -10 -22 4
-52 l17 -36 -32 -33 c-38 -40 -64 -43 -80 -11 -16 30 -31 38 -46 25 -35 -29
12 -98 67 -98 l30 0 0 -155 0 -155 -44 0 c-51 0 -76 -20 -56 -45 11 -13 84
-15 550 -15 466 0 539 2 550 15 20 25 -5 45 -56 45 l-44 0 0 155 0 155 30 0
c55 0 102 69 67 98 -15 13 -30 5 -46 -25 -16 -31 -29 -29 -72 13 -37 37 -37
37 -22 70 13 27 14 36 3 49 -18 22 -27 19 -45 -15 -9 -18 -23 -30 -35 -30 -18
0 -20 7 -20 69 l0 68 46 6 c54 6 84 31 87 73 2 23 -2 30 -20 32 -17 3 -26 -3
-33 -22 -13 -36 -29 -33 -78 17 -36 37 -42 48 -36 71 7 29 -10 58 -30 50 -7
-3 -18 -16 -24 -30 l-12 -24 -210 0 -210 0 -12 24 c-14 32 -33 39 -49 20z
m516 -124 l29 -30 -269 0 -269 0 29 30 29 30 211 0 211 0 29 -30z m-437 -157
c-3 -66 -4 -68 -30 -71 l-28 -3 0 70 0 71 30 0 31 0 -3 -67z m332 -3 l0 -70
-140 0 -140 0 0 70 0 70 140 0 140 0 0 -70z m110 -1 l0 -70 -27 3 c-27 3 -28
5 -31 71 l-3 67 31 0 30 0 0 -71z m105 -149 l29 -30 -384 0 -384 0 29 30 29
30 326 0 326 0 29 -30z m-687 -237 l3 -153 -31 0 -30 0 0 156 0 155 28 -3 27
-3 3 -152z m612 2 l0 -155 -57 0 -58 1 -20 42 c-11 23 -34 51 -52 62 -22 13
-30 25 -26 35 3 8 8 31 10 50 4 28 -1 40 -21 59 -54 51 -142 12 -133 -59 2
-19 7 -42 10 -50 4 -10 -4 -22 -26 -35 -18 -11 -41 -39 -52 -62 l-20 -42 -57
-1 -58 0 0 155 0 155 280 0 280 0 0 -155z m110 0 l0 -155 -27 0 -28 0 2 152
c1 84 3 154 3 156 0 1 11 2 25 2 l25 0 0 -155z m-363 49 c3 -8 -2 -23 -11 -32
-15 -15 -17 -15 -32 0 -21 21 -11 48 16 48 11 0 23 -7 27 -16z m52 -161 l36
-38 -57 -3 c-32 -2 -84 -2 -115 0 l-58 3 37 38 c30 31 43 37 78 37 35 0 48 -6
79 -37z"/>
</g>
</svg>
