<?xml version="1.0" standalone="no"?>
<!DOCTYPE svg PUBLIC "-//W3C//DTD SVG 20010904//EN"
 "http://www.w3.org/TR/2001/REC-SVG-20010904/DTD/svg10.dtd">
<svg version="1.0" xmlns="http://www.w3.org/2000/svg"
 width="128.000000pt" height="128.000000pt" viewBox="0 0 128.000000 128.000000"
 preserveAspectRatio="xMidYMid meet">
<g transform="translate(0.000000,128.000000) scale(0.100000,-0.100000)"
fill="#000000" stroke="none">
<path d="M16 1264 c-14 -13 -16 -52 -16 -275 l0 -259 45 0 45 0 0 45 0 45 544
0 545 0 3 -42 3 -43 48 -3 47 -3 0 206 c0 123 -4 214 -10 226 -14 26 -66 26
-80 0 -5 -11 -10 -72 -10 -135 l0 -116 -545 0 -545 0 0 169 c0 141 -3 172 -16
185 -8 9 -22 16 -29 16 -7 0 -21 -7 -29 -16z"/>
<path d="M273 1269 c-38 -11 -69 -47 -84 -99 -10 -31 -8 -44 9 -83 59 -132
255 -92 255 53 0 54 -28 99 -76 121 -46 21 -57 21 -104 8z"/>
<path d="M550 1090 l0 -90 270 0 c265 0 270 0 270 20 0 27 -32 90 -56 111 -51
45 -74 49 -284 49 l-200 0 0 -90z"/>
<path d="M320 595 c-37 -112 -48 -137 -66 -141 -12 -3 -33 -17 -46 -31 -22
-24 -23 -31 -23 -176 l0 -152 42 -3 c35 -3 43 -7 53 -33 16 -37 46 -59 83 -59
41 0 67 17 83 56 l14 34 180 0 c157 0 180 -2 180 -16 0 -8 13 -29 29 -45 39
-39 92 -40 126 -3 14 15 25 35 25 45 0 16 8 19 45 19 l45 0 0 154 c0 139 -2
156 -20 179 -11 14 -30 27 -43 29 -19 3 -29 23 -68 138 l-46 135 -274 3 -275
2 -44 -135z m525 -38 c14 -46 25 -86 25 -90 0 -4 -106 -7 -235 -7 -129 0 -235
1 -235 3 0 3 44 136 55 165 3 9 49 12 184 12 l180 0 26 -83z m-437 -233 c27
-18 30 -69 5 -96 -36 -40 -113 -12 -113 41 0 61 57 91 108 55z m552 -6 c40
-43 11 -108 -48 -108 -60 0 -88 56 -52 103 27 34 71 36 100 5z"/>
</g>
</svg>
