<?xml version="1.0" standalone="no"?>
<!DOCTYPE svg PUBLIC "-//W3C//DTD SVG 20010904//EN"
 "http://www.w3.org/TR/2001/REC-SVG-20010904/DTD/svg10.dtd">
<svg version="1.0" xmlns="http://www.w3.org/2000/svg"
 width="128.000000pt" height="128.000000pt" viewBox="0 0 128.000000 128.000000"
 preserveAspectRatio="xMidYMid meet">
<g transform="translate(0.000000,128.000000) scale(0.100000,-0.100000)"
fill="#000000" stroke="none">
<path d="M355 1091 l-260 -87 -3 -47 -3 -47 545 0 546 0 0 48 0 47 -263 88
c-144 48 -271 87 -282 86 -11 0 -137 -40 -280 -88z"/>
<path d="M90 775 l0 -45 45 0 45 0 0 -230 0 -230 -45 0 -45 0 -45 -90 -45 -90
635 0 c449 0 635 3 635 11 0 6 -19 46 -42 89 l-43 79 -45 3 -45 3 0 225 0 225
43 3 42 3 0 45 0 44 -545 0 -545 0 0 -45z m426 -79 l34 -34 -2 -194 -3 -193
-90 0 -90 0 0 196 c0 183 1 199 20 219 44 49 86 51 131 6z m344 19 c16 -8 34
-24 40 -34 6 -12 10 -100 10 -215 l0 -196 -90 0 -90 0 0 196 c0 114 4 203 10
214 11 21 56 49 78 50 7 0 26 -7 42 -15z"/>
</g>
</svg>
