<?xml version="1.0" standalone="no"?>
<!DOCTYPE svg PUBLIC "-//W3C//DTD SVG 20010904//EN"
 "http://www.w3.org/TR/2001/REC-SVG-20010904/DTD/svg10.dtd">
<svg version="1.0" xmlns="http://www.w3.org/2000/svg"
 width="128.000000pt" height="128.000000pt" viewBox="0 0 128.000000 128.000000"
 preserveAspectRatio="xMidYMid meet">
<g transform="translate(0.000000,128.000000) scale(0.100000,-0.100000)"
fill="#000000" stroke="none">
<path d="M285 995 c-34 -33 -34 -83 0 -115 21 -20 39 -25 96 -28 47 -3 69 -8
66 -16 -2 -6 -15 -44 -28 -83 l-23 -73 -108 0 c-102 0 -110 -2 -133 -25 -17
-16 -25 -35 -25 -57 1 -64 39 -88 140 -88 53 0 71 -3 68 -12 -3 -7 -22 -68
-43 -136 -43 -136 -42 -169 7 -186 52 -18 69 6 123 178 l50 156 165 0 165 0
50 -156 c54 -172 71 -196 123 -178 49 17 50 50 7 186 -21 68 -40 129 -43 136
-3 9 15 12 68 12 101 0 139 24 140 88 0 22 -8 41 -25 57 -23 23 -31 25 -133
25 l-108 0 -23 73 c-13 39 -26 77 -28 83 -3 8 19 13 66 16 57 3 75 8 96 28 34
32 34 82 0 115 l-24 25 -331 0 -331 0 -24 -25z m437 -224 c14 -44 23 -82 20
-85 -7 -8 -197 -8 -204 0 -3 3 6 41 20 85 l26 79 56 0 56 0 26 -79z"/>
</g>
</svg>
