<?xml version="1.0" standalone="no"?>
<!DOCTYPE svg PUBLIC "-//W3C//DTD SVG 20010904//EN"
 "http://www.w3.org/TR/2001/REC-SVG-20010904/DTD/svg10.dtd">
<svg version="1.0" xmlns="http://www.w3.org/2000/svg"
 width="128.000000pt" height="128.000000pt" viewBox="0 0 128.000000 128.000000"
 preserveAspectRatio="xMidYMid meet">
<g transform="translate(0.000000,128.000000) scale(0.100000,-0.100000)"
fill="#000000" stroke="none">
<path d="M502 1265 c-34 -8 -95 -30 -135 -49 -342 -166 -468 -578 -275 -904
42 -72 148 -178 220 -220 31 -18 89 -45 130 -60 64 -23 88 -26 198 -26 110 0
134 3 197 26 40 14 93 38 119 53 46 27 46 27 27 47 -20 19 -20 19 -79 -11
-182 -92 -414 -81 -581 29 -115 76 -213 212 -248 346 -19 75 -19 213 0 288 52
198 223 369 421 421 32 8 97 15 144 15 160 0 297 -57 410 -170 113 -113 170
-251 170 -410 0 -94 -9 -137 -47 -223 -25 -56 -26 -58 -7 -72 10 -8 22 -15 26
-15 10 0 65 140 77 198 55 263 -91 556 -339 680 -137 68 -284 88 -428 57z"/>
<path d="M536 935 c-113 -43 -169 -134 -144 -234 11 -43 32 -68 127 -154 l42
-38 -3 -92 -3 -92 85 0 85 0 3 44 c2 30 -2 49 -14 62 -31 35 -12 80 65 148 83
74 105 115 99 183 -7 66 -48 124 -113 157 -60 32 -168 39 -229 16z m144 -65
c22 -44 27 -122 9 -167 -6 -15 -19 -59 -29 -98 -16 -64 -19 -67 -25 -40 -4 17
-17 61 -31 98 -13 38 -24 91 -24 118 0 61 32 129 60 129 13 0 27 -14 40 -40z
m81 1 c56 -35 84 -87 76 -144 -5 -33 -18 -53 -83 -118 -43 -43 -80 -77 -82
-75 -2 2 10 45 27 96 34 100 38 163 16 225 -8 22 -15 41 -15 43 0 8 22 -2 61
-27z m-197 -18 c-20 -58 -17 -123 11 -191 13 -33 29 -79 34 -101 l9 -40 -84
76 c-95 86 -113 122 -95 182 12 41 39 71 86 95 48 25 54 21 39 -21z m96 -398
c0 -8 -9 -15 -20 -15 -11 0 -20 7 -20 15 0 8 9 15 20 15 11 0 20 -7 20 -15z
m30 -75 c0 -5 -25 -10 -55 -10 -30 0 -55 5 -55 10 0 6 25 10 55 10 30 0 55 -4
55 -10z"/>
<path d="M1035 237 c-29 -46 12 -99 65 -82 22 7 34 39 28 76 -2 20 -10 25 -40
27 -30 3 -40 -1 -53 -21z"/>
</g>
</svg>
