<?xml version="1.0" standalone="no"?>
<!DOCTYPE svg PUBLIC "-//W3C//DTD SVG 20010904//EN"
 "http://www.w3.org/TR/2001/REC-SVG-20010904/DTD/svg10.dtd">
<svg version="1.0" xmlns="http://www.w3.org/2000/svg"
 width="128.000000pt" height="128.000000pt" viewBox="0 0 128.000000 128.000000"
 preserveAspectRatio="xMidYMid meet">
<g transform="translate(0.000000,128.000000) scale(0.100000,-0.100000)"
fill="#000000" stroke="none">
<path d="M1130 1256 c-8 -8 -33 -21 -55 -28 -37 -12 -44 -21 -92 -113 -59
-116 -94 -149 -167 -163 -28 -5 -79 -17 -113 -26 -62 -17 -65 -17 -190 10
-110 23 -134 25 -171 15 -61 -16 -190 -105 -198 -136 -12 -47 6 -155 29 -178
19 -19 22 -32 20 -92 l-2 -71 27 2 c22 0 28 6 32 30 5 29 66 154 75 154 9 0
70 -125 75 -154 4 -25 10 -29 38 -30 24 -1 32 3 32 17 0 18 39 101 68 145 15
23 15 22 50 -39 19 -35 38 -76 41 -92 6 -26 11 -30 39 -31 24 -1 32 3 32 17 0
18 39 101 68 145 15 23 15 23 53 -45 21 -37 39 -81 39 -98 l1 -30 30 35 c60
69 82 118 89 199 5 58 18 102 54 188 26 61 53 113 59 116 23 8 37 -5 37 -32 0
-29 36 -92 57 -98 9 -3 10 4 2 29 -15 55 -11 68 26 83 37 16 55 41 47 65 -3 8
-23 39 -45 69 -34 47 -38 56 -28 78 14 32 15 31 -13 26 -20 -4 -25 -1 -28 21
-3 24 -5 25 -18 12z"/>
<path d="M66 552 c-26 -51 -26 -52 -26 -297 l0 -245 50 0 50 0 0 50 0 50 65 0
65 0 0 -50 0 -50 50 0 50 0 0 50 0 50 65 0 65 0 0 -50 0 -50 50 0 50 0 0 50 0
50 65 0 65 0 0 -50 0 -50 50 0 50 0 0 50 0 50 65 0 65 0 0 -50 0 -50 50 0 50
0 0 253 c-1 244 -2 253 -24 297 l-24 44 -26 -52 c-14 -28 -26 -65 -26 -82 l0
-30 -65 0 -65 0 0 38 c-1 20 -11 57 -24 82 l-24 44 -26 -52 c-14 -28 -26 -65
-26 -82 l0 -30 -65 0 -65 0 0 38 c-1 20 -11 57 -24 82 l-24 44 -26 -52 c-14
-28 -26 -65 -26 -82 l0 -30 -65 0 -65 0 0 38 c-1 20 -11 57 -24 82 l-24 44
-26 -52 c-14 -28 -26 -65 -26 -82 l0 -30 -65 0 -65 0 0 38 c-1 20 -11 57 -24
82 l-24 44 -26 -52z m204 -277 l0 -106 -62 3 -63 3 -3 89 c-2 49 -1 95 2 103
4 9 25 13 66 13 l60 0 0 -105z m230 0 l0 -106 -62 3 -63 3 -3 89 c-2 49 -1 95
2 103 4 9 25 13 66 13 l60 0 0 -105z m230 0 l0 -106 -62 3 -63 3 -3 89 c-2 49
-1 95 2 103 4 9 25 13 66 13 l60 0 0 -105z m230 0 l0 -106 -62 3 -63 3 -3 89
c-2 49 -1 95 2 103 4 9 25 13 66 13 l60 0 0 -105z"/>
</g>
</svg>
