<?xml version="1.0" standalone="no"?>
<!DOCTYPE svg PUBLIC "-//W3C//DTD SVG 20010904//EN"
 "http://www.w3.org/TR/2001/REC-SVG-20010904/DTD/svg10.dtd">
<svg version="1.0" xmlns="http://www.w3.org/2000/svg"
 width="128.000000pt" height="128.000000pt" viewBox="0 0 128.000000 128.000000"
 preserveAspectRatio="xMidYMid meet">
<g transform="translate(0.000000,128.000000) scale(0.100000,-0.100000)"
fill="#000000" stroke="none">
<path d="M334 1201 c-22 -10 -51 -31 -63 -47 -44 -56 -10 -123 131 -260 99
-96 155 -144 168 -144 16 0 12 35 -20 163 -44 177 -67 241 -98 270 -37 36 -69
41 -118 18z"/>
<path d="M832 1195 c-37 -31 -55 -75 -98 -243 -34 -133 -42 -202 -24 -202 13
0 248 228 282 274 20 28 28 50 28 80 -1 47 -12 65 -60 95 -47 28 -91 27 -128
-4z"/>
<path d="M40 733 c-57 -51 -50 -157 11 -188 45 -24 110 -18 262 24 200 55 223
66 194 89 -22 18 -342 102 -390 102 -37 0 -53 -6 -77 -27z"/>
<path d="M1015 734 c-197 -55 -255 -75 -255 -89 0 -25 311 -115 397 -115 40 0
58 5 81 25 58 49 49 156 -17 189 -41 22 -100 19 -206 -10z"/>
<path d="M461 450 c-220 -198 -258 -290 -146 -355 48 -29 74 -31 115 -10 43
22 66 77 111 253 40 159 46 202 30 202 -5 0 -54 -41 -110 -90z"/>
<path d="M700 507 c0 -46 61 -288 90 -354 37 -87 104 -109 180 -59 63 42 67
114 10 185 -31 38 -242 240 -267 255 -10 5 -13 -2 -13 -27z"/>
</g>
</svg>
