<?xml version="1.0" standalone="no"?>
<!DOCTYPE svg PUBLIC "-//W3C//DTD SVG 20010904//EN"
 "http://www.w3.org/TR/2001/REC-SVG-20010904/DTD/svg10.dtd">
<svg version="1.0" xmlns="http://www.w3.org/2000/svg"
 width="128.000000pt" height="128.000000pt" viewBox="0 0 128.000000 128.000000"
 preserveAspectRatio="xMidYMid meet">
<g transform="translate(0.000000,128.000000) scale(0.100000,-0.100000)"
fill="#000000" stroke="none">
<path d="M730 1190 c0 -49 -2 -90 -5 -90 -3 0 -24 9 -45 20 l-40 20 -320 -160
-320 -160 0 -90 c0 -101 -9 -95 82 -56 21 9 42 16 48 16 7 0 10 -115 10 -345
l0 -345 65 0 65 0 2 377 3 377 25 13 c14 7 96 43 183 80 l158 66 45 -21 44
-22 0 -205 0 -204 -157 -3 -158 -3 -3 -227 -2 -228 230 0 230 0 0 405 c0 223
3 405 6 405 4 0 33 -12 65 -26 l59 -27 0 -378 0 -379 70 0 70 0 0 345 c0 217
4 345 10 345 5 0 35 -11 66 -25 31 -14 58 -25 60 -25 2 0 4 41 4 90 l0 90
-205 102 -204 102 -3 126 -3 125 -67 3 -68 3 0 -91z m-47 -931 c33 -15 47 -49
47 -114 l0 -55 -90 0 -90 0 0 65 c0 57 3 69 25 90 26 27 68 32 108 14z"/>
</g>
</svg>
