<?xml version="1.0" standalone="no"?>
<!DOCTYPE svg PUBLIC "-//W3C//DTD SVG 20010904//EN"
 "http://www.w3.org/TR/2001/REC-SVG-20010904/DTD/svg10.dtd">
<svg version="1.0" xmlns="http://www.w3.org/2000/svg"
 width="128.000000pt" height="128.000000pt" viewBox="0 0 128.000000 128.000000"
 preserveAspectRatio="xMidYMid meet">
<g transform="translate(0.000000,128.000000) scale(0.100000,-0.100000)"
fill="#000000" stroke="none">
<path d="M500 1184 c-99 -26 -179 -72 -255 -148 -114 -114 -165 -236 -165
-396 0 -160 51 -282 165 -395 271 -270 720 -198 894 144 31 60 61 184 61 251
0 76 -32 197 -72 272 -67 127 -215 239 -359 273 -80 18 -197 18 -269 -1z m242
-45 c95 -20 177 -66 254 -143 204 -205 204 -507 0 -712 -206 -206 -516 -206
-721 1 -97 98 -145 215 -145 355 0 140 48 257 145 355 125 126 297 179 467
144z"/>
<path d="M570 847 c-41 -4 -90 -6 -109 -3 -41 6 -149 -20 -176 -43 -11 -10
-33 -25 -48 -35 -24 -15 -28 -22 -22 -44 4 -15 13 -34 21 -43 17 -19 82 -44
135 -53 20 -4 46 -17 59 -31 19 -21 23 -35 23 -87 0 -70 8 -88 43 -88 40 0 71
21 90 61 l17 39 61 -1 c34 -1 75 -4 91 -8 26 -6 30 -11 28 -36 -1 -16 3 -35 9
-42 13 -16 99 -18 114 -3 8 8 19 8 38 0 42 -16 55 -13 88 20 26 27 30 36 24
69 -3 20 -22 66 -41 102 -20 35 -44 82 -55 104 -11 23 -38 56 -61 74 -74 60
-135 69 -329 48z m266 -45 c22 -11 49 -31 60 -44 27 -28 99 -163 119 -221 14
-40 13 -43 -8 -64 -15 -16 -29 -21 -44 -17 -23 6 -32 24 -13 24 16 0 12 14
-12 40 l-22 24 -9 -35 c-12 -46 -24 -59 -58 -59 -25 0 -29 4 -29 28 0 16 -14
48 -31 72 -22 30 -29 49 -25 66 8 28 1 31 -13 6 -7 -13 -6 -27 5 -46 18 -37
18 -39 -8 -30 -23 7 -59 11 -116 13 -28 1 -33 5 -39 32 -4 21 -8 26 -14 18 -4
-7 -5 -17 -3 -21 3 -5 -2 -33 -11 -64 -12 -42 -22 -57 -41 -64 -39 -15 -42
-13 -37 33 6 54 -15 115 -47 138 -14 11 -58 28 -99 38 -41 11 -78 25 -82 33
-14 21 -10 38 8 45 10 3 26 14 35 24 10 10 35 21 55 24 21 3 46 10 56 16 10 5
23 6 30 2 14 -9 120 -5 197 7 76 12 150 5 196 -18z"/>
</g>
</svg>
